<?xml version="1.0" encoding="utf-8"?>
<!-- Generator: Adobe Illustrator 20.0.0, SVG Export Plug-In . SVG Version: 6.00 Build 0)  -->
<svg version="1.1" id="Layer_1" xmlns="http://www.w3.org/2000/svg" xmlns:xlink="http://www.w3.org/1999/xlink" x="0px" y="0px"
	 viewBox="0 0 648 864" style="enable-background:new 0 0 648 864;" xml:space="preserve">
<style type="text/css">
	.st0{fill:none;stroke:#231F20;stroke-width:0.25;stroke-miterlimit:10;}
	.st1{fill:none;}
	.st2{fill:#CCCCCC;}
	.st3{fill:#FFFFFF;}
	.st4{fill:#1578B5;}
	.st5{fill:none;stroke:#0A3B59;stroke-width:2;stroke-miterlimit:10;stroke-dasharray:6,6;}
	.st6{fill:#0A3B59;}
	.st7{fill:none;stroke:#2A8ECD;stroke-width:2;stroke-miterlimit:10;stroke-dasharray:6;}
	.st8{font-family:'AvenirNext-Regular';}
	.st9{font-size:24px;}
</style>
<title>female-transhumeral-R</title>
<polygon class="st0" points="163.6,548.7 163.4,548.7 163.4,548.7 "/>
<path class="st1" d="M460.9,450.9c7.5-0.8,15.1-1.4,22.7-1.9C476,450,468.4,451.1,460.9,450.9z"/>
<path class="st2" d="M236.4,383c2,4,4.3,7.7,7,11.2c10.6,14.7,12.8,53.5-18.7,155.2l89.7,0.5v0.1h9.8h9.8v-0.1l89.7-0.5
	c-31.5-101.7-29.3-140.5-18.7-155.1c2.7-3.5,5-7.3,7-11.3c14.9-29.8,4-58,6.5-58.6l3.9-11c17.4,70.8,20.6,98.3,19.6,109.3
	c-0.6,6.9-0.8,13.9-0.6,20.9c0.2,7.4,1,14.7,2.3,22c3.9,21.6,9.5,23.9,15.5,48c2,8,3,14.7,5.1,27.2c1.1,6.8,1.7,11.2,3.6,26.1
	c5.1,40.6,5.4,44,3.5,50.1c-3.3,10.4-6.5,7.9-13.6,23.3c-7.8,16.8-12.4,38-7.2,40.8c2.6,1.4,7.2-2.4,9-3.9c4.2-3.6,5.3-7.3,11.8-22
	c1.1-2.4,2-4.4,2.5-5.5c0.2,2,0.5,5.1,0.6,8.8c0.3,9.5,0.4,16-2.4,22.3c-1.3,2.8-4.2,8.1-11.4,12.8c-1,0.5-1.9,1.3-2.3,2.4
	c-0.8,2.3,1.1,4.9,1.5,5.5c4.2,5.9,19.8,1.5,20.9,1.2c5.5-2.2,13.1-6.3,16.7-14.2c3.2-7.1-0.6-9.4-1.1-30.4c-0.2-7.2,0.2-8.1,0-19.8
	c-0.1-9.1-0.5-15.6-0.6-17.7c-1.4-29.4,6.5-45.8,3.6-78.5c-0.8-9.4-3-15.7-3.8-29.4c-0.7-11.5,0-15.6-1.4-29.2
	c-1.2-12.1-2.6-18.2-4-22.8c-1.6-5.4-3.7-10.7-6.2-15.8c-2.2-43.4-5.5-70.8-8.2-88.3c-2.2-14.3-3.8-20.2-4.3-32.8
	c-0.6-18.3,2-27.4-2.5-39.7c-2.6-6.6-5.8-13-9.5-19.1c-3.8-6.1-8.5-11.6-13.9-16.3c-8.2-7.1-17.1-13.4-26.5-18.7
	c-26.4-14-38-12.4-48.3-18.8c-1.1-0.7-2.1-1.4-3.1-2.2c-10.1-8.2-19-26-13.3-67.7h-30.1h-30.1c5.8,41.8-3.1,59.5-13.3,67.7
	c-11.1,9-22.2,5.5-51.4,21c-9.4,5.3-18.3,11.6-26.6,18.7c-5.5,4.7-10.1,10.2-13.9,16.3c-3.7,6.1-6.9,12.5-9.5,19.1
	c-4.5,12.3-1.9,21.4-2.5,39.7c-0.4,12.6-2,18.5-4.3,32.8c-0.4,2.5-0.8,5.2-1.2,8.1l41.3,6.7c3-15.1,7.3-34,13.2-58l3.9,11
	C232.4,325,221.5,353.3,236.4,383z M202.5,365.3c-8,0-16,1-23-2C186.5,366.3,194.5,365.3,202.5,365.3L202.5,365.3z"/>
<path class="st3" d="M449.7,477c0.4,1,0.8,2,1.3,3c0.1,0.3,0.3,0.5,0.5,0.8c0.3,0.5,0.7,1,1.1,1.5c0.2,0.2,0.4,0.4,0.7,0.6
	c0.2,0.2,0.5,0.3,0.7,0.4c0.7,0.4,1.4,0.7,2.1,0.9l0.2,0.1l0.5,0.2l0.9,0.2l0.2,0.1l0.2,0.1c0,0.1,0,0.2,0,0.2s0,0.3,0,0.5
	c0,0.3,0.1,0.6,0.1,0.9c0.2,0.8,0.4,1.5,0.8,2.3c0.1,0.1,0.1,0.3,0.2,0.4c0.5,0.8,1.1,1.5,1.9,2c0,0.1,0,0.2,0,0.3
	c0,0.3,0.1,0.6,0.1,0.9s0.1,0.5,0.2,0.8c0.3,1,0.6,2,1,2.9c0.1,0.3,0.2,0.6,0.3,0.9c0.2,0.5,0.3,1,0.5,1.5c0.6,2.2,1.1,4.5,1.7,6.7
	c0.6,2.6,1.2,5.2,1.9,7.8c0.6,2.6,1.2,5.2,1.8,7.7c0.8,3.7,1.4,7.4,2.1,11.2c0.2,1.2,0.5,2.5,0.8,3.7c0.1,0.5,0.2,1,0.3,1.5
	c0.6,3.5,0.8,7.1,1.1,10.5l0.1,1.5c0,0.3,0,0.5,0.1,0.8c0.2,3.3,0.4,6.6,0.5,9.9c0.1,1.6,0.1,3.3,0.1,4.9s0.1,3.3,0.1,4.9
	c0,2.4,0.2,4.8,0.4,7.2c0.1,1.2,0.2,2.5,0.3,3.8s0.2,2.5,0.4,3.8c0.2,2.5,0.5,5,0.7,7.5c0.2,1.9,0.4,3.8,0.6,5.7s0.5,3.8,0.7,5.7
	c0.8,6.2,1.8,12.4,3,18.7c-0.7,0.2-1.3,0.4-2,0.6c-0.8,0.2-1.6,0.6-2.1,1.3c-0.9,1.5-2.2,2.7-3.6,3.7c-0.3,0.2-0.6,0.4-0.9,0.6
	c-0.3,0.3-0.5,0.6-0.5,1c-0.4-0.2-0.7-0.3-1.1-0.5c-0.3-0.1-0.7-0.2-1-0.2c-0.7,0.1-1.3,0.7-1.5,1.4c-0.1,0.7-0.1,1.5,0,2.2l0,0
	c0,0.1,0,0.1,0,0.2c-0.1,0-0.3,0.1-0.4,0.2c-0.6,0.3-1.2,0.8-1.7,1.3c-0.9,1.3-1.7,2.8-2.3,4.3c-1.1,2.2-2.1,4.5-3.1,6.8
	c-0.2,0.9-0.6,1.8-1,2.7l-2.1,3c-0.3,0.4-0.5,0.8-0.6,1.2c-0.1,0.2-0.1,0.4-0.1,0.7c0.1,0.5,0.2,1,0.5,1.5c0.2,0.3,0.4,0.6,0.6,0.8
	c-0.1,0.1-0.2,0.1-0.2,0.2c-0.3,0.5-0.5,1.1-0.4,1.7c0,0.3,0,0.5,0.1,0.7v0.3c0.1,3-0.6,5.8-2.5,7.3c-0.4,0.3-0.8,0.6-1.2,1
	c-0.5,0.4-0.8,1.1-0.8,1.8v0.1c-0.2,0.3-0.2,0.7-0.2,1v0.4c0.1,0.5,0.3,1,0.6,1.5c0.2,0.4,0.4,0.8,0.5,1.3c0,0.2,0.1,0.3,0.1,0.5
	c0,0.9-0.2,1.8-0.5,2.6c-0.1,0.2-0.1,0.5-0.1,0.7c0.1,0.8,0.4,1.5,1,2c0.3,0.3,0.6,0.5,1,0.6c0.3,0.1,0.7,0.1,1-0.1
	c0.3-0.1,0.5-0.4,0.7-0.6c0.3-0.5,0.4-1.1,0.5-1.7c0-0.5,0.1-1,0.3-1.4c0.4-0.6,0.9-1.1,1.5-1.5c0.1,0.1,0.2,0.1,0.3,0.1
	c0.3,0.1,0.6,0.1,0.9,0.1c0.4-0.1,0.8-0.4,0.9-0.9c0.1-0.4,0.2-0.8,0.2-1.2c0.2-1.7,0.5-3.3,1.1-4.8c0.1-0.5,0.3-1,0.6-1.4
	c0.5-0.6,1-1.1,1.4-1.7c0.2-0.3,0.5-0.5,0.7-0.7c0.4-0.2,0.7-0.6,0.8-1c0-0.2,0-0.4,0-0.6c0-0.2,0-0.4-0.1-0.5c0.1,0,0.2,0,0.3-0.1
	c0.7-0.7,1.3-1.4,1.9-2.2c0.5-0.9,0.8-1.9,0.9-3c0.1-1,0.1-2.1,0.3-3.1c0.4-2.1,0.9-4.1,1.6-6c0.4-1.1,1-2.2,1.9-3.1
	c0.4-0.4,0.9-0.8,1.4-1.1l0,0c0.1-0.1,0.2-0.1,0.3-0.1c0.2-0.1,0.5-0.2,0.8-0.3l0.3-0.2l0.1-0.1l0.1-0.1c0.1-0.1,0.1-0.2,0.1-0.3
	l0,0c0-0.2-0.1-0.4-0.1-0.6c0.4,0.3,0.8,0.5,1.2,0.6c0.2,0.1,0.5,0.1,0.7,0.1c0.4,1.3,0.8,2.6,1,4c0.4,2.1,1.3,4,1.7,5.9
	c0.5,2,0.8,4,1,6.1c0.1,1.1,0.1,2.3,0.1,3.4c0.1,1.3-0.2,2.5-0.8,3.7c-0.6,1-1.4,1.8-2.3,2.4c-0.9,0.6-1.1,1.8-1,3
	c0.1,0.6,0.2,1.3,0.4,1.9c-0.4,0.1-0.7,0.4-0.9,0.6c-0.6,0.7-0.9,1.7-0.8,2.6c0,0.3,0.1,0.6,0.2,0.9c0.6,1.9,1,3.9,1.2,5.9
	c0.2,1.9,0,3.7-0.6,5.5c-0.4,1.3-0.6,2.5-1.3,3.3c-0.4,0.3-0.7,0.6-1,1c-0.5,0-1,0.1-1.4,0.3c-1.8,0.8-2.7,2.5-4,3.3
	c-0.7,0.5-1.6,0.6-2.4,0.4c-0.1-0.1-0.2-0.1-0.3-0.2c-0.1,0-0.3,0-0.5,0l-0.3,0.1c-0.4,0.1-0.6,0.5-0.6,0.8c-0.2,0-0.5,0-0.7,0.1
	c-0.6,0.1-1.1,0.1-1.7,0l-0.2-0.1l-0.4-0.1c-0.2-0.1-0.5-0.1-0.7-0.2c-0.3,0-0.5,0.1-0.7,0.3c-0.1,0.2-0.2,0.5-0.2,0.8v0.1l0,0
	c0.1,0.6,0.3,1.2,0.7,1.7c0.1,0.1,0.2,0.2,0.3,0.3c0.2,0.1,0.4,0.2,0.6,0.2l0.2,0.1c0.3,0.1,0.6,0.2,0.9,0.3l0.4,0.2
	c0.2,0.3,0.4,0.7,0.7,0.9c0.3,0.2,0.6,0.4,0.9,0.6c0.4,0.2,0.8,0.4,1.2,0.5c1.2,0.4,2.3,0.4,3.3,0.7c2.1,0.5,4.2,1.1,6.3,1.7
	l0.6,0.2c0.4,0.2,0.9,0.2,1.4,0.2c0.3-0.1,0.5-0.2,0.8-0.3c0.3-0.2,0.5-0.5,0.5-0.8l0,0V703v-0.1c0.2,0.1,0.5,0.3,0.8,0.3
	c0.2,0,0.3,0.1,0.5,0.1c0.4,0,0.9,0,1.3-0.2c2.5-1.1,4.9-2.5,7-4.2c2.6-1.9,5.2-3.9,6.8-7c0.5-0.9,0.8-1.9,0.8-3
	c0-0.3-0.1-0.5-0.1-0.8c-0.5-1.5-1.3-2.8-2.5-3.9c-0.1-0.1-0.2-0.2-0.4-0.2h-0.2l-0.1-0.1c-0.2-0.1-0.3-0.2-0.5-0.3
	c0.2-0.1,0.4-0.3,0.5-0.5s0.3-0.5,0.5-0.7c0.4-0.5,0.7-1.1,0.9-1.8c0.6-1.8,1.8-3.1,1.8-5.6c0-0.3,0-0.6,0-0.9
	c-0.1-1.1-0.3-2.2-0.4-3.3c-0.1-0.4-0.1-0.8-0.1-1.3l-0.1-2.1c-0.2-2.6-0.3-5.2-0.8-8c-0.1-0.5-0.1-0.9-0.1-1.4
	c-0.1-1.7,0-3.3-0.1-5.1c-0.1-2.1-0.3-4.1-0.4-6.2v-0.1c0-0.6-0.1-1.2-0.3-1.8c0.1,0,0.2,0,0.4,0c0.2,0,0.3-0.2,0.3-0.3
	c0-0.5,0-1,0-1.5c-0.1-1.1-0.3-2.2-0.6-3.3c-0.1-0.3-0.3-0.5-0.6-0.6c-0.1,0-0.3,0-0.4,0.2c-0.9-1.8-2-3.6-3.2-5.2
	c-0.2-0.2-0.4-0.5-0.5-0.7s-0.2-0.3-0.2-0.5c0-0.1,0-0.2,0.1-0.3h0.1c0.3,0,0.6,0,0.9,0s0.6,0,1-0.1c0.6,0,1.2-0.2,1.7-0.6
	c0.2-0.1,0.3-0.2,0.4-0.4c0.1-0.1,0.2-0.3,0.2-0.4c0.1-0.2,0.1-0.3,0.2-0.4l0.2-0.4c0.1-0.1,0.1-0.2,0.2-0.3l0.1-0.2
	c0.3-0.4,0.5-0.9,0.7-1.4c0-0.1,0.1-0.2,0.1-0.3c0-0.2,0-0.3,0-0.5s0-0.4,0-0.5c0-0.4-0.1-0.7-0.2-1.1c-0.1-0.8-0.3-1.5-0.5-2.2
	c-0.1-0.3-0.1-0.7-0.2-1c-0.1-0.8-0.3-1.7-0.4-2.5s-0.2-1.7-0.2-2.5v-0.4c0-0.7-0.1-1.3-0.1-1.9s-0.1-1.3-0.1-1.9
	c-0.1-1.2,0-2.4,0.1-3.7c0.1-1.1,0.2-2.3,0.2-3.5c0.2-3.5,0.2-7.1,0.2-10.7c0-1.2,0-2.4,0-3.6c0-2.4,0-4.9-0.1-7.3
	c0-1.2,0-2.5-0.1-3.7c-0.1-2.5-0.2-4.9-0.2-7.4s-0.1-4.9-0.1-7.4c0-0.4,0-0.9-0.1-1.3s0-0.9-0.1-1.3c-0.1-1-0.2-2-0.3-3
	s-0.2-2-0.4-3c-0.2-1.5-0.4-3-0.6-4.5c-0.1-0.5-0.1-1-0.2-1.5c-0.2-1.8-0.4-3.7-0.5-5.5s-0.4-3.7-0.6-5.5l-0.2-1.4
	c-0.4-3.2-0.8-6.5-1-9.7l-0.1-1.4c-0.1-1-0.1-1.9-0.2-2.8c-0.1-1.9-0.2-3.8-0.4-5.7c-0.1-1.1-0.2-2.2-0.3-3.3c0-0.5-0.1-1.1-0.1-1.7
	s-0.1-0.8-0.1-1.2s-0.1-0.8-0.1-1.2c0-0.7-0.1-1.3-0.1-2c-0.1-1.3,0-2.6,0.1-3.8c0.1-0.6,0.2-1.2,0.3-1.8c0.1-0.4,0.2-0.7,0.3-1
	c0.1-0.3,0.2-0.6,0.4-1c0-0.1,0.1-0.2,0.2-0.3c0.1-0.1,0.2-0.2,0.3-0.2c0.1-0.1,0.2-0.1,0.3-0.2l0.4-0.3c0.2-0.2,0.4-0.4,0.5-0.6
	c0.4-0.8,0.6-1.6,0.5-2.5V498c0-0.6-0.2-1.1-0.5-1.6l-0.1-0.2c-0.1-0.2-0.3-0.4-0.4-0.6c-0.4-0.5-0.9-0.9-1.4-1.3l-0.7-0.5l-0.4-0.3
	c0.2-0.1,0.5-0.3,0.6-0.5c0.2-0.2,0.3-0.4,0.5-0.6c0.1-0.1,0.1-0.2,0.2-0.3c0.2-0.3,0.4-0.7,0.5-1c0.2-0.5,0.4-0.9,0.5-1.4
	c0.4-1.6,0.5-3.3,0.3-4.9c0-0.7-0.1-1.5-0.2-2.2s-0.2-1.2-0.3-1.8c-0.8-4.3-2-8.5-3.6-12.6c-0.9-2.3-1.7-4.5-2.6-6.8
	c-0.8-2.3-1.7-4.5-2.5-6.8s-1.6-4.5-2.4-6.8s-1.6-4.5-2.3-6.8c-1.1-3.2-2-6.4-2.7-9.5c-0.2-1-0.5-2.1-0.7-3.2
	c-0.4-2.1-0.8-4.2-1.1-6.3c-0.1-1-0.3-2.1-0.4-3.1s-0.2-2-0.3-3.1s-0.2-1.8-0.3-2.7c-0.2-1.8-0.4-3.6-0.6-5.4
	c-0.4-2.7-0.7-5.4-1-8.1c-0.1-0.9-0.2-1.8-0.3-2.7s-0.2-1.8-0.2-2.7c-0.1-2-0.2-4-0.2-6c0-1.5,0-3,0-4.5s-0.1-3-0.1-4.6
	c-0.1-3-0.3-6.1-0.5-9.2c-0.3-3.7-0.6-7.5-1-11.3s-0.8-7.5-1.2-11.3c-0.6-5.9-1.4-11.9-2-17.8c-0.2-2-0.4-3.9-0.5-5.9
	c-0.1-0.8-0.1-1.6-0.2-2.4c-0.1-2.1-0.2-4.2-0.2-6.2c-0.2-6.2-0.2-12.4-0.4-18.7c-0.1-2-0.2-4-0.3-6c-0.1-1.7-0.3-3.4-0.5-5.1
	c-0.4-3.5-1.2-7-2.2-10.4c-0.3-0.9-0.5-1.8-0.9-2.6s-0.7-1.8-1-2.7c-0.7-1.8-1.5-3.6-2.4-5.3c-0.4-0.8-0.8-1.7-1.3-2.4
	c-0.5-0.7-1.2-1.3-1.9-1.8c-0.2-0.7-0.5-1.3-0.9-1.9c-0.3-0.6-0.7-1.2-1.2-1.8c-0.9-1.2-1.9-2.2-3-3.1c-0.2-0.2-0.5-0.3-0.7-0.5
	c-0.3-0.7-0.8-1.4-1.4-1.9c-0.2-0.2-0.4-0.3-0.5-0.5c-0.5-0.4-1.1-0.8-1.7-1.1c-0.8-0.4-1.5-0.8-2.3-1.1s-1.6-0.6-2.4-0.9
	c-0.4-0.1-0.7-0.2-1.1-0.3l-1-0.3c-0.1-0.2-0.2-0.4-0.4-0.6c-0.4-0.5-0.8-1-1.4-1.5s-1.2-0.9-1.8-1.2l-0.6-0.4c-1-0.5-1.9-1-2.9-1.5
	c-2.8-1.4-5.6-2.5-8.4-4c-3.9-2.1-7.8-4.2-11.8-6c-1-0.4-1.9-0.9-2.9-1.3c-1.4-0.7-2.9-1.4-4.3-2.1s-2.9-1.5-4.3-2.3
	c-1.1-0.6-2.1-1.2-3.2-1.9l0.6,1.4c0.8,0.5,1.6,1,2.5,1.4c3.8,2.1,7.7,4,11.6,5.8s7.8,3.9,11.7,5.9s7.5,3.4,11.2,5.5
	c0.8,0.4,1.5,0.9,2.1,1.4s1.1,1.1,1.4,1.8c0.1,0.2,0.3,0.4,0.6,0.5c0.8,0.2,1.5,0.4,2.4,0.6c1.5,0.5,3,1.1,4.4,1.9
	c0.7,0.4,1.3,0.8,1.9,1.3l0.1,0.1c0.2,0.2,0.5,0.5,0.7,0.8l-0.2-0.1c-1.2-0.3-2.5-0.6-3.7-0.7c-0.8-0.1-1.6-0.3-2.4-0.5h-0.1l0,0
	H438c-0.2-0.1-0.5-0.2-0.7-0.3c-0.3-0.2-0.7-0.3-1-0.4c-0.2-0.1-0.3-0.1-0.5-0.1H435h-0.3l-0.2,0.1h-0.1l-0.1,0.1
	c-0.2,0.2-0.3,0.3-0.4,0.3c-0.2,0.1-0.3,0.1-0.5,0s-0.4-0.2-0.6-0.3l-3-1.5c-3-1.5-6.1-3-9.2-4.2c-1.2-0.5-2.5-1-3.8-1.4l-0.8-0.3
	c-0.6-0.2-1.2-0.4-1.8-0.5s-1-0.2-1.5-0.3l-0.3-0.1H412l-0.6-0.1c-0.6-0.1-1.3-0.1-1.9,0l0,0c-0.1,0-0.3,0-0.4,0l-0.9-0.8l-3.5-3.3
	l-1.5-1.3l-0.3-0.2h-0.1c-1.6-0.5-3.1-1.2-4.5-2l-0.2-0.1c-0.5-0.3-1-0.6-1.5-0.8l0.5,1.4l0.8,0.4c0.4,0.2,0.9,0.5,1.3,0.7l0.1,0.1
	c0.5,0.2,1,0.5,1.5,0.7l0.5,0.2c0.5,0.2,1.1,0.4,1.6,0.6l1.8,1.7l1.2,1.1l0.6,0.5l1,0.9l1.4,1.3l0,0c0.1,0.1,0.2,0.1,0.3,0.2
	c0.1,0,0.2,0,0.2,0c1.7-0.2,3.4,0,5,0.5c0.6,0.2,1.2,0.3,1.8,0.6c0.4,0.1,0.8,0.3,1.1,0.4c1.1,0.4,2.3,0.9,3.3,1.3s1.9,0.8,2.8,1.2
	l0.8,0.4l2,0.9l0.8,0.4c1.9,0.9,3.8,1.9,5.7,2.8c0.2,0.1,0.5,0.2,0.8,0.3l0,0c0.2,0.1,0.3,0.1,0.5,0.1h0.3h0.2h0.1l0,0l0.2-0.1
	l0.1-0.1l0.1-0.1c0.1-0.1,0.1-0.1,0.2-0.2l0,0c0,0,0,0,0.1,0s0.2,0,0.3,0.1c0.2,0.1,0.3,0.1,0.5,0.2L436,252c-1,0.5-1.9,1.1-2.8,1.8
	l0,0c-1.2-0.3-2.4-0.6-3.7-0.6c-0.3,0-0.5,0-0.8,0s-0.6,0.2-0.8,0.5c0,0,0,0,0,0.1c-0.1,0.3-0.2,0.6-0.2,0.9c0,0.3,0.1,0.7,0.3,1
	c0.3,0.6,0.6,1.2,1,1.7l0.6,0.9l0,0c-0.1,0.3-0.2,0.6-0.3,0.9c-0.1,0.3-0.2,0.6-0.3,0.9l0,0c-0.2,0.6-0.3,1.2-0.4,1.8v0.1v0.2
	c-0.1,0.5-0.1,1.1-0.2,1.7c0,0.1,0,0.3,0,0.4c0,0.7,0,1.4,0,2.1c0,0.2,0,0.4,0.1,0.7c0,0.4,0.1,0.9,0.2,1.4
	c-1.2,0.6-2.4,1.4-3.5,2.2c-0.5,0.4-1,0.9-1.3,1.4c-0.3,0.7-0.4,1.4-0.5,2.1c0,1.4-0.2,2.8-0.8,4.1c-0.5,0.9-1.6,1.2-2.8,1.5
	c-1.2,0.4-2.3,0.8-3.4,1.3c-0.1-0.8-0.3-1.5-0.5-2.2c-1-2.9-2.5-5.5-4.4-7.8c0.7-2.6-1.5-5.8-3.4-8.3c-0.3-0.4-0.5-0.7-0.8-1.1
	l-0.2-0.3l1.2,3.2c1.4,2,2.5,4.1,2.1,5.8l0.5,1.5c1.8,2.1,3.1,4.4,4,7c0.3,0.9,0.5,1.8,0.6,2.7c0.1,0.5,0.1,1,0,1.5
	c0,0.2-0.1,0.4-0.1,0.5c0.6,0.5,1.3,1,1.9,1.5c-0.3-0.3-0.5-0.6-0.8-0.9c0.1-0.6,0.2-1.2,0.1-1.8c1.3-0.6,2.6-1.1,3.9-1.6
	c1.1-0.4,2.4-0.6,3.1-1.8c0.6-1.4,0.9-2.9,0.9-4.5c0-0.5,0.1-1,0.2-1.5l0.1-0.3c0.2-0.4,0.5-0.7,0.9-1l0.2-0.2
	c0.2-0.1,0.4-0.3,0.6-0.4c0.7-0.5,1.5-1,2.3-1.4c0.1,0.3,0.1,0.7,0.2,1c0.2,1.1,0.6,2.1,1.1,3.1c0.2,0.3,0.4,0.6,0.6,0.9
	c0.8,1,1.9,1.8,2.5,2.5c0.3,0.3,0.5,0.6,0.7,0.9c0.5,0.6,0.9,1.2,1.3,1.9c0.2,0.3,0.4,0.6,0.6,1c0.3,0.6,0.7,1.2,1,1.8
	c0.3,0.6,0.6,1.2,0.9,1.8s0.6,1.2,0.8,1.9s0.5,1.2,0.7,1.9c1.7,4.8,2.9,9.8,3.7,14.8c1.9,10,3.4,20,4.5,29.8c0.4,3.3,0.7,6.6,1,9.8
	c0.2,1.9,0.3,3.7,0.4,5.6v0.3c0.4,6.2,1.1,12.5,1.8,18.8c1.2,10.5,2.5,21.2,3.6,31.7c0.1,1.4,0.3,2.7,0.4,4c0.3,2.7,0.6,5.4,0.9,8.1
	c0.6,5.4,1.3,10.9,1.7,16.3c0.1,1.3,0.2,2.7,0.3,4c0.3,4.6,0.5,9.1,0.4,13.5c0,2.3-0.2,4.6-0.5,6.9c-0.1,0.7-0.2,1.5-0.4,2.2
	c-0.3,1.4-0.7,2.8-1.1,4.1c-0.4,1.3-1,2.6-1.6,3.9c-0.1,0.3-0.3,0.5-0.4,0.8c-0.3,0.5-0.5,1.1-0.8,1.6c-0.4,0.9-0.9,1.8-1.6,2.5
	c-0.3,0.3-0.6,0.6-0.9,0.9c-0.1,0.1-0.1,0.1-0.2,0.2c-0.4,0.3-0.8,0.6-1.2,0.9c-0.2,0.2-0.3,0.3-0.4,0.5l-0.1,0.3
	c-0.3,0.7-0.5,1.4-0.5,2.1c0,0.1,0,0.3,0,0.4s0,0.4,0,0.5 M432.3,254.4c-0.2,0.2-0.4,0.4-0.6,0.6l-0.2-0.2l-1-0.7
	C431.1,254.2,431.7,254.3,432.3,254.4z M429.4,256c-0.1-0.2-0.3-0.4-0.4-0.7c-0.1-0.2-0.1-0.4-0.2-0.6c0-0.1,0-0.3,0.1-0.4l0.1-0.1
	l2.1,1.5l1,0.7l2,1.4c0.4,0.2,0.7,0.5,0.9,0.9l0.1,0.3c0,0.2-0.1,0.4-0.2,0.6c-0.2,0.2-0.4,0.4-0.7,0.5c-0.2,0-0.3,0-0.5-0.1
	c-0.5-0.2-1-0.4-1.5-0.6c-0.5-0.3-1-0.5-1.3-0.6h-0.1l0,0l0,0c0-0.1,0-0.2,0-0.3c0-0.1-0.1-0.2-0.1-0.3l-0.5-0.8l-0.3-0.4L429.4,256
	z M449.7,472.9c0-0.8,0.2-1.7,0.6-2.4c0.3-0.6,1-0.9,1.7-1.4c1.9-1.6,2.7-3.9,3.8-6.1c2.5-5.5,3.8-11.4,3.7-17.5
	c0.1-4.4-0.1-9-0.5-13.6c-0.8-10.7-2.3-21.8-3.4-32.5c-1.7-16.8-4.2-34-5.4-50.5v-0.3c-1.1-15.2-3.1-30.4-5.9-45.4
	c-0.9-5.2-2.2-10.2-3.9-15.2c-1-2.6-2.2-5.2-3.6-7.6c-0.8-1.4-1.8-2.8-2.9-4c-0.9-1-1.9-1.7-2.5-2.5c-0.7-1-1.2-2.1-1.4-3.3
	c-0.1-0.7-0.3-1.4-0.3-2s-0.1-1.2-0.2-1.6c0-0.1,0-0.2,0-0.3v-0.3c0-0.7,0-1.3,0-2v-0.5l0,0c0-0.5,0.1-1,0.1-1.4c0-0.1,0-0.2,0-0.2
	c0-0.1,0-0.2,0-0.2c0.1-0.5,0.2-0.9,0.3-1.4c0-0.1,0.1-0.2,0.1-0.3s0.2-0.5,0.3-0.7l0.4,0.2l0.5,0.2l0.8,0.4l0.9,0.4
	c0.3,0.1,0.6,0.2,0.8,0.3l0.3,0.1c0.3,0.1,0.6,0.1,0.8,0c0.2-0.1,0.3-0.2,0.5-0.3c0.2-0.1,0.3-0.2,0.4-0.4c0.1-0.1,0.1-0.1,0.2-0.2
	c0.1-0.2,0.2-0.5,0.2-0.8c0-0.1,0-0.1,0-0.2s0-0.3-0.1-0.4c0-0.1-0.1-0.3-0.1-0.4c-0.1-0.2-0.2-0.4-0.3-0.5
	c-0.2-0.3-0.5-0.5-0.8-0.8l-0.4-0.3l-1.7-1.2c0.2-0.2,0.4-0.4,0.6-0.6l0.5-0.4l0,0l0.5-0.4l0.4-0.3l0,0c0.3-0.2,0.5-0.4,0.8-0.5
	l0.1-0.1l0.1-0.1c0.2-0.1,0.5-0.3,0.7-0.4h0.1l0.3-0.1l0.4-0.1l0.4-0.2c0.4,0.1,0.7,0.2,1.1,0.3s0.9,0.2,1.3,0.2
	c1,0.1,1.8,0.2,2.7,0.4c0.3,0.1,0.6,0.1,0.9,0.2c0.3,0.1,0.7,0.2,1,0.4c0.1,0,0.2,0,0.4,0c2.2,1.6,3.9,3.9,4.8,6.4
	c0.1,0.2,0.2,0.3,0.3,0.4c0.6,0.4,1.2,0.9,1.7,1.5c0.4,0.7,0.8,1.4,1.1,2.1c0.8,1.7,1.6,3.5,2.3,5.2c2.6,6.5,4.1,13.4,4.4,20.3
	c0.1,2,0.2,4,0.3,5.9c0.4,8.3,0.2,16.5,0.7,25c0,0.8,0.1,1.6,0.1,2.4c0.6,7.8,1.7,15.8,2.5,23.7c0.8,7.5,1.6,15.1,2.1,22.5
	c0.4,6.1,0.7,12.2,0.6,18.2c0,2,0.1,4,0.2,6.1c0.5,7.1,1.8,14.4,2.5,21.6c0.8,8.7,2.5,17.2,5.3,25.4c3.1,9.1,6.4,18.2,9.9,27.3
	c1.8,4.5,3.1,9.3,3.8,14.1c0.1,0.7,0.2,1.4,0.2,2.1c0.1,1.6,0,3.1-0.3,4.6c-0.2,0.9-0.6,1.8-1.1,2.6c-0.4,0.6-1,1-1.6,1.1
	c-0.2-0.1-0.4-0.2-0.5-0.2h-0.1c-0.4-0.1-0.9-0.2-1.3-0.2h-0.6H482c-0.4-0.2-0.9-0.4-1.4-0.6l-0.4-0.1c-0.6-0.1-1.2-0.1-1.8,0
	c-0.5,0.1-1,0.1-1.5,0.1c-0.2,0-0.3-0.1-0.5-0.1c-0.6-0.3-1.2-0.6-1.8-1c-0.6-0.4-1.3-0.8-2.1-1.1c-0.3-0.1-0.7-0.2-1-0.1
	c-0.4-0.5-0.9-1.1-1.3-1.6s-0.7-0.9-1.1-1.4l-0.6-0.7c-0.2-0.2-0.5-0.5-0.7-0.7s-0.4-0.3-0.6-0.5c-0.2-0.1-0.4-0.3-0.6-0.4
	c-0.1-0.1-0.3-0.1-0.4-0.2c-0.5-0.2-1.1-0.1-1.5,0.3s-0.7,0.8-1,1.3s-0.6,0.9-0.9,1.4c-0.2,0.3-0.4,0.6-0.5,1
	c-0.2,0.3-0.3,0.5-0.4,0.8c-0.2,0.5-0.3,1-0.4,1.5c-0.4-0.4-0.8-0.8-1.1-1.3c-0.5-0.9-0.9-1.9-0.9-2.9c0-0.4,0-0.8,0.1-1.2
	c0-0.1,0-0.1,0-0.2s0-0.1-0.1-0.2l0,0c0-0.1-0.1-0.1-0.1-0.2c-0.1-0.1-0.1-0.1-0.2-0.2c-0.1,0-0.1-0.1-0.2-0.1s-0.1,0-0.2,0l0,0l0,0
	c-0.1,0-0.3,0-0.4-0.1c-0.7-0.1-1.7-0.5-1.9-0.5l-0.2-0.1c-0.9-0.3-1.7-0.7-2.4-1.2c-0.7-0.6-1.3-1.4-1.7-2.2
	c-0.5-0.9-0.9-1.9-1.3-2.8 M479.9,492.7c-0.9,0.3-1.7,0.7-2.4,1.2c-0.2,0.2-0.4,0.4-0.4,0.7c-0.7-0.9-1.5-1.7-2.4-2.4
	c-0.6-0.5-1.2-1-1.7-1.5c0.2,0.1,0.4,0.2,0.5,0.2c0.3,0.2,0.6,0.4,0.9,0.6s0.6,0.4,1,0.6s0.7,0.4,1.1,0.5c0.2,0.1,0.4,0.1,0.7,0.1
	c0.4,0.1,0.9,0.1,1.3,0l0.4-0.1h0.4c0.1-0.1,0.3-0.1,0.4-0.2L479.9,492.7z M476.7,592.1c-0.5-5-1-10.1-1.4-15
	c-0.2-2.4-0.3-4.8-0.3-7.2c-0.1-6.5-0.2-13.1-0.7-19.8c-0.1-0.8-0.1-1.5-0.2-2.3c-0.2-4.1-0.7-8.2-1.4-12.2
	c-1.1-4.9-1.8-9.9-2.9-14.9s-2.4-10.3-3.6-15.5c-0.5-2.2-1.1-4.5-1.7-6.7c-0.6-2.1-1.6-4.1-1.9-6c0-0.3-0.1-0.5-0.1-0.8v-0.1
	c0-0.3,0-0.7,0-1c0.1-0.7,0.3-1.4,0.7-2c0.6-1.3,1.4-2.5,2.4-3.6c0.2-0.2,0.4-0.2,0.7-0.1c0.4,0.2,0.8,0.4,1.1,0.8
	c0.4,0.4,0.8,0.8,1.1,1.2c0.7,0.8,1.3,1.7,2,2.6c0.3,0.4,0.6,0.7,0.9,1.1l0,0c0.9,0.9,1.8,1.7,2.8,2.5c0.9,0.7,1.7,1.5,2.3,2.4
	c0.1,0.2,0.2,0.3,0.3,0.5c0,0.1,0,0.2,0,0.3c0.1,0.3,0.2,0.6,0.3,0.9l0.2,0.4c0.1,0.1,0.2,0.2,0.2,0.3l0,0c0.1,0.4,0.2,0.9,0.3,1.3
	c0,0.2,0,0.4,0.1,0.6c0,1.4-0.1,2.9-0.4,4.3c0,0.5,0,1.1,0,1.6c0.1,0.7,0.1,1.3,0.3,2c-0.2,0.6-0.3,1.2-0.5,1.9
	c-0.3,1.2-0.5,2.5-0.5,3.8c0,0.2,0,0.4,0,0.6s0,0.2,0,0.3c0,0.5,0.1,0.9,0.2,1.3c0.3,1.4,0.7,2.8,1.1,4.3c0.2,0.7,0.4,1.5,0.5,2.2
	c0,0.6,0,1.2,0.1,1.8c0.1,1.9,0.4,3.8,0.6,5.7s0.5,3.5,0.8,5.3c0.7,4.9,1.2,9.7,1.6,14.4c0.2,2.4,0.3,4.8,0.3,7.2
	c0.1,7.1-0.5,14-0.2,21.3c0.1,4.5,0.5,8.8,0.7,13.2c0.1,2.2,0.2,4.5,0.3,6.8c0.2,2.9,0.5,5.8,1,8.7c0,0.1,0,0.2,0,0.2
	c-0.2,1.9-0.4,3.9-0.6,5.8c-0.1,0.8-0.1,1.7-0.3,2.4c0,0.4-0.1,0.7-0.2,1.1c-0.1,0.3-0.2,0.7-0.4,1c-0.1,0.2-0.2,0.5-0.3,0.7
	c-0.2,0.5-0.3,1-0.3,1.5c0,0.3,0,0.6,0,0.9s0,0.6-0.1,0.9c0,0.3,0,0.7,0,1v0.2c0,0.1,0,0.3,0.1,0.4c-0.3-0.1-0.5-0.2-0.8-0.3
	C478.9,612.3,477.5,602.2,476.7,592.1L476.7,592.1z M481.7,536.9c-0.1-0.6-0.1-1.2-0.2-1.8s-0.2-1.2-0.2-1.8c-0.1-1-0.3-2-0.4-3.1
	c0.4,2.1,0.9,4.2,1.3,6.3c0.2,1,0.4,1.9,0.5,2.9c0.3,1.9,0.5,3.9,0.8,5.8c0.1,1.2,0.2,2.4,0.4,3.6c0.3,3.6,0.5,7.2,0.8,10.8l0.1,1.8
	c0,0.3,0,0.6,0.1,0.9c0.1,1.6,0.2,3.3,0.3,4.9c0.3,4.9,0.4,9.7,0.4,14.5c0,1.5-0.1,2.9-0.3,4.3c-0.1,1.1-0.2,2.2-0.2,3.3
	c0,0.4,0,0.8,0,1.1c0,1.3,0.1,2.7,0.1,4s0,2.6,0,3.9c0,0.8-0.1,1.7-0.2,2.5c0,0.4-0.1,0.8-0.1,1.2c-0.1-1.3-0.3-2.7-0.4-4
	c-0.1-1.2-0.1-2.3-0.2-3.4s-0.1-2.3-0.1-3.4c-0.1-4-0.4-7.7-0.6-11.6L483,578c-0.1-2.7-0.1-5.3,0-8c0-0.9,0-1.8,0.1-2.6
	c0.1-3.5,0.2-7,0.2-10.6c0-2.4-0.1-4.9-0.3-7.3C482.6,545.4,482.1,541.1,481.7,536.9L481.7,536.9z M472,629c0.3-0.2,0.5-0.4,0.8-0.5
	c1.5-1,2.8-2.3,3.8-3.8c0.5-0.5,1.1-0.9,1.8-1c0.6-0.2,1.3-0.3,1.9-0.6l0,0l0.2,0.1c0.5,0.2,0.9,0.5,1.4,0.7l0,0
	c0.3,0.9,0.7,1.7,1.1,2.5l0,0l0.1,0.1l0.2,0.4l0,0c0.5,0.9,1,1.8,1.6,2.6l0,0c-0.2,0.3-0.5,0.5-0.8,0.6c-0.7,0.2-1.3,0.5-1.8,1
	c-0.4,0.6-0.6,1.2-0.6,1.9c-0.1,0.9-0.2,1.7-0.4,2.6c-1.3-0.9-2.7-1.7-4.1-2.5c-0.2-0.1-0.3-0.2-0.5-0.2c-0.2-0.1-0.4-0.1-0.5-0.1
	l-0.1,0.1c0-0.3-0.1-0.5-0.1-0.8c-0.1-0.3-0.2-0.6-0.5-0.9l0,0V631c-0.4-0.6-1-1.1-1.7-1.3h-0.2c-0.8-0.2-1.3-0.1-1.9-0.2
	C471.8,629.3,471.9,629.1,472,629z M482.5,637.3l0.5,0.3l0.2,0.1l1.2,0.9c0.6,0.4,1.1,0.8,1.6,1.3l0.1,0.3c0,0,0,0,0,0.1v0.1
	c0,0.1-0.1,0.2-0.1,0.3s0,0.1-0.1,0.2c0,0.1-0.1,0.2-0.2,0.3l0,0c-0.1,0-0.1,0.1-0.2,0.1l0,0c-0.2,0-0.3,0-0.5-0.1s-0.5-0.2-0.7-0.3
	c-1.1-0.5-2.1-1.2-3.2-1.8c-0.4-0.2-0.7-0.4-1.1-0.7l-0.3-0.2c-0.4-0.2-0.7-0.5-1-0.8c-0.2-0.2-0.4-0.4-0.6-0.7
	c-0.1-0.2-0.3-0.4-0.4-0.6c0-0.1-0.1-0.2-0.1-0.2c-0.1-0.2-0.1-0.3-0.2-0.5c0-0.1,0-0.1-0.1-0.2v-0.1c0-0.1,0-0.1-0.1-0.2
	c0-0.1-0.1-0.2-0.1-0.4c0,0,0,0,0-0.1c0-0.2-0.1-0.4-0.1-0.6c0,0,0-0.1,0-0.2l0.3,0.1c1.4,0.8,2.8,1.6,4.2,2.5l0.5,0.3L482.5,637.3
	L482.5,637.3z M458.5,671.3c-0.2,0.1-0.3,0.2-0.5,0.3l-0.2,0.1l-0.5,0.3c-0.1,0.1-0.3,0.2-0.4,0.3c-0.5,0.4-0.9,0.8-1.2,1.3
	c-0.3,0.5-0.4,1.1-0.4,1.7c0,0.5-0.1,1-0.4,1.4c-0.1,0.2-0.2,0.3-0.4,0.4c-0.1,0.1-0.3,0.1-0.4,0s-0.3-0.1-0.4-0.2
	c-0.3-0.3-0.5-0.6-0.5-1c0-0.1,0-0.3,0-0.4c0.4-0.9,0.5-1.9,0.5-2.9c0-0.2,0-0.4-0.1-0.7c-0.1-0.5-0.3-1.1-0.6-1.6
	c-0.2-0.3-0.3-0.7-0.4-1c0-0.1,0-0.2-0.1-0.2v-0.2c0-0.1,0-0.2,0-0.3c0-0.2,0.1-0.3,0.2-0.4c0.1-0.1,0.3-0.3,0.4-0.3
	c0.5-0.2,1-0.3,1.5-0.1l0,0c1.1,0.4,2.1,1.1,2.9,2c0.2,0.2,0.4,0.5,0.6,0.7l0.2,0.3l0.1,0.1v0.1C458.6,671,458.6,671.1,458.5,671.3
	L458.5,671.3z M464.1,660.7c-0.1,0.3-0.3,0.5-0.6,0.7c-0.3,0.2-0.6,0.5-0.9,0.8c-0.4,0.6-0.9,1.1-1.4,1.7c-0.3,0.5-0.5,1-0.7,1.6
	c-0.6,1.6-1,3.3-1.2,5c-0.1-0.2-0.3-0.4-0.4-0.6s-0.5-0.6-0.7-0.8c-1-1.1-2.2-1.9-3.5-2.5h-0.1c-0.3-0.1-0.7-0.1-1-0.1
	c0.3-0.3,0.6-0.5,0.9-0.7c2.1-1.7,2.8-4.7,2.7-8v-0.3c0-0.3,0-0.5-0.1-0.7c-0.1-0.4,0-0.8,0.2-1.1c0-0.1,0.1-0.1,0.2-0.2
	c0.1-0.1,0.2-0.2,0.3-0.3l0.2-0.1l0.3-0.1c0.2,0,0.4,0,0.6,0h0.1c1.4,0.6,2.6,1.6,3.6,2.7c0.2,0.2,0.3,0.4,0.4,0.6l0.1,0.1l0.4,0.7
	l0,0c0.1,0.2,0.2,0.4,0.3,0.6c0.1,0.2,0.1,0.4,0.1,0.5L464.1,660.7z M473.7,640.1l-0.8,0.3l-0.3,0.1l-0.2,0.1
	c-0.5,0.3-1,0.7-1.5,1.2c-0.9,0.9-1.6,2.1-2,3.3c-0.7,2-1.3,4.1-1.6,6.2c-0.2,1.1-0.2,2.2-0.3,3.2c0,0.9-0.3,1.8-0.8,2.6
	c-0.5,0.7-1,1.4-1.6,2h-0.1l0,0c-0.2-0.3-0.3-0.6-0.5-0.9c-0.2-0.3-0.4-0.7-0.7-1c-1.2-1.3-2.6-2.4-4.2-3.1l-0.2-0.1
	c-0.5-0.2-1-0.2-1.4,0l0,0c-0.2-0.2-0.3-0.4-0.4-0.6c-0.2-0.2-0.3-0.5-0.3-0.8v-0.3c0.1-0.4,0.3-0.7,0.5-1l2.1-3
	c0.5-0.9,0.8-1.8,1.1-2.8c1-2.3,2-4.5,3-6.7c0.6-1.5,1.3-2.9,2.2-4.2c0.4-0.5,0.9-0.9,1.5-1.2l0.3-0.2l0.4-0.2l0.1-0.1l0.4-0.1
	c0.1,0,0.1,0,0.2,0h0.2l0,0c1.3,0.8,2.5,1.9,3.4,3.2c0,0.1,0.1,0.1,0.1,0.2c0.4,0.6,0.7,1.1,0.9,1.8c0.1,0.3,0.2,0.7,0.3,1
	C473.7,639.5,473.7,639.8,473.7,640.1L473.7,640.1z M476.9,639.6h-0.1l0,0c-0.3,0-0.5,0-0.8-0.1c-0.4-0.1-0.8-0.3-1.1-0.6
	c-0.1-0.1-0.3-0.2-0.4-0.3c-0.3-1-0.8-2-1.4-3c-1-1.5-2.4-2.8-4-3.8l-0.2-0.1c-0.2-0.1-0.5-0.1-0.7,0c-0.1,0-0.1,0-0.2,0
	c0-0.5,0-0.9,0.1-1.4s0.5-0.9,0.9-0.9c0.2,0,0.4,0,0.6,0.1c0.4,0.1,0.8,0.3,1.2,0.5c0.2,0.1,0.4,0.2,0.6,0.3h0.1l0.3,0.1
	c0.1,0,0.2,0,0.3,0.1c0.6,0.1,1.2,0,1.7,0.2h0.1c0.4,0.1,0.7,0.4,0.9,0.7l0.1,0.1l0.2,0.4c0.1,0.2,0.1,0.5,0.2,0.9
	c0,0.1,0,0.2,0.1,0.3c0,0.1,0.1,0.2,0.1,0.3c0.2,0.3,0.3,0.6,0.6,0.9l0.1,0.2c0,0.2,0.1,0.3,0.1,0.5s0.1,0.2,0.1,0.3
	s0.1,0.4,0.2,0.6s0.1,0.2,0.1,0.3c0.2,0.3,0.4,0.6,0.6,0.9c0.1,0.2,0.3,0.3,0.4,0.5l0.1,0.1c0,0.1-0.1,0.2-0.2,0.4
	c-0.2,0.3-0.3,0.7-0.4,0.9S477.1,639.5,476.9,639.6L476.9,639.6z M478.1,667.4c1-0.6,1.9-1.5,2.5-2.5c0.6-1.3,0.9-2.7,0.9-4.1
	c0-1.2,0-2.3-0.1-3.5c-0.2-2.1-0.5-4.2-1-6.3c-0.5-2-1.3-4-1.7-5.9c-0.2-1.5-0.6-2.9-1.1-4.4c0.3-0.2,0.5-0.4,0.6-0.7
	s0.2-0.5,0.3-0.8c0-0.1,0.1-0.2,0.2-0.3l0.1,0.1l0.3,0.2c0.2,0.1,0.4,0.2,0.5,0.4l0.3,0.2l0.6,0.3l0.1,0.1c1.1,0.6,2.2,1.3,3.3,1.9
	c0.3,0.1,0.6,0.3,0.9,0.4l0.2,0.1h0.1c0.1,0.2,0.1,0.4,0.1,0.6c0.1,0.3,0.1,0.6,0.1,0.9c0.1,0.9-0.1,1.8-0.5,2.6
	c-0.1,0.3-0.4,0.5-0.7,0.9c-0.1,0.2-0.1,0.3-0.2,0.5c0,0,0,0,0,0.1s0,0.1,0,0.2c0,0.1,0,0.2-0.1,0.3c0,0.1,0,0.2,0,0.3
	c0,0,0,0,0,0.1s0,0.3-0.1,0.5v0.1c-0.1,0.9-0.1,1.8,0,2.6c0,0.4,0.1,0.8,0.1,1.2c0.1,0.6,0.1,1.2,0.2,1.7c0.1,1.3,0.1,2.7,0.2,4.1
	c0,0.4,0.1,0.9,0.1,1.3c0.2,2.5,0.6,5,1.2,7.5c0.1,0.3,0.2,0.6,0.3,1l0,0c0,0.1,0.1,0.2,0.1,0.3c0.1,0.4,0.2,0.7,0.3,1.1
	s0.1,0.4,0.2,0.6c0,0.2,0.1,0.4,0.1,0.6c0,0.1,0,0.3,0,0.4c-0.1,0.8-0.3,1.5-0.7,2.2c-0.1,0.3-0.3,0.5-0.5,0.7l0,0
	c-0.2,0.2-0.4,0.4-0.6,0.6l0,0c-0.2,0.2-0.5,0.3-0.8,0.4l0,0h-0.2l-0.5-0.6c-0.7-0.9-1.5-1.7-2.3-2.5c-0.7-0.7-1.6-1.3-2.6-1.6
	l-0.4-0.1c-0.2,0-0.4-0.1-0.6-0.1c-0.1-0.4-0.2-0.9-0.2-1.4C477.3,668.5,477.5,667.7,478.1,667.4L478.1,667.4z M485.2,653.6
	c0-0.3-0.1-0.7-0.1-1c0.2,0.7,0.4,1.4,0.6,2.1c0.3,1.1,0.4,2.2,0.5,3.4s0.1,2.3,0.1,3.6c0,1.1,0,2.3-0.1,3.4
	c-0.2-1.4-0.4-2.9-0.5-4.3c0-0.4-0.1-0.8-0.1-1.3c-0.1-1.3-0.1-2.7-0.2-4.1C485.4,654.8,485.3,654.2,485.2,653.6L485.2,653.6z
	 M475.3,691c0.9-1,1-2.4,1.4-3.5c0.6-1.9,0.8-3.9,0.7-5.9c-0.2-2.1-0.6-4.2-1.2-6.2c-0.1-0.2-0.1-0.4-0.1-0.6
	c-0.1-0.7,0.2-1.4,0.6-2c0.1-0.1,0.2-0.2,0.4-0.3c0.1-0.1,0.3-0.2,0.4-0.2c0.2-0.1,0.3-0.1,0.5-0.1s0.3,0,0.5,0l0.3,0.1
	c0.8,0.3,1.5,0.7,2,1.3c0.8,0.7,1.5,1.5,2.1,2.3l0.1,0.1l0.1,0.1c-0.1,0.1-0.1,0.2-0.1,0.4l0,0c0,0.2,0.1,0.4,0.2,0.6
	c0.1,0.4,0.3,0.8,0.6,1.2c0.1,0.2,0.2,0.3,0.4,0.5c-0.2,0.6-0.4,1.2-0.8,1.7c-1.2,2.3-2.1,4.7-2.7,7.2c-0.5,1.9-1,3.8-1.4,5.7
	c0,0.1,0,0.3-0.1,0.5c-0.1,0.6-0.2,1.2-0.3,1.8c0,0.2-0.1,0.3-0.2,0.5c-0.1-0.2-0.2-0.4-0.3-0.6c-0.2-0.2-0.3-0.4-0.5-0.5l-3.1-3.3
	c-0.1-0.1-0.2-0.1-0.3-0.2C474.9,691.3,475.1,691.1,475.3,691L475.3,691z M465.1,696l0.2-0.1l0.2,0.1l0,0c1,0.4,2.2,0.2,3.1-0.4
	c1.6-1,2.4-2.7,4-3.3c0.2-0.1,0.3-0.1,0.5-0.2c0.2-0.1,0.3-0.1,0.5-0.1c0.1,0,0.2,0,0.3,0c0.1,0,0.1,0.1,0.2,0.1c0,0,0.1,0,0.1,0.1
	c1,1.1,2.1,2.2,3.1,3.3c0.1,0.1,0.2,0.3,0.3,0.4v0.1l0,0c0,0.2,0,0.3-0.2,0.5c0,0.1-0.1,0.1-0.2,0.2c-0.1,0-0.1,0.1-0.2,0.1
	s-0.2,0.1-0.2,0.1h0.2c-0.1,0-0.1,0-0.2,0c-0.2,0-0.3,0.1-0.5,0.1c-0.9,0-1.8,0.1-2.7,0.4c-0.3,0.1-0.6,0.3-0.9,0.4l0,0
	c-1.6,0.6-3.2,1-4.8,1.4c0-0.2-0.1-0.4-0.2-0.5c-0.1-0.2-0.2-0.3-0.3-0.4c-0.2-0.3-0.5-0.6-0.8-0.8l-0.1-0.1
	c-0.2-0.3-0.5-0.5-0.8-0.7c-0.2-0.1-0.4-0.3-0.6-0.4C465.2,696.1,465.1,696,465.1,696L465.1,696z M463.5,698.6
	c-0.3-0.1-0.5-0.2-0.9-0.3l0,0l-0.4-0.1l-0.3-0.1l-0.8-0.3H461l-0.4-0.1c-0.1-0.2-0.2-0.5-0.3-0.8l0,0c0-0.1,0-0.2,0-0.3h0.1
	c0.2,0,0.3,0,0.5,0.1l0.4,0.1l0.4,0.1c0.7,0.1,1.3,0.1,2,0l0.4-0.1c0.1,0,0.2,0,0.2,0h0.2l0.1,0.1h0.1c0.2,0.2,0.4,0.4,0.7,0.5
	l0.1,0.1c0.1,0.1,0.3,0.2,0.4,0.3l0.2,0.3c0.2,0.2,0.4,0.4,0.6,0.6l0.1,0.2h-0.2h-0.1l0,0c-0.2,0-0.4,0-0.6-0.1l-0.6-0.1H465
	C464.5,698.8,464,698.7,463.5,698.6z M476.9,702.4c0,0.1-0.1,0.3-0.2,0.3c-0.2,0.1-0.4,0.2-0.6,0.2c-0.3,0-0.6,0-0.8-0.2l-0.6-0.2
	c-2.1-0.6-4.2-1.2-6.3-1.7c-1.1-0.3-2.2-0.3-3.2-0.7c-0.3-0.1-0.6-0.2-0.9-0.4l-0.1-0.1c0.4,0.1,0.9,0.2,1.2,0.2s1,0.1,1.5,0.1l0,0
	c0.2,0.1,0.3,0.2,0.5,0.2c0.3,0.1,0.7,0.1,1,0.1l0,0c1.7-0.4,3.3-0.8,4.9-1.4l0,0c0.7,0.5,1.5,1,2.3,1.4c0.1,0,0.2,0.1,0.2,0.1l0,0
	l0.1,0.2l0.1,0.2v0.1l0.3,0.4c0.1,0.1,0.2,0.2,0.3,0.2l0,0l0,0l0.1,0.1l0,0c0.1,0.2,0.1,0.3,0.1,0.5L476.9,702.4z M476.7,699.7
	c-0.2,0.1-0.3,0.1-0.5,0l-0.2-0.1h-0.1l-0.3-0.1l0,0c-0.4-0.2-0.8-0.4-1.2-0.7c-0.1,0-0.1-0.1-0.2-0.1c0.1,0,0.1,0,0.2-0.1
	c0.8-0.3,1.6-0.4,2.4-0.3c0.3,0,0.5-0.1,0.8-0.2h0.1l0.4-0.2l0,0l0,0h0.1h0.2c0.3,0,0.6,0,0.9-0.2c0.1-0.1,0.2-0.2,0.3-0.3
	c0.2-0.3,0.3-0.5,0.5-0.8c0.1-0.3,0.2-0.7,0.3-1c0.1-0.7,0.2-1.3,0.3-1.7c0.3-1.9,0.8-3.8,1.3-5.6c0.2-0.5,0.3-1,0.5-1.5l0.4-1.3
	c0.1-0.5,0.3-1,0.5-1.5c0-0.1,0.1-0.2,0.1-0.3c0.1-0.3,0.2-0.6,0.3-0.9c0.2-0.5,0.5-1.1,0.8-1.6l0,0c0.2-0.3,0.3-0.5,0.5-0.8
	c0,0,0,0,0-0.1c0.1-0.2,0.2-0.4,0.2-0.6c0-0.1,0.1-0.2,0.1-0.3l0,0h0.1c0.2,0.1,0.3,0.2,0.5,0.3c1,0.6,1.8,1.4,2.6,2.3
	c0.2,0.2,0.4,0.5,0.6,0.7c0,0.1,0.1,0.2,0.1,0.2c0.2,0.3,0.4,0.6,0.6,0.9c0,0.1,0.1,0.2,0.1,0.3v0.1c0,0.1,0,0.3,0,0.4v0.1
	c-0.1,0.3-0.2,0.5-0.4,0.7l-3.7,5.3c-1.2,1.7-2.8,3.1-4.1,4.7c-0.3,0.4-0.6,0.8-1,1.2c-0.1,0.2-0.3,0.4-0.5,0.5
	c-0.2,0.2-0.3,0.3-0.5,0.5l-0.1,0.1c-0.8,0.5-1.5,1-2.1,1.6C476.9,699.6,476.8,699.7,476.7,699.7L476.7,699.7z M491.7,684.6l0.2,0.1
	l0,0c0.8,0.8,1.5,1.9,1.9,3c0,0.2,0.1,0.4,0.1,0.5c0,0.9-0.2,1.8-0.7,2.6c-1.5,2.9-4,4.9-6.6,6.8c-2.1,1.7-4.4,3.1-6.9,4.1
	c-0.3,0.1-0.6,0.2-0.9,0.2l-0.3-0.1c-0.5-0.2-0.9-0.4-1.3-0.8l-0.2-0.2l0,0c0.1,0,0.2,0,0.2,0c0.3-0.1,0.5-0.3,0.7-0.5
	c0.7-0.6,1.4-1.1,2.1-1.6c0.4-0.3,0.8-0.7,1.1-1.1c0.3-0.4,0.6-0.8,1-1.2s0.7-0.8,1-1.2c1.1-1.1,2.2-2.3,3.1-3.6
	c1.2-1.8,2.5-3.5,3.7-5.3c0.2-0.3,0.4-0.6,0.5-1c0.1-0.3,0.1-0.5,0.1-0.8v-0.1c0-0.1,0-0.2-0.1-0.3c0-0.2-0.1-0.3-0.2-0.5l0,0l0,0
	l-0.1-0.1C490.7,684.1,491.2,684.4,491.7,684.6L491.7,684.6z M494,674.3c0,2.1-1.1,3.4-1.8,5.4c-0.1,0.6-0.4,1.1-0.7,1.5
	c-0.2,0.2-0.4,0.5-0.5,0.8c-0.1,0.2-0.3,0.3-0.5,0.4c-0.1,0-0.2,0-0.3,0c-0.2,0-0.5,0-0.7-0.1c-1.1-1.5-2.4-2.7-4-3.6l-0.2-0.1
	c-0.1,0-0.2-0.1-0.3-0.2c-0.1-0.1-0.2-0.2-0.3-0.4c0-0.1-0.1-0.1-0.1-0.2c-0.2-0.2-0.3-0.5-0.4-0.7l0,0h0.1c0.1,0,0.3,0,0.5-0.1l0,0
	l0,0c0.3-0.1,0.6-0.3,0.9-0.5l0,0c0.3-0.2,0.5-0.4,0.7-0.7l0,0c0.1-0.1,0.1-0.2,0.2-0.3c0.1,0,0.1-0.1,0.1-0.2l0,0l0,0
	c0,0,0.1-0.2,0.2-0.4l0,0c0.5-0.8,0.7-1.6,0.8-2.5c0-0.2,0-0.4,0-0.6c-0.1-0.6-0.2-1.2-0.4-1.8c-0.1-0.4-0.2-0.8-0.4-1.1l0,0
	c-0.1-0.2-0.1-0.5-0.2-0.8c0.4-2,0.5-4.1,0.5-6.1c0-1.2,0-2.4-0.1-3.6c-0.1-1.2-0.3-2.4-0.6-3.6c-0.4-1.6-0.9-3.3-1.6-4.8l0,0
	c0-0.4,0.1-0.9,0.2-1.3c0-0.1,0.1-0.2,0.1-0.3c0.1-0.3,0.5-0.5,0.7-1c0.4-0.9,0.6-2,0.5-3c0-0.4-0.1-0.8-0.2-1.2
	c0-0.3-0.1-0.5-0.2-0.8l0,0h0.1c0,0,0.1,0,0.1-0.1c0.2-0.1,0.3-0.3,0.4-0.5v-0.1l0,0c0.7,0.6,1.5,1.2,2.2,1.7s1.5,1,2.3,1.3l0,0
	c0.2,0.5,0.3,1.1,0.3,1.6v0.1c0.1,2.1,0.3,4.2,0.4,6.2c0.1,1.7,0,3.3,0.1,5.1c0,0.5,0.1,1,0.1,1.5c0.4,2.7,0.5,5.2,0.8,7.9l0.1,2
	c0,0.5,0.1,0.9,0.1,1.3c0.1,1.1,0.3,2.2,0.4,3.2C493.9,673.8,493.9,674.1,494,674.3z M491.6,641c0.1,0.2,0.2,0.3,0.4,0.4
	c0,0.4,0.1,0.7,0.1,1.1s0,0.7,0,1.1c-0.2,0-0.3,0-0.5-0.1h-0.1c-0.7-0.3-1.4-0.7-2-1.1l0,0c-0.8-0.6-1.6-1.2-2.4-1.8
	c0-0.4-0.2-0.8-0.5-1.1c-0.6-0.7-1.3-1.3-2-1.7c-0.7-0.5-1.5-1-2.2-1.5c0.1-0.9,0.3-1.8,0.4-2.7c0-0.3,0.1-0.6,0.1-0.9
	c0.1-0.2,0.2-0.5,0.3-0.7c0.4-0.4,1-0.7,1.5-0.8c0.3-0.1,0.6-0.3,0.9-0.6l0,0c0.3,0.4,0.6,0.9,0.9,1.3l0,0c-0.1,0.1-0.1,0.3-0.1,0.5
	v0.1l0,0c0,0.4,0.2,0.8,0.4,1.1c0.2,0.3,0.4,0.6,0.6,0.9C489.2,636.5,490.5,638.7,491.6,641z M488.9,497.9c0.1,0.9-0.2,1.8-0.8,2.5
	c-0.4,0.3-1,0.5-1.4,1.2c-0.3,0.7-0.6,1.4-0.7,2.1c-0.5,2.6-0.6,5.3-0.4,7.9c0.1,0.8,0.1,1.7,0.2,2.5c0.1,1.7,0.3,3.3,0.4,5
	c0.2,2.8,0.4,5.7,0.6,8.6l0.1,1.4c0.3,3.7,0.8,7.4,1.2,11.1s0.7,7.3,1.1,11c0.4,4,1.1,8,1.4,11.9c0.1,0.9,0.1,1.8,0.1,2.6
	c0.1,4.9,0.2,9.8,0.4,14.8s0.2,9.8,0.2,14.6s0,9.5-0.5,14c-0.1,2.6-0.1,5.1,0.2,7.7c0,0.1,0,0.3,0,0.4c0.1,1.7,0.3,3.4,0.6,5.1
	c0.2,1.4,0.8,3,0.8,4.2c0,0.3,0,0.6,0,0.8c-0.1,0.6-0.4,1.2-0.8,1.6c-0.4,0.6-0.5,1.2-0.8,1.6c-0.5,0.4-1.1,0.7-1.7,0.7
	c-0.6,0.1-1.3,0.1-2,0c-0.5-0.6-0.9-1.2-1.3-1.8c-0.7-1-1.3-2.1-1.9-3.2l0,0c-0.2-0.4-0.5-0.9-0.7-1.3l-0.1-0.1
	c-0.1-0.2-0.1-0.4-0.2-0.6s-0.2-0.5-0.3-0.7l-0.1-0.3c0-0.1,0-0.1,0-0.2c-0.1-0.2-0.1-0.5-0.1-0.7c0-0.6,0-1.2,0.1-1.8
	c0-1,0.2-1.9,0.6-2.8c0.6-1.5,1-3.1,1-4.7c0.1-0.8,0.2-1.7,0.2-2.5c0.1-1.2,0.3-2.4,0.4-3.7c0.2-1.8,0.4-3.6,0.6-5.4
	c0.3-3.5,0.3-7,0.2-10.5c-0.1-3,0.6-5.6,0.6-8.8c0-6.4-0.2-12.9-0.7-19.5c-0.1-0.9-0.1-1.8-0.2-2.7c-0.6-7.6-0.9-15.4-2.5-23.3
	c-0.9-4.7-1.9-9.5-3-14.2c0-0.1,0-0.2-0.1-0.2l0,0c-0.3-1.4-0.7-2.7-1-4.1c-0.2-0.8-0.4-1.7-0.6-2.5c-0.1-0.5-0.2-0.9-0.2-1.4
	c-0.1-1.4,0.1-2.7,0.4-4.1l0,0c0.2-0.7,0.3-1.3,0.5-2c0.4-1.4,0.8-2.9,1.2-4.3c0.2-0.6,0.3-1.3,0.2-2c-0.1-1.5-0.7-2.9-1.6-4
	l-0.2-0.2c-0.2-0.2-0.4-0.4-0.5-0.7c-0.1-0.2-0.2-0.4-0.2-0.6c0-0.1,0-0.2,0-0.3c0,0,0-0.1,0-0.2c0.1-0.5,0.1-0.8,0.3-0.9
	c1.2-0.9,2.6-1.4,4-1.5h0.1c0.7-0.1,1.5,0,2.2,0.1h0.1c0.2,0.1,0.5,0.2,0.7,0.3c0.7,0.4,1.3,0.8,1.9,1.3c0.5,0.4,1,0.8,1.3,1.3
	C488.8,497,488.9,497.4,488.9,497.9L488.9,497.9z M478.6,504.9v-0.3c0.1-1.1,0.4-2.1,0.4-3.2c0-0.4,0-0.7,0-1.1
	c0.1,0.4,0.2,0.8,0.2,1.2c0,0.3,0,0.6,0,0.9s-0.1,0.5-0.2,0.8C478.9,503.7,478.8,504.3,478.6,504.9L478.6,504.9z"/>
<path class="st3" d="M196.6,365.4h1c0.6-5.7,1.2-11.3,1.6-16.9v-0.3c0.1-1.9,0.3-3.7,0.4-5.6c0.3-3.3,0.6-6.5,1-9.8
	c1.1-9.8,2.6-19.8,4.5-29.8c0.8-5.1,2.1-10.1,3.8-14.9c0.2-0.6,0.5-1.2,0.7-1.9s0.5-1.2,0.8-1.9s0.6-1.2,0.9-1.8s0.6-1.2,1-1.8
	c0.2-0.3,0.4-0.6,0.6-1c0.4-0.6,0.8-1.3,1.3-1.9c0.2-0.3,0.5-0.6,0.7-0.9c0.7-0.8,1.7-1.5,2.5-2.5c0.2-0.3,0.4-0.6,0.6-0.9
	c0.5-1,0.9-2,1.1-3.1c0.1-0.4,0.1-0.7,0.2-1c0.8,0.4,1.5,0.9,2.3,1.4c0.2,0.1,0.4,0.3,0.6,0.4l0.2,0.2c0.4,0.3,0.7,0.6,0.9,1
	l0.1,0.3c0.1,0.5,0.2,1,0.2,1.5c0,1.5,0.3,3.1,0.9,4.5c0.7,1.2,2,1.4,3.1,1.8c1.3,0.4,2.6,1,3.9,1.6c0,0.6,0,1.2,0.1,1.8
	c-0.3,0.3-0.6,0.6-0.8,0.9c0.6-0.5,1.3-1,1.9-1.5c0-0.2-0.1-0.4-0.1-0.5c-0.1-0.5-0.1-1,0-1.5c0.1-0.9,0.3-1.8,0.6-2.7
	c0.9-2.6,2.2-4.9,4-7l0.5-1.5c-0.4-1.7,0.7-3.8,2.1-5.8l1.2-3.2l-0.2,0.3c-0.2,0.4-0.5,0.7-0.8,1.1c-1.8,2.6-4.1,5.7-3.4,8.3
	c-2,2.3-3.5,4.9-4.4,7.8c-0.2,0.7-0.4,1.5-0.5,2.2c-1.1-0.5-2.2-1-3.4-1.3c-1.1-0.4-2.3-0.7-2.8-1.5c-0.5-1.3-0.8-2.7-0.8-4.1
	c0-0.7-0.2-1.4-0.5-2.1c-0.3-0.6-0.8-1-1.3-1.4c-1.1-0.8-2.3-1.6-3.5-2.2c0.1-0.5,0.1-1,0.2-1.4c0-0.2,0-0.5,0.1-0.7
	c0-0.7,0-1.4,0-2.1c0-0.1,0-0.3,0-0.4c0-0.6-0.1-1.1-0.2-1.7v-0.2v-0.1c-0.1-0.6-0.2-1.2-0.4-1.8l0,0c-0.1-0.3-0.2-0.6-0.3-0.9
	s-0.2-0.6-0.3-0.9l0,0l0.6-0.9c0.4-0.5,0.7-1.1,1-1.7c0.1-0.3,0.2-0.7,0.3-1c0-0.3,0-0.6-0.2-0.9c0,0,0,0,0-0.1
	c-0.2-0.3-0.5-0.4-0.8-0.5c-0.3,0-0.5,0-0.8,0c-1.2,0.1-2.5,0.3-3.7,0.6l0,0c-0.8-0.7-1.8-1.3-2.8-1.8l-0.1-0.1
	c0.2-0.1,0.3-0.2,0.5-0.2c0.1,0,0.2-0.1,0.3-0.1s0.1,0,0.1,0l0,0c0.1,0.1,0.1,0.1,0.2,0.2l0.1,0.1l0.1,0.1l0.2,0.1l0,0h0.1h0.2
	c0.1,0,0.2,0,0.3,0h0.1c0.2,0,0.3,0,0.5-0.1l0,0c0.3-0.1,0.5-0.2,0.8-0.3c1.9-0.9,3.8-1.9,5.7-2.8l0.8-0.4l2-0.9l0.8-0.4
	c0.9-0.4,1.8-0.8,2.8-1.2s2.2-0.9,3.3-1.3c0.4-0.1,0.8-0.3,1.1-0.4c0.6-0.2,1.2-0.4,1.8-0.6c1.6-0.5,3.3-0.7,5-0.5
	c0.1,0,0.2,0,0.2,0c0.1,0,0.2-0.1,0.3-0.2l0,0l1.4-1.3l0.9-0.9l0.6-0.5l1.2-1.1l1.8-1.7c0.6-0.2,1.1-0.4,1.6-0.6l0.5-0.2
	c0.5-0.2,1-0.4,1.5-0.7l0.1-0.1c0.4-0.2,0.8-0.4,1.3-0.7l0.8-0.4l0.6-1.4c-0.5,0.3-1,0.5-1.5,0.8l-0.2,0.1c-1.4,0.8-3,1.5-4.5,2
	h-0.1l-0.3,0.2l-1.5,1.3l-3.6,3.3l-0.9,0.8c-0.1,0-0.3,0-0.4,0l0,0c-0.6-0.1-1.3-0.1-1.9,0l-0.6,0.1H236l-0.3,0.1
	c-0.5,0.1-1,0.2-1.5,0.3s-1.2,0.3-1.8,0.5l-0.8,0.3c-1.3,0.5-2.6,1-3.8,1.4c-3.1,1.2-6.1,2.7-9.2,4.2l-3,1.5
	c-0.2,0.1-0.4,0.2-0.6,0.3c-0.2,0.1-0.3,0.1-0.5,0c-0.1,0-0.2-0.2-0.4-0.3l-0.1-0.1h-0.1l-0.2-0.1h-0.3h-0.1c-0.2,0-0.3,0-0.5,0.1
	c-0.3,0.1-0.7,0.3-1,0.4c-0.2,0.1-0.5,0.2-0.7,0.3H211l0,0h-0.1c-0.8,0.2-1.6,0.4-2.4,0.5c-1.3,0.1-2.5,0.3-3.7,0.7l-0.2,0.1
	c0.2-0.3,0.4-0.5,0.7-0.8l0.1-0.1c0.6-0.5,1.2-0.9,1.9-1.3c1.4-0.8,2.9-1.4,4.4-1.9c0.8-0.3,1.6-0.5,2.4-0.6
	c0.3-0.1,0.5-0.3,0.6-0.5c0.3-0.7,0.8-1.3,1.4-1.8c0.7-0.5,1.4-1,2.1-1.4c3.7-2.1,7.4-3.5,11.2-5.5s7.8-4.2,11.7-5.9
	s7.8-3.6,11.6-5.8c0.8-0.5,1.7-1,2.5-1.4l0.6-1.4c-1.1,0.6-2.1,1.3-3.2,1.9c-1.4,0.8-2.9,1.5-4.3,2.3s-2.9,1.4-4.3,2.1
	c-0.9,0.4-1.9,0.9-2.9,1.3c-4,1.8-7.9,3.9-11.8,6c-2.8,1.5-5.6,2.6-8.4,4c-1,0.5-1.9,1-2.9,1.5l-0.6,0.4c-0.6,0.4-1.2,0.8-1.8,1.2
	c-0.5,0.4-1,0.9-1.4,1.5c-0.1,0.2-0.2,0.4-0.4,0.6l-1,0.3c-0.4,0.1-0.7,0.2-1.1,0.3c-0.8,0.3-1.6,0.6-2.4,0.9s-1.6,0.7-2.3,1.1
	c-0.6,0.3-1.1,0.7-1.7,1.1c-0.2,0.1-0.4,0.3-0.6,0.5c-0.6,0.5-1.1,1.2-1.4,1.9c-0.2,0.2-0.5,0.3-0.7,0.5c-1.1,0.9-2.1,1.9-3,3.1
	c-0.4,0.6-0.8,1.2-1.2,1.8c-0.3,0.6-0.6,1.3-0.9,1.9c-0.7,0.5-1.3,1.1-1.9,1.8c-0.5,0.8-1,1.6-1.3,2.4c-0.8,1.8-1.6,3.5-2.4,5.3
	c-0.4,0.9-0.7,1.8-1,2.7s-0.6,1.8-0.9,2.6c-1,3.4-1.7,6.9-2.1,10.4c-0.2,1.7-0.4,3.4-0.5,5.1c-0.1,2-0.2,4-0.3,6
	c-0.3,6.3-0.2,12.5-0.4,18.7c-0.1,2.1-0.1,4.2-0.2,6.2c0,0.8-0.1,1.6-0.2,2.4c-0.1,2-0.3,3.9-0.5,5.9c-0.6,5.9-1.4,11.9-2,17.8
	c-0.4,3.8-0.8,7.5-1.2,11.3c-0.2,1.9-0.4,3.7-0.5,5.6l1,0.3c0.5-5.8,1.1-11.6,1.7-17.5c0.8-7.9,1.9-15.8,2.5-23.7
	c0.1-0.8,0.1-1.6,0.1-2.4c0.5-8.4,0.3-16.6,0.7-25c0.1-2,0.2-3.9,0.3-5.9c0.3-6.9,1.6-13.8,4.1-20.3c0.7-1.8,1.5-3.5,2.3-5.2
	c0.3-0.7,0.7-1.4,1.1-2.1c0.5-0.6,1-1.1,1.7-1.5c0.2-0.1,0.3-0.3,0.3-0.4c0.9-2.6,2.6-4.8,4.8-6.4c0.1,0,0.2,0,0.4,0
	c0.3-0.2,0.7-0.3,1-0.4c0.3-0.1,0.6-0.2,0.9-0.2c0.9-0.2,1.7-0.3,2.7-0.4c0.4-0.1,0.9-0.1,1.3-0.2s0.7-0.2,1.1-0.3l0.4,0.2l0.4,0.1
	l0.3,0.1h0.1c0.2,0.1,0.5,0.2,0.7,0.4l0.1,0.1l0.1,0.1c0.3,0.2,0.6,0.3,0.8,0.5h0.1l0.4,0.3l0.4,0.4l0,0l0.5,0.4
	c0.2,0.2,0.4,0.4,0.6,0.6l-1.7,1.3l-0.4,0.3c-0.3,0.2-0.6,0.5-0.8,0.8c-0.1,0.2-0.2,0.3-0.3,0.5c-0.1,0.1-0.1,0.3-0.1,0.4
	s-0.1,0.3-0.1,0.4s0,0.1,0,0.2c0,0.3,0.1,0.5,0.2,0.8c0,0.1,0.1,0.2,0.2,0.2c0.1,0.1,0.3,0.3,0.4,0.4c0.1,0.1,0.3,0.2,0.4,0.3
	c0.3,0.1,0.6,0.1,0.8,0l0.3-0.1c0.3-0.1,0.6-0.2,0.8-0.3l0.9-0.4l0.8-0.4l0.5-0.2l0.4-0.2c0.1,0.2,0.2,0.5,0.3,0.7s0.1,0.2,0.1,0.3
	c0.1,0.5,0.2,0.9,0.3,1.4c0,0.1,0,0.2,0,0.2c0,0.1,0,0.2,0,0.2c0.1,0.5,0.1,0.9,0.1,1.4l0,0v0.5c0,0.7,0,1.3,0,2v0.3
	c0,0.1,0,0.2,0,0.3c0,0.5-0.1,1-0.2,1.6s-0.2,1.3-0.3,2c-0.2,1.2-0.7,2.3-1.4,3.3c-0.6,0.8-1.6,1.5-2.5,2.5c-1.1,1.2-2,2.6-2.9,4
	c-1.4,2.4-2.6,5-3.6,7.6c-1.7,4.9-3.1,10-3.9,15.2c-2.8,15-4.8,30.1-5.9,45.4v0.3C197.8,354.3,197.2,359.9,196.6,365.4z
	 M217.9,254.2l-1,0.7l-0.2,0.2c-0.2-0.2-0.4-0.4-0.6-0.6C216.7,254.3,217.3,254.2,217.9,254.2L217.9,254.2z M218.5,256.7l-0.3,0.4
	l-0.5,0.8c-0.1,0.1-0.1,0.2-0.1,0.3c0,0.1,0,0.2,0,0.3l0,0l0,0h-0.1c-0.3,0.1-0.8,0.4-1.3,0.6s-1,0.5-1.5,0.6
	c-0.2,0.1-0.3,0.1-0.5,0.1c-0.3-0.1-0.5-0.3-0.7-0.5s-0.2-0.4-0.2-0.6l0.1-0.3c0.2-0.4,0.5-0.6,0.9-0.9l2-1.4l1-0.7l2.1-1.5
	c0,0,0.1,0,0.1,0.1c0.1,0.1,0.1,0.3,0.1,0.4c0,0.2-0.1,0.4-0.2,0.6c-0.1,0.2-0.2,0.4-0.4,0.7L218.5,256.7z M196.8,364.8l-13.5-1v0.7
	l13.4,0.9"/>
<polygon class="st0" points="144.1,524.6 143.8,524.6 143.8,524.6 "/>
<polygon class="st0" points="144.1,524.6 143.8,524.6 143.8,524.6 "/>
<circle class="st4" cx="96.5" cy="348.8" r="22.5"/>
<circle class="st4" cx="571.8" cy="305.6" r="22.5"/>
<circle class="st4" cx="571.7" cy="372.8" r="22.5"/>
<circle class="st4" cx="572.4" cy="452" r="22.5"/>
<line class="st5" x1="422.5" y1="313.1" x2="437.5" y2="470.3"/>
<rect x="416" y="312.1" transform="matrix(0.9955 -9.514730e-02 9.514730e-02 0.9955 -27.8747 41.6218)" class="st6" width="13" height="2"/>
<rect x="435.2" y="469.4" transform="matrix(0.995 -9.950740e-02 9.950740e-02 0.995 -44.6142 46.2906)" class="st6" width="13.1" height="2"/>
<line class="st7" x1="546.8" y1="374.8" x2="429.6" y2="387.1"/>
<line class="st7" x1="423.5" y1="320.9" x2="545.7" y2="306.6"/>
<line class="st7" x1="440.6" y1="464.3" x2="549.4" y2="454.6"/>
<line class="st7" x1="212.4" y1="367.6" x2="119.5" y2="351.7"/>
<line class="st5" x1="225.6" y1="315.6" x2="216.5" y2="370.5"/>
<rect x="224.6" y="309.1" transform="matrix(0.1642 -0.9864 0.9864 0.1642 -122.7241 486.3654)" class="st6" width="2" height="13"/>
<rect x="215.5" y="364" transform="matrix(0.1642 -0.9864 0.9864 0.1642 -184.4903 523.2289)" class="st6" width="2" height="13"/>
<polygon class="st6" points="395.7,331.2 423,372.8 368.5,372.8 "/>
<polygon class="st6" points="251,317.4 278.3,359 223.7,359 "/>
<path class="st1" d="M537.5,627.1c7.5-0.8,15.1-1.4,22.7-1.9C552.6,626.2,545,627.3,537.5,627.1z"/>
<circle class="st4" cx="412.3" cy="505.7" r="22.5"/>
<circle class="st4" cx="412.2" cy="563.8" r="22.5"/>
<circle class="st4" cx="412.9" cy="629" r="22.5"/>
<line class="st5" x1="502" y1="488.4" x2="505.5" y2="639.8"/>
<rect x="495.5" y="487.4" transform="matrix(0.9997 -2.338590e-02 2.338590e-02 0.9997 -11.2841 11.873)" class="st6" width="13" height="2"/>
<rect x="499" y="638.8" transform="matrix(0.9997 -2.338590e-02 2.338590e-02 0.9997 -14.8237 11.9962)" class="st6" width="13" height="2"/>
<line class="st7" x1="500.4" y1="557.7" x2="438.6" y2="564.4"/>
<line class="st7" x1="438.9" y1="501.8" x2="493.3" y2="494.4"/>
<line class="st7" x1="438.9" y1="626.6" x2="496.8" y2="621.6"/>
<polygon class="st6" points="540,512.7 567.2,554.3 512.7,554.3 "/>
<text transform="matrix(1 0 0 1 81.14 357.3101)" class="st3 st8 st9">C7</text>
<text transform="matrix(1 0 0 1 554.46 314.14)" class="st3 st8 st9">C6</text>
<text transform="matrix(1 0 0 1 555.31 381.34)" class="st3 st8 st9">C5</text>
<text transform="matrix(1 0 0 1 557.01 460.45)" class="st3 st8 st9">C4</text>
<text transform="matrix(1 0 0 1 383.96 368.59)" class="st3 st8 st9">L3</text>
<text transform="matrix(1 0 0 1 238.25 353.86)" class="st3 st8 st9">L4</text>
<text transform="matrix(1 0 0 1 395.96 514.16)" class="st3 st8 st9">C3</text>
<text transform="matrix(1 0 0 1 395.82 572.35)" class="st3 st8 st9">C2</text>
<text transform="matrix(1 0 0 1 397.52 637.45)" class="st3 st8 st9">C1</text>
<text transform="matrix(1 0 0 1 529.18 550.15)" class="st3 st8 st9">L1</text>
</svg>
