<svg id="Layer_1" data-name="Layer 1" xmlns="http://www.w3.org/2000/svg" viewBox="0 0 648 864"><defs><style>.cls-1,.cls-4,.cls-5,.cls-7{fill:none;}.cls-2{fill:#ccc;}.cls-3,.cls-9{fill:#fff;}.cls-4{stroke:#231f20;stroke-width:0.25px;}.cls-4,.cls-5,.cls-7{stroke-miterlimit:10;}.cls-5{stroke:#0a3b59;stroke-dasharray:6 6;}.cls-5,.cls-7{stroke-width:2px;}.cls-6{fill:#0a3b59;}.cls-7{stroke:#2a8ecd;stroke-dasharray:6;}.cls-8{fill:#2a8ecd;}.cls-9{font-size:24px;font-family:AvenirNext-Regular, Avenir Next;}</style></defs><title>female-transradial-R</title><path class="cls-1" d="M460.72,450.93c7.55-.78,15.1-1.43,22.68-1.92C475.84,450,468.28,451.15,460.72,450.93Z"/><path class="cls-2" d="M149.07,542c.8-9.39,3-15.71,3.79-29.43.7-11.47,0-15.61,1.35-29.21,1.18-12.13,2.62-18.23,4-22.77a97.33,97.33,0,0,1,6.2-15.76c2.18-43.37,5.45-70.83,8.17-88.3,2.23-14.27,3.83-20.18,4.26-32.79.62-18.31-2-27.4,2.51-39.66A121.37,121.37,0,0,1,188.82,265a68.58,68.58,0,0,1,13.93-16.28,164.41,164.41,0,0,1,26.53-18.68c29.14-15.48,40.28-11.94,51.38-21,10.14-8.24,19-26,13.29-67.74l30.1,0,30.1,0c-5.75,41.76,3.14,59.5,13.29,67.74a29.52,29.52,0,0,0,3.11,2.21c10.21,6.31,21.83,4.71,48.27,18.75a164.4,164.4,0,0,1,26.53,18.68A68.58,68.58,0,0,1,459.27,265a121.42,121.42,0,0,1,9.51,19.08c4.53,12.26,1.89,21.36,2.51,39.66.43,12.61,2,18.51,4.26,32.79,2.73,17.47,6,44.94,8.17,88.3a97.31,97.31,0,0,1,6.2,15.76c1.34,4.54,2.78,10.64,4,22.77,1.32,13.6.65,17.74,1.35,29.21.83,13.72,3,20,3.79,29.43,2.78,32.71-5,49.11-3.59,78.55.1,2.07.46,8.59.61,17.7.19,11.68-.22,12.59,0,19.76.51,21,4.35,23.24,1.11,30.38-3.6,7.95-11.21,12-16.71,14.22-1.1.32-16.69,4.67-20.91-1.19-.43-.6-2.34-3.24-1.54-5.51a4.39,4.39,0,0,1,2.29-2.37c7.16-4.66,10.13-9.93,11.4-12.75,2.86-6.37,2.68-12.87,2.42-22.34-.1-3.68-.38-6.71-.6-8.76-.51,1.12-1.4,3.07-2.48,5.49-6.54,14.65-7.59,18.43-11.82,22-1.76,1.48-6.32,5.31-8.95,3.92-5.1-2.7-.5-23.94,7.25-40.76,7.13-15.48,10.36-12.94,13.65-23.33,1.92-6.05,1.66-9.53-3.48-50.1-1.88-14.87-2.47-19.35-3.56-26.11-2-12.56-3.08-19.17-5.06-27.22-5.95-24.13-11.61-26.37-15.46-48a154.24,154.24,0,0,1-2.31-22,196.45,196.45,0,0,1,.61-20.86c1-11-2.21-38.54-19.61-109.34l-3.94,11c-2.45.58,8.46,28.88-6.45,58.63a72.4,72.4,0,0,1-7,11.24c-10.62,14.63-12.79,53.47,18.73,155.13l-89.73.5V550L324,550l-9.83.05v-.11l-89.73-.5c31.52-101.66,29.34-140.5,18.73-155.13a72.38,72.38,0,0,1-7-11.24c-14.91-29.75-4-58-6.45-58.63l-3.94-11c-17.4,70.8-20.6,98.32-19.61,109.34a196.41,196.41,0,0,1,.61,20.86,154.2,154.2,0,0,1-2.31,22c-3.85,21.65-9.51,23.9-15.46,48-2,8-3.05,14.66-5.06,27.22-.91,5.69-1.48,9.77-2.75,19.78l-.63,5H148.74A162.85,162.85,0,0,1,149.07,542Z"/><path class="cls-3" d="M449.53,477a28,28,0,0,0,1.34,3c.14.27.3.54.47.81a8.69,8.69,0,0,0,1.11,1.46,5.11,5.11,0,0,0,.69.58c.23.16.46.31.69.44a11.51,11.51,0,0,0,2.09.91l.22.07.52.16.88.25.25.06.25.06c0,.08,0,.16,0,.24s0,.31,0,.47a8.1,8.1,0,0,0,.12.88,8.85,8.85,0,0,0,.82,2.26c.08.15.15.3.24.44a6.44,6.44,0,0,0,1.89,2c0,.11,0,.21,0,.32a8.18,8.18,0,0,0,.11.88c.05.27.14.53.2.8a28.51,28.51,0,0,0,1,2.91c.11.31.23.62.33.93.18.49.33,1,.45,1.45q.87,3.35,1.67,6.68.94,3.87,1.87,7.75t1.78,7.72c.82,3.72,1.43,7.43,2.15,11.16.24,1.24.48,2.49.75,3.74.1.5.21,1,.29,1.5.63,3.51.8,7.08,1.09,10.53l.11,1.54c0,.26,0,.52.07.77.24,3.32.39,6.62.49,9.89.06,1.64.1,3.28.14,4.91s.06,3.27.09,4.9c0,2.38.17,4.79.35,7.22.09,1.25.19,2.5.29,3.76s.24,2.52.35,3.77c.25,2.52.5,5,.72,7.52.17,1.88.37,3.78.58,5.67s.45,3.8.7,5.71c.8,6.18,1.81,12.41,3,18.69a17.06,17.06,0,0,1-2,.61,3.47,3.47,0,0,0-2.11,1.27,11.49,11.49,0,0,1-3.62,3.65,5.4,5.4,0,0,0-.91.62,1.71,1.71,0,0,0-.5,1c-.36-.16-.74-.33-1.13-.47a2.72,2.72,0,0,0-1-.16,1.76,1.76,0,0,0-1.48,1.42,7.81,7.81,0,0,0-.08,2.24h0a.92.92,0,0,0,0,.17,2.85,2.85,0,0,0-.37.17,5.65,5.65,0,0,0-1.69,1.34,20.66,20.66,0,0,0-2.31,4.29c-1.09,2.22-2.12,4.47-3.06,6.79a14.46,14.46,0,0,1-1,2.65l-2.1,3a3.68,3.68,0,0,0-.64,1.18,2.14,2.14,0,0,0-.07.67,3.44,3.44,0,0,0,.51,1.46,7.46,7.46,0,0,0,.58.81,1.12,1.12,0,0,0-.23.24,2.38,2.38,0,0,0-.39,1.68c0,.26,0,.5.06.74l0,.3c.08,3-.59,5.84-2.48,7.32a11.89,11.89,0,0,0-1.24,1,2.26,2.26,0,0,0-.81,1.76l0,.07a1.74,1.74,0,0,0-.19,1l.05.38a9.11,9.11,0,0,0,.58,1.51,6,6,0,0,1,.46,1.26,4.57,4.57,0,0,1,.08.52,8,8,0,0,1-.5,2.62,2.16,2.16,0,0,0-.06.69,3.36,3.36,0,0,0,1,2,2.69,2.69,0,0,0,1,.64,1.29,1.29,0,0,0,1-.06,1.68,1.68,0,0,0,.66-.62,4.41,4.41,0,0,0,.46-1.7,3.44,3.44,0,0,1,.32-1.41A4.23,4.23,0,0,1,458,673a1.91,1.91,0,0,0,.27.13,1.87,1.87,0,0,0,.94.1,1.21,1.21,0,0,0,.9-.88,4.48,4.48,0,0,0,.19-1.25,17.81,17.81,0,0,1,1.14-4.83,4.67,4.67,0,0,1,.58-1.38c.45-.56,1-1.08,1.39-1.73a3.25,3.25,0,0,1,.74-.69,1.92,1.92,0,0,0,.8-1,1.84,1.84,0,0,0,0-.62,2.27,2.27,0,0,0-.1-.54.35.35,0,0,0,.32-.08,14.34,14.34,0,0,0,1.85-2.19,6.73,6.73,0,0,0,.86-3c.1-1,.11-2.1.28-3.11a38.38,38.38,0,0,1,1.61-6.05,7.78,7.78,0,0,1,1.85-3.06,6.28,6.28,0,0,1,1.36-1.12h0a1.56,1.56,0,0,1,.32-.12c.23-.11.55-.22.8-.32l.34-.16.13-.08.09-.07a.41.41,0,0,0,.07-.3h0c0-.19-.07-.38-.1-.56a5,5,0,0,0,1.22.64,2.81,2.81,0,0,0,.69.13,32.48,32.48,0,0,1,1,4c.42,2.06,1.27,4,1.74,5.92a36.12,36.12,0,0,1,1,6.07,30,30,0,0,1,.06,3.39,7.7,7.7,0,0,1-.75,3.7,7.21,7.21,0,0,1-2.32,2.36c-.93.57-1.14,1.79-1.05,3a10.18,10.18,0,0,0,.35,1.9,2.39,2.39,0,0,0-.92.63,3.58,3.58,0,0,0-.79,2.59,4.16,4.16,0,0,0,.17.89,28.83,28.83,0,0,1,1.16,5.89,13.59,13.59,0,0,1-.63,5.5c-.44,1.26-.56,2.45-1.28,3.29a10.52,10.52,0,0,0-1,1,3.16,3.16,0,0,0-1.39.31c-1.77.75-2.67,2.49-4.05,3.33a2.76,2.76,0,0,1-2.36.38,1.14,1.14,0,0,0-.33-.18.71.71,0,0,0-.45,0l-.27.07a.91.91,0,0,0-.6.84,3.33,3.33,0,0,0-.73.1,5.16,5.16,0,0,1-1.71,0l-.24-.07-.37-.12a2.75,2.75,0,0,0-.71-.17.82.82,0,0,0-.71.28,1.35,1.35,0,0,0-.19.79v.06h0a3.52,3.52,0,0,0,.69,1.73,1.18,1.18,0,0,0,.34.31,2.65,2.65,0,0,0,.58.24l.22.07q.44.19.87.33l.44.15a3,3,0,0,0,.73.91,6.49,6.49,0,0,0,.89.58,7.11,7.11,0,0,0,1.16.51c1.18.38,2.27.44,3.27.68,2.09.52,4.2,1.1,6.32,1.69l.56.18a2.66,2.66,0,0,0,1.36.18,4.13,4.13,0,0,0,.75-.3,1.09,1.09,0,0,0,.5-.81h0v-.28s0-.06,0-.09a4.4,4.4,0,0,0,.75.35,2.87,2.87,0,0,0,.47.11,2.54,2.54,0,0,0,1.29-.2,28.38,28.38,0,0,0,7-4.22c2.61-1.93,5.22-3.94,6.8-7a5.68,5.68,0,0,0,.78-3,3.89,3.89,0,0,0-.12-.78,9.86,9.86,0,0,0-2.45-3.88.81.81,0,0,0-.39-.24l-.2-.05-.13-.06a2.66,2.66,0,0,1-.45-.28,1.67,1.67,0,0,0,.54-.49,4.2,4.2,0,0,1,.46-.67,4.59,4.59,0,0,0,.89-1.79c.57-1.82,1.78-3.14,1.82-5.63,0-.32,0-.62,0-.92-.08-1.1-.28-2.2-.4-3.26-.06-.42-.09-.84-.13-1.27l-.15-2.06c-.24-2.61-.32-5.23-.76-8-.07-.46-.12-.92-.15-1.37-.12-1.67,0-3.28-.12-5.11-.15-2.07-.28-4.14-.43-6.22v-.07a8.23,8.23,0,0,0-.28-1.75,2.38,2.38,0,0,0,.37,0,.32.32,0,0,0,.27-.35,13.55,13.55,0,0,0,0-1.52,17.23,17.23,0,0,0-.58-3.32.84.84,0,0,0-.58-.6.33.33,0,0,0-.37.16,36.61,36.61,0,0,0-3.25-5.19,6.18,6.18,0,0,1-.52-.74,1.23,1.23,0,0,1-.21-.52.59.59,0,0,1,.1-.32h.07c.3,0,.6,0,.93,0s.64,0,1-.06a3.87,3.87,0,0,0,1.72-.56,1.89,1.89,0,0,0,.4-.39,2.81,2.81,0,0,0,.24-.42c.07-.15.13-.3.18-.44l.17-.42a1.91,1.91,0,0,1,.19-.35l.13-.2a4.42,4.42,0,0,0,.68-1.43,2.14,2.14,0,0,0,.07-.29c0-.17,0-.34,0-.52s0-.36,0-.54a9.56,9.56,0,0,0-.16-1.11c-.13-.75-.33-1.5-.5-2.2-.08-.35-.15-.68-.21-1-.14-.83-.27-1.67-.36-2.49s-.19-1.65-.24-2.46l0-.4c0-.65-.08-1.3-.13-1.93s-.08-1.27-.1-1.89a25.53,25.53,0,0,1,.07-3.66c.11-1.14.19-2.3.25-3.47.18-3.51.16-7.11.2-10.65,0-1.21,0-2.42,0-3.63,0-2.43,0-4.87-.07-7.33q0-1.84-.13-3.7c-.11-2.47-.18-4.93-.25-7.39s-.11-4.91-.15-7.36c0-.44,0-.89-.06-1.34s0-.89-.06-1.34c-.07-1-.16-2-.27-3s-.25-2-.37-3c-.19-1.5-.38-3-.57-4.48-.06-.49-.13-1-.17-1.48-.2-1.83-.37-3.65-.55-5.47s-.36-3.65-.57-5.49l-.17-1.39c-.38-3.24-.81-6.48-1.05-9.65l-.1-1.38c-.07-1-.14-1.91-.19-2.85-.12-1.9-.25-3.8-.39-5.71-.08-1.1-.18-2.21-.27-3.32,0-.55-.08-1.1-.13-1.66s-.07-.82-.1-1.23-.08-.83-.11-1.23c0-.68-.08-1.34-.1-2a24.1,24.1,0,0,1,.12-3.82,18.13,18.13,0,0,1,.32-1.8c.09-.35.18-.71.29-1a6.49,6.49,0,0,1,.36-.95.88.88,0,0,1,.19-.29A2,2,0,0,1,488,502c.1-.08.22-.15.33-.23l.39-.27a2.39,2.39,0,0,0,.52-.61,5,5,0,0,0,.55-2.46v-.36a4.25,4.25,0,0,0-.45-1.6l-.12-.24a5,5,0,0,0-.42-.58,7.93,7.93,0,0,0-1.41-1.29l-.69-.5-.38-.26a2.92,2.92,0,0,0,.65-.47,3.79,3.79,0,0,0,.49-.57,1.86,1.86,0,0,0,.2-.33,6.58,6.58,0,0,0,.54-1,10.85,10.85,0,0,0,.48-1.44,15.57,15.57,0,0,0,.34-4.94c-.05-.73-.14-1.47-.25-2.21s-.22-1.19-.33-1.78a72.35,72.35,0,0,0-3.59-12.6q-1.31-3.4-2.58-6.81t-2.5-6.81q-1.25-3.41-2.44-6.81T475,441c-1.09-3.17-2-6.35-2.73-9.51-.25-1.05-.48-2.11-.69-3.16q-.65-3.15-1.09-6.26c-.15-1-.28-2.07-.4-3.1s-.23-2.05-.32-3.07-.18-1.82-.27-2.73c-.2-1.82-.42-3.63-.65-5.44-.35-2.72-.73-5.42-1-8.11-.1-.89-.2-1.78-.28-2.67s-.16-1.77-.22-2.66c-.14-2-.22-4-.2-6,0-1.5,0-3,0-4.52s-.07-3-.12-4.56c-.12-3.05-.3-6.12-.52-9.21-.27-3.74-.59-7.49-1-11.26s-.77-7.54-1.16-11.31c-.62-5.91-1.4-11.88-2-17.77-.2-2-.37-3.92-.51-5.87-.06-.79-.11-1.58-.16-2.37-.12-2.09-.2-4.18-.25-6.25-.17-6.23-.16-12.39-.42-18.68-.08-2-.18-4-.32-6-.12-1.67-.27-3.36-.49-5.06A62,62,0,0,0,458,275.05c-.26-.88-.55-1.76-.86-2.65s-.66-1.78-1-2.68c-.74-1.78-1.53-3.56-2.36-5.32a14,14,0,0,0-1.34-2.42,8.82,8.82,0,0,0-1.87-1.79,14.59,14.59,0,0,0-.87-1.91,15.94,15.94,0,0,0-1.16-1.81,16.47,16.47,0,0,0-3-3.09c-.23-.18-.47-.34-.7-.5a6.27,6.27,0,0,0-1.4-1.89c-.18-.17-.36-.32-.55-.47a12.69,12.69,0,0,0-1.67-1.07c-.75-.42-1.53-.79-2.3-1.13s-1.57-.64-2.35-.89c-.36-.12-.72-.23-1.07-.32l-1-.27c-.12-.2-.23-.39-.36-.58a7.76,7.76,0,0,0-1.36-1.46,13.74,13.74,0,0,0-1.79-1.24l-.6-.36c-1-.54-1.91-1-2.86-1.49-2.84-1.39-5.64-2.53-8.42-4-3.9-2.05-7.81-4.22-11.79-6-1-.42-1.92-.86-2.87-1.31-1.44-.67-2.87-1.39-4.31-2.12s-2.86-1.48-4.29-2.27c-1.08-.6-2.15-1.23-3.21-1.86l.58,1.41c.82.49,1.65,1,2.48,1.44,3.83,2.12,7.71,4,11.58,5.75s7.79,3.87,11.69,5.93,7.54,3.38,11.24,5.47a14.07,14.07,0,0,1,2.14,1.42,5.08,5.08,0,0,1,1.43,1.77.87.87,0,0,0,.56.49c.76.17,1.55.39,2.35.65a26.07,26.07,0,0,1,4.42,1.92,9.35,9.35,0,0,1,1.89,1.3l.09.09a4.49,4.49,0,0,1,.66.78l-.19-.07a19.72,19.72,0,0,0-3.73-.69,14.51,14.51,0,0,1-2.35-.49l-.15,0h0l-.14,0a7,7,0,0,1-.7-.34,7.25,7.25,0,0,0-1-.45,2.25,2.25,0,0,0-.47-.1h-.07l-.26,0-.18.06-.07,0a1.08,1.08,0,0,0-.13.09c-.2.16-.32.31-.42.34a.72.72,0,0,1-.49,0,5.31,5.31,0,0,1-.61-.26l-3-1.49c-3-1.49-6.09-3-9.17-4.22-1.19-.48-2.48-1-3.8-1.44l-.78-.28c-.6-.2-1.22-.38-1.82-.54s-1-.23-1.46-.32l-.32-.07-.39,0-.61-.07a11.2,11.2,0,0,0-1.93,0h0c-.14,0-.28,0-.42,0l-.9-.83L404.55,238l-1.45-1.34-.28-.17-.14,0a26.61,26.61,0,0,1-4.54-2l-.24-.13c-.51-.28-1-.55-1.52-.81l.55,1.36.82.44c.42.24.85.46,1.26.67l.13.06c.5.25,1,.48,1.51.69l.47.19c.54.21,1.08.42,1.64.6l1.82,1.68,1.18,1.09.58.54.95.87,1.43,1.32,0,0a.84.84,0,0,0,.26.16.45.45,0,0,0,.24,0,12.5,12.5,0,0,1,5,.48c.6.16,1.21.34,1.83.55.38.13.77.27,1.15.41,1.14.41,2.28.85,3.34,1.28s1.85.77,2.76,1.18l.83.38,2,.95.75.36c1.91.92,3.81,1.87,5.74,2.81a6.13,6.13,0,0,0,.77.33h0a2.12,2.12,0,0,0,.47.1h.33l.16,0,.11,0h0l.22-.13.09-.07.1-.09a1.39,1.39,0,0,1,.2-.18h0s.05,0,.11,0a1.09,1.09,0,0,1,.26.06,4.08,4.08,0,0,1,.5.22l-.14.08a14,14,0,0,0-2.75,1.78h0a16.59,16.59,0,0,0-3.67-.63,3.6,3.6,0,0,0-.77,0,1.15,1.15,0,0,0-.79.47s0,0,0,.06a1.42,1.42,0,0,0-.16.86,3.24,3.24,0,0,0,.27,1,10,10,0,0,0,1,1.71l.62.91v0a7.76,7.76,0,0,0-.33.9c-.1.29-.23.56-.31.86h0a16.65,16.65,0,0,0-.39,1.78.25.25,0,0,1,0,.09l0,.16c-.09.54-.13,1.1-.16,1.66,0,.13,0,.26,0,.39a17.49,17.49,0,0,0,0,2.06c0,.22,0,.44.06.67,0,.39.08.87.16,1.39a23.35,23.35,0,0,0-3.47,2.18,4.29,4.29,0,0,0-1.28,1.41,5.52,5.52,0,0,0-.46,2.09,10.4,10.4,0,0,1-.78,4.15c-.48.87-1.62,1.16-2.76,1.52a32,32,0,0,0-3.39,1.34,14.68,14.68,0,0,0-.52-2.23,23.46,23.46,0,0,0-4.42-7.79c.7-2.57-1.54-5.75-3.36-8.31-.28-.37-.52-.74-.76-1.09l-.24-.34,1.2,3.23c1.38,2,2.54,4.12,2.1,5.79l.53,1.47a21.53,21.53,0,0,1,4,7,12.65,12.65,0,0,1,.57,2.71,7.08,7.08,0,0,1,0,1.51c0,.19-.06.37-.1.55.64.48,1.27,1,1.9,1.47-.27-.29-.53-.59-.83-.87a7.13,7.13,0,0,0,.12-1.75,29.77,29.77,0,0,1,3.9-1.57c1.08-.36,2.41-.64,3.09-1.8a11.12,11.12,0,0,0,.88-4.48,6,6,0,0,1,.24-1.46l.15-.34a3.14,3.14,0,0,1,.92-1l.19-.16c.18-.14.39-.26.57-.4a24.76,24.76,0,0,1,2.28-1.43c.06.34.13.69.21,1a11.19,11.19,0,0,0,1.11,3.11,7.18,7.18,0,0,0,.61.91c.84,1,1.85,1.75,2.53,2.55.26.29.47.6.72.9q.71.9,1.32,1.85c.2.32.43.62.62,1q.51.9,1,1.81c.32.61.62,1.22.9,1.84s.56,1.24.82,1.86.5,1.24.73,1.87a87.8,87.8,0,0,1,3.84,14.93q2.81,15.05,4.46,29.83.54,4.92,1,9.81.23,2.79.43,5.57l0,.31c.44,6.21,1.08,12.51,1.78,18.83,1.16,10.54,2.55,21.18,3.62,31.67.14,1.35.28,2.7.44,4.05.3,2.7.61,5.42.93,8.14.64,5.44,1.27,10.89,1.74,16.27q.18,2,.32,4c.33,4.58.5,9.09.44,13.49a49.93,49.93,0,0,1-.55,6.92q-.18,1.1-.39,2.18a38.3,38.3,0,0,1-1.12,4.15,32.5,32.5,0,0,1-1.58,3.87c-.14.28-.28.55-.4.83-.26.55-.5,1.1-.77,1.62a11.36,11.36,0,0,1-1.58,2.52,6.08,6.08,0,0,1-.89.9,2.16,2.16,0,0,1-.23.17,8.22,8.22,0,0,0-1.18.91,2.85,2.85,0,0,0-.41.54l-.15.31a5.63,5.63,0,0,0-.52,2.12c0,.13,0,.26,0,.4s0,.36,0,.55M432.11,254.48c-.19.19-.39.38-.58.58l-.23-.16-1-.69A14.72,14.72,0,0,1,432.11,254.48ZM429.22,256a6,6,0,0,1-.36-.66,2.07,2.07,0,0,1-.16-.59.61.61,0,0,1,.08-.39.37.37,0,0,1,.09-.08l2.09,1.46,1,.73,2,1.4a2.7,2.7,0,0,1,.92.86l.08.26a.84.84,0,0,1-.24.59,2.18,2.18,0,0,1-.68.5,1.48,1.48,0,0,1-.51-.11,14,14,0,0,1-1.53-.65c-.54-.26-1-.5-1.29-.63l-.11-.05a.06.06,0,0,0,0,0v0a.48.48,0,0,0,0-.26,1,1,0,0,0-.14-.32l-.55-.81-.3-.44Zm20.36,216.85a4.86,4.86,0,0,1,.6-2.42c.33-.61,1-.9,1.69-1.44,1.91-1.6,2.7-3.92,3.78-6.08a40.55,40.55,0,0,0,3.72-17.47c.06-4.44-.13-9-.46-13.59-.77-10.74-2.33-21.78-3.42-32.51-1.74-16.82-4.22-34-5.4-50.46l0-.31a407.06,407.06,0,0,0-5.88-45.35,88.52,88.52,0,0,0-3.91-15.17,53.15,53.15,0,0,0-3.57-7.64,25.37,25.37,0,0,0-2.87-4c-.88-1-1.88-1.74-2.5-2.51a8.26,8.26,0,0,1-1.36-3.3c-.15-.68-.26-1.36-.34-2s-.14-1.17-.18-1.64a3,3,0,0,1,0-.32l0-.31a18.83,18.83,0,0,1,0-2l0-.51h0c0-.48.08-.95.15-1.41,0-.08,0-.17,0-.25a1.79,1.79,0,0,0,0-.25c.09-.48.2-.94.33-1.39,0-.11.06-.23.1-.34s.17-.46.26-.69l.41.2.49.24.75.37.85.39c.29.13.57.24.84.33l.3.09a1.27,1.27,0,0,0,.84,0,3.43,3.43,0,0,0,.45-.27,2.34,2.34,0,0,0,.42-.37,1.52,1.52,0,0,0,.16-.23,1.49,1.49,0,0,0,.23-.76.91.91,0,0,0,0-.18A1.66,1.66,0,0,0,436,259a2.14,2.14,0,0,0-.15-.41,3.38,3.38,0,0,0-.34-.53,4.59,4.59,0,0,0-.8-.75l-.38-.27-1.69-1.18a8.4,8.4,0,0,1,.65-.64l.52-.43h0l.45-.35.42-.32.05,0c.26-.19.53-.36.81-.53l.11-.07.13-.08c.23-.14.48-.26.72-.39l.1,0,.27-.12.37-.15.44-.17c.36.11.73.21,1.07.28s.88.16,1.32.22c.95.13,1.82.21,2.67.4.29.07.58.14.87.24a8.69,8.69,0,0,1,1,.39.45.45,0,0,0,.35,0,14.22,14.22,0,0,1,4.8,6.44.9.9,0,0,0,.33.44,7.27,7.27,0,0,1,1.69,1.55,12.44,12.44,0,0,1,1.15,2.1q1.24,2.62,2.34,5.25a63.27,63.27,0,0,1,4.38,20.33c.14,2,.24,4,.32,5.93.35,8.34.21,16.52.69,24.95,0,.79.09,1.59.15,2.38.56,7.84,1.69,15.83,2.51,23.68.79,7.54,1.59,15.08,2.12,22.53.44,6.15.7,12.23.64,18.2,0,2,.06,4.05.21,6.09.51,7.14,1.81,14.42,2.45,21.63A109,109,0,0,0,474,441q4.63,13.65,9.88,27.3a68.55,68.55,0,0,1,3.84,14.08c.12.72.2,1.42.25,2.12a14.47,14.47,0,0,1-.33,4.63,7.6,7.6,0,0,1-1.1,2.56,2.67,2.67,0,0,1-1.62,1.11c-.19-.09-.38-.18-.55-.25l-.1,0a4.93,4.93,0,0,0-1.34-.23h-.61l-.56,0c-.44-.18-.92-.4-1.43-.57l-.37-.1a4.61,4.61,0,0,0-1.82,0,5.13,5.13,0,0,1-1.5.1,2.51,2.51,0,0,1-.46-.11,8.77,8.77,0,0,1-1.8-1,9.78,9.78,0,0,0-2.07-1.1,3.07,3.07,0,0,0-1-.15c-.43-.51-.86-1.07-1.3-1.65s-.71-.94-1.11-1.41l-.62-.69a10.19,10.19,0,0,0-.73-.71,7.4,7.4,0,0,0-.59-.49,5,5,0,0,0-.64-.4,3.17,3.17,0,0,0-.44-.19,1.32,1.32,0,0,0-1.45.26,11.07,11.07,0,0,0-1,1.3c-.31.46-.6.94-.87,1.43-.19.32-.37.64-.54,1a7,7,0,0,0-.41.8,6.49,6.49,0,0,0-.38,1.48,4.66,4.66,0,0,1-1.12-1.28,6.71,6.71,0,0,1-.94-2.91,3.94,3.94,0,0,1,.08-1.22.61.61,0,0,0,0-.21.65.65,0,0,0-.07-.19v0a1.2,1.2,0,0,0-.14-.2,1,1,0,0,0-.19-.16.68.68,0,0,0-.21-.09.42.42,0,0,0-.19,0,0,0,0,0,0,0,0h0a2.37,2.37,0,0,1-.41-.07c-.66-.15-1.7-.48-1.87-.53l-.21-.07a9.33,9.33,0,0,1-2.42-1.16,6.45,6.45,0,0,1-1.68-2.2,26.49,26.49,0,0,1-1.26-2.84m29.06,15.73a7.44,7.44,0,0,0-2.39,1.22,1.34,1.34,0,0,0-.42.73,16.52,16.52,0,0,0-2.36-2.36c-.6-.51-1.18-1-1.73-1.5a5.25,5.25,0,0,1,.53.24c.29.17.6.36.94.57s.65.42,1,.62a6.54,6.54,0,0,0,1.1.5,3.5,3.5,0,0,0,.66.15,4.59,4.59,0,0,0,1.33,0l.4-.06.38,0A4.39,4.39,0,0,1,479.55,492.67Zm-3.14,99.46c-.45-5-1-10.06-1.37-15q-.26-3.62-.33-7.15c-.1-6.53-.24-13.09-.72-19.77-.06-.77-.12-1.55-.19-2.33a92.85,92.85,0,0,0-1.4-12.19c-1.07-4.93-1.79-9.88-2.89-14.89s-2.39-10.33-3.65-15.49q-.82-3.35-1.68-6.71c-.56-2.13-1.6-4.12-1.92-6,0-.26-.07-.51-.09-.75,0,0,0-.08,0-.13a5.05,5.05,0,0,1,0-1,5.49,5.49,0,0,1,.69-2,17.51,17.51,0,0,1,2.37-3.56.57.57,0,0,1,.66-.13,3.69,3.69,0,0,1,1.14.76,12.87,12.87,0,0,1,1.15,1.2c.68.8,1.31,1.71,2,2.61.29.36.58.71.9,1.06h0a32.41,32.41,0,0,0,2.77,2.48,13.22,13.22,0,0,1,2.33,2.39c.11.16.2.33.31.49a2.69,2.69,0,0,0,0,.29,3.23,3.23,0,0,0,.32.94l.23.37c.08.11.16.22.24.32l0,0a9.58,9.58,0,0,1,.31,1.34c0,.21.05.42.07.62a23.66,23.66,0,0,1-.4,4.27,9,9,0,0,0,0,1.58,17.33,17.33,0,0,0,.28,2c-.17.61-.34,1.23-.49,1.85a14.26,14.26,0,0,0-.47,3.79c0,.19,0,.38,0,.58s0,.18,0,.26a11.38,11.38,0,0,0,.2,1.35c.32,1.42.69,2.85,1.06,4.28.19.73.38,1.46.55,2.18,0,.61,0,1.22.09,1.84.13,1.87.36,3.76.64,5.67s.51,3.53.75,5.29c.67,4.88,1.25,9.68,1.59,14.4q.26,3.64.3,7.23c.07,7.11-.45,14-.19,21.26.15,4.52.55,8.75.66,13.21.06,2.24.17,4.53.33,6.85.21,2.88.52,5.79,1,8.69a1.72,1.72,0,0,0,0,.25c-.19,1.94-.38,3.88-.58,5.81-.1.85-.15,1.65-.28,2.4a6.12,6.12,0,0,1-.24,1.07,5.54,5.54,0,0,1-.39,1,4,4,0,0,0-.33.72,5.88,5.88,0,0,0-.34,1.53c0,.27-.05.56-.05.86s0,.6-.06.91a8.64,8.64,0,0,0,0,1v.18c0,.13,0,.26.06.41-.26-.12-.5-.22-.75-.35A285,285,0,0,1,476.41,592.13Zm4.94-55.25c-.08-.61-.15-1.22-.24-1.83s-.16-1.18-.25-1.77c-.14-1-.28-2-.43-3.06q.67,3.15,1.29,6.29c.19,1,.37,1.94.53,2.91.31,1.94.55,3.87.75,5.8.13,1.21.25,2.42.35,3.62.31,3.61.54,7.21.83,10.79l.13,1.76c0,.3.05.59.07.89.12,1.64.22,3.27.3,4.9q.39,7.32.37,14.49a43.13,43.13,0,0,1-.31,4.34c-.12,1.07-.21,2.17-.24,3.31,0,.38,0,.75,0,1.14,0,1.33.07,2.66.08,4s0,2.63,0,3.9c0,.85-.11,1.69-.21,2.51,0,.41-.08.82-.13,1.23-.14-1.34-.27-2.68-.37-4-.08-1.15-.14-2.29-.2-3.43s-.09-2.26-.12-3.37c-.1-3.95-.41-7.69-.59-11.56l-.08-1.66c-.09-2.69-.08-5.34,0-8,0-.88,0-1.76.06-2.64.09-3.52.2-7,.17-10.61q0-3.63-.31-7.3C482.41,545.36,481.92,541.14,481.35,536.88ZM471.88,629a4.71,4.71,0,0,1,.81-.54,12.33,12.33,0,0,0,3.82-3.82,3,3,0,0,1,1.77-1c.61-.19,1.3-.35,1.94-.62h0l.2.09a14.29,14.29,0,0,0,1.42.65h0a20.77,20.77,0,0,0,1.15,2.55h0a.92.92,0,0,1,.07.14l.22.37h0c.52.91,1,1.78,1.59,2.63h0a1.69,1.69,0,0,1-.81.59,3.91,3.91,0,0,0-1.78,1,4,4,0,0,0-.64,1.88c-.11.87-.24,1.72-.36,2.57A45.78,45.78,0,0,0,477.2,633a3.05,3.05,0,0,0-.48-.22,1.28,1.28,0,0,0-.55-.08l-.13.06a4.65,4.65,0,0,0-.15-.78,2.52,2.52,0,0,0-.45-.88.1.1,0,0,0,0-.05l0-.06a3.57,3.57,0,0,0-1.7-1.31l-.18,0c-.75-.18-1.34-.1-1.86-.2A1,1,0,0,1,471.88,629Zm10.47,8.28.51.35.16.11,1.23.87a6.94,6.94,0,0,1,1.59,1.35l.1.26a.07.07,0,0,1,0,.07s0,.08,0,.13a2.29,2.29,0,0,1-.11.35,1.54,1.54,0,0,0-.06.16.8.8,0,0,1-.21.3l0,0a.49.49,0,0,1-.21.09h0a1,1,0,0,1-.51-.07,6.2,6.2,0,0,1-.72-.31c-1.06-.53-2.12-1.2-3.22-1.83-.38-.22-.73-.43-1.07-.65l-.26-.16a8.06,8.06,0,0,1-1-.76,7.3,7.3,0,0,1-.62-.68,4.13,4.13,0,0,1-.39-.64,1.32,1.32,0,0,1-.11-.25,3.87,3.87,0,0,1-.2-.48,1.65,1.65,0,0,0-.06-.16.57.57,0,0,1,0-.11,1.33,1.33,0,0,0-.06-.19c0-.12-.07-.25-.1-.39a.5.5,0,0,1,0-.06c0-.18-.08-.38-.12-.58a.77.77,0,0,1,0-.15l.27.12a46.24,46.24,0,0,1,4.16,2.55l.51.34.57.39Zm-24,34a2.55,2.55,0,0,1-.52.32l-.24.13-.47.27c-.13.08-.26.2-.39.3a4.94,4.94,0,0,0-1.18,1.34,4.22,4.22,0,0,0-.42,1.72,3.23,3.23,0,0,1-.35,1.38,1,1,0,0,1-.41.4.47.47,0,0,1-.39,0,1,1,0,0,1-.37-.25,1.5,1.5,0,0,1-.49-1,1.12,1.12,0,0,1,0-.39,7.84,7.84,0,0,0,.54-2.92c0-.2-.05-.44-.09-.68a8.06,8.06,0,0,0-.58-1.58,7.85,7.85,0,0,1-.42-1c0-.08,0-.16-.06-.22l0-.2a1,1,0,0,1,0-.33,1,1,0,0,1,.23-.43,1.19,1.19,0,0,1,.43-.34,2,2,0,0,1,1.52-.12h0a7.43,7.43,0,0,1,2.85,2c.17.2.42.46.62.7l.24.33.06.11V671A.47.47,0,0,1,458.33,671.26Zm5.59-10.54a1.46,1.46,0,0,1-.57.69,3.69,3.69,0,0,0-.88.83c-.39.59-.88,1.11-1.36,1.7a5.27,5.27,0,0,0-.69,1.56,19.38,19.38,0,0,0-1.16,5c-.13-.2-.27-.38-.39-.57s-.53-.6-.68-.76a9.07,9.07,0,0,0-3.5-2.47l-.08,0a3.1,3.1,0,0,0-1-.13c.3-.26.61-.49.85-.67,2.12-1.68,2.82-4.73,2.73-7.95v-.34c0-.28,0-.53-.06-.74a1.6,1.6,0,0,1,.25-1.14c.05-.07.12-.1.17-.17a1.39,1.39,0,0,1,.33-.27l.18-.11.29-.06a1.14,1.14,0,0,1,.56,0l.12,0a11.4,11.4,0,0,1,3.64,2.69,2.88,2.88,0,0,1,.44.61l.06.11.38.69s0,0,0,0a3.48,3.48,0,0,1,.28.59,1.79,1.79,0,0,1,.13.55Zm9.66-20.63-.75.28-.32.14-.24.1a7.89,7.89,0,0,0-1.48,1.2,8.94,8.94,0,0,0-2,3.31,38.54,38.54,0,0,0-1.63,6.19c-.18,1.09-.2,2.17-.3,3.16a5.81,5.81,0,0,1-.76,2.64,11.45,11.45,0,0,1-1.63,2l-.08,0a.07.07,0,0,1,0,0c-.18-.3-.3-.57-.48-.87a5.23,5.23,0,0,0-.68-.95,12.81,12.81,0,0,0-4.22-3.09l-.21-.08a2,2,0,0,0-1.44,0h0a5.08,5.08,0,0,1-.43-.61,2,2,0,0,1-.3-.81l0-.34a3.25,3.25,0,0,1,.55-1l2.09-3a13.28,13.28,0,0,0,1.1-2.78c.95-2.29,2-4.55,3.05-6.74a20.76,20.76,0,0,1,2.2-4.17,5,5,0,0,1,1.52-1.2l.31-.15.44-.2L468,633l.35-.11a1,1,0,0,1,.16,0l.19,0h0a10.89,10.89,0,0,1,3.36,3.22c0,.07.07.13.12.21a10.25,10.25,0,0,1,.92,1.76c.13.33.23.66.32,1a6.12,6.12,0,0,1,.19,1Zm3.21-.47-.15,0,0,0a1.55,1.55,0,0,1-.78-.07,3.85,3.85,0,0,1-1.1-.6c-.13-.1-.27-.23-.4-.34a11.57,11.57,0,0,0-1.42-2.95,12.67,12.67,0,0,0-4-3.8l-.23-.11a1.37,1.37,0,0,0-.69,0,.91.91,0,0,1-.19.05,5.92,5.92,0,0,1,.07-1.36,1.14,1.14,0,0,1,.93-.94,1.79,1.79,0,0,1,.65.1,12.7,12.7,0,0,1,1.18.5c.2.09.41.18.64.27l.08,0,.3.09a2.39,2.39,0,0,0,.31.06c.64.1,1.17,0,1.66.18l.09,0a1.81,1.81,0,0,1,.89.66l.08.11.17.36c.07.22.1.54.18.92a2.38,2.38,0,0,0,.07.35c0,.11.08.23.13.34a5.51,5.51,0,0,0,.57.94l.15.21c0,.17.08.35.14.54s.08.23.11.33.15.42.25.64.09.2.15.29a6.65,6.65,0,0,0,.58.94c.14.19.3.32.43.48l.07.07a3,3,0,0,1-.17.36c-.18.31-.27.65-.39.89S476.93,639.57,476.78,639.62ZM478,667.33a7.64,7.64,0,0,0,2.51-2.55,8.44,8.44,0,0,0,.86-4.07c0-1.15,0-2.32-.07-3.52a37.58,37.58,0,0,0-1-6.29c-.51-2.05-1.34-4-1.72-5.86a30.84,30.84,0,0,0-1.06-4.37,1.43,1.43,0,0,0,.63-.73,5.39,5.39,0,0,1,.34-.81c0-.1.11-.2.16-.32l.14.1.3.21c.18.13.36.25.55.37l.27.17.58.33.14.09c1.07.61,2.18,1.3,3.32,1.87a8.28,8.28,0,0,0,.9.38l.24.07.14,0c.06.19.11.37.15.56a8.51,8.51,0,0,1,.13.92,5,5,0,0,1-.45,2.58c-.13.3-.44.52-.7.94a2.18,2.18,0,0,0-.19.53s0,0,0,.08a.49.49,0,0,0-.05.21c0,.09,0,.18-.06.28a1.59,1.59,0,0,0,0,.31s0,0,0,.07,0,.33-.06.46v.07a15.37,15.37,0,0,0,0,2.64c0,.41.07.8.12,1.21.07.58.13,1.16.17,1.74.1,1.35.13,2.7.23,4.1,0,.44.07.87.12,1.31a46.51,46.51,0,0,0,1.24,7.46c.08.29.16.62.26,1v0c0,.11.07.21.1.32.13.37.24.72.34,1.06s.12.44.17.64a3.84,3.84,0,0,1,.09.6,2.6,2.6,0,0,1,0,.42,5.52,5.52,0,0,1-.72,2.22,5.31,5.31,0,0,1-.5.74l0,0a4.46,4.46,0,0,1-.63.59s0,0,0,0a2.66,2.66,0,0,1-.77.37h0l-.19,0-.5-.62a26,26,0,0,0-2.33-2.54,7.51,7.51,0,0,0-2.6-1.62l-.36-.1a2.59,2.59,0,0,0-.59-.07,8.38,8.38,0,0,1-.22-1.36C477.18,668.59,477.37,667.72,478,667.33Zm7.06-13.76c0-.34-.07-.67-.11-1,.22.68.43,1.37.61,2.09a20.06,20.06,0,0,1,.51,3.38c.08,1.17.1,2.34.13,3.6a27.57,27.57,0,0,1-.09,3.42c-.24-1.44-.39-2.86-.55-4.3,0-.42-.08-.85-.11-1.27-.1-1.35-.13-2.72-.23-4.1C485.2,654.8,485.14,654.19,485.06,653.58Zm-9.92,37.35c.88-1,1-2.36,1.41-3.5a14.78,14.78,0,0,0,.66-5.87,29.49,29.49,0,0,0-1.2-6.16,2.86,2.86,0,0,1-.11-.62,2.79,2.79,0,0,1,.62-2,1.66,1.66,0,0,1,.39-.34,1.9,1.9,0,0,1,.4-.21,1.52,1.52,0,0,1,.47-.09,1.49,1.49,0,0,1,.47,0l.26.08a5.9,5.9,0,0,1,2.05,1.3,23.57,23.57,0,0,1,2.14,2.33l.12.14a.61.61,0,0,0,.1.13.39.39,0,0,0-.08.37.08.08,0,0,0,0,0,2.93,2.93,0,0,0,.19.59,4.93,4.93,0,0,0,.6,1.16c.13.18.25.34.36.49a5.61,5.61,0,0,1-.76,1.7,30.5,30.5,0,0,0-2.68,7.23,57.62,57.62,0,0,0-1.35,5.71c0,.14,0,.3-.07.47a13.54,13.54,0,0,1-.32,1.76,2.36,2.36,0,0,1-.2.51,2.31,2.31,0,0,0-.27-.61,6.15,6.15,0,0,0-.53-.63l-3.1-3.26a2.13,2.13,0,0,0-.26-.21A4.69,4.69,0,0,0,475.14,690.92ZM465,696l.22-.07.23.14h0a3.59,3.59,0,0,0,3.11-.4c1.56-1,2.43-2.71,4-3.31a3.55,3.55,0,0,1,.52-.17,1.35,1.35,0,0,1,.49-.08,1,1,0,0,1,.32,0,.69.69,0,0,1,.2.14s.08,0,.13.07c1,1.09,2.06,2.18,3.1,3.26a3.78,3.78,0,0,1,.33.39l.05.13h0a.56.56,0,0,1-.17.45.67.67,0,0,1-.18.18,1.89,1.89,0,0,1-.2.09,1.41,1.41,0,0,1-.24.1l-.08,0a.76.76,0,0,1-.18,0,2.9,2.9,0,0,1-.46.09,7,7,0,0,0-2.66.4,8.31,8.31,0,0,1-.89.39h0a38.25,38.25,0,0,1-4.8,1.36,1.54,1.54,0,0,0-.21-.52c-.11-.17-.21-.28-.29-.39a5.5,5.5,0,0,0-.76-.79l-.09-.14a4.34,4.34,0,0,0-.8-.73,6.07,6.07,0,0,1-.56-.44,1.38,1.38,0,0,0-.2-.15Zm-1.62,2.62c-.26-.06-.55-.16-.87-.26h0l-.4-.12-.29-.1-.81-.3-.12-.05-.37-.12a1.94,1.94,0,0,1-.28-.77h0a.52.52,0,0,1,0-.3l.13,0a1.91,1.91,0,0,1,.45.1l.37.12.4.12a5.87,5.87,0,0,0,2,0l.43-.06a.79.79,0,0,1,.24,0l.17,0,.09.06.09,0a5.89,5.89,0,0,0,.67.55l.08.07a2.29,2.29,0,0,1,.41.35l.21.3a4,4,0,0,1,.63.62l.14.19h-.18a.26.26,0,0,1-.11,0h0c-.22,0-.42-.05-.63-.07l-.65-.07-.26,0A11.45,11.45,0,0,1,463.36,698.66Zm13.38,3.82a.42.42,0,0,1-.2.33,3.34,3.34,0,0,1-.58.22,2,2,0,0,1-.84-.15l-.61-.2c-2.1-.58-4.24-1.17-6.34-1.68-1.14-.29-2.2-.34-3.19-.67a5.45,5.45,0,0,1-.94-.41l-.11-.06c.41.08.85.17,1.25.21s1,.1,1.46.14h0a3,3,0,0,0,.52.25,1.76,1.76,0,0,0,1,.06h0a47.39,47.39,0,0,0,4.92-1.38h0a17.88,17.88,0,0,0,2.26,1.37,1,1,0,0,0,.25.11s0,0,0,0l.09.16.15.23,0,.06.3.37a2.2,2.2,0,0,0,.27.24h0v0l.11.08v0a2.54,2.54,0,0,1,.13.52Zm-.24-2.7a.63.63,0,0,1-.48,0l-.16-.07-.12,0-.28-.12h0c-.38-.19-.78-.43-1.17-.67a1.63,1.63,0,0,1-.2-.14.74.74,0,0,0,.16-.07,6.52,6.52,0,0,1,2.4-.31,5.23,5.23,0,0,0,.76-.15l.13,0,.38-.19s0,0,0,0h0l.07,0,.16,0a1.21,1.21,0,0,0,.85-.2,1.09,1.09,0,0,0,.26-.27,2.88,2.88,0,0,0,.45-.83,7,7,0,0,0,.26-1c.12-.67.2-1.31.26-1.66a52.78,52.78,0,0,1,1.32-5.64c.16-.5.3-1,.45-1.52l.38-1.27c.15-.5.31-1,.48-1.5a1.55,1.55,0,0,1,.13-.27,8.69,8.69,0,0,1,.34-.91,12.81,12.81,0,0,1,.82-1.59h0a5.91,5.91,0,0,0,.46-.84s0,0,0-.06a3,3,0,0,0,.24-.57,2.34,2.34,0,0,0,.08-.33l0,0,.07,0c.17.1.31.22.45.3a12,12,0,0,1,2.57,2.32c.2.22.37.45.56.69a1.43,1.43,0,0,0,.14.22,9.56,9.56,0,0,1,.56.87.55.55,0,0,1,.07.28v.07a2.17,2.17,0,0,1,0,.39s0,.07,0,.11a2.14,2.14,0,0,1-.38.71l-3.72,5.27c-1.2,1.7-2.78,3.06-4.14,4.74-.33.41-.63.8-1,1.16a4,4,0,0,1-.49.53,5.18,5.18,0,0,1-.54.47.4.4,0,0,1-.13.08,12.81,12.81,0,0,0-2.1,1.59C476.78,699.65,476.64,699.76,476.5,699.78Zm15.09-15.12.23.09h.06a8.08,8.08,0,0,1,1.9,3,4.47,4.47,0,0,1,.07.55,4.82,4.82,0,0,1-.7,2.57c-1.48,2.94-4,4.9-6.61,6.82a27.59,27.59,0,0,1-6.88,4.14,2,2,0,0,1-.93.18l-.28-.08a4.47,4.47,0,0,1-1.29-.78l-.23-.17,0,0a.74.74,0,0,0,.23,0,1.77,1.77,0,0,0,.74-.55,13.47,13.47,0,0,1,2.13-1.59,7.57,7.57,0,0,0,1.14-1.07c.32-.39.65-.78,1-1.18s.67-.8,1-1.18a39.41,39.41,0,0,0,3.15-3.59c1.22-1.76,2.48-3.51,3.72-5.27a2.66,2.66,0,0,0,.47-1,2.58,2.58,0,0,0,.06-.8v-.12a2,2,0,0,0-.07-.33,1.64,1.64,0,0,0-.19-.49h0s0,0,0,0l-.09-.13A4.5,4.5,0,0,0,491.59,684.66Zm2.23-10.34c0,2.12-1.13,3.37-1.78,5.36a4,4,0,0,1-.74,1.54,4.35,4.35,0,0,0-.51.75.91.91,0,0,1-.5.4,1.69,1.69,0,0,1-.32,0,1.86,1.86,0,0,1-.7-.12,13.51,13.51,0,0,0-4-3.59l-.16-.08c-.12-.05-.24-.12-.34-.16a4.41,4.41,0,0,1-.27-.36,1,1,0,0,1-.13-.17,3.32,3.32,0,0,1-.39-.72v0l.12,0c.14,0,.33,0,.47-.07h0l0,0a3.41,3.41,0,0,0,.91-.45.07.07,0,0,1,.05,0,4.76,4.76,0,0,0,.7-.68s0,0,.05-.05a2.92,2.92,0,0,0,.17-.27.27.27,0,0,0,.11-.15s0,0,0-.05,0,0,0,0,.15-.23.23-.36h0a5.8,5.8,0,0,0,.82-2.53,3.21,3.21,0,0,0,0-.58,9.28,9.28,0,0,0-.39-1.81c-.13-.38-.25-.76-.37-1.11h0c-.07-.24-.13-.51-.2-.79a27.27,27.27,0,0,0,.47-6.12c0-1.23,0-2.42-.14-3.64a20,20,0,0,0-.56-3.61,36.3,36.3,0,0,0-1.59-4.84h0a8,8,0,0,1,.22-1.31,1.1,1.1,0,0,1,.12-.33c.15-.28.47-.51.71-1a5.76,5.76,0,0,0,.53-3,8.49,8.49,0,0,0-.17-1.18c-.05-.26-.14-.51-.21-.76h0s.06,0,.07,0,.09,0,.13-.07a1.33,1.33,0,0,0,.37-.51,1.06,1.06,0,0,1,0-.14h0c.74.57,1.49,1.16,2.24,1.69a10.08,10.08,0,0,0,2.29,1.29h0a6,6,0,0,1,.31,1.62v.06c.15,2.07.27,4.15.42,6.23.11,1.71,0,3.33.13,5.11,0,.48.08,1,.15,1.47.44,2.65.52,5.24.76,7.91l.15,2c0,.45.06.88.13,1.35.14,1.11.34,2.18.41,3.19A6.66,6.66,0,0,1,493.82,674.32ZM491.43,641a.85.85,0,0,0,.41.41c0,.36.11.72.13,1.08s0,.73,0,1.08a2.9,2.9,0,0,1-.5-.08l-.09,0a8.46,8.46,0,0,1-2-1.13l0,0c-.79-.56-1.58-1.16-2.37-1.79a2,2,0,0,0-.46-1.12,9,9,0,0,0-2-1.73c-.74-.51-1.49-1-2.24-1.55.13-.91.27-1.81.4-2.7,0-.33.09-.62.15-.88a1.94,1.94,0,0,1,.32-.66,3.54,3.54,0,0,1,1.55-.78,2.71,2.71,0,0,0,.89-.59h0c.3.43.61.86.94,1.3h0a1.13,1.13,0,0,0-.08.47v.06h0a2.69,2.69,0,0,0,.41,1.13,7.67,7.67,0,0,0,.62.9A33.46,33.46,0,0,1,491.43,641ZM488.72,498a3.16,3.16,0,0,1-.83,2.51c-.41.34-1,.53-1.35,1.22a10.61,10.61,0,0,0-.71,2.14,26,26,0,0,0-.36,7.92c.06.82.13,1.65.2,2.47.15,1.66.28,3.31.4,5,.2,2.85.37,5.7.58,8.56l.1,1.39c.29,3.68.81,7.41,1.22,11.09s.72,7.29,1.12,11c.43,3.95,1.12,8,1.38,11.91.06.88.11,1.76.12,2.61.08,4.91.18,9.82.4,14.78s.22,9.77.17,14.6,0,9.53-.46,14a47.55,47.55,0,0,0,.17,7.65c0,.13,0,.27,0,.41.12,1.66.33,3.36.62,5.07.24,1.39.75,3,.84,4.18a3.82,3.82,0,0,1,0,.84,3.93,3.93,0,0,1-.77,1.63c-.36.56-.51,1.25-.78,1.6a2.5,2.5,0,0,1-1.68.7,9.87,9.87,0,0,1-1.95,0c-.45-.6-.88-1.19-1.28-1.79-.67-1-1.31-2.06-1.91-3.17l0,0c-.25-.44-.46-.88-.66-1.31a.85.85,0,0,1-.07-.13c-.09-.2-.15-.39-.23-.59s-.2-.49-.28-.73l-.1-.28c0-.06,0-.11,0-.17a4,4,0,0,1-.13-.69,15.91,15.91,0,0,1,.07-1.77,5.48,5.48,0,0,1,.64-2.75,12.55,12.55,0,0,0,1-4.74c.09-.84.16-1.68.25-2.52.13-1.22.26-2.44.37-3.67.18-1.82.36-3.63.57-5.44a79.62,79.62,0,0,0,.16-10.53c-.07-3,.56-5.61.59-8.76q0-9.6-.68-19.47c-.06-.89-.14-1.78-.2-2.66-.62-7.6-.93-15.36-2.48-23.27q-1.37-7.08-3-14.22a2.18,2.18,0,0,1-.06-.25h0c-.32-1.36-.69-2.72-1-4.07-.21-.83-.41-1.66-.6-2.48a10.57,10.57,0,0,1-.2-1.43,13.09,13.09,0,0,1,.42-4.07l0,0q.25-1,.54-2c.38-1.43.79-2.85,1.2-4.27a5.73,5.73,0,0,0,.2-2,7.23,7.23,0,0,0-1.65-4l-.2-.24a4.17,4.17,0,0,1-.5-.68,1.46,1.46,0,0,1-.19-.65,2,2,0,0,1,0-.26c0-.05,0-.11,0-.17.09-.49.12-.82.31-.94a7.3,7.3,0,0,1,4-1.46l.13,0a6.25,6.25,0,0,1,2.21.15l.07,0a4.94,4.94,0,0,1,.7.33,16.93,16.93,0,0,1,1.93,1.29,4.94,4.94,0,0,1,1.33,1.33,2.55,2.55,0,0,1,.36,1.17Zm-10.26,6.94v-.28c.11-1.1.35-2.08.41-3.23a8.63,8.63,0,0,0,0-1.11,5.29,5.29,0,0,1,.25,1.23,5.39,5.39,0,0,1,0,.87,4.22,4.22,0,0,1-.16.8C478.79,503.76,478.63,504.34,478.45,504.91Z"/><path class="cls-3" d="M173.66,558.58h1c.1-2.9.24-5.82.45-8.76,0-.26,0-.52.07-.77l.11-1.54c.29-3.45.47-7,1.09-10.53.08-.5.18-1,.29-1.5.27-1.25.52-2.49.75-3.74.72-3.73,1.32-7.44,2.15-11.16q.85-3.85,1.78-7.72t1.87-7.75q.8-3.34,1.67-6.68c.12-.47.27-1,.45-1.45.1-.3.21-.61.33-.93a28.51,28.51,0,0,0,1-2.91c.06-.27.15-.53.2-.8a8.17,8.17,0,0,0,.11-.88c0-.11,0-.21,0-.32a6.44,6.44,0,0,0,1.89-2c.09-.14.16-.29.24-.44a8.84,8.84,0,0,0,.82-2.26,8.11,8.11,0,0,0,.12-.88c0-.16,0-.31,0-.47s0-.16,0-.24l.25-.06.25-.06.88-.25.52-.16.22-.07a11.53,11.53,0,0,0,2.09-.91c.22-.13.46-.28.69-.44a5.08,5.08,0,0,0,.69-.58,8.66,8.66,0,0,0,1.11-1.46c.17-.27.32-.54.47-.81a27.94,27.94,0,0,0,1.34-3l1-4c0-.18,0-.37,0-.55s0-.26,0-.4A5.63,5.63,0,0,0,199,470l-.15-.31a2.85,2.85,0,0,0-.41-.54,8.21,8.21,0,0,0-1.18-.91,2.1,2.1,0,0,1-.23-.17,6.07,6.07,0,0,1-.89-.9,11.36,11.36,0,0,1-1.58-2.52c-.27-.52-.51-1.07-.77-1.62-.13-.28-.27-.55-.4-.83a32.51,32.51,0,0,1-1.58-3.87,38.31,38.31,0,0,1-1.12-4.15q-.21-1.08-.39-2.18a49.93,49.93,0,0,1-.55-6.92c-.06-4.4.12-8.92.44-13.49q.14-2,.32-4c.48-5.38,1.1-10.83,1.74-16.27.32-2.72.64-5.44.93-8.14.15-1.35.3-2.7.44-4.05,1.08-10.49,2.46-21.12,3.62-31.67.7-6.33,1.33-12.62,1.78-18.83l0-.31q.2-2.78.43-5.56.43-4.89,1-9.81,1.65-14.77,4.46-29.83a87.81,87.81,0,0,1,3.84-14.93c.24-.62.47-1.24.73-1.87s.54-1.24.82-1.86.59-1.23.9-1.84.64-1.22,1-1.81c.19-.33.42-.64.62-1q.61-.95,1.32-1.85c.25-.3.46-.61.72-.9.68-.79,1.68-1.54,2.53-2.55a7.15,7.15,0,0,0,.61-.91,11.19,11.19,0,0,0,1.11-3.11c.08-.35.15-.7.21-1a24.83,24.83,0,0,1,2.28,1.44c.18.14.39.26.57.4l.19.16a3.14,3.14,0,0,1,.92,1l.15.34a6,6,0,0,1,.24,1.46,11.12,11.12,0,0,0,.88,4.48c.68,1.17,2,1.44,3.09,1.8a29.75,29.75,0,0,1,3.9,1.57,7.13,7.13,0,0,0,.12,1.75c-.3.28-.56.58-.83.87.62-.51,1.26-1,1.9-1.47,0-.18-.07-.36-.1-.55a7.08,7.08,0,0,1,0-1.51,12.65,12.65,0,0,1,.57-2.71,21.53,21.53,0,0,1,4-7l.53-1.47c-.44-1.67.73-3.77,2.1-5.79L241,261l-.24.34c-.24.35-.48.71-.76,1.09-1.81,2.57-4.06,5.74-3.36,8.31a23.46,23.46,0,0,0-4.42,7.79,14.68,14.68,0,0,0-.52,2.23,32,32,0,0,0-3.39-1.34c-1.14-.36-2.28-.66-2.76-1.52a10.4,10.4,0,0,1-.78-4.15,5.52,5.52,0,0,0-.46-2.09,4.29,4.29,0,0,0-1.28-1.41,23.33,23.33,0,0,0-3.47-2.18c.07-.52.12-1,.16-1.39,0-.23,0-.45.06-.67a17.49,17.49,0,0,0,0-2.06c0-.13,0-.26,0-.39,0-.56-.08-1.12-.16-1.66l0-.16a.25.25,0,0,1,0-.09,16.63,16.63,0,0,0-.39-1.78h0c-.08-.3-.21-.57-.31-.86a7.76,7.76,0,0,0-.33-.9v0l.62-.91a10,10,0,0,0,1-1.71,3.24,3.24,0,0,0,.27-1,1.42,1.42,0,0,0-.16-.86s0,0,0-.06a1.14,1.14,0,0,0-.79-.47,3.58,3.58,0,0,0-.77,0,16.58,16.58,0,0,0-3.67.63h0a14,14,0,0,0-2.75-1.77l-.14-.08a4,4,0,0,1,.5-.22,1.08,1.08,0,0,1,.26-.06c.06,0,.1,0,.11,0h0a1.38,1.38,0,0,1,.2.18l.1.09.09.07.22.13h0l.11,0,.16,0a1.29,1.29,0,0,0,.27,0h.06a2.12,2.12,0,0,0,.47-.1h0a6.13,6.13,0,0,0,.77-.33c1.92-.94,3.83-1.89,5.74-2.81l.75-.36,2-.95.83-.38c.91-.41,1.84-.81,2.76-1.18s2.2-.87,3.34-1.28c.38-.14.77-.29,1.15-.41.61-.2,1.23-.39,1.83-.55a12.5,12.5,0,0,1,5-.48.46.46,0,0,0,.24,0,.84.84,0,0,0,.26-.16l0,0,1.43-1.32.95-.87.58-.54,1.18-1.09,1.82-1.68c.56-.18,1.1-.39,1.64-.6l.47-.19c.5-.21,1-.44,1.51-.69l.13-.06c.41-.21.83-.43,1.26-.67l.82-.44.55-1.36c-.51.26-1,.53-1.52.81l-.24.13a26.63,26.63,0,0,1-4.54,2l-.14,0-.28.17L243.54,238,240,241.25l-.9.83c-.13,0-.28,0-.42,0h0a11.22,11.22,0,0,0-1.93,0l-.61.07-.39,0-.32.07c-.48.09-1,.19-1.46.32s-1.21.34-1.82.54l-.78.28c-1.31.46-2.61,1-3.8,1.44-3.08,1.24-6.13,2.73-9.17,4.22l-3,1.49a5.38,5.38,0,0,1-.61.26.72.72,0,0,1-.49,0c-.1,0-.21-.18-.42-.34a1.09,1.09,0,0,0-.13-.09l-.07,0-.18-.06-.26,0h-.07a2.22,2.22,0,0,0-.47.1,7.25,7.25,0,0,0-1,.45,7,7,0,0,1-.7.34l-.14,0h0l-.15,0a14.5,14.5,0,0,1-2.35.49,19.71,19.71,0,0,0-3.73.69l-.19.07a4.49,4.49,0,0,1,.66-.78l.09-.09a9.34,9.34,0,0,1,1.89-1.3,26,26,0,0,1,4.42-1.92c.8-.26,1.59-.48,2.35-.65a.87.87,0,0,0,.56-.49,5.08,5.08,0,0,1,1.43-1.77,14.06,14.06,0,0,1,2.14-1.42c3.71-2.09,7.42-3.46,11.24-5.47s7.8-4.21,11.69-5.93,7.75-3.63,11.58-5.75c.84-.46,1.66-1,2.48-1.44l.58-1.41c-1.06.64-2.13,1.27-3.21,1.86-1.43.79-2.85,1.54-4.29,2.27s-2.87,1.44-4.31,2.12c-.95.45-1.91.88-2.87,1.31-4,1.75-7.89,3.92-11.79,6-2.78,1.47-5.58,2.61-8.42,4-1,.46-1.9,1-2.86,1.49l-.6.36a13.76,13.76,0,0,0-1.79,1.23,7.77,7.77,0,0,0-1.36,1.46c-.13.18-.24.38-.36.58l-1,.27c-.35.09-.71.2-1.07.32-.78.26-1.57.56-2.35.89s-1.55.71-2.3,1.13a12.68,12.68,0,0,0-1.67,1.07c-.19.15-.37.3-.55.47a6.27,6.27,0,0,0-1.4,1.89c-.24.17-.48.32-.7.5a16.49,16.49,0,0,0-3,3.09,15.9,15.9,0,0,0-1.16,1.81,14.58,14.58,0,0,0-.87,1.91,8.82,8.82,0,0,0-1.87,1.79,14,14,0,0,0-1.34,2.42c-.83,1.77-1.62,3.54-2.36,5.32-.37.89-.72,1.79-1,2.68s-.6,1.77-.86,2.65a62,62,0,0,0-2.11,10.39c-.21,1.7-.37,3.39-.49,5.06-.14,2-.24,4-.32,6-.26,6.28-.24,12.45-.42,18.68-.06,2.08-.14,4.16-.25,6.25,0,.79-.1,1.58-.16,2.37-.14,1.95-.31,3.9-.51,5.87-.59,5.9-1.38,11.86-2,17.77-.39,3.77-.79,7.54-1.16,11.31s-.68,7.52-1,11.25c-.22,3.08-.41,6.16-.52,9.21q-.08,2.28-.12,4.56c0,1.51,0,3,0,4.52,0,2-.06,4-.2,6q-.09,1.32-.22,2.66c-.09.89-.18,1.78-.28,2.67-.31,2.68-.68,5.39-1,8.11-.23,1.81-.45,3.62-.65,5.44-.1.91-.2,1.82-.27,2.73s-.2,2-.32,3.07-.25,2.06-.4,3.1q-.44,3.11-1.09,6.26c-.21,1-.45,2.1-.69,3.16-.75,3.16-1.64,6.34-2.73,9.51q-1.14,3.4-2.34,6.81t-2.44,6.81q-1.23,3.41-2.5,6.81t-2.58,6.81a72.35,72.35,0,0,0-3.59,12.6c-.11.59-.23,1.19-.33,1.78s-.2,1.48-.25,2.21a15.57,15.57,0,0,0,.34,4.94,10.82,10.82,0,0,0,.48,1.44,6.59,6.59,0,0,0,.54,1,1.87,1.87,0,0,0,.2.33,3.79,3.79,0,0,0,.49.57,2.91,2.91,0,0,0,.65.47l-.38.26-.69.5a7.94,7.94,0,0,0-1.41,1.29,5,5,0,0,0-.42.58l-.12.24a4.26,4.26,0,0,0-.45,1.6v.36a5,5,0,0,0,.55,2.46,2.39,2.39,0,0,0,.52.61l.39.27c.12.08.24.15.33.23a2,2,0,0,1,.28.23.88.88,0,0,1,.19.29,6.51,6.51,0,0,1,.36.95c.11.34.2.69.29,1a18.18,18.18,0,0,1,.32,1.8,24.1,24.1,0,0,1,.12,3.82c0,.66,0,1.32-.1,2,0,.4-.07.82-.11,1.23s-.06.81-.1,1.23-.09,1.1-.13,1.66c-.09,1.11-.19,2.22-.27,3.32-.14,1.91-.26,3.81-.39,5.71-.06.95-.12,1.9-.19,2.85l-.1,1.38c-.24,3.17-.67,6.41-1.05,9.65l-.17,1.39c-.21,1.84-.39,3.67-.57,5.49s-.35,3.65-.55,5.47c0,.48-.12,1-.17,1.48-.19,1.48-.38,3-.57,4.48,0,.38-.09.76-.14,1.14h1c.3-2.47.66-5,.93-7.41.4-3.67.7-7.31,1.12-11s.94-7.41,1.22-11.09l.1-1.39c.2-2.86.37-5.71.58-8.56.12-1.65.25-3.3.4-5,.07-.83.14-1.65.2-2.47a26,26,0,0,0-.36-7.92,10.6,10.6,0,0,0-.71-2.14c-.35-.7-.95-.88-1.35-1.22a3.16,3.16,0,0,1-.83-2.51v-.26a2.55,2.55,0,0,1,.36-1.17,4.94,4.94,0,0,1,1.33-1.33,17,17,0,0,1,1.93-1.29,4.91,4.91,0,0,1,.7-.33l.07,0a6.25,6.25,0,0,1,2.21-.15l.13,0a7.3,7.3,0,0,1,4,1.46c.18.12.22.45.31.94,0,.05,0,.11,0,.17a2,2,0,0,1,0,.26,1.47,1.47,0,0,1-.19.65,4.15,4.15,0,0,1-.5.68l-.2.24a7.23,7.23,0,0,0-1.65,4,5.73,5.73,0,0,0,.2,2c.41,1.42.82,2.84,1.2,4.27q.29,1,.54,2l0,0a13.09,13.09,0,0,1,.42,4.07,10.56,10.56,0,0,1-.2,1.43c-.18.82-.39,1.64-.6,2.48-.35,1.35-.71,2.71-1,4.07h0a2.17,2.17,0,0,1-.06.25q-1.67,7.13-3,14.22c-1.46,7.42-1.82,14.72-2.37,21.88h1c.25-3.23.46-6.48.75-9.74.1-1.2.22-2.41.35-3.62.21-1.93.45-3.87.75-5.8.16-1,.33-1.94.53-2.91q.62-3.14,1.29-6.29c-.15,1-.29,2-.43,3.06-.09.59-.18,1.18-.25,1.77s-.17,1.22-.24,1.83c-.57,4.26-1.06,8.48-1.36,12.65q-.26,3.67-.31,7.3c0,.59,0,1.17,0,1.75h1c0-.72,0-1.45,0-2.17q0-3.59.3-7.23c.34-4.73.92-9.53,1.59-14.4q.36-2.64.75-5.29c.28-1.91.51-3.8.64-5.67,0-.62.07-1.23.09-1.84.18-.72.36-1.45.55-2.18.37-1.42.75-2.85,1.06-4.28a11.4,11.4,0,0,0,.2-1.35c0-.09,0-.18,0-.26s0-.39,0-.58a14.26,14.26,0,0,0-.47-3.79c-.15-.63-.32-1.24-.49-1.85a17.32,17.32,0,0,0,.28-2,9,9,0,0,0,0-1.58,23.65,23.65,0,0,1-.4-4.27c0-.2,0-.41.07-.62a9.59,9.59,0,0,1,.31-1.34l0,0c.07-.1.16-.21.24-.32l.23-.37a3.23,3.23,0,0,0,.32-.94,2.69,2.69,0,0,0,0-.29c.1-.16.19-.33.31-.49a13.23,13.23,0,0,1,2.33-2.39,32.42,32.42,0,0,0,2.77-2.48h0c.32-.34.62-.7.9-1.06.72-.9,1.35-1.81,2-2.61a12.85,12.85,0,0,1,1.15-1.2,3.69,3.69,0,0,1,1.14-.76.57.57,0,0,1,.66.13,17.51,17.51,0,0,1,2.37,3.56,5.49,5.49,0,0,1,.69,2,5,5,0,0,1,0,1s0,.08,0,.13c0,.24,0,.49-.09.75-.33,1.87-1.36,3.86-1.92,6s-1.14,4.47-1.68,6.71c-1.25,5.17-2.51,10.33-3.65,15.5s-1.82,10-2.89,14.9a92.84,92.84,0,0,0-1.4,12.19c-.07.78-.13,1.56-.19,2.33C173.9,553,173.76,555.8,173.66,558.58Zm-4-53.67c-.17-.57-.34-1.15-.5-1.73a4.22,4.22,0,0,1-.16-.8,5.39,5.39,0,0,1,0-.87,5.29,5.29,0,0,1,.25-1.23,8.62,8.62,0,0,0,0,1.11c.07,1.15.3,2.13.41,3.23Zm-1.1-12.24a4.36,4.36,0,0,1,.55,0l.38,0,.4.06a4.59,4.59,0,0,0,1.33,0,3.49,3.49,0,0,0,.66-.15,6.54,6.54,0,0,0,1.1-.5c.35-.2.69-.41,1-.62s.64-.4.94-.57a5.38,5.38,0,0,1,.53-.24c-.55.5-1.12,1-1.73,1.5a16.5,16.5,0,0,0-2.36,2.36,1.34,1.34,0,0,0-.42-.73A7.43,7.43,0,0,0,168.54,492.67Zm49.23-238.46-1,.69-.23.16c-.19-.2-.39-.39-.58-.58A14.64,14.64,0,0,1,217.77,254.21Zm.6,2.56-.3.44-.55.81a1,1,0,0,0-.14.32.48.48,0,0,0,0,.26v0a.06.06,0,0,0,0,0l-.11.05c-.29.13-.75.37-1.29.63a14,14,0,0,1-1.53.65,1.47,1.47,0,0,1-.51.11,2.17,2.17,0,0,1-.68-.5.84.84,0,0,1-.24-.59l.08-.26a2.7,2.7,0,0,1,.92-.86l2-1.4,1-.73,2.09-1.46a.37.37,0,0,1,.09.08.61.61,0,0,1,.08.39,2.07,2.07,0,0,1-.16.59,6,6,0,0,1-.36.66Zm-32.24,231c-.17-.32-.35-.64-.54-1-.27-.48-.57-1-.87-1.43a11.07,11.07,0,0,0-1-1.3,1.33,1.33,0,0,0-1.45-.27,3.19,3.19,0,0,0-.44.19,5,5,0,0,0-.64.4,7.4,7.4,0,0,0-.59.49c-.27.23-.51.47-.73.71l-.62.69c-.4.47-.75.94-1.11,1.41s-.86,1.13-1.3,1.65a3.09,3.09,0,0,0-1,.15,9.78,9.78,0,0,0-2.07,1.1,8.76,8.76,0,0,1-1.8,1,2.51,2.51,0,0,1-.46.11,5.13,5.13,0,0,1-1.5-.1,4.61,4.61,0,0,0-1.82,0l-.37.1c-.51.17-1,.39-1.43.57l-.56,0h-.61a5,5,0,0,0-1.34.23l-.1,0c-.17.06-.36.16-.55.25a2.67,2.67,0,0,1-1.62-1.11,7.6,7.6,0,0,1-1.1-2.56,14.47,14.47,0,0,1-.33-4.63c0-.7.13-1.4.25-2.12a68.56,68.56,0,0,1,3.84-14.08q5.24-13.64,9.88-27.3a109,109,0,0,0,5.31-25.42c.64-7.21,1.94-14.48,2.45-21.63.15-2,.24-4.08.21-6.1-.06-6,.21-12.05.64-18.2.53-7.45,1.33-15,2.12-22.53.82-7.85,1.95-15.84,2.51-23.68.06-.8.11-1.59.15-2.38.48-8.43.34-16.61.69-24.95.08-2,.18-3.94.32-5.93a63.28,63.28,0,0,1,4.38-20.33q1.09-2.63,2.34-5.25a12.46,12.46,0,0,1,1.15-2.1,7.27,7.27,0,0,1,1.69-1.55.9.9,0,0,0,.33-.44,14.22,14.22,0,0,1,4.8-6.44.46.46,0,0,0,.35,0,8.69,8.69,0,0,1,1-.39c.29-.1.58-.17.87-.24.85-.19,1.72-.27,2.67-.4.43-.06.87-.13,1.32-.22s.71-.17,1.07-.28l.44.17.37.15.27.12.1,0c.24.12.49.25.72.39l.13.08.11.07c.28.17.55.34.81.53l.05,0,.42.32.45.35h0l.52.43a8.4,8.4,0,0,1,.65.64L213.79,257l-.38.27a4.57,4.57,0,0,0-.8.75,3.39,3.39,0,0,0-.34.53,2.15,2.15,0,0,0-.15.41,1.66,1.66,0,0,0-.07.39.92.92,0,0,0,0,.18,1.49,1.49,0,0,0,.23.76,1.51,1.51,0,0,0,.16.23,2.34,2.34,0,0,0,.42.37,3.44,3.44,0,0,0,.45.27,1.27,1.27,0,0,0,.84,0l.3-.09c.27-.09.55-.2.84-.33l.85-.39.75-.37.49-.24.41-.2c.09.23.18.45.26.69s.06.23.1.34c.13.45.24.92.33,1.39a1.79,1.79,0,0,0,0,.25c0,.08,0,.17,0,.25.07.46.11.93.15,1.41h0l0,.51a18.82,18.82,0,0,1,0,2l0,.31a3,3,0,0,1,0,.32c0,.46-.1,1-.18,1.64s-.18,1.32-.34,2a8.26,8.26,0,0,1-1.36,3.3c-.62.77-1.63,1.52-2.5,2.51a25.37,25.37,0,0,0-2.87,4,53.15,53.15,0,0,0-3.57,7.63,88.52,88.52,0,0,0-3.91,15.17A407,407,0,0,0,198,348.61l0,.31c-1.18,16.51-3.66,33.64-5.4,50.46-1.1,10.74-2.66,21.77-3.42,32.51-.33,4.6-.52,9.15-.46,13.59a40.55,40.55,0,0,0,3.72,17.47c1.08,2.17,1.87,4.49,3.78,6.08.68.54,1.36.83,1.69,1.44a4.86,4.86,0,0,1,.6,2.42l-.91,4.06a26.48,26.48,0,0,1-1.26,2.84,6.45,6.45,0,0,1-1.68,2.2,9.31,9.31,0,0,1-2.42,1.16l-.21.07c-.17.06-1.22.39-1.87.53a2.34,2.34,0,0,1-.41.07h0a0,0,0,0,0,0,0,.43.43,0,0,0-.19,0,.68.68,0,0,0-.21.09,1,1,0,0,0-.19.16,1.2,1.2,0,0,0-.14.2v0a.66.66,0,0,0-.07.19.61.61,0,0,0,0,.21,3.94,3.94,0,0,1,.08,1.22,6.71,6.71,0,0,1-.94,2.91,4.66,4.66,0,0,1-1.12,1.28,6.48,6.48,0,0,0-.38-1.48A7,7,0,0,0,186.13,487.8Z"/><polygon class="cls-4" points="163.5 548.77 163.21 548.75 163.21 548.75 163.5 548.77 163.5 548.77"/><polyline class="cls-3" points="173.76 558.58 166.03 558.58 166.04 557.69 166.04 557.68 173.75 557.68 173.97 557.79"/><polygon class="cls-3" points="162.97 558.58 163.07 557.56 158.21 557.45 158.07 558.58 162.97 558.58"/><polygon class="cls-4" points="163.5 491.93 163.21 491.9 163.21 491.9 163.5 491.93 163.5 491.93"/><polygon class="cls-4" points="163.5 491.93 163.21 491.9 163.21 491.9 163.5 491.93 163.5 491.93"/><line class="cls-5" x1="446.65" y1="482.64" x2="469.51" y2="622.46"/><rect class="cls-6" x="440.15" y="481.64" width="13" height="2" transform="translate(-72.04 78.41) rotate(-9.29)"/><rect class="cls-6" x="463.01" y="621.46" width="13" height="2" transform="translate(-94.28 83.91) rotate(-9.29)"/><line class="cls-5" x1="200.74" y1="486.33" x2="183.72" y2="566.08"/><rect class="cls-6" x="199.74" y="479.83" width="2" height="13" transform="translate(-316.78 581.11) rotate(-77.95)"/><rect class="cls-6" x="182.72" y="559.58" width="2" height="13" transform="translate(-408.25 627.6) rotate(-77.95)"/><line class="cls-7" x1="452.54" y1="493.84" x2="578.47" y2="470.13"/><line class="cls-7" x1="467.36" y1="558.23" x2="579.47" y2="537.6"/><line class="cls-7" x1="473.89" y1="619.85" x2="579.47" y2="602.09"/><line class="cls-7" x1="62.98" y1="509.22" x2="183.95" y2="525.02"/><circle class="cls-8" cx="38.97" cy="506.62" r="22.5"/><circle class="cls-8" cx="600.97" cy="466.63" r="22.5"/><circle class="cls-8" cx="601.47" cy="535.61" r="22.5"/><circle class="cls-8" cx="601.97" cy="600.93" r="22.5"/><polygon class="cls-6" points="222.76 510.36 195.47 551.96 250.05 551.96 222.76 510.36"/><polygon class="cls-6" points="428 541.03 400.71 582.63 455.29 582.63 428 541.03"/><text class="cls-9" transform="translate(416.21 578.12)">L1</text><text class="cls-9" transform="translate(22.08 515.12)">C4</text><text class="cls-9" transform="translate(587.08 475.13)">C1</text><text class="cls-9" transform="translate(585.25 544.11)">C2</text><text class="cls-9" transform="translate(586.53 609.43)">C3</text><text class="cls-9" transform="translate(210.82 547.21)">L2</text></svg>