<?xml version="1.0" encoding="utf-8"?>
<!-- Generator: Adobe Illustrator 20.0.0, SVG Export Plug-In . SVG Version: 6.00 Build 0)  -->
<svg version="1.1" id="Layer_1" xmlns="http://www.w3.org/2000/svg" xmlns:xlink="http://www.w3.org/1999/xlink" x="0px" y="0px"
	 viewBox="0 0 648 864" style="enable-background:new 0 0 648 864;" xml:space="preserve">
<style type="text/css">
	.st0{fill:none;stroke:#231F20;stroke-width:0.25;stroke-miterlimit:10;}
	.st1{fill:#D1D3D4;}
	.st2{fill:#FFFFFF;}
	.st3{fill:none;stroke:#0A3B59;stroke-width:2;stroke-miterlimit:10;stroke-dasharray:6,6;}
	.st4{fill:#0A3B59;}
	.st5{fill:none;stroke:#2A8ECD;stroke-width:2;stroke-miterlimit:10;stroke-dasharray:6;}
	.st6{fill:#1578B5;}
	.st7{font-family:'AvenirNext-Regular';}
	.st8{font-size:24px;}
</style>
<title>Outline 7</title>
<polygon class="st0" points="486.6,502.3 486.9,502.2 486.9,502.2 486.6,502.3 "/>
<path class="st1" d="M523.3,570.6c2.9-29.4,9.8-70.1,7.3-96.2c-2.6-26.8-19.1-41-15.8-81.5c3.3-40.5-7.8-79.5-7.8-79.5
	s8-39.5-3.5-74.4c-3.1-8.9-8.1-17-14.6-23.7l0.1-0.3c-15.9-16.4-35.7-25-35.7-25l-13.1-6.6c0,0-62.4-25.4-67.8-30.8
	s-7.5-47.9-7.5-63.2h-80.4c0,15.3-2,57.8-7.5,63.2s-67.7,30.8-67.7,30.8l-13.1,6.6c0,0-19.9,8.6-35.7,25l0.1,0.3
	c-6.6,6.7-11.5,14.8-14.6,23.7c-11.4,34.9-3.5,74.4-3.5,74.4s-11.1,39-7.8,79.5s-13.2,54.7-15.8,81.5c-4.6,47.8-0.9,114.2,2.2,152.1
	c1.4,16.9-0.1,48.9,1.3,66.5c1,12.2,4.4,33,11.3,42.1c6.8,9.1,21.8,23.4,26,21.5c3.4,2.9,23,0.9,19.6-6.6s-14.5-9.5-19.3-17.3
	s-5.1-30.9-1.2-31.2s12,6.6,12.7,14.9s3.4,20.5,13.6,20.9c7.1,0.2,2.2-9.2,1.5-18.5c-0.7-9.1,0.2-27.6-12.7-46.6s-14.7-37.1-13-57.2
	s26.2-79.7,29-113.7s-6.3-50-1.6-65.5s16.2-65.1,14.4-87.3l-0.2-1l5.4-67c-0.1,0,14.1,81,14.1,81c3.6,13.7,4.8,69.4,4.8,99
	c0,24,3.2,45.7,1,60.2l96.7,0.2h0.1l96.7-0.2c-2.2-14.6,1-36.2,1-60.2c0-29.6,1.1-85.3,4.8-99c0,0,14.2-81,14.1-81l5.4,67l-0.2,1
	c-1.8,22.1,9.8,71.7,14.4,87.3s-4.4,31.5-1.6,65.5c1.5,18.5,17.5,52,24.7,75.2C484.3,576.3,520.9,595,523.3,570.6z"/>
<path class="st2" d="M135.8,488.4c-0.3,0.5-0.5,1.1-0.6,1.8v0.4c0,1.1,0.2,2.3,0.7,3.3c0.2,0.4,0.4,0.7,0.7,1l0.5,0.5
	c0.1,0.2,0.3,0.3,0.4,0.5c0.1,0.1,0.2,0.3,0.4,0.4c0.1,0.1,0.2,0.3,0.2,0.5c0.2,0.4,0.3,0.9,0.5,1.4c0.1,0.5,0.3,1,0.4,1.4
	c0.2,0.8,0.3,1.6,0.4,2.4c0.2,1.6,0.3,3.2,0.2,4.8c0,0.8,0,1.6-0.1,2.4c0,0.5-0.1,1-0.1,1.5s-0.1,1-0.1,1.5c-0.1,0.7-0.1,1.3-0.1,2
	c-0.1,1.3-0.2,2.7-0.3,4c-0.1,2.3-0.3,4.6-0.4,6.9c-0.1,1.1-0.1,2.3-0.2,3.4L138,530c-0.3,3.8-0.8,7.6-1.2,11.4l-0.2,1.6
	c-0.2,2.2-0.4,4.3-0.6,6.5s-0.4,4.3-0.6,6.5c-0.1,0.6-0.1,1.2-0.2,1.7c-0.2,1.7-0.4,3.5-0.7,5.3c-0.1,1.2-0.3,2.4-0.4,3.5
	s-0.2,2.4-0.3,3.6c0,0.5,0,1.1-0.1,1.6s-0.1,1.1-0.1,1.6c0,3,0,6-0.1,9c-0.1,3-0.1,6-0.2,9c-0.1,1.5-0.1,3-0.1,4.5c-0.1,3,0,6,0,9
	c0,1.5,0.1,3,0.1,4.5c0.1,4.4,0.1,8.8,0.4,13.3c0.1,1.5,0.2,3,0.4,4.4c0.1,1.5,0.2,3,0.1,4.5c0,0.8,0,1.5-0.1,2.3
	c0,0.8-0.1,1.5-0.1,2.3v0.5c-0.1,1-0.2,2-0.3,2.9c-0.1,1-0.3,1.9-0.4,2.9c-0.1,0.3-0.1,0.7-0.2,1.1c-0.2,0.8-0.4,1.6-0.6,2.5
	c-0.1,0.4-0.2,0.9-0.2,1.3c0,0.2,0,0.4,0,0.7s0,0.4,0.1,0.7c0,0.1,0.1,0.3,0.1,0.4c0.2,0.7,0.5,1.4,0.9,2.1l0.2,0.3
	c0.1,0.2,0.2,0.3,0.2,0.5c0.1,0.2,0.1,0.4,0.2,0.6s0.1,0.4,0.2,0.6c0.1,0.2,0.2,0.4,0.3,0.6c0.1,0.2,0.3,0.5,0.5,0.7
	c0.6,0.6,1.3,1.1,2.1,1.5c0.4,0.2,0.8,0.4,1.2,0.5s0.8,0.3,1.2,0.4h0.1c0.2,0.3,0.2,0.7-0.1,1c-0.2,0.2-0.4,0.5-0.6,0.7
	c-1.5,1.4-2.9,3.1-4,4.8c-0.1-0.2-0.3-0.3-0.5-0.4c-0.3-0.1-0.6,0.1-0.7,0.5c-0.4,1.2-0.6,2.5-0.7,3.8c0,0.6,0,1.2,0,1.9
	c0,0.2,0.1,0.4,0.3,0.6c0.1,0.1,0.3,0.1,0.5,0.2c-0.2,0.7-0.3,1.3-0.3,2v0.1c-0.2,2.5-0.3,5-0.5,7.5c-0.1,2.2,0,4.2-0.1,6.3
	c0,0.5-0.1,1.1-0.2,1.6c-0.5,3.2-0.6,6.4-0.9,9.5l-0.2,2.5c0,0.5-0.1,1-0.1,1.5c-0.1,1.2-0.4,2.5-0.5,3.8c0,0.4,0,0.7,0,1.1
	c0.1,3.1,1.6,5.3,2.3,7.8c0.2,0.9,0.6,1.8,1.1,2.7c0.2,0.3,0.4,0.7,0.6,1c0.2,0.3,0.4,0.6,0.7,0.9c-0.2,0.1-0.4,0.1-0.6,0.1h-0.2
	h-0.2c-0.2,0-0.3,0-0.5,0.1c-1.4,0.8-2.4,2.1-3,3.6c-0.1,0.3-0.1,0.6-0.1,0.9c0,1.4,0.4,2.8,1,4.1c2,4.6,5.3,8.4,8.5,12
	c2.6,3.2,5.6,6.1,8.8,8.7c0.5,0.4,1,0.7,1.6,0.9c0.2,0,0.4,0.1,0.6,0.1c0.3,0,0.6,0,0.9-0.1c0,0,0,0.1,0,0.1v0.4
	c0.1,0.5,0.3,0.9,0.6,1.2c0.3,0.3,0.6,0.5,0.9,0.7c0.5,0.3,1.1,0.4,1.7,0.4h0.7c2.6,0.3,5.2,0.6,7.8,1c1.2,0.2,2.6,0.6,4.1,0.8
	c0.5,0,1,0,1.4-0.1c0.4-0.1,0.7-0.1,1.1-0.3c0.4-0.2,0.7-0.4,0.9-0.8h0.6c0.4,0,0.7,0,1.1,0h0.3c0.2,0,0.5,0,0.7,0
	c0.2,0,0.3-0.1,0.4-0.2c0.5-0.5,0.8-1.1,0.8-1.8v-0.1c0-0.4-0.1-0.7-0.2-1.1c-0.2-0.3-0.5-0.6-0.9-0.7c-0.3-0.1-0.6-0.1-0.9-0.1
	h-0.5h-0.3c-0.7-0.2-1.5-0.4-2.1-0.8c-0.3-0.2-0.6-0.3-0.9-0.5c-0.1-0.5-0.4-1-0.8-1.2l-0.3-0.2c-0.2-0.1-0.4-0.2-0.6-0.2
	c-0.1,0-0.3,0-0.4,0.1c-1.1-0.2-2.2-0.7-2.9-1.6c-1.7-1.7-2.9-4.3-5.1-6.1c-0.5-0.4-1.1-0.8-1.7-1.1c-0.4-0.7-0.9-1.2-1.3-1.8
	c-0.9-1.4-1.1-2.9-1.6-4.7c-0.7-2.3-1-4.7-0.8-7.1c0.2-2.3,0.6-4.5,1.4-6.7c0.1-0.3,0.2-0.7,0.2-1c0.1-1.3-0.3-2.5-1-3.6
	c-0.3-0.5-0.7-0.9-1.1-1.2c0.2-0.7,0.4-1.4,0.4-2.2c0.2-1.5-0.3-3.1-1.3-4.2c-1.2-1.2-2.2-2.6-2.9-4.1c-0.7-1.6-1-3.2-1-5
	c-0.1-1.4-0.1-2.8,0-4.2c0.2-2.4,0.5-4.7,1.1-7c0.6-2.1,1.6-4.1,2.1-6.5c0.3-1.5,0.7-3.1,1.1-4.5c0.3,0.1,0.6,0.2,0.9,0.2
	c0.5,0,1,0,1.5-0.2c0,0.2-0.1,0.4-0.1,0.6l0,0c0,0.1,0,0.3,0.1,0.4l0.1,0.1l0.2,0.2l0.4,0.4c0.3,0.2,0.7,0.5,1,0.8
	c0.1,0.1,0.3,0.2,0.4,0.3l0,0c0.6,0.6,1.2,1.3,1.7,2c1,1.4,1.8,3,2.3,4.7c0.9,2.7,1.6,5.5,2.1,8.3c0.2,1.3,0.2,2.6,0.4,4
	c0.1,1.4,0.5,2.8,1.1,4.1c0.7,1.3,1.5,2.5,2.3,3.6c0.1,0.1,0.2,0.2,0.4,0.2c-0.1,0.2-0.1,0.4-0.1,0.6c0,0.3,0,0.5,0.1,0.8
	c0.2,0.6,0.5,1.2,1,1.7c0.4,0.4,0.7,0.8,0.9,1.2c0.5,1,1.2,1.9,1.8,2.8c0.3,0.6,0.6,1.3,0.7,2c0.7,2.1,1.2,4.3,1.5,6.5
	c0,0.6,0.1,1.1,0.2,1.6c0.3,1.1,1.2,1.8,2.3,1.9c0.1,0,0.2,0,0.3,0c0.8,0.7,1.4,1.6,1.9,2.6c0.2,0.6,0.4,1.2,0.4,1.9
	c0.1,0.8,0.3,1.6,0.6,2.3c0.2,0.4,0.5,0.8,0.8,1.1c0.3,0.3,0.8,0.5,1.3,0.6c0.4,0,0.9-0.1,1.2-0.3c0.7-0.4,1.2-1.2,1.2-2
	c0-0.3,0-0.6-0.1-0.9c-0.4-1.1-0.6-2.3-0.7-3.5c0-0.2,0.1-0.4,0.1-0.6c0.1-0.5,0.3-0.9,0.6-1.3c0.3-0.5,0.5-1,0.7-1.6l0.1-0.5
	c0-0.4-0.1-0.9-0.2-1.3v-0.1c0-0.9-0.4-1.8-1-2.6c-0.5-0.8-1.2-1.4-1.6-1.8c-2.4-2.8-3.2-6.5-3.2-10.3v-0.4c0-0.3,0.1-0.6,0.1-0.9
	c0.1-0.8-0.1-1.6-0.5-2.3c-0.1-0.1-0.2-0.3-0.3-0.4c0.3-0.2,0.5-0.5,0.7-0.7c0.4-0.4,0.6-1,0.6-1.5c0-0.3,0-0.6-0.1-0.9
	c-0.2-0.6-0.5-1.2-0.8-1.8l-2.6-4.7c-0.5-1.2-1-2.5-1.3-3.8c-1.2-3.3-2.5-6.6-3.9-9.9c-0.8-2.2-1.8-4.4-2.9-6.4
	c-0.6-0.9-1.3-1.7-2.1-2.5c-0.1-0.1-0.3-0.3-0.5-0.4c0-0.1,0-0.1,0-0.2l0,0c0.1-0.9,0.1-1.9-0.1-2.8c-0.2-1.1-0.9-2-1.9-2.5
	c-0.4-0.2-0.8-0.3-1.3-0.3c-0.5,0-1,0-1.4,0c-0.1-0.5-0.3-1-0.6-1.4c-0.4-0.4-0.7-0.8-1.1-1.2c-1.8-1.8-3.4-4-4.6-6.3
	c-0.6-1.1-1.6-2-2.6-2.6c-0.9-0.6-1.8-1.1-2.5-1.7c1.5-7.2,2.6-14.4,3.6-21.6c0.3-2.2,0.6-4.5,0.8-6.7s0.5-4.5,0.6-6.7
	c0.2-3,0.5-6,0.8-9c0.1-1.5,0.3-3,0.4-4.5s0.2-3,0.3-4.5c0.2-2.9,0.3-5.8,0.4-8.8c0-2,0-4,0.1-6s0.1-4,0.1-6c0.1-4,0.2-8,0.5-12
	c0-0.3,0.1-0.6,0.1-0.9l0.1-1.8c0.2-4.2,0.6-8.4,1.2-12.5c0.1-0.6,0.2-1.2,0.3-1.7c0.3-1.4,0.6-2.8,0.9-4.2
	c0.9-4.3,1.6-8.5,2.5-12.8c0.7-2.9,1.4-5.8,2.1-8.7s1.5-5.8,2.2-8.7c0.7-2.5,1.3-5,2-7.5c0.2-0.5,0.3-1.1,0.6-1.6
	c0.1-0.3,0.3-0.7,0.4-1c0.5-1,0.9-2,1.3-3.1c0.1-0.3,0.2-0.6,0.2-0.9c0.1-0.3,0.1-0.7,0.1-1c0-0.1,0-0.3,0-0.4
	c0.9-0.3,1.7-0.8,2.3-1.6c0.1-0.1,0.2-0.3,0.3-0.4c0.5-0.7,0.8-1.5,1-2.4c0.1-0.3,0.1-0.7,0.1-1c0-0.2,0-0.4,0-0.6s0-0.2,0-0.3
	l0.3,0l0.3,0l1.1,0.1l0.6,0h0.3c0.9,0.1,1.7,0,2.6-0.1c0.3-0.1,0.6-0.1,0.9-0.2c0.3-0.1,0.6-0.2,0.9-0.4c0.5-0.3,1-0.8,1.4-1.3
	c0.2-0.2,0.4-0.5,0.6-0.8c0.6-1,1.2-2,1.6-3.1c0.2-0.4,0.3-0.7,0.4-1.1c0.4-1.1,0.7-2.2,0.7-3.4c0-0.2,0-0.4,0-0.7s0-0.3,0-0.5
	c-0.1-1-0.3-2-0.7-2.9l-0.2-0.5c-0.1-0.3-0.3-0.6-0.5-0.9c-0.5-0.6-1-1.2-1.5-1.7c-0.1-0.1-0.2-0.2-0.3-0.3c-0.4-0.5-0.8-1-1.1-1.5
	c-0.8-1.2-1.5-2.5-2-3.9c-0.3-0.8-0.6-1.6-1-2.4c-0.2-0.4-0.3-0.8-0.5-1.2c-0.8-1.8-1.4-3.7-2-5.5s-1-3.8-1.4-5.7
	c-0.2-1-0.4-1.9-0.5-2.9c-0.4-2.9-0.7-5.9-0.8-8.8c-0.1-5.5,0-11,0.4-16.5c0.1-1.6,0.2-3.2,0.4-4.8c0.5-6.4,1.2-12.9,2-19.3
	c0.4-3.2,0.7-6.4,1.1-9.6c0.2-1.6,0.3-3.2,0.5-4.8c1.2-12.5,2.8-24.9,4.1-37.4c0.8-7.5,1.5-15,2-22.4v-0.4c0.1-2.2,0.3-4.5,0.5-6.7
	c0.3-3.9,0.7-7.8,1.1-11.7c1.3-11.7,3-23.4,5.2-34.8c0.9-5.7,2.5-11.2,4.6-16.6c0.3-0.7,0.6-1.3,0.9-1.9s0.7-1.3,1-1.9
	s0.7-1.2,1.1-1.8s0.8-1.2,1.2-1.8c0.2-0.3,0.5-0.6,0.8-0.9c0.5-0.6,1-1.1,1.6-1.6c0.3-0.2,0.6-0.5,0.9-0.8c0.8-0.6,2.1-1.1,3.1-1.9
	c0.3-0.2,0.5-0.5,0.8-0.8c0.7-1,1.1-2.1,1.3-3.3c0.1-0.4,0.2-0.8,0.2-1.2c1,0.9,1.9,1.9,2.9,2.9c0.2,0.3,0.5,0.5,0.7,0.8
	c0.1,0.1,0.2,0.2,0.2,0.3c0.5,0.5,0.9,1.1,1.2,1.7c0.1,0.1,0.1,0.3,0.2,0.5c0.2,0.6,0.3,1.3,0.3,1.9c0,2.1,0.4,4.1,1.1,6
	c0.9,1.8,2.5,2.8,3.9,3.7c1.7,1.2,3.3,2.5,4.9,3.8c0,0.7,0,1.5,0.2,2.2c-0.3,0.2-0.7,0.4-1,0.7c0.8-0.3,1.6-0.6,2.3-0.9
	c0-0.2-0.1-0.5-0.1-0.7c-0.1-0.6-0.1-1.3-0.1-1.9c0.1-1,0.3-2.1,0.7-3.1c1-2.6,2.7-4.9,4.8-6.7l0.6-1.6c-0.6-2.3,0.9-4.3,2.6-6.1
	c0.5-1.1,1-2.3,1.5-3.4l-0.3,0.3c-0.3,0.3-0.6,0.6-0.9,1c-2.2,2.3-5,5.1-4.1,8.6c-2.5,1.9-4.3,4.5-5.4,7.5c-0.3,0.8-0.5,1.7-0.6,2.5
	c-1.4-1.2-2.8-2.3-4.2-3.3s-2.8-1.9-3.4-3.2c-0.7-1.8-1-3.6-1-5.5c0-1-0.2-1.9-0.6-2.8c-0.4-0.9-1-1.7-1.6-2.4
	c-1.4-1.5-2.8-3-4.3-4.4c0.1-0.6,0.1-1.2,0.2-1.6c0-0.3,0-0.5,0.1-0.8c0.1-0.8,0.1-1.7,0-2.5c0-0.2,0-0.3,0-0.5
	c-0.1-0.7-0.1-1.4-0.2-2.1v-0.2c0,0,0-0.1,0-0.1c-0.1-0.8-0.3-1.6-0.5-2.4l0,0c-0.1-0.4-0.3-0.8-0.4-1.2s-0.2-0.9-0.4-1.3l0,0
	l0.8-0.8c0.5-0.5,0.9-1,1.3-1.6c0.2-0.4,0.3-0.8,0.3-1.2c0-0.4,0-0.8-0.2-1.1c0,0,0-0.1,0-0.1c-0.2-0.4-0.6-0.8-1-1
	c-0.3-0.2-0.7-0.3-1-0.4c-1.5-0.5-3-0.8-4.6-1l0,0c-1.1-1.3-2.3-2.5-3.6-3.7c-0.1-0.1-0.1-0.1-0.2-0.2c0.2,0,0.4,0,0.6,0
	c0.1,0,0.2,0,0.3,0.1c0.1,0,0.1,0,0.1,0.1l0,0c0.1,0.1,0.2,0.2,0.2,0.3l0.1,0.2l0.1,0.1l0.3,0.3l0,0l0.1,0.1c0.1,0,0.1,0.1,0.2,0.1
	c0.1,0.1,0.2,0.1,0.3,0.1h0.1c0.2,0.1,0.4,0.1,0.6,0.1l0,0c0.3,0,0.7,0,1,0c2.4-0.2,4.7-0.5,7.1-0.7l0.9-0.1l2.5-0.2l1-0.1
	c1.1-0.1,2.3-0.1,3.4-0.1c1.3,0,2.7,0,4.1,0c0.5,0,1,0,1.4,0.1c0.8,0,1.5,0.1,2.3,0.2c2.1,0.2,4.2,0.8,6.1,1.8
	c0.1,0.1,0.2,0.1,0.3,0.1c0.1,0,0.2,0,0.3-0.1l0,0l1.8-0.9l1.2-0.6l0.7-0.4l1.4-0.8l2.2-1.2c0.7,0,1.4,0.1,2,0.1h0.6
	c0.6,0,1.2-0.1,1.9-0.1h0.2c0.5-0.1,1-0.1,1.6-0.2l1-0.1l0.7-1.4c-0.6,0.1-1.2,0.2-1.9,0.3h-0.3c-1.9,0.3-3.7,0.4-5.6,0.2h-0.2
	l-0.4,0.1l-1.8,0.9l-4.4,2.3l-1.1,0.6c-0.2-0.1-0.4-0.1-0.5-0.2l0,0c-0.8-0.4-1.6-0.6-2.4-0.9l-0.8-0.2l-0.5-0.1l-0.4-0.1
	c-0.6-0.1-1.2-0.2-1.8-0.3s-1.5-0.2-2.2-0.2h-1c-1.6-0.1-3.2-0.1-4.7-0.1c-3.8,0-7.6,0.4-11.4,0.7l-3.8,0.4c-0.2,0-0.5,0-0.8,0
	c-0.2,0-0.4-0.1-0.6-0.2c-0.2-0.2-0.4-0.4-0.5-0.6c-0.1-0.1-0.1-0.1-0.2-0.2l-0.1-0.1l-0.2-0.2c-0.1-0.1-0.2-0.1-0.3-0.1h-0.1
	c-0.2-0.1-0.4-0.1-0.6-0.1c-0.4,0-0.8,0-1.2,0.1c-0.3,0-0.6,0.1-0.9,0.1h-0.2h-0.2c-1-0.1-2-0.3-2.9-0.5c-1.5-0.5-3.1-0.8-4.6-1
	h-0.2c0.2-0.3,0.5-0.5,0.8-0.6c0,0,0.1-0.1,0.1-0.1c0.7-0.4,1.5-0.6,2.3-0.7c1.8-0.3,3.6-0.3,5.5-0.2c1,0.1,1.9,0.2,2.9,0.3
	c0.3,0,0.6-0.1,0.7-0.3c0.4-0.7,1-1.2,1.8-1.5c0.9-0.3,1.7-0.6,2.6-0.7c4.6-0.8,9.2-0.6,13.9-1.3s9.7-1.4,14.5-1.6
	c4.8-0.2,9.6-0.7,14.3-1.5c1-0.2,2.1-0.4,3.1-0.6l0.7-1.5c-1.3,0.3-2.6,0.5-4,0.7c-1.8,0.3-3.5,0.5-5.3,0.7s-3.6,0.4-5.3,0.5
	c-1.2,0.1-2.4,0.2-3.6,0.2c-4.9,0.2-9.8,1-14.6,1.6c-3.4,0.5-6.9,0.5-10.4,0.8c-1.2,0.1-2.4,0.2-3.5,0.4c-0.2,0-0.5,0.1-0.8,0.1
	c-0.8,0.1-1.5,0.4-2.2,0.6c-0.6,0.3-1.2,0.7-1.7,1.1c-0.2,0.2-0.3,0.4-0.4,0.5l-1.3-0.2c-0.4-0.1-0.9-0.1-1.3-0.1c-1,0-1.9,0-2.9,0
	c-1,0-1.9,0.1-2.9,0.3c-0.7,0.1-1.4,0.3-2.1,0.5c-0.2,0.1-0.5,0.2-0.7,0.3c-0.7,0.4-1.3,0.9-1.7,1.6c-0.3,0.1-0.6,0.2-0.9,0.3
	c-1.4,0.5-2.6,1.3-3.7,2.4c-1.1,1-1.9,2.2-2.5,3.6c-0.9,0.3-1.6,0.7-2.3,1.3c-0.7,0.7-1.2,1.5-1.6,2.3c-1,1.8-2,3.6-2.9,5.4
	c-0.4,0.9-0.9,1.9-1.2,2.8s-0.7,1.9-1,2.9c-1.2,3.8-2.1,7.8-2.5,11.8c-0.2,2-0.4,4-0.6,6c-0.2,2.4-0.2,4.8-0.3,7.2
	c-0.2,7.6-0.2,15.3-0.3,22.9c0,2.5-0.1,5.1-0.2,7.6c0,1-0.1,1.9-0.2,2.9c-0.1,2.3-0.4,4.7-0.6,7c-0.7,7-1.6,14-2.3,21
	c-0.4,4.5-0.9,8.9-1.3,13.4s-0.8,9-1.1,13.5c-0.2,3.7-0.4,7.4-0.6,11.1c0,1.9-0.1,3.7-0.1,5.6c0,1.9,0,3.7,0,5.6
	c0,2.5,0,4.9-0.2,7.3c-0.1,1.1-0.2,2.1-0.2,3.2c-0.1,1.1-0.2,2.1-0.3,3.2c-0.4,3.2-0.8,6.3-1.2,9.5c-0.3,2.1-0.5,4.3-0.8,6.4
	c-0.1,1.1-0.2,2.2-0.3,3.2s-0.2,2.4-0.4,3.6s-0.3,2.4-0.5,3.6c-0.3,2.4-0.8,4.8-1.3,7.2c-0.2,1.2-0.5,2.4-0.8,3.6
	c-0.8,3.5-1.8,7-3.1,10.4c-0.9,2.4-1.9,4.9-2.8,7.3c-1,2.4-2,4.8-3,7.2c-1,2.4-2,4.8-3,7.2c-1,2.4-2.1,4.8-3.2,7.2
	c-2,4.4-3.4,9.1-4.3,13.8c-0.1,0.7-0.3,1.4-0.4,2c-0.1,0.9-0.2,1.7-0.3,2.6c-0.2,2.1,0,4.2,0.5,6.3c0.2,0.7,0.4,1.3,0.6,2
	c0.2,0.5,0.4,1,0.7,1.5c0.1,0.2,0.2,0.3,0.3,0.5c0.2,0.3,0.4,0.6,0.6,1c0.2,0.3,0.5,0.6,0.8,0.9l-0.5,0.1l-0.9,0.3
	c-0.6,0.2-1.2,0.5-1.7,0.9c-0.2,0.2-0.4,0.3-0.5,0.5L135.8,488.4z M206.4,217.6l-1.2,0.4l-0.3,0.1c-0.2-0.3-0.5-0.7-0.7-1
	C204.9,217.2,205.7,217.4,206.4,217.6z M207.2,221.1l-0.4,0.4l-0.7,0.7c-0.1,0.1-0.1,0.2-0.2,0.3c0,0.1,0,0.2,0.1,0.3l0,0
	c0,0,0,0,0,0.1h-0.1c-0.4,0-0.9,0.1-1.6,0.1c-0.6,0.1-1.3,0.1-1.9,0.1c-0.2,0-0.4,0-0.6-0.1c-0.3-0.3-0.6-0.6-0.9-0.9
	c-0.2-0.2-0.3-0.5-0.3-0.8l0.1-0.3c0.3-0.3,0.7-0.5,1.1-0.6l2.5-0.8l1.3-0.4l2.6-0.8c0,0,0.1,0.1,0.1,0.1c0.1,0.2,0.1,0.3,0.1,0.5
	c0,0.2-0.1,0.5-0.2,0.7c-0.1,0.2-0.3,0.4-0.4,0.6L207.2,221.1z M169.7,491.1c-0.2-0.5-0.4-1-0.7-1.5c-0.3-0.7-0.7-1.5-1.1-2.2
	c-0.4-0.7-0.8-1.4-1.3-2.1c-0.4-0.6-1.1-1-1.8-1c-0.2,0-0.4,0-0.6,0c-0.3,0-0.5,0.1-0.8,0.2c-0.3,0.1-0.5,0.2-0.7,0.3
	c-0.3,0.2-0.6,0.3-0.9,0.5c-0.3,0.2-0.5,0.4-0.8,0.5c-0.5,0.4-0.9,0.8-1.4,1.2s-1.1,1-1.6,1.4c-0.4-0.2-0.8-0.3-1.2-0.3
	c-0.9,0-1.7,0.1-2.6,0.4c-0.7,0.2-1.5,0.3-2.2,0.3c-0.2,0-0.4,0-0.6-0.1c-0.7-0.2-1.3-0.5-1.9-0.9c-0.7-0.4-1.5-0.7-2.3-0.9l-0.5,0
	c-0.6,0-1.2,0-1.8,0l-0.7-0.3c-0.2-0.1-0.5-0.2-0.8-0.3c-0.5-0.2-1.1-0.3-1.7-0.4h-0.1c-0.2,0-0.5,0-0.7,0c-0.8-0.5-1.5-1.3-2-2.2
	c-0.6-1.2-1.1-2.4-1.4-3.7c-0.5-1.9-0.6-3.9-0.5-5.9c0.1-0.8,0.2-1.7,0.3-2.5c0.8-5.4,2.4-10.6,4.6-15.5c4.2-9.5,8.2-19.2,12-28.9
	c3.5-9.3,5.6-19,6.3-28.9c0.7-8.6,2.2-17,2.8-25.5c0.2-2.5,0.2-4.9,0.2-7.4c-0.1-7.4,0.1-14.8,0.6-22.2c0.6-9,1.5-17.9,2.4-26.8
	c0.9-9.3,2.2-18.6,2.9-28.1c0.1-1,0.1-1.9,0.2-2.9c0.5-10.2,0.2-20.4,0.6-30.5c0.1-2.4,0.2-4.8,0.3-7.2c0.5-8,1.7-15.8,5.2-23
	c0.9-1.8,1.8-3.6,2.9-5.4c0.4-0.7,0.8-1.4,1.4-2c0.6-0.5,1.3-0.9,2.1-1.1c0.2-0.1,0.3-0.2,0.4-0.4c1.1-2.6,3.2-4.7,5.9-5.6
	c0.1,0.1,0.3,0.2,0.4,0.1c0.4,0,0.8,0,1.2,0c0.4,0,0.7,0.1,1.1,0.1c1.1,0.2,2.1,0.5,3.3,0.8c0.5,0.1,1.1,0.3,1.6,0.4
	s0.9,0.1,1.3,0.2l0.6,0.4l0.5,0.4l0.3,0.3l0.1,0.1c0.3,0.3,0.6,0.5,0.9,0.8l0.2,0.2l0.1,0.1c0.4,0.4,0.7,0.7,1,1.1l0.1,0.1l0.5,0.6
	l0.6,0.6l0,0c0.2,0.3,0.4,0.5,0.7,0.8s0.5,0.7,0.8,1.1l-2.1,0.6l-0.5,0.1c-0.4,0.1-0.7,0.3-1,0.5c-0.2,0.1-0.3,0.3-0.4,0.5
	c-0.1,0.1-0.1,0.3-0.2,0.4c-0.1,0.1-0.1,0.3-0.1,0.4c0,0.1,0,0.2,0,0.2c0,0.4,0.1,0.7,0.3,1.1c0.1,0.1,0.1,0.3,0.2,0.4
	c0.2,0.2,0.3,0.5,0.5,0.7c0.2,0.2,0.4,0.4,0.6,0.6c0.3,0.2,0.6,0.4,1,0.4h0.4c0.3,0,0.7,0,1,0l1.1-0.1l0.9-0.1l0.6-0.1h0.5
	c0.1,0.3,0.2,0.6,0.3,1c0,0.2,0.1,0.3,0.1,0.5c0.2,0.6,0.3,1.2,0.4,1.9c0,0.1,0,0.2,0.1,0.3c0,0.1,0,0.2,0.1,0.3
	c0.1,0.6,0.1,1.2,0.2,1.8l0,0v0.6c0,0.8,0,1.6,0,2.4v0.4c0,0.1,0,0.3,0,0.4c0,0.6-0.1,1.2-0.2,1.9c-0.1,0.8-0.2,1.5-0.4,2.3
	c-0.2,1.3-0.8,2.5-1.6,3.4c-0.8,0.6-2,1.1-3.1,1.9c-1.3,1-2.5,2.2-3.5,3.5c-1.7,2.4-3.2,5-4.4,7.7c-2.2,5.4-3.7,11.1-4.7,16.8
	c-3.4,17.6-5.7,35.3-6.8,53.2v0.4c-1.3,19.8-4.2,39.8-6.1,59.8c-1.2,12.7-3.1,25.6-3.9,38.5c-0.4,5.5-0.5,11.1-0.4,16.6
	c0.1,8,1.7,16,4.8,23.4c1.4,3.2,2.4,6.5,4.8,9.4c0.8,0.8,1.5,1.6,2.1,2.6c0.5,1,0.8,2.1,0.8,3.3c0,0.2,0,0.4,0,0.6
	c-0.1,1.4-0.5,2.7-1.1,4c-0.4,1-0.9,2-1.5,2.9c-0.5,0.8-1.2,1.5-2.1,1.9c-1,0.3-2,0.3-3,0.2H177c-0.2,0-1.5-0.1-2.3-0.3
	c-0.2,0-0.3-0.1-0.5-0.1l0,0l0,0c-0.1,0-0.2-0.1-0.2-0.1c-0.1,0-0.2,0-0.3,0c-0.1,0-0.2,0.1-0.2,0.1c-0.1,0.1-0.1,0.1-0.2,0.2l0,0
	c0,0.1-0.1,0.1-0.1,0.2c0,0.1,0,0.2,0,0.3c0.1,0.5,0.2,1,0.1,1.5c-0.1,1.1-0.5,2.2-1.1,3.1c-0.4,0.5-0.8,0.8-1.4,1
	c-0.1-0.7-0.3-1.4-0.5-2C170,491.9,169.9,491.5,169.7,491.1L169.7,491.1z M148.5,488.8l0.5,0.2l0.5,0.3c0.5,0.3,1.1,0.5,1.7,0.7
	c0.3,0.1,0.5,0.1,0.8,0.1c0.5,0,0.9,0,1.4-0.1c0.4-0.1,0.9-0.2,1.2-0.3s0.8-0.2,1.2-0.2c0.2,0,0.4,0,0.6,0c-0.7,0.4-1.4,0.7-2.1,1
	c-1,0.4-2,1-2.9,1.8c-0.1-0.4-0.3-0.8-0.5-1.1c-0.9-1-1.9-1.9-3-2.7C148.1,488.6,148.3,488.7,148.5,488.8L148.5,488.8z M147.8,648.1
	c-0.3,0-0.6,0-0.9,0.1c0-0.2,0-0.3,0.1-0.5v-0.2c0-0.4,0-0.8,0-1.2c0-0.4-0.1-0.8-0.1-1.2s0-0.7-0.1-1.1c-0.1-0.7-0.2-1.4-0.4-2.1
	c-0.1-0.4-0.3-0.7-0.4-1.1c-0.2-0.5-0.4-0.9-0.5-1.4c-0.1-0.5-0.2-1-0.3-1.4c-0.2-1-0.2-2-0.4-3.1c-0.3-2.5-0.5-5-0.8-7.5
	c0-0.1,0-0.2,0-0.3c0.5-3.4,0.9-6.8,1.1-10.3c0.2-2.8,0.3-5.6,0.3-8.3c0.1-5.5,0.5-10.5,0.7-16c0.2-8.8-0.5-17.6-0.5-26.4
	c0-2.9,0.1-5.9,0.3-8.8c0.4-5.7,1-11.3,1.8-17c0.3-2.1,0.6-4.1,0.9-6.2c0.3-2.2,0.6-4.5,0.7-6.7c0-0.7,0.1-1.5,0.1-2.2
	c0.2-0.8,0.4-1.6,0.7-2.4c0.4-1.6,0.9-3.2,1.3-4.8c0.1-0.5,0.2-1,0.2-1.6c0-0.1,0-0.2,0-0.3s0-0.5,0-0.7c0-1.7-0.2-3.3-0.6-4.9
	c-0.2-0.9-0.4-1.7-0.6-2.5c0.2-0.8,0.3-1.5,0.3-2.3c0.1-0.7,0.1-1.3,0-2c-0.3-1.8-0.5-3.6-0.5-5.5c0-0.2,0-0.5,0.1-0.7
	c0.1-0.5,0.2-1,0.4-1.5l0,0c0.1-0.1,0.2-0.2,0.3-0.3c0.1-0.1,0.2-0.2,0.3-0.3c0.2-0.3,0.3-0.6,0.4-1c0-0.1,0-0.2,0.1-0.3
	c0.1-0.1,0.2-0.3,0.4-0.5c0.8-0.8,1.8-1.4,2.9-1.8c1.2-0.5,2.3-1.1,3.4-1.7l0,0c0.4-0.3,0.8-0.6,1.1-0.9c0.9-0.8,1.7-1.6,2.5-2.2
	c0.4-0.4,0.9-0.7,1.4-0.9c0.4-0.2,0.9-0.4,1.4-0.4c0.3,0,0.6,0.2,0.8,0.5c1.2,1.8,2.2,3.6,3,5.6c0.4,0.9,0.7,1.8,0.9,2.8
	c0.1,0.4,0.1,0.9,0.1,1.3c0,0,0,0.1,0,0.2c0,0.3-0.1,0.6-0.1,0.9c-0.4,2.1-1.6,4.1-2.3,6.5s-1.4,5-2,7.5c-1.5,5.8-3,11.6-4.4,17.4
	c-1.3,5.7-2.1,11.4-3.4,17c-1.1,4.7-1.2,9.7-1.6,14.4c-0.1,0.9-0.1,1.9-0.2,2.8c-0.5,8-0.6,16.1-0.7,24.1c0,2.9-0.1,5.8-0.3,8.7
	c-0.4,6-1,12-1.5,17.9C151.9,624.9,150.2,636.5,147.8,648.1L147.8,648.1z M144.6,557.3c-0.2,2.9-0.3,5.9-0.3,8.9
	c0,4.4,0.2,8.8,0.3,13.2c0,1.1,0.1,2.2,0.1,3.3c0.1,3.3,0.1,6.6,0.1,9.8l-0.1,2c-0.2,4.7-0.5,9.2-0.6,14c0,1.4-0.1,2.7-0.1,4.1
	s-0.1,2.8-0.2,4.1c-0.1,1.6-0.2,3.2-0.4,4.8c-0.1-0.5-0.1-1.1-0.2-1.6c-0.1-1.1-0.2-2.1-0.3-3.2c-0.1-1.6-0.1-3.2-0.1-4.8
	s0-3.2,0.1-4.9c0-0.5,0-1-0.1-1.4c-0.1-1.4-0.2-2.8-0.3-4.2c-0.2-1.8-0.4-3.7-0.4-5.5c-0.1-5.9,0-11.8,0.3-17.7
	c0.1-2,0.2-3.9,0.3-5.9c0-0.3,0-0.7,0.1-1.1l0.1-2.1c0.3-4.3,0.6-8.6,0.9-12.9c0.1-1.4,0.2-2.9,0.4-4.3c0.2-2.3,0.5-4.6,0.9-6.8
	c0.2-1.1,0.4-2.2,0.6-3.3c0.5-2.4,1-4.8,1.5-7.2c-0.2,1.2-0.3,2.4-0.5,3.6c-0.1,0.7-0.2,1.4-0.3,2.1s-0.2,1.4-0.3,2.1
	C145.4,547.3,144.9,552.3,144.6,557.3L144.6,557.3z M159.3,661.5c-0.6-0.1-1.4-0.5-2.3-0.7h-0.2c-0.8,0-1.5,0.2-2.1,0.8v0l0,0
	c-0.3,0.2-0.5,0.5-0.6,0.9c-0.1,0.3-0.1,0.6-0.2,0.9l-0.2-0.1c-0.2-0.1-0.4-0.2-0.7-0.2c-0.2,0-0.4,0-0.6,0
	c-1.7,0.2-3.4,0.6-5.1,1.1c-0.2-1.1-0.3-2.2-0.5-3.4c-0.1-0.9-0.4-1.8-0.8-2.6c-0.6-0.8-1.4-1.5-2.2-2c-0.4-0.3-0.7-0.7-1-1.1l0,0
	c0.7-0.8,1.3-1.6,2-2.5l0,0l0.3-0.3c0,0,0-0.1,0.1-0.1l0,0c0.5-0.8,1-1.7,1.4-2.6l0,0c0.6,0,1.2,0,1.8-0.1h0.2l0,0
	c0.8,0.6,1.7,1.2,2.4,1.7c0.9,0.5,1.7,1.3,2.2,2.1c1.3,2.4,2.9,4.6,4.8,6.6c0.4,0.3,0.7,0.7,1,1.1
	C159.2,661.1,159.2,661.3,159.3,661.5L159.3,661.5z M146,666l0.7-0.2l0.6-0.2c1.7-0.5,3.4-0.9,5.1-1.1h0.3c0,0.1,0,0.1,0,0.2
	c0,0.2-0.1,0.5-0.1,0.7c0,0,0,0,0,0.1c0,0.1-0.1,0.3-0.1,0.4c0,0.1-0.1,0.1-0.1,0.2c0,0,0,0.1,0,0.1c0,0.1-0.1,0.1-0.1,0.2
	c-0.1,0.2-0.2,0.3-0.2,0.5c0,0.1-0.1,0.2-0.1,0.2c-0.1,0.2-0.3,0.4-0.5,0.6c-0.2,0.2-0.5,0.4-0.8,0.5c-0.4,0.2-0.8,0.4-1.2,0.5
	c-0.1,0-0.2,0.1-0.3,0.1c-0.4,0.1-0.9,0.2-1.3,0.3c-1.4,0.2-2.7,0.5-4,0.7c-0.3,0-0.6,0-0.9,0c-0.2,0-0.4-0.1-0.6-0.2l0,0
	c-0.1-0.1-0.2-0.1-0.3-0.2l0,0c-0.1-0.1-0.2-0.3-0.3-0.5c0-0.1,0-0.1-0.1-0.2c-0.1-0.2-0.1-0.3-0.1-0.5c0,0,0-0.1,0-0.2s0-0.1,0-0.1
	l0.1-0.3c0.6-0.4,1.3-0.7,2-0.9l1.5-0.5l0.2-0.1L146,666z M176,719.3L176,719.3L176,719.3l0.1-0.1l0.3-0.3c0.2-0.2,0.6-0.4,0.8-0.6
	c1-0.7,2.3-1.1,3.5-1.1l0,0c0.7,0.1,1.4,0.4,1.9,0.9c0.2,0.2,0.4,0.4,0.5,0.6c0.1,0.2,0.2,0.4,0.3,0.7c0,0.1,0,0.3,0,0.4v0.2
	c0,0.1-0.1,0.2-0.1,0.2c-0.1,0.3-0.3,0.7-0.5,1c-0.3,0.5-0.5,1.1-0.7,1.7c0,0.3-0.1,0.5-0.1,0.8c0,1.3,0.3,2.6,0.7,3.9
	c0,0.2,0,0.3,0,0.5c0,0.4-0.2,0.8-0.6,1c-0.1,0.1-0.3,0.1-0.5,0.1c-0.2,0-0.4-0.1-0.5-0.2c-0.2-0.2-0.4-0.4-0.5-0.7
	c-0.3-0.6-0.4-1.2-0.5-1.9c0-0.8-0.2-1.6-0.5-2.3c-0.4-0.8-0.9-1.6-1.5-2.2c-0.2-0.2-0.3-0.4-0.5-0.6s-0.4-0.4-0.6-0.6l-0.3-0.3
	c-0.2-0.2-0.5-0.4-0.6-0.7C176,719.6,176,719.5,176,719.3L176,719.3z M169.1,703.6c0-0.2,0.1-0.4,0.2-0.6c0.1-0.2,0.2-0.4,0.3-0.6
	c0,0,0,0,0,0l0.5-0.7c0,0,0-0.1,0.1-0.1c0.1-0.2,0.3-0.4,0.5-0.5c1.3-0.9,2.9-1.5,4.5-1.5h0.1c0.2,0,0.5,0.1,0.7,0.2l0.4,0.2
	l0.2,0.2c0.2,0.2,0.3,0.3,0.4,0.5c0.1,0.1,0.1,0.2,0.2,0.3c0.3,0.5,0.4,1,0.3,1.5c0,0.3-0.1,0.6-0.1,0.9v0.4
	c-0.1,3.9,0.8,8,3.5,11.2c0.3,0.3,0.7,0.8,1.1,1.2c-0.4-0.2-0.8-0.3-1.2-0.3h-0.1c-1.5,0-3.1,0.4-4.3,1.3c-0.2,0.1-0.5,0.3-0.8,0.6
	c-0.2,0.2-0.3,0.3-0.5,0.5c-0.2-2.3-0.8-4.5-1.5-6.7c-0.2-0.8-0.5-1.5-0.9-2.3c-0.6-1-1.2-1.8-1.7-2.8c-0.3-0.5-0.7-1-1.1-1.5
	c-0.3-0.3-0.6-0.7-0.7-1.1L169.1,703.6z M156.8,673.6c0-0.4,0.1-0.8,0.2-1.1c0.1-0.4,0.2-0.7,0.4-1.1c0.3-0.6,0.7-1.2,1.1-1.7
	c0.1-0.1,0.1-0.1,0.1-0.2c1.1-1.2,2.5-2,4.1-2.3l0,0l0.2,0.1c0.1,0,0.1,0.1,0.2,0.1l0.4,0.3l0.1,0.1l0.6,0.5l0.4,0.3
	c0.7,0.7,1.4,1.4,1.9,2.2c1.1,2,2,4.1,2.8,6.2c1.4,3.2,2.7,6.5,3.9,9.8c0.3,1.4,0.8,2.7,1.4,4l2.6,4.7c0.3,0.5,0.5,0.9,0.7,1.5v0.4
	c0,0.3-0.2,0.6-0.4,0.8c-0.2,0.2-0.3,0.4-0.5,0.5l0,0c-0.5-0.4-1.1-0.7-1.8-0.7h-0.3c-1.9,0.1-3.7,0.7-5.2,1.8
	c-0.3,0.2-0.6,0.5-0.8,0.8c-0.2,0.3-0.4,0.5-0.6,0.8l0,0h-0.1c-0.7-1-1.4-2.1-2-3.2c-0.6-1.1-0.9-2.4-1-3.6c-0.1-1.3-0.2-2.6-0.4-4
	c-0.5-2.9-1.2-5.7-2.1-8.5c-0.6-1.8-1.4-3.5-2.5-5.1c-0.6-0.8-1.2-1.5-1.9-2.2l-0.3-0.2l-0.4-0.3c-0.3-0.2-0.7-0.5-0.9-0.7
	L156.8,673.6z M152.5,670.8c-0.1-0.4-0.3-0.8-0.5-1.3c-0.1-0.2-0.1-0.4-0.2-0.5h0.1c0.2-0.1,0.4-0.2,0.5-0.4
	c0.3-0.3,0.5-0.6,0.7-0.9c0.1-0.1,0.1-0.2,0.2-0.3c0.1-0.2,0.2-0.4,0.3-0.7c0-0.1,0.1-0.2,0.1-0.4c0.1-0.2,0.1-0.4,0.2-0.6l0.2-0.2
	c0.3-0.3,0.5-0.6,0.7-0.9c0.1-0.1,0.1-0.2,0.1-0.4c0-0.1,0.1-0.3,0.1-0.4c0.1-0.4,0.1-0.8,0.2-1l0.2-0.3l0.1-0.1
	c0.3-0.3,0.7-0.4,1.1-0.4h0.1c0.6,0.1,1.3,0.4,2.1,0.6c0.1,0,0.3,0.1,0.4,0.1h0.4h0.1c0.3,0,0.6,0,0.8,0c0.5,0,1,0,1.5,0
	c0.3,0,0.6,0.1,0.8,0.2c0.6,0.3,1,0.9,1.2,1.6c0.1,0.6,0.1,1.1,0.1,1.7c-0.1,0-0.2-0.1-0.2-0.2c-0.3-0.2-0.6-0.3-0.9-0.3h-0.3
	c-1.9,0.4-3.6,1.3-4.9,2.8c-0.8,0.9-1.4,1.9-1.7,3c-0.2,0.1-0.3,0.2-0.5,0.2c-0.4,0.2-0.9,0.2-1.4,0.2c-0.4,0-0.7-0.1-1-0.3l0,0
	l-0.2-0.1C152.7,671.5,152.5,671.2,152.5,670.8L152.5,670.8z M152.7,708.5c0,0.5-0.1,1.1-0.3,1.6c-0.2-0.1-0.5-0.2-0.7-0.2h-0.4
	c-1.1,0-2.2,0.2-3.2,0.7c-1,0.6-2,1.2-2.9,2l-0.6,0.5l-0.2-0.1l0,0c-0.4-0.2-0.7-0.5-1-0.8l0,0c-0.3-0.3-0.5-0.7-0.8-1v-0.1
	c-0.2-0.4-0.4-0.8-0.6-1.2c-0.5-1-0.8-2-0.9-3.1c0-0.2,0-0.4,0-0.5c0-0.2,0-0.5,0.1-0.7c0.1-0.2,0.1-0.5,0.2-0.7s0.2-0.8,0.4-1.2
	c0-0.1,0.1-0.2,0.1-0.3v0c0.1-0.4,0.2-0.7,0.3-1.1c0.8-2.8,1.2-5.7,1.4-8.6c0-0.5,0.1-1,0.1-1.6c0.1-1.7,0.1-3.3,0.2-5
	c0-0.7,0.1-1.4,0.2-2.1c0.1-0.5,0.1-1,0.1-1.4c0.1-1.1,0.1-2.2-0.1-3.3v-0.1c0-0.2,0-0.4-0.1-0.6c0,0,0,0,0-0.1c0-0.1,0-0.3-0.1-0.4
	c0-0.1-0.1-0.2-0.1-0.4c0-0.1,0-0.2-0.1-0.3c0,0,0-0.1,0-0.1c-0.1-0.3-0.1-0.5-0.2-0.8c-0.3-0.7-0.7-1.1-0.9-1.5
	c-0.5-1.1-0.7-2.2-0.6-3.4c0-0.4,0.1-0.7,0.2-1.1c0.1-0.2,0.1-0.4,0.2-0.6h0.2h0.3c0.4,0,0.7,0,1.1,0c1.4-0.2,2.8-0.5,4.1-0.7h0.2
	l0.7-0.1l0.3-0.1c0.2-0.1,0.5-0.1,0.7-0.2l0.4-0.1l0.2-0.1c0.1,0.2,0.1,0.3,0.2,0.5c0.2,0.4,0.3,0.8,0.4,1.2
	c0.2,0.5,0.4,0.9,0.8,1.2c-0.6,1.6-1,3.2-1.3,4.9c-0.5,2.1-1.5,4.1-2.1,6.4c-0.6,2.4-1,4.8-1.2,7.3c-0.1,1.4-0.1,2.9,0,4.3
	c0,1.9,0.4,3.7,1.1,5.5c0.8,1.6,1.9,3.1,3.1,4.4C152.5,706.3,152.9,707.4,152.7,708.5L152.7,708.5z M142.6,687
	c-0.1,1.7-0.1,3.3-0.2,5c0,0.5-0.1,1-0.1,1.5c-0.2,1.7-0.4,3.4-0.6,5c-0.1-1.4-0.2-2.9-0.2-4.3c0-1.5,0-3,0.1-4.4
	c0.1-1.3,0.3-2.6,0.6-3.9c0.2-0.8,0.5-1.5,0.7-2.3c0,0.4-0.1,0.8-0.1,1.2C142.7,685.5,142.6,686.3,142.6,687z M156.4,736.9
	c-0.1,0-0.2,0.1-0.3,0.1l-3.8,2.5c-0.2,0.2-0.5,0.3-0.6,0.5c-0.2,0.2-0.3,0.4-0.3,0.6c-0.1-0.2-0.2-0.5-0.3-0.8
	c-0.2-0.8-0.3-1.6-0.4-2.3c0-0.2-0.1-0.4-0.1-0.6c-0.5-2.6-1-5.2-1.7-7.7c-0.8-3.5-1.9-7-3.4-10.2c-0.4-0.8-0.8-1.6-1-2.5
	c0.1-0.1,0.3-0.3,0.4-0.4c0.3-0.3,0.6-0.7,0.7-1.1c0.1-0.2,0.2-0.4,0.2-0.6c0,0,0,0,0,0c0-0.2,0-0.4-0.1-0.5c0,0,0.1-0.1,0.1-0.1
	c0.1,0,0.1-0.1,0.1-0.1c0.8-0.7,1.7-1.3,2.6-1.8c0.8-0.4,1.7-0.6,2.5-0.6h0.3c0.2,0,0.4,0.1,0.6,0.2c0.2,0.1,0.4,0.2,0.6,0.3
	c0.2,0.1,0.4,0.3,0.5,0.5c0.2,0.2,0.3,0.4,0.5,0.6c0.5,0.8,0.8,1.8,0.8,2.8c0,0.2-0.1,0.5-0.1,0.7c-0.8,2.3-1.2,4.6-1.4,7
	c-0.2,2.6,0.1,5.1,0.9,7.6c0.5,1.6,0.7,3.3,1.8,5C155.8,736.2,156.1,736.6,156.4,736.9L156.4,736.9z M168.4,747.4
	c-0.1,0-0.2,0-0.2,0.1c-0.2,0.1-0.5,0.2-0.7,0.3c-0.4,0.1-0.7,0.3-1,0.5l-0.1,0.1c-0.3,0.2-0.7,0.4-0.9,0.6
	c-0.1,0.1-0.2,0.2-0.4,0.3c-0.1,0.2-0.2,0.3-0.2,0.5c-2.1-1.3-4.1-2.6-6-4l0,0c-0.4-0.3-0.8-0.6-1.1-0.9c-1-0.8-2.1-1.4-3.3-1.8
	c-0.2-0.1-0.4-0.2-0.6-0.3c-0.1,0-0.2-0.1-0.2-0.1l-0.1-0.1c-0.1-0.1-0.2-0.2-0.3-0.2c-0.1-0.1-0.2-0.1-0.2-0.2
	c-0.1-0.1-0.2-0.2-0.2-0.3c-0.1-0.2-0.2-0.4-0.2-0.6l0,0l0.1-0.1c0.1-0.1,0.3-0.2,0.4-0.3c1.3-0.8,2.5-1.7,3.8-2.5
	c0.1,0,0.1,0,0.2,0c0.1,0,0.2-0.1,0.2-0.1c0.1,0,0.3,0.1,0.4,0.1c0.2,0.1,0.4,0.2,0.6,0.3c0.2,0.1,0.4,0.3,0.6,0.5c1.9,1.5,3,4,5,6
	c1,1.1,2.4,1.8,3.9,2l0,0l0.3-0.1l0.3,0.2L168.4,747.4z M168.4,750.8c-0.1,0-0.2-0.1-0.3-0.1l-0.8-0.2c-0.2-0.1-0.5-0.2-0.8-0.2l0,0
	c0,0-0.1,0-0.1,0l-0.2-0.1l0.2-0.2c0.2-0.2,0.5-0.4,0.8-0.5l0.3-0.3c0.2-0.1,0.3-0.2,0.5-0.2h0.1c0.3-0.1,0.6-0.2,0.8-0.3h0.1h0.1
	h0.2c0.1,0,0.2,0.1,0.3,0.1l0.5,0.3c0.8,0.4,1.6,0.8,2.5,1c0.2,0,0.3,0,0.5,0h0.5c0.2,0,0.4,0,0.6,0.1l0.2,0.1
	c0.1,0.1,0.1,0.3,0.1,0.4l0,0c0,0.3-0.2,0.6-0.3,0.8h-0.5h-0.1c-0.4,0-0.7,0-1,0H172h-0.5l0,0c-0.4,0-0.7,0-1.1-0.1
	C169.7,751.2,169.1,751,168.4,750.8L168.4,750.8z M153.8,749.3c0-0.2,0.1-0.4,0.1-0.6v0h0.1l0,0l0,0c0.1,0,0.2-0.1,0.3-0.2l0.4-0.3
	h0.1l0.2-0.2l0.1-0.2l0,0c0.1,0,0.2,0,0.3,0c1-0.1,1.9-0.3,2.8-0.6l0,0c2,1.5,4.1,2.8,6.1,4.1l0,0c0.4,0.2,0.8,0.4,1.2,0.4
	c0.2,0,0.4,0,0.6-0.1l0,0c0.6,0.2,1.2,0.4,1.8,0.5s1,0.2,1.6,0.3c0,0-0.1,0-0.1,0c-0.4,0-0.8,0-1.2,0c-1.2-0.1-2.5-0.5-4-0.7
	c-2.6-0.4-5.3-0.7-7.9-1h-0.8c-0.3,0-0.7-0.1-1-0.2c-0.3-0.2-0.5-0.4-0.7-0.6c-0.1-0.1-0.2-0.3-0.3-0.5L153.8,749.3z M153.4,745.5
	c-0.8-1.1-1.7-2.1-2.6-3c-0.1,0-0.1-0.1-0.2-0.2c-0.2-0.3-0.5-0.5-0.7-0.8c-0.2-0.3-0.4-0.6-0.6-0.9c-0.4-0.6-0.8-1.2-1.2-1.9
	c-1.7-2.7-3.7-5.2-5.2-7.9l-4.7-8.3c-0.2-0.3-0.4-0.7-0.5-1.1c0,0,0-0.1,0-0.1c0-0.2,0-0.3,0-0.5v-0.1c0-0.2,0-0.3,0.1-0.3
	c0.2-0.3,0.4-0.6,0.7-0.8c0.1-0.1,0.1-0.1,0.2-0.2c0.2-0.2,0.4-0.4,0.7-0.6c0.9-0.8,2-1.3,3.2-1.6c0.2,0,0.4-0.1,0.6-0.2h0.1l0,0
	c0,0.1,0.1,0.3,0.1,0.4c0.1,0.3,0.2,0.6,0.3,0.8c0,0,0,0,0.1,0.1c0.2,0.4,0.4,0.9,0.6,1.3l0,0c0.4,0.8,0.7,1.6,1,2.4
	c0.2,0.4,0.3,0.9,0.4,1.3c0.1,0.1,0.1,0.3,0.2,0.4c0.2,0.7,0.4,1.4,0.6,2.1l0.5,1.8c0.2,0.7,0.4,1.4,0.6,2.1c0.7,2.5,1.3,5,1.7,7.6
	c0.1,0.5,0.2,1.3,0.3,2.2c0.1,0.4,0.2,0.9,0.3,1.3c0.1,0.4,0.3,0.9,0.6,1.2c0.1,0.2,0.2,0.3,0.3,0.5c0.3,0.3,0.7,0.5,1.1,0.7h0.2
	h0.1l0,0l0.5,0.4l0.2,0.1c0.3,0.2,0.6,0.4,0.9,0.5c1.1,0.4,2.1,0.9,3,1.6c0.1,0.1,0.1,0.1,0.2,0.2c-0.1,0-0.2,0.1-0.2,0.1
	c-0.5,0.1-1,0.2-1.4,0.3h-0.7c-0.2,0-0.4-0.1-0.6-0.2C153.8,745.9,153.5,745.7,153.4,745.5L153.4,745.5z M136.9,719.5l-0.1,0.1l0,0
	l0,0c-0.1,0.2-0.2,0.3-0.2,0.5c0,0.1-0.1,0.3-0.1,0.4v0.1c0,0.3,0,0.7,0.1,1c0.1,0.5,0.3,1,0.6,1.5c1.6,2.8,3.1,5.6,4.7,8.3
	c1.2,2.1,2.6,4,4,6c0.4,0.6,0.9,1.3,1.3,2s0.8,1.3,1.2,1.9c0.4,0.7,0.9,1.3,1.4,1.9c1,0.9,1.8,1.9,2.7,3c0.3,0.4,0.6,0.7,0.9,1
	c0.1,0.1,0.2,0.1,0.3,0.1l0,0l-0.3,0.1c-0.5,0.2-1,0.3-1.6,0.3h-0.3c-0.4-0.1-0.8-0.4-1.2-0.7c-3.1-2.5-6-5.4-8.6-8.5
	c-3.2-3.6-6.4-7.3-8.3-11.7c-0.6-1.1-0.9-2.3-0.9-3.5c0-0.2,0-0.4,0.1-0.6c0.5-1.1,1.3-2.1,2.3-2.7h0.1h0.1
	C135.7,720,136.3,719.8,136.9,719.5L136.9,719.5z M132.2,705.2c0.1-1.2,0.3-2.5,0.5-3.8c0.1-0.5,0.1-1.1,0.1-1.6l0.2-2.4
	c0.3-3.2,0.3-6.3,0.9-9.4c0.1-0.6,0.1-1.2,0.2-1.7c0.1-2.1,0-4.2,0.1-6.3c0.2-2.5,0.3-5,0.5-7.5v-0.1c0-0.6,0.1-1.3,0.4-1.8l0,0
	c1,0,1.9-0.2,2.8-0.5c0.9-0.3,1.9-0.7,2.8-1l0,0l0,0c0,0.1,0,0.1,0.1,0.2c0.1,0.3,0.3,0.6,0.5,0.8c0.1,0,0.1,0.1,0.2,0.2
	c0,0,0.1,0.1,0.1,0.1l0,0c-0.1,0.3-0.2,0.6-0.3,0.8c-0.1,0.5-0.2,0.9-0.2,1.4c-0.1,1.4,0.1,2.7,0.7,4c0.3,0.7,0.7,1.1,0.9,1.5
	c0.1,0.1,0.1,0.3,0.2,0.5c0.1,0.6,0.2,1.1,0.3,1.7l0,0c-0.8,1.7-1.4,3.4-1.9,5.2c-0.4,1.4-0.6,2.8-0.7,4.2c-0.1,1.5-0.1,2.9-0.1,4.4
	c-0.1,2.6,0.2,5.2,0.6,7.8c-0.1,0.3-0.2,0.6-0.2,0.9l0,0c-0.1,0.4-0.3,0.8-0.4,1.2c-0.2,0.7-0.4,1.4-0.5,2c0,0.2,0,0.5,0,0.7
	c0.1,1.2,0.5,2.4,1,3.5l0,0c0.1,0.2,0.2,0.4,0.3,0.6l0,0c0,0,0,0,0,0.1c0,0.1,0.1,0.2,0.1,0.2c0.1,0.1,0.1,0.3,0.2,0.4s0,0,0.1,0.1
	c0.3,0.4,0.6,0.8,0.9,1.2c0,0,0.1,0,0.1,0.1c0.3,0.4,0.7,0.7,1.1,1l0,0h0.1c0.2,0.1,0.4,0.2,0.6,0.3l0.1,0.1l0,0
	c-0.1,0.3-0.3,0.5-0.5,0.7c0,0.1-0.1,0.1-0.1,0.2c-0.1,0.1-0.2,0.2-0.3,0.3c-0.1,0-0.3,0-0.4,0h-0.2c-1.8,0.3-3.5,1.2-4.9,2.5
	c-0.3,0-0.6-0.1-0.9-0.2c-0.1,0-0.3-0.1-0.4-0.2c-0.3-0.2-0.5-0.4-0.6-0.7c-0.2-0.4-0.4-0.8-0.6-1.2c-0.4-0.7-0.7-1.5-0.9-2.3
	c-0.8-2.8-2.2-4.9-2.3-7.5C132.1,705.7,132.1,705.4,132.2,705.2L132.2,705.2z M139.6,660c0.3-0.2,0.5-0.5,0.8-0.8
	c0.3-0.3,0.5-0.8,0.5-1.2l0,0v-0.1c0-0.2,0-0.4-0.1-0.6l0,0c0.4-0.4,0.8-0.8,1.2-1.2l0,0c0.3,0.4,0.7,0.8,1.1,1.2
	c0.7,0.5,1.4,1,1.9,1.7c0.2,0.3,0.3,0.6,0.4,1c0.1,0.3,0.1,0.7,0.2,1.2c0.2,1.2,0.4,2.3,0.5,3.5c-0.9,0.3-1.9,0.5-2.8,0.8
	c-0.9,0.2-1.7,0.6-2.4,1.2c-0.3,0.3-0.6,0.7-0.6,1.2c-1,0.4-2,0.8-2.9,1l0,0c-0.8,0.3-1.6,0.4-2.5,0.4h-0.1c-0.2,0-0.4-0.1-0.6-0.2
	c0-0.4,0-0.9,0-1.3s0.1-0.8,0.1-1.3c0.2,0,0.4-0.1,0.5-0.3C136,663.9,137.6,661.7,139.6,660L139.6,660z M136.6,490.3
	c0-0.5,0.2-0.9,0.4-1.3c0.4-0.5,1-0.8,1.6-1c0.8-0.3,1.6-0.5,2.4-0.6c0.3-0.1,0.6-0.1,0.9-0.1h0.1c1,0.1,1.9,0.4,2.7,0.9l0.2,0.1
	c1.9,0.9,3.6,2.2,5,3.8c0.2,0.4,0.4,0.8,0.4,1.3c0,0.1,0,0.1,0,0.2c0,0.1,0,0.2,0,0.3c0,0.3-0.1,0.5-0.2,0.7
	c-0.2,0.2-0.4,0.4-0.6,0.6l-0.2,0.2c-1.2,1.1-1.9,2.6-2,4.2c0,0.9,0,1.7,0.3,2.6c0.5,2,1,3.9,1.5,5.9c0.2,0.9,0.5,1.8,0.7,2.8v0
	c0.4,1.7,0.6,3.5,0.6,5.2c0,0.6-0.1,1.1-0.2,1.7c-0.2,0.9-0.5,1.8-0.7,2.8c-0.4,1.5-0.9,3-1.2,4.5l0,0c0,0.1,0,0.2-0.1,0.3
	c-1.3,5.3-2.5,10.7-3.6,16.1c-1.8,9-2.1,18.5-2.8,27.6c-0.1,1.1-0.1,2.1-0.2,3.2c-0.5,7.9-0.7,15.8-0.6,23.8
	c0.1,3.9,0.9,7.4,0.8,11.1c-0.2,4.4-0.1,8.8,0.3,13.1c0.3,2.3,0.5,4.7,0.8,7c0.2,1.6,0.3,3.1,0.5,4.7c0.1,1.1,0.2,2.2,0.3,3.2
	c0.1,2.2,0.5,4.3,1.3,6.3c0.5,1.2,0.8,2.4,0.8,3.7c0.1,0.7,0.1,1.5,0.1,2.2c0,0.3-0.1,0.5-0.1,0.8c0,0.1,0,0.1,0,0.2
	s-0.1,0.2-0.1,0.3c-0.1,0.3-0.2,0.5-0.3,0.8c-0.1,0.2-0.2,0.4-0.3,0.6c0,0,0,0.1-0.1,0.1c-0.2,0.4-0.5,0.9-0.8,1.3l0,0
	c-0.7,1-1.5,2.1-2.4,3c-0.5,0.5-1,1.1-1.6,1.6c-0.8-0.3-1.6-0.6-2.4-1c-0.8-0.4-1.6-1-2.1-1.7c-0.3-0.6-0.5-1.5-1-2.4
	c-0.5-0.7-0.8-1.5-1-2.4c0-0.3,0-0.7,0-1c0.1-1.5,0.7-3.2,1-4.8c0.3-2,0.6-4,0.7-6c0-0.2,0-0.3,0-0.5c0.3-3.1,0.3-6.2,0.1-9.4
	c-0.6-5.8-0.6-11.7-0.7-17.6s-0.2-12,0-18s0.3-12.1,0.3-18.1c0-1,0-2.1,0.1-3.2c0.3-4.7,1.1-9.4,1.6-14.1c0.4-4.3,0.8-8.7,1.3-13
	s1.1-8.7,1.4-13.1l0.1-1.7c0.2-3.4,0.4-6.9,0.6-10.3c0.1-2,0.3-4,0.4-5.9c0.1-1,0.2-2,0.2-3c0.3-3.3,0.1-6.7-0.5-10
	c-0.2-1-0.5-2-0.9-3c-0.4-0.8-1-1.5-1.7-2.2c-0.7-1-1.1-2.2-1.1-3.5L136.6,490.3z M148.8,501.9c-0.1-0.3-0.2-0.7-0.2-1.1
	c0-0.4,0-0.7,0-1.1c0-0.5,0.1-0.9,0.3-1.4c0,0.5,0,0.9,0,1.4c0.1,1.5,0.4,2.8,0.6,4.2v0.4C149.1,503.4,148.9,502.6,148.8,501.9
	L148.8,501.9z"/>
<path class="st2" d="M515.3,564.2c0-0.4-0.1-0.8-0.1-1.2c-0.2-1.8-0.4-3.5-0.7-5.3c-0.1-0.6-0.2-1.2-0.2-1.7
	c-0.2-2.2-0.4-4.3-0.6-6.5s-0.4-4.3-0.7-6.5l-0.2-1.6c-0.4-3.8-0.9-7.6-1.2-11.4l-0.1-1.7c-0.1-1.1-0.1-2.3-0.2-3.4
	c-0.1-2.3-0.3-4.6-0.4-6.9c-0.1-1.3-0.2-2.7-0.3-4c0-0.7-0.1-1.3-0.1-2c0-0.5-0.1-1-0.1-1.5s-0.1-1-0.1-1.5c0-0.8-0.1-1.6-0.1-2.4
	c-0.1-1.6,0-3.2,0.2-4.8c0.1-0.8,0.2-1.6,0.4-2.4c0.1-0.5,0.2-1,0.4-1.4c0.1-0.5,0.3-0.9,0.5-1.4c0.1-0.2,0.1-0.3,0.2-0.5
	c0.1-0.1,0.2-0.3,0.4-0.4c0.1-0.1,0.3-0.3,0.4-0.5l0.5-0.5c0.3-0.3,0.5-0.6,0.7-1c0.5-1,0.7-2.2,0.7-3.3v-0.4c0-0.6-0.2-1.2-0.5-1.8
	l-0.2-0.2c-0.2-0.2-0.3-0.4-0.5-0.5c-0.5-0.4-1.1-0.7-1.7-0.9l-0.9-0.3l-0.5-0.1c0.3-0.3,0.6-0.6,0.8-0.9c0.2-0.3,0.4-0.6,0.6-1
	c0.1-0.2,0.2-0.3,0.3-0.5c0.3-0.5,0.5-1,0.7-1.5c0.2-0.7,0.4-1.3,0.6-2c0.5-2.1,0.6-4.2,0.5-6.3c-0.1-0.9-0.2-1.8-0.3-2.6
	c-0.1-0.7-0.3-1.4-0.4-2c-0.9-4.8-2.4-9.4-4.3-13.8c-1.1-2.4-2.1-4.8-3.1-7.2s-2-4.8-3-7.2c-1-2.4-2-4.8-3-7.2
	c-1-2.4-1.9-4.8-2.8-7.3c-1.3-3.4-2.4-6.9-3.3-10.4c-0.3-1.2-0.6-2.4-0.8-3.6c-0.5-2.4-1-4.8-1.3-7.2c-0.2-1.2-0.3-2.4-0.5-3.6
	s-0.3-2.4-0.4-3.6s-0.2-2.2-0.3-3.2c-0.2-2.1-0.5-4.3-0.8-6.4c-0.4-3.2-0.8-6.4-1.2-9.5c-0.1-1.1-0.2-2.1-0.3-3.2s-0.2-2.1-0.2-3.2
	c-0.2-2.4-0.2-4.9-0.2-7.3c0-1.9,0-3.7,0-5.6s0-3.7-0.1-5.6c-0.1-3.7-0.3-7.4-0.5-11.1c-0.3-4.5-0.6-9-1.1-13.5s-0.9-9-1.3-13.4
	c-0.7-7-1.6-14-2.3-21c-0.2-2.3-0.4-4.7-0.6-7c-0.1-1-0.1-1.9-0.2-2.9c-0.1-2.5-0.2-5.1-0.2-7.6c-0.1-7.6-0.1-15.2-0.3-22.9
	c-0.1-2.4-0.2-4.8-0.3-7.2c-0.1-2-0.3-4-0.5-6c-0.4-4-1.3-8-2.5-11.8c-0.3-1-0.7-1.9-1-2.9s-0.8-1.9-1.2-2.8
	c-0.9-1.8-1.9-3.6-2.9-5.4c-0.4-0.9-1-1.6-1.6-2.3c-0.7-0.6-1.5-1-2.3-1.3c-0.6-1.4-1.4-2.6-2.5-3.6c-1.1-1-2.3-1.8-3.7-2.4
	c-0.3-0.1-0.6-0.2-0.9-0.3c-0.4-0.7-1-1.3-1.7-1.6c-0.2-0.1-0.4-0.2-0.7-0.3c-0.7-0.2-1.4-0.4-2.1-0.5c-0.9-0.1-1.9-0.2-2.9-0.3
	c-1,0-1.9,0-2.9,0c-0.5,0-0.9,0.1-1.3,0.1l-1.3,0.2c-0.1-0.2-0.3-0.3-0.4-0.5c-0.5-0.5-1.1-0.9-1.7-1.1c-0.7-0.3-1.5-0.5-2.2-0.6
	c-0.2-0.1-0.5-0.1-0.8-0.1c-1.2-0.2-2.4-0.3-3.5-0.4c-3.5-0.3-7-0.4-10.4-0.8c-4.8-0.6-9.7-1.4-14.6-1.6c-1.2-0.1-2.4-0.1-3.5-0.2
	c-1.8-0.1-3.6-0.3-5.3-0.5s-3.5-0.4-5.3-0.7c-1.3-0.2-2.7-0.5-4-0.7l0.7,1.5c1,0.2,2,0.4,3.1,0.6c4.7,0.7,9.5,1.2,14.3,1.5
	c4.8,0.2,9.6,1,14.5,1.6s9.3,0.5,13.9,1.3c0.9,0.1,1.8,0.4,2.6,0.7c0.7,0.3,1.4,0.8,1.8,1.5c0.1,0.3,0.4,0.4,0.7,0.3
	c1-0.2,1.9-0.3,2.9-0.3c1.8-0.1,3.7-0.1,5.5,0.2c0.8,0.1,1.6,0.3,2.3,0.7c0,0,0.1,0,0.1,0.1c0.3,0.2,0.6,0.4,0.8,0.6h-0.2
	c-1.6,0.2-3.1,0.5-4.6,1c-1,0.3-1.9,0.4-2.9,0.5h-0.2h-0.2c-0.3,0-0.6,0-0.9-0.1c-0.4-0.1-0.8-0.1-1.2-0.1c-0.2,0-0.4,0.1-0.6,0.1
	h-0.1c-0.1,0-0.2,0.1-0.3,0.1l-0.2,0.2l-0.1,0.1c-0.1,0.1-0.1,0.1-0.2,0.2c-0.2,0.2-0.3,0.4-0.5,0.6c-0.2,0.1-0.4,0.2-0.6,0.2
	c-0.2,0-0.5,0-0.8,0l-3.8-0.4c-3.8-0.4-7.5-0.7-11.4-0.7c-1.5,0-3.1,0-4.7,0.1h-1c-0.8,0-1.5,0.1-2.2,0.2s-1.2,0.2-1.8,0.3l-0.4,0.1
	l-0.5,0.1l-0.8,0.2c-0.8,0.2-1.6,0.5-2.4,0.9l0,0c-0.2,0.1-0.4,0.1-0.5,0.2l-1.1-0.6l-4.4-2.3l-1.8-0.9l-0.4-0.1H409
	c-1.9,0.1-3.8,0.1-5.6-0.2h-0.3c-0.6-0.1-1.2-0.2-1.9-0.3l0.7,1.4l1,0.1c0.5,0.1,1,0.2,1.6,0.2h0.2c0.6,0.1,1.2,0.1,1.9,0.1h0.6
	c0.7,0,1.3,0,2-0.1l2.2,1.2l1.5,0.8l0.7,0.4l1.2,0.6l1.8,0.9l0,0c0.1,0,0.2,0.1,0.3,0.1c0.1,0,0.2,0,0.3-0.1c1.9-1,4-1.6,6.1-1.8
	c0.7-0.1,1.5-0.2,2.3-0.2c0.5,0,1,0,1.4-0.1c1.4,0,2.8-0.1,4.1,0c1.1,0,2.3,0.1,3.4,0.1l1,0.1l2.5,0.2l0.9,0.1
	c2.4,0.2,4.7,0.4,7.1,0.7c0.3,0,0.7,0,1,0l0,0c0.2,0,0.4-0.1,0.6-0.1h0.1c0.1,0,0.2-0.1,0.3-0.1c0.1,0,0.1-0.1,0.2-0.1l0.1-0.1l0,0
	l0.3-0.3l0.1-0.1l0.1-0.2c0.1-0.1,0.2-0.2,0.2-0.3l0,0c0,0,0.1-0.1,0.1-0.1c0.1,0,0.2-0.1,0.3-0.1c0.2,0,0.4,0,0.6,0
	c-0.1,0.1-0.1,0.1-0.2,0.2c-1.2,1.1-2.4,2.3-3.4,3.5l0,0c-1.6,0.2-3.1,0.5-4.6,1c-0.3,0.1-0.7,0.2-1,0.4c-0.4,0.2-0.8,0.6-1,1
	c0,0,0,0.1,0,0.1c-0.2,0.4-0.2,0.8-0.2,1.1c0,0.4,0.1,0.8,0.3,1.2c0.4,0.6,0.9,1.1,1.4,1.6l0.8,0.8l0,0c-0.2,0.4-0.3,0.9-0.4,1.3
	s-0.3,0.8-0.4,1.2l0,0c-0.2,0.8-0.4,1.6-0.5,2.4c0,0,0,0.1,0,0.1v0.2c-0.1,0.7-0.2,1.4-0.2,2.1c0,0.2,0,0.3,0,0.5
	c-0.1,0.8-0.1,1.7,0,2.5c0,0.3,0,0.5,0.1,0.8c0,0.5,0.1,1,0.2,1.6c-1.5,1.4-3,2.8-4.3,4.4c-0.7,0.7-1.2,1.5-1.6,2.4
	c-0.4,0.9-0.6,1.9-0.6,2.8c0,1.9-0.3,3.8-1,5.5c-0.6,1.3-2,2.2-3.5,3.2s-2.9,2.2-4.2,3.3c-0.1-0.9-0.3-1.7-0.6-2.5
	c-1.1-2.9-2.9-5.5-5.4-7.5c0.9-3.5-1.9-6.4-4.1-8.6c-0.3-0.3-0.6-0.7-0.9-1l-0.3-0.3c0.5,1.1,1,2.3,1.5,3.4c1.7,1.8,3.1,3.9,2.5,6.1
	l0.6,1.6c2.2,1.8,3.9,4.1,4.8,6.7c0.4,1,0.6,2,0.7,3.1c0,0.6,0,1.3,0,1.9c0,0.2-0.1,0.5-0.1,0.7c0.8,0.3,1.6,0.6,2.3,0.9
	c-0.3-0.2-0.7-0.5-1-0.7c0.1-0.7,0.2-1.5,0.2-2.2c1.5-1.4,3.2-2.6,4.9-3.9c1.4-1,3-2,3.9-3.7c0.7-1.9,1.1-3.9,1.1-6
	c0-0.6,0.1-1.3,0.3-1.9c0.1-0.2,0.1-0.3,0.2-0.5c0.3-0.6,0.7-1.2,1.2-1.7c0.1-0.1,0.1-0.2,0.2-0.3c0.2-0.3,0.5-0.5,0.7-0.8
	c0.9-1,1.9-2,2.9-2.9c0.1,0.4,0.1,0.8,0.2,1.2c0.2,1.2,0.7,2.3,1.3,3.3c0.2,0.3,0.5,0.6,0.8,0.8c1,0.8,2.3,1.3,3.1,1.9
	c0.3,0.2,0.6,0.5,0.9,0.8c0.6,0.5,1.1,1.1,1.6,1.6c0.2,0.3,0.5,0.6,0.8,0.9c0.4,0.6,0.8,1.2,1.2,1.8c0.4,0.6,0.8,1.2,1.1,1.8
	s0.7,1.2,1,1.9s0.6,1.3,0.9,1.9c2.1,5.3,3.7,10.9,4.6,16.6c2.2,11.6,3.9,23.2,5.1,34.8c0.4,3.9,0.8,7.8,1.1,11.7
	c0.2,2.2,0.3,4.4,0.5,6.7v0.4c0.5,7.5,1.2,14.9,2,22.4c1.3,12.5,2.9,25,4.1,37.4c0.2,1.6,0.3,3.2,0.5,4.8c0.3,3.2,0.7,6.4,1.1,9.6
	c0.7,6.4,1.5,12.8,2,19.3c0.1,1.6,0.2,3.2,0.4,4.8c0.4,5.5,0.5,11,0.4,16.5c-0.1,3-0.3,5.9-0.8,8.8c-0.2,1-0.3,1.9-0.5,2.9
	c-0.4,1.9-0.9,3.8-1.4,5.7s-1.2,3.7-2,5.5c-0.2,0.4-0.4,0.8-0.5,1.2c-0.3,0.8-0.6,1.6-1,2.4c-0.5,1.4-1.2,2.7-2,3.9
	c-0.3,0.5-0.7,1.1-1.1,1.5c-0.1,0.1-0.2,0.2-0.3,0.3c-0.5,0.5-1,1.1-1.5,1.7c-0.2,0.3-0.4,0.6-0.5,0.9l-0.2,0.5
	c-0.4,0.9-0.6,1.9-0.7,2.9c0,0.2,0,0.3,0,0.5s0,0.4,0,0.7c0.1,1.2,0.3,2.3,0.7,3.4c0.1,0.4,0.3,0.7,0.4,1.1c0.5,1.1,1,2.1,1.6,3.1
	c0.2,0.3,0.4,0.5,0.6,0.8c0.4,0.5,0.8,0.9,1.4,1.3c0.3,0.2,0.6,0.3,0.9,0.4c0.3,0.1,0.6,0.1,0.9,0.2c0.9,0.1,1.7,0.2,2.6,0.1h0.3
	l0.6,0l1.1-0.1l0.3,0l0.3,0c0,0.1,0,0.2,0,0.3s0,0.4,0,0.6c0,0.3,0.1,0.7,0.1,1c0.2,0.9,0.5,1.7,1,2.4c0.1,0.1,0.2,0.3,0.3,0.4
	c0.6,0.8,1.4,1.3,2.3,1.6c0,0.1,0,0.3,0,0.4c0,0.3,0.1,0.7,0.1,1c0.1,0.3,0.2,0.6,0.2,0.9c0.3,1.1,0.7,2.1,1.2,3.1
	c0.1,0.3,0.3,0.7,0.4,1c0.2,0.5,0.4,1,0.5,1.6c0.7,2.5,1.3,5,2,7.5c0.8,2.9,1.5,5.8,2.2,8.7c0.7,2.9,1.4,5.8,2.1,8.7
	c1,4.2,1.7,8.5,2.5,12.8c0.3,1.4,0.6,2.8,0.9,4.2c0.1,0.6,0.2,1.1,0.3,1.7c0.6,4.1,1,8.3,1.2,12.5l0.1,1.8c0,0.3,0,0.6,0.1,0.9
	c0.1,1.2,0.1,2.4,0.2,3.5c0.1,1.8,3.1,4.6,6.7,4.4s5.5-5.6,5.5-5.6c0-2.5-0.1-5-0.3-7.4c-0.3-5-0.9-10-1.5-15
	c-0.1-0.7-0.2-1.4-0.3-2.1s-0.2-1.4-0.3-2.1c-0.2-1.2-0.3-2.4-0.5-3.6c0.5,2.4,1,4.8,1.5,7.2c0.2,1.1,0.4,2.2,0.6,3.3
	c0.4,2.2,0.6,4.5,0.9,6.8c0.1,1.4,0.3,2.9,0.4,4.3c0.2,2.8,0.4,5.7,0.6,8.6c0,0,1.9,5.8,4,4.7S515.4,568.8,515.3,564.2z
	 M445.5,217.1c-0.2,0.3-0.5,0.7-0.7,1l-0.3-0.1l-1.2-0.4C444,217.4,444.7,217.2,445.5,217.1z M441.9,220.4c-0.2-0.2-0.3-0.4-0.5-0.6
	c-0.1-0.2-0.2-0.4-0.2-0.7c0-0.2,0-0.4,0.1-0.5c0-0.1,0.1-0.1,0.1-0.1l2.6,0.8l1.3,0.4l2.5,0.8c0.4,0.1,0.8,0.3,1.1,0.6l0.1,0.3
	c0,0.3-0.1,0.6-0.3,0.8c-0.2,0.4-0.5,0.7-0.9,0.9c-0.2,0.1-0.4,0.1-0.6,0.1c-0.6,0-1.3,0-1.9-0.1c-0.7-0.1-1.2-0.1-1.6-0.1h-0.1
	c0,0,0,0,0-0.1l0,0c0-0.1,0.1-0.2,0-0.3c0-0.1-0.1-0.2-0.2-0.3l-0.7-0.7l-0.4-0.4L441.9,220.4z M479.5,492.3c-0.2,0.6-0.4,1.3-0.5,2
	c-0.5-0.2-1-0.5-1.4-1c-0.7-0.9-1.1-2-1.1-3.1c0-0.5,0-1,0.1-1.5c0-0.1,0-0.2,0-0.3c0-0.1,0-0.1-0.1-0.2l0,0c0-0.1-0.1-0.1-0.2-0.2
	c-0.1-0.1-0.2-0.1-0.2-0.1c-0.1,0-0.2,0-0.3,0c-0.1,0-0.2,0-0.2,0.1l0,0l0,0c-0.2,0.1-0.3,0.1-0.5,0.1c-0.8,0.1-2.1,0.2-2.3,0.3
	h-0.3c-1,0.1-2,0-3-0.2c-0.9-0.4-1.6-1.1-2.1-1.9c-0.6-0.9-1.1-1.9-1.5-2.9c-0.6-1.3-1-2.6-1.1-4c0-0.2,0-0.4,0-0.6
	c0-1.1,0.3-2.3,0.8-3.3c0.6-1,1.3-1.8,2.1-2.6c2.4-2.9,3.4-6.2,4.8-9.4c3.1-7.4,4.7-15.4,4.8-23.4c0.1-5.5-0.1-11-0.4-16.6
	c-0.8-12.9-2.6-25.8-3.9-38.5c-2-20-4.9-39.9-6.1-59.8v-0.4c-1.2-17.9-3.4-35.6-6.8-53.2c-0.9-5.8-2.5-11.4-4.7-16.9
	c-1.2-2.7-2.6-5.3-4.4-7.7c-1-1.3-2.2-2.5-3.5-3.5c-1.1-0.8-2.3-1.2-3.1-1.9c-0.9-1-1.5-2.1-1.6-3.4c-0.2-0.8-0.3-1.5-0.4-2.3
	c-0.1-0.7-0.2-1.4-0.2-1.9c0-0.1,0-0.3,0-0.4v-0.4c0-0.8,0-1.6,0-2.4v-0.6l0,0c0-0.6,0.1-1.2,0.2-1.8c0-0.1,0-0.2,0-0.3
	c0-0.1,0-0.2,0-0.3c0.1-0.6,0.3-1.3,0.4-1.9c0-0.2,0.1-0.3,0.1-0.5c0.1-0.3,0.2-0.6,0.3-1h0.5l0.6,0.1l0.9,0.1l1.1,0.1
	c0.4,0,0.7,0,1,0h0.4c0.4,0,0.7-0.2,1-0.4c0.2-0.2,0.4-0.4,0.6-0.6c0.2-0.2,0.4-0.4,0.5-0.7c0.1-0.1,0.1-0.2,0.2-0.4
	c0.2-0.3,0.3-0.7,0.3-1.1c0-0.1,0-0.2,0-0.2c0-0.2,0-0.3-0.1-0.4c0-0.2-0.1-0.3-0.2-0.4c-0.1-0.2-0.3-0.3-0.4-0.5
	c-0.3-0.2-0.6-0.4-1-0.5l-0.5-0.1l-2.1-0.6c0.3-0.4,0.5-0.8,0.8-1.1s0.4-0.5,0.7-0.8l0,0l0.6-0.6l0.5-0.6l0.1-0.1
	c0.3-0.4,0.7-0.7,1-1.1l0.1-0.1l0.2-0.2c0.3-0.3,0.6-0.6,0.9-0.8l0.1-0.1l0.3-0.3l0.5-0.4l0.5-0.4c0.5,0,0.9-0.1,1.3-0.2
	s1.1-0.2,1.6-0.4c1.2-0.3,2.3-0.6,3.3-0.8c0.4-0.1,0.7-0.1,1.1-0.1c0.4,0,0.8,0,1.2,0c0.2,0,0.3,0,0.4-0.1c2.7,0.9,4.8,3,5.9,5.6
	c0.1,0.2,0.2,0.3,0.4,0.4c0.8,0.2,1.5,0.6,2.1,1.1c0.6,0.6,1,1.3,1.4,2c1,1.8,2,3.5,2.9,5.4c3.5,7.2,4.7,15,5.2,23
	c0.1,2.4,0.2,4.8,0.3,7.2c0.3,10.1,0.1,20.3,0.6,30.5c0,1,0.1,1.9,0.2,2.9c0.6,9.4,1.9,18.8,2.9,28.1c0.9,8.9,1.8,17.9,2.4,26.8
	c0.5,7.4,0.7,14.8,0.6,22.2c0,2.5,0,5,0.2,7.4c0.6,8.6,2.1,17,2.8,25.5c0.7,9.9,2.9,19.6,6.3,28.9c3.7,9.7,7.7,19.4,12,28.9
	c2.2,5,3.8,10.2,4.6,15.6c0.1,0.8,0.2,1.7,0.3,2.5c0.1,2,0,4-0.5,5.9c-0.3,1.3-0.8,2.5-1.4,3.7c-0.5,0.9-1.2,1.6-2,2.2
	c-0.2,0-0.5,0-0.7,0h-0.1c-0.6,0-1.1,0.2-1.7,0.4c-0.3,0.1-0.5,0.2-0.8,0.3l-0.7,0.3c-0.5,0-1.1,0-1.8,0l-0.5,0
	c-0.8,0.2-1.6,0.5-2.3,0.9c-0.6,0.4-1.2,0.6-1.9,0.9c-0.2,0-0.4,0.1-0.6,0.1c-0.8,0-1.5-0.1-2.2-0.3c-0.8-0.2-1.7-0.4-2.6-0.4
	c-0.4,0-0.8,0.1-1.2,0.3c-0.5-0.4-1.1-0.9-1.6-1.4s-0.9-0.8-1.4-1.2c-0.2-0.2-0.5-0.4-0.8-0.5c-0.3-0.2-0.6-0.4-0.9-0.5
	c-0.2-0.1-0.5-0.2-0.7-0.3c-0.3-0.1-0.5-0.1-0.8-0.2c-0.2,0-0.4,0-0.5,0c-0.7,0-1.4,0.4-1.8,1c-0.5,0.7-0.9,1.4-1.3,2.1
	c-0.4,0.7-0.8,1.5-1.1,2.2c-0.2,0.5-0.5,1-0.7,1.5S479.6,491.9,479.5,492.3z M501.8,488.5c-1.1,0.8-2.1,1.7-3,2.7
	c-0.3,0.3-0.4,0.7-0.5,1.1c-0.9-0.7-1.9-1.3-2.9-1.8c-0.7-0.3-1.5-0.7-2.1-1c0.2,0,0.4,0,0.6,0c0.4,0.1,0.8,0.1,1.2,0.2
	s0.8,0.2,1.2,0.3c0.4,0.1,0.9,0.1,1.4,0.1c0.3,0,0.6-0.1,0.8-0.1c0.6-0.2,1.1-0.4,1.7-0.7l0.5-0.3l0.5-0.2
	C501.3,488.7,501.6,488.6,501.8,488.5L501.8,488.5z M494.4,565.7c-0.1-1.1-0.1-2.3-0.2-3.4c-0.1-0.9-0.1-1.9-0.2-2.8
	c-0.4-4.7-0.5-9.7-1.6-14.4c-1.3-5.6-2.1-11.3-3.4-17c-1.4-5.8-2.9-11.6-4.4-17.4c-0.7-2.5-1.3-5-2-7.5c-0.7-2.4-1.9-4.3-2.3-6.5
	c0-0.3-0.1-0.6-0.1-0.9c0,0,0-0.1,0-0.2c0-0.4,0-0.9,0.1-1.3c0.1-1,0.4-1.9,0.9-2.8c0.8-1.9,1.8-3.8,3-5.6c0.2-0.3,0.5-0.5,0.8-0.5
	c0.5,0,1,0.1,1.4,0.4c0.5,0.3,1,0.6,1.4,0.9c0.8,0.7,1.6,1.5,2.5,2.2c0.4,0.3,0.7,0.6,1.1,0.9l0,0c1.1,0.7,2.2,1.2,3.4,1.7
	c1.1,0.4,2,1,2.9,1.8c0.1,0.1,0.2,0.3,0.4,0.5c0,0.1,0,0.2,0,0.3c0.1,0.4,0.2,0.7,0.4,1c0.1,0.1,0.2,0.2,0.3,0.3
	c0.1,0.1,0.2,0.2,0.3,0.3l0,0c0.2,0.5,0.3,1,0.4,1.5c0,0.2,0.1,0.5,0.1,0.7c0,1.8-0.2,3.7-0.5,5.5c-0.1,0.7-0.1,1.3,0,2
	c0.1,0.8,0.2,1.6,0.3,2.3c-0.2,0.8-0.4,1.7-0.6,2.5c-0.4,1.6-0.6,3.3-0.6,4.9c0,0.2,0,0.5,0,0.7s0,0.2,0,0.3c0,0.5,0.1,1.1,0.2,1.6
	c0.4,1.6,0.8,3.2,1.3,4.8c0.2,0.8,0.5,1.6,0.7,2.4c0,0.8,0,1.5,0.1,2.2c0.1,2.2,0.4,4.5,0.7,6.7c0.3,2.1,0.6,4.1,0.9,6.2
	c0.8,5.7,1.4,11.4,1.8,17c0.1,2.4,1,4.8,0.3,7.1C500.9,574.1,494.4,565.7,494.4,565.7L494.4,565.7z M512,568.1
	c-2.6,2-4.2-3.1-4.2-3.1c-0.5-7.8-1-15.9-2.5-23.6c-1.1-5.4-2.3-10.8-3.6-16.1c0-0.1-0.1-0.2-0.1-0.3l0,0c-0.4-1.5-0.8-3-1.2-4.5
	c-0.2-0.9-0.5-1.8-0.7-2.8c-0.1-0.5-0.2-1.1-0.2-1.7c-0.1-1.8,0.1-3.5,0.6-5.2v0c0.2-0.9,0.4-1.8,0.7-2.8c0.5-2,1-3.9,1.5-5.9
	c0.2-0.8,0.3-1.7,0.3-2.6c-0.1-1.6-0.8-3.1-2-4.2l-0.2-0.2c-0.2-0.2-0.4-0.4-0.6-0.6c-0.1-0.2-0.2-0.5-0.2-0.7c0-0.1,0-0.2,0-0.3
	c0-0.1,0-0.1,0-0.2c0-0.5,0.2-0.9,0.4-1.3c1.4-1.6,3.1-2.9,5-3.8l0.2-0.1c0.9-0.4,1.8-0.7,2.7-0.9h0.1c0.3,0,0.6,0,0.9,0.1
	c0.8,0.1,1.6,0.4,2.4,0.6c0.6,0.2,1.2,0.5,1.6,1c0.3,0.4,0.4,0.8,0.4,1.3v0.3c0.1,1.3-0.3,2.5-1.1,3.5c-0.7,0.6-1.3,1.4-1.7,2.2
	c-0.4,1-0.7,2-0.9,3c-0.7,3.3-0.9,6.7-0.5,10c0.1,1,0.1,2,0.2,3c0.2,2,0.3,4,0.4,5.9c0.2,3.4,0.4,6.9,0.6,10.3l0.1,1.7
	c0.3,4.4,0.9,8.8,1.4,13.1c0.5,4.3,0.8,8.7,1.3,13c0.3,2.6,1.2,5.3,1,7.9C513.8,567.1,514.6,566.1,512,568.1z M500.3,504.2v-0.4
	c0.1-1.4,0.5-2.7,0.5-4.2c0-0.5,0-0.9,0-1.4c0.2,0.5,0.3,0.9,0.3,1.4c0,0.4,0,0.7,0,1.1c0,0.4-0.1,0.7-0.2,1.1
	C500.7,502.6,500.5,503.4,500.3,504.2L500.3,504.2z"/>
<polygon class="st0" points="486.6,502.3 486.9,502.2 486.9,502.2 486.6,502.3 "/>
<line class="st3" x1="203.4" y1="493" x2="176.3" y2="654.5"/>
<rect x="202.4" y="486.4" transform="matrix(0.1656 -0.9862 0.9862 0.1656 -316.4178 611.9106)" class="st4" width="2" height="13"/>
<rect x="175.3" y="648" transform="matrix(0.1656 -0.9862 0.9862 0.1656 -498.3701 719.9914)" class="st4" width="2" height="13"/>
<line class="st3" x1="447.8" y1="489.5" x2="468.4" y2="580.5"/>
<rect x="441.3" y="488.4" transform="matrix(0.9754 -0.2205 0.2205 0.9754 -96.9105 110.8039)" class="st4" width="13" height="2"/>
<rect x="461.9" y="579.5" transform="matrix(0.9754 -0.2205 0.2205 0.9754 -116.4749 117.5816)" class="st4" width="13" height="2"/>
<line class="st5" x1="191.6" y1="491.5" x2="71.6" y2="469.5"/>
<line class="st5" x1="172.5" y1="575" x2="70.6" y2="557"/>
<line class="st5" x1="165.5" y1="653.5" x2="70.6" y2="637.5"/>
<line class="st5" x1="587.1" y1="519.6" x2="466.1" y2="535.4"/>
<circle class="st6" cx="611.1" cy="517" r="22.5"/>
<circle class="st6" cx="49.1" cy="466" r="22.5"/>
<circle class="st6" cx="48.6" cy="555" r="22.5"/>
<circle class="st6" cx="48.1" cy="636.3" r="22.5"/>
<polygon class="st4" points="220.6,551.6 193.4,593.2 247.9,593.2 "/>
<polygon class="st4" points="425.3,520.9 398,562.5 452.6,562.5 "/>
<text transform="matrix(1 0 0 1 209.43 588.46)" class="st2 st7 st8">L1</text>
<text transform="matrix(1 0 0 1 595.42 525.46)" class="st2 st7 st8">C4</text>
<text transform="matrix(1 0 0 1 33.42 474.46)" class="st2 st7 st8">C1</text>
<text transform="matrix(1 0 0 1 32.92 563.46)" class="st2 st7 st8">C2</text>
<text transform="matrix(1 0 0 1 32.42 644.8)" class="st2 st7 st8">C3</text>
<text transform="matrix(1 0 0 1 413.96 557.56)" class="st2 st7 st8">L2</text>
</svg>
