<svg id="Layer_1" data-name="Layer 1" xmlns="http://www.w3.org/2000/svg" viewBox="0 0 648 864"><defs><style>.cls-1{fill:#d1d3d4;}.cls-2,.cls-8{fill:#fff;}.cls-3,.cls-6,.cls-7{fill:none;stroke-miterlimit:10;}.cls-3{stroke:#231f20;stroke-width:0.25px;}.cls-4{fill:#2a8ecd;}.cls-5{fill:#0a3b59;}.cls-6{stroke:#0a3b59;stroke-dasharray:6 6;}.cls-6,.cls-7{stroke-width:2px;}.cls-7{stroke:#2a8ecd;stroke-dasharray:6;}.cls-8{font-size:24px;font-family:AvenirNext-Regular, Avenir Next;}</style></defs><title>Outline 7</title><path class="cls-1" d="M490.36,363a13.87,13.87,0,0,0,4.93-2.44,9.38,9.38,0,0,0,3.87-6l8-41.71s8-39.45-3.47-74.36A63.78,63.78,0,0,0,489,214.81l.12-.34c-15.85-16.4-35.73-25-35.73-25l-13.06-6.65S378.05,157.41,372.64,152s-7.45-47.89-7.45-63.19H284.81c0,15.3-2,57.77-7.45,63.19s-67.74,30.84-67.74,30.84l-13.06,6.65s-19.88,8.59-35.73,25l.12.34a63.78,63.78,0,0,0-14.62,23.68c-11.43,34.91-3.47,74.36-3.47,74.36s-11.1,39-7.81,79.47-13.22,54.67-15.8,81.48c-4.59,47.76-.9,114.25,2.17,152.06,1.37,16.88-.1,48.94,1.33,66.49,1,12.17,4.43,33,11.27,42.07s21.77,23.41,26,21.48c3.41,2.9,23,.87,19.64-6.59s-14.47-9.52-19.26-17.26-5.12-30.91-1.18-31.23,12,6.59,12.68,14.86,3.4,20.53,13.55,20.9c7.11.25,2.25-9.2,1.49-18.54-.74-9.06.17-27.59-12.68-46.58s-14.71-37.06-13-57.24,26.21-79.68,29-113.68-6.29-50-1.62-65.55,16.22-65.14,14.42-87.26l-.2-1,5.44-67c-.05,0,14.13,81,14.13,81,3.65,13.66,4.8,69.36,4.8,98.95,0,24.05,3.18,45.66,1,60.25l96.73.25h.14L421.8,520c-2.19-14.59,1-36.2,1-60.25,0-29.59,1.15-85.29,4.8-98.95,0,0,14.18-81,14.13-81l5.44,67,.05.88c.2,4.44,4.45,12.74,11.78,15.33"/><path class="cls-2" d="M135.93,487.83a3.79,3.79,0,0,0-.55,1.75V490a7.85,7.85,0,0,0,.71,3.31,5.24,5.24,0,0,0,.66,1l.49.52c.15.16.3.3.42.45a4.55,4.55,0,0,1,.35.42,1.84,1.84,0,0,1,.25.45,11.75,11.75,0,0,1,.46,1.35c.14.47.26,1,.37,1.43.18.79.32,1.59.42,2.38a30.92,30.92,0,0,1,.2,4.78c0,.8,0,1.61-.1,2.42,0,.48-.08,1-.12,1.47s-.06,1-.11,1.47c-.06.66-.1,1.32-.14,2-.1,1.32-.21,2.65-.3,4-.15,2.29-.28,4.58-.42,6.87-.06,1.14-.13,2.29-.21,3.44l-.11,1.66c-.26,3.8-.77,7.6-1.2,11.42l-.19,1.64c-.24,2.17-.44,4.34-.65,6.51s-.4,4.34-.62,6.5c-.05.58-.13,1.16-.2,1.74-.21,1.74-.44,3.5-.66,5.27-.15,1.18-.3,2.36-.43,3.54s-.23,2.37-.3,3.56c0,.54,0,1.08-.06,1.62s-.06,1.08-.06,1.62q0,4.52-.11,9c-.05,3-.11,6-.22,9q-.08,2.26-.12,4.51c-.05,3,0,6,0,9,0,1.5.05,3,.08,4.51.09,4.4.11,8.84.37,13.27.09,1.48.2,2.95.35,4.42a32.21,32.21,0,0,1,.12,4.55q0,1.14-.1,2.28c0,.77-.1,1.54-.14,2.33l0,.48q-.09,1.47-.28,2.92c-.11,1-.26,1.94-.42,2.91-.07.35-.15.73-.25,1.12-.19.78-.44,1.61-.59,2.47a9.91,9.91,0,0,0-.19,1.3c0,.22,0,.44,0,.66s0,.44.06.66a3.44,3.44,0,0,0,.09.4,8.48,8.48,0,0,0,.86,2.11l.17.32a3.83,3.83,0,0,1,.24.52c.07.19.15.39.22.6s.15.42.23.64a5.67,5.67,0,0,0,.31.64,4.23,4.23,0,0,0,.51.68,7.77,7.77,0,0,0,2.14,1.53c.41.21.81.39,1.21.55s.79.3,1.16.42l.09,0a.76.76,0,0,1-.12,1,4.24,4.24,0,0,1-.63.66,25.6,25.6,0,0,0-4,4.84.65.65,0,0,0-.47-.38.62.62,0,0,0-.71.46,17.23,17.23,0,0,0-.68,3.82,16.48,16.48,0,0,0,0,1.87.64.64,0,0,0,.34.56,3.75,3.75,0,0,0,.46.19,8.35,8.35,0,0,0-.33,2v.09c-.16,2.49-.31,5-.47,7.48-.13,2.2,0,4.25-.09,6.26,0,.54-.1,1.08-.18,1.62-.52,3.19-.59,6.38-.86,9.5l-.16,2.47c0,.52-.07,1-.14,1.51-.14,1.25-.38,2.51-.46,3.84,0,.37,0,.73,0,1.12.07,3.1,1.59,5.32,2.32,7.85a8.89,8.89,0,0,0,1.13,2.65,8.89,8.89,0,0,1,.58,1.05,3.73,3.73,0,0,0,.68.87,2.19,2.19,0,0,1-.56.12H135l-.24,0a.67.67,0,0,0-.48.11,7,7,0,0,0-3,3.6,4,4,0,0,0-.14.9,9.26,9.26,0,0,0,1,4.12c2,4.61,5.27,8.37,8.54,12a62.86,62.86,0,0,0,8.8,8.65,4.56,4.56,0,0,0,1.6.87,3.41,3.41,0,0,0,.59.09,4.11,4.11,0,0,0,.93-.06s0,.07,0,.1v.37a2.19,2.19,0,0,0,.63,1.25,8.66,8.66,0,0,0,.93.74,3.55,3.55,0,0,0,1.69.44l.69,0c2.62.31,5.25.62,7.84,1,1.23.18,2.59.64,4.05.75a6.8,6.8,0,0,0,1.43-.06,5.21,5.21,0,0,0,1.1-.28,2.06,2.06,0,0,0,.9-.76l.55,0q.54,0,1.08,0l.27,0a2.63,2.63,0,0,0,.72,0,.85.85,0,0,0,.42-.22,2.84,2.84,0,0,0,.84-1.8V750a2.16,2.16,0,0,0-.25-1.07,1.66,1.66,0,0,0-.88-.69,3.29,3.29,0,0,0-.89-.14l-.46,0-.3,0a7.82,7.82,0,0,1-2.13-.78,5.92,5.92,0,0,0-.91-.48,1.85,1.85,0,0,0-.75-1.33l-.33-.22a1.09,1.09,0,0,0-.56-.21,1,1,0,0,0-.41.06,4.88,4.88,0,0,1-2.94-1.62c-1.74-1.72-2.87-4.32-5.08-6.1a6,6,0,0,0-1.74-1.06c-.4-.73-.94-1.25-1.27-1.76-.91-1.39-1.07-2.92-1.63-4.69a19.14,19.14,0,0,1-.84-7.11,28.11,28.11,0,0,1,1.37-6.72,4.11,4.11,0,0,0,.2-1,6,6,0,0,0-1-3.58,5.33,5.33,0,0,0-1.15-1.23,10,10,0,0,0,.42-2.18,5.34,5.34,0,0,0-1.34-4.25,16,16,0,0,1-2.92-4.06,12,12,0,0,1-1-4.95,36.27,36.27,0,0,1,0-4.16,36.67,36.67,0,0,1,1.15-7c.56-2.12,1.6-4.13,2.09-6.48a30.18,30.18,0,0,1,1.15-4.53,3.55,3.55,0,0,0,.86.18,4.44,4.44,0,0,0,1.52-.2c0,.21-.1.41-.11.64v0a.66.66,0,0,0,.09.41l.11.13.16.17.42.36c.32.25.72.54,1,.78a3.25,3.25,0,0,1,.4.3h0a14.16,14.16,0,0,1,1.7,2.05,15.86,15.86,0,0,1,2.34,4.68,63.12,63.12,0,0,1,2.07,8.27c.22,1.33.25,2.64.38,4a11.29,11.29,0,0,0,1.11,4.08,31.42,31.42,0,0,0,2.32,3.61.65.65,0,0,0,.4.25,2.27,2.27,0,0,0-.11.62,2.48,2.48,0,0,0,.06.79,4.1,4.1,0,0,0,1,1.67,7.28,7.28,0,0,1,.93,1.22c.54,1,1.19,1.91,1.75,2.83a8.7,8.7,0,0,1,.74,2,28.46,28.46,0,0,1,1.47,6.53,6.59,6.59,0,0,0,.25,1.64,2.43,2.43,0,0,0,2.29,1.86,1.74,1.74,0,0,0,.33,0,9.39,9.39,0,0,1,1.88,2.59,5.46,5.46,0,0,1,.41,1.9,7.23,7.23,0,0,0,.59,2.33,3.74,3.74,0,0,0,.83,1.08,2.12,2.12,0,0,0,1.28.57,2.18,2.18,0,0,0,1.22-.31,2.57,2.57,0,0,0,1.23-2,3,3,0,0,0-.09-.88,12.2,12.2,0,0,1-.66-3.49,4.65,4.65,0,0,1,.1-.61,5,5,0,0,1,.56-1.33,7.31,7.31,0,0,0,.71-1.58l.06-.45a2.68,2.68,0,0,0-.25-1.28l0-.07a4.24,4.24,0,0,0-1-2.57c-.54-.75-1.19-1.43-1.56-1.85-2.36-2.76-3.23-6.54-3.16-10.27l0-.37c0-.3.05-.57.07-.89a3.73,3.73,0,0,0-.5-2.27,2.5,2.5,0,0,0-.29-.4,5.11,5.11,0,0,0,.71-.72,2.87,2.87,0,0,0,.62-1.55,3,3,0,0,0-.09-.86,7.33,7.33,0,0,0-.81-1.77l-2.64-4.69a26.35,26.35,0,0,1-1.32-3.78c-1.2-3.33-2.5-6.62-3.88-9.89a41,41,0,0,0-2.92-6.44,12.69,12.69,0,0,0-2.12-2.48,6.12,6.12,0,0,0-.47-.4.88.88,0,0,0,0-.19v0a10,10,0,0,0-.12-2.81,3.74,3.74,0,0,0-1.86-2.48,3.56,3.56,0,0,0-1.29-.31c-.49,0-1,0-1.4,0a3.33,3.33,0,0,0-.63-1.44,12.1,12.1,0,0,0-1.14-1.21,25.54,25.54,0,0,1-4.55-6.28,7.57,7.57,0,0,0-2.63-2.6c-.87-.6-1.78-1.13-2.5-1.74,1.47-7.16,2.65-14.38,3.58-21.63.29-2.24.56-4.48.81-6.72s.46-4.48.65-6.73c.25-3,.53-6,.81-8.95.13-1.5.27-3,.39-4.49s.22-3,.32-4.51c.19-2.92.32-5.84.35-8.76,0-2,0-4,.06-6s.06-4,.11-6c.09-4,.24-8,.5-12,0-.31.05-.61.07-.92l.12-1.85a125.15,125.15,0,0,1,1.24-12.49c.09-.58.22-1.15.34-1.71.32-1.41.62-2.83.9-4.25.85-4.26,1.56-8.55,2.54-12.75q1-4.35,2.12-8.68t2.24-8.67q1-3.73,2-7.45a13.31,13.31,0,0,1,.55-1.57c.12-.33.26-.66.4-1a24.1,24.1,0,0,0,1.16-3.14c.08-.3.18-.58.25-.89a8.69,8.69,0,0,0,.12-1c0-.14,0-.26,0-.4a4.47,4.47,0,0,0,2.33-1.57c.11-.13.19-.29.29-.43a7.27,7.27,0,0,0,1-2.39,8.48,8.48,0,0,0,.14-1c0-.19,0-.39,0-.58s0-.19,0-.29l.31.05.31.05,1.09.12.65.05.27,0a11.07,11.07,0,0,0,2.59-.1,7.7,7.7,0,0,0,.85-.2,3.69,3.69,0,0,0,.85-.39,5.93,5.93,0,0,0,1.37-1.27c.2-.25.39-.51.57-.78a21.52,21.52,0,0,0,1.63-3.09c.17-.35.31-.7.44-1.06a12.44,12.44,0,0,0,.74-3.39c0-.22,0-.44,0-.66s0-.33,0-.5a9.07,9.07,0,0,0-.67-2.87l-.19-.46a6.15,6.15,0,0,0-.52-.87,18.54,18.54,0,0,0-1.48-1.7c-.09-.11-.2-.21-.28-.32a13.59,13.59,0,0,1-1.11-1.54,23.42,23.42,0,0,1-2-3.89c-.34-.78-.65-1.57-1-2.38-.16-.4-.34-.81-.51-1.22-.76-1.83-1.44-3.68-2-5.55s-1-3.76-1.44-5.68q-.28-1.43-.51-2.88a67.69,67.69,0,0,1-.76-8.82c-.12-5.48,0-11,.4-16.47q.16-2.41.35-4.82c.53-6.42,1.25-12.85,2-19.27.37-3.21.73-6.41,1.07-9.61.18-1.6.34-3.2.5-4.8,1.22-12.45,2.82-24.92,4.15-37.39.8-7.48,1.52-15,2-22.42l0-.37q.22-3.34.47-6.67.49-5.84,1.1-11.66,1.89-17.46,5.21-34.72a79.86,79.86,0,0,1,4.61-16.58c.29-.66.58-1.31.89-1.95s.66-1.27,1-1.9.72-1.24,1.1-1.84.79-1.19,1.2-1.77c.24-.31.51-.58.76-.87a16,16,0,0,1,1.62-1.64c.31-.25.57-.53.89-.76.84-.65,2.08-1.08,3.11-1.92a5,5,0,0,0,.75-.83,9.25,9.25,0,0,0,1.34-3.31c.1-.39.18-.79.25-1.18q1.47,1.38,2.85,2.89c.23.26.49.51.72.78.09.1.16.19.24.29a6.88,6.88,0,0,1,1.16,1.74c.06.15.12.31.19.49a9,9,0,0,1,.31,1.92,17.07,17.07,0,0,0,1.15,6c.85,1.77,2.51,2.76,3.86,3.74,1.7,1.22,3.32,2.49,4.87,3.85a9.57,9.57,0,0,0,.17,2.23,11,11,0,0,0-1,.67c.77-.32,1.55-.61,2.34-.89,0-.24-.1-.48-.13-.73a8.94,8.94,0,0,1-.05-1.88,12.16,12.16,0,0,1,.68-3.07,15.51,15.51,0,0,1,4.84-6.7l.64-1.57c-.56-2.28.86-4.31,2.55-6.14q.72-1.71,1.46-3.41l-.3.3c-.29.31-.59.65-.93,1-2.23,2.29-5,5.12-4.08,8.64a16.91,16.91,0,0,0-5.41,7.47,13.71,13.71,0,0,0-.62,2.51c-1.37-1.16-2.77-2.27-4.24-3.31s-2.84-1.92-3.45-3.23a15.88,15.88,0,0,1-1-5.52,8.73,8.73,0,0,0-.6-2.82,9.42,9.42,0,0,0-1.61-2.37,52,52,0,0,0-4.34-4.39c.08-.6.13-1.17.18-1.64,0-.27,0-.53.07-.8a21.16,21.16,0,0,0,0-2.53c0-.16,0-.33,0-.49-.06-.71-.11-1.43-.22-2.13l0-.21a.37.37,0,0,1,0-.12c-.14-.8-.3-1.6-.51-2.39h0c-.1-.41-.27-.81-.4-1.21s-.25-.86-.42-1.27v0l.76-.82a7.07,7.07,0,0,0,1.26-1.61,3,3,0,0,0,.32-1.17,2.17,2.17,0,0,0-.21-1.15s0-.06,0-.09a2.48,2.48,0,0,0-1-1,5.89,5.89,0,0,0-1-.42,21.35,21.35,0,0,0-4.56-1h0a31.22,31.22,0,0,0-3.44-3.54,2.15,2.15,0,0,1-.18-.17,3.93,3.93,0,0,1,.62,0,1.33,1.33,0,0,1,.33.06.28.28,0,0,1,.14.08h0a3.14,3.14,0,0,1,.25.32l.12.16.11.13.27.27h0l.14.09c.07,0,.12.09.19.13a2.06,2.06,0,0,0,.34.14h.07a2.6,2.6,0,0,0,.59.11h0a5.91,5.91,0,0,0,1,0c2.38-.22,4.74-.46,7.11-.67l.93-.07,2.53-.18,1-.06c1.13-.06,2.28-.1,3.42-.11,1.32,0,2.73,0,4.14,0,.48,0,1,0,1.43.05.76,0,1.52.12,2.27.22a17.55,17.55,0,0,1,6.15,1.83.62.62,0,0,0,.3.08.69.69,0,0,0,.32-.07l0,0,1.77-.93,1.17-.61.72-.38,1.45-.78,2.24-1.19c.69,0,1.37.06,2,.05h.58c.62,0,1.25-.05,1.87-.11h.16c.51-.06,1-.12,1.56-.21l1-.14.66-1.41c-.63.08-1.25.16-1.88.26l-.29,0a25.51,25.51,0,0,1-5.62.23h-.17l-.35.07-1.79.95-4.38,2.33-1.11.59c-.17-.09-.35-.14-.52-.22h0a17,17,0,0,0-2.4-.88l-.75-.21-.48-.14-.4-.07c-.6-.13-1.2-.23-1.81-.32s-1.51-.17-2.25-.22l-1,0c-1.63-.07-3.23-.08-4.71-.07-3.82,0-7.6.38-11.36.74l-3.75.36a5.11,5.11,0,0,1-.75,0,1,1,0,0,1-.61-.19,5.55,5.55,0,0,1-.52-.62c-.05-.06-.09-.12-.16-.18l-.08-.07-.22-.17a2.39,2.39,0,0,0-.32-.15l-.09,0a2.78,2.78,0,0,0-.59-.11A6.85,6.85,0,0,0,199,210a6.44,6.44,0,0,1-.87.08h-.22l-.19,0a17.87,17.87,0,0,1-2.91-.54,25,25,0,0,0-4.63-1h-.23a3.06,3.06,0,0,1,.81-.64.55.55,0,0,1,.11-.08,7.32,7.32,0,0,1,2.34-.68,25.06,25.06,0,0,1,5.47-.21,28.19,28.19,0,0,1,2.91.34.65.65,0,0,0,.69-.34,3.5,3.5,0,0,1,1.76-1.49,11.16,11.16,0,0,1,2.65-.71c4.59-.78,9.19-.65,13.92-1.28s9.66-1.4,14.48-1.63a131,131,0,0,0,14.34-1.46c1-.16,2.05-.37,3.07-.57l.7-1.47c-1.31.27-2.64.53-4,.74-1.77.28-3.53.51-5.31.71s-3.55.39-5.34.52c-1.18.09-2.37.16-3.55.22-4.93.23-9.77,1-14.6,1.64-3.44.46-6.91.5-10.43.83-1.18.11-2.36.25-3.54.45-.25,0-.5.1-.75.15a10.71,10.71,0,0,0-2.21.65,5.34,5.34,0,0,0-1.68,1.14,5.86,5.86,0,0,0-.44.54l-1.3-.18c-.43-.05-.88-.1-1.32-.12a29,29,0,0,0-2.92,0,24.57,24.57,0,0,0-2.85.27,10.22,10.22,0,0,0-2.07.51,5.41,5.41,0,0,0-.68.31,4.32,4.32,0,0,0-1.72,1.65c-.29.09-.59.16-.87.28a11.38,11.38,0,0,0-3.68,2.37,10.93,10.93,0,0,0-2.49,3.6,6.19,6.19,0,0,0-2.31,1.3,10,10,0,0,0-1.64,2.34c-1,1.78-2,3.59-2.88,5.43-.45.93-.87,1.86-1.25,2.81s-.73,1.9-1,2.86a59.87,59.87,0,0,0-2.51,11.81c-.25,2-.42,4-.55,6-.16,2.42-.25,4.83-.34,7.22-.25,7.64-.16,15.28-.31,22.89,0,2.54-.13,5.07-.25,7.61,0,1-.11,1.9-.17,2.85-.15,2.34-.35,4.67-.57,7-.67,7-1.58,14-2.28,21-.45,4.47-.9,8.94-1.32,13.42s-.77,9-1.06,13.45c-.24,3.71-.44,7.42-.55,11.13q-.07,2.79-.1,5.58c0,1.86,0,3.72,0,5.59,0,2.46,0,4.9-.18,7.33q-.1,1.59-.25,3.18c-.1,1.06-.21,2.11-.32,3.17-.35,3.17-.78,6.33-1.19,9.52-.27,2.13-.52,4.26-.75,6.41-.11,1.08-.23,2.16-.31,3.24s-.23,2.43-.37,3.64-.29,2.43-.47,3.64c-.34,2.42-.77,4.83-1.29,7.21-.25,1.19-.53,2.38-.82,3.57a88.67,88.67,0,0,1-3.29,10.43q-1.38,3.65-2.84,7.28t-3,7.24q-1.49,3.61-3,7.2t-3.14,7.16a64,64,0,0,0-4.32,13.83c-.13.68-.28,1.35-.39,2-.13.86-.23,1.74-.28,2.62a20.85,20.85,0,0,0,.48,6.28,18.85,18.85,0,0,0,.61,2,13,13,0,0,0,.68,1.54,3.84,3.84,0,0,0,.26.5,8.34,8.34,0,0,0,.62.95,6.55,6.55,0,0,0,.81.9l-.47.13-.86.29a5.62,5.62,0,0,0-1.73.91,3.43,3.43,0,0,0-.51.52ZM206.59,217l-1.22.37-.28.08c-.24-.34-.49-.68-.73-1A19.44,19.44,0,0,1,206.59,217Zm.77,3.46-.37.4-.67.73a.75.75,0,0,0-.17.33.7.7,0,0,0,.05.34v0a.11.11,0,0,0,0,.06h-.13c-.36,0-.93.09-1.6.14a13.61,13.61,0,0,1-1.9.06,1.87,1.87,0,0,1-.63-.11,4.88,4.88,0,0,1-.85-.95,1.5,1.5,0,0,1-.31-.84l.09-.28a1.92,1.92,0,0,1,1.14-.61l2.48-.75,1.28-.39,2.58-.79a.82.82,0,0,1,.11.14,1,1,0,0,1,.11.53,1.88,1.88,0,0,1-.19.66,4.29,4.29,0,0,1-.45.64Zm-37.51,270c-.21-.48-.44-1-.69-1.45-.34-.73-.71-1.47-1.1-2.19a24.07,24.07,0,0,0-1.31-2.11,2.35,2.35,0,0,0-1.81-1,3.06,3.06,0,0,0-.55,0,4.1,4.1,0,0,0-.79.18,5.39,5.39,0,0,0-.73.31,7.09,7.09,0,0,0-.9.52c-.27.18-.53.37-.76.55-.49.39-.92.8-1.36,1.2s-1.06,1-1.59,1.4a4,4,0,0,0-1.21-.29,8.58,8.58,0,0,0-2.57.35,7.68,7.68,0,0,1-2.23.32,3,3,0,0,1-.57-.09,8.52,8.52,0,0,1-1.87-.86,7.16,7.16,0,0,0-2.27-.88l-.46-.05c-.63,0-1.23,0-1.78,0l-.7-.31c-.24-.1-.49-.21-.76-.3a6.36,6.36,0,0,0-1.67-.37h-.13a6.47,6.47,0,0,0-.68,0,5.88,5.88,0,0,1-2-2.16,14.13,14.13,0,0,1-1.39-3.7,19.42,19.42,0,0,1-.46-5.89,24.29,24.29,0,0,1,.29-2.5,61.4,61.4,0,0,1,4.62-15.54q6.36-14.31,12-28.94a104.77,104.77,0,0,0,6.31-28.85c.72-8.6,2.25-17,2.81-25.55.16-2.46.25-4.93.19-7.44-.14-7.41.12-14.81.6-22.19.58-9,1.49-17.89,2.38-26.83.93-9.31,2.25-18.64,2.85-28.06.06-1,.12-1.91.16-2.87.5-10.19.23-20.38.57-30.52.08-2.39.18-4.79.33-7.18.51-8,1.7-15.84,5.21-23,.88-1.82,1.84-3.6,2.85-5.36a9,9,0,0,1,1.4-2,5.14,5.14,0,0,1,2.08-1.1.63.63,0,0,0,.4-.39,9.93,9.93,0,0,1,5.9-5.62.66.66,0,0,0,.44.15,8.64,8.64,0,0,1,1.2,0c.36,0,.72.07,1.08.13,1.06.18,2.13.5,3.31.81.54.14,1.08.27,1.64.37s.89.13,1.33.18l.55.42.47.37.34.29.12.1c.3.27.61.54.9.83l.16.16.14.14c.35.35.69.7,1,1.05l.07.08.52.6.57.65h0c.23.26.44.52.66.78s.54.73.81,1.11l-2.09.64-.47.15a3.23,3.23,0,0,0-1,.54,2.35,2.35,0,0,0-.42.49,1.74,1.74,0,0,0-.19.43,1.64,1.64,0,0,0-.09.45,1.2,1.2,0,0,0,0,.23,2.52,2.52,0,0,0,.29,1.05,3.23,3.23,0,0,0,.21.37,5.27,5.27,0,0,0,.52.66,7.63,7.63,0,0,0,.56.55,1.93,1.93,0,0,0,1,.4l.37,0c.33,0,.68,0,1,0l1.06-.07.93-.09.61-.06.51,0c.11.33.23.65.33,1,0,.16.08.31.13.47.16.62.31,1.25.43,1.88a2.63,2.63,0,0,0,.05.33c0,.11,0,.22.05.33.09.6.15,1.21.2,1.81h0l0,.64a22.68,22.68,0,0,1,0,2.43l0,.38a3.29,3.29,0,0,1,0,.38c0,.55-.11,1.22-.21,1.93a21.83,21.83,0,0,1-.39,2.3,6.51,6.51,0,0,1-1.65,3.42c-.76.65-2,1.08-3.08,1.89a17.38,17.38,0,0,0-3.52,3.54,40.15,40.15,0,0,0-4.35,7.7,80.54,80.54,0,0,0-4.69,16.85,428.85,428.85,0,0,0-6.81,53.21l0,.37c-1.28,19.84-4.18,39.82-6.15,59.77-1.24,12.74-3.06,25.63-3.89,38.54-.36,5.53-.54,11.06-.42,16.58a63.38,63.38,0,0,0,4.83,23.42c1.37,3.21,2.37,6.46,4.77,9.37a13,13,0,0,1,2.11,2.6,7.83,7.83,0,0,1,.77,3.28c0,.19,0,.38,0,.57a11.75,11.75,0,0,1-1.07,4,20.37,20.37,0,0,1-1.53,2.9,4.45,4.45,0,0,1-2.06,1.91,8.58,8.58,0,0,1-3,.25l-.26,0c-.22,0-1.51-.12-2.32-.26a3.09,3.09,0,0,1-.51-.12l0,0a.06.06,0,0,0,0,0,.64.64,0,0,0-.24-.09.66.66,0,0,0-.26,0,.74.74,0,0,0-.24.11.83.83,0,0,0-.17.19v0a.53.53,0,0,0-.09.2.78.78,0,0,0,0,.26,5.28,5.28,0,0,1,.12,1.55,5.74,5.74,0,0,1-1.14,3.14,3.2,3.2,0,0,1-1.38,1,10.61,10.61,0,0,0-.49-2C170.22,491.27,170,490.88,169.85,490.48Zm-21.13-2.27.48.23.5.27a7.4,7.4,0,0,0,1.66.71,4.18,4.18,0,0,0,.82.13,6.16,6.16,0,0,0,1.36-.08c.44-.07.85-.17,1.25-.27s.79-.19,1.16-.25a4.91,4.91,0,0,1,.65,0c-.67.35-1.39.67-2.13,1a11.45,11.45,0,0,0-2.9,1.77,2.67,2.67,0,0,0-.53-1.11,16.11,16.11,0,0,0-3-2.68A7.16,7.16,0,0,1,148.72,488.21ZM148,647.49c-.31,0-.61,0-.93.06,0-.16,0-.32.07-.47v-.21a10.64,10.64,0,0,0,0-1.21c0-.39-.07-.77-.08-1.15s0-.74-.07-1.09a9.31,9.31,0,0,0-.45-2.06,7.53,7.53,0,0,0-.42-1.06,10.17,10.17,0,0,1-.5-1.4,9.68,9.68,0,0,1-.31-1.44c-.17-1-.25-2-.38-3.1-.27-2.49-.53-5-.79-7.47a2.43,2.43,0,0,0,0-.32c.52-3.37.87-6.82,1.1-10.28.18-2.79.29-5.57.34-8.31.09-5.46.53-10.5.67-16,.24-8.84-.48-17.63-.48-26.38q0-4.42.29-8.79c.37-5.68,1-11.33,1.81-17q.42-3.09.88-6.17c.33-2.22.59-4.45.74-6.7,0-.74.07-1.49.09-2.24.21-.81.44-1.62.66-2.43.45-1.58.9-3.16,1.28-4.77a11.74,11.74,0,0,0,.23-1.57c0-.1,0-.21,0-.31s0-.48,0-.72a20.32,20.32,0,0,0-.62-4.91c-.19-.85-.41-1.69-.63-2.53a18,18,0,0,0,.32-2.33,11.23,11.23,0,0,0,0-2,32.54,32.54,0,0,1-.54-5.48c0-.24,0-.48.08-.73a9,9,0,0,1,.37-1.5l0,0c.09-.08.2-.18.29-.28a4.44,4.44,0,0,0,.28-.34,2.72,2.72,0,0,0,.38-1,2.76,2.76,0,0,0,.05-.34c.13-.15.24-.32.38-.46a9.15,9.15,0,0,1,2.88-1.82,23,23,0,0,0,3.42-1.72h0a13.09,13.09,0,0,0,1.11-.86c.89-.76,1.66-1.58,2.5-2.24a8.85,8.85,0,0,1,1.42-.93,3,3,0,0,1,1.41-.38,1,1,0,0,1,.82.48,36.68,36.68,0,0,1,3,5.57,9.63,9.63,0,0,1,.89,2.82,6.6,6.6,0,0,1,.07,1.32c0,.05,0,.11,0,.16,0,.29-.05.58-.1.89-.38,2.15-1.65,4.11-2.33,6.47s-1.36,5-2,7.47c-1.5,5.78-3,11.56-4.36,17.38-1.31,5.67-2.15,11.43-3.43,17-1.07,4.68-1.25,9.72-1.61,14.39-.07.93-.15,1.86-.21,2.79-.52,8-.62,16.07-.68,24.1q0,4.33-.33,8.69c-.39,6-1,12-1.53,17.92A295.11,295.11,0,0,1,148,647.49Zm-3.28-90.8q-.29,4.41-.3,8.88c0,4.41.18,8.81.33,13.2,0,1.1.07,2.2.11,3.29.09,3.29.14,6.57.06,9.85l-.09,2c-.17,4.7-.52,9.18-.6,14,0,1.36-.06,2.73-.11,4.11s-.12,2.76-.21,4.14c-.1,1.6-.25,3.19-.41,4.78-.07-.53-.12-1.06-.17-1.59-.13-1.06-.22-2.13-.28-3.2-.08-1.61-.09-3.22-.09-4.85s0-3.25.06-4.88c0-.49,0-1-.05-1.43-.05-1.43-.18-2.83-.33-4.21-.2-1.84-.41-3.65-.44-5.51q-.1-8.87.29-17.74c.08-2,.2-3.94.32-5.91,0-.35,0-.71.08-1.06l.14-2.12c.32-4.28.56-8.63.91-12.94.11-1.44.24-2.88.39-4.3.23-2.29.51-4.56.87-6.81.19-1.12.39-2.24.62-3.35q.73-3.58,1.53-7.15c-.18,1.19-.34,2.38-.51,3.57-.1.69-.2,1.38-.29,2.06s-.19,1.43-.28,2.14C145.63,546.7,145.06,551.68,144.74,556.69Zm14.69,104.2c-.64-.13-1.38-.51-2.31-.66l-.23,0a2.73,2.73,0,0,0-2.1.79l0,.05s0,0,0,0a1.87,1.87,0,0,0-.55.87,4.59,4.59,0,0,0-.17.9l-.16-.13a1.69,1.69,0,0,0-.68-.17,2.88,2.88,0,0,0-.59,0,37.85,37.85,0,0,0-5.05,1.06c-.16-1.11-.33-2.23-.48-3.36a6.91,6.91,0,0,0-.81-2.64A8.48,8.48,0,0,0,144,655.6a3.79,3.79,0,0,1-1-1.12h0c.69-.79,1.32-1.61,2-2.48h0l.27-.35a.69.69,0,0,1,.08-.14h0a15.88,15.88,0,0,0,1.4-2.6h0a13.38,13.38,0,0,0,1.76-.11l.25,0h0c.8.64,1.66,1.17,2.42,1.71a6.44,6.44,0,0,1,2.22,2.14,27.42,27.42,0,0,0,4.79,6.59,10.54,10.54,0,0,1,1,1.06A1.93,1.93,0,0,1,159.43,660.89Zm-13.21,4.48.71-.2.63-.17a38,38,0,0,1,5.14-1.12H153a.8.8,0,0,1,0,.17c0,.22-.1.45-.14.66,0,0,0,.05,0,.07a3.7,3.7,0,0,1-.11.43,1.15,1.15,0,0,0-.07.21.51.51,0,0,1,0,.12,1.37,1.37,0,0,0-.07.17,3,3,0,0,1-.25.49,1,1,0,0,1-.13.25,2.91,2.91,0,0,1-.47.6,5,5,0,0,1-.76.54,6,6,0,0,1-1.21.46,2.79,2.79,0,0,1-.32.07c-.41.11-.85.19-1.32.28-1.36.24-2.68.54-4,.69a6,6,0,0,1-.9,0,1.33,1.33,0,0,1-.64-.16h0a1,1,0,0,1-.26-.21l0,0a1.69,1.69,0,0,1-.26-.47c0-.07,0-.14-.07-.23a4,4,0,0,1-.14-.48c0-.05,0-.11,0-.16s0-.07,0-.09l.12-.27a5,5,0,0,1,2-.89l1.52-.48.19-.06.63-.19Zm30,53.3,0-.05,0,0,.08-.1.29-.3c.24-.2.55-.4.76-.56a5.82,5.82,0,0,1,3.52-1.09h0a3.39,3.39,0,0,1,1.89.89,2.66,2.66,0,0,1,.54.63,1.9,1.9,0,0,1,.29.65,1.41,1.41,0,0,1,0,.42l0,.22c0,.07-.05.15-.07.24a6.14,6.14,0,0,1-.51,1,6.58,6.58,0,0,0-.7,1.67c0,.28-.09.55-.11.8A11.93,11.93,0,0,0,183,727a1.51,1.51,0,0,1,0,.49,1.15,1.15,0,0,1-.6,1,.81.81,0,0,1-.46.13.78.78,0,0,1-.49-.24,2.27,2.27,0,0,1-.52-.7,5.26,5.26,0,0,1-.46-1.88,6.77,6.77,0,0,0-.54-2.33,10.87,10.87,0,0,0-1.49-2.23c-.16-.19-.32-.39-.48-.56s-.38-.38-.58-.56l-.3-.28a5.68,5.68,0,0,1-.65-.65A.91.91,0,0,1,176.21,718.67ZM169.35,703a1.68,1.68,0,0,1,.16-.62,2.62,2.62,0,0,1,.34-.59s0,0,0-.05l.46-.67a.56.56,0,0,1,.08-.1,2,2,0,0,1,.54-.54,8.72,8.72,0,0,1,4.49-1.55h.14a1.64,1.64,0,0,1,.69.22l.36.22.23.23a3.14,3.14,0,0,1,.42.5c.07.11.15.18.21.29a2.48,2.48,0,0,1,.32,1.52c0,.26-.05.56-.07.89v.42c-.08,3.93.82,8,3.48,11.16.3.33.69.78,1.06,1.24a4.16,4.16,0,0,0-1.25-.32h-.1a7.09,7.09,0,0,0-4.32,1.35c-.18.13-.51.35-.83.61-.16.17-.32.33-.48.51a31,31,0,0,0-1.5-6.71,9.9,9.9,0,0,0-.88-2.26c-.6-1-1.22-1.85-1.71-2.77a8.28,8.28,0,0,0-1.11-1.45,3.14,3.14,0,0,1-.72-1.13ZM157,673a6,6,0,0,1,.23-1.12,9.31,9.31,0,0,1,.39-1.06,7.5,7.5,0,0,1,1.12-1.73,1.77,1.77,0,0,0,.14-.2,7.7,7.7,0,0,1,4.14-2.34l0,0,.24.12a2,2,0,0,1,.19.12l.44.31.15.13.55.46.38.34a11.11,11.11,0,0,1,1.91,2.22,41.06,41.06,0,0,1,2.79,6.24c1.39,3.24,2.67,6.53,3.87,9.82a24.25,24.25,0,0,0,1.4,4l2.63,4.68a6.54,6.54,0,0,1,.7,1.46l0,.44a1.69,1.69,0,0,1-.36.85,3.49,3.49,0,0,1-.53.54h0a3.16,3.16,0,0,0-1.79-.73h-.26a9.84,9.84,0,0,0-5.21,1.76,3.59,3.59,0,0,0-.83.84c-.22.28-.37.55-.59.84a.06.06,0,0,1,0,0h-.1a25,25,0,0,1-2-3.21,9.72,9.72,0,0,1-1-3.63c-.13-1.27-.16-2.62-.4-4.05a63.28,63.28,0,0,0-2.1-8.45,18.21,18.21,0,0,0-2.52-5.06,17.79,17.79,0,0,0-1.85-2.2l-.3-.25-.4-.32c-.32-.23-.68-.5-.94-.71Zm-4.31-2.76c-.15-.36-.26-.82-.49-1.29-.09-.18-.15-.36-.21-.52l.09,0a5.17,5.17,0,0,0,.53-.39,4.67,4.67,0,0,0,.71-.88c.06-.08.11-.19.18-.28a6.62,6.62,0,0,0,.3-.66c0-.12.1-.24.14-.36a5.35,5.35,0,0,0,.17-.6l.19-.18a3.88,3.88,0,0,0,.69-.88,3.6,3.6,0,0,0,.15-.36,2.31,2.31,0,0,0,.08-.4c.1-.43.13-.82.21-1.05l.21-.35.09-.1a1.38,1.38,0,0,1,1.09-.38l.11,0c.6.07,1.26.4,2.06.59a3,3,0,0,0,.39.08l.37,0h.1c.29,0,.55,0,.8,0a12.31,12.31,0,0,1,1.46,0,2.36,2.36,0,0,1,.81.19,2.43,2.43,0,0,1,1.17,1.62,7.8,7.8,0,0,1,.11,1.72,1.77,1.77,0,0,1-.24-.16,2,2,0,0,0-.86-.3l-.29,0A9,9,0,0,0,157.9,668a8.68,8.68,0,0,0-1.74,3c-.16.08-.33.17-.49.23a3.34,3.34,0,0,1-1.36.21,2.19,2.19,0,0,1-1-.29l0,0-.18-.1A1.54,1.54,0,0,1,152.67,670.25Zm.21,37.67a8.49,8.49,0,0,1-.26,1.58,3.55,3.55,0,0,0-.74-.21l-.44,0a6.17,6.17,0,0,0-3.21.74,17.75,17.75,0,0,0-2.87,2l-.61.52-.24-.12v0a5.74,5.74,0,0,1-1-.83,0,0,0,0,0,0,0,10,10,0,0,1-.79-1l0-.07a11.18,11.18,0,0,1-.63-1.16,9.52,9.52,0,0,1-.93-3.1,3.24,3.24,0,0,1,0-.53,4,4,0,0,1,.1-.69c.06-.22.12-.46.2-.7s.25-.75.41-1.15c0-.12.09-.22.12-.34v-.05c.13-.38.22-.74.31-1.06a47,47,0,0,0,1.45-8.62c0-.52.1-1,.13-1.57.11-1.67.13-3.33.23-5,0-.7.1-1.39.19-2.07.06-.49.11-1,.14-1.44a19.21,19.21,0,0,0-.06-3.28v-.09c0-.18,0-.39-.08-.6,0,0,0-.05,0-.09a2.32,2.32,0,0,0-.06-.41c0-.12-.06-.25-.08-.37a.79.79,0,0,0-.07-.28.12.12,0,0,0,0-.11,3.86,3.86,0,0,0-.24-.75c-.33-.65-.72-1.08-.88-1.51a7.55,7.55,0,0,1-.59-3.41,8.8,8.8,0,0,1,.16-1.07c.06-.21.11-.41.18-.62l.17,0,.3,0a8,8,0,0,0,1.11,0c1.41-.15,2.78-.47,4.1-.7l.18,0,.72-.13.34-.08c.23-.06.46-.11.68-.18l.37-.12.18-.06c.06.16.14.32.2.47a10,10,0,0,1,.43,1.16,3.09,3.09,0,0,0,.79,1.21,28.52,28.52,0,0,0-1.27,4.89c-.46,2.12-1.47,4.12-2.08,6.41a38.21,38.21,0,0,0-1.18,7.29,43,43,0,0,0,0,4.32,13.14,13.14,0,0,0,1.12,5.46,17,17,0,0,0,3.15,4.39A4,4,0,0,1,152.88,707.92Zm-10.09-21.55c-.11,1.66-.13,3.33-.23,5,0,.5-.08,1-.13,1.51-.18,1.7-.35,3.39-.63,5.05a35.18,35.18,0,0,1-.16-4.28c0-1.54,0-3,.12-4.38a20.59,20.59,0,0,1,.6-3.93c.22-.79.48-1.54.74-2.28,0,.4-.07.8-.12,1.2C142.89,684.93,142.83,685.66,142.78,686.38Zm13.79,49.94a1.56,1.56,0,0,0-.33.14L152.43,739a4.18,4.18,0,0,0-.65.52,1.78,1.78,0,0,0-.33.63,4.3,4.3,0,0,1-.26-.73,20.45,20.45,0,0,1-.41-2.34c0-.23-.07-.44-.09-.62q-.7-3.9-1.74-7.73a54.65,54.65,0,0,0-3.41-10.25,10.58,10.58,0,0,1-1-2.48c.14-.13.29-.26.45-.43a3.62,3.62,0,0,0,.74-1.14,2.5,2.5,0,0,0,.23-.63.07.07,0,0,0,0-.05.6.6,0,0,0-.1-.5.41.41,0,0,0,.12-.11,1,1,0,0,0,.15-.11,16.12,16.12,0,0,1,2.63-1.84,4.82,4.82,0,0,1,2.54-.61l.32,0a2.11,2.11,0,0,1,.58.18,2.8,2.8,0,0,1,.59.34,4.13,4.13,0,0,1,.51.45,3.74,3.74,0,0,1,.49.61,4.7,4.7,0,0,1,.79,2.76,2.83,2.83,0,0,1-.13.71,28.81,28.81,0,0,0-1.42,7,20.78,20.78,0,0,0,.88,7.58c.53,1.61.7,3.32,1.8,5A10.55,10.55,0,0,0,156.57,736.32Zm12,10.42a1,1,0,0,0-.25.09,4.5,4.5,0,0,1-.7.27,3.08,3.08,0,0,0-1,.51l-.11.13a3.8,3.8,0,0,0-.93.61c-.09.1-.21.2-.35.34a1.23,1.23,0,0,0-.25.54c-2.07-1.34-4.14-2.56-6-4v0c-.4-.31-.76-.59-1.11-.91a12.45,12.45,0,0,0-3.31-1.79,5.39,5.39,0,0,1-.57-.33,1.36,1.36,0,0,1-.22-.12l-.1-.08a3,3,0,0,1-.3-.25c-.08-.07-.18-.13-.25-.21a1.49,1.49,0,0,1-.23-.31,1,1,0,0,1-.22-.64v0l.07-.14a2.57,2.57,0,0,1,.41-.32c1.28-.83,2.54-1.67,3.82-2.52.06,0,.1,0,.16,0a.54.54,0,0,1,.25-.07,1.41,1.41,0,0,1,.4.11,2.43,2.43,0,0,1,.61.34,7.16,7.16,0,0,1,.65.46c1.9,1.49,3,4,5,6a6.24,6.24,0,0,0,3.87,2h0l.28-.07.28.19Zm.05,3.42a2.7,2.7,0,0,1-.33-.09l-.81-.23c-.25-.09-.51-.15-.78-.23v0a.37.37,0,0,1-.14,0l-.23-.08.17-.17a2.8,2.8,0,0,1,.78-.46l.26-.26a1.65,1.65,0,0,1,.51-.23l.1,0a4.32,4.32,0,0,0,.83-.35h.12l.12,0,.21,0a1.32,1.32,0,0,1,.29.14l.53.28a9.05,9.05,0,0,0,2.47.95c.17,0,.34,0,.5,0l.46,0a2.31,2.31,0,0,1,.56.09l.17.1a.78.78,0,0,1,.06.39v0a1.6,1.6,0,0,1-.34.82l-.46,0h-.15c-.35,0-.68,0-1,0l-.36,0-.5,0,0,0a10.7,10.7,0,0,1-1.08-.1A14.7,14.7,0,0,1,168.58,750.15Zm-14.7-1.51a2.36,2.36,0,0,1,.15-.58l0-.05.13,0,0,0h0a1.55,1.55,0,0,0,.33-.17l.37-.31.06,0,.19-.21.11-.15s0,0,0,0a1,1,0,0,0,.3,0,14.77,14.77,0,0,0,2.8-.59h0c2,1.53,4.1,2.77,6.13,4.11l0,0a2.55,2.55,0,0,0,1.19.39,2.7,2.7,0,0,0,.64-.06h0c.6.18,1.2.38,1.81.54s1,.24,1.55.35a.36.36,0,0,0-.13,0,5.23,5.23,0,0,1-1.16,0c-1.22-.08-2.54-.53-4-.73-2.6-.4-5.26-.71-7.87-1l-.76,0a2.53,2.53,0,0,1-1-.22,6.91,6.91,0,0,1-.73-.56.82.82,0,0,1-.26-.51Zm-.32-3.77a28.87,28.87,0,0,0-2.62-3,.9.9,0,0,1-.16-.17c-.24-.28-.47-.55-.68-.85a8.89,8.89,0,0,1-.62-.9c-.41-.6-.79-1.22-1.21-1.9-1.7-2.74-3.68-5.19-5.2-7.88l-4.69-8.33a4.22,4.22,0,0,1-.48-1.06c0-.05,0-.1,0-.14a2.83,2.83,0,0,1,0-.49v-.09c0-.17,0-.31.08-.31a6.63,6.63,0,0,1,.69-.8,1,1,0,0,0,.17-.2,7.79,7.79,0,0,1,.69-.59,8.53,8.53,0,0,1,3.17-1.62c.18,0,.35-.12.56-.16h.09l0,0a3.76,3.76,0,0,0,.1.44,5.64,5.64,0,0,0,.31.82s0,.05.05.09a11.82,11.82,0,0,0,.58,1.26v0a25.17,25.17,0,0,1,1,2.36c.16.43.32.86.44,1.29a3,3,0,0,1,.16.4c.21.7.43,1.39.62,2.09l.49,1.76c.19.69.37,1.41.57,2.1.68,2.51,1.26,5.05,1.7,7.62.07.46.18,1.29.34,2.17a11.42,11.42,0,0,0,.33,1.33,5.72,5.72,0,0,0,.57,1.24,2.42,2.42,0,0,0,.33.46,2.29,2.29,0,0,0,1.06.66l.2,0h.13s0,0,0,0l.48.42.17.11a9.69,9.69,0,0,0,.95.55,11.5,11.5,0,0,1,3,1.56,1.58,1.58,0,0,0,.21.17,1.28,1.28,0,0,1-.25.07c-.48.11-1,.2-1.45.26h-.72a.93.93,0,0,1-.59-.2A1.89,1.89,0,0,1,153.57,744.87Zm-16.55-26-.11.12s0,0,0,0v0a1.31,1.31,0,0,0-.24.51,1.87,1.87,0,0,0-.08.38V720a3.47,3.47,0,0,0,.08,1,5.12,5.12,0,0,0,.6,1.46c1.57,2.78,3.15,5.56,4.69,8.33,1.21,2.11,2.63,4,4,6,.44.64.87,1.28,1.28,2s.81,1.3,1.22,1.93a17,17,0,0,0,1.42,1.88,30.34,30.34,0,0,1,2.67,3,4,4,0,0,0,.93,1,1.21,1.21,0,0,0,.28.12l0,0-.28.1a3.73,3.73,0,0,1-1.6.33l-.34,0a3.59,3.59,0,0,1-1.16-.67,61.12,61.12,0,0,1-8.61-8.48c-3.25-3.64-6.43-7.31-8.3-11.67a7.91,7.91,0,0,1-.9-3.52,4.69,4.69,0,0,1,.08-.64,5.7,5.7,0,0,1,2.33-2.74l.07,0h.29A3.43,3.43,0,0,0,137,718.83Zm-4.67-14.25c.08-1.22.32-2.45.47-3.75.08-.54.11-1.06.15-1.6l.16-2.44c.26-3.18.34-6.35.85-9.41.08-.59.13-1.16.17-1.74.14-2.14,0-4.2.1-6.26.16-2.49.29-5,.46-7.49v-.07a5.91,5.91,0,0,1,.37-1.85v0a8.61,8.61,0,0,0,2.83-.48c.93-.29,1.85-.65,2.77-1h0v0a1.83,1.83,0,0,1,.06.2,2.82,2.82,0,0,0,.47.82,1.62,1.62,0,0,1,.16.15s.05.06.08.07v0a8.15,8.15,0,0,0-.26.84A8.75,8.75,0,0,0,141,672a8.65,8.65,0,0,0,.69,4c.3.68.71,1.13.9,1.55a2,2,0,0,1,.16.47,11.93,11.93,0,0,1,.29,1.73v0a30.68,30.68,0,0,0-1.93,5.21,20.38,20.38,0,0,0-.66,4.19c-.09,1.46-.1,2.93-.13,4.44a36.86,36.86,0,0,0,.65,7.79c-.09.31-.16.62-.24.88v0c-.15.38-.3.79-.45,1.2a8.84,8.84,0,0,0-.47,2.05,4,4,0,0,0,0,.72,10,10,0,0,0,1,3.53v0c.1.2.19.38.3.56,0,0,0,0,0,0a.08.08,0,0,0,0,.07.58.58,0,0,0,.14.24c.06.14.14.27.22.42s0,.05.07.09a10.68,10.68,0,0,0,.88,1.18.15.15,0,0,1,.07.06,7.38,7.38,0,0,0,1.13,1l0,0,.06,0c.18.12.41.2.59.32l.15.08v0a2.41,2.41,0,0,1-.48.7.66.66,0,0,1-.15.15,3,3,0,0,1-.34.31,3.87,3.87,0,0,0-.42,0l-.2,0a9.67,9.67,0,0,0-4.89,2.5,2.41,2.41,0,0,1-.87-.2,2.7,2.7,0,0,1-.39-.17,2,2,0,0,1-.63-.74,9.14,9.14,0,0,0-.65-1.18,7.78,7.78,0,0,1-.94-2.27c-.83-2.78-2.24-4.87-2.27-7.5A7.92,7.92,0,0,1,132.35,704.58Zm7.35-45.29a5.27,5.27,0,0,0,.76-.81,2.22,2.22,0,0,0,.5-1.19h0v-.07a1.69,1.69,0,0,0-.1-.62h0c.41-.38.79-.77,1.16-1.15h0a6,6,0,0,0,1.11,1.17,7.64,7.64,0,0,1,1.94,1.72,3.73,3.73,0,0,1,.4,1c.08.35.14.74.2,1.17.17,1.17.35,2.35.52,3.53-.93.26-1.86.55-2.77.82A6.49,6.49,0,0,0,141,666a1.59,1.59,0,0,0-.57,1.15c-1,.39-2,.75-2.93,1.05l0,0a7.26,7.26,0,0,1-2.5.42h-.11a3.78,3.78,0,0,1-.63-.15c0-.44,0-.89,0-1.33s.1-.85.15-1.27a.61.61,0,0,0,.51-.3A23.77,23.77,0,0,1,139.69,659.3Zm-3-169.63a2.22,2.22,0,0,1,.43-1.27,3.45,3.45,0,0,1,1.64-1,13.38,13.38,0,0,1,2.38-.65,4.57,4.57,0,0,1,.87-.07h.09a9,9,0,0,1,2.74.89l.17.09a14.89,14.89,0,0,1,5,3.77,2.71,2.71,0,0,1,.39,1.31c0,.07,0,.14,0,.21a2.67,2.67,0,0,1,0,.33,1.28,1.28,0,0,1-.23.71,2.85,2.85,0,0,1-.62.6l-.24.2a5.83,5.83,0,0,0-2,4.18,8,8,0,0,0,.27,2.57c.52,2,1,3.91,1.54,5.87q.37,1.38.69,2.75l0,.05a18.24,18.24,0,0,1,.57,5.24,11,11,0,0,1-.24,1.67c-.22.92-.47,1.84-.71,2.77-.41,1.5-.86,3-1.25,4.53h0a2,2,0,0,1-.08.28q-2,8-3.63,16.1c-1.84,9-2.13,18.46-2.82,27.56-.07,1.07-.15,2.13-.22,3.2q-.77,11.86-.62,23.75c.07,3.9.88,7.44.83,11.12a100.13,100.13,0,0,0,.32,13.11c.28,2.33.54,4.67.78,7,.16,1.57.33,3.14.5,4.71.12,1.08.22,2.16.34,3.24a19.55,19.55,0,0,0,1.29,6.35,8.72,8.72,0,0,1,.83,3.72,20.5,20.5,0,0,1,.1,2.22,3.92,3.92,0,0,1-.15.79c0,.07,0,.13,0,.2s-.09.2-.12.3a8.25,8.25,0,0,1-.34.77c-.1.2-.17.42-.29.62a.63.63,0,0,1-.08.13,14.15,14.15,0,0,1-.81,1.3s0,0,0,0a29.9,29.9,0,0,1-2.35,3c-.5.54-1,1.07-1.58,1.59a15.41,15.41,0,0,1-2.42-1,5.22,5.22,0,0,1-2.1-1.69c-.34-.56-.54-1.5-1-2.36a7.49,7.49,0,0,1-1-2.39,4.85,4.85,0,0,1,0-1c.1-1.47.72-3.15,1-4.75a55.58,55.58,0,0,0,.72-6c0-.16,0-.33,0-.49a57.09,57.09,0,0,0,.13-9.37c-.61-5.78-.6-11.69-.73-17.58s-.18-12,0-18,.29-12.06.33-18.09c0-1.05,0-2.11.12-3.17.29-4.65,1.1-9.38,1.59-14.06.45-4.35.79-8.69,1.27-13s1.08-8.7,1.4-13.11l.11-1.66c.22-3.44.4-6.87.62-10.3.13-2,.27-4,.44-5.93.08-1,.16-2,.22-3a33.86,33.86,0,0,0-.54-10,18.43,18.43,0,0,0-.9-3,8.29,8.29,0,0,0-1.69-2.17,5.45,5.45,0,0,1-1.06-3.5Zm12.2,11.54a6.52,6.52,0,0,1-.21-1.06,6.71,6.71,0,0,1,0-1.08,5.13,5.13,0,0,1,.29-1.4,10.52,10.52,0,0,0,0,1.37c.09,1.45.4,2.78.55,4.2l0,.35C149.31,502.79,149.1,502,148.89,501.21Z"/><path class="cls-2" d="M488.77,359.76c-.29-4.49-2.43-26.16-2.83-30.64s-.87-9-1.32-13.42c-.7-7-1.61-14-2.28-21-.22-2.33-.42-4.67-.57-7-.06-1-.12-1.9-.17-2.85-.12-2.53-.2-5.07-.25-7.61-.15-7.61-.06-15.25-.31-22.89-.08-2.39-.18-4.81-.34-7.22-.13-2-.3-4-.55-6a59.87,59.87,0,0,0-2.51-11.81c-.31-1-.66-1.92-1-2.86s-.8-1.88-1.25-2.81c-.9-1.84-1.87-3.65-2.88-5.43a10,10,0,0,0-1.64-2.34,6.19,6.19,0,0,0-2.31-1.3,10.93,10.93,0,0,0-2.49-3.6,11.38,11.38,0,0,0-3.68-2.37c-.28-.11-.58-.19-.87-.28a4.32,4.32,0,0,0-1.72-1.65,5.41,5.41,0,0,0-.68-.31,10.22,10.22,0,0,0-2.07-.51,24.57,24.57,0,0,0-2.85-.27,29,29,0,0,0-2.92,0c-.45,0-.89.07-1.32.12l-1.3.18a5.86,5.86,0,0,0-.44-.54,5.34,5.34,0,0,0-1.68-1.14,10.71,10.71,0,0,0-2.21-.65c-.25-.05-.5-.11-.75-.15-1.18-.2-2.36-.34-3.54-.45-3.52-.33-7-.37-10.43-.83-4.82-.64-9.67-1.41-14.6-1.64-1.19-.05-2.38-.13-3.55-.22-1.79-.13-3.56-.31-5.34-.52s-3.54-.44-5.31-.71c-1.34-.21-2.66-.47-4-.74l.7,1.47c1,.2,2,.4,3.07.57a131,131,0,0,0,14.34,1.46c4.83.22,9.64,1,14.48,1.63s9.34.5,13.92,1.28a11.16,11.16,0,0,1,2.65.71,3.5,3.5,0,0,1,1.76,1.49.65.65,0,0,0,.69.34,28.19,28.19,0,0,1,2.91-.34,25.06,25.06,0,0,1,5.47.21,7.32,7.32,0,0,1,2.34.68.55.55,0,0,1,.11.08,3.06,3.06,0,0,1,.81.64h-.23a25,25,0,0,0-4.63,1,17.87,17.87,0,0,1-2.91.54l-.19,0h-.22A6.44,6.44,0,0,1,451,210a6.85,6.85,0,0,0-1.23-.07,2.78,2.78,0,0,0-.59.11l-.09,0a2.39,2.39,0,0,0-.32.15l-.22.17-.08.07c-.07.06-.11.12-.16.18a5.55,5.55,0,0,1-.52.62,1,1,0,0,1-.61.19,5.11,5.11,0,0,1-.75,0l-3.75-.36c-3.77-.36-7.54-.71-11.36-.74-1.47,0-3.08,0-4.71.07l-1,0c-.75,0-1.51.12-2.25.22s-1.22.19-1.81.32l-.4.07-.48.14-.75.21a17,17,0,0,0-2.4.88h0c-.17.08-.35.14-.52.22l-1.11-.59-4.38-2.33-1.79-.95-.35-.07h-.17a25.51,25.51,0,0,1-5.62-.23l-.29,0c-.63-.1-1.25-.18-1.88-.26l.66,1.41,1,.14c.53.09,1.05.16,1.56.21h.16c.63.06,1.25.1,1.87.11h.58c.66,0,1.34,0,2-.05l2.24,1.19,1.45.78.72.38,1.17.61,1.77.93,0,0a.69.69,0,0,0,.32.07.62.62,0,0,0,.3-.08,17.55,17.55,0,0,1,6.15-1.83c.74-.1,1.51-.17,2.27-.22.47,0,1,0,1.43-.05,1.41,0,2.83-.06,4.14,0,1.14,0,2.29.06,3.42.11l1,.06,2.53.18.93.07c2.37.2,4.72.45,7.11.67a5.91,5.91,0,0,0,1,0h0a2.6,2.6,0,0,0,.59-.11H448a2.06,2.06,0,0,0,.34-.14c.07,0,.12-.08.19-.13l.14-.09h0l.27-.27.11-.13.12-.16a3.14,3.14,0,0,1,.25-.32h0a.28.28,0,0,1,.14-.08,1.33,1.33,0,0,1,.33-.06,3.93,3.93,0,0,1,.62,0,2.15,2.15,0,0,1-.18.17,31.22,31.22,0,0,0-3.44,3.54h0a21.35,21.35,0,0,0-4.56,1,5.89,5.89,0,0,0-1,.42,2.48,2.48,0,0,0-1,1s0,.06,0,.09a2.17,2.17,0,0,0-.21,1.15,3,3,0,0,0,.32,1.17,7.07,7.07,0,0,0,1.26,1.61l.76.82v0c-.18.42-.29.85-.42,1.27s-.29.8-.4,1.21h0c-.21.79-.37,1.58-.51,2.39a.37.37,0,0,1,0,.12l0,.21c-.11.71-.17,1.42-.22,2.13,0,.16,0,.33,0,.49a21.16,21.16,0,0,0,0,2.53c0,.27,0,.53.07.8,0,.47.1,1,.18,1.64a52,52,0,0,0-4.34,4.39,9.42,9.42,0,0,0-1.61,2.37,8.73,8.73,0,0,0-.6,2.82,15.88,15.88,0,0,1-1,5.52c-.61,1.31-2,2.23-3.45,3.23s-2.87,2.16-4.24,3.31a13.71,13.71,0,0,0-.62-2.51,16.91,16.91,0,0,0-5.41-7.47c.9-3.52-1.86-6.36-4.08-8.64-.34-.33-.63-.66-.93-1l-.3-.3q.73,1.7,1.46,3.41c1.69,1.83,3.11,3.86,2.55,6.14l.64,1.57a15.51,15.51,0,0,1,4.84,6.7,12.16,12.16,0,0,1,.68,3.07,8.94,8.94,0,0,1-.05,1.88c0,.24-.08.48-.13.73.79.28,1.57.57,2.34.89a11,11,0,0,0-1-.67,9.57,9.57,0,0,0,.17-2.23c1.54-1.36,3.17-2.63,4.87-3.85,1.35-1,3-2,3.86-3.74a17.07,17.07,0,0,0,1.15-6,9,9,0,0,1,.31-1.92c.06-.17.12-.33.19-.49a6.88,6.88,0,0,1,1.16-1.74c.08-.1.15-.19.24-.29.23-.27.49-.52.72-.78q1.38-1.5,2.85-2.89c.07.39.15.79.25,1.18a9.25,9.25,0,0,0,1.34,3.31,5,5,0,0,0,.75.83c1,.84,2.28,1.27,3.11,1.92.32.24.58.51.89.76a16,16,0,0,1,1.62,1.64c.25.29.53.56.76.87q.62.87,1.2,1.77c.39.6.76,1.21,1.1,1.84s.69,1.25,1,1.9.6,1.29.89,1.95a79.86,79.86,0,0,1,4.61,16.58q3.33,17.24,5.21,34.72.61,5.82,1.1,11.66.26,3.33.47,6.67l0,.37c.48,7.47,1.51,26.46,2.32,33.94m-22.29-142c-.24.33-.49.66-.73,1l-.28-.08-1.22-.37A19.44,19.44,0,0,1,445.64,216.49ZM442,219.83a4.29,4.29,0,0,1-.45-.64,1.88,1.88,0,0,1-.19-.66,1,1,0,0,1,.11-.53.82.82,0,0,1,.11-.14l2.58.79,1.28.39,2.48.75a1.92,1.92,0,0,1,1.14.61l.09.28a1.5,1.5,0,0,1-.31.84,4.88,4.88,0,0,1-.85.95,1.87,1.87,0,0,1-.63.11,13.61,13.61,0,0,1-1.9-.06c-.67-.06-1.24-.13-1.6-.14h-.13a.11.11,0,0,0,0-.06v0a.7.7,0,0,0,.05-.34.75.75,0,0,0-.17-.33l-.67-.73-.37-.4Zm27.18,137.54-2.3-33.23a428.85,428.85,0,0,0-6.81-53.21,80.54,80.54,0,0,0-4.69-16.85,40.15,40.15,0,0,0-4.35-7.7,17.38,17.38,0,0,0-3.52-3.54c-1.08-.8-2.32-1.24-3.08-1.89a6.51,6.51,0,0,1-1.65-3.42,21.83,21.83,0,0,1-.39-2.3c-.1-.71-.16-1.38-.21-1.93a3.29,3.29,0,0,1,0-.38l0-.38a22.68,22.68,0,0,1,0-2.43l0-.64h0c0-.61.11-1.21.2-1.81,0-.11,0-.22.05-.33a2.63,2.63,0,0,0,.05-.33c.12-.63.27-1.26.43-1.88,0-.16.08-.31.13-.47.09-.33.22-.65.33-1l.51,0,.61.06.93.09,1.06.07c.36,0,.71,0,1,0l.37,0a1.93,1.93,0,0,0,1-.4,7.63,7.63,0,0,0,.56-.55,5.27,5.27,0,0,0,.52-.66,3.23,3.23,0,0,0,.21-.37,2.52,2.52,0,0,0,.29-1.05,1.2,1.2,0,0,0,0-.23,1.64,1.64,0,0,0-.09-.45,1.74,1.74,0,0,0-.19-.43,2.35,2.35,0,0,0-.42-.49,3.23,3.23,0,0,0-1-.54l-.47-.15-2.09-.64c.26-.37.51-.75.81-1.11s.43-.52.66-.78h0l.57-.65.52-.6.07-.08c.32-.36.66-.71,1-1.05l.14-.14.16-.16c.28-.29.6-.56.9-.83l.12-.1.34-.29.47-.37.55-.42c.45,0,.9-.09,1.33-.18s1.1-.24,1.64-.37c1.18-.31,2.26-.63,3.31-.81.36-.06.72-.1,1.08-.13a8.64,8.64,0,0,1,1.2,0,.66.66,0,0,0,.44-.15,9.93,9.93,0,0,1,5.9,5.62.63.63,0,0,0,.4.39,5.14,5.14,0,0,1,2.08,1.1,9,9,0,0,1,1.4,2c1,1.75,2,3.54,2.85,5.36,3.51,7.17,4.7,15,5.21,23,.15,2.39.25,4.79.33,7.18.34,10.14.07,20.33.57,30.52,0,1,.1,1.92.16,2.87.61,9.42,1.92,18.75,2.85,28.06.9,8.94,3.24,33.57,3.81,42.52"/><polygon class="cls-3" points="486.74 501.68 487.03 501.65 487.03 501.65 486.74 501.68 486.74 501.68"/><polygon class="cls-3" points="486.74 501.68 487.03 501.65 487.03 501.65 486.74 501.68 486.74 501.68"/><circle class="cls-4" cx="564.17" cy="353.52" r="22.5"/><circle class="cls-4" cx="59" cy="274.73" r="22.5"/><circle class="cls-4" cx="59.15" cy="363.94" r="22.5"/><circle class="cls-4" cx="58.45" cy="449.05" r="22.5"/><polygon class="cls-5" points="233.73 309.76 206.44 351.35 261.02 351.35 233.73 309.76"/><line class="cls-6" x1="208.2" y1="280.77" x2="190.29" y2="478.2"/><rect class="cls-5" x="207.2" y="274.27" width="2" height="13" transform="translate(-90.23 462.75) rotate(-84.82)"/><rect class="cls-5" x="189.29" y="471.7" width="2" height="13" transform="translate(-303.14 624.51) rotate(-84.82)"/><line class="cls-7" x1="84.05" y1="365.93" x2="201.22" y2="378.25"/><line class="cls-6" x1="220.42" y1="379.5" x2="211.49" y2="479.13"/><rect class="cls-5" x="219.42" y="373" width="2" height="13" transform="translate(-177.24 565.17) rotate(-84.88)"/><rect class="cls-5" x="210.49" y="472.63" width="2" height="13" transform="translate(-284.6 647.02) rotate(-84.88)"/><line class="cls-7" x1="207.32" y1="289.94" x2="85.09" y2="275.67"/><line class="cls-7" x1="190.26" y1="461.41" x2="81.44" y2="451.7"/><line class="cls-7" x1="446.94" y1="357.6" x2="540.49" y2="356.14"/><line class="cls-6" x1="442.3" y1="282.56" x2="443.55" y2="364.21"/><rect class="cls-5" x="435.8" y="281.56" width="13" height="2" transform="translate(-4.29 6.84) rotate(-0.88)"/><rect class="cls-5" x="437.05" y="363.21" width="13" height="2" transform="translate(-5.53 6.84) rotate(-0.88)"/><polygon class="cls-5" points="249.46 408.43 222.17 450.03 276.75 450.03 249.46 408.43"/><polygon class="cls-5" points="410.75 294.96 383.46 336.56 438.04 336.56 410.75 294.96"/><circle class="cls-4" cx="256.87" cy="507.04" r="22.5"/><circle class="cls-4" cx="257.01" cy="586.24" r="22.5"/><circle class="cls-4" cx="256.32" cy="656.34" r="22.5"/><polygon class="cls-5" points="74.18 554.08 46.9 595.67 101.47 595.67 74.18 554.08"/><line class="cls-6" x1="109.22" y1="486.81" x2="109.96" y2="666.54"/><rect class="cls-5" x="102.72" y="485.81" width="13" height="2" transform="translate(-1.99 0.45) rotate(-0.23)"/><rect class="cls-5" x="103.46" y="665.54" width="13" height="2" transform="translate(-2.77 0.46) rotate(-0.24)"/><line class="cls-7" x1="116.78" y1="573.15" x2="233.96" y2="585.47"/><line class="cls-7" x1="229.59" y1="502.69" x2="125.14" y2="490.21"/><line class="cls-7" x1="229.61" y1="656.46" x2="120.36" y2="656.46"/><text class="cls-8" transform="translate(548.51 362.02)">C7</text><text class="cls-8" transform="translate(43.34 283.23)">C6</text><text class="cls-8" transform="translate(43.48 372.44)">C5</text><text class="cls-8" transform="translate(42.79 457.55)">C4</text><text class="cls-8" transform="translate(219.84 345.68)">L3</text><text class="cls-8" transform="translate(238.04 445.91)">L2</text><text class="cls-8" transform="translate(397.63 331.95)">L4</text><text class="cls-8" transform="translate(241.21 515.53)">C3</text><text class="cls-8" transform="translate(241.35 594.74)">C2</text><text class="cls-8" transform="translate(240.65 664.84)">C1</text><text class="cls-8" transform="translate(63.29 590)">L1</text></svg>