<?xml version="1.0" encoding="utf-8"?>
<!-- Generator: Adobe Illustrator 21.0.0, SVG Export Plug-In . SVG Version: 6.00 Build 0)  -->
<svg version="1.1" id="Layer_1" xmlns="http://www.w3.org/2000/svg" xmlns:xlink="http://www.w3.org/1999/xlink" x="0px" y="0px"
	 viewBox="0 0 648 864" style="enable-background:new 0 0 648 864;" xml:space="preserve">
<style type="text/css">
	.st0{fill:#FFFFFF;}
	.st1{fill:none;stroke:#231F20;stroke-width:0.25;stroke-miterlimit:10;}
	.st2{fill:#CCCCCC;}
</style>
<title>female-transradial-R</title>
<path class="st0" d="M423.5,279c0.6-1.4,0.9-2.9,0.9-4.5c0-0.5,0.1-1,0.2-1.5l0.1-0.3c0.2-0.4,0.5-0.7,0.9-1l0.2-0.2
	c0.2-0.1,0.4-0.3,0.6-0.4c0.7-0.5,1.5-1,2.3-1.4c0.1,0.3,0.1,0.7,0.2,1c0.2,1.1,0.6,2.1,1.1,3.1l0.6,0.9c0.8,1,1.9,1.8,2.5,2.5
	c0.3,0.3,0.5,0.6,0.7,0.9c0.5,0.6,0.9,1.2,1.3,1.9c0.2,0.3,0.4,0.6,0.6,1c0.3,0.6,0.7,1.2,1,1.8c0.3,0.6,0.6,1.2,0.9,1.8
	s0.6,1.2,0.8,1.9c0.2,0.7,0.5,1.2,0.7,1.9c0.2,0.7,0.4,1.3,0.6,2c0.4-0.3,0.7-0.5,1.1-0.8c-0.2-0.5-0.3-1-0.5-1.6
	c-1-2.6-2.2-5.2-3.6-7.6c-0.8-1.4-1.8-2.8-2.9-4c-0.9-1-1.9-1.7-2.5-2.5c-0.7-1-1.2-2.1-1.4-3.3c-0.1-0.7-0.3-1.4-0.3-2
	c0-0.6-0.1-1.2-0.2-1.6v-3.1c0-0.5,0.1-1,0.1-1.4c0-0.1,0-0.2,0-0.2c0-0.1,0-0.2,0-0.2c0.1-0.5,0.2-0.9,0.3-1.4
	c0-0.1,0.1-0.2,0.1-0.3s0.2-0.5,0.3-0.7l0.4,0.2l0.5,0.2l0.8,0.4l0.9,0.4c0.3,0.1,0.6,0.2,0.8,0.3l0.3,0.1c0.3,0.1,0.6,0.1,0.8,0
	c0.2-0.1,0.3-0.2,0.5-0.3s0.3-0.2,0.4-0.4c0.1-0.1,0.1-0.1,0.2-0.2c0.1-0.2,0.2-0.5,0.2-0.8c0-0.1,0-0.1,0-0.2c0-0.1,0-0.2-0.1-0.3
	c0-0.1-0.1-0.3-0.1-0.4c-0.1-0.2-0.2-0.4-0.3-0.5c-0.2-0.3-0.5-0.5-0.8-0.8l-0.4-0.3l-1.7-1.2c0.2-0.2,0.4-0.4,0.6-0.6l0.5-0.4
	l0.5-0.4l0.4-0.3c0.3-0.2,0.5-0.4,0.8-0.5l0.1-0.1l0.1-0.1c0.2-0.1,0.5-0.3,0.7-0.4h0.1l0.3-0.1l0.4-0.1l0.4-0.2
	c0.4,0.1,0.7,0.2,1.1,0.3c0.4,0.1,0.9,0.2,1.3,0.2c1,0.1,1.8,0.2,2.7,0.4c0.3,0.1,0.6,0.1,0.9,0.2s0.7,0.2,1,0.4h0.4
	c2.2,1.6,3.9,3.9,4.8,6.4c0.1,0.2,0.2,0.3,0.3,0.4c0.6,0.4,1.2,0.9,1.7,1.5c0.4,0.7,0.8,1.4,1.1,2.1c0.8,1.7,1.6,3.5,2.3,5.2
	c0.2,0.4,0.3,0.8,0.4,1.2c0.2-0.9,0.4-1.9,0.5-2.8c-0.6-1.3-1.1-2.6-1.8-3.9c-0.4-0.8-0.8-1.7-1.3-2.4s-1.2-1.3-1.9-1.8
	c-0.2-0.7-0.5-1.3-0.9-1.9c-0.3-0.6-0.7-1.2-1.2-1.8c-0.9-1.2-1.9-2.2-3-3.1c-0.2-0.2-0.5-0.3-0.7-0.5c-0.3-0.7-0.8-1.4-1.4-1.9
	c-0.2-0.2-0.4-0.3-0.5-0.5c-0.5-0.4-1.1-0.8-1.7-1.1c-0.8-0.4-1.5-0.8-2.3-1.1s-1.6-0.6-2.4-0.9c-0.4-0.1-0.7-0.2-1.1-0.3l-1-0.3
	c-0.1-0.2-0.2-0.4-0.4-0.6c-0.4-0.5-0.8-1-1.4-1.5c-0.6-0.5-1.2-0.9-1.8-1.2l-0.6-0.4c-1-0.5-1.9-1-2.9-1.5c-2.8-1.4-5.6-2.5-8.4-4
	c-3.9-2.1-7.8-4.2-11.8-6c-1-0.4-1.9-0.9-2.9-1.3c-1.4-0.7-2.9-1.4-4.3-2.1c-1.4-0.7-2.9-1.5-4.3-2.3c-1.1-0.6-2.1-1.2-3.2-1.9
	l0.6,1.4c0.8,0.5,1.6,1,2.5,1.4c3.8,2.1,7.7,4,11.6,5.8c3.9,1.8,7.8,3.9,11.7,5.9s7.5,3.4,11.2,5.5c0.8,0.4,1.5,0.9,2.1,1.4
	c0.6,0.5,1.1,1.1,1.4,1.8c0.1,0.2,0.3,0.4,0.6,0.5c0.8,0.2,1.5,0.4,2.4,0.6c1.5,0.5,3,1.1,4.4,1.9c0.7,0.4,1.3,0.8,1.9,1.3l0.1,0.1
	c0.2,0.2,0.5,0.5,0.7,0.8l-0.2-0.1c-1.2-0.3-2.5-0.6-3.7-0.7c-0.8-0.1-1.6-0.3-2.4-0.5h-0.2c-0.2-0.1-0.5-0.2-0.7-0.3
	c-0.3-0.2-0.7-0.3-1-0.4c-0.2-0.1-0.3-0.1-0.5-0.1h-0.7l-0.2,0.1h-0.1l-0.1,0.1c-0.2,0.2-0.3,0.3-0.4,0.3c-0.2,0.1-0.3,0.1-0.5,0
	c-0.2-0.1-0.4-0.2-0.6-0.3l-3-1.5c-3-1.5-6.1-3-9.2-4.2c-1.2-0.5-2.5-1-3.8-1.4L416,243c-0.6-0.2-1.2-0.4-1.8-0.5
	c-0.6-0.1-1-0.2-1.5-0.3l-0.3-0.1H412l-0.6-0.1c-0.6-0.1-1.3-0.1-1.9,0h-0.4l-0.9-0.8l-3.6-3.4l-1.5-1.3l-0.3-0.2h-0.1
	c-1.6-0.5-3.1-1.2-4.5-2l-0.2-0.1c-0.5-0.3-1-0.6-1.5-0.8l0.5,1.4l0.8,0.4c0.4,0.2,0.9,0.5,1.3,0.7l0.1,0.1c0.5,0.2,1,0.5,1.5,0.7
	l0.5,0.2c0.5,0.2,1.1,0.4,1.6,0.6l1.8,1.7l1.2,1.1l0.6,0.5l1,0.9l1.4,1.3c0.1,0.1,0.2,0.1,0.3,0.2c0.1,0,0.2,0,0.2,0
	c1.7-0.2,3.4,0,5,0.5c0.6,0.2,1.2,0.3,1.8,0.6c0.4,0.1,0.8,0.3,1.1,0.4c1.1,0.4,2.3,0.9,3.3,1.3c1,0.4,1.9,0.8,2.8,1.2l0.8,0.4
	l2,0.9l0.8,0.4c1.9,0.9,3.8,1.9,5.7,2.8c0.2,0.1,0.5,0.2,0.8,0.3c0.2,0.1,0.3,0.1,0.5,0.1h0.6l0.2-0.1l0.1-0.1l0.1-0.1
	c0.1-0.1,0.1-0.1,0.2-0.2c0,0,0,0,0.1,0c0.1,0,0.2,0,0.3,0.1c0.2,0.1,0.3,0.1,0.5,0.2l-0.1,0.1c-1,0.5-1.9,1.1-2.8,1.8
	c-1.2-0.3-2.4-0.6-3.7-0.6h-0.8c-0.3,0-0.6,0.2-0.8,0.5c0,0,0,0,0,0.1c-0.1,0.3-0.2,0.6-0.2,0.9s0.1,0.7,0.3,1
	c0.3,0.6,0.6,1.2,1,1.7l0.6,0.9c-0.1,0.3-0.2,0.6-0.3,0.9c-0.1,0.3-0.2,0.6-0.3,0.9c-0.2,0.6-0.3,1.2-0.4,1.8v0.3
	c-0.1,0.5-0.1,1.1-0.2,1.7v2.5c0,0.2,0,0.4,0.1,0.7c0,0.4,0.1,0.9,0.2,1.4c-1.2,0.6-2.4,1.4-3.5,2.2c-0.5,0.4-1,0.9-1.3,1.4
	c-0.3,0.7-0.4,1.4-0.5,2.1c0,1.4-0.2,2.8-0.8,4.1c-0.5,0.9-1.6,1.2-2.8,1.5c-1.2,0.4-2.3,0.8-3.4,1.3c-0.1-0.8-0.3-1.5-0.5-2.2
	c-1-2.9-2.5-5.5-4.4-7.8c0.7-2.6-1.5-5.8-3.4-8.3c-0.3-0.4-0.5-0.7-0.8-1.1l-0.2-0.3l1.2,3.2c1.4,2,2.5,4.1,2.1,5.8l0.5,1.5
	c1.8,2.1,3.1,4.4,4,7c0.3,0.9,0.5,1.8,0.6,2.7c0.1,0.5,0.1,1,0,1.5c0,0.2-0.1,0.4-0.1,0.5c0.6,0.5,1.3,1,1.9,1.5
	c-0.3-0.3-0.5-0.6-0.8-0.9c0.1-0.6,0.2-1.2,0.1-1.8c1.3-0.6,2.6-1.1,3.9-1.6C421.5,280.4,422.8,280.2,423.5,279z M432.1,254.5
	c-0.2,0.2-0.4,0.4-0.6,0.6l-0.2-0.2l-1-0.7C430.9,254.3,431.5,254.4,432.1,254.5z M429.2,256c-0.1-0.2-0.3-0.4-0.4-0.7
	c-0.1-0.2-0.1-0.4-0.2-0.6c0-0.1,0-0.3,0.1-0.4l0.1-0.1l2.1,1.5l1,0.7l2,1.4c0.4,0.2,0.7,0.5,0.9,0.9l0.1,0.3c0,0.2-0.1,0.4-0.2,0.6
	c-0.2,0.2-0.4,0.4-0.7,0.5c-0.2,0-0.3,0-0.5-0.1c-0.5-0.2-1-0.4-1.5-0.6c-0.5-0.3-1-0.5-1.3-0.6h-0.1v-0.3c0-0.1-0.1-0.2-0.1-0.3
	l-0.5-0.8l-0.3-0.4L429.2,256z"/>
<path class="st0" d="M173.7,558.6h1c0.1-2.9,0.2-5.8,0.4-8.8c0-0.3,0-0.5,0.1-0.8l0.1-1.5c0.3-3.5,0.5-7,1.1-10.5
	c0.1-0.5,0.2-1,0.3-1.5c0.3-1.2,0.5-2.5,0.8-3.7c0.7-3.7,1.3-7.4,2.1-11.2c0.6-2.6,1.2-5.1,1.8-7.7c0.6-2.6,1.2-5.2,1.9-7.8
	c0.5-2.2,1.1-4.5,1.7-6.7c0.1-0.5,0.3-1,0.4-1.5c0.1-0.3,0.2-0.6,0.3-0.9c0.4-1,0.7-1.9,1-2.9c0.1-0.3,0.1-0.5,0.2-0.8
	c0.1-0.3,0.1-0.6,0.1-0.9c0-0.1,0-0.2,0-0.3c0.8-0.5,1.4-1.2,1.9-2c0.1-0.1,0.2-0.3,0.2-0.4c0.4-0.7,0.7-1.5,0.8-2.3
	c0.1-0.3,0.1-0.6,0.1-0.9c0-0.2,0-0.3,0-0.5s0-0.2,0-0.2l0.2-0.1l0.2-0.1l0.9-0.2l0.5-0.2l0.2-0.1c0.7-0.2,1.4-0.5,2.1-0.9
	c0.2-0.1,0.5-0.3,0.7-0.4c0.2-0.2,0.5-0.4,0.7-0.6c0.4-0.4,0.8-0.9,1.1-1.5c0.2-0.3,0.3-0.5,0.5-0.8c0.5-1,1-2,1.3-3l1-4
	c0-0.2,0-0.4,0-0.5s0-0.3,0-0.4c0-0.7-0.2-1.4-0.6-2.1l-0.1-0.3c-0.1-0.2-0.3-0.4-0.4-0.5c-0.4-0.3-0.8-0.6-1.2-0.9
	c-0.1-0.1-0.2-0.1-0.2-0.2c-0.3-0.3-0.6-0.6-0.9-0.9c-0.6-0.8-1.2-1.6-1.6-2.5c-0.3-0.5-0.5-1.1-0.8-1.6c-0.1-0.3-0.3-0.5-0.4-0.8
	c-0.6-1.3-1.1-2.5-1.6-3.9s-0.8-2.7-1.1-4.1c-0.1-0.7-0.3-1.4-0.4-2.2c-0.3-2.3-0.5-4.6-0.6-6.9c-0.1-4.4,0.1-8.9,0.4-13.5
	c0.1-1.3,0.2-2.7,0.3-4c0.5-5.4,1.1-10.8,1.7-16.3c0.3-2.7,0.6-5.4,0.9-8.1c0.1-1.4,0.3-2.7,0.4-4c1.1-10.5,2.5-21.1,3.6-31.7
	c0.7-6.3,1.3-12.6,1.8-18.8v-0.3c0.1-1.9,0.3-3.7,0.4-5.6c0.3-3.3,0.6-6.5,1-9.8c1.1-9.8,2.6-19.8,4.5-29.8
	c0.8-5.1,2.1-10.1,3.8-14.9c0.2-0.6,0.5-1.2,0.7-1.9s0.5-1.2,0.8-1.9s0.6-1.2,0.9-1.8s0.6-1.2,1-1.8c0.2-0.3,0.4-0.6,0.6-1
	c0.4-0.6,0.8-1.2,1.3-1.9c0.2-0.3,0.5-0.6,0.7-0.9c0.7-0.8,1.7-1.5,2.5-2.5c0.2-0.3,0.4-0.6,0.6-0.9c0.5-1,0.9-2,1.1-3.1
	c0.1-0.4,0.1-0.7,0.2-1c0.8,0.4,1.5,0.9,2.3,1.4c0.2,0.1,0.4,0.3,0.6,0.4l0.2,0.2c0.4,0.3,0.7,0.6,0.9,1l0.1,0.3
	c0.1,0.5,0.2,1,0.2,1.5c0,1.5,0.3,3.1,0.9,4.5c0.7,1.2,2,1.4,3.1,1.8c1.3,0.4,2.6,1,3.9,1.6c0,0.6,0,1.2,0.1,1.8
	c-0.3,0.3-0.6,0.6-0.8,0.9c0.6-0.5,1.3-1,1.9-1.5c0-0.2-0.1-0.4-0.1-0.5c-0.1-0.5-0.1-1,0-1.5c0.1-0.9,0.3-1.8,0.6-2.7
	c0.9-2.6,2.2-4.9,4-7l0.5-1.5c-0.4-1.7,0.7-3.8,2.1-5.8l1.2-3.3l-0.2,0.3c-0.2,0.4-0.5,0.7-0.8,1.1c-1.8,2.6-4.1,5.7-3.4,8.3
	c-2,2.3-3.5,4.9-4.4,7.8c-0.2,0.7-0.4,1.5-0.5,2.2c-1.1-0.5-2.2-1-3.4-1.3c-1.1-0.4-2.3-0.7-2.8-1.5c-0.5-1.3-0.8-2.7-0.8-4.1
	c0-0.7-0.2-1.4-0.5-2.1c-0.3-0.6-0.8-1-1.3-1.4c-1.1-0.8-2.3-1.6-3.5-2.2c0.1-0.5,0.1-1,0.2-1.4c0-0.2,0-0.5,0.1-0.7
	c0-0.7,0-1.4,0-2.1c0-0.1,0-0.3,0-0.4c0-0.6-0.1-1.1-0.2-1.7v-0.2v-0.1c-0.1-0.6-0.2-1.2-0.4-1.8l0,0c-0.1-0.3-0.2-0.6-0.3-0.9
	s-0.2-0.6-0.3-0.9l0,0l0.6-0.9c0.4-0.5,0.7-1.1,1-1.7c0.1-0.3,0.2-0.7,0.3-1c0-0.3,0-0.6-0.2-0.9c0,0,0,0,0-0.1
	c-0.2-0.3-0.5-0.4-0.8-0.5c-0.3,0-0.5,0-0.8,0c-1.2,0.1-2.5,0.3-3.7,0.6l0,0c-0.8-0.7-1.8-1.3-2.8-1.8l-0.1-0.1
	c0.2-0.1,0.3-0.2,0.5-0.2c0.1,0,0.2-0.1,0.3-0.1s0.1,0,0.1,0l0,0c0.1,0.1,0.1,0.1,0.2,0.2l0.1,0.1l0.1,0.1l0.2,0.1l0,0h0.1h0.2
	c0.1,0,0.2,0,0.3,0h0.1c0.2,0,0.3,0,0.5-0.1l0,0c0.3-0.1,0.5-0.2,0.8-0.3c1.9-0.9,3.8-1.9,5.7-2.8l0.8-0.4l2-0.9l0.8-0.4
	c0.9-0.4,1.8-0.8,2.8-1.2s2.2-0.9,3.3-1.3c0.4-0.1,0.8-0.3,1.1-0.4c0.6-0.2,1.2-0.4,1.8-0.6c1.6-0.5,3.3-0.7,5-0.5
	c0.1,0,0.2,0,0.2,0c0.1,0,0.2-0.1,0.3-0.2l0,0l1.4-1.3l0.9-0.9l0.6-0.5l1.2-1.1l1.8-1.7c0.6-0.2,1.1-0.4,1.6-0.6l0.5-0.2
	c0.5-0.2,1-0.4,1.5-0.7l0.1-0.1c0.4-0.2,0.8-0.4,1.3-0.7l0.8-0.4l0.6-1.4c-0.5,0.3-1,0.5-1.5,0.8l-0.2,0.1c-1.4,0.8-3,1.5-4.5,2
	h-0.1l-0.3,0.2l-1.5,1.3l-3.5,3.2l-0.9,0.8c-0.1,0-0.3,0-0.4,0l0,0c-0.6-0.1-1.3-0.1-1.9,0l-0.6,0.1h-0.4l-0.3,0.1
	c-0.5,0.1-1,0.2-1.5,0.3s-1.2,0.3-1.8,0.5l-0.8,0.3c-1.3,0.5-2.6,1-3.8,1.4c-3.1,1.2-6.1,2.7-9.2,4.2l-3,1.5
	c-0.2,0.1-0.4,0.2-0.6,0.3c-0.2,0.1-0.3,0.1-0.5,0c-0.1,0-0.2-0.2-0.4-0.3l-0.1-0.1h-0.1l-0.2-0.1h-0.3h-0.1c-0.2,0-0.3,0-0.5,0.1
	c-0.3,0.1-0.7,0.3-1,0.4c-0.2,0.1-0.5,0.2-0.7,0.3h-0.1l0,0h-0.1c-0.8,0.2-1.6,0.4-2.4,0.5c-1.3,0.1-2.5,0.3-3.7,0.7l-0.2,0.1
	c0.2-0.3,0.4-0.5,0.7-0.8l0.1-0.1c0.6-0.5,1.2-0.9,1.9-1.3c1.4-0.8,2.9-1.4,4.4-1.9c0.8-0.3,1.6-0.5,2.4-0.6
	c0.3-0.1,0.5-0.3,0.6-0.5c0.3-0.7,0.8-1.3,1.4-1.8c0.7-0.5,1.4-1,2.1-1.4c3.7-2.1,7.4-3.5,11.2-5.5s7.8-4.2,11.7-5.9
	s7.8-3.6,11.6-5.8c0.8-0.5,1.7-1,2.5-1.4l0.6-1.4c-1.1,0.6-2.1,1.3-3.2,1.9c-1.4,0.8-2.9,1.5-4.3,2.3s-2.9,1.4-4.3,2.1
	c-0.9,0.4-1.9,0.9-2.9,1.3c-4,1.8-7.9,3.9-11.8,6c-2.8,1.5-5.6,2.6-8.4,4c-1,0.5-1.9,1-2.9,1.5l-0.6,0.4c-0.6,0.4-1.2,0.8-1.8,1.2
	c-0.5,0.4-1,0.9-1.4,1.5c-0.1,0.2-0.2,0.4-0.4,0.6l-1,0.3c-0.4,0.1-0.7,0.2-1.1,0.3c-0.8,0.3-1.6,0.6-2.4,0.9s-1.6,0.7-2.3,1.1
	c-0.6,0.3-1.1,0.7-1.7,1.1c-0.2,0.1-0.4,0.3-0.6,0.5c-0.6,0.5-1.1,1.2-1.4,1.9c-0.2,0.2-0.5,0.3-0.7,0.5c-1.1,0.9-2.1,1.9-3,3.1
	c-0.4,0.6-0.8,1.2-1.2,1.8c-0.3,0.6-0.6,1.3-0.9,1.9c-0.7,0.5-1.3,1.1-1.9,1.8c-0.5,0.8-1,1.6-1.3,2.4c-0.8,1.8-1.6,3.5-2.4,5.3
	c-0.4,0.9-0.7,1.8-1,2.7s-0.6,1.8-0.9,2.6c-1,3.4-1.7,6.9-2.1,10.4c-0.2,1.7-0.4,3.4-0.5,5.1c-0.1,2-0.2,4-0.3,6
	c-0.3,6.3-0.2,12.5-0.4,18.7c-0.1,2.1-0.1,4.2-0.2,6.2c0,0.8-0.1,1.6-0.2,2.4c-0.1,2-0.3,3.9-0.5,5.9c-0.6,5.9-1.4,11.9-2,17.8
	c-0.4,3.8-0.8,7.5-1.2,11.3s-0.7,7.5-1,11.2c-0.2,3.1-0.4,6.2-0.5,9.2c-0.1,1.5-0.1,3-0.1,4.6c0,1.5,0,3,0,4.5c0,2-0.1,4-0.2,6
	c-0.1,0.9-0.1,1.8-0.2,2.7c-0.1,0.9-0.2,1.8-0.3,2.7c-0.3,2.7-0.7,5.4-1,8.1c-0.2,1.8-0.4,3.6-0.6,5.4c-0.1,0.9-0.2,1.8-0.3,2.7
	s-0.2,2-0.3,3.1s-0.2,2.1-0.4,3.1c-0.3,2.1-0.7,4.2-1.1,6.3c-0.2,1-0.4,2.1-0.7,3.2c-0.8,3.2-1.6,6.3-2.7,9.5
	c-0.8,2.3-1.5,4.5-2.3,6.8s-1.6,4.5-2.4,6.8c-0.8,2.3-1.7,4.5-2.5,6.8s-1.7,4.5-2.6,6.8c-1.6,4.1-2.8,8.3-3.6,12.6
	c-0.1,0.6-0.2,1.2-0.3,1.8s-0.2,1.5-0.2,2.2c-0.2,1.7,0,3.3,0.3,4.9c0.1,0.5,0.3,1,0.5,1.4c0.2,0.3,0.3,0.7,0.5,1
	c0.1,0.1,0.1,0.2,0.2,0.3c0.1,0.2,0.3,0.4,0.5,0.6s0.4,0.3,0.6,0.5l-0.4,0.3l-0.7,0.5c-0.5,0.4-1,0.8-1.4,1.3
	c-0.2,0.2-0.3,0.4-0.4,0.6l-0.1,0.2c-0.3,0.5-0.4,1-0.4,1.6v0.4c0,0.9,0.2,1.7,0.6,2.5c0.1,0.2,0.3,0.4,0.5,0.6l0.4,0.3
	c0.1,0.1,0.2,0.1,0.3,0.2s0.2,0.1,0.3,0.2s0.1,0.2,0.2,0.3c0.1,0.3,0.3,0.6,0.4,1c0.1,0.3,0.2,0.7,0.3,1c0.1,0.6,0.2,1.2,0.3,1.8
	c0.1,1.3,0.2,2.5,0.1,3.8c0,0.7,0,1.3-0.1,2c0,0.4-0.1,0.8-0.1,1.2s-0.1,0.8-0.1,1.2s-0.1,1.1-0.1,1.7c-0.1,1.1-0.2,2.2-0.3,3.3
	c-0.1,1.9-0.3,3.8-0.4,5.7c-0.1,1-0.1,1.9-0.2,2.8l-0.1,1.4c-0.2,3.2-0.7,6.4-1.1,9.7l-0.2,1.4c-0.2,1.8-0.4,3.7-0.6,5.5
	s-0.4,3.7-0.6,5.5c0,0.5-0.1,1-0.2,1.5c-0.2,1.5-0.4,3-0.6,4.5c0,0.4-0.1,0.8-0.1,1.1h1c0.3-2.5,0.7-5,0.9-7.4
	c0.4-3.7,0.7-7.3,1.1-11s0.9-7.4,1.2-11.1l0.1-1.4c0.2-2.9,0.4-5.7,0.6-8.6c0.1-1.7,0.2-3.3,0.4-5c0.1-0.8,0.1-1.7,0.2-2.5
	c0.3-2.6,0.2-5.3-0.4-7.9c-0.2-0.7-0.4-1.5-0.7-2.1c-0.4-0.7-0.9-0.9-1.4-1.2c-0.6-0.7-0.9-1.6-0.8-2.5v-0.3c0-0.4,0.1-0.8,0.4-1.2
	c0.4-0.5,0.8-1,1.3-1.3c0.6-0.5,1.3-0.9,1.9-1.3c0.2-0.1,0.5-0.2,0.7-0.3h0.1c0.7-0.2,1.5-0.2,2.2-0.1h0.1c1.4,0.1,2.8,0.6,4,1.5
	c0.2,0.1,0.2,0.5,0.3,0.9c0,0,0,0.1,0,0.2s0,0.2,0,0.3c0,0.2-0.1,0.5-0.2,0.6c-0.1,0.2-0.3,0.5-0.5,0.7l-0.2,0.2
	c-0.9,1.1-1.5,2.5-1.6,4c-0.1,0.7,0,1.4,0.2,2c0.4,1.4,0.8,2.8,1.2,4.3c0.2,0.7,0.4,1.3,0.5,2l0,0c0.4,1.3,0.5,2.7,0.4,4.1
	c0,0.5-0.1,1-0.2,1.4c-0.2,0.8-0.4,1.6-0.6,2.5c-0.4,1.3-0.7,2.7-1,4.1l0,0c0,0.1,0,0.2-0.1,0.2c-1.1,4.8-2.1,9.5-3,14.2
	c-1.5,7.4-1.8,14.7-2.4,21.9h1c0.2-3.2,0.5-6.5,0.8-9.7c0.1-1.2,0.2-2.4,0.4-3.6c0.2-1.9,0.4-3.9,0.8-5.8c0.2-1,0.3-1.9,0.5-2.9
	c0.4-2.1,0.8-4.2,1.3-6.3c-0.1,1-0.3,2-0.4,3.1c-0.1,0.6-0.2,1.2-0.2,1.8s-0.2,1.2-0.2,1.8c-0.6,4.3-1.1,8.5-1.4,12.7
	c-0.2,2.4-0.3,4.9-0.3,7.3c0,0.6,0,1.2,0,1.8h1c0-0.7,0-1.5,0-2.2c0-2.4,0.1-4.8,0.3-7.2c0.3-4.7,0.9-9.5,1.6-14.4
	c0.2-1.8,0.5-3.5,0.8-5.3c0.3-1.9,0.5-3.8,0.6-5.7c0-0.6,0.1-1.2,0.1-1.8c0.2-0.7,0.4-1.5,0.6-2.2c0.4-1.4,0.8-2.8,1.1-4.3
	c0.1-0.4,0.2-0.9,0.2-1.3c0-0.1,0-0.2,0-0.3s0-0.4,0-0.6c0-1.3-0.1-2.6-0.5-3.8c-0.1-0.6-0.3-1.2-0.5-1.9c0.1-0.7,0.2-1.3,0.3-2
	c0-0.5,0-1.1,0-1.6c-0.3-1.4-0.4-2.8-0.4-4.3c0-0.2,0-0.4,0.1-0.6c0.1-0.5,0.2-0.9,0.3-1.3l0,0c0.1-0.1,0.2-0.2,0.2-0.3l0.2-0.4
	c0.2-0.3,0.3-0.6,0.3-0.9c0-0.1,0-0.2,0-0.3c0.1-0.2,0.2-0.3,0.3-0.5c0.7-0.9,1.5-1.7,2.3-2.4c1-0.8,1.9-1.6,2.8-2.5l0,0
	c0.3-0.3,0.6-0.7,0.9-1.1c0.7-0.9,1.4-1.8,2-2.6c0.4-0.4,0.7-0.8,1.1-1.2c0.3-0.3,0.7-0.6,1.1-0.8c0.2-0.1,0.5-0.1,0.7,0.1
	c0.9,1.1,1.7,2.3,2.4,3.6c0.4,0.6,0.6,1.3,0.7,2c0,0.3,0,0.7,0,1v0.1c0,0.2,0,0.5-0.1,0.8c-0.3,1.9-1.4,3.9-1.9,6s-1.1,4.5-1.7,6.7
	c-1.2,5.2-2.5,10.3-3.6,15.5s-1.8,10-2.9,14.9c-0.7,4-1.2,8.1-1.4,12.2c-0.1,0.8-0.1,1.6-0.2,2.3C173.9,553,173.8,555.8,173.7,558.6
	z M169.7,504.9c-0.2-0.6-0.3-1.1-0.5-1.7c-0.1-0.3-0.1-0.5-0.2-0.8c0-0.3,0-0.6,0-0.9c0-0.4,0.1-0.8,0.2-1.2c0,0.4,0,0.7,0,1.1
	c0.1,1.1,0.3,2.1,0.4,3.2v0.3H169.7z M168.6,492.7c0.2,0,0.4,0,0.6,0h0.4l0.4,0.1c0.4,0.1,0.9,0.1,1.3,0c0.2,0,0.4-0.1,0.7-0.1
	c0.4-0.1,0.7-0.3,1.1-0.5c0.4-0.2,0.7-0.4,1-0.6s0.6-0.4,0.9-0.6c0.2-0.1,0.3-0.2,0.5-0.2c-0.6,0.5-1.1,1-1.7,1.5
	c-0.9,0.7-1.7,1.5-2.4,2.4c-0.1-0.3-0.2-0.5-0.4-0.7C170.2,493.3,169.4,492.9,168.6,492.7L168.6,492.7z M217.8,254.2l-1,0.7
	l-0.2,0.2c-0.2-0.2-0.4-0.4-0.6-0.6C216.6,254.4,217.2,254.3,217.8,254.2L217.8,254.2z M218.4,256.8l-0.3,0.4l-0.6,0.8
	c-0.1,0.1-0.1,0.2-0.1,0.3c0,0.1,0,0.2,0,0.3l0,0l0,0h-0.1c-0.3,0.1-0.8,0.4-1.3,0.6s-1,0.5-1.5,0.6c-0.2,0.1-0.3,0.1-0.5,0.1
	c-0.3-0.1-0.5-0.3-0.7-0.5s-0.2-0.4-0.2-0.6l0.1-0.3c0.2-0.4,0.5-0.6,0.9-0.9l2-1.4l1-0.7l2.1-1.5c0,0,0.1,0,0.1,0.1
	c0.1,0.1,0.1,0.3,0.1,0.4c0,0.2-0.1,0.4-0.2,0.6c-0.1,0.2-0.2,0.4-0.4,0.7L218.4,256.8z M186.1,487.8c-0.2-0.3-0.4-0.6-0.5-1
	c-0.3-0.5-0.6-1-0.9-1.4c-0.3-0.5-0.6-0.9-1-1.3s-1-0.5-1.4-0.3c-0.2,0.1-0.3,0.1-0.4,0.2c-0.2,0.1-0.4,0.3-0.6,0.4
	c-0.2,0.2-0.4,0.3-0.6,0.5c-0.3,0.2-0.5,0.5-0.7,0.7l-0.6,0.7c-0.4,0.5-0.8,0.9-1.1,1.4s-0.9,1.1-1.3,1.6c-0.3,0-0.7,0-1,0.1
	c-0.7,0.3-1.4,0.7-2.1,1.1c-0.6,0.4-1.2,0.7-1.8,1c-0.1,0.1-0.3,0.1-0.5,0.1c-0.5,0-1,0-1.5-0.1c-0.6-0.1-1.2-0.1-1.8,0l-0.4,0.1
	c-0.5,0.2-1,0.4-1.4,0.6h-0.6h-0.6c-0.5,0-0.9,0.1-1.3,0.2h-0.1c-0.2,0.1-0.4,0.2-0.6,0.2c-0.7-0.2-1.2-0.5-1.6-1.1
	c-0.5-0.8-0.9-1.6-1.1-2.6c-0.4-1.5-0.5-3.1-0.3-4.6c0-0.7,0.1-1.4,0.2-2.1c0.8-4.8,2.1-9.5,3.8-14.1c3.5-9.1,6.8-18.2,9.9-27.3
	c2.8-8.2,4.6-16.8,5.3-25.4c0.6-7.2,1.9-14.5,2.4-21.6c0.1-2,0.2-4.1,0.2-6.1c-0.1-6,0.2-12,0.6-18.2c0.5-7.5,1.3-15,2.1-22.5
	c0.8-7.9,1.9-15.8,2.5-23.7c0.1-0.8,0.1-1.6,0.1-2.4c0.5-8.4,0.3-16.6,0.7-25c0.1-2,0.2-3.9,0.3-5.9c0.3-7,1.8-13.8,4.4-20.3
	c0.7-1.8,1.5-3.5,2.3-5.2c0.3-0.7,0.7-1.4,1.1-2.1c0.5-0.6,1-1.1,1.7-1.5c0.2-0.1,0.3-0.3,0.3-0.4c0.9-2.6,2.6-4.8,4.8-6.4
	c0.1,0,0.2,0,0.4,0c0.3-0.2,0.7-0.3,1-0.4c0.3-0.1,0.6-0.2,0.9-0.2c0.9-0.2,1.7-0.3,2.7-0.4c0.4-0.1,0.9-0.1,1.3-0.2
	s0.7-0.2,1.1-0.3l0.4,0.2l0.4,0.1l0.3,0.1h0.1c0.2,0.1,0.5,0.2,0.7,0.4l0.1,0.1l0.1,0.1c0.3,0.2,0.6,0.3,0.8,0.5h0.1l0.4,0.3
	l0.4,0.4l0,0l0.5,0.4c0.2,0.2,0.4,0.4,0.6,0.6l-1.8,1.3l-0.4,0.3c-0.3,0.2-0.6,0.5-0.8,0.8c-0.1,0.2-0.2,0.3-0.3,0.5
	c-0.1,0.1-0.1,0.3-0.1,0.4s-0.1,0.3-0.1,0.4s0,0.1,0,0.2c0,0.3,0.1,0.5,0.2,0.8c0,0.1,0.1,0.2,0.2,0.2c0.1,0.1,0.3,0.3,0.4,0.4
	c0.1,0.1,0.3,0.2,0.4,0.3c0.3,0.1,0.6,0.1,0.8,0l0.3-0.1c0.3-0.1,0.6-0.2,0.8-0.3l0.9-0.4l0.8-0.4l0.5-0.2l0.4-0.2
	c0.1,0.2,0.2,0.5,0.3,0.7s0.1,0.2,0.1,0.3c0.1,0.5,0.2,0.9,0.3,1.4c0,0.1,0,0.2,0,0.2c0,0.1,0,0.2,0,0.2c0.1,0.5,0.1,0.9,0.1,1.4
	l0,0v0.5c0,0.7,0,1.3,0,2v0.3c0,0.1,0,0.2,0,0.3c0,0.5-0.1,1-0.2,1.6s-0.2,1.3-0.3,2c-0.2,1.2-0.7,2.3-1.4,3.3
	c-0.6,0.8-1.6,1.5-2.5,2.5c-1.1,1.2-2,2.6-2.9,4c-1.4,2.4-2.6,5-3.6,7.6c-1.7,4.9-3.1,10-3.9,15.2c-2.8,15-4.8,30.1-5.9,45.3v0.3
	c-1.2,16.5-3.7,33.6-5.4,50.5c-1.1,10.7-2.7,21.8-3.4,32.5c-0.3,4.6-0.5,9.1-0.5,13.6c-0.1,6,1.2,12,3.7,17.5
	c1.1,2.2,1.9,4.5,3.8,6.1c0.7,0.5,1.4,0.8,1.7,1.4c0.4,0.7,0.6,1.6,0.6,2.4l-0.9,4.1c-0.4,1-0.8,1.9-1.3,2.8c-0.4,0.8-1,1.6-1.7,2.2
	c-0.7,0.5-1.6,0.9-2.4,1.2l-0.2,0.1c-0.2,0.1-1.2,0.4-1.9,0.5c-0.1,0-0.3,0.1-0.4,0.1l0,0l0,0c-0.1,0-0.1,0-0.2,0
	c-0.1,0-0.1,0-0.2,0.1c-0.1,0-0.1,0.1-0.2,0.2c-0.1,0.1-0.1,0.1-0.1,0.2l0,0c0,0.1-0.1,0.1-0.1,0.2s0,0.1,0,0.2
	c0.1,0.4,0.1,0.8,0.1,1.2c-0.1,1-0.4,2-0.9,2.9c-0.3,0.5-0.7,0.9-1.1,1.3c-0.1-0.5-0.2-1-0.4-1.5
	C186.5,488.3,186.3,488.1,186.1,487.8L186.1,487.8z"/>
<polygon class="st1" points="163.5,548.8 163.2,548.8 163.2,548.8 "/>
<polyline class="st0" points="173.8,558.6 166,558.6 166,557.7 166,557.7 173.8,557.7 174,557.8 "/>
<polygon class="st0" points="163,558.6 163.1,557.6 158.2,557.5 158.1,558.6 "/>
<polygon class="st1" points="163.5,491.9 163.2,491.9 163.2,491.9 "/>
<polygon class="st1" points="163.5,491.9 163.2,491.9 163.2,491.9 "/>
<g>
	<path class="st2" d="M404.7,394.2c0.9-1.2,3.9-5.1,7-11.2c14.9-29.7,4-58,6.4-58.6l3.9-11c0.1,0.4,0.2,0.7,0.3,1.1
		c1.1-12.9,12.7-20.3,22-27.6c4.5-3.5,8-6.9,10.1-12.4c1.4-3.6,1.9-7.3,2.1-11.1c-0.2-0.8-0.3-1.6-0.3-2.5v-0.6
		c-3.3-4.5-6.9-8.3-10.9-11.8C432,237,418.9,230,418.9,230c-29.1-15.5-40.3-11.9-51.4-21c-10.1-8.2-19-26-13.3-67.7H294
		c5.7,41.8-3.1,59.5-13.3,67.7c-1,0.8-2.1,1.6-3.1,2.2c-10.2,6.3-21.8,4.7-48.3,18.7c0,0-13.1,7-26.5,18.7
		c-5.3,4.6-9.9,9.8-13.9,16.3c-5,8.2-8.4,16-9.5,19.1c-4.5,12.3-1.9,21.4-2.5,39.7c-0.4,12.6-2,18.5-4.3,32.8
		c-2.7,17.5-6,44.9-8.2,88.3c-1.9,3.7-4.2,9.1-6.2,15.8c-1.3,4.5-2.8,10.6-4,22.8c-1.3,13.6-0.7,17.7-1.4,29.2
		c-0.8,13.7-3,20-3.8,29.4c-2.8,32.7,5,49.1,3.6,78.6c-0.1,2.1-0.5,8.6-0.6,17.7c-0.2,11.7,0.2,12.6,0,19.8
		c-0.5,21-4.3,23.2-1.1,30.4c3.6,7.9,11.2,12,16.7,14.2c1.1,0.3,16.7,4.7,20.9-1.2c0.4-0.6,2.3-3.2,1.5-5.5c-0.3-0.9-1-1.7-2.3-2.4
		c-7.2-4.7-10.1-9.9-11.4-12.8c-2.9-6.4-2.7-12.9-2.4-22.3c0.1-3.7,0.4-6.7,0.6-8.8c0.5,1.1,1.4,3.1,2.5,5.5
		c6.5,14.7,7.6,18.4,11.8,22c1.8,1.5,6.3,5.3,8.9,3.9c5.1-2.7,0.5-23.9-7.2-40.8c-7.1-15.5-10.4-12.9-13.7-23.3
		c-1.9-6.1-1.7-9.5,3.5-50.1c1.9-14.9,2.5-19.4,3.6-26.1c2-12.6,3.1-19.2,5.1-27.2c5.9-24.1,11.6-26.4,15.5-48
		c1.8-10,2.2-18.6,2.3-22c0.2-11.5-0.6-20.2-0.6-20.9c-1-11,2.2-38.5,19.6-109.3l3.9,11c2.4,0.6-8.5,28.9,6.4,58.6
		c3.1,6.1,6.1,10,7,11.2c10.6,14.6,12.8,53.5-18.7,155.1c29.9,0.2,59.8,0.3,89.7,0.5v0.1c3.3,0,6.6,0,9.8-0.1c3.3,0,6.6,0,9.8,0.1
		v-0.1c29.9-0.2,59.8-0.3,89.7-0.5C391.9,447.6,394.1,408.8,404.7,394.2z"/>
	<path class="st0" d="M199.6,472.9c0-0.2,0-0.4,0-0.5s0-0.3,0-0.4c0-0.8-0.2-1.5-0.5-2.1c0-0.1-0.1-0.2-0.1-0.3
		c-0.1-0.2-0.3-0.4-0.4-0.5c-0.4-0.4-0.8-0.6-1.2-0.9c-0.1-0.1-0.2-0.1-0.2-0.2c-0.3-0.3-0.6-0.6-0.9-0.9c-0.6-0.7-1.1-1.6-1.6-2.5
		c-0.3-0.5-0.5-1.1-0.8-1.6c-0.1-0.3-0.3-0.6-0.4-0.8c-0.6-1.2-1.1-2.5-1.6-3.9c-0.4-1.3-0.8-2.7-1.1-4.1c-0.1-0.7-0.3-1.4-0.4-2.2
		c-0.3-2.2-0.5-4.5-0.5-6.9c-0.1-4.4,0.1-8.9,0.4-13.5c0.1-1.3,0.2-2.7,0.3-4c0.5-5.4,1.1-10.8,1.7-16.3c0.3-2.7,0.6-5.4,0.9-8.1
		c0.2-1.4,0.3-2.7,0.4-4.1c1.1-10.5,2.5-21.1,3.6-31.7c0.7-6.3,1.3-12.6,1.8-18.8v-0.3c0.1-1.9,0.3-3.7,0.4-5.6
		c0.3-3.3,0.6-6.5,1-9.8c1.1-9.8,2.6-19.8,4.5-29.8c0.9-4.9,2-9.9,3.8-14.9c0.2-0.6,0.5-1.2,0.7-1.9c0.3-0.6,0.5-1.2,0.8-1.9
		c0.3-0.6,0.6-1.2,0.9-1.8s0.6-1.2,1-1.8c0.2-0.3,0.4-0.6,0.6-1c0.4-0.6,0.8-1.2,1.3-1.8c0.2-0.3,0.5-0.6,0.7-0.9
		c0.7-0.8,1.7-1.5,2.5-2.5c0.2-0.3,0.4-0.6,0.6-0.9c0.5-1,0.9-2,1.1-3.1c0.1-0.3,0.2-0.7,0.2-1c0.8,0.4,1.5,0.9,2.3,1.4
		c0.2,0.1,0.4,0.3,0.6,0.4c0.1,0.1,0.1,0.1,0.2,0.2c0.4,0.4,0.7,0.7,0.9,1c0,0.1,0.1,0.2,0.1,0.3c0.1,0.4,0.2,0.8,0.2,1.5
		c0.1,1.5,0.1,3.2,0.9,4.5c0.7,1.2,2,1.4,3.1,1.8c1.4,0.4,2.7,1,3.9,1.6c0,0.6,0,1.2,0.1,1.8c-0.3,0.3-0.6,0.6-0.8,0.9
		c0.6-0.5,1.3-1,1.9-1.5c0-0.2-0.1-0.4-0.1-0.5c-0.1-0.5-0.1-1,0-1.5c0.1-0.8,0.3-1.7,0.6-2.7c0.8-2.4,2.2-4.9,4-7
		c0.2-0.5,0.4-1,0.5-1.5c-0.4-1.7,0.7-3.8,2.1-5.8c0.4-1.1,0.8-2.2,1.2-3.2c-0.1,0.1-0.2,0.2-0.2,0.3c-0.2,0.3-0.5,0.7-0.8,1.1
		c-1.8,2.6-4.1,5.7-3.4,8.3c-2,2.3-3.5,5.1-4.4,7.8c-0.2,0.8-0.4,1.5-0.5,2.2c-1.1-0.5-2.2-1-3.4-1.3c-1.1-0.4-2.3-0.7-2.8-1.5
		c-0.6-1.1-0.7-2.6-0.8-4.2c-0.1-0.9-0.2-1.6-0.5-2.1s-0.7-1-1.3-1.4c-1.1-0.8-2.2-1.5-3.5-2.2c0.1-0.5,0.1-1,0.2-1.4
		c0-0.2,0-0.4,0.1-0.7c0.1-0.7,0.1-1.4,0-2.1c0-0.1,0-0.3,0-0.4c0-0.6-0.1-1.1-0.2-1.7c0-0.1,0-0.1,0-0.2v-0.1
		c-0.1-0.6-0.2-1.2-0.4-1.8l0,0l0,0l0,0c-0.1-0.3-0.2-0.6-0.3-0.9s-0.2-0.6-0.3-0.9l0,0c0.2-0.4,0.5-0.7,0.6-0.9
		c0.3-0.5,0.7-1,1-1.7c0.1-0.3,0.2-0.7,0.3-1c0-0.3,0-0.6-0.2-0.9c0,0,0,0,0-0.1c-0.2-0.3-0.5-0.4-0.8-0.5c-0.3,0-0.5,0-0.8,0
		c-1.2,0.1-2.4,0.3-3.7,0.6l0,0c-0.8-0.7-1.7-1.3-2.8-1.8c-0.1,0-0.1-0.1-0.1-0.1c0.2-0.1,0.4-0.2,0.5-0.2s0.2-0.1,0.3-0.1
		s0.1,0,0.1,0l0,0c0.1,0,0.1,0.1,0.2,0.2l0.1,0.1c0,0,0.1,0,0.1,0.1c0.1,0,0.1,0.1,0.2,0.1l0,0h0.1c0.1,0,0.1,0,0.2,0
		c0.1,0,0.2,0,0.3,0c0,0,0,0,0.1,0c0.2,0,0.3-0.1,0.5-0.1l0,0c0.3-0.1,0.5-0.2,0.8-0.3c1.9-0.9,3.8-1.9,5.7-2.8
		c0.2-0.1,0.5-0.2,0.8-0.4c0.7-0.3,1.4-0.6,2-0.9c0.3-0.1,0.6-0.3,0.8-0.4c0.9-0.4,1.8-0.8,2.8-1.2c1.1-0.4,2.2-0.9,3.3-1.3
		c0.4-0.1,0.8-0.3,1.2-0.4c0.6-0.2,1.2-0.4,1.8-0.5c1.8-0.5,3.5-0.7,5-0.5c0.1,0,0.2,0,0.2,0c0.1,0,0.2-0.1,0.3-0.2l0,0
		c0.5-0.4,0.9-0.9,1.4-1.3c0.3-0.3,0.6-0.6,0.9-0.9c0.2-0.2,0.4-0.4,0.6-0.5c0.4-0.4,0.8-0.7,1.2-1.1c0.6-0.6,1.2-1.1,1.8-1.7
		c0.6-0.2,1.1-0.4,1.6-0.6c0.2-0.1,0.3-0.1,0.5-0.2c0.5-0.2,1-0.4,1.5-0.7c0,0,0.1,0,0.1-0.1c0.4-0.2,0.8-0.4,1.3-0.7
		c0.3-0.2,0.5-0.3,0.8-0.4c0.2-0.5,0.4-0.9,0.5-1.4c-0.5,0.3-1,0.5-1.5,0.8c-0.1,0-0.2,0.1-0.2,0.1c-1.6,0.8-3,1.5-4.5,2h-0.1
		l-0.3,0.2c-0.5,0.4-1,0.9-1.5,1.3c-1.2,1.1-2.4,2.2-3.6,3.3c-0.3,0.3-0.6,0.6-0.9,0.8c-0.1,0-0.3,0-0.4,0l0,0c-0.6,0-1.3,0-1.9,0
		c-0.2,0-0.4,0-0.6,0.1c-0.1,0-0.3,0-0.4,0s-0.2,0.1-0.3,0.1c-0.5,0.1-1,0.2-1.5,0.3c-0.6,0.2-1.2,0.3-1.8,0.5
		c-0.3,0.1-0.5,0.2-0.8,0.3c-1.3,0.5-2.6,1-3.8,1.4c-3.1,1.2-6.1,2.7-9.2,4.2c-1,0.5-2,1-3,1.5c-0.2,0.1-0.4,0.2-0.6,0.3
		c-0.2,0.1-0.4,0.1-0.5,0c-0.1,0-0.2-0.2-0.4-0.3l-0.1-0.1c0,0,0,0-0.1,0s-0.1,0-0.2-0.1c-0.1,0-0.2,0-0.3,0c0,0,0,0-0.1,0
		c-0.2,0-0.3,0-0.5,0.1c-0.3,0.1-0.7,0.3-1,0.4c-0.3,0.2-0.6,0.3-0.7,0.3h-0.1l0,0c0,0-0.1,0-0.2,0c-0.8,0.2-1.6,0.4-2.3,0.5
		c-1.2,0.2-2.4,0.3-3.7,0.7c-0.1,0-0.1,0.1-0.2,0.1c0.2-0.3,0.4-0.5,0.7-0.8c0,0,0-0.1,0.1-0.1c0.5-0.5,1.2-0.9,1.9-1.3
		c1.4-0.8,2.9-1.4,4.4-1.9c0.8-0.3,1.6-0.5,2.3-0.7c0.2-0.1,0.4-0.2,0.6-0.5c0.3-0.7,0.8-1.2,1.4-1.8c0.6-0.5,1.4-1,2.1-1.4
		c3.7-2.1,7.4-3.5,11.2-5.5c3.9-2.1,7.8-4.2,11.7-5.9s7.7-3.6,11.6-5.8c0.8-0.5,1.7-1,2.5-1.4c0.2-0.5,0.4-0.9,0.6-1.4
		c-1.1,0.6-2.1,1.3-3.2,1.9c-1.4,0.8-2.9,1.5-4.3,2.3c-1.4,0.7-2.9,1.4-4.3,2.1c-0.9,0.4-1.9,0.9-2.9,1.3c-4,1.8-7.9,3.9-11.8,6
		c-2.8,1.5-5.6,2.6-8.4,4c-1,0.5-1.9,1-2.9,1.5c-0.2,0.1-0.4,0.2-0.6,0.4c-0.6,0.4-1.2,0.7-1.8,1.2c-0.5,0.4-1,0.9-1.4,1.5
		c-0.1,0.2-0.2,0.4-0.4,0.6c-0.3,0.1-0.7,0.2-1,0.3s-0.7,0.2-1.1,0.3c-0.8,0.3-1.6,0.6-2.4,0.9c-0.8,0.3-1.5,0.7-2.3,1.1
		c-0.5,0.3-1.1,0.6-1.7,1.1c-0.2,0.1-0.4,0.3-0.6,0.5c-0.6,0.5-1.1,1.2-1.4,1.9c-0.2,0.2-0.5,0.3-0.7,0.5c-1.1,0.9-2.1,1.9-3,3.1
		c-0.4,0.6-0.8,1.2-1.2,1.8c-0.3,0.6-0.6,1.3-0.9,1.9c-0.8,0.6-1.4,1.1-1.9,1.8c-0.5,0.7-0.9,1.4-1.3,2.4c-0.8,1.8-1.6,3.5-2.4,5.3
		c-0.4,0.9-0.7,1.8-1,2.7s-0.6,1.8-0.9,2.7c-1.1,3.5-1.7,7-2.1,10.4c-0.2,1.7-0.4,3.4-0.5,5.1c-0.1,2-0.2,4-0.3,6
		c-0.3,6.3-0.2,12.5-0.4,18.7c-0.1,2.1-0.1,4.2-0.3,6.3c0,0.8-0.1,1.6-0.2,2.4c-0.1,1.9-0.3,3.9-0.5,5.9c-0.6,5.9-1.4,11.9-2,17.8
		c-0.4,3.8-0.8,7.5-1.2,11.3s-0.7,7.5-1,11.3c-0.2,3.1-0.4,6.2-0.5,9.2c-0.1,1.5-0.1,3-0.1,4.6c0,1.5,0,3,0,4.5c0,2-0.1,4-0.2,6
		c-0.1,0.9-0.1,1.8-0.2,2.7c-0.1,0.9-0.2,1.8-0.3,2.7c-0.3,2.7-0.7,5.4-1,8.1c-0.2,1.8-0.5,3.6-0.6,5.4c-0.1,0.9-0.2,1.8-0.3,2.7
		c-0.1,1-0.2,2-0.3,3.1c-0.1,1-0.2,2.1-0.4,3.1c-0.3,2.1-0.7,4.2-1.1,6.3c-0.2,1-0.4,2.1-0.7,3.2c-0.7,3.2-1.6,6.3-2.7,9.5
		c-0.8,2.3-1.5,4.5-2.3,6.8s-1.6,4.5-2.4,6.8c-0.8,2.3-1.6,4.5-2.5,6.8c-0.8,2.3-1.7,4.5-2.6,6.8c-1.6,4.2-2.8,8.4-3.6,12.6
		c-0.1,0.6-0.2,1.2-0.3,1.8c-0.1,0.7-0.2,1.5-0.2,2.2c-0.1,1.7-0.1,3.4,0.3,4.9c0.1,0.5,0.3,1,0.5,1.4c0.1,0.4,0.3,0.7,0.5,1
		c0.1,0.1,0.1,0.2,0.2,0.3c0.1,0.2,0.3,0.4,0.5,0.6s0.4,0.3,0.6,0.5c-0.1,0.1-0.3,0.2-0.4,0.3c-0.2,0.2-0.5,0.3-0.7,0.5
		c-0.5,0.3-1,0.8-1.4,1.3c-0.1,0.2-0.3,0.4-0.4,0.6c0,0.1-0.1,0.2-0.1,0.2c-0.3,0.6-0.4,1.1-0.5,1.6v0.4c0,0.9,0.1,1.8,0.5,2.5
		c0.1,0.2,0.3,0.4,0.5,0.6c0.1,0.1,0.3,0.2,0.4,0.3c0.1,0.1,0.2,0.2,0.3,0.2c0.1,0.1,0.2,0.1,0.3,0.2s0.1,0.2,0.2,0.3
		c0.1,0.3,0.3,0.6,0.4,0.9c0.1,0.3,0.2,0.7,0.3,1c0.1,0.6,0.2,1.2,0.3,1.8c0.2,1.2,0.2,2.5,0.1,3.8c0,0.7,0,1.3-0.1,2
		c0,0.4-0.1,0.8-0.1,1.2s-0.1,0.8-0.1,1.2c-0.1,0.6-0.1,1.1-0.1,1.7c-0.1,1.1-0.2,2.2-0.3,3.3c-0.1,1.9-0.3,3.8-0.4,5.7
		c-0.1,0.9-0.1,1.9-0.2,2.9l-0.1,1.4c-0.2,3.2-0.7,6.4-1.1,9.7c-0.1,0.5-0.1,0.9-0.2,1.4c-0.2,1.8-0.4,3.7-0.6,5.5
		c-0.2,1.8-0.4,3.6-0.6,5.5c0,0.5-0.1,1-0.2,1.5c-0.2,1.5-0.4,3-0.6,4.5c-0.1,1-0.3,2-0.4,3c-0.1,1-0.2,2-0.3,3c0,0.5,0,0.9-0.1,1.3
		c0,0.4-0.1,0.9-0.1,1.3c0,2.5-0.1,4.9-0.2,7.4c-0.1,2.5-0.1,4.9-0.2,7.4c-0.1,1.2-0.1,2.5-0.1,3.7c-0.1,2.5-0.1,4.9-0.1,7.3
		c0,1.2,0,2.4,0,3.6c0,3.5,0,7.1,0.2,10.7c0.1,1.2,0.1,2.3,0.3,3.5c0.1,1.2,0.1,2.4,0.1,3.7c0,0.6-0.1,1.2-0.1,1.9
		c0,0.6-0.1,1.3-0.1,1.9v0.4c-0.1,0.8-0.1,1.6-0.2,2.5c-0.1,0.8-0.2,1.7-0.4,2.5c-0.1,0.3-0.1,0.6-0.2,1c-0.2,0.7-0.4,1.4-0.5,2.2
		c-0.1,0.4-0.1,0.8-0.2,1.1c0,0.2,0,0.4,0,0.5c0,0.2,0,0.3,0,0.5c0,0.1,0,0.2,0.1,0.3c0.1,0.6,0.4,1,0.7,1.4c0,0.1,0.1,0.1,0.1,0.2
		c0.1,0.1,0.1,0.2,0.2,0.3c0.1,0.1,0.1,0.3,0.2,0.4c0.1,0.1,0.1,0.3,0.2,0.4c0.1,0.1,0.1,0.3,0.2,0.4c0.1,0.2,0.3,0.3,0.4,0.4
		c0.5,0.3,1.1,0.5,1.7,0.6c0.3,0,0.7,0.1,1,0.1s0.6,0,0.9,0c0,0,0,0,0.1,0c0.1,0.1,0.1,0.2,0.1,0.3s-0.1,0.3-0.2,0.5
		c-0.1,0.2-0.3,0.5-0.5,0.7c-1.2,1.7-2.3,3.4-3.2,5.2c-0.1-0.1-0.2-0.2-0.4-0.2c-0.3,0.1-0.5,0.3-0.6,0.6c-0.3,1.1-0.5,2.2-0.6,3.3
		c0,0.5,0,1,0,1.5c0,0.2,0.1,0.3,0.3,0.3c0.1,0,0.2,0,0.4,0c-0.2,0.6-0.2,1.2-0.3,1.8v0.1c-0.1,2.1-0.3,4.1-0.4,6.2
		c-0.1,1.8,0,3.4-0.1,5.1c0,0.5-0.1,0.9-0.2,1.4c-0.4,2.8-0.5,5.4-0.8,8l-0.1,2.1c0,0.4-0.1,0.9-0.1,1.3c-0.1,1.1-0.3,2.2-0.4,3.3
		c0,0.3,0,0.6,0,0.9c0,2.5,1.2,3.8,1.8,5.6c0.2,0.6,0.4,1.3,0.9,1.8c0.2,0.2,0.3,0.4,0.5,0.7c0.1,0.2,0.3,0.4,0.5,0.5
		c-0.2,0.1-0.3,0.2-0.5,0.3l-0.1,0.1l-0.2,0.1c-0.1,0-0.3,0.1-0.4,0.2c-1,1.1-2.1,2.4-2.5,3.9c-0.1,0.3-0.1,0.5-0.1,0.8
		c-0.1,1.2,0.4,2.2,0.8,3c1.6,3.1,4.2,5.1,6.8,7c2.1,1.6,4.4,3.3,7,4.2c0.3,0.1,0.7,0.3,1.3,0.2c0.1,0,0.3-0.1,0.5-0.1
		c0.3-0.1,0.5-0.2,0.7-0.3v0.1v0.3l0,0c0,0.4,0.3,0.7,0.5,0.8c0.3,0.1,0.5,0.2,0.7,0.3c0.5,0.1,1-0.1,1.4-0.2l0.6-0.2
		c2.1-0.6,4.2-1.2,6.3-1.7c1-0.2,2.1-0.3,3.3-0.7c0.4-0.1,0.8-0.3,1.2-0.5c0.3-0.1,0.6-0.3,0.9-0.6c0.3-0.2,0.5-0.5,0.7-0.9l0.4-0.1
		c0.3-0.1,0.6-0.2,0.9-0.3l0.2-0.1c0.2-0.1,0.4-0.1,0.6-0.2c0.1-0.1,0.2-0.1,0.3-0.3c0.4-0.5,0.6-1.2,0.7-1.7l0,0l0,0l0,0
		c0-0.3,0-0.6-0.2-0.8s-0.5-0.3-0.7-0.3c-0.3,0-0.5,0.1-0.7,0.2l-0.4,0.1l-0.2,0.1c-0.6,0.1-1.2,0.1-1.7,0c-0.2,0-0.4-0.1-0.7-0.1
		c0-0.4-0.2-0.7-0.6-0.8l-0.3-0.1c-0.1,0-0.3-0.1-0.5,0c-0.1,0-0.2,0.1-0.3,0.2c-0.9,0.3-1.7,0.1-2.4-0.4c-1.4-0.8-2.3-2.6-4.1-3.3
		c-0.4-0.2-0.8-0.3-1.4-0.3c-0.3-0.5-0.8-0.7-1-1c-0.7-0.8-0.8-2-1.3-3.3c-0.6-1.7-0.8-3.5-0.6-5.5c0.1-1.8,0.6-3.8,1.2-5.9
		c0.1-0.3,0.1-0.6,0.2-0.9c0.1-1-0.2-1.9-0.8-2.6c-0.3-0.3-0.6-0.5-0.9-0.6c0.2-0.6,0.3-1.3,0.4-1.9c0.1-1.2-0.1-2.5-1.1-3
		c-0.9-0.6-1.7-1.4-2.3-2.4s-0.7-2.2-0.8-3.7c0-1.1,0-2.2,0.1-3.4c0.1-2,0.5-4,1-6.1c0.5-1.9,1.3-3.9,1.7-5.9c0.3-1.4,0.5-2.7,1-4
		c0.2,0,0.4,0,0.7-0.1c0.4-0.1,0.8-0.4,1.2-0.6c0,0.2-0.1,0.4-0.1,0.6l0,0c0,0.2,0,0.3,0.1,0.3l0.1,0.1l0.1,0.1
		c0.1,0,0.2,0.1,0.3,0.2c0.3,0.1,0.6,0.2,0.8,0.3c0.2,0,0.3,0.1,0.3,0.1l0,0c0.5,0.3,1,0.7,1.4,1.1c0.8,0.9,1.5,1.8,1.9,3.1
		c0.7,1.9,1.2,3.9,1.6,6.1c0.2,1,0.2,2.1,0.3,3.1s0.3,2.1,0.9,3c0.5,0.8,1.2,1.5,1.8,2.2c0.1,0.1,0.2,0.1,0.3,0.1
		c-0.1,0.2-0.1,0.4-0.1,0.5c0,0.2,0,0.4,0,0.6c0.1,0.5,0.5,0.8,0.8,1s0.6,0.4,0.7,0.7c0.4,0.7,0.9,1.2,1.4,1.7
		c0.3,0.4,0.4,0.8,0.6,1.4c0.6,1.5,1,3.1,1.1,4.8c0,0.4,0.1,0.8,0.2,1.3c0.1,0.4,0.4,0.8,0.9,0.9c0.3,0.1,0.6,0,0.9-0.1
		c0.1,0,0.2-0.1,0.3-0.1c0.6,0.4,1.1,0.9,1.5,1.5c0.2,0.4,0.3,0.9,0.3,1.4c0.1,0.6,0.1,1.2,0.5,1.7c0.2,0.3,0.4,0.5,0.7,0.6
		s0.6,0.2,1,0.1c0.3-0.1,0.7-0.3,1-0.6c0.6-0.6,1-1.4,1-2c0-0.2,0-0.5-0.1-0.7c-0.3-1-0.6-1.7-0.5-2.6c0-0.2,0-0.3,0.1-0.5
		c0.1-0.4,0.2-0.8,0.5-1.3c0.2-0.5,0.5-1,0.6-1.5l0.1-0.4c0-0.4-0.1-0.7-0.2-1v-0.1c0-0.8-0.4-1.3-0.8-1.8c-0.4-0.4-1-0.8-1.2-1
		c-1.9-1.5-2.6-4.3-2.5-7.3v-0.3c0-0.2,0-0.5,0.1-0.7c0-0.6,0-1.2-0.4-1.7c-0.1-0.1-0.1-0.2-0.2-0.2c0.2-0.3,0.4-0.5,0.6-0.8
		c0.3-0.5,0.5-1,0.5-1.5c0-0.2,0-0.5-0.1-0.7c-0.1-0.5-0.4-0.9-0.6-1.2c-0.7-1-1.4-2-2.1-3c-0.5-0.7-0.6-1.7-1-2.6
		c-0.9-2.3-2-4.6-3.1-6.8c-0.7-1.4-1.3-3.1-2.3-4.3c-0.5-0.5-1-1-1.7-1.3c-0.1,0-0.2-0.1-0.4-0.2c0-0.1,0-0.1,0-0.2l0,0
		c0-0.7,0.1-1.5-0.1-2.2c-0.2-0.7-0.7-1.3-1.5-1.4c-0.3,0-0.7,0-1,0.2c-0.4,0.1-0.8,0.3-1.1,0.5c-0.1-0.4-0.3-0.7-0.5-1
		c-0.3-0.3-0.6-0.4-0.9-0.6c-1.5-0.9-2.6-2.2-3.6-3.6c-0.5-0.7-1.3-1.1-2.1-1.3c-0.7-0.2-1.4-0.3-2-0.6c1.2-6.3,2.2-12.5,3-18.7
		c0.2-1.9,0.5-3.8,0.7-5.7s0.4-3.8,0.6-5.7c0.2-2.5,0.5-5,0.7-7.5c0.1-1.3,0.2-2.5,0.3-3.8s0.2-2.5,0.3-3.8c0.2-2.4,0.3-4.8,0.3-7.2
		c0-1.6,0.1-3.3,0.1-4.9s0.1-3.3,0.1-4.9c0.1-3.3,0.3-6.6,0.5-9.9c0-0.3,0-0.5,0.1-0.8l0.1-1.5c0.3-3.4,0.5-7,1.1-10.5
		c0.1-0.5,0.2-1,0.3-1.5c0.3-1.2,0.5-2.5,0.8-3.7c0.7-3.7,1.3-7.4,2.1-11.2c0.6-2.6,1.2-5.1,1.8-7.7c0.6-2.6,1.2-5.2,1.9-7.7
		c0.5-2.2,1.1-4.5,1.7-6.7c0.1-0.5,0.3-1,0.5-1.4c0.1-0.3,0.2-0.6,0.3-0.9c0.4-0.9,0.7-1.9,1-2.9c0.1-0.3,0.2-0.5,0.2-0.8
		c0.1-0.3,0.1-0.6,0.1-0.9c0-0.1,0-0.2,0-0.3c0.8-0.5,1.4-1.2,1.9-2c0.1-0.1,0.2-0.3,0.2-0.4c0.4-0.7,0.7-1.5,0.8-2.3
		c0.1-0.3,0.1-0.6,0.1-0.9c0-0.2,0-0.3,0-0.5c0-0.1,0-0.2,0-0.2c0.1,0,0.2,0,0.3-0.1c0.1,0,0.2,0,0.3-0.1c0.3-0.1,0.6-0.2,0.9-0.3
		c0.3-0.1,0.5-0.1,0.5-0.2l0.2-0.1c0.7-0.2,1.4-0.5,2.1-0.9c0.2-0.1,0.5-0.3,0.7-0.4c0.3-0.2,0.5-0.4,0.7-0.6
		c0.4-0.4,0.8-0.9,1.1-1.5c0.2-0.3,0.3-0.5,0.5-0.8c0.6-1.1,1-2.2,1.3-3 M217.8,254.1c-0.3,0.2-0.7,0.5-1,0.7
		c-0.1,0.1-0.2,0.1-0.2,0.2c-0.2-0.2-0.4-0.4-0.6-0.6C216.6,254.3,217.2,254.2,217.8,254.1z M218.4,256.7c-0.1,0.1-0.2,0.3-0.3,0.4
		c-0.2,0.2-0.3,0.5-0.5,0.8c-0.1,0.1-0.1,0.2-0.1,0.3s0,0.2,0,0.3l0,0l0,0c0,0-0.1,0-0.1,0.1c-0.3,0.1-0.8,0.4-1.3,0.6
		c-0.5,0.3-1.1,0.5-1.5,0.7c-0.3,0.1-0.5,0.1-0.5,0.1c-0.3-0.1-0.5-0.3-0.7-0.5s-0.3-0.4-0.2-0.6l0.1-0.3c0.1-0.2,0.5-0.5,0.9-0.9
		c0.7-0.5,1.3-0.9,2-1.4c0.3-0.2,0.7-0.5,1-0.7c0.7-0.5,1.4-1,2.1-1.5l0.1,0.1c0.1,0.1,0.1,0.2,0.1,0.4s-0.1,0.4-0.2,0.6
		c-0.1,0.2-0.2,0.4-0.4,0.7C218.8,256.2,218.6,256.4,218.4,256.7z M197.7,476.9c-0.3,0.8-0.7,1.9-1.3,2.8c-0.5,1-1.1,1.8-1.7,2.2
		c-0.8,0.5-1.6,0.9-2.4,1.2l-0.2,0.1c-0.2,0.1-1.2,0.4-1.9,0.5c-0.2,0-0.4,0.1-0.4,0.1l0,0l0,0c-0.1,0-0.1,0-0.2,0
		c-0.1,0-0.1,0-0.2,0.1c-0.1,0-0.1,0.1-0.2,0.2c0,0.1-0.1,0.1-0.1,0.2l0,0c0,0.1-0.1,0.1-0.1,0.2s0,0.1,0,0.2
		c0.1,0.4,0.1,0.8,0.1,1.2c-0.1,0.9-0.4,2-0.9,2.9c-0.3,0.5-0.7,1-1.1,1.3c-0.1-0.5-0.2-1-0.4-1.5c-0.1-0.3-0.3-0.5-0.4-0.8
		c-0.2-0.3-0.4-0.6-0.5-1c-0.3-0.5-0.6-1-0.9-1.4c-0.3-0.5-0.7-0.9-1-1.3c-0.4-0.4-0.9-0.4-1.5-0.3c-0.2,0.1-0.3,0.1-0.4,0.2
		c-0.2,0.1-0.4,0.2-0.6,0.4c-0.2,0.2-0.4,0.3-0.6,0.5c-0.3,0.2-0.5,0.5-0.7,0.7s-0.4,0.5-0.6,0.7c-0.4,0.5-0.7,0.9-1.1,1.4
		c-0.4,0.6-0.9,1.1-1.3,1.6c-0.3,0-0.6,0-1,0.1c-0.7,0.2-1.4,0.7-2.1,1.1c-0.7,0.4-1.3,0.8-1.8,1c-0.2,0-0.3,0.1-0.5,0.1
		c-0.5,0.1-1,0-1.5-0.1s-1.1-0.2-1.8,0l-0.4,0.1c-0.5,0.2-1,0.4-1.4,0.6c-0.2,0-0.4,0-0.6,0c-0.2,0-0.4,0-0.6,0
		c-0.4,0-0.9,0.1-1.3,0.2H164c-0.2,0.1-0.4,0.2-0.6,0.2c-0.6-0.1-1.2-0.5-1.6-1.1c-0.5-0.7-0.9-1.7-1.1-2.6c-0.4-1.4-0.4-3-0.3-4.6
		c0-0.7,0.1-1.4,0.3-2.1c0.7-4.6,2-9.4,3.8-14.1c3.5-9.1,6.8-18.2,9.9-27.3c2.9-8.6,4.6-17.2,5.3-25.4c0.6-7.2,1.9-14.5,2.5-21.6
		c0.1-2,0.2-4.1,0.2-6.1c-0.1-6,0.2-12.1,0.6-18.2c0.5-7.4,1.3-15,2.1-22.5c0.8-7.9,1.9-15.8,2.5-23.7c0.1-0.8,0.1-1.6,0.1-2.4
		c0.5-8.4,0.3-16.6,0.7-24.9c0.1-2,0.2-3.9,0.3-5.9c0.5-6.6,1.5-13.4,4.4-20.3c0.7-1.8,1.5-3.5,2.3-5.3c0.5-1,0.8-1.6,1.1-2.1
		c0.4-0.5,0.8-0.9,1.7-1.6c0.2-0.1,0.3-0.3,0.3-0.4c0.8-2.4,2.7-4.8,4.8-6.4c0.1,0,0.2,0,0.4,0c0.3-0.2,0.7-0.3,1-0.4
		c0.3-0.1,0.6-0.2,0.9-0.2c0.9-0.2,1.7-0.3,2.7-0.4c0.4-0.1,0.9-0.1,1.3-0.2c0.3-0.1,0.7-0.2,1.1-0.3c0.1,0.1,0.3,0.1,0.4,0.2
		c0.1,0.1,0.3,0.1,0.4,0.1c0.1,0,0.2,0.1,0.3,0.1h0.1c0.2,0.1,0.5,0.2,0.7,0.4l0.1,0.1c0,0,0.1,0,0.1,0.1c0.3,0.2,0.6,0.3,0.8,0.5
		c0,0,0,0,0.1,0c0.1,0.1,0.3,0.2,0.4,0.3c0.2,0.1,0.3,0.2,0.5,0.3l0,0c0.2,0.1,0.4,0.3,0.5,0.4c0.2,0.2,0.4,0.4,0.6,0.6
		c-0.6,0.4-1.1,0.8-1.7,1.2c-0.1,0.1-0.2,0.2-0.4,0.3c-0.3,0.2-0.5,0.4-0.8,0.8c-0.1,0.2-0.2,0.3-0.3,0.5c-0.1,0.1-0.1,0.3-0.2,0.4
		c0,0.1-0.1,0.3-0.1,0.4s0,0.1,0,0.2c0,0.3,0.1,0.6,0.2,0.8c0.1,0.1,0.1,0.2,0.2,0.2c0.1,0.1,0.3,0.3,0.4,0.4
		c0.1,0.1,0.3,0.2,0.4,0.3c0.3,0.1,0.5,0.1,0.8,0c0.1,0,0.2-0.1,0.3-0.1c0.3-0.1,0.5-0.2,0.8-0.3s0.6-0.3,0.9-0.4
		c0.3-0.1,0.5-0.3,0.8-0.4c0.2-0.1,0.4-0.2,0.5-0.2c0.1-0.1,0.3-0.1,0.4-0.2c0.1,0.2,0.2,0.5,0.3,0.7c0,0.1,0.1,0.2,0.1,0.3
		c0.1,0.5,0.2,0.9,0.3,1.4c0,0.1,0,0.2,0,0.3s0,0.2,0,0.3c0.1,0.5,0.1,0.9,0.1,1.4l0,0c0,0.2,0,0.3,0,0.5c0,0.6,0,1.3,0,2v0.3
		c0,0.1,0,0.2,0,0.3c0,0.5-0.1,1-0.2,1.6c-0.1,0.6-0.2,1.3-0.3,2c-0.3,1.3-0.8,2.6-1.4,3.3c-0.6,0.8-1.6,1.5-2.5,2.5
		c-1.1,1.2-2.1,2.6-2.9,4c-1.4,2.5-2.6,5.1-3.6,7.6c-1.9,5.1-3,10.2-3.9,15.2c-2.9,15.3-4.8,30.5-5.9,45.3v0.3
		c-1.2,16.5-3.7,33.6-5.4,50.5c-1.1,10.7-2.7,21.8-3.4,32.5c-0.3,4.6-0.5,9.1-0.5,13.6c0.1,6.5,1.2,12.4,3.7,17.5
		c1.1,2.2,1.9,4.5,3.8,6.1c0.7,0.5,1.4,0.8,1.7,1.4c0.4,0.7,0.6,1.5,0.6,2.4 M169.1,492.6c0.1,0,0.2,0,0.4,0c0.1,0,0.3,0,0.4,0.1
		c0.4,0.1,0.8,0.1,1.3,0c0.2,0,0.4-0.1,0.7-0.2c0.4-0.1,0.7-0.3,1.1-0.5c0.4-0.2,0.7-0.4,1-0.6s0.6-0.4,0.9-0.6
		c0.2-0.1,0.4-0.2,0.5-0.2c-0.5,0.5-1.1,1-1.7,1.5c-0.8,0.7-1.6,1.5-2.4,2.4c-0.1-0.3-0.2-0.5-0.4-0.7c-0.7-0.5-1.5-0.9-2.4-1.2
		C168.8,492.6,169,492.6,169.1,492.6z M167.4,622.1c-0.2,0.1-0.5,0.2-0.7,0.3c0-0.1,0-0.3,0.1-0.4v-0.2c0-0.4,0-0.7,0-1
		s0-0.6-0.1-0.9c0-0.3,0-0.6-0.1-0.9c-0.1-0.5-0.2-1-0.3-1.5c-0.1-0.2-0.2-0.5-0.3-0.7c-0.2-0.3-0.3-0.6-0.4-1
		c-0.1-0.3-0.2-0.7-0.2-1.1c-0.1-0.7-0.2-1.5-0.3-2.4c-0.2-1.9-0.4-3.9-0.6-5.8c0-0.1,0-0.2,0-0.2c0.4-2.9,0.8-5.8,1-8.7
		c0.2-2.3,0.3-4.6,0.3-6.9c0.1-4.5,0.5-8.7,0.7-13.2c0.3-7.3-0.3-14.2-0.2-21.3c0-2.4,0.1-4.8,0.3-7.2c0.3-4.7,0.9-9.5,1.6-14.4
		c0.2-1.8,0.5-3.5,0.8-5.3c0.3-1.9,0.5-3.8,0.6-5.7c0-0.6,0.1-1.2,0.1-1.8c0.2-0.7,0.4-1.5,0.6-2.2c0.4-1.4,0.7-2.9,1.1-4.3
		c0.1-0.5,0.2-0.9,0.2-1.3c0-0.1,0-0.2,0-0.3c0-0.2,0-0.4,0-0.6c0-1.4-0.2-2.6-0.5-3.8c-0.1-0.6-0.3-1.2-0.5-1.9
		c0.1-0.7,0.2-1.3,0.3-2c0-0.5,0-1.1,0-1.6c-0.2-1.6-0.5-2.8-0.4-4.3c0-0.2,0-0.4,0.1-0.6c0.1-0.4,0.2-0.9,0.3-1.3l0,0
		c0.1-0.1,0.2-0.2,0.2-0.3c0.1-0.1,0.2-0.2,0.2-0.4c0.2-0.3,0.3-0.6,0.3-0.9c0-0.1,0-0.2,0-0.3c0.1-0.2,0.2-0.3,0.3-0.5
		c0.6-0.9,1.4-1.6,2.3-2.4c0.9-0.8,1.9-1.5,2.8-2.5l0,0c0.3-0.3,0.6-0.7,0.9-1.1c0.7-0.9,1.4-1.8,2-2.6c0.3-0.4,0.7-0.8,1.2-1.2
		c0.4-0.4,0.8-0.7,1.1-0.8c0.3-0.1,0.4-0.1,0.7,0.1c0.9,1,1.6,2.3,2.4,3.6c0.4,0.6,0.6,1.3,0.7,2c0,0.3,0.1,0.7,0,1v0.1
		c0,0.2,0,0.5-0.1,0.8c-0.3,1.9-1.4,3.9-1.9,6c-0.6,2.2-1.1,4.5-1.7,6.7c-1.3,5.2-2.5,10.3-3.6,15.5c-1.1,5-1.8,10-2.9,14.9
		c-0.9,4.1-1.1,8.3-1.4,12.2c-0.1,0.8-0.1,1.6-0.2,2.3c-0.5,6.7-0.6,13.2-0.7,19.8c0,2.4-0.2,4.7-0.3,7.2c-0.4,5-0.9,10-1.4,15
		C170.8,601.9,169.4,612,167.4,622.1z M165.4,549.5c-0.2,2.4-0.3,4.9-0.3,7.3c0,3.6,0.1,7.1,0.2,10.6c0,0.9,0,1.8,0.1,2.6
		c0,2.6,0.1,5.3,0,8c0,0.6-0.1,1.1-0.1,1.7c-0.2,3.9-0.5,7.6-0.6,11.6c0,1.1-0.1,2.2-0.1,3.4c-0.1,1.1-0.1,2.3-0.2,3.4
		c-0.1,1.3-0.2,2.7-0.4,4c-0.1-0.4-0.1-0.8-0.1-1.2c-0.1-0.8-0.2-1.7-0.2-2.5c-0.1-1.3-0.1-2.6,0-3.9c0-1.3,0.1-2.7,0.1-4
		c0-0.4,0-0.8,0-1.1c0-1.1-0.1-2.2-0.2-3.3c-0.1-1.4-0.3-2.8-0.3-4.3c0-4.8,0.1-9.6,0.4-14.5c0.1-1.6,0.2-3.3,0.3-4.9
		c0-0.3,0-0.6,0.1-0.9l0.1-1.8c0.3-3.6,0.5-7.2,0.8-10.8c0.1-1.2,0.2-2.4,0.3-3.6c0.2-1.9,0.4-3.9,0.8-5.8c0.2-1,0.3-1.9,0.5-2.9
		c0.4-2.1,0.8-4.2,1.3-6.3c-0.2,1-0.3,2-0.4,3.1c-0.1,0.6-0.2,1.2-0.3,1.8s-0.2,1.2-0.2,1.8C166.2,541.1,165.7,545.3,165.4,549.5z
		 M176.5,629.3c-0.5,0.1-1.1,0-1.9,0.2h-0.2c-0.6,0.2-1.2,0.6-1.7,1.3c0,0,0,0,0,0.1c0,0,0,0,0,0.1c-0.2,0.3-0.4,0.6-0.4,0.9
		c-0.1,0.3-0.1,0.6-0.1,0.8c0,0-0.1,0-0.1-0.1c-0.2,0-0.4,0-0.5,0.1c-0.2,0.1-0.3,0.1-0.5,0.2c-1.4,0.7-2.7,1.6-4.1,2.5
		c-0.1-0.9-0.3-1.7-0.4-2.6c-0.1-0.6-0.2-1.4-0.6-1.9c-0.5-0.6-1.2-0.7-1.8-1c-0.3-0.1-0.6-0.3-0.8-0.6l0,0c0.6-0.9,1.1-1.7,1.6-2.6
		l0,0c0.1-0.1,0.1-0.2,0.2-0.4c0,0,0-0.1,0.1-0.1l0,0c0.4-0.8,0.8-1.7,1.1-2.6l0,0l0,0c0.5-0.2,0.9-0.4,1.4-0.7
		c0.1,0,0.1-0.1,0.2-0.1l0,0c0.6,0.3,1.3,0.4,1.9,0.6c0.8,0.2,1.4,0.5,1.8,1c1,1.5,2.3,2.9,3.8,3.8c0.3,0.2,0.6,0.3,0.8,0.5
		C176.4,629,176.5,629.2,176.5,629.3z M165.8,637.2c0.2-0.1,0.4-0.3,0.6-0.4c0.2-0.1,0.3-0.2,0.5-0.3c1.4-0.9,2.8-1.8,4.2-2.5
		l0.3-0.1v0.1c0,0.2-0.1,0.4-0.1,0.6c0,0,0,0,0,0.1s-0.1,0.3-0.1,0.4c0,0.1,0,0.1-0.1,0.2v0.1c0,0.1,0,0.1-0.1,0.2
		c-0.1,0.2-0.1,0.3-0.2,0.5c0,0.1-0.1,0.2-0.1,0.2c-0.1,0.2-0.2,0.4-0.4,0.6c-0.2,0.2-0.4,0.5-0.6,0.7c-0.3,0.3-0.6,0.5-1,0.8
		c-0.1,0.1-0.2,0.1-0.3,0.2c-0.3,0.2-0.7,0.4-1.1,0.6c-1.1,0.6-2.2,1.3-3.2,1.8c-0.3,0.1-0.5,0.2-0.7,0.3s-0.4,0.1-0.5,0.1l0,0
		c-0.1,0-0.1,0-0.2-0.1l0,0c-0.1-0.1-0.1-0.1-0.2-0.3c0,0,0-0.1-0.1-0.2c0-0.1-0.1-0.2-0.1-0.3v-0.1v-0.1l0.1-0.3
		c0.4-0.5,1-0.9,1.6-1.3c0.4-0.3,0.8-0.6,1.2-0.9c0,0,0.1-0.1,0.2-0.1C165.5,637.4,165.6,637.3,165.8,637.2L165.8,637.2z
		 M189.6,670.9L189.6,670.9L189.6,670.9l0.1-0.2l0.2-0.3c0.2-0.2,0.4-0.5,0.6-0.7c0.8-0.9,1.9-1.7,2.9-2l0,0
		c0.4-0.1,1.1-0.1,1.5,0.1c0.2,0.1,0.3,0.2,0.4,0.3c0.1,0.1,0.2,0.3,0.2,0.4c0,0.1,0,0.2,0,0.3v0.2c0,0.1,0,0.1-0.1,0.2
		c-0.1,0.3-0.2,0.6-0.4,1c-0.2,0.5-0.5,1-0.6,1.6c0,0.2-0.1,0.5-0.1,0.7c-0.1,1.2,0.3,2,0.5,2.9c0,0.1,0,0.3,0,0.4
		c0,0.3-0.2,0.7-0.5,1c-0.2,0.2-0.3,0.2-0.4,0.2c-0.1,0-0.3,0-0.4,0c-0.2-0.1-0.3-0.2-0.4-0.4c-0.2-0.4-0.3-0.8-0.4-1.4
		c-0.1-0.5-0.1-1.2-0.4-1.7c-0.3-0.5-0.7-1-1.2-1.3c-0.1-0.1-0.3-0.2-0.4-0.3c-0.2-0.1-0.3-0.2-0.5-0.3c-0.1,0-0.2-0.1-0.2-0.1
		c-0.2-0.1-0.4-0.2-0.5-0.3C189.7,671.1,189.6,670.9,189.6,670.9z M184.2,660.3c0-0.2,0-0.4,0.1-0.6c0.1-0.2,0.2-0.4,0.3-0.6l0,0
		c0.2-0.3,0.3-0.5,0.4-0.7l0.1-0.1c0.1-0.2,0.2-0.4,0.4-0.6c1-1.1,2.4-2.2,3.6-2.7h0.1c0.2-0.1,0.4-0.1,0.6,0c0.1,0,0.2,0,0.3,0.1
		c0.1,0,0.1,0.1,0.2,0.1c0.1,0.1,0.2,0.2,0.3,0.3s0.1,0.1,0.2,0.2c0.3,0.4,0.3,0.7,0.2,1.1c0,0.2,0,0.5-0.1,0.7v0.3
		c-0.1,3.2,0.6,6.3,2.7,7.9c0.2,0.2,0.5,0.4,0.8,0.7c-0.3,0-0.7,0-1,0.1h-0.1c-1.2,0.4-2.5,1.4-3.5,2.5c-0.1,0.2-0.4,0.4-0.7,0.8
		c-0.1,0.2-0.3,0.4-0.4,0.6c-0.2-1.8-0.6-3.4-1.2-5c-0.2-0.5-0.3-1.1-0.7-1.6c-0.5-0.6-1-1.1-1.4-1.7c-0.2-0.4-0.6-0.6-0.9-0.8
		c-0.3-0.2-0.5-0.4-0.6-0.7L184.2,660.3z M174.5,640c0-0.3,0.1-0.7,0.2-1c0.1-0.3,0.2-0.7,0.3-1c0.2-0.6,0.6-1.2,0.9-1.8
		c0.1-0.1,0.1-0.1,0.1-0.2c0.9-1.3,2.1-2.5,3.4-3.2l0,0h0.2c0,0,0.1,0,0.2,0c0.1,0,0.2,0.1,0.4,0.1c0,0,0.1,0,0.1,0.1
		c0.2,0.1,0.3,0.1,0.4,0.2c0.1,0.1,0.2,0.1,0.3,0.2c0.6,0.3,1.1,0.7,1.5,1.2c0.9,1.1,1.5,2.7,2.2,4.2c1.1,2.2,2.1,4.4,3.1,6.7
		c0.4,0.9,0.5,1.9,1.1,2.8c0.7,1,1.4,2,2.1,3c0.2,0.3,0.5,0.6,0.6,1v0.3c0,0.2-0.1,0.5-0.3,0.8c-0.1,0.2-0.3,0.4-0.4,0.6l0,0
		c-0.4-0.2-0.9-0.2-1.4,0l-0.2,0.1c-1.5,0.6-3,1.8-4.2,3.1c-0.3,0.3-0.5,0.7-0.7,0.9c-0.2,0.3-0.3,0.6-0.5,0.9l0,0h-0.1
		c-0.6-0.6-1.2-1.2-1.6-2c-0.5-0.8-0.7-1.7-0.8-2.6c-0.1-1-0.1-2.1-0.3-3.2c-0.4-2.2-1-4.2-1.6-6.2c-0.4-1.3-1.1-2.4-2-3.3
		c-0.4-0.4-0.9-0.9-1.5-1.2l-0.2-0.1c-0.1,0-0.2-0.1-0.3-0.1c-0.3-0.1-0.5-0.2-0.8-0.3C174.5,640,174.5,640,174.5,640z M171,639.1
		c-0.1-0.2-0.2-0.6-0.4-0.9c-0.1-0.1-0.1-0.2-0.2-0.4c0,0,0,0,0.1-0.1c0.1-0.2,0.3-0.3,0.4-0.5c0.2-0.3,0.4-0.6,0.6-0.9
		c0.1-0.1,0.1-0.2,0.1-0.3c0.1-0.2,0.2-0.4,0.2-0.6c0-0.1,0.1-0.2,0.1-0.3c0.1-0.2,0.1-0.4,0.1-0.5c0.1-0.1,0.1-0.1,0.2-0.2
		c0.2-0.3,0.4-0.6,0.6-0.9c0-0.1,0.1-0.2,0.1-0.3s0.1-0.2,0.1-0.3c0.1-0.4,0.1-0.7,0.2-0.9l0.2-0.4l0.1-0.1c0.1-0.2,0.5-0.5,0.9-0.7
		h0.1c0.5-0.1,1-0.1,1.7-0.2c0.1,0,0.2,0,0.3-0.1l0.3-0.1h0.1c0.2-0.1,0.4-0.2,0.6-0.3c0.4-0.2,0.8-0.4,1.2-0.5
		c0.3-0.1,0.5-0.1,0.7-0.1c0.4,0,0.8,0.4,0.9,0.9c0.1,0.4,0.1,0.9,0.1,1.4c-0.1,0-0.1,0-0.2-0.1c-0.2,0-0.4-0.1-0.7,0l-0.2,0.1
		c-1.5,0.9-2.9,2.2-4,3.8c-0.6,0.9-1.1,2-1.4,2.9c-0.1,0.1-0.3,0.2-0.4,0.3c-0.3,0.3-0.7,0.5-1.1,0.6c-0.3,0.1-0.6,0.1-0.8,0.1l0,0
		h-0.1C171.2,639.5,171.1,639.3,171,639.1z M170.9,669.6c0,0.4-0.1,0.9-0.2,1.4c-0.2,0-0.4,0-0.6,0.1l-0.4,0.1
		c-0.9,0.3-1.8,0.9-2.6,1.6c-0.9,0.8-1.6,1.7-2.3,2.5c-0.2,0.2-0.3,0.4-0.5,0.6c-0.1,0-0.1,0-0.2,0l0,0c-0.3-0.1-0.5-0.2-0.8-0.4
		l0,0c-0.2-0.2-0.4-0.4-0.6-0.6l0,0c-0.2-0.2-0.4-0.5-0.5-0.7c-0.4-0.7-0.7-1.3-0.7-2.2c0-0.1,0-0.3,0-0.4c0-0.2,0-0.4,0.1-0.6
		c0-0.2,0.1-0.4,0.2-0.6c0.1-0.3,0.2-0.7,0.3-1.1c0-0.1,0.1-0.2,0.1-0.3l0,0c0.1-0.3,0.2-0.7,0.3-1c0.7-2.6,1-5,1.2-7.5
		c0-0.4,0.1-0.9,0.1-1.3c0.1-1.4,0.1-2.7,0.2-4.1c0-0.6,0.1-1.2,0.2-1.7c0.1-0.4,0.1-0.8,0.1-1.2c0.1-0.9,0.1-1.8,0-2.6l0,0l0,0
		c0-0.1,0-0.3-0.1-0.5c0,0,0,0,0-0.1s0-0.2,0-0.3s0-0.2-0.1-0.3c0-0.1,0-0.1-0.1-0.2v-0.1c0-0.2-0.1-0.4-0.2-0.5
		c-0.3-0.4-0.6-0.6-0.7-0.9c-0.4-0.7-0.5-1.6-0.4-2.6c0-0.3,0.1-0.6,0.1-0.9c0-0.2,0.1-0.4,0.2-0.6h0.1c0.1,0,0.1,0,0.2-0.1
		c0.3-0.1,0.6-0.2,0.9-0.4c1.1-0.6,2.2-1.3,3.3-1.9l0.1-0.1c0.2-0.1,0.4-0.2,0.6-0.3c0.1-0.1,0.2-0.1,0.3-0.2
		c0.2-0.1,0.4-0.2,0.5-0.4c0.1-0.1,0.2-0.1,0.3-0.2l0.1-0.1c0,0.1,0.1,0.2,0.2,0.3c0.1,0.2,0.2,0.5,0.3,0.8s0.3,0.6,0.6,0.7
		c-0.5,1.5-0.8,3-1.1,4.4c-0.4,1.9-1.2,3.8-1.7,5.9c-0.5,2.1-0.9,4.2-1,6.3c-0.1,1.2-0.1,2.4-0.1,3.5c0.1,1.5,0.1,2.9,0.9,4.1
		c0.6,1,1.5,1.9,2.5,2.6C170.8,667.6,171,668.5,170.9,669.6z M162.9,655.3c-0.1,1.4-0.1,2.7-0.2,4.1c0,0.4-0.1,0.8-0.1,1.3
		c-0.2,1.4-0.3,2.9-0.5,4.3c-0.1-1.1-0.1-2.2-0.1-3.4c0-1.3,0-2.4,0.1-3.6c0.1-1.1,0.2-2.2,0.5-3.4c0.2-0.7,0.4-1.4,0.6-2.1
		c0,0.3-0.1,0.7-0.1,1C163,654.1,162.9,654.7,162.9,655.3z M173.7,691.5c-0.1,0.1-0.2,0.1-0.3,0.2c-1,1.1-2.1,2.2-3.1,3.3
		c-0.2,0.2-0.3,0.4-0.5,0.6c-0.1,0.2-0.2,0.4-0.3,0.6c-0.1-0.1-0.1-0.3-0.2-0.5c-0.2-0.6-0.2-1.2-0.3-1.8c0-0.2-0.1-0.3-0.1-0.5
		c-0.4-2-0.8-3.9-1.3-5.7c-0.7-2.5-1.4-5.1-2.7-7.2c-0.3-0.5-0.6-1.1-0.8-1.7c0.1-0.2,0.2-0.3,0.4-0.5c0.3-0.4,0.5-0.8,0.6-1.2
		c0.1-0.2,0.2-0.4,0.2-0.6l0,0c0-0.2,0-0.3-0.1-0.4l0.1-0.1l0.1-0.1c0.7-0.8,1.4-1.7,2.1-2.3c0.7-0.6,1.4-1.1,2.1-1.3l0.3-0.1
		c0.2,0,0.3,0,0.5,0s0.3,0,0.5,0.1c0.1,0.1,0.3,0.1,0.4,0.2c0.2,0.1,0.3,0.2,0.4,0.3c0.4,0.5,0.7,1.3,0.6,2c0,0.2-0.1,0.4-0.1,0.6
		c-0.6,2.1-1.1,4.2-1.2,6.2c-0.1,2.1,0,4.1,0.7,5.9c0.4,1.1,0.5,2.5,1.4,3.5C173.2,691.1,173.4,691.3,173.7,691.5z M183.2,696.1
		c-0.1,0.1-0.1,0.1-0.2,0.2c-0.1,0.1-0.3,0.3-0.6,0.4c-0.2,0.2-0.5,0.4-0.8,0.7l-0.1,0.1c-0.2,0.2-0.5,0.4-0.8,0.8
		c-0.1,0.1-0.2,0.2-0.3,0.4c-0.1,0.1-0.2,0.3-0.2,0.5c-1.7-0.4-3.3-0.8-4.8-1.4l0,0c-0.3-0.1-0.6-0.2-0.9-0.4
		c-0.8-0.4-1.8-0.3-2.7-0.4c-0.2,0-0.3-0.1-0.5-0.1c-0.1,0-0.1,0-0.2,0H171c-0.1,0-0.2-0.1-0.2-0.1c-0.1,0-0.1-0.1-0.2-0.1
		c-0.1-0.1-0.1-0.1-0.2-0.2c-0.1-0.1-0.2-0.3-0.2-0.5l0,0l0.1-0.1c0.1-0.1,0.2-0.2,0.3-0.4c1-1.1,2.1-2.2,3.1-3.3c0,0,0.1,0,0.1-0.1
		c0.1,0,0.1-0.1,0.2-0.1c0.1,0,0.2,0,0.3,0s0.3,0,0.5,0.1c0.2,0,0.4,0.1,0.5,0.2c1.5,0.6,2.4,2.3,4,3.3c0.8,0.5,1.8,0.8,3.1,0.4l0,0
		l0.2-0.1l0.2,0.1L183.2,696.1z M183.2,698.9c-0.1,0-0.2,0-0.3,0c-0.2,0-0.4,0-0.7,0.1c-0.2,0-0.4,0-0.6,0.1l0,0h-0.1
		c-0.1,0-0.1,0-0.2,0l0.1-0.2c0.1-0.2,0.4-0.4,0.6-0.6l0.2-0.3c0.1-0.1,0.2-0.2,0.4-0.3c0,0,0.1,0,0.1-0.1c0.2-0.1,0.4-0.3,0.7-0.5
		h0.1l0.1-0.1h0.2c0.1,0,0.2,0,0.2,0c0.1,0,0.3,0,0.4,0.1c0.6,0.1,1.3,0.1,2,0c0.1,0,0.3-0.1,0.4-0.1l0.4-0.1
		c0.2-0.1,0.3-0.1,0.4-0.1h0.1c0,0,0.1,0.2,0,0.3l0,0c0,0.2-0.1,0.5-0.3,0.8L187,698l-0.1,0.1c-0.3,0.1-0.5,0.2-0.8,0.3l-0.3,0.1
		c-0.1,0-0.3,0.1-0.4,0.1l0,0c-0.3,0.1-0.6,0.2-0.9,0.3C184.3,698.7,183.8,698.8,183.2,698.9z M171.4,702.3c0-0.1,0.1-0.3,0.1-0.5
		l0,0l0.1-0.1l0,0l0,0c0.1-0.1,0.2-0.2,0.3-0.2l0.3-0.4V701l0.2-0.2l0.1-0.2l0,0c0.1,0,0.1,0,0.2-0.1c0.8-0.4,1.5-0.9,2.3-1.4l0,0
		c1.6,0.6,3.3,0.9,4.9,1.4l0,0c0.3,0.1,0.6,0,1-0.1c0.2-0.1,0.3-0.2,0.5-0.3l0,0c0.5,0,1-0.1,1.5-0.1c0.4,0,0.8-0.1,1.2-0.2
		c0,0-0.1,0-0.1,0.1c-0.3,0.2-0.6,0.3-0.9,0.4c-1,0.3-2,0.4-3.2,0.7c-2.1,0.5-4.2,1.1-6.3,1.7l-0.6,0.2c-0.4,0.1-0.7,0.2-0.8,0.1
		c-0.2-0.1-0.4-0.1-0.6-0.2C171.5,702.6,171.4,702.5,171.4,702.3L171.4,702.3z M171.2,699.4c-0.6-0.7-1.5-1.1-2.1-1.6
		c-0.1,0-0.1-0.1-0.1-0.1c-0.2-0.1-0.4-0.3-0.5-0.5c-0.2-0.2-0.3-0.3-0.5-0.5c-0.3-0.4-0.6-0.7-1-1.2c-1.4-1.7-2.9-3-4.1-4.7
		c-1.2-1.8-2.5-3.5-3.7-5.3c-0.2-0.3-0.3-0.5-0.4-0.7v-0.1c0-0.1,0-0.3,0-0.4l0,0l0,0c0-0.1,0-0.3,0.1-0.3c0.2-0.3,0.4-0.6,0.6-0.9
		c0.1-0.1,0.1-0.1,0.1-0.2c0.2-0.2,0.4-0.5,0.6-0.7c0.8-0.9,1.6-1.7,2.6-2.3c0.1-0.1,0.3-0.2,0.5-0.3h0.1l0,0c0,0.1,0,0.2,0.1,0.3
		c0.1,0.2,0.1,0.4,0.2,0.6c0,0,0,0,0,0.1c0.1,0.3,0.3,0.6,0.5,0.8l0,0c0.3,0.5,0.6,1,0.8,1.6c0.1,0.3,0.3,0.6,0.3,0.9
		c0.1,0.1,0.1,0.2,0.1,0.3c0.2,0.5,0.3,1,0.5,1.5c0.1,0.4,0.3,0.8,0.4,1.3c0.1,0.5,0.3,1,0.4,1.5c0.5,1.8,1,3.7,1.3,5.6
		c0.1,0.4,0.1,1,0.3,1.7c0.1,0.3,0.1,0.7,0.3,1c0.1,0.3,0.3,0.6,0.5,0.8c0.1,0.1,0.2,0.2,0.3,0.3c0.2,0.2,0.5,0.2,0.8,0.2h0.2h0.1
		l0,0l0,0c0.1,0.1,0.3,0.1,0.4,0.2h0.1c0.3,0.1,0.5,0.1,0.8,0.1c0.9,0.1,1.8,0,2.4,0.3c0.1,0,0.1,0,0.2,0.1
		c-0.1,0.1-0.1,0.1-0.2,0.1c-0.4,0.2-0.8,0.5-1.2,0.7l0,0c-0.1,0-0.2,0.1-0.3,0.1h-0.1l-0.2,0.1c-0.2,0.1-0.4,0.1-0.5,0
		C171.5,699.7,171.4,699.6,171.2,699.4z M158,683.5c0,0.1-0.1,0.1-0.1,0.1l0,0l0,0c-0.1,0.2-0.2,0.3-0.2,0.5c0,0.1-0.1,0.2-0.1,0.3
		v0.1c0,0.3,0,0.6,0.1,0.8c0.1,0.4,0.3,0.7,0.5,1c1.2,1.8,2.5,3.5,3.7,5.3c1,1.3,2.1,2.4,3.2,3.6c0.3,0.4,0.7,0.8,1,1.2
		s0.6,0.8,1,1.2c0.3,0.4,0.7,0.7,1.1,1.1c0.7,0.6,1.6,1,2.1,1.6c0.2,0.3,0.5,0.4,0.7,0.5c0.1,0,0.1,0,0.2,0l0,0L171,701
		c-0.5,0.4-0.9,0.7-1.3,0.8l-0.3,0.1c-0.3,0-0.6,0-0.9-0.2c-2.5-0.9-4.8-2.6-6.9-4.1c-2.6-1.9-5.1-3.9-6.6-6.8
		c-0.4-0.8-0.8-1.7-0.7-2.6c0-0.2,0-0.4,0.1-0.5c0.2-1,1-2,1.9-3h0.1l0.2-0.1C157.1,684.3,157.6,683.9,158,683.5z M154.4,673.4
		c0.1-1,0.3-2.1,0.4-3.2c0.1-0.5,0.1-0.9,0.1-1.3l0.1-2c0.2-2.7,0.3-5.3,0.8-7.9c0.1-0.5,0.1-1,0.2-1.5c0.1-1.8,0-3.4,0.1-5.1
		c0.1-2.1,0.3-4.2,0.4-6.2v-0.1c0-0.5,0.1-1.1,0.3-1.6l0,0c0.8-0.3,1.6-0.8,2.3-1.3c0.8-0.5,1.5-1.1,2.2-1.7l0,0l0,0
		c0,0.1,0,0.1,0,0.1c0.1,0.2,0.2,0.4,0.4,0.5c0,0,0.1,0,0.1,0.1c0,0,0,0,0.1,0l0,0c-0.1,0.3-0.2,0.5-0.2,0.8
		c-0.1,0.4-0.1,0.8-0.2,1.2c-0.1,1.1,0.1,2.2,0.5,3c0.2,0.5,0.6,0.7,0.7,1c0,0.1,0.1,0.2,0.1,0.3c0.1,0.4,0.2,0.9,0.2,1.3l0,0
		c-0.6,1.6-1.2,3.2-1.6,4.8c-0.3,1.3-0.5,2.5-0.6,3.6c-0.1,1.2-0.1,2.4-0.1,3.6c-0.1,2.1,0.1,4.2,0.5,6.1c-0.1,0.3-0.1,0.6-0.2,0.8
		l0,0c-0.1,0.4-0.2,0.7-0.4,1.1c-0.2,0.6-0.3,1.2-0.4,1.8c0,0.2,0,0.4,0,0.6c0.1,1.1,0.4,1.8,0.8,2.5l0,0c0.1,0.1,0.2,0.2,0.2,0.4
		l0,0c0,0,0,0,0,0.1s0.1,0.1,0.1,0.1c0,0.1,0.1,0.2,0.2,0.3c0,0,0,0,0.1,0.1c0.2,0.2,0.4,0.5,0.7,0.7c0,0,0,0,0.1,0
		c0.3,0.2,0.6,0.3,0.9,0.5l0,0l0,0c0.1,0,0.3,0,0.5,0.1h0.1l0,0c-0.1,0.2-0.2,0.5-0.4,0.7c0,0.1-0.1,0.1-0.1,0.2
		c-0.1,0.1-0.2,0.2-0.3,0.4c-0.1,0-0.2,0.1-0.3,0.2c-0.1,0-0.1,0-0.2,0.1c-1.5,0.9-2.9,2.1-4,3.6c-0.3,0.1-0.5,0.1-0.7,0.1
		c-0.1,0-0.2,0-0.3,0c-0.2-0.1-0.3-0.2-0.5-0.4c-0.1-0.2-0.3-0.5-0.5-0.8c-0.3-0.4-0.5-0.9-0.7-1.5c-0.7-2-1.8-3.2-1.8-5.4
		C154.3,674,154.3,673.7,154.4,673.4z M160.6,634.3c0.2-0.2,0.4-0.6,0.6-0.9c0.2-0.3,0.4-0.7,0.4-1.1l0,0v-0.1c0-0.2,0-0.3-0.1-0.5
		l0,0c0.3-0.4,0.6-0.9,0.9-1.3l0,0c0.3,0.3,0.6,0.5,0.9,0.6c0.7,0.2,1.3,0.4,1.6,0.8c0.1,0.2,0.2,0.4,0.3,0.7s0.1,0.6,0.2,0.9
		c0.1,0.9,0.3,1.8,0.4,2.7c-0.7,0.5-1.5,1-2.2,1.5c-0.6,0.4-1.4,1-2,1.7c-0.3,0.4-0.5,0.8-0.5,1.1c-0.8,0.6-1.6,1.2-2.4,1.8l0,0
		c-0.7,0.5-1.4,0.9-2,1.1h-0.1c-0.2,0-0.3,0.1-0.5,0.1c0-0.4,0-0.7,0-1.1c0-0.4,0.1-0.7,0.1-1.1c0.2-0.1,0.3-0.2,0.4-0.4
		C157.7,638.7,159,636.4,160.6,634.3z M159.4,497.6c0-0.4,0.1-0.8,0.4-1.2c0.3-0.5,0.8-0.9,1.3-1.3c0.6-0.5,1.3-0.9,1.9-1.3
		c0.2-0.1,0.5-0.3,0.7-0.3h0.1c0.6-0.2,1.5-0.2,2.2-0.1h0.1c1.5,0.1,2.9,0.6,4,1.5c0.2,0.1,0.2,0.4,0.3,0.9c0,0.1,0,0.1,0,0.2
		s0,0.2,0,0.3c0,0.2-0.1,0.5-0.2,0.6c-0.1,0.2-0.3,0.4-0.5,0.7c-0.1,0.1-0.1,0.1-0.2,0.2c-1.1,1.3-1.6,2.8-1.6,4
		c-0.1,0.7,0,1.4,0.2,2c0.4,1.4,0.8,2.8,1.2,4.3c0.2,0.7,0.4,1.3,0.5,2l0,0c0.3,1.3,0.5,2.6,0.4,4.1c0,0.5-0.1,0.9-0.2,1.4
		c-0.2,0.8-0.4,1.6-0.6,2.5c-0.3,1.3-0.7,2.7-1,4.1l0,0c0,0.1,0,0.2-0.1,0.2c-1.1,4.8-2.1,9.5-3,14.2c-1.6,7.9-1.9,15.7-2.5,23.3
		c-0.1,0.9-0.1,1.8-0.2,2.7c-0.5,6.6-0.7,13.1-0.7,19.5c0,3.1,0.7,5.8,0.6,8.8c-0.1,3.5-0.2,7.1,0.2,10.5c0.2,1.8,0.4,3.6,0.6,5.4
		c0.1,1.2,0.2,2.4,0.4,3.7c0.1,0.8,0.2,1.7,0.3,2.5c0.2,1.7,0.2,3.3,1,4.7c0.5,0.9,0.6,1.6,0.6,2.8c0,0.7,0.1,1.2,0.1,1.8
		c0,0.2-0.1,0.5-0.1,0.7c0,0.1,0,0.1,0,0.2c0,0.1-0.1,0.2-0.1,0.3c-0.1,0.2-0.2,0.5-0.3,0.7s-0.1,0.4-0.2,0.6c0,0,0,0.1-0.1,0.1
		c-0.2,0.4-0.4,0.9-0.7,1.3l0,0c-0.6,1.1-1.2,2.1-1.9,3.2c-0.4,0.6-0.8,1.2-1.3,1.8c-0.6,0-1.3,0.1-1.9,0c-0.8-0.1-1.4-0.3-1.7-0.7
		c-0.3-0.3-0.4-1-0.8-1.6c-0.4-0.5-0.7-1-0.8-1.6c0-0.3,0-0.5,0-0.8c0.1-1.2,0.6-2.8,0.8-4.2c0.3-1.7,0.5-3.4,0.6-5.1
		c0-0.1,0-0.3,0-0.4c0.2-2.6,0.4-5.1,0.2-7.6c-0.4-4.5-0.4-9.3-0.5-14c-0.1-4.8-0.1-9.7,0.2-14.6c0.2-5,0.3-9.9,0.4-14.8
		c0-0.9,0.1-1.7,0.1-2.6c0.3-3.9,1-8,1.4-11.9c0.4-3.7,0.7-7.3,1.1-11c0.4-3.7,0.9-7.4,1.2-11.1l0.1-1.4c0.2-2.9,0.4-5.7,0.6-8.6
		c0.1-1.6,0.2-3.3,0.4-5c0.1-0.8,0.1-1.7,0.2-2.5c0.2-2.7,0.2-5.4-0.4-7.9c-0.2-0.7-0.4-1.5-0.7-2.1c-0.3-0.7-0.9-0.9-1.4-1.2
		c-0.6-0.5-0.8-1.4-0.8-2.5L159.4,497.6z M169.2,503.1c-0.1-0.3-0.1-0.5-0.2-0.8c0-0.3,0-0.6,0-0.9c0-0.4,0.1-0.8,0.2-1.2
		c0,0.4,0,0.8,0,1.1c0.1,1.1,0.3,2.1,0.4,3.2c0,0.1,0,0.2,0,0.3C169.5,504.3,169.4,503.7,169.2,503.1z"/>
</g>
<path class="st0" d="M454,263.7c-0.1-0.1-0.1-0.3-0.2-0.4c-0.5-1-0.8-1.7-1.3-2.4c-0.5-0.6-1.1-1.2-1.9-1.8
	c-0.2-0.6-0.5-1.3-0.9-1.9c-0.3-0.6-0.7-1.2-1.2-1.8c-0.9-1.2-1.9-2.2-3-3.1c-0.2-0.2-0.5-0.3-0.7-0.5c-0.3-0.7-0.8-1.4-1.4-1.9
	c-0.2-0.2-0.4-0.3-0.6-0.5c-0.6-0.4-1.1-0.8-1.7-1.1c-0.8-0.4-1.5-0.8-2.3-1.1c-0.8-0.3-1.6-0.6-2.4-0.9c-0.4-0.1-0.7-0.2-1.1-0.3
	c-0.4-0.1-0.7-0.2-1-0.3c-0.1-0.2-0.2-0.4-0.4-0.6c-0.4-0.6-0.9-1-1.4-1.5c-0.6-0.5-1.2-0.9-1.8-1.2c-0.2-0.1-0.4-0.3-0.6-0.4
	c-1-0.5-1.9-1-2.9-1.5c-2.8-1.4-5.6-2.5-8.4-4c-3.9-2.1-7.8-4.2-11.8-6c-1-0.4-1.9-0.9-2.9-1.3c-1.4-0.7-2.9-1.4-4.3-2.1
	c-1.4-0.7-2.9-1.5-4.3-2.3c-1.1-0.6-2.2-1.2-3.2-1.9c0.2,0.5,0.4,0.9,0.6,1.4c0.8,0.5,1.6,1,2.5,1.4c3.8,2.1,7.7,4,11.6,5.8
	c3.9,1.7,7.8,3.9,11.7,5.9c3.8,2,7.5,3.4,11.2,5.5c0.7,0.4,1.5,0.9,2.1,1.4c0.6,0.5,1.1,1.1,1.4,1.8c0.1,0.2,0.3,0.4,0.6,0.5
	c0.8,0.2,1.5,0.4,2.3,0.7c1.5,0.5,3,1.1,4.4,1.9c0.7,0.4,1.3,0.8,1.9,1.3l0.1,0.1c0.3,0.2,0.5,0.5,0.7,0.8c-0.1,0-0.1-0.1-0.2-0.1
	c-1.3-0.4-2.5-0.5-3.7-0.7c-0.8-0.1-1.6-0.3-2.3-0.5c-0.1,0-0.1,0-0.2,0h-0.1c-0.1,0-0.4-0.2-0.7-0.3c-0.3-0.2-0.6-0.3-1-0.4
	c-0.2,0-0.3-0.1-0.5-0.1c0,0,0,0-0.1,0h-0.3c-0.1,0-0.1,0-0.2,0.1c0,0,0,0-0.1,0c-0.1,0-0.1,0.1-0.1,0.1c-0.2,0.2-0.3,0.3-0.4,0.3
	H433c-0.2-0.1-0.4-0.2-0.6-0.3l-3-1.5c-3-1.5-6.1-3-9.2-4.2c-1.2-0.5-2.5-1-3.8-1.4c-0.3-0.1-0.5-0.2-0.8-0.3
	c-0.6-0.2-1.2-0.4-1.8-0.5c-0.5-0.1-1-0.2-1.5-0.3c-0.1,0-0.2-0.1-0.3-0.1h-0.4c-0.2,0-0.4,0-0.6-0.1c-0.7-0.1-1.3-0.1-1.9,0h-0.4
	c-0.3-0.3-0.6-0.6-0.9-0.8c-1.2-1.1-2.4-2.2-3.6-3.3c-0.5-0.5-1-0.9-1.5-1.3l-0.3-0.2h-0.1c-1.6-0.5-3-1.1-4.5-2
	c-0.1,0-0.2-0.1-0.2-0.1c-0.5-0.3-1-0.5-1.5-0.8c0.2,0.5,0.4,0.9,0.5,1.4c0.3,0.1,0.5,0.3,0.8,0.4c0.4,0.2,0.8,0.5,1.3,0.7
	c0,0,0.1,0,0.1,0.1c0.5,0.2,1,0.5,1.5,0.7c0.2,0.1,0.3,0.1,0.5,0.2c0.5,0.2,1.1,0.4,1.6,0.6c0.6,0.5,1.2,1.1,1.8,1.7
	c0.4,0.4,0.8,0.7,1.2,1.1c0.2,0.2,0.4,0.4,0.6,0.5c0.3,0.3,0.6,0.6,0.9,0.9c0.5,0.5,1,0.9,1.4,1.3c0.1,0.1,0.2,0.1,0.3,0.2
	c0.1,0,0.2,0,0.2,0c1.4-0.2,3.1,0,5,0.5c0.6,0.2,1.2,0.3,1.8,0.5c0.4,0.1,0.8,0.3,1.2,0.4c1.1,0.4,2.3,0.9,3.3,1.3
	c0.9,0.4,1.8,0.8,2.8,1.2c0.3,0.1,0.6,0.3,0.8,0.4c0.7,0.3,1.4,0.6,2,0.9c0.3,0.1,0.5,0.2,0.8,0.4c1.9,0.9,3.8,1.9,5.7,2.8
	c0.2,0.1,0.5,0.2,0.8,0.3c0.2,0,0.3,0.1,0.5,0.1c0,0,0,0,0.1,0h0.3c0.1,0,0.1,0,0.2,0h0.1c0.1,0,0.2-0.1,0.2-0.1s0.1,0,0.1-0.1
	l0.1-0.1c0.1-0.1,0.1-0.1,0.2-0.2h0.1c0.1,0,0.1,0,0.3,0.1c0.1,0,0.3,0.1,0.5,0.2l-0.1,0.1c-1,0.5-1.9,1.1-2.8,1.8
	c-1.2-0.3-2.5-0.6-3.7-0.6h-0.8c-0.3,0.1-0.6,0.2-0.8,0.5c0,0,0,0,0,0.1c-0.1,0.2-0.2,0.5-0.2,0.9c0,0.3,0.1,0.7,0.3,1
	c0.3,0.7,0.7,1.2,1,1.7c0.2,0.2,0.4,0.6,0.6,0.9c-0.1,0.3-0.2,0.6-0.3,0.9s-0.2,0.6-0.3,0.9c-0.2,0.6-0.3,1.2-0.4,1.8v0.1
	c0,0.1,0,0.1,0,0.2c-0.1,0.5-0.1,1.1-0.2,1.7v2.5c0,0.2,0,0.4,0.1,0.7c0,0.4,0.1,0.9,0.2,1.4c-1.2,0.6-2.4,1.4-3.5,2.2
	c-0.6,0.5-1,0.9-1.3,1.4s-0.4,1.2-0.5,2.1c-0.1,1.6-0.2,3.1-0.8,4.2c-0.5,0.9-1.6,1.2-2.8,1.5c-1.2,0.4-2.3,0.8-3.4,1.3
	c-0.1-0.7-0.3-1.4-0.5-2.2c-0.9-2.7-2.5-5.5-4.4-7.8c0.7-2.6-1.5-5.7-3.4-8.3c-0.3-0.4-0.5-0.7-0.8-1.1c-0.1-0.1-0.2-0.2-0.2-0.3
	c0.4,1.1,0.8,2.2,1.2,3.2c1.4,2,2.5,4.1,2.1,5.8c0.2,0.5,0.4,1,0.5,1.5c1.8,2.1,3.2,4.6,4,7c0.3,1,0.5,1.9,0.6,2.7v1.5
	c0,0.2-0.1,0.4-0.1,0.5c0.6,0.5,1.3,1,1.9,1.5c-0.3-0.3-0.5-0.6-0.8-0.9c0.1-0.5,0.1-1.1,0.1-1.8c1.2-0.6,2.5-1.1,3.9-1.6
	c1.1-0.4,2.4-0.6,3.1-1.8c0.7-1.3,0.8-3,0.9-4.5c0-0.6,0.1-1.1,0.2-1.5c0-0.1,0.1-0.2,0.1-0.3c0.2-0.4,0.5-0.7,0.9-1
	c0.1-0.1,0.1-0.1,0.2-0.2c0.2-0.1,0.4-0.3,0.6-0.4c0.7-0.5,1.5-1,2.3-1.4c0.1,0.3,0.1,0.7,0.2,1c0.2,1.1,0.6,2.2,1.1,3.1
	c0.2,0.3,0.4,0.6,0.6,0.9c0.8,1,1.8,1.8,2.5,2.5c0.3,0.3,0.5,0.6,0.7,0.9c0.1,0.1,0.2,0.2,0.3,0.3c0.2-0.2,0.4-0.3,0.7-0.5
	c0-0.1-0.1-0.1-0.1-0.2l18.4-12.5 M432.2,254.4c-0.2,0.2-0.4,0.4-0.6,0.6c-0.1-0.1-0.1-0.1-0.2-0.2c-0.3-0.2-0.7-0.5-1-0.7
	C431,254.2,431.6,254.3,432.2,254.4z M428.9,255.3c-0.1-0.2-0.1-0.4-0.2-0.6c0-0.2,0-0.3,0.1-0.4l0.1-0.1c0.7,0.5,1.4,1,2.1,1.5
	c0.3,0.2,0.7,0.5,1,0.7c0.7,0.5,1.3,0.9,2,1.4c0.5,0.3,0.8,0.6,0.9,0.9l0.1,0.3c0,0.2-0.1,0.4-0.2,0.6c-0.2,0.2-0.4,0.4-0.7,0.5
	c0,0-0.2,0-0.5-0.1c-0.4-0.1-1-0.4-1.5-0.7c-0.5-0.3-1-0.5-1.3-0.6c0,0-0.1,0-0.1-0.1v-0.3c0-0.1-0.1-0.2-0.1-0.3
	c-0.2-0.3-0.4-0.6-0.5-0.8c-0.1-0.2-0.2-0.3-0.3-0.4c-0.2-0.4-0.4-0.6-0.5-0.8C429.2,255.8,429,255.5,428.9,255.3z M431.3,273.9
	c-0.6-0.7-1.1-2-1.4-3.3c-0.2-0.7-0.3-1.4-0.3-2c-0.1-0.6-0.1-1.2-0.2-1.6v-0.6c0-0.7-0.1-1.3,0-2v-0.5c0-0.5,0.1-0.9,0.1-1.4v-0.6
	c0.1-0.5,0.2-0.9,0.3-1.4c0-0.1,0.1-0.2,0.1-0.3c0.1-0.2,0.2-0.5,0.3-0.7c0.1,0.1,0.3,0.1,0.4,0.2c0.1,0,0.3,0.1,0.5,0.2
	c0.2,0.1,0.5,0.2,0.8,0.4c0.3,0.1,0.6,0.3,0.9,0.4c0.3,0.1,0.6,0.2,0.8,0.3c0.1,0,0.2,0.1,0.3,0.1c0.3,0.1,0.6,0.1,0.8,0
	c0.1-0.1,0.3-0.2,0.4-0.3c0.2-0.1,0.3-0.2,0.4-0.4c0.1-0.1,0.1-0.1,0.2-0.2c0.1-0.2,0.2-0.5,0.2-0.8c0-0.1,0-0.1,0-0.2
	c0-0.1,0-0.3-0.1-0.4c0-0.1-0.1-0.3-0.2-0.4c-0.1-0.2-0.2-0.4-0.3-0.5c-0.3-0.3-0.5-0.6-0.8-0.8c-0.1-0.1-0.3-0.2-0.4-0.3
	c-0.6-0.4-1.1-0.8-1.7-1.2l0.6-0.6c0.2-0.1,0.3-0.3,0.5-0.4s0.3-0.2,0.5-0.3c0.1-0.1,0.3-0.2,0.4-0.3c0,0,0,0,0.1,0
	c0.3-0.2,0.5-0.4,0.8-0.5c0,0,0.1,0,0.1-0.1l0.1-0.1c0.2-0.1,0.5-0.3,0.7-0.4h0.1c0.1,0,0.2-0.1,0.3-0.1c0.1-0.1,0.3-0.1,0.4-0.1
	c0.2-0.1,0.3-0.1,0.4-0.2c0.4,0.1,0.7,0.2,1.1,0.3c0.4,0.1,0.9,0.2,1.3,0.2c0.9,0.1,1.8,0.2,2.7,0.4c0.3,0.1,0.6,0.1,0.9,0.2
	c0.3,0.1,0.6,0.2,1,0.4c0.1,0.1,0.2,0.1,0.4,0c2.1,1.6,4,4,4.8,6.4c0.1,0.2,0.2,0.3,0.3,0.4c0.9,0.6,1.3,1.1,1.7,1.6
	c0.3,0.3,0.5,0.8,0.8,1.3l-18.6,12.7C432.9,275.4,431.9,274.7,431.3,273.9z"/>
</svg>
