<?xml version="1.0" encoding="utf-8"?>
<!-- Generator: Adobe Illustrator 20.0.0, SVG Export Plug-In . SVG Version: 6.00 Build 0)  -->
<svg version="1.1" id="Layer_1" xmlns="http://www.w3.org/2000/svg" xmlns:xlink="http://www.w3.org/1999/xlink" x="0px" y="0px"
	 viewBox="0 0 648 864" style="enable-background:new 0 0 648 864;" xml:space="preserve">
<style type="text/css">
	.st0{fill:#D1D3D4;}
	.st1{fill:#FFFFFF;}
	.st2{fill:none;stroke:#231F20;stroke-width:0.25;stroke-miterlimit:10;}
</style>
<title>Outline 7</title>
<path class="st0" d="M490.4,363c1.8-0.5,3.5-1.3,4.9-2.4c2-1.4,3.4-3.6,3.9-6l8-41.7c0,0,8-39.5-3.5-74.4c-3.1-8.9-8.1-17-14.7-23.7
	l0.1-0.3c-15.9-16.4-35.7-25-35.7-25l-13.1-6.6c0,0-62.3-25.4-67.7-30.8s-7.5-47.9-7.5-63.2h-80.4c0,15.3-2,57.8-7.5,63.2
	s-67.7,30.8-67.7,30.8l-13.1,6.6c0,0-19.9,8.6-35.7,25l0.1,0.3c-6.6,6.7-11.5,14.8-14.6,23.7c-11.4,34.9-3.5,74.4-3.5,74.4
	s-11.1,39-7.8,79.5s-13.2,54.7-15.8,81.5c-4.6,47.8-0.9,114.2,2.2,152.1c1.4,16.9-0.1,48.9,1.3,66.5c1,12.2,4.4,33,11.3,42.1
	c6.8,9.1,21.8,23.4,26,21.5c3.4,2.9,23,0.9,19.6-6.6s-14.5-9.5-19.3-17.3s-5.1-30.9-1.2-31.2s12,6.6,12.7,14.9s3.4,20.5,13.6,20.9
	c7.1,0.2,2.2-9.2,1.5-18.5c-0.7-9.1,0.2-27.6-12.7-46.6s-14.7-37.1-13-57.2s26.2-79.7,29-113.7s-6.3-50-1.6-65.5
	s16.2-65.1,14.4-87.3l-0.2-1l5.4-67c-0.1,0,14.1,81,14.1,81c3.6,13.7,4.8,69.4,4.8,99c0,24,3.2,45.7,1,60.2l96.7,0.2h0.1l96.7-0.2
	c-2.2-14.6,1-36.2,1-60.2c0-29.6,1.1-85.3,4.8-99c0,0,14.2-81,14.1-81l5.4,67v0.9c0.2,4.4,4.5,12.7,11.8,15.3"/>
<path class="st1" d="M135.9,487.8c-0.3,0.5-0.5,1.1-0.6,1.8v0.4c0,1.1,0.2,2.3,0.7,3.3c0.2,0.4,0.4,0.7,0.7,1l0.5,0.5
	c0.1,0.2,0.3,0.3,0.4,0.5c0.1,0.1,0.2,0.3,0.4,0.4c0.1,0.1,0.2,0.3,0.2,0.5c0.2,0.4,0.3,0.9,0.5,1.4c0.1,0.5,0.3,1,0.4,1.4
	c0.2,0.8,0.3,1.6,0.4,2.4c0.2,1.6,0.3,3.2,0.2,4.8c0,0.8,0,1.6-0.1,2.4c0,0.5-0.1,1-0.1,1.5s-0.1,1-0.1,1.5c-0.1,0.7-0.1,1.3-0.1,2
	c-0.1,1.3-0.2,2.7-0.3,4c-0.1,2.3-0.3,4.6-0.4,6.9c-0.1,1.1-0.1,2.3-0.2,3.4l-0.1,1.7c-0.3,3.8-0.8,7.6-1.2,11.4l-0.2,1.6
	c-0.2,2.2-0.4,4.3-0.6,6.5s-0.4,4.3-0.6,6.5c-0.1,0.6-0.1,1.2-0.2,1.7c-0.2,1.7-0.4,3.5-0.7,5.3c-0.1,1.2-0.3,2.4-0.4,3.5
	s-0.2,2.4-0.3,3.6c0,0.5,0,1.1-0.1,1.6s-0.1,1.1-0.1,1.6c0,3,0,6-0.1,9s-0.1,6-0.2,9c-0.1,1.5-0.1,3-0.1,4.5c-0.1,3,0,6,0,9
	c0,1.5,0.1,3,0.1,4.5c0.1,4.4,0.1,8.8,0.4,13.3c0.1,1.5,0.2,3,0.4,4.4c0.1,1.5,0.2,3,0.1,4.5c0,0.8,0,1.5-0.1,2.3
	c0,0.8-0.1,1.5-0.1,2.3v0.5c-0.1,1-0.2,2-0.3,2.9c-0.1,1-0.3,1.9-0.4,2.9c-0.1,0.3-0.1,0.7-0.2,1.1c-0.2,0.8-0.4,1.6-0.6,2.5
	c-0.1,0.4-0.2,0.9-0.2,1.3c0,0.2,0,0.4,0,0.7s0,0.4,0.1,0.7c0,0.1,0.1,0.3,0.1,0.4c0.2,0.7,0.5,1.4,0.9,2.1l0.2,0.3
	c0.1,0.2,0.2,0.3,0.2,0.5c0.1,0.2,0.1,0.4,0.2,0.6s0.1,0.4,0.2,0.6c0.1,0.2,0.2,0.4,0.3,0.6c0.1,0.2,0.3,0.5,0.5,0.7
	c0.6,0.6,1.3,1.1,2.1,1.5c0.4,0.2,0.8,0.4,1.2,0.5s0.8,0.3,1.2,0.4h0.1c0.2,0.3,0.2,0.7-0.1,1c-0.2,0.2-0.4,0.5-0.6,0.7
	c-1.5,1.4-2.9,3.1-4,4.8c-0.1-0.2-0.3-0.3-0.5-0.4c-0.3-0.1-0.6,0.1-0.7,0.5c-0.4,1.2-0.6,2.5-0.7,3.8c0,0.6,0,1.2,0,1.9
	c0,0.2,0.1,0.4,0.3,0.6c0.1,0.1,0.3,0.1,0.5,0.2c-0.2,0.7-0.3,1.3-0.3,2v0.1c-0.2,2.5-0.3,5-0.5,7.5c-0.1,2.2,0,4.2-0.1,6.3
	c0,0.5-0.1,1.1-0.2,1.6c-0.5,3.2-0.6,6.4-0.9,9.5l-0.2,2.5c0,0.5-0.1,1-0.1,1.5c-0.1,1.2-0.4,2.5-0.5,3.8c0,0.4,0,0.7,0,1.1
	c0.1,3.1,1.6,5.3,2.3,7.8c0.2,0.9,0.6,1.8,1.1,2.7c0.2,0.3,0.4,0.7,0.6,1c0.2,0.3,0.4,0.6,0.7,0.9c-0.2,0.1-0.4,0.1-0.6,0.1H135
	h-0.2c-0.2,0-0.3,0-0.5,0.1c-1.4,0.8-2.4,2.1-3,3.6c-0.1,0.3-0.1,0.6-0.1,0.9c0,1.4,0.4,2.8,1,4.1c2,4.6,5.3,8.4,8.5,12
	c2.6,3.2,5.6,6.1,8.8,8.7c0.5,0.4,1,0.7,1.6,0.9c0.2,0,0.4,0.1,0.6,0.1c0.3,0,0.6,0,0.9-0.1v0.1v0.4c0.1,0.5,0.3,0.9,0.6,1.2
	s0.6,0.5,0.9,0.7c0.5,0.3,1.1,0.4,1.7,0.4h0.7c2.6,0.3,5.2,0.6,7.8,1c1.2,0.2,2.6,0.6,4.1,0.8c0.5,0,1,0,1.4-0.1s0.7-0.1,1.1-0.3
	c0.4-0.2,0.7-0.4,0.9-0.8h0.6c0.4,0,0.7,0,1.1,0h0.3c0.2,0,0.5,0,0.7,0s0.3-0.1,0.4-0.2c0.5-0.5,0.8-1.1,0.8-1.8v0.1
	c0-0.4-0.1-0.7-0.2-1.1c-0.2-0.3-0.5-0.6-0.9-0.7c-0.3-0.1-0.6-0.1-0.9-0.1h-0.5H173c-0.7-0.2-1.5-0.4-2.1-0.8
	c-0.3-0.2-0.6-0.3-0.9-0.5c0-0.5-0.3-1-0.8-1.3l-0.3-0.2c-0.2-0.1-0.4-0.2-0.6-0.2c-0.1,0-0.3,0-0.4,0.1c-1.1-0.2-2.2-0.7-2.9-1.6
	c-1.7-1.7-2.9-4.3-5.1-6.1c-0.5-0.4-1.1-0.8-1.7-1.1c-0.4-0.7-0.9-1.2-1.3-1.8c-0.9-1.4-1.1-2.9-1.6-4.7c-0.7-2.3-1-4.7-0.8-7.1
	c0.2-2.3,0.6-4.5,1.4-6.7c0.1-0.3,0.2-0.7,0.2-1c0.1-1.3-0.3-2.5-1-3.6c-0.3-0.5-0.7-0.9-1.1-1.2c0.2-0.7,0.4-1.4,0.4-2.2
	c0.2-1.5-0.3-3.1-1.3-4.2c-1.2-1.2-2.2-2.6-2.9-4.1c-0.7-1.6-1-3.2-1-5c-0.1-1.4-0.1-2.8,0-4.2c0.2-2.4,0.5-4.7,1.1-7
	c0.6-2.1,1.6-4.1,2.1-6.5c0.3-1.5,0.7-3.1,1.1-4.5c0.3,0.1,0.6,0.2,0.9,0.2c0.5,0,1,0,1.5-0.2c0,0.2-0.1,0.4-0.1,0.6l0,0
	c0,0.1,0,0.3,0.1,0.4l0.1,0.1l0.2,0.2l0.4,0.4c0.3,0.2,0.7,0.5,1,0.8c0.1,0.1,0.3,0.2,0.4,0.3l0,0c0.6,0.6,1.2,1.3,1.7,2
	c1,1.4,1.8,3,2.3,4.7c0.9,2.7,1.6,5.5,2.1,8.3c0.2,1.3,0.2,2.6,0.4,4c0.1,1.4,0.5,2.8,1.1,4.1c0.7,1.3,1.5,2.5,2.3,3.6
	c0.1,0.1,0.2,0.2,0.4,0.2c-0.1,0.2-0.1,0.4-0.1,0.6c0,0.3,0,0.5,0.1,0.8c0.2,0.6,0.5,1.2,1,1.7c0.4,0.4,0.7,0.8,0.9,1.2
	c0.5,1,1.2,1.9,1.8,2.8c0.3,0.6,0.6,1.3,0.7,2c0.7,2.1,1.2,4.3,1.5,6.5c0,0.6,0.1,1.1,0.2,1.6c0.3,1.1,1.2,1.8,2.3,1.9
	c0.1,0,0.2,0,0.3,0c0.8,0.7,1.4,1.6,1.9,2.6c0.2,0.6,0.4,1.2,0.4,1.9c0.1,0.8,0.3,1.6,0.6,2.3c0.2,0.4,0.5,0.8,0.8,1.1
	s0.8,0.5,1.3,0.6c0.4,0,0.9-0.1,1.2-0.3c0.7-0.4,1.2-1.2,1.2-2c0-0.3,0-0.6-0.1-0.9c-0.4-1.1-0.6-2.3-0.7-3.5c0-0.2,0.1-0.4,0.1-0.6
	c0.1-0.5,0.3-0.9,0.6-1.3c0.3-0.5,0.5-1,0.7-1.6l0.1-0.5c0-0.4-0.1-0.9-0.2-1.3v0.3c0-0.9-0.4-1.8-1-2.6c-0.5-0.8-1.2-1.4-1.6-1.8
	c-2.4-2.8-3.2-6.5-3.2-10.3v-0.4c0-0.3,0.1-0.6,0.1-0.9c0.1-0.8-0.1-1.6-0.5-2.3c-0.1-0.1-0.2-0.3-0.3-0.4c0.3-0.2,0.5-0.5,0.7-0.7
	c0.4-0.4,0.6-1,0.6-1.5c0-0.3,0-0.6-0.1-0.9c-0.2-0.6-0.5-1.2-0.8-1.8l-2.6-4.7c-0.5-1.2-1-2.5-1.3-3.8c-1.2-3.3-2.5-6.6-3.9-9.9
	c-0.8-2.2-1.8-4.4-2.9-6.4c-0.6-0.9-1.3-1.7-2.1-2.5c-0.1-0.1-0.3-0.3-0.5-0.4c0-0.1,0-0.1,0-0.2l0,0c0.1-0.9,0.1-1.9-0.1-2.8
	c-0.2-1.1-0.9-2-1.9-2.5c-0.4-0.2-0.8-0.3-1.3-0.3s-1,0-1.4,0c-0.1-0.5-0.3-1-0.6-1.4c-0.4-0.4-0.7-0.8-1.1-1.2
	c-1.8-1.8-3.4-4-4.6-6.3c-0.6-1.1-1.6-2-2.6-2.6c-0.9-0.6-1.8-1.1-2.5-1.7c1.5-7.2,2.6-14.4,3.6-21.6c0.3-2.2,0.6-4.5,0.8-6.7
	s0.5-4.5,0.6-6.7c0.2-3,0.5-6,0.8-9c0.1-1.5,0.3-3,0.4-4.5s0.2-3,0.3-4.5c0.2-2.9,0.3-5.8,0.4-8.8c0-2,0-4,0.1-6s0.1-4,0.1-6
	c0.1-4,0.2-8,0.5-12c0-0.3,0.1-0.6,0.1-0.9l0.1-1.8c0.2-4.2,0.6-8.4,1.2-12.5c0.1-0.6,0.2-1.2,0.3-1.7c0.3-1.4,0.6-2.8,0.9-4.2
	c0.9-4.3,1.6-8.5,2.5-12.8c0.7-2.9,1.4-5.8,2.1-8.7c0.7-2.9,1.5-5.8,2.2-8.7c0.7-2.5,1.3-5,2-7.5c0.2-0.5,0.3-1.1,0.6-1.6
	c0.1-0.3,0.3-0.7,0.4-1c0.5-1,0.8-2.1,1.2-3.1c0.1-0.3,0.2-0.6,0.2-0.9c0.1-0.3,0.1-0.7,0.1-1c0-0.1,0-0.3,0-0.4
	c0.9-0.3,1.7-0.8,2.3-1.6c0.1-0.1,0.2-0.3,0.3-0.4c0.5-0.7,0.8-1.5,1-2.4c0.1-0.3,0.1-0.7,0.1-1c0-0.2,0-0.4,0-0.6s0-0.2,0-0.3h0.3
	h0.3l1.1,0.1h0.6h0.3c0.9,0.1,1.7,0,2.6-0.1c0.3-0.1,0.6-0.1,0.9-0.2c0.3-0.1,0.6-0.2,0.9-0.4c0.5-0.3,1-0.8,1.4-1.3
	c0.2-0.2,0.4-0.5,0.6-0.8c0.6-1,1.2-2,1.6-3.1c0.2-0.4,0.3-0.7,0.4-1.1c0.4-1.1,0.7-2.2,0.7-3.4c0-0.2,0-0.4,0-0.7s0-0.3,0-0.5
	c-0.1-1-0.3-2-0.7-2.9l-0.2-0.5c-0.1-0.3-0.3-0.6-0.5-0.9c-0.5-0.6-1-1.2-1.5-1.7c-0.1-0.1-0.2-0.2-0.3-0.3c-0.4-0.5-0.8-1-1.1-1.5
	c-0.8-1.2-1.5-2.5-2-3.9c-0.3-0.8-0.6-1.6-1-2.4c-0.2-0.4-0.3-0.8-0.5-1.2c-0.8-1.8-1.4-3.7-2-5.5s-1-3.8-1.4-5.7
	c-0.2-1-0.4-1.9-0.5-2.9c-0.4-2.9-0.7-5.9-0.8-8.8c-0.1-5.5,0-11,0.4-16.5c0.1-1.6,0.2-3.2,0.4-4.8c0.5-6.4,1.2-12.9,2-19.3
	c0.4-3.2,0.7-6.4,1.1-9.6c0.2-1.6,0.3-3.2,0.5-4.8c1.2-12.5,2.8-24.9,4.1-37.4c0.8-7.5,1.5-15,2-22.4v-0.4c0.1-2.2,0.3-4.5,0.5-6.7
	c0.3-3.9,0.7-7.8,1.1-11.7c1.3-11.6,3-23.2,5.2-34.7c0.9-5.7,2.5-11.2,4.6-16.6c0.3-0.7,0.6-1.3,0.9-1.9s0.7-1.3,1-1.9
	s0.7-1.2,1.1-1.8s0.8-1.2,1.2-1.8c0.2-0.3,0.5-0.6,0.8-0.9c0.5-0.6,1-1.1,1.6-1.6c0.3-0.2,0.6-0.5,0.9-0.8c0.8-0.6,2.1-1.1,3.1-1.9
	c0.3-0.2,0.5-0.5,0.8-0.8c0.7-1,1.1-2.1,1.3-3.3c0.1-0.4,0.2-0.8,0.2-1.2c1,0.9,1.9,1.9,2.9,2.9c0.2,0.3,0.5,0.5,0.7,0.8
	c0.1,0.1,0.2,0.2,0.2,0.3c0.5,0.5,0.9,1.1,1.2,1.7c0.1,0.1,0.1,0.3,0.2,0.5c0.2,0.6,0.3,1.3,0.3,1.9c0,2.1,0.4,4.1,1.1,6
	c0.9,1.8,2.5,2.8,3.9,3.7c1.7,1.2,3.3,2.5,4.9,3.8c0,0.7,0,1.5,0.2,2.2c-0.3,0.2-0.7,0.4-1,0.7c0.8-0.3,1.6-0.6,2.3-0.9
	c0-0.2-0.1-0.5-0.1-0.7c-0.1-0.6-0.1-1.3-0.1-1.9c0.1-1,0.3-2.1,0.7-3.1c1-2.6,2.7-4.9,4.8-6.7l0.6-1.6c-0.6-2.3,0.9-4.3,2.6-6.1
	c0.5-1.1,1-2.3,1.5-3.4l-0.3,0.3c-0.3,0.3-0.6,0.6-0.9,1c-2.2,2.3-5,5.1-4.1,8.6c-2.5,1.9-4.3,4.5-5.4,7.5c-0.3,0.8-0.5,1.7-0.6,2.5
	c-1.4-1.2-2.8-2.3-4.2-3.3s-2.8-1.9-3.4-3.2c-0.7-1.8-1-3.6-1-5.5c0-1-0.2-1.9-0.6-2.8c-0.4-0.9-1-1.7-1.6-2.4
	c-1.4-1.5-2.8-3-4.3-4.4c0.1-0.6,0.1-1.2,0.2-1.6c0-0.3,0-0.5,0.1-0.8c0.1-0.8,0.1-1.7,0-2.5c0-0.2,0-0.3,0-0.5
	c-0.1-0.7-0.1-1.4-0.2-2.1V227v-0.1c-0.1-0.8-0.3-1.6-0.5-2.4l0,0c-0.1-0.4-0.3-0.8-0.4-1.2s-0.2-0.9-0.4-1.3l0,0l0.8-0.8
	c0.5-0.5,0.9-1,1.3-1.6c0.2-0.4,0.3-0.8,0.3-1.2s0-0.8-0.2-1.1v-0.1c-0.2-0.4-0.6-0.8-1-1c-0.3-0.2-0.7-0.3-1-0.4
	c-1.5-0.5-3-0.8-4.6-1l0,0c-1.1-1.3-2.2-2.5-3.4-3.5c-0.1-0.1-0.1-0.1-0.2-0.2c0.2,0,0.4,0,0.6,0c0.1,0,0.2,0,0.3,0.1
	c0.1,0,0.1,0,0.1,0.1l0,0c0.1,0.1,0.2,0.2,0.2,0.3l0.1,0.2l0.1,0.1l0.3,0.3l0,0l0.1,0.1c0.1,0,0.1,0.1,0.2,0.1
	c0.1,0.1,0.2,0.1,0.3,0.1h0.1c0.2,0.1,0.4,0.1,0.6,0.1l0,0c0.3,0,0.7,0,1,0c2.4-0.2,4.7-0.5,7.1-0.7l0.9-0.1l2.5-0.2l1-0.1
	c1.1-0.1,2.3-0.1,3.4-0.1c1.3,0,2.7,0,4.1,0c0.5,0,1,0,1.4,0.1c0.8,0,1.5,0.1,2.3,0.2c2.1,0.2,4.2,0.8,6.1,1.8
	c0.1,0.1,0.2,0.1,0.3,0.1s0.2,0,0.3-0.1l0,0l1.8-0.9l1.2-0.6l0.7-0.4l1.4-0.8l2.2-1.2c0.7,0,1.4,0.1,2,0.1h0.6
	c0.6,0,1.2-0.1,1.9-0.1h0.2c0.5-0.1,1-0.1,1.6-0.2l1-0.1l0.7-1.4c-0.6,0.1-1.2,0.2-1.9,0.3h-0.3c-1.9,0.3-3.7,0.4-5.6,0.2h-0.2
	l-0.4,0.1l-1.8,0.9l-4.4,2.3l-1.1,0.6c-0.2-0.1-0.4-0.1-0.5-0.2l0,0c-0.8-0.4-1.6-0.6-2.4-0.9l-0.8-0.2l-0.5-0.1l-0.4-0.1
	c-0.6-0.1-1.2-0.2-1.8-0.3s-1.5-0.2-2.2-0.2h-1c-1.6-0.1-3.2-0.1-4.7-0.1c-3.8,0-7.6,0.4-11.4,0.7l-3.8,0.4c-0.2,0-0.5,0-0.8,0
	c-0.2,0-0.4-0.1-0.6-0.2c-0.2-0.2-0.4-0.4-0.5-0.6c-0.1-0.1-0.1-0.1-0.2-0.2l-0.1-0.1L201,210c-0.1-0.1-0.2-0.1-0.3-0.1h-0.1
	c-0.2-0.1-0.4-0.1-0.6-0.1c-0.4-0.1-0.7-0.2-1.1-0.3c-0.3,0-0.6,0.1-0.9,0.1h-0.2h-0.2c-1-0.1-2-0.3-2.9-0.5c-1.5-0.5-3.1-0.8-4.6-1
	h-0.2c0.2-0.3,0.5-0.5,0.8-0.6l0.1-0.1c0.7-0.4,1.5-0.6,2.3-0.7c1.8-0.3,3.6-0.3,5.5-0.2c1,0.1,1.9,0.2,2.9,0.3
	c0.3,0,0.6-0.1,0.7-0.3c0.4-0.7,1-1.2,1.8-1.5c0.9-0.3,1.7-0.6,2.6-0.7c4.6-0.8,9.2-0.6,13.9-1.3s9.7-1.4,14.5-1.6
	c4.8-0.2,9.6-0.7,14.3-1.5c1-0.2,2.1-0.4,3.1-0.6l0.7-1.5c-1.3,0.3-2.6,0.5-4,0.7c-1.8,0.3-3.5,0.5-5.3,0.7s-3.6,0.4-5.3,0.5
	c-1.2,0.1-2.4,0.2-3.6,0.2c-4.9,0.2-9.8,1-14.6,1.6c-3.4,0.5-6.9,0.5-10.4,0.8c-1.2,0.1-2.4,0.2-3.5,0.4c-0.2,0-0.5,0.1-0.8,0.1
	c-0.8,0.1-1.5,0.4-2.2,0.6c-0.6,0.3-1.2,0.7-1.7,1.1c-0.2,0.2-0.3,0.4-0.4,0.5l-1.3-0.2c-0.4-0.1-0.9-0.1-1.3-0.1c-1,0-1.9,0-2.9,0
	s-1.9,0.1-2.9,0.3c-0.7,0.1-1.4,0.3-2.1,0.5c-0.2,0.1-0.5,0.2-0.7,0.3c-0.7,0.4-1.3,0.9-1.7,1.6c-0.3,0.1-0.6,0.2-0.9,0.3
	c-1.4,0.5-2.6,1.3-3.7,2.4c-1.1,1-1.9,2.2-2.5,3.6c-0.9,0.3-1.6,0.7-2.3,1.3c-0.7,0.7-1.2,1.5-1.6,2.3c-1,1.8-2,3.6-2.9,5.4
	c-0.4,0.9-0.9,1.9-1.2,2.8s-0.7,1.9-1,2.9c-1.2,3.8-2.1,7.8-2.5,11.8c-0.2,2-0.4,4-0.6,6c-0.2,2.4-0.2,4.8-0.3,7.2
	c-0.2,7.6-0.2,15.3-0.3,22.9c0,2.5-0.1,5.1-0.2,7.6c0,1-0.1,1.9-0.2,2.9c-0.1,2.3-0.4,4.7-0.6,7c-0.7,7-1.6,14-2.3,21
	c-0.4,4.5-0.9,8.9-1.3,13.4s-0.8,9-1.1,13.5c-0.2,3.7-0.4,7.4-0.6,11.1c0,1.9-0.1,3.7-0.1,5.6s0,3.7,0,5.6c0,2.5,0,4.9-0.2,7.3
	c-0.1,1.1-0.2,2.1-0.2,3.2c-0.1,1.1-0.2,2.1-0.3,3.2c-0.4,3.2-0.8,6.3-1.2,9.5c-0.3,2.1-0.5,4.3-0.8,6.4c-0.1,1.1-0.2,2.2-0.3,3.2
	s-0.2,2.4-0.4,3.6s-0.3,2.4-0.5,3.6c-0.3,2.4-0.8,4.8-1.3,7.2c-0.2,1.2-0.5,2.4-0.8,3.6c-0.9,3.5-2,7-3.3,10.4
	c-0.9,2.4-1.9,4.9-2.8,7.3c-1,2.4-2,4.8-3,7.2c-1,2.4-2,4.8-3,7.2s-2.1,4.8-3.1,7.2c-2,4.4-3.4,9.1-4.3,13.8c-0.1,0.7-0.3,1.4-0.4,2
	c-0.1,0.9-0.2,1.7-0.3,2.6c-0.2,2.1,0,4.2,0.5,6.3c0.2,0.7,0.4,1.3,0.6,2c0.2,0.5,0.4,1,0.7,1.5c0.1,0.2,0.2,0.3,0.3,0.5
	c0.2,0.3,0.4,0.6,0.6,1c0.2,0.3,0.5,0.6,0.8,0.9l-0.5,0.1l-0.9,0.3c-0.6,0.2-1.2,0.5-1.7,0.9c-0.2,0.2-0.4,0.3-0.5,0.5L135.9,487.8z
	 M206.6,217l-1.2,0.4l-0.3,0.1c-0.2-0.3-0.5-0.7-0.7-1C205.1,216.6,205.9,216.8,206.6,217z M207.4,220.5l-0.4,0.4l-0.7,0.7
	c-0.1,0.1-0.1,0.2-0.2,0.3c0,0.1,0,0.2,0.1,0.3l0,0c0,0,0,0,0,0.1h-0.1c-0.4,0-0.9,0.1-1.6,0.1c-0.6,0.1-1.3,0.1-1.9,0.1
	c-0.2,0-0.4,0-0.6-0.1c-0.3-0.3-0.6-0.6-0.9-0.9c-0.2-0.2-0.3-0.5-0.3-0.8l0.1-0.3c0.3-0.3,0.7-0.5,1.1-0.6l2.5-0.8l1.3-0.4l2.6-0.8
	l0.1,0.1c0.1,0.2,0.1,0.3,0.1,0.5s-0.1,0.5-0.2,0.7c-0.1,0.2-0.3,0.4-0.4,0.6L207.4,220.5z M169.9,490.5c-0.2-0.5-0.4-1-0.7-1.5
	c-0.3-0.7-0.7-1.5-1.1-2.2c-0.4-0.7-0.8-1.4-1.3-2.1c-0.4-0.6-1.1-1-1.8-1c-0.2,0-0.4,0-0.6,0c-0.3,0-0.5,0.1-0.8,0.2
	s-0.5,0.2-0.7,0.3c-0.3,0.2-0.6,0.3-0.9,0.5c-0.3,0.2-0.5,0.4-0.8,0.5c-0.5,0.4-0.9,0.8-1.4,1.2s-1.1,1-1.6,1.4
	c-0.4-0.2-0.8-0.3-1.2-0.3c-0.9,0-1.7,0.1-2.6,0.4c-0.7,0.2-1.5,0.3-2.2,0.3c-0.2,0-0.4,0-0.6-0.1c-0.7-0.2-1.3-0.5-1.9-0.9
	c-0.7-0.4-1.5-0.7-2.3-0.9h-0.5c-0.6,0-1.2,0-1.8,0l-0.7-0.3c-0.2-0.1-0.5-0.2-0.8-0.3c-0.5-0.2-1.1-0.3-1.7-0.4h0.1
	c-0.2,0-0.5,0-0.7,0c-0.8-0.5-1.5-1.3-2-2.2c-0.6-1.2-1.1-2.4-1.4-3.7c-0.5-1.9-0.6-3.9-0.5-5.9c0.1-0.8,0.2-1.7,0.3-2.5
	c0.8-5.4,2.4-10.6,4.6-15.5c4.2-9.5,8.2-19.2,12-28.9c3.5-9.3,5.6-19,6.3-28.9c0.7-8.6,2.2-17,2.8-25.5c0.2-2.5,0.2-4.9,0.2-7.4
	c-0.1-7.4,0.1-14.8,0.6-22.2c0.6-9,1.5-17.9,2.4-26.8c0.9-9.3,2.2-18.6,2.9-28.1c0.1-1,0.1-1.9,0.2-2.9c0.5-10.2,0.2-20.4,0.6-30.5
	c0.1-2.4,0.2-4.8,0.3-7.2c0.5-8,1.7-15.8,5.2-23c0.9-1.8,1.8-3.6,2.9-5.4c0.4-0.7,0.8-1.4,1.4-2c0.6-0.5,1.3-0.9,2.1-1.1
	c0.2-0.1,0.3-0.2,0.4-0.4c1.1-2.6,3.2-4.7,5.9-5.6c0.1,0.1,0.3,0.2,0.4,0.1c0.4,0,0.8,0,1.2,0s0.7,0.1,1.1,0.1
	c1.1,0.2,2.1,0.5,3.3,0.8c0.5,0.1,1.1,0.3,1.6,0.4s0.9,0.1,1.3,0.2l0.6,0.4l0.5,0.4l0.3,0.3l0.1,0.1c0.3,0.3,0.6,0.5,0.9,0.8
	l0.2,0.2l0.1,0.1c0.4,0.4,0.7,0.7,1,1.1l0.1,0.1l0.5,0.6l0.6,0.6l0,0c0.2,0.3,0.4,0.5,0.7,0.8s0.5,0.7,0.8,1.1l-2.1,0.6l-0.5,0.1
	c-0.4,0.1-0.7,0.3-1,0.5c-0.2,0.1-0.3,0.3-0.4,0.5c-0.1,0.1-0.1,0.3-0.2,0.4c-0.1,0.1-0.1,0.3-0.1,0.4c0,0.1,0,0.2,0,0.2
	c0,0.4,0.1,0.7,0.3,1.1c0.1,0.1,0.1,0.3,0.2,0.4c0.2,0.2,0.3,0.5,0.5,0.7s0.4,0.4,0.6,0.6c0.3,0.2,0.6,0.4,1,0.4h0.4
	c0.3,0,0.7,0,1,0l1.1-0.1l0.9-0.1l0.6-0.1h0.5c0.1,0.3,0.2,0.6,0.3,1c0,0.2,0.1,0.3,0.1,0.5c0.2,0.6,0.3,1.2,0.4,1.9
	c0,0.1,0,0.2,0.1,0.3c0,0.1,0,0.2,0.1,0.3c0.1,0.6,0.1,1.2,0.2,1.8l0,0v0.6c0,0.8,0,1.6,0,2.4v0.4c0,0.1,0,0.3,0,0.4
	c0,0.6-0.1,1.2-0.2,1.9c-0.1,0.8-0.2,1.5-0.4,2.3c-0.2,1.3-0.8,2.5-1.6,3.4c-0.8,0.6-2,1.1-3.1,1.9c-1.3,1-2.5,2.2-3.5,3.5
	c-1.7,2.4-3.2,5-4.4,7.7c-2.2,5.4-3.7,11.1-4.7,16.8c-3.4,17.6-5.7,35.3-6.8,53.2v0.4c-1.3,19.8-4.2,39.8-6.1,59.8
	c-1.2,12.7-3.1,25.6-3.9,38.5c-0.4,5.5-0.5,11.1-0.4,16.6c0.1,8,1.7,16,4.8,23.4c1.4,3.2,2.4,6.5,4.8,9.4c0.8,0.8,1.5,1.6,2.1,2.6
	c0.5,1,0.8,2.1,0.8,3.3c0,0.2,0,0.4,0,0.6c-0.1,1.4-0.5,2.7-1.1,4c-0.4,1-0.9,2-1.5,2.9c-0.5,0.8-1.2,1.5-2.1,1.9
	c-1,0.3-2,0.3-3,0.2h-0.3c-0.2,0-1.5-0.1-2.3-0.3c-0.2,0-0.3-0.1-0.5-0.1l0,0l0,0c-0.1,0-0.2-0.1-0.2-0.1c-0.1,0-0.2,0-0.3,0
	s-0.2,0.1-0.2,0.1c-0.1,0.1-0.1,0.1-0.2,0.2l0,0c0,0.1-0.1,0.1-0.1,0.2s0,0.2,0,0.3c0.1,0.5,0.2,1,0.1,1.5c-0.1,1.1-0.5,2.2-1.1,3.1
	c-0.4,0.5-0.8,0.8-1.4,1c-0.1-0.7-0.3-1.4-0.5-2C170.2,491.3,170,490.9,169.9,490.5L169.9,490.5z M148.7,488.2l0.5,0.2l0.5,0.3
	c0.5,0.3,1.1,0.5,1.7,0.7c0.3,0.1,0.5,0.1,0.8,0.1c0.5,0,0.9,0,1.4-0.1c0.4-0.1,0.9-0.2,1.2-0.3s0.8-0.2,1.2-0.2c0.2,0,0.4,0,0.6,0
	c-0.7,0.4-1.4,0.7-2.1,1c-1,0.4-2,1-2.9,1.8c-0.1-0.4-0.3-0.8-0.5-1.1c-0.9-1-1.9-1.9-3-2.7C148.3,488,148.5,488.1,148.7,488.2
	L148.7,488.2z M148,647.5c-0.3,0-0.6,0-0.9,0.1c0-0.2,0-0.3,0.1-0.5v-0.2c0-0.4,0-0.8,0-1.2s-0.1-0.8-0.1-1.2s0-0.7-0.1-1.1
	c-0.1-0.7-0.2-1.4-0.4-2.1c-0.1-0.4-0.3-0.7-0.4-1.1c-0.2-0.5-0.4-0.9-0.5-1.4s-0.2-1-0.3-1.4c-0.2-1-0.2-2-0.4-3.1
	c-0.3-2.5-0.5-5-0.8-7.5c0-0.1,0-0.2,0-0.3c0.5-3.4,0.9-6.8,1.1-10.3c0.2-2.8,0.3-5.6,0.3-8.3c0.1-5.5,0.5-10.5,0.7-16
	c0.2-8.8-0.5-17.6-0.5-26.4c0-2.9,0.1-5.9,0.3-8.8c0.4-5.7,1-11.3,1.8-17c0.3-2.1,0.6-4.1,0.9-6.2c0.3-2.2,0.6-4.5,0.7-6.7
	c0-0.7,0.1-1.5,0.1-2.2c0.2-0.8,0.4-1.6,0.7-2.4c0.4-1.6,0.9-3.2,1.3-4.8c0.1-0.5,0.2-1,0.2-1.6c0-0.1,0-0.2,0-0.3s0-0.5,0-0.7
	c0-1.7-0.2-3.3-0.6-4.9c-0.2-0.9-0.4-1.7-0.6-2.5c0.2-0.8,0.3-1.5,0.3-2.3c0.1-0.7,0.1-1.3,0-2c-0.3-1.8-0.5-3.6-0.5-5.5
	c0-0.2,0-0.5,0.1-0.7c0.1-0.5,0.2-1,0.4-1.5l0,0c0.1-0.1,0.2-0.2,0.3-0.3c0.1-0.1,0.2-0.2,0.3-0.3c0.2-0.3,0.3-0.6,0.4-1
	c0-0.1,0-0.2,0.1-0.3c0.1-0.1,0.2-0.3,0.4-0.5c0.8-0.8,1.8-1.4,2.9-1.8c1.2-0.5,2.3-1.1,3.4-1.7l0,0c0.4-0.3,0.8-0.6,1.1-0.9
	c0.9-0.8,1.7-1.6,2.5-2.2c0.4-0.4,0.9-0.7,1.4-0.9c0.4-0.2,0.9-0.4,1.4-0.4c0.3,0,0.6,0.2,0.8,0.5c1.2,1.8,2.2,3.6,3,5.6
	c0.4,0.9,0.7,1.8,0.9,2.8c0.1,0.4,0.1,0.9,0.1,1.3c0,0,0,0.1,0,0.2c0,0.3-0.1,0.6-0.1,0.9c-0.4,2.1-1.6,4.1-2.3,6.5s-1.4,5-2,7.5
	c-1.5,5.8-3,11.6-4.4,17.4c-1.3,5.7-2.1,11.4-3.4,17c-1.1,4.7-1.2,9.7-1.6,14.4c-0.1,0.9-0.1,1.9-0.2,2.8c-0.5,8-0.6,16.1-0.7,24.1
	c0,2.9-0.1,5.8-0.3,8.7c-0.4,6-1,12-1.5,17.9C152.1,624.3,150.4,635.9,148,647.5z M144.7,556.7c-0.2,2.9-0.3,5.9-0.3,8.9
	c0,4.4,0.2,8.8,0.3,13.2c0,1.1,0.1,2.2,0.1,3.3c0.1,3.3,0.1,6.6,0.1,9.8l-0.1,2c-0.2,4.7-0.5,9.2-0.6,14c0,1.4-0.1,2.7-0.1,4.1
	s-0.1,2.8-0.2,4.1c-0.1,1.6-0.2,3.2-0.4,4.8c-0.1-0.5-0.1-1.1-0.2-1.6c-0.1-1.1-0.2-2.1-0.3-3.2c-0.1-1.6-0.1-3.2-0.1-4.8
	s0-3.2,0.1-4.9c0-0.5,0-1-0.1-1.4c-0.1-1.4-0.2-2.8-0.3-4.2c-0.2-1.8-0.4-3.7-0.4-5.5c-0.1-5.9,0-11.8,0.3-17.7
	c0.1-2,0.2-3.9,0.3-5.9c0-0.3,0-0.7,0.1-1.1l0.1-2.1c0.3-4.3,0.6-8.6,0.9-12.9c0.1-1.4,0.2-2.9,0.4-4.3c0.2-2.3,0.5-4.6,0.9-6.8
	c0.2-1.1,0.4-2.2,0.6-3.3c0.5-2.4,1-4.8,1.5-7.2c-0.2,1.2-0.3,2.4-0.5,3.6c-0.1,0.7-0.2,1.4-0.3,2.1s-0.2,1.4-0.3,2.1
	C145.6,546.7,145.1,551.7,144.7,556.7L144.7,556.7z M159.4,660.9c-0.6-0.1-1.4-0.5-2.3-0.7h-0.2c-0.8,0-1.5,0.2-2.1,0.8l0,0l0,0
	c-0.3,0.2-0.5,0.5-0.6,0.9c-0.1,0.3-0.1,0.6-0.2,0.9l-0.2-0.1c-0.2-0.1-0.4-0.2-0.7-0.2c-0.2,0-0.4,0-0.6,0
	c-1.7,0.2-3.4,0.6-5.1,1.1c-0.2-1.1-0.3-2.2-0.5-3.4c-0.1-0.9-0.4-1.8-0.8-2.6c-0.6-0.8-1.4-1.5-2.3-2c-0.4-0.3-0.7-0.7-1-1.1l0,0
	c0.7-0.8,1.3-1.6,2-2.5l0,0l0.3-0.3c0,0,0-0.1,0.1-0.1l0,0c0.5-0.8,1-1.7,1.4-2.6l0,0c0.6,0,1.2,0,1.8-0.1h0.2l0,0
	c0.8,0.6,1.7,1.2,2.4,1.7c0.9,0.5,1.7,1.3,2.2,2.1c1.3,2.4,2.9,4.6,4.8,6.6c0.4,0.3,0.7,0.7,1,1.1
	C159.3,660.5,159.4,660.7,159.4,660.9L159.4,660.9z M146.2,665.4l0.7-0.2l0.6-0.2c1.7-0.5,3.4-0.9,5.1-1.1h0.3c0,0.1,0,0.1,0,0.2
	c0,0.2-0.1,0.5-0.1,0.7c0,0,0,0,0,0.1s-0.1,0.3-0.1,0.4c0,0.1-0.1,0.1-0.1,0.2v0.1c0,0.1-0.1,0.1-0.1,0.2c-0.1,0.2-0.2,0.3-0.2,0.5
	c0,0.1-0.1,0.2-0.1,0.2c-0.1,0.2-0.3,0.4-0.5,0.6c-0.2,0.2-0.5,0.4-0.8,0.5c-0.4,0.2-0.8,0.4-1.2,0.5c-0.1,0-0.2,0.1-0.3,0.1
	c-0.4,0.1-0.9,0.2-1.3,0.3c-1.4,0.2-2.7,0.5-4,0.7c-0.3,0-0.6,0-0.9,0c-0.2,0-0.4-0.1-0.6-0.2l0,0c-0.1-0.1-0.2-0.1-0.3-0.2l0,0
	c-0.1-0.1-0.2-0.3-0.3-0.5c0-0.1,0-0.1-0.1-0.2c-0.1-0.2-0.1-0.3-0.1-0.5c0,0,0-0.1,0-0.2s0-0.1,0-0.1l0.1-0.3
	c0.6-0.4,1.3-0.7,2-0.9l1.5-0.5l0.2-0.1l0.6-0.2L146.2,665.4z M176.2,718.7L176.2,718.7L176.2,718.7l0.1-0.1l0.3-0.3
	c0.2-0.2,0.6-0.4,0.8-0.6c1-0.7,2.3-1.1,3.5-1.1l0,0c0.7,0.1,1.4,0.4,1.9,0.9c0.2,0.2,0.4,0.4,0.5,0.6c0.1,0.2,0.2,0.4,0.3,0.7
	c0,0.1,0,0.3,0,0.4v0.2c0,0.1-0.1,0.2-0.1,0.2c-0.1,0.3-0.3,0.7-0.5,1c-0.3,0.5-0.5,1.1-0.7,1.7c0,0.3-0.1,0.5-0.1,0.8
	c0.1,1.3,0.3,2.7,0.8,3.9c0,0.2,0,0.3,0,0.5c0,0.4-0.2,0.8-0.6,1c-0.1,0.1-0.3,0.1-0.5,0.1s-0.4-0.1-0.5-0.2
	c-0.2-0.2-0.4-0.4-0.5-0.7c-0.3-0.6-0.4-1.2-0.5-1.9c0-0.8-0.2-1.6-0.5-2.3c-0.4-0.8-0.9-1.6-1.5-2.2c-0.2-0.2-0.3-0.4-0.5-0.6
	s-0.4-0.4-0.6-0.6l-0.3-0.3c-0.2-0.2-0.5-0.4-0.6-0.7C176.3,719,176.2,718.9,176.2,718.7L176.2,718.7z M169.4,703
	c0-0.2,0.1-0.4,0.2-0.6c0.1-0.2,0.2-0.4,0.3-0.6l0,0l0.5-0.7c0,0,0-0.1,0.1-0.1c0.1-0.2,0.3-0.4,0.5-0.5c1.3-0.9,2.9-1.5,4.5-1.5
	h0.1c0.2,0,0.5,0.1,0.7,0.2l0.4,0.2l0.2,0.2c0.2,0.2,0.3,0.3,0.4,0.5c0.1,0.1,0.1,0.2,0.2,0.3c0.3,0.5,0.4,1,0.3,1.5
	c0,0.3-0.1,0.6-0.1,0.9v0.4c-0.1,3.9,0.8,8,3.5,11.2c0.3,0.3,0.7,0.8,1.1,1.2c-0.4-0.2-0.8-0.3-1.2-0.3H181c-1.5,0-3.1,0.4-4.3,1.3
	c-0.2,0.1-0.5,0.3-0.8,0.6c-0.2,0.2-0.3,0.3-0.5,0.5c-0.2-2.3-0.8-4.5-1.5-6.7c-0.2-0.8-0.5-1.5-0.9-2.3c-0.6-1-1.2-1.8-1.7-2.8
	c-0.3-0.5-0.7-1-1.1-1.5c-0.3-0.3-0.6-0.7-0.7-1.1L169.4,703z M157,673c0-0.4,0.1-0.8,0.2-1.1c0.1-0.4,0.2-0.7,0.4-1.1
	c0.3-0.6,0.7-1.2,1.1-1.7c0.1-0.1,0.1-0.1,0.1-0.2c1.1-1.2,2.5-2,4.1-2.3l0,0l0.2,0.1c0.1,0,0.1,0.1,0.2,0.1l0.4,0.3l0.1,0.1
	l0.6,0.5l0.4,0.3c0.7,0.7,1.4,1.4,1.9,2.2c1.1,2,2,4.1,2.8,6.2c1.4,3.2,2.7,6.5,3.9,9.8c0.3,1.4,0.8,2.7,1.4,4l2.6,4.7
	c0.3,0.5,0.5,0.9,0.7,1.5v0.4c0,0.3-0.2,0.6-0.4,0.8s-0.3,0.4-0.5,0.5l0,0c-0.5-0.4-1.1-0.7-1.8-0.7h-0.3c-1.9,0.1-3.7,0.7-5.2,1.8
	c-0.3,0.2-0.6,0.5-0.8,0.8s-0.4,0.5-0.6,0.8l0,0h-0.1c-0.7-1-1.4-2.1-2-3.2c-0.6-1.1-0.9-2.4-1-3.6c-0.1-1.3-0.2-2.6-0.4-4
	c-0.5-2.9-1.2-5.7-2.1-8.5c-0.6-1.8-1.4-3.5-2.5-5.1c-0.6-0.8-1.2-1.5-1.9-2.2l-0.3-0.2l-0.4-0.3c-0.3-0.2-0.7-0.5-0.9-0.7L157,673z
	 M152.7,670.2c-0.1-0.4-0.3-0.8-0.5-1.3c-0.1-0.2-0.1-0.4-0.2-0.5h0.1c0.2-0.1,0.4-0.2,0.5-0.4c0.3-0.3,0.5-0.6,0.7-0.9
	c0.1-0.1,0.1-0.2,0.2-0.3c0.1-0.2,0.2-0.4,0.3-0.7c0-0.1,0.1-0.2,0.1-0.4c0.1-0.2,0.1-0.4,0.2-0.6l0.2-0.2c0.3-0.3,0.5-0.6,0.7-0.9
	c0.1-0.1,0.1-0.2,0.1-0.4c0-0.1,0.1-0.3,0.1-0.4c0.1-0.4,0.1-0.8,0.2-1l0.2-0.3l0.1-0.1c0.3-0.3,0.7-0.4,1.1-0.4h0.1
	c0.6,0.1,1.3,0.4,2.1,0.6c0.1,0,0.3,0.1,0.4,0.1h0.4h0.1c0.3,0,0.6,0,0.8,0c0.5,0,1,0,1.5,0c0.3,0,0.6,0.1,0.8,0.2
	c0.6,0.3,1,0.9,1.2,1.6c0.1,0.6,0.1,1.1,0.1,1.7c-0.1,0-0.2-0.1-0.2-0.2c-0.3-0.2-0.6-0.3-0.9-0.3h-0.3c-1.9,0.4-3.6,1.3-4.9,2.7
	c-0.8,0.9-1.4,1.9-1.7,3c-0.2,0.1-0.3,0.2-0.5,0.2c-0.4,0.2-0.9,0.2-1.4,0.2c-0.4,0-0.7-0.1-1-0.3l0,0l-0.2-0.1
	C152.9,670.8,152.7,670.6,152.7,670.2L152.7,670.2z M152.9,707.9c0,0.5-0.1,1.1-0.3,1.6c-0.2-0.1-0.5-0.2-0.7-0.2h-0.4
	c-1.1,0-2.2,0.2-3.2,0.7c-1,0.6-2,1.2-2.9,2l-0.6,0.5l-0.2-0.1l0,0c-0.4-0.2-0.7-0.5-1-0.8l0,0c-0.3-0.3-0.5-0.7-0.8-1v-0.1
	c-0.2-0.4-0.4-0.8-0.6-1.2c-0.5-1-0.8-2-0.9-3.1c0-0.2,0-0.4,0-0.5c0-0.2,0-0.5,0.1-0.7s0.1-0.5,0.2-0.7s0.2-0.8,0.4-1.2
	c0-0.1,0.1-0.2,0.1-0.3l0,0c0.1-0.4,0.2-0.7,0.3-1.1c0.8-2.8,1.2-5.7,1.4-8.6c0-0.5,0.1-1,0.1-1.6c0.1-1.7,0.1-3.3,0.2-5
	c0-0.7,0.1-1.4,0.2-2.1c0.1-0.5,0.1-1,0.1-1.4c0.1-1.1,0.1-2.2-0.1-3.3v-0.1c0-0.2,0-0.4-0.1-0.6c0,0,0,0,0-0.1s0-0.3-0.1-0.4
	c0-0.1-0.1-0.2-0.1-0.4c0-0.1,0-0.2-0.1-0.3v-0.1c-0.1-0.3-0.1-0.5-0.2-0.8c-0.3-0.7-0.7-1.1-0.9-1.5c-0.5-1.1-0.7-2.2-0.6-3.4
	c0-0.4,0.1-0.7,0.2-1.1c0.1-0.2,0.1-0.4,0.2-0.6h0.2h0.3c0.4,0,0.7,0,1.1,0c1.4-0.2,2.8-0.5,4.1-0.7h0.2l0.7-0.1l0.3-0.1
	c0.2-0.1,0.5-0.1,0.7-0.2l0.4-0.1l0.2-0.1c0.1,0.2,0.1,0.3,0.2,0.5c0.2,0.4,0.3,0.8,0.4,1.2c0.2,0.5,0.4,0.9,0.8,1.2
	c-0.6,1.6-1,3.2-1.3,4.9c-0.5,2.1-1.5,4.1-2.1,6.4c-0.6,2.4-1,4.8-1.2,7.3c-0.1,1.4-0.1,2.9,0,4.3c0,1.9,0.4,3.7,1.1,5.5
	c0.8,1.6,1.9,3.1,3.1,4.4C152.8,705.7,153.1,706.8,152.9,707.9L152.9,707.9z M142.8,686.4c-0.1,1.7-0.1,3.3-0.2,5
	c0,0.5-0.1,1-0.1,1.5c-0.2,1.7-0.4,3.4-0.6,5c-0.1-1.4-0.2-2.9-0.2-4.3c0-1.5,0-3,0.1-4.4c0.1-1.3,0.3-2.6,0.6-3.9
	c0.2-0.8,0.5-1.5,0.7-2.3c0,0.4-0.1,0.8-0.1,1.2C142.9,684.9,142.8,685.7,142.8,686.4L142.8,686.4z M156.6,736.3
	c-0.1,0-0.2,0.1-0.3,0.1l-3.8,2.6c-0.2,0.2-0.5,0.3-0.6,0.5c-0.2,0.2-0.3,0.4-0.3,0.6c-0.1-0.2-0.2-0.5-0.3-0.7
	c-0.2-0.8-0.3-1.6-0.4-2.3c0-0.2-0.1-0.4-0.1-0.6c-0.5-2.6-1-5.2-1.7-7.7c-0.8-3.5-1.9-7-3.4-10.2c-0.4-0.8-0.8-1.6-1-2.5
	c0.1-0.1,0.3-0.3,0.4-0.4c0.3-0.3,0.6-0.7,0.7-1.1c0.1-0.2,0.2-0.4,0.2-0.6l0,0c0-0.2,0-0.4-0.1-0.5l0.1-0.1c0.1,0,0.1-0.1,0.1-0.1
	c0.8-0.7,1.7-1.3,2.6-1.8c0.8-0.4,1.7-0.6,2.5-0.6h0.3c0.2,0,0.4,0.1,0.6,0.2c0.2,0.1,0.4,0.2,0.6,0.3c0.2,0.1,0.4,0.3,0.5,0.5
	c0.2,0.2,0.3,0.4,0.5,0.6c0.5,0.8,0.8,1.8,0.8,2.8c0,0.2-0.1,0.5-0.1,0.7c-0.8,2.3-1.2,4.6-1.4,7c-0.2,2.6,0.1,5.1,0.9,7.6
	c0.5,1.6,0.7,3.3,1.8,5C156,735.6,156.3,736,156.6,736.3L156.6,736.3z M168.6,746.7c-0.1,0-0.2,0-0.2,0.1c-0.2,0.1-0.5,0.2-0.7,0.3
	c-0.4,0.1-0.7,0.3-1,0.5l-0.1,0.1c-0.3,0.2-0.7,0.4-0.9,0.6c-0.1,0.1-0.2,0.2-0.4,0.3c-0.1,0.2-0.2,0.3-0.2,0.5
	c-2.1-1.3-4.1-2.6-6-4l0,0c-0.4-0.3-0.8-0.6-1.1-0.9c-1-0.8-2.1-1.4-3.3-1.8c-0.2-0.1-0.4-0.2-0.6-0.3c-0.1,0-0.2-0.1-0.2-0.1
	l-0.1-0.1c-0.1-0.1-0.2-0.2-0.3-0.2c-0.1-0.1-0.2-0.1-0.2-0.2c-0.1-0.1-0.2-0.2-0.2-0.3c-0.1-0.2-0.2-0.4-0.2-0.6l0,0l0.1-0.1
	c0.1-0.1,0.3-0.2,0.4-0.3c1.3-0.8,2.5-1.7,3.8-2.5c0.1,0,0.1,0,0.2,0c0.1,0,0.2-0.1,0.2-0.1c0.1,0,0.3,0.1,0.4,0.1
	c0.2,0.1,0.4,0.2,0.6,0.3c0.2,0.1,0.4,0.3,0.6,0.5c1.9,1.5,3,4,5,6c1,1.1,2.4,1.8,3.9,2l0,0l0.3-0.1l0.3,0.2L168.6,746.7z
	 M168.7,750.1c-0.1,0-0.2-0.1-0.3-0.1l-0.8-0.2c-0.2-0.1-0.5-0.2-0.8-0.2l0,0h-0.1l-0.2-0.1l0.2-0.2c0.2-0.2,0.5-0.4,0.8-0.5
	l0.3-0.3c0.2-0.1,0.3-0.2,0.5-0.2h0.1c0.3-0.1,0.6-0.2,0.8-0.3h0.1h0.1h0.2c0.1,0,0.2,0.1,0.3,0.1l0.5,0.3c0.8,0.4,1.6,0.8,2.5,1
	c0.2,0,0.3,0,0.5,0h0.5c0.2,0,0.4,0,0.6,0.1l0.2,0.1c0.1,0.1,0.1,0.3,0.1,0.4l0,0c0,0.3-0.2,0.6-0.3,0.8H174h-0.1c-0.4,0-0.7,0-1,0
	h-0.4H172l0,0c-0.4,0-0.7,0-1.1-0.1C169.9,750.6,169.2,750.4,168.7,750.1L168.7,750.1z M154,748.6c0-0.2,0.1-0.4,0.1-0.6l0,0h0.1
	l0,0l0,0c0.1,0,0.2-0.1,0.3-0.2l0.4-0.3h0.1l0.2-0.2l0.1-0.2l0,0c0.1,0,0.2,0,0.3,0c1-0.1,1.9-0.3,2.8-0.6l0,0
	c2,1.5,4.1,2.8,6.1,4.1l0,0c0.4,0.2,0.8,0.4,1.2,0.4c0.2,0,0.4,0,0.6-0.1l0,0c0.6,0.2,1.2,0.4,1.8,0.5s1,0.2,1.6,0.3h-0.1
	c-0.4,0-0.8,0-1.2,0c-1.2-0.1-2.5-0.5-4-0.7c-2.6-0.4-5.3-0.7-7.9-1h-0.8c-0.3,0-0.7-0.1-1-0.2c-0.3-0.2-0.5-0.4-0.7-0.6
	c-0.1-0.1-0.2-0.3-0.3-0.5L154,748.6z M153.6,744.9c-0.8-1.1-1.7-2.1-2.6-3c-0.1,0-0.1-0.1-0.2-0.2c-0.2-0.3-0.5-0.5-0.7-0.8
	s-0.4-0.6-0.6-0.9c-0.4-0.6-0.8-1.2-1.2-1.9c-1.7-2.7-3.7-5.2-5.2-7.9l-4.7-8.3c-0.2-0.3-0.4-0.7-0.5-1.1v-0.1c0-0.2,0-0.3,0-0.5
	V720c0-0.2,0-0.3,0.1-0.3c0.2-0.3,0.4-0.6,0.7-0.8c0.1-0.1,0.1-0.1,0.2-0.2c0.2-0.2,0.4-0.4,0.7-0.6c0.9-0.8,2-1.3,3.2-1.6
	c0.2,0,0.4-0.1,0.6-0.2h0.1l0,0c0,0.1,0.1,0.3,0.1,0.4c0.1,0.3,0.2,0.6,0.3,0.8c0,0,0,0,0.1,0.1c0.2,0.4,0.4,0.9,0.6,1.3l0,0
	c0.4,0.8,0.7,1.6,1,2.4c0.2,0.4,0.3,0.9,0.4,1.3c0.1,0.1,0.1,0.3,0.2,0.4c0.2,0.7,0.4,1.4,0.6,2.1l0.5,1.8c0.2,0.7,0.4,1.4,0.6,2.1
	c0.7,2.5,1.3,5,1.7,7.6c0.1,0.5,0.2,1.3,0.3,2.2c0.1,0.4,0.2,0.9,0.3,1.3c0.1,0.4,0.3,0.9,0.6,1.2c0.1,0.2,0.2,0.3,0.3,0.5
	c0.3,0.3,0.7,0.5,1.1,0.7h0.2h0.1l0,0l0.5,0.4l0.2,0.1c0.3,0.2,0.6,0.4,0.9,0.5c1.1,0.4,2.1,0.9,3,1.6c0.1,0.1,0.1,0.1,0.2,0.2
	c-0.1,0-0.2,0.1-0.2,0.1c-0.5,0.1-1,0.2-1.4,0.3H155c-0.2,0-0.4-0.1-0.6-0.2C154,745.3,153.7,745.1,153.6,744.9L153.6,744.9z
	 M137.1,718.9L137,719l0,0l0,0c-0.1,0.2-0.2,0.3-0.2,0.5c0,0.1-0.1,0.3-0.1,0.4v0.1c0,0.3,0,0.7,0.1,1c0.1,0.5,0.3,1,0.6,1.5
	c1.6,2.8,3.1,5.6,4.7,8.3c1.2,2.1,2.6,4,4,6c0.4,0.6,0.9,1.3,1.3,2s0.8,1.3,1.2,1.9c0.4,0.7,0.9,1.3,1.4,1.9c1,0.9,1.8,1.9,2.7,3
	c0.3,0.4,0.6,0.7,0.9,1c0.1,0.1,0.2,0.1,0.3,0.1l0,0l-0.3,0.1c-0.5,0.2-1,0.3-1.6,0.3h-0.3c-0.4-0.1-0.8-0.4-1.2-0.7
	c-3.1-2.5-6-5.4-8.6-8.5c-3.2-3.6-6.4-7.3-8.3-11.7c-0.6-1.1-0.9-2.3-0.9-3.5c0-0.2,0-0.4,0.1-0.6c0.5-1.1,1.3-2.1,2.3-2.7h0.1h0.3
	C136,719.4,136.5,719.2,137.1,718.9L137.1,718.9z M132.4,704.6c0.1-1.2,0.3-2.5,0.5-3.8c0.1-0.5,0.1-1.1,0.1-1.6l0.2-2.4
	c0.3-3.2,0.3-6.3,0.9-9.4c0.1-0.6,0.1-1.2,0.2-1.7c0.1-2.1,0-4.2,0.1-6.3c0.2-2.5,0.3-5,0.5-7.5v-0.1c0-0.6,0.1-1.3,0.4-1.8l0,0
	c1,0,1.9-0.2,2.8-0.5c0.9-0.3,1.9-0.7,2.8-1l0,0l0,0c0,0.1,0,0.1,0.1,0.2c0.1,0.3,0.3,0.6,0.5,0.8c0.1,0,0.1,0.1,0.2,0.2l0.1,0.1
	l0,0c-0.1,0.3-0.2,0.6-0.3,0.8c-0.1,0.5-0.2,0.9-0.3,1.4c-0.1,1.4,0.1,2.7,0.7,4c0.3,0.7,0.7,1.1,0.9,1.5c0.1,0.1,0.1,0.3,0.2,0.5
	c0.1,0.6,0.2,1.1,0.3,1.7l0,0c-0.8,1.7-1.4,3.4-1.9,5.2c-0.4,1.4-0.6,2.8-0.7,4.2c-0.1,1.5-0.1,2.9-0.1,4.4
	c-0.1,2.6,0.2,5.2,0.6,7.8c-0.1,0.3-0.2,0.6-0.2,0.9l0,0c-0.1,0.4-0.3,0.8-0.4,1.2c-0.2,0.7-0.4,1.4-0.5,2c0,0.2,0,0.5,0,0.7
	c0.1,1.2,0.5,2.4,1,3.5l0,0c0.1,0.2,0.2,0.4,0.3,0.6l0,0c0,0,0,0,0,0.1s0.1,0.2,0.1,0.2c0.1,0.1,0.1,0.3,0.2,0.4s0,0,0.1,0.1
	c0.3,0.4,0.6,0.8,0.9,1.2c0,0,0.1,0,0.1,0.1c0.3,0.4,0.7,0.7,1.1,1l0,0h0.1c0.2,0.1,0.4,0.2,0.6,0.3l0.1,0.1l0,0
	c-0.1,0.3-0.3,0.5-0.5,0.7c0,0.1-0.1,0.1-0.1,0.2c-0.1,0.1-0.2,0.2-0.3,0.3c-0.1,0-0.3,0-0.4,0h-0.2c-1.8,0.3-3.5,1.2-4.9,2.5
	c-0.3,0-0.6-0.1-0.9-0.2c-0.1,0-0.3-0.1-0.4-0.2c-0.3-0.2-0.5-0.4-0.6-0.7c-0.2-0.4-0.4-0.8-0.6-1.2c-0.4-0.7-0.7-1.5-0.9-2.3
	c-0.8-2.8-2.2-4.9-2.3-7.5C132.2,705.1,132.3,704.8,132.4,704.6L132.4,704.6z M139.8,659.3c0.3-0.2,0.5-0.5,0.8-0.8s0.5-0.8,0.5-1.2
	l0,0v-0.1c0-0.2,0-0.4-0.1-0.6l0,0c0.4-0.4,0.8-0.8,1.2-1.2l0,0c0.3,0.4,0.7,0.8,1.1,1.2c0.7,0.5,1.4,1,1.9,1.7
	c0.2,0.3,0.3,0.6,0.4,1c0.1,0.3,0.1,0.7,0.2,1.2c0.2,1.2,0.4,2.3,0.5,3.5c-0.9,0.3-1.9,0.5-2.8,0.8c-0.9,0.2-1.7,0.6-2.5,1.1
	c-0.3,0.3-0.6,0.7-0.6,1.2c-1,0.4-2,0.8-2.9,1l0,0c-0.8,0.3-1.6,0.4-2.5,0.4h-0.1c-0.2,0-0.4-0.1-0.6-0.2c0-0.4,0-0.9,0-1.3
	s0.1-0.8,0.1-1.3c0.2,0,0.4-0.1,0.5-0.3C136.2,663.2,137.8,661.1,139.8,659.3L139.8,659.3z M136.8,489.7c0-0.5,0.2-0.9,0.4-1.3
	c0.4-0.5,1-0.8,1.6-1c0.8-0.3,1.6-0.5,2.4-0.6c0.3-0.1,0.6-0.1,0.9-0.1h0.1c1,0.1,1.9,0.4,2.7,0.9l0.2,0.1c1.9,0.9,3.6,2.2,5,3.8
	c0.2,0.4,0.4,0.8,0.4,1.3c0,0.1,0,0.1,0,0.2s0,0.2,0,0.3c0,0.3-0.1,0.5-0.2,0.7c-0.2,0.2-0.4,0.4-0.6,0.6l-0.2,0.2
	c-1.2,1.1-1.9,2.6-2,4.2c0,0.9,0,1.7,0.3,2.6c0.5,2,1,3.9,1.5,5.9c0.2,0.9,0.5,1.8,0.7,2.8l0,0c0.4,1.7,0.6,3.5,0.6,5.2
	c0,0.6-0.1,1.1-0.2,1.7c-0.2,0.9-0.5,1.8-0.7,2.8c-0.4,1.5-0.9,3-1.2,4.5l0,0c0,0.1,0,0.2-0.1,0.3c-1.3,5.3-2.5,10.7-3.6,16.1
	c-1.8,9-2.1,18.5-2.8,27.6c-0.1,1.1-0.1,2.1-0.2,3.2c-0.5,7.9-0.7,15.8-0.6,23.8c0.1,3.9,0.9,7.4,0.8,11.1
	c-0.2,4.4-0.1,8.8,0.3,13.1c0.3,2.3,0.5,4.7,0.8,7c0.2,1.6,0.3,3.1,0.5,4.7c0.1,1.1,0.2,2.2,0.3,3.2c0.1,2.2,0.5,4.3,1.3,6.3
	c0.5,1.2,0.8,2.4,0.8,3.7c0.1,0.7,0.1,1.5,0.1,2.2c0,0.3-0.1,0.5-0.1,0.8c0,0.1,0,0.1,0,0.2s-0.1,0.2-0.1,0.3
	c-0.1,0.3-0.2,0.5-0.3,0.8c-0.1,0.2-0.2,0.4-0.3,0.6c0,0,0,0.1-0.1,0.1c-0.2,0.4-0.5,0.9-0.8,1.3l0,0c-0.7,1-1.5,2.1-2.4,3
	c-0.5,0.5-1,1.1-1.6,1.6c-0.8-0.3-1.6-0.6-2.4-1c-0.8-0.4-1.6-1-2.1-1.7c-0.3-0.6-0.5-1.5-1-2.4c-0.5-0.7-0.8-1.5-1-2.4
	c0-0.3,0-0.7,0-1c0.1-1.5,0.7-3.2,1-4.8c0.3-2,0.6-4,0.7-6c0-0.2,0-0.3,0-0.5c0.3-3.1,0.3-6.2,0.1-9.4c-0.6-5.8-0.6-11.7-0.7-17.6
	s-0.2-12,0-18s0.3-12.1,0.3-18.1c0-1,0-2.1,0.1-3.2c0.3-4.7,1.1-9.4,1.6-14.1c0.4-4.3,0.8-8.7,1.3-13s1.1-8.7,1.4-13.1l0.1-1.7
	c0.2-3.4,0.4-6.9,0.6-10.3c0.1-2,0.3-4,0.4-5.9c0.1-1,0.2-2,0.2-3c0.3-3.3,0.1-6.7-0.5-10c-0.2-1-0.5-2-0.9-3
	c-0.4-0.8-1-1.5-1.7-2.2c-0.7-1-1.1-2.2-1.1-3.5V489.7z M149,501.2c-0.1-0.3-0.2-0.7-0.2-1.1s0-0.7,0-1.1c0-0.5,0.1-0.9,0.3-1.4
	c0,0.5,0,0.9,0,1.4c0.1,1.5,0.4,2.8,0.6,4.2v0.4C149.3,502.8,149.1,502,149,501.2L149,501.2z"/>
<path class="st1" d="M488.8,359.8c-0.3-4.5-2.4-26.2-2.8-30.6s-0.9-9-1.3-13.4c-0.7-7-1.6-14-2.3-21c-0.2-2.3-0.4-4.7-0.6-7
	c-0.1-1-0.1-1.9-0.2-2.9c-0.1-2.5-0.2-5.1-0.2-7.6c-0.1-7.6-0.1-15.2-0.3-22.9c-0.1-2.4-0.2-4.8-0.3-7.2c-0.1-2-0.3-4-0.5-6
	c-0.4-4-1.3-8-2.5-11.8c-0.3-1-0.7-1.9-1-2.9s-0.8-1.9-1.2-2.8c-0.9-1.8-1.9-3.6-2.9-5.4c-0.4-0.9-1-1.6-1.6-2.3
	c-0.7-0.6-1.5-1-2.3-1.3c-0.6-1.4-1.4-2.6-2.5-3.6s-2.3-1.8-3.7-2.4c-0.3-0.1-0.6-0.2-0.9-0.3c-0.4-0.7-1-1.3-1.7-1.6
	c-0.2-0.1-0.4-0.2-0.7-0.3c-0.7-0.2-1.4-0.4-2.1-0.5c-0.9-0.1-1.9-0.2-2.9-0.3c-1,0-1.9,0-2.9,0c-0.5,0-0.9,0.1-1.3,0.1l-1.3,0.2
	c-0.1-0.2-0.3-0.4-0.4-0.5c-0.5-0.5-1.1-0.9-1.7-1.1c-0.7-0.3-1.5-0.5-2.2-0.6c-0.2-0.1-0.5-0.1-0.8-0.1c-1.2-0.2-2.4-0.3-3.5-0.4
	c-3.5-0.3-7-0.4-10.4-0.8c-4.8-0.6-9.7-1.4-14.6-1.6c-1.2-0.1-2.4-0.1-3.5-0.2c-1.8-0.1-3.6-0.3-5.3-0.5s-3.5-0.4-5.3-0.7
	c-1.3-0.2-2.7-0.5-4-0.7l0.7,1.5c1,0.2,2,0.4,3.1,0.6c4.7,0.7,9.5,1.2,14.3,1.5c4.8,0.2,9.6,1,14.5,1.6s9.3,0.5,13.9,1.3
	c0.9,0.1,1.8,0.4,2.6,0.7c0.7,0.3,1.4,0.8,1.8,1.5c0.1,0.3,0.4,0.4,0.7,0.3c1-0.2,1.9-0.3,2.9-0.3c1.8-0.1,3.7-0.1,5.5,0.2
	c0.8,0.1,1.6,0.3,2.3,0.7c0,0,0.1,0,0.1,0.1c0.3,0.2,0.6,0.4,0.8,0.6h-0.2c-1.6,0.2-3.1,0.5-4.6,1c-1,0.3-1.9,0.4-2.9,0.5h-0.2h-0.2
	c-0.3,0-0.6,0-0.9-0.1c-0.4-0.1-0.8-0.1-1.2-0.1c-0.2,0-0.4,0.1-0.6,0.1h-0.1c-0.1,0-0.2,0.1-0.3,0.1l-0.2,0.2l-0.1,0.1
	c-0.1,0.1-0.1,0.1-0.2,0.2c-0.2,0.2-0.3,0.4-0.5,0.6c-0.2,0.1-0.4,0.2-0.6,0.2s-0.5,0-0.8,0l-3.8-0.4c-3.8-0.4-7.5-0.7-11.4-0.7
	c-1.5,0-3.1,0-4.7,0.1h-1c-0.8,0-1.5,0.1-2.2,0.2s-1.2,0.2-1.8,0.3l-0.4,0.1l-0.5,0.1l-0.8,0.2c-0.8,0.2-1.6,0.5-2.4,0.9l0,0
	c-0.2,0.1-0.4,0.1-0.5,0.2l-1.1-0.6l-4.4-2.3l-1.8-0.9l-0.4-0.1h-0.2c-1.9,0.1-3.8,0.1-5.6-0.2h-0.3c-0.6-0.1-1.2-0.2-1.9-0.3
	l0.7,1.4l1,0.1c0.5,0.1,1,0.2,1.6,0.2h0.2c0.6,0.1,1.2,0.1,1.9,0.1h0.6c0.7,0,1.3,0,2-0.1l2.2,1.2l1.5,0.8l0.7,0.4l1.2,0.6l1.8,0.9
	l0,0c0.1,0,0.2,0.1,0.3,0.1c0.1,0,0.2,0,0.3-0.1c1.9-1,4-1.6,6.1-1.8c0.7-0.1,1.5-0.2,2.3-0.2c0.5,0,1,0,1.4-0.1
	c1.4,0,2.8-0.1,4.1,0c1.1,0,2.3,0.1,3.4,0.1l1,0.1l2.5,0.2l0.9,0.1c2.4,0.2,4.7,0.4,7.1,0.7c0.3,0,0.7,0,1,0l0,0
	c0.2,0,0.4-0.1,0.6-0.1h0.2c0.1,0,0.2-0.1,0.3-0.1c0.1,0,0.1-0.1,0.2-0.1l0.1-0.1l0,0l0.3-0.3l0.1-0.1l0.1-0.2
	c0.1-0.1,0.2-0.2,0.2-0.3l0,0l0.1-0.1c0.1,0,0.2-0.1,0.3-0.1c0.2,0,0.4,0,0.6,0c-0.1,0.1-0.1,0.1-0.2,0.2c-1.2,1.1-2.4,2.3-3.4,3.5
	l0,0c-1.6,0.2-3.1,0.5-4.6,1c-0.3,0.1-0.7,0.2-1,0.4c-0.4,0.2-0.8,0.6-1,1v0.1c-0.2,0.4-0.2,0.8-0.2,1.1c0,0.4,0.1,0.8,0.3,1.2
	c0.3,0.6,0.8,1.1,1.3,1.6l0.8,0.8l0,0c-0.2,0.4-0.3,0.9-0.4,1.3s-0.3,0.8-0.4,1.2l0,0c-0.2,0.8-0.4,1.6-0.5,2.4v0.1v0.2
	c-0.1,0.7-0.2,1.4-0.2,2.1c0,0.2,0,0.3,0,0.5c-0.1,0.8-0.1,1.7,0,2.5c0,0.3,0,0.5,0.1,0.8c0,0.5,0.1,1,0.2,1.6
	c-1.5,1.4-3,2.8-4.3,4.4c-0.7,0.7-1.2,1.5-1.6,2.4s-0.6,1.9-0.6,2.8c0,1.9-0.3,3.8-1,5.5c-0.6,1.3-2,2.2-3.5,3.2s-2.9,2.2-4.2,3.3
	c-0.1-0.9-0.3-1.7-0.6-2.5c-1.1-2.9-2.9-5.5-5.4-7.5c0.9-3.5-1.9-6.4-4.1-8.6c-0.3-0.3-0.6-0.7-0.9-1l-0.3-0.3
	c0.5,1.1,1,2.3,1.5,3.4c1.7,1.8,3.1,3.9,2.5,6.1l0.6,1.6c2.2,1.8,3.9,4.1,4.8,6.7c0.4,1,0.6,2,0.7,3.1c0,0.6,0,1.3,0,1.9
	c0,0.2-0.1,0.5-0.1,0.7c0.8,0.3,1.6,0.6,2.3,0.9c-0.3-0.2-0.7-0.5-1-0.7c0.1-0.7,0.2-1.5,0.2-2.2c1.5-1.4,3.2-2.6,4.9-3.9
	c1.4-1,3-2,3.9-3.7c0.7-1.9,1.1-3.9,1.1-6c0-0.6,0.1-1.3,0.3-1.9c0.1-0.2,0.1-0.3,0.2-0.5c0.3-0.6,0.7-1.2,1.2-1.7
	c0.1-0.1,0.1-0.2,0.2-0.3c0.2-0.3,0.5-0.5,0.7-0.8c0.9-1,1.9-2,2.9-2.9c0.1,0.4,0.1,0.8,0.2,1.2c0.2,1.2,0.7,2.3,1.3,3.3
	c0.2,0.3,0.5,0.6,0.8,0.8c1,0.8,2.3,1.3,3.1,1.9c0.3,0.2,0.6,0.5,0.9,0.8c0.6,0.5,1.1,1.1,1.6,1.6c0.2,0.3,0.5,0.6,0.8,0.9
	c0.4,0.6,0.8,1.2,1.2,1.8c0.4,0.6,0.8,1.2,1.1,1.8s0.7,1.2,1,1.9s0.6,1.3,0.9,1.9c2.1,5.3,3.7,10.9,4.6,16.6
	c2.2,11.5,4,23.1,5.2,34.7c0.4,3.9,0.8,7.8,1.1,11.7c0.2,2.2,0.3,4.4,0.5,6.7v0.4c0.5,7.5,1.5,26.5,2.3,33.9 M445.8,216.4
	c-0.2,0.3-0.5,0.7-0.7,1l-0.3-0.1l-1.2-0.4c0.7-0.2,1.4-0.3,2.1-0.5H445.8z M442,219.8c-0.2-0.2-0.3-0.4-0.5-0.6
	c-0.1-0.2-0.2-0.4-0.2-0.7c0-0.2,0-0.4,0.1-0.5c0-0.1,0.1-0.1,0.1-0.1l2.6,0.8l1.3,0.4l2.5,0.8c0.4,0.1,0.8,0.3,1.1,0.6l0.1,0.3
	c0,0.3-0.1,0.6-0.3,0.8c-0.2,0.4-0.5,0.7-0.9,0.9c-0.2,0.1-0.4,0.1-0.6,0.1c-0.6,0-1.3,0-1.9-0.1c-0.7-0.1-1.2-0.1-1.6-0.1h-0.1
	c0,0,0,0,0-0.1l0,0c0-0.1,0.1-0.2,0-0.3c0-0.1-0.1-0.2-0.2-0.3l-0.7-0.7l-0.4-0.4L442,219.8z M469.2,357.4l-2.3-33.2
	c-1.2-17.9-3.4-35.6-6.8-53.2c-0.9-5.8-2.5-11.4-4.7-16.9c-1.2-2.7-2.6-5.3-4.4-7.7c-1-1.3-2.2-2.5-3.5-3.5
	c-1.1-0.8-2.3-1.2-3.1-1.9c-0.9-1-1.5-2.1-1.6-3.4c-0.2-0.8-0.3-1.5-0.4-2.3c-0.1-0.7-0.2-1.4-0.2-1.9c0-0.1,0-0.3,0-0.4v-0.4
	c0-0.8,0-1.6,0-2.4v-0.6l0,0c0-0.6,0.1-1.2,0.2-1.8c0-0.1,0-0.2,0-0.3s0-0.2,0-0.3c0.1-0.6,0.3-1.3,0.4-1.9c0-0.2,0.1-0.3,0.1-0.5
	c0.1-0.3,0.2-0.6,0.3-1h0.5l0.6,0.1l0.9,0.1l1.1,0.1c0.4,0,0.7,0,1,0h0.4c0.4,0,0.7-0.2,1-0.4c0.2-0.2,0.4-0.4,0.6-0.6
	c0.2-0.2,0.4-0.4,0.5-0.7c0.1-0.1,0.1-0.2,0.2-0.4c0.2-0.3,0.3-0.7,0.3-1.1c0-0.1,0-0.2,0-0.2c0-0.2,0-0.3-0.1-0.4
	c0-0.2-0.1-0.3-0.2-0.4c-0.1-0.2-0.3-0.3-0.4-0.5c-0.3-0.2-0.6-0.4-1-0.5l-0.5-0.1l-2.1-0.6c0.3-0.4,0.5-0.8,0.8-1.1
	s0.4-0.5,0.7-0.8l0,0l0.6-0.6l0.5-0.6l0.1-0.1c0.3-0.4,0.7-0.7,1-1.1l0.1-0.1l0.2-0.2c0.3-0.3,0.6-0.6,0.9-0.8l0.1-0.1l0.3-0.3
	l0.5-0.4l0.5-0.4c0.5,0,0.9-0.1,1.3-0.2s1.1-0.2,1.6-0.4c1.2-0.3,2.3-0.6,3.3-0.8c0.4-0.1,0.7-0.1,1.1-0.1s0.8,0,1.2,0
	c0.2,0,0.3,0,0.4-0.1c2.7,0.9,4.8,3,5.9,5.6c0.1,0.2,0.2,0.3,0.4,0.4c0.8,0.2,1.5,0.6,2.1,1.1c0.6,0.6,1,1.3,1.4,2
	c1,1.8,2,3.5,2.9,5.4c3.5,7.2,4.7,15,5.2,23c0.1,2.4,0.2,4.8,0.3,7.2c0.3,10.1,0.1,20.3,0.6,30.5c0,1,0.1,1.9,0.2,2.9
	c0.6,9.4,1.9,18.8,2.9,28.1c0.9,8.9,3.2,33.6,3.8,42.5"/>
<polygon class="st2" points="486.7,501.7 487,501.6 487,501.6 "/>
<polygon class="st2" points="486.7,501.7 487,501.6 487,501.6 "/>
<rect x="440.6" y="174.8" class="st1" width="118" height="194.2"/>
</svg>
