<?xml version="1.0" encoding="utf-8"?>
<!-- Generator: Adobe Illustrator 20.0.0, SVG Export Plug-In . SVG Version: 6.00 Build 0)  -->
<svg version="1.1" id="Layer_1" xmlns="http://www.w3.org/2000/svg" xmlns:xlink="http://www.w3.org/1999/xlink" x="0px" y="0px"
	 viewBox="0 0 648 864" style="enable-background:new 0 0 648 864;" xml:space="preserve">
<style type="text/css">
	.st0{fill:#FFFFFF;}
	.st1{fill:#D1D3D4;}
	.st2{fill:none;stroke:#000000;stroke-width:0.25;stroke-miterlimit:10;}
</style>
<rect class="st0" width="648" height="864"/>
<path class="st1" d="M530,474.2c-2.6-26.8-19.1-41-15.8-81.5c3.3-40.5-7.8-79.5-7.8-79.5s8-39.4-3.5-74.4c-3-9.2-8.4-17-14.6-23.7
	l0.1-0.3c-15.8-16.4-35.7-25-35.7-25l-13.1-6.7c0,0-62.3-25.4-67.7-30.8c-5.4-5.4-7.5-47.9-7.5-63.2h-38.8H325h-1.7h-0.6h-38.8
	c0,15.3-2,57.8-7.5,63.2c-5.4,5.4-67.7,30.8-67.7,30.8l-13.1,6.7c0,0-19.9,8.6-35.7,25l0.1,0.3c-6.3,6.6-11.6,14.5-14.6,23.7
	c-11.4,34.9-3.5,74.4-3.5,74.4s-11.1,39-7.8,79.5s-13.2,54.7-15.8,81.5c-4.6,47.8-0.9,114.3,2.2,152.1c1.4,16.9-0.1,48.9,1.3,66.5
	c1,12.2,4.4,33,11.3,42.1c6.7,9,21.8,23.4,26,21.5c3.4,2.9,23,0.9,19.6-6.6s-14.5-9.5-19.3-17.3c-4.8-7.7-5.1-30.9-1.2-31.2
	c3.9-0.3,12,6.6,12.7,14.9c0.7,8.3,3.4,20.5,13.5,20.9c7.1,0.3,2.2-9.2,1.5-18.5c-0.7-9.1,0.2-27.6-12.7-46.6
	c-12.8-19-14.7-37.1-13-57.2c1.7-20.2,26.2-79.7,29-113.7s-6.3-50-1.6-65.5c4.7-15.6,16.2-65.1,14.4-87.3l-0.2-1l5.4-67
	c-0.1,0,14.1,81,14.1,81c3.6,13.7,4.8,69.4,4.8,98.9c0,24.1,3.2,45.7,1,60.3l96.7,0.3l0,0h0.1h0.1l0,0l96.7-0.3
	c-2.2-14.6,1-36.2,1-60.3c0-29.6,1.1-85.3,4.8-98.9c0,0,14.2-81,14.1-81l5.4,67l-0.2,1c-1.8,22.1,9.8,71.7,14.4,87.3
	c4.7,15.6-4.4,31.6-1.6,65.5c2.8,34,27.3,93.5,29,113.7s-0.1,38.3-13,57.2c-12.8,19-11.9,37.5-12.7,46.6c-0.8,9.3-5.6,18.8,1.5,18.5
	c10.1-0.4,12.9-12.6,13.5-20.9c0.7-8.3,8.7-15.2,12.7-14.9c3.9,0.3,3.6,23.5-1.2,31.2c-4.8,7.7-15.9,9.8-19.3,17.3
	s16.2,9.5,19.6,6.6c4.2,1.9,19.2-12.5,26-21.5c6.8-9.1,10.3-29.9,11.3-42.1c1.4-17.6,0-49.6,1.3-66.5
	C530.9,588.4,534.6,521.9,530,474.2z"/>
<path class="st0" d="M513.2,487.9c-0.2-0.2-0.3-0.4-0.5-0.5c-0.5-0.4-1.2-0.7-1.7-0.9c-0.3-0.1-0.6-0.2-0.9-0.3
	c-0.1,0-0.3-0.1-0.5-0.1c0.3-0.3,0.6-0.6,0.8-0.9c0.2-0.3,0.4-0.6,0.6-0.9c0.1-0.2,0.2-0.3,0.3-0.5c0.3-0.5,0.5-1,0.7-1.5
	c0.3-0.7,0.4-1.4,0.6-2c0.5-2.1,0.6-4.2,0.5-6.3c-0.1-0.9-0.2-1.8-0.3-2.6c-0.1-0.7-0.3-1.4-0.4-2c-0.9-4.8-2.4-9.4-4.3-13.8
	c-1.1-2.4-2.1-4.8-3.1-7.2c-1-2.4-2-4.8-3-7.2c-1-2.4-2-4.8-3-7.2c-1-2.4-1.9-4.8-2.8-7.3c-1.3-3.4-2.4-6.9-3.3-10.4
	c-0.3-1.2-0.6-2.4-0.8-3.6c-0.5-2.4-0.9-4.8-1.3-7.2c-0.2-1.2-0.3-2.4-0.5-3.6c-0.1-1.2-0.3-2.4-0.4-3.6c-0.1-1.1-0.2-2.2-0.3-3.2
	c-0.2-2.2-0.5-4.3-0.7-6.4c-0.4-3.2-0.8-6.4-1.2-9.5c-0.1-1.1-0.2-2.1-0.3-3.2c-0.1-1.1-0.2-2.1-0.2-3.2c-0.2-2.4-0.2-4.9-0.2-7.3
	c0-1.9,0-3.7,0-5.6s-0.1-3.7-0.1-5.6c-0.1-3.7-0.3-7.4-0.5-11.1c-0.3-4.5-0.7-9-1.1-13.5s-0.9-9-1.3-13.4c-0.7-7-1.6-14-2.3-21
	c-0.2-2.3-0.4-4.7-0.6-7c-0.1-1-0.1-1.9-0.2-2.9c-0.1-2.5-0.2-5.1-0.2-7.6c-0.1-7.6-0.1-15.2-0.3-22.9c-0.1-2.4-0.2-4.8-0.3-7.2
	c-0.1-2-0.3-4-0.5-6c-0.5-4-1.2-8-2.5-11.8c-0.3-1-0.7-1.9-1-2.9s-0.8-1.9-1.3-2.8c-0.9-1.8-1.9-3.7-2.9-5.4c-0.6-1-1-1.7-1.6-2.3
	s-1.3-0.9-2.3-1.3c-0.3-0.7-0.6-1.3-1.1-1.9c-0.4-0.6-0.9-1.2-1.4-1.7c-1.1-1-2.3-1.8-3.7-2.4c-0.3-0.1-0.6-0.2-0.9-0.3
	c-0.4-0.7-1-1.3-1.7-1.7c-0.2-0.1-0.4-0.2-0.7-0.3c-0.7-0.3-1.4-0.4-2.1-0.5c-0.9-0.1-1.9-0.2-2.8-0.3c-1,0-2,0-2.9,0
	c-0.4,0-0.9,0.1-1.3,0.1c-0.4,0.1-0.9,0.1-1.3,0.2c-0.1-0.2-0.3-0.4-0.4-0.5c-0.5-0.5-1.1-0.9-1.7-1.1c-0.7-0.3-1.5-0.5-2.2-0.7
	c-0.2-0.1-0.5-0.1-0.7-0.2c-1.2-0.2-2.4-0.3-3.5-0.5c-3.5-0.3-7-0.4-10.4-0.8c-4.8-0.6-9.7-1.4-14.6-1.6c-1.2-0.1-2.4-0.1-3.6-0.2
	c-1.8-0.1-3.6-0.3-5.3-0.5c-1.8-0.2-3.5-0.4-5.3-0.7c-1.3-0.2-2.7-0.5-4-0.7c0.2,0.5,0.5,1,0.7,1.5c1,0.2,2,0.4,3.1,0.6
	c4.7,0.7,9.5,1.2,14.3,1.5c4.8,0.2,9.6,1,14.5,1.6c4.7,0.6,9.3,0.5,13.9,1.3c0.9,0.2,1.9,0.4,2.6,0.7c0.8,0.4,1.4,0.8,1.8,1.5
	c0.1,0.2,0.4,0.4,0.7,0.3c0.9-0.2,1.9-0.3,2.9-0.3c1.8-0.1,3.7-0.1,5.5,0.2c0.9,0.1,1.7,0.3,2.3,0.7l0.1,0.1
	c0.3,0.2,0.6,0.4,0.8,0.6c-0.1,0-0.2,0-0.2,0c-1.6,0.1-3.1,0.6-4.6,1c-1,0.3-2,0.5-2.9,0.5c-0.1,0-0.1,0-0.2,0l0,0h-0.2
	c-0.2,0-0.5,0-0.9-0.1c-0.4,0-0.8-0.1-1.2-0.1c-0.2,0-0.4,0.1-0.6,0.1h-0.1c-0.1,0-0.2,0.1-0.3,0.1c-0.1,0-0.2,0.1-0.2,0.2
	c0,0-0.1,0-0.1,0.1c-0.1,0.1-0.1,0.1-0.2,0.2c-0.3,0.3-0.4,0.5-0.5,0.6s-0.3,0.2-0.6,0.2c-0.2,0-0.5,0-0.8,0
	c-1.3-0.1-2.5-0.2-3.8-0.4c-3.8-0.4-7.5-0.7-11.4-0.7c-1.5,0-3.1,0-4.7,0.1c-0.3,0-0.6,0-1,0c-0.7,0-1.5,0.1-2.3,0.2
	c-0.6,0.1-1.2,0.2-1.8,0.3c-0.1,0-0.3,0-0.4,0.1c-0.2,0-0.3,0.1-0.5,0.1c-0.3,0.1-0.5,0.1-0.8,0.2c-0.8,0.2-1.6,0.5-2.4,0.9l0,0
	c-0.2,0.1-0.4,0.1-0.5,0.2c-0.4-0.2-0.7-0.4-1.1-0.6c-1.4-0.8-2.9-1.6-4.4-2.3c-0.6-0.3-1.2-0.6-1.8-0.9l-0.4-0.1h-0.2
	c-1.9,0.1-3.7,0.1-5.6-0.2c-0.1,0-0.2,0-0.3,0c-0.6-0.1-1.3-0.2-1.9-0.3c0.2,0.5,0.4,0.9,0.7,1.4c0.3,0,0.7,0.1,1,0.1
	c0.5,0.1,1.1,0.2,1.6,0.2c0.1,0,0.1,0,0.2,0c0.6,0.1,1.2,0.1,1.9,0.1c0.2,0,0.4,0,0.6,0c0.7,0,1.3,0,2-0.1c0.7,0.4,1.5,0.8,2.2,1.2
	c0.5,0.3,1,0.5,1.5,0.8c0.2,0.1,0.5,0.3,0.7,0.4c0.4,0.2,0.8,0.4,1.2,0.6c0.6,0.3,1.2,0.6,1.8,0.9l0,0c0.1,0.1,0.2,0.1,0.3,0.1
	c0.1,0,0.2,0,0.3-0.1c1.8-1,3.9-1.5,6.2-1.8c0.7-0.1,1.5-0.2,2.3-0.2c0.5,0,1,0,1.4-0.1c1.4,0,2.8-0.1,4.1,0c1.1,0,2.3,0.1,3.4,0.1
	c0.3,0,0.7,0,1,0.1c0.8,0.1,1.7,0.1,2.5,0.2c0.3,0,0.6,0,0.9,0.1c2.4,0.2,4.7,0.4,7.1,0.7c0.3,0,0.6,0.1,1,0l0,0
	c0.2,0,0.4,0,0.6-0.1c0,0,0,0,0.1,0s0.2-0.1,0.3-0.1c0.1,0,0.1-0.1,0.2-0.1l0.1-0.1l0,0c0.1-0.1,0.2-0.2,0.3-0.3l0.1-0.1
	c0-0.1,0.1-0.1,0.1-0.2c0.1-0.1,0.2-0.3,0.3-0.3l0,0l0.1-0.1c0.1,0,0.2,0,0.3-0.1c0.2,0,0.4,0,0.6,0c-0.1,0.1-0.1,0.1-0.2,0.2
	c-1.3,1.1-2.4,2.3-3.4,3.5l0,0c-1.5,0.2-3.1,0.5-4.6,1c-0.3,0.1-0.6,0.2-1,0.4s-0.7,0.5-1,1v0.1c-0.2,0.4-0.3,0.8-0.2,1.1
	c0,0.4,0.1,0.8,0.3,1.2c0.3,0.7,0.8,1.2,1.3,1.6c0.2,0.2,0.5,0.5,0.8,0.8l0,0c-0.2,0.4-0.3,0.8-0.4,1.3c-0.1,0.4-0.3,0.8-0.4,1.2
	l0,0l0,0l0,0c-0.2,0.8-0.4,1.6-0.5,2.4v0.1c0,0.1,0,0.1,0,0.2c-0.1,0.7-0.2,1.4-0.2,2.1c0,0.2,0,0.3,0,0.5c0,0.8,0,1.7,0,2.5
	c0,0.3,0,0.5,0.1,0.8c0,0.5,0.1,1,0.2,1.6c-1.5,1.4-3,2.8-4.3,4.4c-0.7,0.9-1.3,1.6-1.6,2.4c-0.4,0.8-0.5,1.7-0.6,2.8
	c-0.2,2-0.2,3.9-1,5.5c-0.6,1.3-2,2.2-3.4,3.2c-1.5,1-2.9,2.2-4.2,3.3c-0.1-0.8-0.3-1.7-0.6-2.5c-1.1-2.9-3-5.6-5.4-7.5
	c0.9-3.5-1.9-6.4-4.1-8.6c-0.3-0.3-0.6-0.7-0.9-1c-0.1-0.1-0.2-0.2-0.3-0.3c0.5,1.1,1,2.3,1.5,3.4c1.7,1.8,3.1,3.9,2.6,6.1
	c0.2,0.5,0.4,1,0.6,1.6c2.2,1.7,3.9,4.1,4.8,6.7c0.4,1.1,0.6,2.1,0.7,3.1c0.1,0.6,0,1.3-0.1,1.9c0,0.2-0.1,0.5-0.1,0.7
	c0.8,0.3,1.6,0.6,2.3,0.9c-0.3-0.2-0.7-0.5-1-0.7c0.2-0.7,0.2-1.5,0.2-2.2c1.5-1.4,3.2-2.6,4.9-3.8c1.4-1,3-2,3.9-3.7
	c0.9-2,1-4,1.1-6c0.1-0.8,0.2-1.4,0.3-1.9c0.1-0.2,0.1-0.3,0.2-0.5c0.2-0.5,0.6-1.1,1.2-1.7c0.1-0.1,0.1-0.2,0.2-0.3
	c0.2-0.3,0.5-0.5,0.7-0.8c0.9-1,1.9-2,2.8-2.9c0.1,0.4,0.2,0.8,0.2,1.2c0.3,1.2,0.7,2.4,1.3,3.3c0.2,0.3,0.5,0.6,0.7,0.8
	c1,0.8,2.3,1.3,3.1,1.9c0.3,0.2,0.6,0.5,0.9,0.8c0.6,0.5,1.1,1.1,1.6,1.6c0.3,0.3,0.5,0.6,0.8,0.9c0.4,0.6,0.8,1.2,1.2,1.8
	c0.4,0.6,0.8,1.2,1.1,1.8c0.3,0.6,0.7,1.3,1,1.9c0.3,0.6,0.6,1.3,0.9,1.9c2.3,5.3,3.5,10.9,4.6,16.6c2.2,11.5,3.9,23.1,5.2,34.7
	c0.4,3.9,0.8,7.8,1.1,11.7c0.2,2.2,0.3,4.4,0.5,6.7v0.4c0.5,7.5,1.2,14.9,2,22.4c1.3,12.5,2.9,24.9,4.2,37.4
	c0.2,1.6,0.3,3.2,0.5,4.8c0.3,3.2,0.7,6.4,1.1,9.6c0.7,6.4,1.5,12.8,2,19.3c0.1,1.6,0.3,3.2,0.4,4.8c0.4,5.5,0.5,11,0.4,16.5
	c-0.1,3-0.3,5.9-0.8,8.8c-0.2,1-0.3,1.9-0.5,2.9c-0.4,1.9-0.9,3.8-1.4,5.7c-0.6,1.9-1.2,3.7-2,5.6c-0.2,0.4-0.4,0.8-0.5,1.2
	c-0.3,0.8-0.6,1.6-1,2.4c-0.6,1.4-1.2,2.7-2,3.9c-0.3,0.5-0.7,1-1.1,1.5c-0.1,0.1-0.2,0.2-0.3,0.3c-0.5,0.5-1,1-1.5,1.7
	c-0.2,0.3-0.4,0.5-0.5,0.9c-0.1,0.1-0.1,0.3-0.2,0.5c-0.4,0.9-0.6,1.9-0.7,2.9c0,0.2,0,0.3,0,0.5s0,0.4,0,0.7
	c0.1,1.2,0.4,2.3,0.7,3.4c0.1,0.4,0.3,0.7,0.4,1.1c0.4,0.8,0.9,2,1.6,3.1c0.2,0.3,0.4,0.5,0.6,0.8c0.4,0.5,0.9,0.9,1.4,1.3
	c0.3,0.2,0.5,0.3,0.8,0.4s0.6,0.2,0.9,0.2c0.9,0.2,1.8,0.2,2.6,0.1h0.3c0.1,0,0.3,0,0.6-0.1c0.3,0,0.7-0.1,1.1-0.1
	c0.1,0,0.2,0,0.3-0.1c0.1,0,0.2,0,0.3-0.1c0,0.1,0,0.2,0,0.3c0,0.2,0,0.4,0,0.6c0,0.3,0.1,0.7,0.1,1c0.2,0.9,0.5,1.7,1,2.4
	c0.1,0.1,0.2,0.3,0.3,0.4c0.6,0.7,1.4,1.3,2.3,1.6c0,0.1,0,0.3,0,0.4c0,0.3,0.1,0.7,0.1,1c0.1,0.3,0.2,0.6,0.2,0.9
	c0.3,1.1,0.7,2.1,1.2,3.1c0.1,0.3,0.3,0.7,0.4,1c0.2,0.5,0.4,1,0.5,1.6c0.7,2.5,1.4,5,2,7.5c0.8,2.9,1.5,5.8,2.2,8.7
	c0.7,2.9,1.4,5.8,2.1,8.7c1,4.2,1.7,8.5,2.5,12.8c0.3,1.4,0.6,2.8,0.9,4.3c0.1,0.6,0.2,1.1,0.3,1.7c0.7,4,0.9,8.4,1.2,12.5l0.1,1.8
	c0,0.3,0.1,0.6,0.1,0.9c0.3,4,0.4,8,0.5,12c0.1,2,0.1,4,0.1,6s0,4,0.1,6c0,2.9,0.2,5.8,0.3,8.8c0.1,1.5,0.2,3,0.3,4.5
	c0.1,1.5,0.3,3,0.4,4.5c0.3,3,0.6,6,0.8,8.9c0.2,2.2,0.4,4.5,0.7,6.7c0.2,2.2,0.5,4.5,0.8,6.7c0.9,7.3,2.1,14.5,3.6,21.6
	c-0.7,0.6-1.6,1.1-2.5,1.7c-1,0.7-2,1.4-2.6,2.6c-1.2,2.3-2.7,4.5-4.5,6.3c-0.4,0.4-0.8,0.8-1.1,1.2c-0.3,0.4-0.5,0.9-0.6,1.4
	c-0.4,0-0.9,0-1.4,0c-0.4,0-0.9,0.1-1.3,0.3c-1,0.5-1.6,1.5-1.9,2.5c-0.2,1-0.2,1.9-0.1,2.8l0,0c0,0.1,0,0.1,0,0.2
	c-0.2,0.2-0.4,0.3-0.5,0.4c-0.8,0.7-1.5,1.6-2.1,2.5c-1.3,2-2,4.4-2.9,6.4c-1.4,3.3-2.7,6.6-3.9,9.9c-0.5,1.4-0.7,2.7-1.3,3.8
	c-0.9,1.6-1.8,3.1-2.6,4.7c-0.3,0.5-0.6,1.1-0.8,1.8c-0.1,0.3-0.1,0.6-0.1,0.9c0,0.6,0.3,1.1,0.6,1.6c0.2,0.3,0.5,0.5,0.7,0.7
	c-0.1,0.1-0.2,0.3-0.3,0.4c-0.5,0.8-0.5,1.6-0.5,2.3c0,0.3,0.1,0.6,0.1,0.9v0.4c0.1,3.7-0.8,7.5-3.2,10.3c-0.4,0.4-1,1.1-1.6,1.9
	c-0.5,0.8-1.1,1.6-1,2.6v0.1c-0.2,0.4-0.3,0.8-0.2,1.3l0.1,0.5c0.2,0.6,0.5,1.1,0.7,1.6c0.3,0.5,0.5,0.9,0.6,1.3
	c0,0.2,0.1,0.4,0.1,0.6c0.1,1.1-0.3,2.1-0.7,3.5c-0.1,0.3-0.1,0.6-0.1,0.9c0.1,0.8,0.5,1.6,1.2,2c0.4,0.2,0.8,0.3,1.2,0.3
	c0.5,0,1-0.3,1.3-0.6s0.6-0.7,0.8-1.1c0.4-0.8,0.5-1.6,0.6-2.3s0.1-1.3,0.4-1.9c0.4-1,1.1-1.8,1.9-2.6c0.1,0,0.2,0,0.3,0
	c0.4,0,0.8-0.1,1.2-0.3c0.6-0.4,0.9-1,1.1-1.5c0.2-0.6,0.2-1.2,0.3-1.6c0.2-2.3,0.8-4.4,1.5-6.5c0.3-0.8,0.4-1.4,0.7-2
	c0.6-0.9,1.2-1.8,1.8-2.8c0.2-0.4,0.6-0.8,0.9-1.2c0.4-0.4,0.8-1,1-1.7c0.1-0.3,0.1-0.5,0.1-0.8c0-0.2,0-0.4-0.1-0.6
	c0.2,0,0.3-0.1,0.4-0.3c0.8-1.1,1.6-2.3,2.3-3.6c0.7-1.4,1-2.7,1.1-4.1c0.1-1.3,0.2-2.7,0.4-4c0.5-2.8,1.2-5.5,2.1-8.3
	c0.5-1.7,1.3-3.2,2.3-4.7c0.5-0.7,1.1-1.4,1.7-2.1l0,0c0,0,0.2-0.2,0.4-0.3c0.3-0.2,0.7-0.5,1-0.8c0.2-0.1,0.3-0.3,0.4-0.4l0.2-0.2
	l0.1-0.1c0-0.1,0.1-0.1,0.1-0.4l0,0c0-0.2-0.1-0.4-0.1-0.6c0.5,0.1,1,0.2,1.5,0.2c0.3,0,0.6-0.1,0.9-0.2c0.5,1.4,0.8,3,1.1,4.5
	c0.5,2.3,1.5,4.4,2.1,6.5c0.6,2.3,1,4.7,1.1,7c0.1,1.4,0.1,2.8,0,4.2c-0.1,1.8-0.2,3.4-1,4.9c-0.7,1.5-1.7,2.9-2.9,4.1
	c-1.2,1.2-1.4,2.8-1.3,4.3c0,0.7,0.2,1.5,0.4,2.2c-0.5,0.3-0.8,0.8-1.1,1.2c-0.7,1.1-1.1,2.4-1,3.6c0,0.3,0.1,0.7,0.2,1
	c0.7,2.3,1.2,4.5,1.4,6.7c0.2,2.4-0.1,4.7-0.8,7.1c-0.6,1.8-0.7,3.3-1.6,4.7c-0.3,0.5-0.9,1-1.3,1.8c-0.7,0.2-1.3,0.7-1.7,1.1
	c-2.2,1.8-3.3,4.4-5.1,6.1c-0.9,0.9-1.9,1.5-2.9,1.6c-0.1,0-0.3-0.1-0.4-0.1c-0.2,0-0.4,0.1-0.6,0.2l-0.3,0.2
	c-0.4,0.3-0.7,0.8-0.8,1.3c-0.4,0.1-0.7,0.3-0.9,0.5c-0.7,0.4-1.4,0.6-2.1,0.8h-0.3h-0.5c-0.3,0-0.6,0-0.9,0.1s-0.7,0.3-0.9,0.7
	c-0.2,0.4-0.2,0.7-0.2,1.1v0.1l0,0l0,0c0,0.7,0.4,1.3,0.8,1.8c0.2,0.2,0.3,0.2,0.4,0.2c0.3,0.1,0.5,0,0.7,0h0.3c0.4,0,0.7,0,1.1,0
	h0.5c0.2,0.4,0.6,0.6,0.9,0.8c0.4,0.1,0.8,0.2,1.1,0.3c0.5,0.1,1,0.1,1.4,0.1c1.5-0.1,2.8-0.6,4.1-0.8c2.6-0.4,5.2-0.7,7.8-1h0.7
	c0.5,0,1.1-0.1,1.7-0.4c0.3-0.2,0.6-0.4,0.9-0.7s0.6-0.7,0.6-1.2l0,0v-0.4v-0.1c0.3,0,0.6,0.1,0.9,0.1c0.2,0,0.4,0,0.6-0.1
	c0.7-0.2,1.2-0.5,1.6-0.9c3.3-2.5,6.1-5.7,8.8-8.7c3.3-3.7,6.5-7.4,8.5-12c0.5-1.2,1.1-2.6,1-4.1c0-0.3-0.1-0.6-0.1-0.9
	c-0.5-1.7-1.8-2.7-3-3.6c-0.2-0.1-0.3-0.1-0.5-0.1h-0.2h-0.2c-0.2,0-0.4-0.1-0.6-0.1c0.3-0.3,0.5-0.6,0.7-0.9
	c0.2-0.4,0.4-0.8,0.6-1.1c0.6-0.8,0.9-1.8,1.1-2.6c0.7-2.5,2.3-4.7,2.3-7.8c0-0.4,0-0.8,0-1.1c-0.1-1.3-0.3-2.6-0.5-3.8
	c-0.1-0.5-0.1-1-0.1-1.5l-0.2-2.5c-0.3-3.1-0.3-6.3-0.9-9.5c-0.1-0.5-0.1-1.1-0.2-1.6c-0.1-2,0-4.1-0.1-6.3c-0.2-2.5-0.3-5-0.5-7.5
	v-0.1c0-0.6-0.1-1.4-0.3-2c0.2-0.1,0.3-0.1,0.5-0.2c0.2-0.1,0.3-0.3,0.3-0.6c0-0.6,0-1.3,0-1.9c-0.1-1.3-0.3-2.6-0.7-3.8
	c-0.1-0.3-0.4-0.5-0.7-0.5c-0.2,0-0.4,0.2-0.5,0.4c-1.1-1.8-2.5-3.4-4-4.8c-0.2-0.2-0.5-0.4-0.6-0.7c-0.2-0.2-0.2-0.4-0.3-0.5
	c0-0.1,0.1-0.3,0.1-0.4h0.1c0.4-0.1,0.7-0.3,1.2-0.4c0.4-0.2,0.8-0.3,1.2-0.5c0.8-0.4,1.6-0.9,2.1-1.5c0.2-0.2,0.4-0.4,0.5-0.7
	c0.1-0.2,0.2-0.4,0.3-0.6c0.1-0.2,0.2-0.4,0.2-0.6c0.1-0.2,0.1-0.4,0.2-0.6c0.1-0.2,0.1-0.4,0.2-0.5c0.1-0.1,0.1-0.2,0.2-0.3
	c0.3-0.6,0.7-1.3,0.9-2.1c0-0.1,0.1-0.3,0.1-0.4c0-0.2,0-0.4,0.1-0.7c0-0.2,0-0.4,0-0.7c0-0.4-0.1-0.9-0.2-1.3
	c-0.2-0.9-0.4-1.7-0.6-2.5c-0.1-0.4-0.2-0.8-0.2-1.1c-0.2-1-0.3-1.9-0.4-2.9c-0.1-1-0.2-1.9-0.3-2.9V637c0-0.8-0.1-1.6-0.1-2.3
	c0-0.8-0.1-1.5-0.1-2.3c-0.1-1.5,0-3,0.1-4.6c0.2-1.5,0.3-2.9,0.4-4.4c0.3-4.4,0.3-8.9,0.4-13.3c0-1.5,0.1-3,0.1-4.5c0-3,0-6,0-9
	c0-1.5-0.1-3-0.1-4.5c-0.1-3-0.2-6-0.2-9s-0.1-6-0.1-9c0-0.5,0-1.1-0.1-1.6c0-0.5,0-1.1-0.1-1.6c-0.1-1.2-0.2-2.4-0.3-3.6
	c-0.1-1.2-0.3-2.4-0.4-3.5c-0.2-1.8-0.4-3.5-0.7-5.3c-0.1-0.6-0.1-1.2-0.2-1.7c-0.2-2.2-0.4-4.3-0.6-6.5c-0.2-2.2-0.4-4.3-0.7-6.5
	c-0.1-0.5-0.1-1.1-0.2-1.6c-0.4-3.8-0.9-7.6-1.2-11.4l-0.1-1.7c-0.1-1.1-0.1-2.3-0.2-3.4c-0.1-2.3-0.3-4.6-0.4-6.9
	c-0.1-1.3-0.2-2.6-0.3-4c0-0.7-0.1-1.3-0.1-2c0-0.5-0.1-1-0.1-1.5s-0.1-1-0.1-1.5c-0.1-0.8-0.1-1.6-0.1-2.4c0-1.6,0-3.2,0.2-4.8
	c0.1-0.8,0.2-1.6,0.4-2.4c0.1-0.5,0.2-1,0.4-1.4c0.1-0.5,0.3-0.9,0.5-1.3c0.1-0.2,0.1-0.3,0.2-0.4s0.2-0.3,0.3-0.4
	c0.1-0.1,0.3-0.3,0.4-0.4c0.1-0.2,0.3-0.3,0.5-0.5c0.3-0.3,0.5-0.7,0.7-1c0.5-1.1,0.7-2.2,0.7-3.3v-0.4c0-0.6-0.2-1.2-0.5-1.8
	C513.3,488.1,513.2,488,513.2,487.9z M444.9,216.8c-0.2,0.3-0.5,0.7-0.7,1c-0.1,0-0.2-0.1-0.3-0.1c-0.4-0.1-0.8-0.3-1.2-0.4
	C443.4,217.2,444.2,217,444.9,216.8z M441.3,220.2c-0.2-0.2-0.3-0.4-0.4-0.6c-0.1-0.2-0.2-0.4-0.2-0.7c0-0.2,0-0.4,0.1-0.5l0.1-0.1
	c0.9,0.3,1.7,0.5,2.6,0.8c0.4,0.1,0.9,0.3,1.3,0.4c0.8,0.3,1.7,0.5,2.5,0.8c0.6,0.2,1,0.4,1.1,0.6l0.1,0.3c0,0.2-0.1,0.5-0.3,0.8
	c-0.2,0.3-0.5,0.7-0.8,0.9c0,0-0.3,0.1-0.6,0.1c-0.5,0-1.2,0-1.9-0.1c-0.7-0.1-1.2-0.1-1.6-0.1h-0.1c0,0,0,0,0-0.1l0,0
	c0.1-0.1,0.1-0.2,0.1-0.3s-0.1-0.2-0.2-0.3c-0.2-0.3-0.5-0.5-0.7-0.7c-0.1-0.1-0.3-0.3-0.4-0.4C441.7,220.6,441.5,220.4,441.3,220.2
	z M478.9,492c-0.2,0.7-0.4,1.3-0.5,2c-0.5-0.2-1-0.5-1.4-1c-0.7-0.8-1.1-2-1.1-3.1c0-0.5,0-1.1,0.1-1.5c0-0.1,0-0.2,0-0.3
	c0-0.1,0-0.1-0.1-0.2l0,0c0-0.1-0.1-0.1-0.2-0.2c-0.1,0-0.2-0.1-0.2-0.1c-0.1,0-0.2,0-0.3,0c-0.1,0-0.2,0-0.2,0.1l0,0l0,0
	c-0.1,0-0.3,0.1-0.5,0.1c-0.8,0.1-2.1,0.2-2.3,0.3h-0.3c-1,0.1-2.1,0-3-0.3c-0.7-0.2-1.4-0.9-2.1-1.9c-0.6-1-1.2-2.1-1.5-2.9
	c-0.6-1.3-1-2.6-1.1-4c0-0.2,0-0.4,0-0.6c0-1.2,0.3-2.2,0.8-3.3c0.4-0.9,1.3-1.6,2.1-2.6c2.4-2.9,3.4-6.2,4.8-9.4
	c3.2-7.5,4.6-15.3,4.8-23.4c0.1-5.5-0.1-11.1-0.4-16.6c-0.8-12.9-2.6-25.8-3.9-38.5c-2-20-4.9-39.9-6.1-59.8v-0.4
	c-1.2-17.9-3.4-35.6-6.8-53.2c-1.1-5.7-2.4-11.4-4.7-16.9c-1.2-2.7-2.6-5.3-4.4-7.7c-1-1.4-2.2-2.5-3.5-3.5
	c-1.1-0.8-2.3-1.2-3.1-1.9c-0.7-0.6-1.3-1.9-1.7-3.4c-0.2-0.8-0.3-1.6-0.4-2.3s-0.2-1.4-0.2-1.9c0-0.1,0-0.3,0-0.4v-0.4
	c-0.1-0.8-0.1-1.6,0-2.4c0-0.2,0-0.4,0-0.6l0,0c0-0.6,0.1-1.2,0.2-1.8c0-0.1,0-0.2,0.1-0.3c0-0.1,0-0.2,0.1-0.3
	c0.1-0.6,0.3-1.3,0.4-1.9c0-0.2,0.1-0.3,0.1-0.5c0.1-0.3,0.2-0.7,0.3-1c0.2,0,0.3,0,0.5,0c0.1,0,0.3,0,0.6,0.1
	c0.3,0,0.6,0.1,0.9,0.1s0.7,0.1,1.1,0.1s0.7,0,1,0c0.1,0,0.3,0,0.4,0c0.4,0,0.7-0.1,1-0.4c0.2-0.2,0.4-0.4,0.6-0.6
	c0.2-0.2,0.4-0.4,0.5-0.7c0.1-0.1,0.1-0.2,0.2-0.4c0.2-0.3,0.3-0.7,0.3-1.1c0-0.1,0-0.2,0-0.2c0-0.1,0-0.3-0.1-0.4
	c0-0.1-0.1-0.3-0.2-0.4c-0.1-0.2-0.3-0.4-0.4-0.5c-0.3-0.3-0.7-0.4-1-0.5c-0.2-0.1-0.3-0.1-0.5-0.2c-0.7-0.2-1.4-0.4-2.1-0.6
	c0.3-0.4,0.5-0.7,0.8-1.1c0.2-0.3,0.4-0.5,0.7-0.8l0,0c0.2-0.2,0.4-0.4,0.6-0.7c0.2-0.2,0.3-0.4,0.5-0.6l0.1-0.1
	c0.3-0.4,0.7-0.7,1-1.1l0.1-0.1c0.1-0.1,0.1-0.1,0.2-0.2c0.3-0.3,0.6-0.6,0.9-0.8l0.1-0.1c0.1-0.1,0.2-0.2,0.3-0.3
	c0.2-0.1,0.3-0.2,0.5-0.4c0.2-0.1,0.4-0.3,0.6-0.4c0.4,0,0.9-0.1,1.3-0.2c0.6-0.1,1.1-0.2,1.6-0.4c1.2-0.3,2.3-0.6,3.3-0.8
	c0.4-0.1,0.7-0.1,1.1-0.1s0.8,0,1.2,0c0.2,0,0.3,0,0.4-0.1c2.6,0.9,4.9,3,5.9,5.6c0.1,0.2,0.2,0.3,0.4,0.4c1.1,0.3,1.6,0.7,2.1,1.1
	c0.4,0.4,0.8,1.1,1.4,2c1,1.8,2,3.5,2.8,5.4c3.5,7.2,4.7,15,5.2,23c0.2,2.4,0.3,4.8,0.3,7.2c0.3,10.1,0.1,20.3,0.6,30.5
	c0,1,0.1,1.9,0.2,2.9c0.6,9.4,1.9,18.7,2.9,28.1c0.9,8.9,1.8,17.9,2.4,26.8c0.5,7.4,0.7,14.8,0.6,22.2c-0.1,2.5,0,5,0.2,7.4
	c0.6,8.6,2.1,16.9,2.8,25.5c0.8,9.8,2.8,19.7,6.3,28.8c3.7,9.7,7.7,19.4,12,28.9c2.2,5,3.8,10.2,4.6,15.5c0.1,0.8,0.2,1.7,0.3,2.5
	c0.1,2,0,4-0.5,5.9c-0.3,1.2-0.7,2.6-1.4,3.7c-0.5,0.9-1.2,1.7-2,2.2c-0.2,0-0.5,0-0.7,0h-0.1c-0.6,0-1.1,0.2-1.7,0.4
	c-0.3,0.1-0.5,0.2-0.8,0.3c-0.3,0.1-0.5,0.2-0.7,0.3c-0.5,0-1.1,0-1.8,0l-0.5,0.1c-0.9,0.1-1.6,0.5-2.3,0.9
	c-0.7,0.4-1.3,0.7-1.9,0.9c-0.2,0-0.4,0.1-0.6,0.1c-0.7,0-1.4-0.1-2.2-0.3c-0.8-0.2-1.6-0.4-2.6-0.4c-0.4,0-0.8,0.1-1.2,0.3
	c-0.5-0.4-1.1-0.9-1.6-1.4c-0.4-0.4-0.9-0.8-1.4-1.2c-0.2-0.2-0.5-0.4-0.8-0.5c-0.3-0.2-0.6-0.4-0.9-0.5c-0.2-0.1-0.5-0.2-0.7-0.3
	c-0.3-0.1-0.5-0.2-0.8-0.2c-0.2,0-0.4,0-0.5,0c-0.7,0-1.4,0.4-1.8,1c-0.5,0.7-0.9,1.4-1.3,2.1s-0.8,1.5-1.1,2.2
	c-0.2,0.5-0.5,1-0.7,1.5C479.2,491.2,479.1,491.6,478.9,492z M501.2,488.3c-1.1,0.8-2.1,1.7-3,2.7c-0.3,0.4-0.4,0.7-0.5,1.1
	c-0.9-0.8-1.9-1.3-2.9-1.8c-0.7-0.3-1.5-0.7-2.1-1c0.2,0,0.4,0,0.7,0c0.4,0.1,0.7,0.2,1.2,0.2c0.4,0.1,0.8,0.2,1.2,0.3
	c0.4,0.1,0.9,0.1,1.4,0.1c0.3,0,0.5-0.1,0.8-0.1c0.6-0.2,1.2-0.4,1.7-0.7c0.2-0.1,0.3-0.2,0.5-0.3c0.2-0.1,0.3-0.2,0.5-0.2
	C500.8,488.4,501,488.3,501.2,488.3z M496.2,612.8c-0.5-6-1.1-11.9-1.5-17.9c-0.2-2.9-0.3-5.8-0.3-8.7c-0.1-8-0.2-16.1-0.7-24.1
	c-0.1-0.9-0.1-1.9-0.2-2.8c-0.4-4.7-0.5-9.7-1.6-14.4c-1.3-5.6-2.1-11.3-3.4-17c-1.4-5.8-2.9-11.6-4.4-17.4c-0.7-2.5-1.3-5-2-7.5
	c-0.7-2.4-1.9-4.3-2.3-6.5c0-0.3-0.1-0.6-0.1-0.9c0-0.1,0-0.1,0-0.2c0-0.5,0-0.9,0.1-1.3c0.1-0.9,0.4-1.8,0.9-2.8
	c0.9-1.9,1.8-3.9,3-5.6c0.3-0.4,0.5-0.5,0.8-0.5c0.4,0,0.9,0.1,1.4,0.4s1,0.6,1.4,0.9c0.8,0.7,1.6,1.5,2.5,2.2
	c0.4,0.3,0.7,0.6,1.1,0.9l0,0c1.1,0.7,2.3,1.2,3.4,1.7s2.1,1,2.9,1.8c0.1,0.1,0.3,0.3,0.4,0.5c0,0.1,0,0.2,0.1,0.3
	c0.1,0.3,0.2,0.7,0.4,1c0.1,0.1,0.2,0.2,0.3,0.3c0.1,0.1,0.2,0.2,0.3,0.3l0,0c0.2,0.5,0.3,1,0.4,1.5c0,0.2,0.1,0.5,0.1,0.7
	c0.1,1.8-0.3,3.5-0.5,5.5c-0.1,0.7-0.1,1.3,0,2c0.1,0.8,0.2,1.6,0.3,2.3c-0.2,0.8-0.4,1.7-0.6,2.5c-0.4,1.6-0.6,3.2-0.6,4.9
	c0,0.2,0,0.5,0,0.7c0,0.1,0,0.2,0,0.3c0,0.5,0.1,1,0.2,1.6c0.4,1.6,0.8,3.2,1.3,4.8c0.2,0.8,0.5,1.6,0.7,2.4c0,0.7,0,1.5,0.1,2.2
	c0.1,2.2,0.4,4.5,0.7,6.7c0.3,2.1,0.6,4.1,0.9,6.2c0.8,5.7,1.4,11.4,1.8,17c0.2,2.9,0.3,5.8,0.3,8.8c0,8.8-0.7,17.5-0.5,26.4
	c0.1,5.5,0.6,10.6,0.7,16c0,2.7,0.2,5.5,0.3,8.3c0.2,3.5,0.6,6.9,1.1,10.3c0,0.1,0,0.2,0,0.3c-0.3,2.5-0.5,5-0.8,7.5
	c-0.1,1.1-0.2,2.1-0.4,3.1c-0.1,0.5-0.2,1-0.3,1.4c-0.1,0.5-0.3,0.9-0.5,1.4c-0.2,0.4-0.3,0.7-0.4,1.1c-0.2,0.7-0.4,1.4-0.4,2.1
	c0,0.4-0.1,0.7-0.1,1.1c0,0.4-0.1,0.8-0.1,1.2s0,0.8,0,1.2v0.2c0,0.2,0,0.3,0.1,0.5c-0.3,0-0.6,0-0.9-0.1
	C498.9,636.3,497.2,624.6,496.2,612.8z M503,542.1c-0.1-0.7-0.2-1.4-0.3-2.1c-0.1-0.7-0.2-1.4-0.3-2.1c-0.2-1.2-0.3-2.4-0.5-3.6
	c0.5,2.4,1,4.8,1.5,7.1c0.2,1.1,0.4,2.2,0.6,3.3c0.4,2.2,0.6,4.5,0.9,6.8c0.2,1.4,0.3,2.9,0.4,4.3c0.4,4.3,0.6,8.7,0.9,12.9l0.1,2.1
	c0,0.4,0.1,0.7,0.1,1.1c0.1,2,0.2,3.9,0.3,5.9c0.3,5.9,0.4,11.8,0.3,17.7c0,1.9-0.2,3.7-0.4,5.5c-0.2,1.4-0.3,2.8-0.3,4.2
	c0,0.5-0.1,0.9-0.1,1.4c0,1.6,0.1,3.3,0.1,4.9c0,1.6,0,3.2-0.1,4.8c-0.1,1.1-0.2,2.1-0.3,3.2c-0.1,0.5-0.1,1.1-0.2,1.6
	c-0.2-1.6-0.3-3.2-0.4-4.8c-0.1-1.4-0.1-2.8-0.2-4.1c0-1.4-0.1-2.7-0.1-4.1c-0.1-4.8-0.4-9.3-0.6-14c0-0.7-0.1-1.3-0.1-2
	c-0.1-3.3,0-6.6,0.1-9.9c0-1.1,0.1-2.2,0.1-3.3c0.1-4.4,0.3-8.8,0.3-13.2c0-3-0.1-5.9-0.3-8.9C504.2,552,503.6,547.1,503,542.1z
	 M490.2,660.6c0.3-0.4,0.6-0.7,1-1.1c2-1.9,3.5-4.2,4.8-6.6c0.5-0.9,1.3-1.5,2.2-2.1c0.8-0.5,1.6-1.1,2.4-1.7l0,0c0.1,0,0.2,0,0.2,0
	c0.6,0.1,1.2,0.1,1.8,0.1l0,0l0,0c0.4,0.9,0.9,1.8,1.4,2.6l0,0l0.1,0.1c0.1,0.1,0.2,0.2,0.3,0.3l0,0c0.6,0.9,1.3,1.7,2,2.5l0,0
	c-0.2,0.4-0.6,0.8-1,1.1c-0.7,0.6-1.6,1.1-2.2,2.1c-0.6,0.9-0.7,1.8-0.8,2.6c-0.1,1.1-0.3,2.2-0.5,3.4c-1.7-0.5-3.3-0.8-5.1-1.1
	c-0.2,0-0.4,0-0.6,0s-0.4,0-0.7,0.2c0,0-0.1,0.1-0.2,0.1c0-0.3-0.1-0.6-0.2-0.9c-0.1-0.3-0.3-0.6-0.5-0.9l0,0c0,0,0,0,0-0.1
	c-0.6-0.6-1.4-0.8-2.1-0.8h-0.2c-0.9,0.1-1.7,0.5-2.3,0.7C489.9,661,490,660.8,490.2,660.6z M503.1,665.7c0.2,0.1,0.4,0.1,0.6,0.2
	c0.1,0,0.1,0,0.2,0.1c0.5,0.2,1,0.3,1.5,0.5c0.8,0.2,1.5,0.5,2,0.9l0.1,0.3v0.1c0,0.1,0,0.1,0,0.2c0,0.1-0.1,0.3-0.1,0.5
	c0,0.1,0,0.2-0.1,0.2c-0.1,0.2-0.2,0.4-0.3,0.5l0,0c-0.1,0.1-0.2,0.2-0.3,0.2l0,0c-0.2,0.1-0.4,0.1-0.6,0.2c-0.3,0-0.6,0-0.9,0
	c-1.3-0.1-2.6-0.4-4-0.7c-0.5-0.1-0.9-0.2-1.3-0.3c-0.1,0-0.2,0-0.3-0.1c-0.4-0.1-0.9-0.3-1.2-0.5c-0.3-0.2-0.5-0.3-0.8-0.5
	c-0.2-0.2-0.3-0.4-0.5-0.6c-0.1-0.1-0.1-0.2-0.1-0.3c-0.1-0.2-0.2-0.3-0.2-0.5c0-0.1,0-0.1-0.1-0.2c0-0.1,0-0.1,0-0.1
	c0-0.1,0-0.1-0.1-0.2c0-0.1-0.1-0.3-0.1-0.4c0,0,0,0,0-0.1c0-0.2-0.1-0.4-0.1-0.7c0-0.1,0-0.1,0-0.2h0.3c1.7,0.2,3.4,0.6,5.1,1.1
	c0.2,0.1,0.4,0.1,0.6,0.2C502.6,665.6,502.8,665.7,503.1,665.7L503.1,665.7z M472.8,719.5c-0.2,0.2-0.4,0.4-0.7,0.7
	c-0.1,0.1-0.2,0.2-0.3,0.3c-0.2,0.2-0.4,0.4-0.6,0.6c-0.2,0.2-0.3,0.4-0.5,0.6c-0.6,0.7-1.1,1.4-1.5,2.2s-0.5,1.6-0.5,2.3
	c-0.1,0.7-0.2,1.3-0.5,1.9c-0.1,0.3-0.3,0.5-0.5,0.7s-0.3,0.2-0.5,0.2c-0.1,0-0.3,0-0.5-0.1c-0.4-0.2-0.6-0.6-0.6-1
	c0-0.2,0-0.3,0-0.5c0.3-1.2,0.8-2.4,0.7-3.9c0-0.2-0.1-0.5-0.1-0.8c-0.1-0.7-0.5-1.2-0.7-1.7c-0.2-0.4-0.4-0.7-0.5-1
	c0-0.1-0.1-0.2-0.1-0.2v-0.2c0-0.1,0-0.3,0-0.4c0-0.2,0.1-0.4,0.3-0.6c0.1-0.2,0.3-0.4,0.5-0.6c0.6-0.5,1.3-0.9,1.9-0.9l0,0
	c1.2,0,2.6,0.4,3.5,1.1c0.2,0.2,0.5,0.4,0.8,0.6l0.3,0.3l0.1,0.1l0,0v0.1C473.1,719.1,473,719.3,472.8,719.5z M479.9,703.7
	c-0.1,0.3-0.4,0.7-0.7,1.1c-0.4,0.4-0.8,0.9-1.1,1.5c-0.5,0.9-1.1,1.8-1.7,2.8c-0.5,0.8-0.6,1.5-0.9,2.3c-0.7,2.2-1.3,4.4-1.5,6.7
	c-0.2-0.2-0.3-0.3-0.5-0.5c-0.3-0.3-0.7-0.5-0.8-0.6c-1.2-0.9-2.8-1.4-4.3-1.3h-0.1c-0.4,0-0.8,0.2-1.3,0.3c0.4-0.5,0.8-0.9,1.1-1.2
	c2.7-3.1,3.6-7.2,3.5-11.2v-0.4c0-0.3-0.1-0.6-0.1-0.9c0-0.6,0-0.9,0.3-1.5c0.1-0.1,0.1-0.2,0.2-0.3c0.1-0.2,0.3-0.3,0.4-0.5
	c0.1-0.1,0.1-0.1,0.2-0.2c0.1-0.1,0.2-0.1,0.4-0.2c0.2-0.1,0.4-0.2,0.7-0.2h0.1c1.5,0,3.3,0.7,4.5,1.5c0.3,0.2,0.4,0.3,0.5,0.5
	l0.1,0.1c0.1,0.2,0.3,0.4,0.5,0.7c0,0,0,0,0,0.1c0.1,0.2,0.3,0.4,0.3,0.6c0.1,0.2,0.1,0.4,0.2,0.6L479.9,703.7z M492.2,673.5
	c-0.3,0.2-0.6,0.5-0.9,0.7c-0.2,0.1-0.3,0.2-0.4,0.3l-0.3,0.2c-0.7,0.7-1.3,1.4-1.9,2.2c-1.1,1.6-2,3.2-2.5,5.1
	c-0.9,2.8-1.6,5.6-2.1,8.4c-0.2,1.4-0.3,2.8-0.4,4.1s-0.4,2.5-1,3.6c-0.5,1.1-1.3,2.1-2,3.2h-0.1l0,0c-0.2-0.3-0.4-0.6-0.6-0.8
	c-0.2-0.3-0.5-0.6-0.8-0.8c-1.5-1-3.4-1.7-5.2-1.8h-0.3c-0.7,0-1.3,0.3-1.8,0.7l0,0c-0.2-0.2-0.4-0.4-0.5-0.5
	c-0.2-0.3-0.3-0.6-0.4-0.9v-0.4c0.1-0.5,0.4-1,0.7-1.5c0.9-1.6,1.7-3.1,2.6-4.7c0.8-1.3,1-2.7,1.4-4c1.2-3.3,2.5-6.6,3.9-9.8
	c0.9-2.1,1.6-4.4,2.8-6.2c0.5-0.8,1.2-1.6,1.9-2.2c0.1-0.1,0.2-0.2,0.4-0.3c0.2-0.1,0.3-0.3,0.5-0.5c0,0,0.1-0.1,0.2-0.1
	c0.2-0.1,0.3-0.2,0.4-0.3c0.1,0,0.1-0.1,0.2-0.1l0.2-0.1l0,0c1.6,0.3,3.1,1.1,4.1,2.3c0,0.1,0.1,0.1,0.1,0.2
	c0.5,0.5,0.8,1.1,1.1,1.7c0.2,0.3,0.3,0.7,0.4,1.1C492,672.7,492.1,673,492.2,673.5C492.2,673.4,492.2,673.4,492.2,673.5z
	 M496.1,671.3l-0.2,0.1l0,0c-0.3,0.2-0.6,0.3-1,0.3s-0.9,0-1.4-0.2c-0.2-0.1-0.3-0.2-0.5-0.2c-0.4-1.1-1-2.1-1.7-3
	c-1.3-1.4-3-2.4-4.9-2.8h-0.3c-0.3,0-0.6,0.2-0.9,0.3c-0.1,0.1-0.2,0.1-0.2,0.2c0-0.6,0-1.2,0.1-1.7c0.2-0.7,0.6-1.4,1.2-1.6
	c0.2-0.1,0.5-0.2,0.8-0.2c0.4,0,0.9,0,1.5,0c0.2,0,0.5,0,0.8,0h0.1h0.4c0.1,0,0.3-0.1,0.4-0.1c0.8-0.2,1.5-0.5,2.1-0.6h0.1
	c0.5,0,0.9,0.2,1.1,0.4l0.1,0.1l0.2,0.4c0.1,0.2,0.1,0.6,0.2,1.1c0,0.1,0,0.2,0.1,0.4c0,0.1,0.1,0.2,0.2,0.4
	c0.2,0.3,0.4,0.6,0.7,0.9c0.1,0.1,0.1,0.1,0.2,0.2c0,0.2,0.1,0.4,0.2,0.6c0,0.1,0.1,0.2,0.1,0.4c0.1,0.2,0.2,0.4,0.3,0.7
	c0.1,0.1,0.1,0.2,0.2,0.3c0.2,0.3,0.4,0.6,0.7,0.9c0.2,0.2,0.4,0.3,0.5,0.4h0.1c-0.1,0.2-0.1,0.3-0.2,0.5c-0.2,0.5-0.3,0.9-0.5,1.3
	C496.5,671,496.3,671.2,496.1,671.3z M497.4,705c1.3-1.3,2.3-2.8,3.2-4.4c0.9-1.8,1-3.6,1.1-5.5c0.1-1.4,0-2.9,0-4.3
	c-0.2-2.5-0.5-4.9-1.2-7.3c-0.6-2.3-1.6-4.3-2.1-6.4c-0.3-1.6-0.6-3.3-1.3-4.9c0.4-0.4,0.6-0.8,0.8-1.2c0.2-0.4,0.3-0.9,0.4-1.2
	c0.1-0.1,0.1-0.3,0.2-0.5c0,0,0.1,0,0.2,0.1c0.1,0,0.3,0.1,0.4,0.1c0.2,0.1,0.4,0.1,0.7,0.2c0.1,0,0.2,0.1,0.3,0.1
	c0.2,0,0.5,0.1,0.7,0.1c0,0,0.1,0,0.2,0c1.3,0.2,2.7,0.5,4.1,0.7c0.4,0,0.8,0.1,1.1,0c0.1,0,0.2,0,0.3,0c0,0,0.1,0,0.2,0
	c0.1,0.2,0.1,0.4,0.2,0.6c0.1,0.3,0.1,0.7,0.2,1.1c0.1,1.2-0.1,2.4-0.6,3.4c-0.2,0.4-0.6,0.9-0.9,1.5c-0.1,0.3-0.2,0.5-0.2,0.7v0.1
	c-0.1,0.1-0.1,0.2-0.1,0.3s-0.1,0.2-0.1,0.4c0,0.1-0.1,0.3-0.1,0.4v0.1c0,0.2,0,0.4-0.1,0.6v0.1l0,0c-0.1,1.1-0.1,2.2-0.1,3.3
	c0,0.5,0.1,1,0.1,1.4c0.1,0.7,0.1,1.4,0.2,2.1c0.1,1.6,0.1,3.3,0.2,5c0,0.5,0.1,1,0.1,1.6c0.3,2.9,0.6,5.8,1.5,8.6
	c0.1,0.3,0.2,0.7,0.3,1.1v0.1c0,0.1,0.1,0.2,0.1,0.3c0.2,0.4,0.3,0.8,0.4,1.1c0.1,0.2,0.1,0.5,0.2,0.7s0.1,0.5,0.1,0.7s0,0.3,0,0.5
	c-0.1,1.1-0.4,2-0.9,3.1c-0.2,0.4-0.4,0.8-0.6,1.2v0.1c-0.3,0.4-0.5,0.7-0.8,1l0,0c-0.3,0.3-0.6,0.6-1,0.8l0,0
	c-0.1,0-0.2,0.1-0.2,0.1c-0.2-0.2-0.4-0.4-0.6-0.5c-0.9-0.7-1.8-1.4-2.9-2c-1-0.5-2.1-0.8-3.2-0.7h-0.4c-0.3,0-0.5,0.1-0.7,0.2
	c-0.1-0.5-0.2-1.1-0.3-1.6C496.3,707,496.6,705.8,497.4,705z M506.3,684.6c-0.1-0.4-0.1-0.8-0.1-1.2c0.3,0.7,0.5,1.5,0.7,2.3
	c0.3,1.3,0.5,2.6,0.6,3.9c0.1,1.4,0.1,2.8,0.1,4.4c0,1.4,0,2.9-0.2,4.3c-0.3-1.7-0.4-3.3-0.6-5.1c0-0.5-0.1-1-0.1-1.5
	c-0.1-1.6-0.1-3.3-0.2-5C506.4,686,506.4,685.3,506.3,684.6z M493.5,735.6c1.1-1.7,1.3-3.4,1.8-5c0.8-2.5,1-5.1,0.9-7.6
	c-0.2-2.4-0.7-4.7-1.4-7c-0.1-0.2-0.1-0.4-0.1-0.7c-0.1-0.9,0.2-1.9,0.8-2.8c0.1-0.2,0.3-0.4,0.5-0.6c0.2-0.2,0.3-0.3,0.5-0.5
	c0.2-0.1,0.4-0.3,0.6-0.3c0.2-0.1,0.4-0.1,0.6-0.2h0.3c0.8-0.1,1.7,0.2,2.5,0.6c0.9,0.5,1.8,1.1,2.6,1.8c0.1,0,0.1,0.1,0.2,0.1
	l0.1,0.1c-0.1,0.1-0.2,0.3-0.1,0.5c0,0,0,0,0,0.1c0,0.2,0.1,0.4,0.2,0.6c0.2,0.4,0.4,0.8,0.7,1.1c0.2,0.2,0.3,0.3,0.4,0.4
	c-0.2,0.8-0.6,1.7-1,2.5c-1.6,3.3-2.5,6.8-3.4,10.2c-0.7,2.5-1.3,5.1-1.7,7.7c0,0.2-0.1,0.4-0.1,0.6c-0.1,0.7-0.2,1.6-0.4,2.3
	c-0.1,0.3-0.2,0.5-0.3,0.7c-0.1-0.2-0.2-0.5-0.3-0.6c-0.2-0.2-0.4-0.4-0.7-0.5c-1.3-0.8-2.5-1.7-3.8-2.5c-0.1-0.1-0.2-0.1-0.3-0.1
	C493,736.4,493.3,736,493.5,735.6z M480.8,746.9l0.3-0.2l0.3,0.1l0,0c1.6-0.1,2.9-1,3.9-2c2-2,3.1-4.5,5-6c0.2-0.2,0.4-0.3,0.6-0.5
	s0.4-0.3,0.6-0.3c0.2-0.1,0.3-0.1,0.4-0.1s0.2,0,0.3,0.1c0.1,0,0.1,0,0.2,0c1.3,0.8,2.5,1.7,3.8,2.5c0.2,0.1,0.3,0.2,0.4,0.3
	l0.1,0.1l0,0c0,0.2-0.1,0.4-0.2,0.6c-0.1,0.1-0.1,0.2-0.2,0.3s-0.2,0.1-0.2,0.2c-0.1,0.1-0.2,0.2-0.3,0.2l-0.1,0.1
	c-0.1,0.1-0.2,0.1-0.2,0.1c-0.2,0.1-0.4,0.2-0.6,0.3c-1,0.5-2.3,0.8-3.3,1.8c-0.4,0.3-0.7,0.6-1.1,0.9l0,0c-1.8,1.5-3.9,2.7-6,4
	c0-0.2-0.2-0.4-0.3-0.5c-0.1-0.1-0.3-0.2-0.4-0.3c-0.3-0.3-0.7-0.5-0.9-0.6l-0.1-0.1c-0.3-0.3-0.7-0.4-1-0.5s-0.5-0.2-0.7-0.3
	C481,747.1,480.9,747,480.8,746.9L480.8,746.9z M478.8,750.9c-0.3,0.1-0.7,0.1-1.1,0.1l0,0c-0.2,0-0.3,0-0.5,0h-0.4
	c-0.3,0-0.7,0-1,0h-0.1h-0.5c-0.2-0.2-0.3-0.5-0.3-0.8l0,0c0-0.2,0-0.3,0.1-0.4l0.2-0.1c0.1,0,0.3-0.1,0.6-0.1h0.5
	c0.2,0,0.3,0,0.5,0c0.9-0.2,1.7-0.5,2.5-0.9c0.2-0.1,0.4-0.2,0.5-0.3s0.2-0.1,0.3-0.1h0.2h0.1h0.1c0.3,0.2,0.6,0.3,0.8,0.3h0.1
	c0.2,0.1,0.4,0.1,0.5,0.2l0.3,0.3c0.3,0.2,0.6,0.3,0.8,0.5l0.2,0.2c-0.1,0-0.1,0.1-0.2,0.1h-0.1l0,0c-0.3,0.1-0.5,0.1-0.8,0.2
	c-0.3,0.1-0.6,0.2-0.8,0.2c-0.1,0-0.2,0.1-0.3,0.1C480.1,750.7,479.4,750.8,478.8,750.9z M495.4,749.1c0,0.2-0.1,0.3-0.3,0.5
	c-0.2,0.2-0.4,0.4-0.7,0.6c-0.2,0.1-0.6,0.2-1,0.2h-0.8c-2.6,0.3-5.3,0.6-7.9,1c-1.4,0.2-2.7,0.6-4,0.7c-0.4,0-0.8,0-1.2,0h-0.1
	c0.5-0.1,1.1-0.2,1.6-0.3c0.6-0.2,1.2-0.4,1.8-0.5l0,0c0.2,0,0.4,0.1,0.6,0.1c0.4,0,0.8-0.2,1.2-0.4l0,0c2-1.3,4.2-2.6,6.1-4.1l0,0
	c0.9,0.3,1.8,0.5,2.8,0.6c0.1,0,0.2,0,0.3,0l0,0l0.1,0.2l0.2,0.2h0.1l0.4,0.3c0.1,0.1,0.2,0.1,0.3,0.2l0,0l0,0h0.1v0.1
	c0.1,0.2,0.1,0.4,0.2,0.6L495.4,749.1z M495.1,745.9c-0.1,0.1-0.3,0.2-0.6,0.2h-0.2h-0.1c-0.1,0-0.2,0-0.3,0l0,0
	c-0.5-0.1-1-0.1-1.4-0.3c-0.1,0-0.2,0-0.3-0.1c0.1-0.1,0.1-0.1,0.2-0.2c0.7-0.7,1.8-1,3-1.6c0.3-0.2,0.6-0.3,0.9-0.6
	c0.1,0,0.1-0.1,0.2-0.1c0.2-0.1,0.3-0.3,0.5-0.4l0,0l0,0h0.1h0.2c0.4-0.1,0.8-0.4,1.1-0.7c0.1-0.1,0.2-0.3,0.3-0.5
	c0.2-0.4,0.4-0.8,0.6-1.2c0.1-0.4,0.2-0.9,0.3-1.3c0.2-0.9,0.3-1.7,0.3-2.2c0.4-2.6,1-5.1,1.7-7.6c0.2-0.7,0.4-1.4,0.6-2.1
	c0.2-0.6,0.3-1.2,0.5-1.8c0.2-0.7,0.4-1.4,0.6-2.1c0-0.1,0.1-0.3,0.2-0.4c0.1-0.4,0.3-0.9,0.4-1.3c0.3-0.8,0.6-1.6,1-2.4l0,0
	c0.2-0.4,0.4-0.8,0.6-1.3c0,0,0-0.1,0.1-0.1c0.1-0.3,0.2-0.5,0.3-0.8c0-0.1,0.1-0.3,0.1-0.4l0,0h0.1c0.2,0,0.4,0.1,0.6,0.2
	c1.2,0.3,2.2,0.9,3.2,1.6c0.2,0.2,0.5,0.4,0.7,0.6c0,0.1,0.1,0.1,0.2,0.2c0.2,0.2,0.5,0.5,0.7,0.8c0,0,0.1,0.1,0.1,0.3l0,0v0.1
	c0,0.2,0,0.3,0,0.5v0.1c-0.1,0.3-0.3,0.7-0.5,1.1c-1.6,2.8-3.1,5.6-4.7,8.3c-1.5,2.7-3.5,5.1-5.2,7.9c-0.4,0.7-0.8,1.3-1.2,1.9
	c-0.2,0.3-0.4,0.6-0.6,0.9c-0.2,0.3-0.4,0.6-0.7,0.8c0,0.1-0.1,0.1-0.2,0.2c-0.8,0.9-1.9,1.8-2.6,3
	C495.5,745.6,495.3,745.8,495.1,745.9z M514.1,719.8h0.3h0.1c1.1,0.8,2,1.7,2.3,2.7c0,0.2,0.1,0.4,0.1,0.6c0.1,1.1-0.4,2.3-0.9,3.5
	c-1.9,4.4-5.1,8-8.3,11.7c-2.7,3-5.5,6.1-8.6,8.5c-0.4,0.3-0.8,0.6-1.2,0.7h-0.3c-0.4,0-1-0.1-1.6-0.3l-0.3-0.1l0,0
	c0.1,0,0.2-0.1,0.3-0.1c0.4-0.3,0.6-0.6,0.9-1c0.6-1,1.7-1.9,2.7-3c0.6-0.6,1-1.3,1.4-1.9c0.4-0.6,0.8-1.3,1.2-1.9
	c0.4-0.7,0.8-1.3,1.3-2c1.3-1.9,2.8-3.9,4-6c1.5-2.8,3.1-5.6,4.7-8.3c0.2-0.4,0.5-0.9,0.6-1.5c0.1-0.3,0.1-0.6,0.1-1v-0.1
	c0-0.1,0-0.2-0.1-0.4c0-0.2-0.1-0.3-0.2-0.5l0,0l0,0l-0.1-0.1C512.8,719.5,513.4,719.8,514.1,719.8z M516.9,705.9
	c0,2.6-1.4,4.7-2.3,7.5c-0.2,0.9-0.5,1.7-0.9,2.3c-0.3,0.4-0.5,0.9-0.6,1.2c-0.2,0.3-0.3,0.5-0.6,0.7c-0.1,0.1-0.3,0.1-0.4,0.2
	c-0.3,0.1-0.6,0.2-0.9,0.2c-1.3-1.3-3.1-2.2-4.9-2.5c-0.1,0-0.1,0-0.2,0s-0.3,0-0.4,0c-0.1-0.1-0.2-0.2-0.3-0.3
	c-0.1,0-0.1-0.1-0.2-0.1c-0.2-0.2-0.4-0.4-0.5-0.7l0,0c0.1,0,0.1-0.1,0.2-0.1c0.2-0.1,0.4-0.2,0.6-0.3c0,0,0,0,0.1,0l0,0
	c0.4-0.3,0.8-0.6,1.1-1c0,0,0,0,0.1-0.1c0.3-0.4,0.6-0.8,0.9-1.2c0,0,0-0.1,0.1-0.1c0.1-0.1,0.2-0.3,0.2-0.4
	c0.1-0.1,0.1-0.1,0.1-0.2v-0.1l0,0c0.1-0.2,0.2-0.4,0.3-0.6l0,0c0.5-1.1,0.9-2.2,1-3.5c0-0.2,0-0.5,0-0.7c-0.1-0.7-0.2-1.4-0.5-2.1
	c-0.2-0.4-0.3-0.8-0.5-1.2l0,0c-0.1-0.3-0.2-0.6-0.2-0.9c0.5-2.6,0.7-5.2,0.7-7.8c0-1.5,0-3-0.1-4.4s-0.3-2.8-0.7-4.2
	c-0.5-1.9-1.1-3.6-1.9-5.2l0,0c0.1-0.6,0.2-1.2,0.3-1.7c0-0.2,0.1-0.3,0.2-0.5c0.2-0.4,0.6-0.9,0.9-1.5c0.6-1.3,0.8-2.7,0.7-4
	c0-0.5-0.1-0.9-0.2-1.4c-0.1-0.3-0.2-0.6-0.3-0.8l0,0c0,0,0.1,0,0.1-0.1s0.1-0.1,0.2-0.2c0.2-0.2,0.4-0.5,0.5-0.8
	c0-0.1,0-0.1,0.1-0.2l0,0l0,0c0.9,0.3,1.8,0.7,2.8,1c0.9,0.3,1.8,0.5,2.8,0.5l0,0c0.2,0.5,0.3,1.2,0.4,1.8v0.1
	c0.2,2.5,0.3,5,0.5,7.5c0.1,2.1,0,4.1,0.1,6.3c0,0.6,0.1,1.2,0.2,1.7c0.5,3.1,0.6,6.2,0.9,9.4l0.2,2.4c0,0.5,0.1,1.1,0.1,1.6
	c0.2,1.3,0.4,2.5,0.5,3.8C516.9,705.3,517,705.6,516.9,705.9z M514.3,666c0.1,0.2,0.3,0.3,0.5,0.3c0.1,0.4,0.1,0.8,0.2,1.3
	c0,0.4,0,0.9,0,1.3c-0.2,0.1-0.4,0.1-0.6,0.1h-0.1c-0.8,0.1-1.7-0.2-2.5-0.4l0,0c-1-0.3-1.9-0.7-2.9-1.1c0-0.4-0.2-0.8-0.6-1.2
	c-0.7-0.7-1.6-0.9-2.4-1.2c-0.9-0.3-1.8-0.6-2.8-0.8c0.2-1.2,0.4-2.4,0.5-3.5c0.1-0.4,0.1-0.8,0.2-1.2s0.2-0.7,0.4-1
	c0.4-0.6,1.1-1.1,1.9-1.7c0.4-0.3,0.8-0.7,1.1-1.2l0,0c0.4,0.4,0.7,0.8,1.2,1.2l0,0c-0.1,0.2-0.1,0.4-0.1,0.6v0.1l0,0
	c0,0.5,0.2,0.9,0.5,1.2c0.2,0.3,0.5,0.6,0.8,0.8C511.5,661.5,513.1,663.6,514.3,666z M512.6,490.3c0,1.3-0.3,2.6-1.1,3.5
	c-0.5,0.6-1.3,1.1-1.7,2.2c-0.4,1-0.7,2-0.9,3c-0.8,3.4-0.8,6.7-0.5,10c0.1,1,0.1,2,0.2,3c0.2,2,0.3,4,0.4,5.9
	c0.2,3.4,0.4,6.9,0.6,10.3l0.1,1.7c0.3,4.4,0.9,8.8,1.4,13.1s0.8,8.7,1.3,13c0.5,4.7,1.3,9.4,1.6,14.1c0.1,1.1,0.1,2.1,0.1,3.2
	c0,6,0.1,12.1,0.3,18.1s0.2,12,0,18c-0.1,5.9-0.1,11.8-0.7,17.6c-0.3,3.2,0,6.3,0.1,9.4c0,0.2,0,0.3,0,0.5c0.1,2,0.4,4,0.7,6
	c0.3,1.6,0.9,3.3,1,4.8c0,0.4,0,0.7,0,1c-0.1,0.8-0.5,1.5-1,2.4c-0.4,0.9-0.6,1.8-1,2.4c-0.3,0.6-1.2,1.2-2.1,1.7
	c-0.8,0.4-1.7,0.7-2.4,1c-0.6-0.5-1.1-1-1.6-1.6c-0.8-0.9-1.6-1.9-2.3-3l0,0c-0.3-0.4-0.6-0.9-0.8-1.3l-0.1-0.1
	c-0.1-0.2-0.2-0.4-0.3-0.6c-0.1-0.3-0.2-0.5-0.3-0.8c0-0.1-0.1-0.2-0.1-0.3s0-0.1,0-0.2c-0.1-0.3-0.1-0.5-0.2-0.8
	c0-0.7,0.1-1.4,0.1-2.2c0.1-1.4,0.2-2.4,0.8-3.7c1-2.1,1.1-4.2,1.3-6.3c0.1-1.1,0.2-2.2,0.3-3.2c0.2-1.6,0.3-3.1,0.5-4.7
	c0.2-2.3,0.5-4.7,0.8-7c0.5-4.4,0.4-8.8,0.3-13.1c0-3.7,0.8-7.2,0.8-11.1c0.1-7.9-0.1-15.8-0.6-23.7c-0.1-1.1-0.2-2.1-0.2-3.2
	c-0.7-9.1-1-18.5-2.8-27.6c-1.1-5.4-2.3-10.8-3.6-16.1c0-0.1-0.1-0.2-0.1-0.3l0,0c-0.4-1.5-0.8-3-1.2-4.5c-0.2-0.9-0.5-1.9-0.7-2.8
	c-0.1-0.6-0.2-1.1-0.2-1.7c-0.1-1.7,0.2-3.5,0.6-5.2c0,0,0,0,0-0.1c0.2-0.9,0.4-1.8,0.7-2.8c0.5-2,1-3.9,1.5-5.9
	c0.2-0.8,0.3-1.7,0.3-2.6c-0.1-1.5-0.7-3.1-2-4.2c-0.1-0.1-0.2-0.1-0.2-0.2c-0.3-0.2-0.5-0.4-0.6-0.6s-0.2-0.4-0.2-0.7
	c0-0.1,0-0.2,0-0.3c0-0.1,0-0.1,0-0.2c0.1-0.7,0.2-1.1,0.4-1.3c1.4-1.6,3.1-2.9,5-3.8c0.1,0,0.1-0.1,0.2-0.1
	c0.9-0.4,1.9-0.8,2.7-0.9h0.1c0.3,0,0.6,0,0.9,0.1c0.8,0.1,1.6,0.4,2.4,0.7c0.7,0.2,1.3,0.5,1.6,1c0.3,0.3,0.4,0.8,0.4,1.3
	L512.6,490.3z M499.7,503.9c0-0.1,0-0.2,0-0.4c0.2-1.4,0.5-2.7,0.6-4.2c0-0.4,0-0.9,0-1.4c0.2,0.4,0.3,0.9,0.3,1.4
	c0,0.4,0,0.7,0,1.1s-0.1,0.7-0.2,1.1C500.2,502.3,500,503.1,499.7,503.9z"/>
<path class="st0" d="M135.2,488.2c-0.3,0.5-0.5,1.2-0.5,1.8v0.4c0,1.1,0.2,2.3,0.7,3.3c0.2,0.4,0.4,0.7,0.7,1
	c0.2,0.2,0.3,0.4,0.5,0.5c0.1,0.2,0.3,0.3,0.4,0.4c0.1,0.1,0.2,0.3,0.3,0.4s0.2,0.3,0.2,0.4c0.2,0.4,0.3,0.9,0.5,1.3
	c0.1,0.5,0.3,1,0.4,1.4c0.2,0.8,0.3,1.6,0.4,2.4c0.2,1.6,0.2,3.2,0.2,4.8c0,0.8,0,1.6-0.1,2.4c0,0.5-0.1,1-0.1,1.5s-0.1,1-0.1,1.5
	c-0.1,0.7-0.1,1.3-0.1,2c-0.1,1.3-0.2,2.6-0.3,4c-0.1,2.3-0.3,4.6-0.4,6.9c-0.1,1.1-0.1,2.3-0.2,3.4l-0.1,1.7
	c-0.3,3.8-0.8,7.6-1.2,11.4c-0.1,0.5-0.1,1.1-0.2,1.6c-0.2,2.2-0.4,4.3-0.7,6.5c-0.2,2.2-0.4,4.3-0.6,6.5c-0.1,0.6-0.1,1.2-0.2,1.7
	c-0.2,1.7-0.4,3.5-0.7,5.3c-0.1,1.2-0.3,2.4-0.4,3.5c-0.1,1.2-0.2,2.4-0.3,3.6c0,0.5,0,1.1-0.1,1.6c0,0.5-0.1,1.1-0.1,1.6
	c0,3-0.1,6-0.1,9c-0.1,3-0.1,6-0.2,9c-0.1,1.5-0.1,3-0.1,4.5c-0.1,3,0,6,0,9c0,1.5,0.1,3,0.1,4.5c0.1,4.4,0.1,8.8,0.4,13.3
	c0.1,1.5,0.2,2.9,0.4,4.4s0.2,3,0.1,4.6c0,0.8-0.1,1.5-0.1,2.3s-0.1,1.5-0.1,2.3v0.5c-0.1,1-0.2,2-0.3,2.9c-0.1,1-0.3,1.9-0.4,2.9
	c-0.1,0.4-0.1,0.7-0.2,1.1c-0.2,0.8-0.4,1.6-0.6,2.5c-0.1,0.4-0.2,0.9-0.2,1.3c0,0.2,0,0.4,0,0.7c0,0.2,0,0.4,0.1,0.7
	c0,0.1,0.1,0.3,0.1,0.4c0.2,0.8,0.5,1.5,0.9,2.1c0.1,0.1,0.1,0.2,0.2,0.3c0.1,0.2,0.2,0.3,0.2,0.5c0.1,0.2,0.1,0.4,0.2,0.6
	c0.1,0.2,0.1,0.4,0.2,0.6c0.1,0.2,0.2,0.4,0.3,0.6c0.1,0.2,0.3,0.5,0.5,0.7c0.6,0.6,1.3,1.1,2.1,1.5c0.4,0.2,0.8,0.4,1.2,0.5
	c0.4,0.2,0.8,0.3,1.2,0.4h0.1c0.1,0.2,0.1,0.3,0.1,0.4c0,0.2-0.1,0.3-0.3,0.5c-0.1,0.2-0.4,0.4-0.6,0.7c-1.5,1.4-2.9,3.1-4,4.8
	c-0.1-0.2-0.2-0.3-0.5-0.4c-0.3-0.1-0.6,0.2-0.7,0.5c-0.4,1.2-0.6,2.5-0.7,3.8c0,0.6,0,1.2,0,1.9c0,0.2,0.1,0.4,0.3,0.6
	c0.1,0.1,0.3,0.1,0.5,0.2c-0.2,0.7-0.3,1.4-0.3,2v0.1c-0.2,2.5-0.3,5-0.5,7.5c-0.1,2.2,0,4.3-0.1,6.3c0,0.5-0.1,1.1-0.2,1.6
	c-0.5,3.2-0.6,6.4-0.9,9.5l-0.2,2.5c0,0.5-0.1,1-0.1,1.5c-0.1,1.3-0.4,2.5-0.5,3.8c0,0.4,0,0.7,0,1.1c0.1,3.1,1.6,5.3,2.3,7.8
	c0.3,0.9,0.5,1.8,1.1,2.6c0.2,0.3,0.4,0.6,0.6,1.1c0.2,0.3,0.4,0.6,0.7,0.9c-0.2,0.1-0.4,0.1-0.6,0.1h-0.2h-0.2
	c-0.2,0-0.3,0-0.5,0.1c-1.2,0.9-2.5,1.9-3,3.6c-0.1,0.3-0.1,0.6-0.1,0.9c-0.1,1.5,0.5,2.9,1,4.1c2,4.6,5.3,8.4,8.5,12
	c2.7,3,5.5,6.2,8.8,8.7c0.4,0.3,0.9,0.7,1.6,0.9c0.2,0,0.4,0.1,0.6,0.1c0.3,0,0.6,0,0.9-0.1v0.1v0.4l0,0c0.1,0.5,0.3,0.9,0.6,1.2
	s0.6,0.5,0.9,0.7c0.6,0.4,1.2,0.4,1.7,0.4h0.7c2.6,0.3,5.2,0.6,7.8,1c1.2,0.2,2.6,0.6,4.1,0.8c0.5,0,0.9,0,1.4-0.1
	c0.3,0,0.7-0.1,1.1-0.3c0.3-0.2,0.7-0.4,0.9-0.8h0.5c0.4,0,0.7,0,1.1,0h0.3c0.2,0,0.4,0,0.7,0c0.1,0,0.2,0,0.4-0.2
	c0.5-0.5,0.8-1.1,0.8-1.8l0,0l0,0v-0.1c0-0.3,0-0.7-0.2-1.1c-0.2-0.4-0.6-0.6-0.9-0.7c-0.3-0.1-0.6-0.1-0.9-0.1h-0.5h-0.3
	c-0.8-0.2-1.5-0.4-2.1-0.8c-0.2-0.1-0.5-0.3-0.9-0.5c-0.1-0.5-0.3-1-0.8-1.3L168,745c-0.1-0.1-0.3-0.2-0.6-0.2c-0.1,0-0.3,0-0.4,0.1
	c-1.1-0.1-2.1-0.7-2.9-1.6c-1.7-1.7-2.9-4.3-5.1-6.1c-0.5-0.4-1-0.8-1.7-1.1c-0.4-0.7-0.9-1.3-1.3-1.8c-0.9-1.4-1.1-2.9-1.6-4.7
	c-0.8-2.4-1-4.7-0.8-7.1c0.1-2.2,0.6-4.5,1.4-6.7c0.1-0.3,0.2-0.7,0.2-1c0.1-1.2-0.3-2.5-1-3.6c-0.3-0.5-0.7-0.9-1.1-1.2
	c0.2-0.7,0.4-1.4,0.4-2.2c0.1-1.5-0.2-3.1-1.3-4.3c-1.2-1.2-2.2-2.6-2.9-4.1c-0.8-1.5-0.9-3.1-1-4.9c-0.1-1.4-0.1-2.8,0-4.2
	c0.2-2.4,0.5-4.7,1.1-7c0.6-2.1,1.6-4.1,2.1-6.5c0.3-1.6,0.6-3.1,1.1-4.5c0.3,0.1,0.6,0.2,0.9,0.2c0.5,0,1-0.1,1.5-0.2
	c0,0.2-0.1,0.4-0.1,0.6l0,0c0,0.3,0.1,0.3,0.1,0.4l0.1,0.1l0.2,0.2c0.1,0.1,0.3,0.2,0.4,0.4c0.3,0.2,0.7,0.5,1,0.8
	c0.2,0.1,0.4,0.3,0.4,0.3l0,0c0.6,0.6,1.2,1.3,1.7,2.1c1,1.5,1.8,3,2.3,4.7c0.8,2.7,1.6,5.5,2.1,8.3c0.2,1.3,0.2,2.6,0.4,4
	c0.1,1.3,0.4,2.7,1.1,4.1c0.7,1.3,1.5,2.5,2.3,3.6c0.1,0.1,0.2,0.2,0.4,0.3c-0.1,0.2-0.1,0.4-0.1,0.6c0,0.3,0,0.5,0.1,0.8
	c0.2,0.7,0.6,1.2,1,1.7c0.4,0.4,0.7,0.8,0.9,1.2c0.5,1,1.2,1.9,1.8,2.8c0.4,0.6,0.5,1.1,0.7,2c0.7,2.2,1.3,4.3,1.5,6.5
	c0,0.5,0.1,1.1,0.3,1.6c0.2,0.6,0.5,1.2,1.1,1.5c0.4,0.2,0.8,0.3,1.2,0.3c0.1,0,0.2,0,0.3,0c0.8,0.8,1.4,1.6,1.9,2.6
	c0.3,0.6,0.3,1.2,0.4,1.9c0.1,0.7,0.2,1.5,0.6,2.3c0.2,0.4,0.5,0.8,0.8,1.1s0.8,0.5,1.3,0.6c0.4,0,0.8-0.1,1.2-0.3
	c0.8-0.5,1.2-1.2,1.2-2c0-0.3,0-0.6-0.1-0.9c-0.3-1.4-0.7-2.4-0.7-3.5c0-0.2,0.1-0.4,0.1-0.6c0.1-0.4,0.3-0.9,0.6-1.3
	c0.2-0.5,0.6-1,0.7-1.6l0.1-0.5c0-0.5-0.1-0.9-0.3-1.3v-0.1c0-1-0.5-1.8-1-2.6s-1.2-1.4-1.6-1.9c-2.4-2.8-3.2-6.5-3.2-10.3v-0.4
	c0-0.3,0.1-0.6,0.1-0.9c0-0.7,0-1.5-0.5-2.3c-0.1-0.1-0.2-0.3-0.3-0.4c0.3-0.2,0.5-0.5,0.7-0.7c0.3-0.4,0.6-1,0.6-1.6
	c0-0.3,0-0.6-0.1-0.9c-0.2-0.7-0.5-1.3-0.8-1.8c-0.9-1.6-1.8-3.1-2.6-4.7c-0.6-1.1-0.8-2.4-1.3-3.8c-1.2-3.3-2.5-6.6-3.9-9.9
	c-0.9-2.1-1.6-4.4-2.9-6.4c-0.6-0.9-1.3-1.8-2.1-2.5c-0.1-0.1-0.3-0.2-0.5-0.4c0-0.1,0-0.1,0-0.2l0,0c0-0.9,0.1-1.8-0.1-2.8
	c-0.3-1-0.8-2-1.9-2.5c-0.4-0.2-0.9-0.3-1.3-0.3c-0.5,0-1,0-1.4,0c-0.1-0.5-0.3-1-0.6-1.4c-0.4-0.5-0.8-0.9-1.1-1.2
	c-1.8-1.8-3.3-4-4.5-6.3c-0.6-1.2-1.6-1.9-2.6-2.6c-0.9-0.6-1.8-1.1-2.5-1.7c1.5-7.2,2.6-14.4,3.6-21.6c0.3-2.2,0.6-4.5,0.8-6.7
	s0.5-4.5,0.7-6.7c0.3-3,0.5-6,0.8-8.9c0.1-1.5,0.3-3,0.4-4.5c0.1-1.5,0.2-3,0.3-4.5c0.2-2.9,0.3-5.8,0.3-8.8c0-2,0-4,0.1-6
	c0-2,0.1-4,0.1-6c0.1-4,0.2-8,0.5-12c0-0.3,0.1-0.6,0.1-0.9l0.1-1.8c0.3-4.1,0.5-8.4,1.2-12.5c0.1-0.6,0.2-1.1,0.3-1.7
	c0.3-1.4,0.6-2.8,0.9-4.3c0.9-4.3,1.6-8.6,2.5-12.8c0.7-2.9,1.4-5.8,2.1-8.7c0.7-2.9,1.5-5.8,2.2-8.7c0.6-2.5,1.3-5,2-7.5
	c0.1-0.5,0.3-1,0.5-1.6c0.1-0.3,0.3-0.7,0.4-1c0.4-1,0.9-2,1.2-3.1c0.1-0.3,0.2-0.6,0.2-0.9c0.1-0.4,0.1-0.7,0.1-1
	c0-0.1,0-0.3,0-0.4c0.9-0.3,1.7-0.8,2.3-1.6c0.1-0.1,0.2-0.3,0.3-0.4c0.5-0.7,0.8-1.5,1-2.4c0.1-0.3,0.1-0.7,0.1-1
	c0-0.2,0-0.4,0-0.6c0-0.1,0-0.2,0-0.3c0.1,0,0.2,0,0.3,0.1c0.1,0,0.2,0,0.3,0.1c0.4,0,0.8,0.1,1.1,0.1s0.6,0,0.6,0.1h0.3
	c0.8,0.1,1.7,0,2.6-0.1c0.3-0.1,0.6-0.1,0.9-0.2c0.3-0.1,0.6-0.2,0.8-0.4c0.5-0.3,1-0.8,1.4-1.3c0.2-0.2,0.4-0.5,0.6-0.8
	c0.7-1.1,1.3-2.3,1.6-3.1c0.2-0.3,0.3-0.7,0.4-1.1c0.4-1.1,0.7-2.2,0.7-3.4c0-0.2,0-0.4,0-0.7c0-0.2,0-0.3,0-0.5
	c-0.1-1-0.3-2-0.7-2.9c-0.1-0.2-0.1-0.3-0.2-0.5c-0.2-0.3-0.3-0.6-0.5-0.9c-0.5-0.7-1-1.2-1.5-1.7c-0.1-0.1-0.2-0.2-0.3-0.3
	c-0.4-0.5-0.8-1-1.1-1.5c-0.8-1.2-1.4-2.5-2-3.9c-0.3-0.8-0.6-1.6-1-2.4c-0.2-0.4-0.3-0.8-0.5-1.2c-0.8-1.8-1.4-3.7-2-5.6
	s-1-3.8-1.4-5.7c-0.2-1-0.4-1.9-0.5-2.9c-0.4-2.9-0.7-5.8-0.8-8.8c-0.1-5.5,0-11,0.4-16.5c0.1-1.6,0.2-3.2,0.4-4.8
	c0.5-6.4,1.2-12.9,2-19.3c0.4-3.2,0.7-6.4,1.1-9.6c0.2-1.6,0.3-3.2,0.5-4.8c1.2-12.4,2.8-24.9,4.2-37.4c0.8-7.5,1.5-15,2-22.4v-0.4
	c0.1-2.2,0.3-4.4,0.5-6.7c0.3-3.9,0.7-7.8,1.1-11.7c1.3-11.6,3-23.2,5.2-34.7c1.1-5.7,2.4-11.3,4.6-16.6c0.3-0.7,0.6-1.3,0.9-1.9
	c0.3-0.6,0.7-1.3,1-1.9c0.3-0.6,0.7-1.2,1.1-1.8c0.4-0.6,0.8-1.2,1.2-1.8c0.2-0.3,0.5-0.6,0.8-0.9c0.5-0.6,1-1.1,1.6-1.6
	c0.3-0.3,0.6-0.5,0.9-0.8c0.8-0.6,2.1-1.1,3.1-1.9c0.3-0.2,0.5-0.5,0.7-0.8c0.7-0.9,1.1-2.1,1.3-3.3c0.1-0.4,0.2-0.8,0.2-1.2
	c1,0.9,1.9,1.9,2.8,2.9c0.2,0.3,0.5,0.5,0.7,0.8c0.1,0.1,0.2,0.2,0.2,0.3c0.6,0.7,0.9,1.2,1.2,1.7c0.1,0.2,0.1,0.3,0.2,0.5
	c0.2,0.5,0.2,1.1,0.3,1.9c0.2,1.9,0.2,4,1.1,6c0.9,1.8,2.5,2.8,3.9,3.7c1.7,1.2,3.3,2.5,4.9,3.8c0,0.7,0,1.5,0.2,2.2
	c-0.4,0.2-0.7,0.4-1,0.7c0.8-0.3,1.6-0.6,2.3-0.9c0-0.2-0.1-0.5-0.1-0.7c-0.1-0.6-0.1-1.2-0.1-1.9c0.1-1,0.3-2,0.7-3.1
	c1-2.6,2.7-5,4.8-6.7c0.2-0.5,0.4-1,0.6-1.6c-0.6-2.3,0.9-4.3,2.6-6.1c0.5-1.1,1-2.3,1.5-3.4c-0.1,0.1-0.2,0.2-0.3,0.3
	c-0.3,0.3-0.6,0.6-0.9,1c-2.2,2.3-5,5.1-4.1,8.6c-2.4,1.9-4.4,4.5-5.4,7.5c-0.3,0.9-0.5,1.7-0.6,2.5c-1.4-1.2-2.8-2.3-4.2-3.3
	s-2.8-1.9-3.4-3.2c-0.8-1.6-0.9-3.5-1-5.5c-0.1-1.1-0.2-2-0.6-2.8c-0.4-0.8-0.9-1.5-1.6-2.4c-1.4-1.6-2.8-3-4.3-4.4
	c0.1-0.6,0.1-1.2,0.2-1.6c0-0.3,0-0.5,0.1-0.8c0.1-0.8,0.1-1.7,0-2.5c0-0.2,0-0.3,0-0.5c-0.1-0.7-0.1-1.4-0.2-2.1c0-0.1,0-0.1,0-0.2
	v-0.1c-0.1-0.8-0.3-1.6-0.5-2.4l0,0l0,0l0,0c-0.1-0.4-0.3-0.8-0.4-1.2c-0.1-0.4-0.2-0.9-0.4-1.3l0,0c0.3-0.3,0.6-0.6,0.8-0.8
	c0.4-0.4,0.9-0.9,1.3-1.6c0.2-0.4,0.3-0.7,0.3-1.2c0-0.4,0-0.8-0.2-1.1v-0.1c-0.2-0.5-0.6-0.8-1-1c-0.3-0.2-0.7-0.3-1-0.4
	c-1.5-0.5-3-0.8-4.6-1l0,0c-1-1.2-2.2-2.4-3.4-3.5c-0.1-0.1-0.1-0.1-0.2-0.2c0.2,0,0.5,0,0.6,0s0.2,0,0.3,0.1c0.1,0,0.1,0.1,0.1,0.1
	l0,0c0.1,0.1,0.1,0.2,0.3,0.3c0,0,0.1,0.1,0.1,0.2l0.1,0.1c0.1,0.1,0.2,0.2,0.3,0.3l0,0c0.1,0,0.1,0.1,0.1,0.1
	c0.1,0,0.1,0.1,0.2,0.1c0.1,0.1,0.2,0.1,0.3,0.1c0,0,0,0,0.1,0c0.2,0.1,0.4,0.1,0.6,0.1l0,0c0.3,0,0.7,0,1,0
	c2.4-0.2,4.7-0.5,7.1-0.7c0.3,0,0.6-0.1,0.9-0.1c0.8-0.1,1.7-0.1,2.5-0.2c0.3,0,0.7,0,1-0.1c1.1-0.1,2.3-0.1,3.4-0.1
	c1.3,0,2.7,0,4.1,0c0.5,0,1,0,1.4,0.1c0.8,0,1.5,0.1,2.3,0.2c2.2,0.3,4.4,0.8,6.2,1.8c0.1,0.1,0.2,0.1,0.3,0.1s0.2,0,0.3-0.1l0,0
	c0.6-0.3,1.2-0.6,1.8-0.9c0.4-0.2,0.8-0.4,1.2-0.6c0.2-0.1,0.5-0.3,0.7-0.4c0.5-0.3,1-0.5,1.5-0.8c0.8-0.4,1.5-0.8,2.2-1.2
	c0.7,0,1.4,0.1,2,0.1c0.2,0,0.4,0,0.6,0c0.6,0,1.2-0.1,1.9-0.1c0.1,0,0.1,0,0.2,0c0.5-0.1,1-0.1,1.6-0.2c0.3-0.1,0.7-0.1,1-0.1
	c0.2-0.5,0.4-0.9,0.7-1.4c-0.6,0.1-1.2,0.2-1.9,0.3c-0.1,0-0.2,0-0.3,0c-1.9,0.3-3.7,0.4-5.6,0.2h-0.2l-0.4,0.1
	c-0.6,0.3-1.2,0.6-1.8,0.9c-1.5,0.8-2.9,1.6-4.4,2.3c-0.4,0.2-0.7,0.4-1.1,0.6c-0.2-0.1-0.4-0.1-0.5-0.2l0,0
	c-0.8-0.4-1.6-0.6-2.4-0.9c-0.3-0.1-0.5-0.1-0.8-0.2c-0.2,0-0.3-0.1-0.5-0.1c-0.1,0-0.3,0-0.4-0.1c-0.6-0.1-1.2-0.2-1.8-0.3
	c-0.7-0.1-1.5-0.2-2.3-0.2c-0.3,0-0.6,0-1,0c-1.6-0.1-3.2-0.1-4.7-0.1c-3.8,0-7.6,0.4-11.4,0.7c-1.3,0.1-2.5,0.2-3.8,0.4
	c-0.3,0-0.5,0-0.8,0s-0.5-0.1-0.6-0.2c-0.1-0.1-0.3-0.3-0.5-0.6c-0.1-0.1-0.1-0.1-0.2-0.2c0,0-0.1,0-0.1-0.1
	c-0.1-0.1-0.2-0.1-0.2-0.2c-0.1-0.1-0.2-0.1-0.3-0.1h-0.1c-0.2-0.1-0.4-0.1-0.6-0.1c-0.4,0-0.9,0-1.2,0.1c-0.4,0-0.7,0.1-0.9,0.1
	h-0.2l0,0c-0.1,0-0.1,0-0.2,0c-0.9-0.1-1.9-0.3-2.9-0.5c-1.5-0.4-3-0.9-4.6-1c-0.1,0-0.1,0-0.2,0c0.2-0.3,0.5-0.5,0.8-0.6l0.1-0.1
	c0.7-0.4,1.5-0.5,2.3-0.7c1.7-0.3,3.6-0.3,5.5-0.2c1,0.1,2,0.2,2.9,0.3c0.3,0,0.6-0.1,0.7-0.3c0.4-0.7,1-1.1,1.8-1.5
	c0.8-0.3,1.7-0.6,2.6-0.7c4.6-0.8,9.2-0.7,13.9-1.3c4.8-0.6,9.7-1.4,14.5-1.6c4.8-0.2,9.6-0.7,14.3-1.5c1-0.2,2.1-0.4,3.1-0.6
	c0.2-0.5,0.5-1,0.7-1.5c-1.3,0.3-2.6,0.5-4,0.7c-1.8,0.3-3.5,0.5-5.3,0.7s-3.6,0.4-5.3,0.5c-1.2,0.1-2.4,0.2-3.6,0.2
	c-4.9,0.2-9.8,1-14.6,1.6c-3.4,0.5-6.9,0.5-10.4,0.8c-1.2,0.1-2.4,0.3-3.5,0.5c-0.2,0-0.5,0.1-0.7,0.2c-0.7,0.2-1.5,0.3-2.2,0.7
	c-0.6,0.3-1.2,0.6-1.7,1.1c-0.2,0.2-0.3,0.3-0.4,0.5c-0.4-0.1-0.9-0.1-1.3-0.2c-0.4-0.1-0.9-0.1-1.3-0.1c-1-0.1-1.9-0.1-2.9,0
	c-1,0-1.9,0.1-2.8,0.3c-0.7,0.1-1.4,0.2-2.1,0.5c-0.2,0.1-0.5,0.2-0.7,0.3c-0.7,0.4-1.3,0.9-1.7,1.7c-0.3,0.1-0.6,0.2-0.9,0.3
	c-1.4,0.5-2.6,1.4-3.7,2.4c-0.5,0.5-1,1.1-1.4,1.7c-0.4,0.6-0.8,1.3-1.1,1.9c-1,0.3-1.7,0.7-2.3,1.3s-1.1,1.3-1.6,2.3
	c-1,1.8-2,3.6-2.9,5.4c-0.4,0.9-0.9,1.9-1.3,2.8s-0.7,1.9-1,2.9c-1.3,3.8-2,7.8-2.5,11.8c-0.2,2-0.4,4-0.5,6
	c-0.2,2.4-0.3,4.8-0.3,7.2c-0.2,7.6-0.2,15.3-0.3,22.9c0,2.5-0.1,5.1-0.2,7.6c0,1-0.1,1.9-0.2,2.9c-0.2,2.3-0.3,4.7-0.6,7
	c-0.7,7-1.6,14-2.3,21c-0.4,4.5-0.9,8.9-1.3,13.4c-0.4,4.5-0.8,9-1.1,13.5c-0.2,3.7-0.4,7.4-0.5,11.1c0,1.9-0.1,3.7-0.1,5.6
	s0,3.7,0,5.6c0,2.5,0,4.9-0.2,7.3c-0.1,1.1-0.2,2.1-0.2,3.2c-0.1,1.1-0.2,2.1-0.3,3.2c-0.3,3.2-0.8,6.3-1.2,9.5
	c-0.3,2.1-0.5,4.3-0.7,6.4c-0.1,1.1-0.2,2.2-0.3,3.2c-0.1,1.2-0.2,2.4-0.4,3.6c-0.1,1.2-0.3,2.4-0.5,3.6c-0.3,2.4-0.8,4.8-1.3,7.2
	c-0.3,1.2-0.5,2.4-0.8,3.6c-0.9,3.5-2,7-3.3,10.4c-0.9,2.4-1.9,4.9-2.8,7.3c-1,2.4-1.9,4.8-3,7.2c-1,2.4-2,4.8-3,7.2
	c-1,2.4-2.1,4.8-3.1,7.2c-2,4.4-3.4,9.1-4.3,13.8c-0.1,0.7-0.3,1.4-0.4,2c-0.1,0.9-0.2,1.7-0.3,2.6c-0.1,2.1,0,4.2,0.5,6.3
	c0.2,0.6,0.3,1.3,0.6,2c0.2,0.5,0.4,1,0.7,1.5c0.1,0.2,0.2,0.3,0.3,0.5c0.2,0.3,0.4,0.6,0.6,0.9c0.2,0.3,0.5,0.6,0.8,0.9
	c-0.2,0-0.3,0.1-0.5,0.1c-0.3,0.1-0.6,0.2-0.9,0.3c-0.6,0.2-1.2,0.5-1.7,0.9c-0.2,0.1-0.4,0.3-0.5,0.5
	C135.3,488,135.3,488.1,135.2,488.2z M205.9,217.4c-0.4,0.1-0.8,0.2-1.2,0.4c-0.1,0-0.2,0.1-0.3,0.1c-0.2-0.3-0.5-0.7-0.7-1
	C204.4,217,205.1,217.2,205.9,217.4z M206.6,220.8c-0.1,0.1-0.2,0.3-0.4,0.4c-0.2,0.2-0.4,0.5-0.7,0.7c-0.1,0.1-0.1,0.2-0.2,0.3
	c0,0.1,0,0.2,0.1,0.3l0,0c0,0,0,0,0,0.1c-0.1,0-0.1,0-0.1,0c-0.4,0-0.9,0.1-1.6,0.1c-0.7,0.1-1.4,0.1-1.9,0.1
	c-0.3,0-0.6-0.1-0.6-0.1c-0.3-0.3-0.6-0.6-0.8-0.9c-0.2-0.3-0.3-0.6-0.3-0.8l0.1-0.3c0.1-0.2,0.6-0.4,1.1-0.6
	c0.8-0.3,1.7-0.5,2.5-0.8c0.4-0.1,0.9-0.3,1.3-0.4c0.9-0.3,1.7-0.5,2.6-0.8l0.1,0.1c0.1,0.1,0.1,0.3,0.1,0.5s-0.1,0.4-0.2,0.7
	c-0.1,0.2-0.3,0.4-0.4,0.6C207.1,220.4,206.9,220.6,206.6,220.8z M169.1,490.8c-0.2-0.5-0.4-1-0.7-1.5c-0.3-0.7-0.7-1.5-1.1-2.2
	c-0.4-0.7-0.8-1.4-1.3-2.1c-0.4-0.7-1.1-1-1.8-1c-0.2,0-0.4,0-0.5,0c-0.3,0-0.5,0.1-0.8,0.2s-0.5,0.2-0.7,0.3
	c-0.3,0.2-0.6,0.3-0.9,0.5c-0.3,0.2-0.5,0.4-0.8,0.5c-0.5,0.4-0.9,0.8-1.4,1.2c-0.5,0.5-1.1,1-1.6,1.4c-0.4-0.2-0.8-0.3-1.2-0.3
	c-0.9-0.1-1.8,0.2-2.6,0.4c-0.8,0.2-1.6,0.4-2.2,0.3c-0.2,0-0.4,0-0.6-0.1c-0.6-0.2-1.2-0.5-1.9-0.9s-1.4-0.7-2.3-0.9l-0.5-0.1
	c-0.6,0-1.2,0-1.8,0c-0.2-0.1-0.4-0.2-0.7-0.3c-0.2-0.1-0.5-0.2-0.8-0.3c-0.5-0.2-1.1-0.3-1.7-0.4h-0.1c-0.2,0-0.4,0-0.7,0
	c-0.8-0.5-1.5-1.2-2-2.2c-0.7-1.1-1.1-2.5-1.4-3.7c-0.5-1.9-0.6-3.9-0.5-5.9c0.1-0.8,0.2-1.7,0.3-2.5c0.8-5.4,2.4-10.6,4.6-15.5
	c4.2-9.5,8.2-19.2,12-28.9c3.5-9.2,5.5-19,6.3-28.8c0.7-8.6,2.3-17,2.8-25.5c0.2-2.5,0.2-4.9,0.2-7.4c-0.1-7.4,0.1-14.8,0.6-22.2
	c0.6-9,1.5-17.9,2.4-26.8c0.9-9.3,2.2-18.6,2.9-28.1c0.1-1,0.1-1.9,0.2-2.9c0.5-10.2,0.2-20.4,0.6-30.5c0.1-2.4,0.2-4.8,0.3-7.2
	c0.5-8,1.7-15.8,5.2-23c0.9-1.8,1.8-3.6,2.8-5.4c0.6-1,1-1.6,1.4-2c0.5-0.4,1-0.7,2.1-1.1c0.2-0.1,0.3-0.2,0.4-0.4
	c1-2.6,3.3-4.7,5.9-5.6c0.1,0.1,0.3,0.2,0.4,0.1c0.4,0,0.8,0,1.2,0s0.7,0.1,1.1,0.1c1.1,0.2,2.1,0.5,3.3,0.8
	c0.5,0.1,1.1,0.3,1.6,0.4c0.4,0.1,0.9,0.1,1.3,0.2c0.2,0.1,0.4,0.3,0.6,0.4c0.2,0.1,0.3,0.2,0.5,0.4c0.1,0.1,0.2,0.2,0.3,0.3
	l0.1,0.1c0.3,0.3,0.6,0.5,0.9,0.8c0.1,0.1,0.1,0.1,0.2,0.2l0.1,0.1c0.4,0.3,0.7,0.7,1,1.1c0,0,0,0.1,0.1,0.1
	c0.2,0.2,0.3,0.4,0.5,0.6c0.2,0.2,0.4,0.4,0.6,0.6l0,0c0.2,0.3,0.4,0.5,0.7,0.8c0.3,0.4,0.5,0.7,0.8,1.1c-0.7,0.2-1.4,0.4-2.1,0.6
	c-0.1,0-0.3,0.1-0.5,0.2c-0.3,0.1-0.7,0.3-1,0.5c-0.2,0.1-0.3,0.3-0.4,0.5c-0.1,0.1-0.1,0.3-0.2,0.4c-0.1,0.1-0.1,0.3-0.1,0.4
	c0,0.1,0,0.2,0,0.2c0,0.4,0.1,0.7,0.3,1.1c0.1,0.1,0.1,0.2,0.2,0.4c0.2,0.2,0.3,0.5,0.5,0.7s0.4,0.4,0.6,0.6c0.3,0.3,0.7,0.4,1,0.4
	c0.1,0,0.2,0,0.4,0c0.3,0,0.7,0,1,0c0.4,0,0.7,0,1.1-0.1c0.3,0,0.7-0.1,0.9-0.1c0.3,0,0.5,0,0.6-0.1c0.2,0,0.3,0,0.5,0
	c0.1,0.3,0.2,0.6,0.3,1c0,0.2,0.1,0.3,0.1,0.5c0.2,0.6,0.3,1.2,0.4,1.9c0,0.1,0,0.2,0.1,0.3c0,0.1,0,0.2,0.1,0.3
	c0.1,0.6,0.2,1.2,0.2,1.8l0,0c0,0.2,0,0.4,0,0.6c0,0.8,0,1.6,0,2.4v0.4c0,0.1,0,0.3,0,0.4c0,0.6-0.1,1.2-0.2,1.9
	c-0.1,0.7-0.2,1.5-0.4,2.3c-0.3,1.5-0.9,2.8-1.7,3.4c-0.8,0.6-2,1.1-3.1,1.9c-1.3,1-2.5,2.2-3.5,3.5c-1.7,2.4-3.2,5-4.4,7.7
	c-2.3,5.4-3.6,11.2-4.7,16.9c-3.4,17.6-5.7,35.4-6.8,53.2v0.4c-1.3,19.8-4.2,39.8-6.1,59.8c-1.2,12.7-3.1,25.6-3.9,38.5
	c-0.4,5.5-0.5,11.1-0.4,16.6c0.2,8.1,1.7,15.9,4.8,23.4c1.4,3.2,2.4,6.5,4.8,9.4c0.8,1,1.7,1.7,2.1,2.6c0.5,1.1,0.8,2.1,0.8,3.3
	c0,0.2,0,0.4,0,0.6c-0.1,1.4-0.5,2.7-1.1,4c-0.4,0.8-0.9,1.9-1.5,2.9s-1.4,1.7-2.1,1.9c-0.9,0.3-2,0.3-3,0.3h-0.3
	c-0.2,0-1.5-0.1-2.3-0.3c-0.3,0-0.5-0.1-0.5-0.1l0,0l0,0c-0.1,0-0.2-0.1-0.2-0.1c-0.1,0-0.2,0-0.3,0s-0.2,0.1-0.2,0.1
	c-0.1,0-0.1,0.1-0.2,0.2l0,0c0,0.1-0.1,0.1-0.1,0.2s0,0.2,0,0.3c0.1,0.5,0.2,1,0.1,1.5c-0.1,1.1-0.5,2.3-1.1,3.1
	c-0.4,0.5-0.8,0.8-1.4,1c-0.1-0.7-0.3-1.4-0.5-2C169.5,491.6,169.3,491.2,169.1,490.8z M148,488.6c0.2,0.1,0.3,0.1,0.5,0.2
	s0.3,0.2,0.5,0.3c0.5,0.3,1,0.5,1.7,0.7c0.3,0.1,0.5,0.1,0.8,0.1c0.5,0,0.9,0,1.4-0.1c0.4-0.1,0.8-0.2,1.2-0.3
	c0.4-0.1,0.8-0.2,1.2-0.2c0.2,0,0.5,0,0.7,0c-0.7,0.3-1.4,0.7-2.1,1c-1,0.5-2,1-2.9,1.8c-0.1-0.4-0.2-0.7-0.5-1.1
	c-0.9-1-1.9-1.9-3-2.7C147.5,488.3,147.8,488.4,148,488.6z M147.3,647.8c-0.3,0-0.6,0-0.9,0.1c0-0.2,0-0.3,0.1-0.5v-0.2
	c0-0.4,0-0.8,0-1.2s-0.1-0.8-0.1-1.2s0-0.7-0.1-1.1c-0.1-0.7-0.2-1.4-0.4-2.1c-0.1-0.3-0.2-0.7-0.4-1.1c-0.2-0.5-0.4-0.9-0.5-1.4
	s-0.2-1-0.3-1.4c-0.2-1-0.2-2-0.4-3.1c-0.3-2.5-0.5-5-0.8-7.5c0-0.1,0-0.2,0-0.3c0.5-3.4,0.9-6.8,1.1-10.3c0.2-2.8,0.3-5.6,0.3-8.3
	c0.1-5.5,0.5-10.5,0.7-16c0.2-8.8-0.5-17.6-0.5-26.4c0-2.9,0.1-5.9,0.3-8.8c0.4-5.7,1-11.3,1.8-17c0.3-2.1,0.6-4.1,0.9-6.2
	c0.3-2.2,0.6-4.5,0.7-6.7c0-0.7,0.1-1.5,0.1-2.2c0.2-0.8,0.4-1.6,0.7-2.4c0.4-1.6,0.9-3.2,1.3-4.8c0.1-0.5,0.2-1,0.2-1.6
	c0-0.1,0-0.2,0-0.3c0-0.2,0-0.5,0-0.7c0-1.7-0.2-3.3-0.6-4.9c-0.2-0.8-0.4-1.7-0.6-2.5c0.2-0.8,0.3-1.5,0.3-2.3c0-0.6,0-1.3,0-2
	c-0.2-2-0.7-3.7-0.5-5.5c0-0.2,0-0.5,0.1-0.7c0.1-0.5,0.2-1,0.4-1.5l0,0c0.1-0.1,0.2-0.2,0.3-0.3c0.1-0.1,0.2-0.2,0.3-0.3
	c0.2-0.3,0.3-0.7,0.4-1c0-0.1,0-0.2,0.1-0.3c0.1-0.2,0.2-0.3,0.4-0.5c0.8-0.8,1.8-1.3,2.9-1.8c1.1-0.5,2.3-1,3.4-1.7l0,0
	c0.4-0.3,0.8-0.6,1.1-0.9c0.9-0.8,1.7-1.6,2.5-2.2c0.4-0.3,0.9-0.7,1.4-0.9c0.5-0.3,1-0.4,1.4-0.4c0.3,0,0.6,0.1,0.8,0.5
	c1.2,1.7,2.1,3.6,3,5.6c0.5,1,0.8,1.9,0.9,2.8c0.1,0.4,0.1,0.9,0.1,1.3c0,0.1,0,0.1,0,0.2c0,0.3-0.1,0.6-0.1,0.9
	c-0.4,2.2-1.7,4.1-2.3,6.5c-0.7,2.5-1.4,5-2,7.5c-1.5,5.8-3,11.6-4.4,17.4c-1.3,5.7-2.2,11.4-3.4,17c-1.1,4.7-1.2,9.7-1.6,14.4
	c-0.1,0.9-0.1,1.9-0.2,2.8c-0.5,8-0.6,16.1-0.7,24.1c0,2.9-0.1,5.8-0.3,8.7c-0.4,6-1,12-1.5,17.9
	C151.3,624.6,149.7,636.3,147.3,647.8z M144,557c-0.2,2.9-0.3,5.9-0.3,8.9c0,4.4,0.2,8.8,0.3,13.2c0,1.1,0.1,2.2,0.1,3.3
	c0.1,3.3,0.1,6.6,0.1,9.9c0,0.7-0.1,1.3-0.1,2c-0.2,4.7-0.5,9.2-0.6,14c0,1.4-0.1,2.7-0.1,4.1c-0.1,1.4-0.1,2.8-0.2,4.1
	c-0.1,1.6-0.2,3.2-0.4,4.8c-0.1-0.5-0.1-1.1-0.2-1.6c-0.1-1.1-0.2-2.1-0.3-3.2c-0.1-1.6-0.1-3.2-0.1-4.8s0-3.3,0.1-4.9
	c0-0.5,0-1-0.1-1.4c-0.1-1.4-0.2-2.8-0.3-4.2c-0.2-1.8-0.4-3.7-0.4-5.5c-0.1-5.9,0-11.8,0.3-17.7c0.1-2,0.2-3.9,0.3-5.9
	c0-0.4,0-0.7,0.1-1.1l0.1-2.1c0.3-4.3,0.6-8.6,0.9-12.9c0.1-1.4,0.2-2.9,0.4-4.3c0.2-2.3,0.5-4.6,0.9-6.8c0.2-1.1,0.4-2.2,0.6-3.3
	c0.5-2.4,1-4.8,1.5-7.1c-0.2,1.2-0.3,2.4-0.5,3.6c-0.1,0.7-0.2,1.4-0.3,2.1c-0.1,0.7-0.2,1.4-0.3,2.1C144.9,547.1,144.3,552,144,557
	z M158.7,661.2c-0.6-0.1-1.4-0.5-2.3-0.7h-0.2c-0.7,0-1.5,0.2-2.1,0.8c0,0,0,0,0,0.1l0,0c-0.3,0.2-0.5,0.5-0.5,0.9
	c-0.1,0.3-0.1,0.6-0.2,0.9c-0.1,0-0.1-0.1-0.2-0.1c-0.2-0.1-0.5-0.2-0.7-0.2s-0.4,0-0.6,0c-1.7,0.2-3.4,0.6-5.1,1.1
	c-0.2-1.1-0.3-2.2-0.5-3.4c-0.1-0.8-0.3-1.8-0.8-2.6c-0.6-1-1.5-1.5-2.2-2.1c-0.4-0.3-0.8-0.7-1-1.1l0,0c0.7-0.8,1.3-1.6,2-2.5l0,0
	c0.1-0.1,0.2-0.2,0.3-0.3c0,0,0-0.1,0.1-0.1l0,0c0.5-0.8,1-1.7,1.4-2.6l0,0l0,0c0.6,0,1.2,0,1.8-0.1c0.1,0,0.2,0,0.2,0l0,0
	c0.8,0.6,1.7,1.2,2.4,1.7c1,0.6,1.7,1.3,2.2,2.1c1.3,2.4,2.8,4.6,4.8,6.6c0.4,0.4,0.7,0.7,1,1.1C158.5,660.8,158.6,661,158.7,661.2z
	 M145.5,665.7c0.2-0.1,0.5-0.1,0.7-0.2c0.2-0.1,0.4-0.1,0.6-0.2c1.7-0.5,3.4-0.9,5.1-1.1h0.3c0,0.1,0,0.1,0,0.2
	c0,0.2-0.1,0.4-0.1,0.7v0.1c0,0.2-0.1,0.3-0.1,0.4c0,0.1-0.1,0.1-0.1,0.2v0.1c0,0.1-0.1,0.1-0.1,0.2c-0.1,0.2-0.1,0.3-0.2,0.5
	c0,0.1-0.1,0.2-0.1,0.3c-0.1,0.2-0.3,0.4-0.5,0.6c-0.2,0.2-0.5,0.4-0.8,0.5c-0.4,0.2-0.8,0.3-1.2,0.5c-0.1,0-0.2,0.1-0.3,0.1
	c-0.4,0.1-0.9,0.2-1.3,0.3c-1.4,0.2-2.7,0.5-4,0.7c-0.3,0-0.6,0-0.9,0c-0.3,0-0.5-0.1-0.6-0.2l0,0c-0.1-0.1-0.2-0.1-0.3-0.2l0,0
	c-0.1-0.1-0.2-0.3-0.3-0.5c0-0.1,0-0.1-0.1-0.2c-0.1-0.2-0.1-0.3-0.1-0.5c0-0.1,0-0.1,0-0.2v-0.1l0.1-0.3c0.5-0.4,1.2-0.7,2-0.9
	c0.5-0.2,1-0.3,1.5-0.5c0.1,0,0.1,0,0.2-0.1C145,665.9,145.2,665.8,145.5,665.7L145.5,665.7z M175.5,719L175.5,719L175.5,719
	l0.1-0.2l0.3-0.3c0.2-0.2,0.5-0.4,0.8-0.6c0.9-0.7,2.3-1.1,3.5-1.1l0,0c0.5,0,1.3,0.4,1.9,0.9c0.2,0.2,0.4,0.4,0.5,0.6
	c0.1,0.2,0.2,0.4,0.3,0.6c0,0.1,0.1,0.3,0,0.4v0.2c0,0.1-0.1,0.2-0.1,0.2c-0.1,0.3-0.3,0.6-0.5,1c-0.2,0.5-0.6,1-0.7,1.7
	c0,0.3-0.1,0.6-0.1,0.8c-0.1,1.5,0.4,2.6,0.7,3.9c0,0.2,0.1,0.3,0,0.5c0,0.4-0.2,0.7-0.6,1c-0.2,0.1-0.3,0.1-0.5,0.1
	c-0.1,0-0.3-0.1-0.5-0.2c-0.2-0.2-0.4-0.4-0.5-0.7c-0.3-0.6-0.4-1.2-0.5-1.9s-0.1-1.5-0.5-2.3s-0.9-1.6-1.5-2.2
	c-0.2-0.2-0.3-0.4-0.5-0.6c-0.2-0.2-0.4-0.4-0.6-0.6c-0.1-0.1-0.2-0.2-0.3-0.3c-0.2-0.2-0.5-0.4-0.7-0.7
	C175.5,719.3,175.5,719.1,175.5,719z M168.6,703.3c0-0.2,0.1-0.4,0.2-0.6c0.1-0.2,0.2-0.4,0.3-0.6c0,0,0,0,0-0.1
	c0.2-0.3,0.3-0.5,0.5-0.7l0.1-0.1c0.2-0.2,0.3-0.4,0.5-0.5c1.2-0.9,3-1.5,4.5-1.5h0.1c0.2,0,0.5,0.1,0.7,0.2
	c0.1,0.1,0.2,0.1,0.4,0.2c0.1,0.1,0.1,0.1,0.2,0.2c0.1,0.1,0.3,0.3,0.4,0.5c0.1,0.1,0.1,0.2,0.2,0.3c0.3,0.6,0.3,0.9,0.3,1.5
	c0,0.3-0.1,0.6-0.1,0.9v0.4c-0.1,3.9,0.8,8,3.5,11.2c0.3,0.3,0.7,0.8,1.1,1.2c-0.4-0.2-0.8-0.3-1.3-0.3h-0.1c-1.5,0-3.1,0.4-4.3,1.3
	c-0.2,0.1-0.5,0.4-0.8,0.6c-0.2,0.2-0.3,0.3-0.5,0.5c-0.2-2.3-0.8-4.5-1.5-6.7c-0.3-0.7-0.4-1.4-0.9-2.3c-0.6-1-1.2-1.8-1.7-2.8
	c-0.3-0.6-0.7-1-1.1-1.5c-0.4-0.4-0.6-0.8-0.7-1.1L168.6,703.3z M156.3,673.4c0-0.4,0.1-0.8,0.2-1.1c0.1-0.4,0.2-0.7,0.4-1.1
	c0.3-0.6,0.7-1.2,1.1-1.7c0.1-0.1,0.1-0.1,0.1-0.2c1.1-1.2,2.6-2,4.1-2.3l0,0l0.2,0.1c0.1,0,0.1,0.1,0.2,0.1
	c0.1,0.1,0.3,0.2,0.4,0.3c0.1,0.1,0.1,0.1,0.2,0.1c0.2,0.2,0.4,0.3,0.5,0.5c0.2,0.1,0.3,0.3,0.4,0.3c0.7,0.6,1.4,1.4,1.9,2.2
	c1.2,1.8,1.9,4.1,2.8,6.2c1.4,3.2,2.7,6.5,3.9,9.8c0.5,1.2,0.7,2.6,1.4,4c0.9,1.6,1.7,3.1,2.6,4.7c0.3,0.5,0.6,1,0.7,1.5v0.4
	c0,0.3-0.2,0.6-0.4,0.9c-0.1,0.2-0.3,0.4-0.5,0.5l0,0c-0.5-0.4-1.1-0.7-1.8-0.7h-0.3c-1.8,0-3.7,0.7-5.2,1.8
	c-0.4,0.3-0.6,0.6-0.8,0.8c-0.2,0.3-0.4,0.6-0.6,0.8l0,0h-0.1c-0.8-1.1-1.5-2.1-2-3.2c-0.6-1.2-0.8-2.4-1-3.6
	c-0.1-1.3-0.2-2.6-0.4-4.1c-0.5-2.9-1.2-5.7-2.1-8.4c-0.6-1.8-1.4-3.5-2.5-5.1c-0.6-0.8-1.2-1.5-1.9-2.2l-0.3-0.2
	c-0.1-0.1-0.2-0.2-0.4-0.3c-0.3-0.2-0.7-0.5-0.9-0.7C156.3,673.4,156.3,673.4,156.3,673.4z M151.9,670.6c-0.2-0.4-0.3-0.8-0.5-1.3
	c-0.1-0.2-0.2-0.4-0.2-0.5h0.1c0.2-0.1,0.4-0.2,0.5-0.4c0.3-0.3,0.5-0.6,0.7-0.9c0.1-0.1,0.1-0.2,0.2-0.3c0.1-0.2,0.2-0.4,0.3-0.7
	c0-0.1,0.1-0.2,0.1-0.4c0.1-0.2,0.1-0.4,0.2-0.6c0.1-0.1,0.1-0.1,0.2-0.2c0.3-0.2,0.5-0.5,0.7-0.9c0.1-0.1,0.1-0.2,0.2-0.4
	c0.1-0.2,0.1-0.3,0.1-0.4c0.1-0.4,0.1-0.8,0.2-1.1l0.2-0.4l0.1-0.1c0.2-0.2,0.6-0.4,1.1-0.4h0.1c0.6,0.1,1.3,0.4,2.1,0.6
	c0.1,0,0.3,0.1,0.4,0.1h0.4h0.1c0.3,0,0.5,0,0.8,0c0.5,0,1-0.1,1.5,0c0.3,0,0.6,0.1,0.8,0.2c0.5,0.2,1,0.9,1.2,1.6
	c0.1,0.5,0.1,1.1,0.1,1.7c-0.1,0-0.2-0.1-0.2-0.2c-0.3-0.1-0.5-0.3-0.9-0.3h-0.3c-1.9,0.4-3.6,1.3-4.9,2.8c-0.8,0.8-1.4,1.9-1.7,3
	c-0.2,0.1-0.3,0.2-0.5,0.2c-0.4,0.2-0.9,0.2-1.4,0.2c-0.4,0-0.7-0.1-1-0.3l0,0l-0.2-0.1C152.2,671.2,152.1,671,151.9,670.6z
	 M152.2,708.3c0,0.5-0.1,1.1-0.3,1.6c-0.2-0.1-0.5-0.2-0.7-0.2h-0.4c-1.1-0.1-2.3,0.2-3.2,0.7c-1.1,0.6-2,1.3-2.9,2
	c-0.2,0.2-0.4,0.3-0.6,0.5c-0.1,0-0.2-0.1-0.2-0.1l0,0c-0.3-0.2-0.7-0.5-1-0.8l0,0c-0.3-0.3-0.5-0.7-0.8-1v-0.1
	c-0.2-0.4-0.4-0.7-0.6-1.2c-0.5-1.1-0.8-2-0.9-3.1c0-0.2,0-0.4,0-0.5c0-0.2,0-0.5,0.1-0.7s0.1-0.5,0.2-0.7c0.1-0.4,0.3-0.8,0.4-1.1
	c0-0.1,0.1-0.2,0.1-0.3v-0.1c0.1-0.4,0.2-0.7,0.3-1.1c0.8-2.8,1.2-5.8,1.5-8.6c0-0.5,0.1-1,0.1-1.6c0.1-1.7,0.1-3.3,0.2-5
	c0-0.7,0.1-1.4,0.2-2.1c0.1-0.5,0.1-1,0.1-1.4c0.1-1.1,0.1-2.2-0.1-3.3l0,0V680c0-0.2,0-0.4-0.1-0.6v-0.1c0-0.1,0-0.3-0.1-0.4
	c0-0.1-0.1-0.2-0.1-0.4c0-0.1,0-0.2-0.1-0.3v-0.1c0-0.2-0.1-0.5-0.2-0.7c-0.3-0.7-0.7-1.1-0.9-1.5c-0.5-1.1-0.7-2.2-0.6-3.4
	c0-0.4,0.1-0.7,0.2-1.1c0.1-0.2,0.1-0.4,0.2-0.6c0.1,0,0.1,0,0.2,0c0.1,0,0.2,0,0.3,0c0.4,0,0.8,0,1.1,0c1.4-0.2,2.8-0.5,4.1-0.7
	c0.1,0,0.1,0,0.2,0c0.2,0,0.5-0.1,0.7-0.1c0.1,0,0.2-0.1,0.3-0.1c0.2-0.1,0.5-0.1,0.7-0.2c0.1,0,0.3-0.1,0.4-0.1
	c0.1,0,0.1,0,0.2-0.1c0.1,0.2,0.1,0.3,0.2,0.5c0.2,0.3,0.3,0.7,0.4,1.2c0.1,0.4,0.4,0.8,0.8,1.2c-0.7,1.6-0.9,3.3-1.3,4.9
	c-0.5,2.1-1.5,4.1-2.1,6.4c-0.6,2.4-1,4.8-1.2,7.3c-0.1,1.4-0.1,2.9,0,4.3c0.1,1.8,0.2,3.6,1.1,5.5c0.8,1.6,1.9,3.1,3.2,4.4
	C152,705.8,152.2,707,152.2,708.3z M142.1,686.7c-0.1,1.7-0.1,3.3-0.2,5c0,0.5-0.1,1-0.1,1.5c-0.2,1.7-0.3,3.4-0.6,5.1
	c-0.1-1.4-0.2-2.8-0.2-4.3s0-3,0.1-4.4c0.1-1.3,0.3-2.6,0.6-3.9c0.2-0.8,0.5-1.5,0.7-2.3c0,0.4-0.1,0.8-0.1,1.2
	C142.2,685.3,142.1,686,142.1,686.7z M155.9,736.7c-0.1,0-0.2,0.1-0.3,0.1c-1.3,0.8-2.6,1.7-3.8,2.5c-0.2,0.1-0.4,0.3-0.7,0.5
	c-0.1,0.2-0.3,0.4-0.3,0.6c-0.1-0.2-0.2-0.5-0.3-0.7c-0.2-0.8-0.3-1.6-0.4-2.3c0-0.2-0.1-0.4-0.1-0.6c-0.5-2.6-1.1-5.2-1.7-7.7
	c-0.9-3.4-1.8-7-3.4-10.2c-0.4-0.8-0.8-1.7-1-2.5c0.1-0.1,0.3-0.3,0.4-0.4c0.3-0.3,0.6-0.7,0.7-1.1c0.1-0.2,0.2-0.4,0.2-0.6
	c0,0,0,0,0-0.1c0.1-0.2,0-0.4-0.1-0.5l0.1-0.1c0.1,0,0.1-0.1,0.2-0.1c0.9-0.7,1.7-1.4,2.6-1.8c0.8-0.4,1.7-0.7,2.5-0.6h0.3
	c0.2,0,0.4,0.1,0.6,0.2c0.2,0.1,0.4,0.2,0.6,0.3c0.2,0.1,0.3,0.3,0.5,0.5s0.4,0.4,0.5,0.6c0.6,0.8,0.8,1.9,0.8,2.8
	c0,0.3-0.1,0.5-0.1,0.7c-0.8,2.3-1.3,4.7-1.4,7c-0.2,2.5,0.1,5,0.9,7.6c0.5,1.6,0.7,3.3,1.8,5C155.3,736,155.6,736.4,155.9,736.7z
	 M167.8,747.1c-0.1,0-0.2,0-0.3,0.1c-0.2,0.1-0.4,0.2-0.7,0.3s-0.7,0.2-1,0.5l-0.1,0.1c-0.3,0.1-0.6,0.3-0.9,0.6
	c-0.1,0.1-0.2,0.2-0.4,0.3c-0.1,0.1-0.2,0.3-0.3,0.5c-2.1-1.3-4.1-2.6-6-4l0,0c-0.4-0.3-0.8-0.6-1.1-0.9c-1-0.9-2.3-1.3-3.3-1.8
	c-0.2-0.1-0.4-0.2-0.6-0.3c-0.1,0-0.2-0.1-0.2-0.1l-0.1-0.1c-0.1-0.1-0.2-0.2-0.3-0.2c-0.1-0.1-0.2-0.1-0.2-0.2
	c-0.1-0.1-0.2-0.2-0.2-0.3c-0.1-0.2-0.2-0.4-0.2-0.6l0,0l0.1-0.1c0.1-0.1,0.2-0.2,0.4-0.3c1.3-0.8,2.5-1.7,3.8-2.5
	c0.1,0,0.1,0,0.2,0c0.1,0,0.1-0.1,0.3-0.1c0.1,0,0.2,0.1,0.4,0.1c0.2,0.1,0.4,0.2,0.6,0.3c0.2,0.1,0.4,0.3,0.6,0.5c1.9,1.5,3,4,5,6
	c1,1,2.3,1.9,3.9,2l0,0l0.3-0.1L167.8,747.1L167.8,747.1z M167.9,750.5c-0.1,0-0.2,0-0.3-0.1c-0.3-0.1-0.5-0.2-0.8-0.2
	c-0.3-0.1-0.5-0.2-0.8-0.2l0,0c-0.1,0-0.1,0-0.1,0c-0.1,0-0.2-0.1-0.2-0.1l0.2-0.2c0.2-0.2,0.4-0.3,0.8-0.5l0.3-0.3
	c0.1-0.1,0.3-0.2,0.5-0.2h0.1c0.2-0.1,0.5-0.2,0.8-0.3h0.1h0.1h0.2c0.1,0,0.2,0.1,0.3,0.1c0.2,0.1,0.3,0.2,0.5,0.3
	c0.8,0.4,1.6,0.8,2.5,0.9c0.2,0,0.3,0,0.5,0h0.5c0.2,0,0.4,0,0.6,0.1l0.2,0.1c0,0.1,0.1,0.2,0.1,0.4l0,0c0,0.3-0.2,0.6-0.3,0.8h-0.5
	h-0.1c-0.3,0-0.7,0-1,0h-0.4c-0.2,0-0.3,0-0.5,0l0,0c-0.4,0-0.7,0-1.1-0.1C169.1,750.8,168.5,750.7,167.9,750.5z M153.2,749
	c0-0.1,0.1-0.3,0.2-0.6v-0.1h0.1l0,0l0,0c0.1,0,0.2-0.1,0.3-0.2l0.4-0.3h0.1l0.2-0.2l0.1-0.2l0,0c0.1,0,0.2,0,0.3,0
	c1-0.1,1.9-0.3,2.8-0.6l0,0c2,1.5,4.1,2.8,6.1,4.1l0,0c0.4,0.2,0.8,0.4,1.2,0.4c0.2,0,0.4,0,0.6-0.1l0,0c0.6,0.2,1.2,0.4,1.8,0.5
	c0.5,0.1,1,0.2,1.6,0.3h-0.1c-0.4,0.1-0.8,0.1-1.2,0c-1.2-0.1-2.5-0.5-4-0.7c-2.6-0.4-5.3-0.7-7.9-1H155c-0.5,0-0.9-0.1-1-0.2
	c-0.3-0.2-0.5-0.4-0.7-0.6c-0.2-0.2-0.3-0.3-0.3-0.5L153.2,749z M152.8,745.2c-0.8-1.2-1.8-2.1-2.6-3c-0.1-0.1-0.1-0.1-0.2-0.2
	c-0.2-0.3-0.5-0.6-0.7-0.8c-0.2-0.3-0.4-0.6-0.6-0.9c-0.4-0.6-0.8-1.2-1.2-1.9c-1.7-2.7-3.7-5.2-5.2-7.9c-1.6-2.8-3.1-5.6-4.7-8.3
	c-0.2-0.4-0.4-0.7-0.5-1.1c0-0.1,0-0.1,0-0.1c0-0.2,0-0.3,0-0.5v-0.1l0,0c0-0.2,0-0.3,0.1-0.3c0.2-0.3,0.5-0.5,0.7-0.8
	c0.1-0.1,0.1-0.1,0.2-0.2c0.2-0.2,0.4-0.4,0.7-0.6c0.9-0.8,2-1.3,3.2-1.6c0.2,0,0.4-0.1,0.6-0.2h0.1l0,0c0,0.2,0.1,0.3,0.1,0.4
	c0.1,0.3,0.2,0.6,0.3,0.8c0,0,0,0.1,0.1,0.1c0.2,0.5,0.4,0.9,0.6,1.3l0,0c0.4,0.8,0.7,1.6,1,2.4c0.2,0.4,0.3,0.9,0.4,1.3
	c0.1,0.1,0.1,0.3,0.2,0.4c0.2,0.7,0.4,1.4,0.6,2.1c0.2,0.6,0.3,1.2,0.5,1.8c0.2,0.7,0.4,1.4,0.6,2.1c0.7,2.5,1.3,5.1,1.7,7.6
	c0.1,0.5,0.2,1.3,0.3,2.2c0.1,0.4,0.2,0.9,0.3,1.3c0.1,0.4,0.3,0.9,0.6,1.2c0.1,0.2,0.2,0.3,0.3,0.5c0.3,0.3,0.6,0.5,1.1,0.7h0.2
	h0.1l0,0l0,0c0.2,0.1,0.3,0.3,0.5,0.4c0.1,0,0.1,0.1,0.2,0.1c0.3,0.2,0.6,0.4,0.9,0.6c1.2,0.5,2.3,0.9,3,1.6
	c0.1,0.1,0.1,0.1,0.2,0.2c-0.1,0-0.2,0.1-0.3,0.1c-0.5,0.1-1,0.2-1.4,0.3l0,0c-0.1,0-0.2,0-0.3,0h-0.1h-0.2c-0.3,0-0.5-0.1-0.6-0.2
	C153.3,745.8,153.1,745.6,152.8,745.2z M136.3,719.2l-0.1,0.1l0,0l0,0c-0.1,0.2-0.2,0.3-0.2,0.5c-0.1,0.1-0.1,0.3-0.1,0.4v0.1
	c0,0.4,0,0.7,0.1,1c0.1,0.6,0.4,1.1,0.6,1.5c1.6,2.8,3.2,5.6,4.7,8.3c1.2,2.1,2.6,4,4,6c0.4,0.6,0.9,1.3,1.3,2
	c0.4,0.7,0.8,1.3,1.2,1.9c0.4,0.6,0.9,1.2,1.4,1.9c0.9,1.1,2,2,2.7,3c0.3,0.4,0.6,0.8,0.9,1c0.1,0.1,0.2,0.1,0.3,0.1l0,0l-0.3,0.1
	c-0.6,0.2-1.2,0.4-1.6,0.3h-0.3c-0.4-0.1-0.7-0.3-1.2-0.7c-3.1-2.3-6-5.5-8.6-8.5c-3.2-3.6-6.4-7.3-8.3-11.7c-0.5-1.2-1-2.4-0.9-3.5
	c0-0.2,0-0.4,0.1-0.6c0.3-1.1,1.2-1.9,2.3-2.7h0.1h0.3C135.2,719.8,135.8,719.5,136.3,719.2z M131.6,704.9c0.1-1.2,0.3-2.4,0.5-3.8
	c0.1-0.5,0.1-1.1,0.1-1.6l0.2-2.4c0.3-3.2,0.3-6.3,0.9-9.4c0.1-0.6,0.1-1.2,0.2-1.7c0.1-2.1,0-4.2,0.1-6.3c0.2-2.5,0.3-5,0.5-7.5
	v-0.1c0-0.7,0.2-1.3,0.4-1.8l0,0c1,0,2-0.2,2.8-0.5c0.9-0.3,1.8-0.7,2.8-1l0,0l0,0c0,0.1,0,0.1,0.1,0.2c0.1,0.3,0.3,0.6,0.5,0.8
	c0.1,0.1,0.1,0.1,0.2,0.2l0.1,0.1l0,0c-0.1,0.3-0.2,0.5-0.3,0.8c-0.1,0.4-0.2,0.9-0.2,1.4c-0.1,1.4,0.1,2.8,0.7,4
	c0.3,0.7,0.7,1.1,0.9,1.5c0.1,0.1,0.1,0.3,0.2,0.5c0.1,0.5,0.2,1.2,0.3,1.7l0,0c-0.8,1.6-1.4,3.3-1.9,5.2c-0.4,1.4-0.6,2.8-0.7,4.2
	c-0.1,1.5-0.1,2.9-0.1,4.4c-0.1,2.6,0.2,5.2,0.7,7.8c-0.1,0.3-0.2,0.6-0.2,0.9l0,0c-0.2,0.4-0.3,0.8-0.5,1.2
	c-0.2,0.7-0.4,1.3-0.5,2.1c0,0.2,0,0.5,0,0.7c0.1,1.4,0.5,2.4,1,3.5l0,0c0.1,0.2,0.2,0.4,0.3,0.6l0,0v0.1c0,0.1,0.1,0.2,0.1,0.2
	c0.1,0.1,0.1,0.3,0.2,0.4c0,0,0,0.1,0.1,0.1c0.3,0.4,0.6,0.8,0.9,1.2c0,0,0.1,0,0.1,0.1c0.4,0.4,0.7,0.7,1.1,1l0,0c0,0,0,0,0.1,0
	c0.2,0.1,0.4,0.2,0.6,0.3c0.1,0,0.1,0,0.2,0.1l0,0c-0.1,0.3-0.3,0.5-0.5,0.7c0,0.1-0.1,0.1-0.2,0.1c-0.1,0.1-0.2,0.2-0.3,0.3
	c-0.1,0-0.3,0-0.4,0c-0.1,0-0.1,0-0.2,0c-1.8,0.3-3.5,1.2-4.9,2.5c-0.3,0-0.6-0.1-0.9-0.2c-0.1,0-0.3-0.1-0.4-0.2
	c-0.3-0.2-0.4-0.4-0.6-0.7c-0.2-0.3-0.3-0.7-0.6-1.2c-0.4-0.6-0.7-1.4-0.9-2.3c-0.8-2.8-2.2-4.9-2.3-7.5
	C131.6,705.6,131.6,705.3,131.6,704.9z M139,659.6c0.2-0.2,0.5-0.5,0.8-0.8s0.5-0.7,0.5-1.2l0,0v-0.1c0-0.2,0-0.4-0.1-0.6l0,0
	c0.4-0.4,0.8-0.8,1.2-1.2l0,0c0.3,0.5,0.7,0.8,1.1,1.2c0.8,0.6,1.6,1.1,1.9,1.7c0.2,0.3,0.3,0.6,0.4,1c0.1,0.4,0.1,0.7,0.2,1.2
	c0.2,1.2,0.4,2.4,0.5,3.5c-0.9,0.3-1.9,0.5-2.8,0.8c-0.8,0.2-1.7,0.5-2.4,1.2c-0.4,0.3-0.6,0.8-0.6,1.2c-1,0.4-2,0.7-2.9,1.1l0,0
	c-0.8,0.3-1.7,0.5-2.5,0.4h-0.1c-0.2,0-0.4-0.1-0.6-0.1c0-0.4,0-0.9,0-1.3c0-0.4,0.1-0.9,0.2-1.3c0.2,0,0.4-0.1,0.5-0.3
	C135.4,663.6,137,661.5,139,659.6z M136,490c0-0.5,0.2-0.9,0.4-1.3c0.3-0.4,0.9-0.8,1.6-1c0.7-0.3,1.6-0.5,2.4-0.7
	c0.3,0,0.6-0.1,0.9-0.1h0.1c0.8,0,1.8,0.5,2.7,0.9c0.1,0,0.1,0.1,0.2,0.1c1.9,0.9,3.6,2.2,5,3.8c0.2,0.2,0.3,0.7,0.4,1.3
	c0,0.1,0,0.1,0,0.2s0,0.2,0,0.3c0,0.3-0.1,0.5-0.2,0.7c-0.1,0.2-0.3,0.4-0.6,0.6c-0.1,0.1-0.2,0.1-0.2,0.2c-1.3,1.1-1.9,2.6-2,4.2
	c-0.1,0.9,0,1.7,0.3,2.6c0.5,2,1,3.9,1.5,5.9c0.2,0.9,0.5,1.8,0.7,2.8c0,0,0,0,0,0.1c0.4,1.8,0.7,3.5,0.6,5.2c0,0.6-0.1,1.1-0.2,1.7
	c-0.2,0.9-0.5,1.8-0.7,2.8c-0.4,1.5-0.9,3-1.2,4.5l0,0c0,0.1,0,0.2-0.1,0.3c-1.3,5.3-2.5,10.7-3.6,16.1c-1.8,9-2.1,18.5-2.8,27.6
	c-0.1,1.1-0.2,2.1-0.2,3.2c-0.5,7.9-0.7,15.8-0.6,23.7c0.1,3.9,0.9,7.4,0.8,11.1c0,4.3-0.2,8.7,0.3,13.1c0.3,2.3,0.5,4.7,0.8,7
	c0.2,1.6,0.3,3.1,0.5,4.7c0.1,1.1,0.2,2.2,0.3,3.2c0.2,2.1,0.3,4.2,1.3,6.3c0.6,1.3,0.8,2.3,0.8,3.7c0,0.9,0.1,1.6,0.1,2.2
	c0,0.3-0.1,0.5-0.2,0.8c0,0.1,0,0.1,0,0.2c0,0.1-0.1,0.2-0.1,0.3c-0.1,0.3-0.2,0.5-0.3,0.8c-0.1,0.2-0.2,0.4-0.3,0.6
	c0,0,0,0.1-0.1,0.1c-0.2,0.4-0.5,0.9-0.8,1.3l0,0c-0.7,1.1-1.5,2-2.3,3c-0.5,0.5-1,1.1-1.6,1.6c-0.7-0.2-1.6-0.5-2.4-1
	c-1-0.5-1.8-1.1-2.1-1.7c-0.3-0.6-0.5-1.5-1-2.4c-0.5-0.8-0.9-1.6-1-2.4c-0.1-0.3-0.1-0.7,0-1c0.1-1.5,0.7-3.2,1-4.8
	c0.3-2,0.6-4,0.7-6c0-0.2,0-0.3,0-0.5c0.2-3.1,0.5-6.1,0.1-9.4c-0.6-5.8-0.6-11.7-0.7-17.6c-0.1-6-0.2-12,0-18s0.3-12.1,0.3-18.1
	c0-1.1,0-2.1,0.1-3.2c0.3-4.6,1.1-9.4,1.6-14.1c0.5-4.3,0.8-8.7,1.3-13s1.1-8.7,1.4-13.1l0.1-1.7c0.2-3.4,0.4-6.9,0.6-10.3
	c0.1-2,0.3-4,0.4-5.9c0.1-1,0.2-2,0.2-3c0.2-3.3,0.2-6.6-0.5-10c-0.2-1-0.5-2-0.9-3s-1.2-1.5-1.7-2.2c-0.8-0.9-1-2.2-1.1-3.5V490z
	 M148.2,501.6c-0.1-0.3-0.2-0.7-0.2-1.1s0-0.7,0-1.1c0-0.5,0.1-1,0.3-1.4c0,0.5,0,0.9,0,1.4c0.1,1.5,0.4,2.8,0.6,4.2
	c0,0.1,0,0.2,0,0.4C148.6,503.1,148.4,502.3,148.2,501.6z"/>
<polygon class="st2" points="486,502 486.3,502 486.3,502 "/>
<rect x="435" y="488.3" class="st0" width="156" height="301.7"/>
</svg>
