<?xml version="1.0" encoding="utf-8"?>
<!-- Generator: Adobe Illustrator 21.0.0, SVG Export Plug-In . SVG Version: 6.00 Build 0)  -->
<svg version="1.1" id="Layer_1" xmlns="http://www.w3.org/2000/svg" xmlns:xlink="http://www.w3.org/1999/xlink" x="0px" y="0px"
	 viewBox="0 0 648 864" style="enable-background:new 0 0 648 864;" xml:space="preserve">
<style type="text/css">
	.st0{fill:#FFFFFF;}
	.st1{fill:none;stroke:#231F20;stroke-width:0.25;stroke-miterlimit:10;}
	.st2{fill:#D1D3D4;}
</style>
<title>Outline 7</title>
<path class="st0" d="M513.4,488.1c-0.2-0.2-0.3-0.4-0.5-0.5c-0.5-0.4-1.1-0.7-1.7-0.9l-0.9-0.3l-0.5-0.1c0.3-0.3,0.6-0.6,0.8-0.9
	c0.2-0.3,0.4-0.6,0.6-1c0.1-0.2,0.2-0.3,0.3-0.5c0.3-0.5,0.5-1,0.7-1.5c0.2-0.7,0.4-1.3,0.6-2c0.5-2.1,0.6-4.2,0.5-6.3
	c-0.1-0.9-0.2-1.8-0.3-2.6c-0.1-0.7-0.3-1.4-0.4-2c-0.9-4.8-2.4-9.4-4.3-13.8c-1.1-2.4-2.1-4.8-3.1-7.2c-1-2.4-2-4.8-3-7.2
	c-1-2.4-2-4.8-3-7.2c-1-2.4-1.9-4.8-2.8-7.3c-1.3-3.4-2.4-6.9-3.3-10.5c-0.3-1.2-0.6-2.4-0.8-3.6c-0.5-2.4-1-4.8-1.3-7.2
	c-0.2-1.2-0.3-2.4-0.5-3.6s-0.3-2.4-0.4-3.6s-0.2-2.2-0.3-3.2c-0.2-2.1-0.5-4.3-0.8-6.4c-0.4-3.2-0.8-6.4-1.2-9.5
	c-0.1-1.1-0.2-2.1-0.3-3.2s-0.2-2.1-0.2-3.2c-0.2-2.4-0.2-4.9-0.2-7.3c0-1.9,0-3.7,0-5.6s0-3.7-0.1-5.6c-0.1-3.7-0.3-7.4-0.5-11.1
	c-0.3-4.5-0.6-9-1.1-13.5s-0.9-9-1.3-13.4c-0.7-7-1.6-14-2.3-21c-0.2-2.3-0.4-4.7-0.6-7c-0.1-1-0.1-1.9-0.2-2.9
	c-0.1-2.5-0.2-5.1-0.2-7.6c-0.1-7.6-0.1-15.2-0.3-22.9c-0.1-2.4-0.2-4.8-0.3-7.2c-0.1-2-0.3-4-0.5-6c-0.4-4-1.3-8-2.5-11.8
	c-0.3-1-0.7-1.9-1-2.9s-0.8-1.9-1.2-2.8c-0.9-1.8-1.9-3.6-2.9-5.4c-0.4-0.9-1-1.6-1.6-2.3c-0.6-0.6-1.4-1.1-2.3-1.4
	c-0.6-1.4-1.4-2.6-2.5-3.6s-2.3-1.8-3.7-2.4c-0.3-0.1-0.6-0.2-0.9-0.3c-0.4-0.7-1-1.3-1.7-1.6c-0.2-0.1-0.4-0.2-0.7-0.3
	c-0.7-0.2-1.4-0.4-2.1-0.5c-0.9-0.1-1.9-0.2-2.9-0.3c-1,0-1.9,0-2.9,0c-0.5,0-0.9,0.1-1.3,0.1l-1.3,0.2c-0.1-0.2-0.3-0.4-0.4-0.5
	c-0.5-0.5-1.1-0.9-1.7-1.1c-0.7-0.3-1.5-0.5-2.2-0.6c-0.2-0.1-0.5-0.1-0.8-0.1c-1.2-0.2-2.4-0.3-3.5-0.4c-3.5-0.3-7-0.4-10.4-0.8
	c-4.8-0.6-9.7-1.4-14.6-1.6c-1.2-0.1-2.4-0.1-3.5-0.2c-1.8-0.1-3.6-0.3-5.3-0.5s-3.5-0.4-5.3-0.7c-1.3-0.2-2.7-0.5-4-0.7l0.7,1.5
	c1,0.2,2,0.4,3.1,0.6c4.7,0.7,9.5,1.2,14.3,1.5c4.8,0.2,9.6,1,14.5,1.6s9.3,0.5,13.9,1.3c0.9,0.1,1.8,0.4,2.6,0.7
	c0.7,0.3,1.4,0.8,1.8,1.5c0.1,0.3,0.4,0.4,0.7,0.3c1-0.2,1.9-0.3,2.9-0.3c1.8-0.1,3.7-0.1,5.5,0.2c0.8,0.1,1.6,0.3,2.3,0.7
	c0,0,0.1,0,0.1,0.1c0.3,0.2,0.6,0.4,0.8,0.6h-0.2c-1.6,0.2-3.1,0.5-4.6,1c-1,0.3-1.9,0.4-2.9,0.5h-0.2h-0.2c-0.3,0-0.6,0-0.9-0.1
	c-0.4-0.1-0.8-0.1-1.2-0.1c-0.2,0-0.4,0.1-0.6,0.1h-0.1c-0.1,0-0.2,0.1-0.3,0.1l-0.2,0.2l-0.1,0.1c-0.1,0.1-0.1,0.1-0.2,0.2
	c-0.2,0.2-0.3,0.4-0.5,0.6c-0.2,0.1-0.4,0.2-0.6,0.2s-0.5,0-0.8,0l-3.8-0.4c-3.8-0.4-7.5-0.7-11.4-0.7c-1.5,0-3.1,0-4.7,0.1h-1
	c-0.8,0-1.5,0.1-2.2,0.2s-1.2,0.2-1.8,0.3l-0.4,0.1l-0.5,0.1l-0.8,0.2c-0.8,0.2-1.6,0.5-2.4,0.9l0,0c-0.2,0.1-0.4,0.1-0.5,0.2
	l-1.1-0.6L411,210l-1.8-0.9l-0.4-0.1h-0.2c-1.9,0.1-3.8,0.1-5.6-0.2h-0.3c-0.6-0.1-1.2-0.2-1.9-0.3l0.7,1.4l1,0.1
	c0.5,0.1,1,0.2,1.6,0.2h0.2c0.6,0.1,1.2,0.1,1.9,0.1h0.6c0.7,0,1.3,0,2-0.1l2.3,1.2l1.5,0.8l0.7,0.4l1.2,0.6l1.8,0.9l0,0
	c0.1,0,0.2,0.1,0.3,0.1c0.1,0,0.2,0,0.3-0.1c1.9-1,4-1.6,6.1-1.8c0.7-0.1,1.5-0.2,2.3-0.2c0.5,0,1,0,1.4-0.1c1.4,0,2.8-0.1,4.1,0
	c1.1,0,2.3,0.1,3.4,0.1l1,0.1l2.5,0.2l0.9,0.1c2.4,0.2,4.7,0.4,7.1,0.7c0.3,0,0.7,0,1,0l0,0c0.2,0,0.4-0.1,0.6-0.1h0.1
	c0.1,0,0.2-0.1,0.3-0.1c0.1,0,0.1-0.1,0.2-0.1l0.1-0.1l0,0l0.3-0.3l0.1-0.1l0.1-0.2c0.1-0.1,0.2-0.2,0.2-0.3l0,0l0.1-0.1
	c0.1,0,0.2-0.1,0.3-0.1c0.2,0,0.4,0,0.6,0c-0.1,0.1-0.1,0.1-0.2,0.2c-1.2,1.1-2.4,2.3-3.4,3.5l0,0c-1.6,0.2-3.1,0.5-4.6,1
	c-0.3,0.1-0.7,0.2-1,0.4c-0.4,0.2-0.8,0.6-1,1v0.1c-0.2,0.4-0.2,0.8-0.2,1.1c0,0.4,0.1,0.8,0.3,1.2c0.3,0.6,0.8,1.1,1.3,1.6l0.8,0.8
	l0,0c-0.2,0.4-0.3,0.9-0.4,1.3s-0.3,0.8-0.4,1.2l0,0c-0.2,0.8-0.4,1.6-0.5,2.4v0.1v0.2c-0.1,0.7-0.2,1.4-0.2,2.1c0,0.2,0,0.3,0,0.5
	c-0.1,0.8-0.1,1.7,0,2.5c0,0.3,0,0.5,0.1,0.8c0,0.5,0.1,1,0.2,1.6c-1.5,1.4-3,2.8-4.3,4.4c-0.7,0.7-1.2,1.5-1.6,2.4
	s-0.6,1.9-0.6,2.8c0,1.9-0.3,3.8-1,5.5c-0.6,1.3-2,2.2-3.5,3.2s-2.9,2.2-4.2,3.3c-0.1-0.9-0.3-1.7-0.6-2.5c-1.1-2.9-2.9-5.5-5.4-7.5
	c0.9-3.5-1.9-6.4-4.1-8.6c-0.3-0.3-0.6-0.7-0.9-1L414,237c0.5,1.1,1,2.3,1.5,3.4c1.7,1.8,3.1,3.9,2.5,6.1l0.6,1.6
	c2.2,1.8,3.9,4.1,4.8,6.7c0.4,1,0.6,2,0.7,3.1c0,0.6,0,1.3,0,1.9c0,0.2-0.1,0.5-0.1,0.7c0.8,0.3,1.6,0.6,2.3,0.9
	c-0.3-0.2-0.7-0.5-1-0.7c0.1-0.7,0.2-1.5,0.2-2.2c1.5-1.4,3.2-2.6,4.9-3.9c1.4-1,3-2,3.9-3.7c0.7-1.9,1.1-3.9,1.1-6
	c0-0.6,0.1-1.3,0.3-1.9c0.1-0.2,0.1-0.3,0.2-0.5c0.3-0.6,0.7-1.2,1.2-1.7c0.1-0.1,0.1-0.2,0.2-0.3c0.2-0.3,0.5-0.5,0.7-0.8
	c0.9-1,1.9-2,2.9-2.9c0.1,0.4,0.1,0.8,0.2,1.2c0.2,1.2,0.7,2.3,1.3,3.3c0.2,0.3,0.5,0.6,0.8,0.8c1,0.8,2.3,1.3,3.1,1.9
	c0.3,0.2,0.6,0.5,0.9,0.8c0.6,0.5,1.1,1.1,1.6,1.6c0.2,0.3,0.5,0.6,0.8,0.9c0.4,0.6,0.8,1.2,1.2,1.8c0.4,0.6,0.8,1.2,1.1,1.8
	s0.7,1.2,1,1.9s0.6,1.3,0.9,1.9c2.1,5.3,3.7,10.9,4.6,16.6c2.2,11.5,4,23.1,5.2,34.7c0.4,3.9,0.8,7.8,1.1,11.7
	c0.2,2.2,0.3,4.4,0.5,6.7v0.4c0.5,7.5,1.2,14.9,2,22.4c1.3,12.5,2.9,25,4.1,37.4c0.2,1.6,0.3,3.2,0.5,4.8c0.3,3.2,0.7,6.4,1.1,9.6
	c0.7,6.4,1.5,12.8,2,19.3c0.1,1.6,0.3,3.2,0.4,4.8c0.4,5.5,0.5,11,0.4,16.5c-0.1,3-0.3,5.9-0.8,8.8c-0.2,1-0.3,1.9-0.5,2.9
	c-0.4,1.9-0.9,3.8-1.4,5.7s-1.2,3.7-2,5.5c-0.2,0.4-0.4,0.8-0.5,1.2c-0.3,0.8-0.6,1.6-1,2.4c-0.5,1.4-1.2,2.7-2,3.9
	c-0.3,0.5-0.7,1.1-1.1,1.5c-0.1,0.1-0.2,0.2-0.3,0.3c-0.5,0.5-1,1.1-1.5,1.7c-0.2,0.3-0.4,0.6-0.5,0.9l-0.2,0.5
	c-0.4,0.9-0.6,1.9-0.7,2.9c0,0.2,0,0.3,0,0.5s0,0.4,0,0.7c0.1,1.2,0.3,2.3,0.7,3.4c0.1,0.4,0.3,0.7,0.4,1.1c0.5,1.1,1,2.1,1.6,3.1
	c0.2,0.3,0.4,0.5,0.6,0.8c0.4,0.5,0.8,0.9,1.4,1.3c0.3,0.2,0.6,0.3,0.9,0.4s0.6,0.1,0.9,0.2c0.9,0.1,1.7,0.2,2.6,0.1h0.3h0.6
	l1.1-0.1h0.3h0.3c0,0.1,0,0.2,0,0.3s0,0.4,0,0.6c0,0.3,0.1,0.7,0.1,1c0.2,0.9,0.5,1.7,1,2.4c0.1,0.1,0.2,0.3,0.3,0.4
	c0.6,0.8,1.4,1.3,2.3,1.6c0,0.1,0,0.3,0,0.4c0,0.3,0.1,0.7,0.1,1c0.1,0.3,0.2,0.6,0.2,0.9c0.3,1.1,0.7,2.1,1.2,3.1
	c0.1,0.3,0.3,0.7,0.4,1c0.2,0.5,0.4,1,0.5,1.6c0.7,2.5,1.3,5,2,7.5c0.8,2.9,1.5,5.8,2.2,8.7s1.4,5.8,2.1,8.7c1,4.2,1.7,8.5,2.5,12.8
	c0.3,1.4,0.6,2.8,0.9,4.2c0.1,0.6,0.2,1.1,0.3,1.7c0.6,4.1,1,8.3,1.2,12.5l0.1,1.8c0,0.3,0,0.6,0.1,0.9c0.3,4,0.4,8,0.5,12
	c0.1,2,0.1,4,0.1,6s0,4,0.1,6c0,2.9,0.2,5.8,0.4,8.8c0.1,1.5,0.2,3,0.3,4.5s0.3,3,0.4,4.5c0.3,3,0.6,6,0.8,9
	c0.2,2.2,0.4,4.5,0.6,6.7s0.5,4.5,0.8,6.7c0.9,7.2,2.1,14.5,3.6,21.6c-0.7,0.6-1.6,1.1-2.5,1.7c-1.1,0.6-2,1.5-2.6,2.6
	c-1.2,2.3-2.7,4.4-4.5,6.3c-0.4,0.4-0.8,0.8-1.1,1.2c-0.3,0.4-0.5,0.9-0.6,1.4c-0.5,0-0.9,0-1.4,0c-0.4,0-0.9,0.1-1.3,0.3
	c-0.9,0.5-1.6,1.4-1.9,2.5c-0.2,1-0.3,2-0.2,3.1l0,0c0,0.1,0,0.1,0,0.2c-0.2,0.1-0.3,0.3-0.5,0.4c-0.8,0.7-1.5,1.6-2.1,2.5
	c-1.2,2.1-2.1,4.2-2.9,6.4c-1.4,3.3-2.7,6.6-3.9,9.9c-0.3,1.3-0.8,2.6-1.3,3.8l-2.6,4.7c-0.3,0.6-0.6,1.1-0.8,1.8
	c-0.1,0.3-0.1,0.6-0.1,0.9c0,0.6,0.3,1.1,0.6,1.5c0.2,0.3,0.5,0.5,0.7,0.7c-0.1,0.1-0.2,0.3-0.3,0.4c-0.4,0.7-0.6,1.5-0.5,2.3
	c0,0.3,0,0.6,0.1,0.9v0.4c0.1,3.7-0.8,7.5-3.2,10.3c-0.4,0.4-1,1.1-1.6,1.8s-1,1.6-1,2.6v0.1c-0.2,0.4-0.3,0.8-0.2,1.3l0.1,0.5
	c0.2,0.6,0.4,1.1,0.7,1.6c0.2,0.4,0.4,0.9,0.6,1.3c0,0.2,0.1,0.4,0.1,0.6c0,1.2-0.3,2.4-0.7,3.5c-0.1,0.3-0.1,0.6-0.1,0.9
	c0.1,0.8,0.5,1.6,1.2,2c0.4,0.2,0.8,0.3,1.2,0.3c0.5,0,0.9-0.2,1.3-0.6c0.3-0.3,0.6-0.7,0.8-1.1c0.3-0.7,0.5-1.5,0.6-2.3
	c0-0.7,0.2-1.3,0.4-1.9c0.5-1,1.1-1.8,1.9-2.6c0.1,0,0.2,0,0.3,0c1.1,0,2-0.8,2.3-1.9c0.2-0.5,0.2-1.1,0.2-1.6
	c0.2-2.2,0.7-4.4,1.5-6.5c0.2-0.7,0.4-1.4,0.7-2c0.6-0.9,1.2-1.8,1.8-2.8c0.3-0.4,0.6-0.8,0.9-1.2c0.5-0.5,0.8-1,1-1.7
	c0.1-0.3,0.1-0.5,0.1-0.8c0-0.2,0-0.4-0.1-0.6c0.2,0,0.3-0.1,0.4-0.2c0.9-1.1,1.7-2.4,2.4-3.6c0.6-1.3,1-2.7,1.1-4.1
	c0.1-1.3,0.2-2.7,0.4-4c0.5-2.8,1.2-5.6,2.1-8.3c0.5-1.7,1.3-3.3,2.3-4.7c0.5-0.7,1.1-1.4,1.7-2l0,0c0.1-0.1,0.3-0.2,0.4-0.3
	c0.3-0.2,0.7-0.5,1-0.8l0.4-0.4l0.2-0.2l0.1-0.1c0.1-0.1,0.1-0.3,0.1-0.4l0,0c0-0.2-0.1-0.4-0.1-0.6c0.5,0.2,1,0.2,1.5,0.2
	c0.3,0,0.6-0.1,0.9-0.2c0.5,1.5,0.9,3,1.1,4.5c0.5,2.3,1.5,4.4,2.1,6.5c0.6,2.3,1,4.6,1.1,7c0.1,1.4,0.1,2.8,0,4.2
	c0,1.7-0.3,3.4-1,5c-0.8,1.5-1.7,2.9-2.9,4.1c-1,1.2-1.5,2.7-1.3,4.2c0.1,0.7,0.2,1.5,0.4,2.2c-0.4,0.3-0.8,0.8-1.1,1.2
	c-0.7,1.1-1.1,2.3-1,3.6c0,0.3,0.1,0.7,0.2,1c0.7,2.2,1.2,4.4,1.4,6.7c0.2,2.4-0.1,4.8-0.8,7.1c-0.6,1.8-0.7,3.3-1.6,4.7
	c-0.3,0.5-0.9,1-1.3,1.8c-0.6,0.3-1.2,0.6-1.7,1.1c-2.2,1.8-3.3,4.4-5.1,6.1c-0.8,0.9-1.8,1.4-2.9,1.6c-0.1,0-0.3-0.1-0.4-0.1
	c-0.2,0-0.4,0.1-0.6,0.2l-0.3,0.2c-0.4,0.3-0.7,0.8-0.8,1.3c-0.3,0.1-0.6,0.3-0.9,0.5c-0.7,0.4-1.4,0.6-2.1,0.8h-0.3h-0.5
	c-0.3,0-0.6,0.1-0.9,0.1c-0.4,0.1-0.7,0.4-0.9,0.7c-0.2,0.3-0.3,0.7-0.2,1.1v0.1c0.1,0.7,0.4,1.3,0.8,1.8c0.1,0.1,0.3,0.2,0.4,0.2
	c0.2,0,0.5,0,0.7,0h0.3c0.4,0,0.7,0,1.1,0h0.5c0.2,0.3,0.5,0.6,0.9,0.8c0.4,0.1,0.7,0.2,1.1,0.3c0.5,0.1,1,0.1,1.4,0.1
	c1.5-0.1,2.8-0.6,4-0.8c2.6-0.4,5.2-0.7,7.8-1h0.7c0.6,0,1.2-0.2,1.7-0.4c0.3-0.2,0.6-0.5,0.9-0.7c0.3-0.3,0.6-0.8,0.6-1.2V749v-0.1
	c0.3,0.1,0.6,0.1,0.9,0.1c0.2,0,0.4,0,0.6-0.1c0.6-0.2,1.2-0.5,1.7-0.9c3.2-2.6,6.2-5.5,8.8-8.7c3.3-3.7,6.5-7.4,8.5-12
	c0.6-1.3,1-2.7,1-4.1c0-0.3-0.1-0.6-0.1-0.9c-0.6-1.5-1.6-2.8-3-3.6c-0.1-0.1-0.3-0.1-0.5-0.1h-0.2h-0.2c-0.2,0-0.4-0.1-0.6-0.1
	c0.3-0.3,0.5-0.5,0.7-0.9s0.4-0.7,0.6-1c0.5-0.8,0.9-1.7,1.1-2.7c0.7-2.5,2.2-4.8,2.3-7.8c0-0.4,0-0.8,0-1.1
	c-0.1-1.3-0.3-2.6-0.5-3.8c-0.1-0.5-0.1-1-0.1-1.5l-0.2-2.5c-0.3-3.1-0.3-6.3-0.9-9.5c-0.1-0.5-0.1-1.1-0.2-1.6
	c-0.1-2,0-4.1-0.1-6.3c-0.2-2.5-0.3-5-0.5-7.5v-0.1c0-0.7-0.1-1.3-0.3-2c0.2-0.1,0.3-0.1,0.5-0.2c0.2-0.1,0.3-0.3,0.3-0.6
	c0-0.6,0-1.2,0-1.9c-0.1-1.3-0.3-2.6-0.7-3.8c-0.1-0.3-0.4-0.5-0.7-0.5c-0.2,0-0.4,0.2-0.5,0.4c-1.1-1.8-2.5-3.4-4-4.8
	c-0.2-0.2-0.4-0.4-0.6-0.7c-0.3-0.3-0.3-0.7-0.1-1h0.1c0.4-0.1,0.8-0.3,1.2-0.4s0.8-0.3,1.2-0.5c0.8-0.4,1.5-0.9,2.1-1.5
	c0.2-0.2,0.3-0.4,0.4-0.7c0.1-0.2,0.2-0.4,0.3-0.6c0.1-0.2,0.2-0.4,0.2-0.6s0.2-0.4,0.2-0.6c0.1-0.2,0.1-0.4,0.2-0.5l0.2-0.3
	c0.4-0.7,0.7-1.4,0.9-2.1c0-0.1,0.1-0.3,0.1-0.4c0-0.2,0-0.4,0.1-0.7s0-0.4,0-0.7c0-0.4-0.1-0.9-0.2-1.3c-0.2-0.9-0.4-1.7-0.6-2.5
	c-0.1-0.4-0.2-0.8-0.2-1.1c-0.2-1-0.3-1.9-0.4-2.9s-0.2-2-0.3-2.9v-0.5c0-0.8-0.1-1.6-0.1-2.3s-0.1-1.5-0.1-2.3
	c-0.1-1.5,0-3,0.1-4.5c0.2-1.5,0.3-2.9,0.3-4.4c0.3-4.4,0.3-8.9,0.4-13.3c0-1.5,0.1-3,0.1-4.5c0-3,0-6,0-9c0-1.5,0-3-0.1-4.5
	c-0.1-3-0.2-6-0.2-9s-0.1-6-0.1-9c0-0.5,0-1.1-0.1-1.6s0-1.1-0.1-1.6c-0.1-1.2-0.2-2.4-0.3-3.6s-0.3-2.4-0.4-3.5
	c-0.2-1.8-0.4-3.5-0.7-5.3c-0.1-0.6-0.2-1.2-0.2-1.7c-0.2-2.2-0.4-4.3-0.6-6.5s-0.4-4.3-0.7-6.5l-0.2-1.6c-0.4-3.8-0.9-7.6-1.2-11.4
	l-0.1-1.7c-0.1-1.1-0.1-2.3-0.2-3.4c-0.1-2.3-0.3-4.6-0.4-6.9c-0.1-1.3-0.2-2.7-0.3-4c0-0.7-0.1-1.3-0.1-2c0-0.5-0.1-1-0.1-1.5
	s-0.1-1-0.1-1.5c0-0.8-0.1-1.6-0.1-2.4c-0.1-1.6,0-3.2,0.2-4.8c0.1-0.8,0.2-1.6,0.4-2.4c0.1-0.5,0.2-1,0.4-1.4
	c0.1-0.5,0.3-0.9,0.5-1.4c0.1-0.2,0.1-0.3,0.2-0.5c0.1-0.1,0.2-0.3,0.4-0.4c0.1-0.1,0.3-0.3,0.4-0.5l0.5-0.5c0.3-0.3,0.5-0.6,0.7-1
	c0.5-1,0.7-2.2,0.7-3.3v-0.4c0-0.6-0.2-1.2-0.5-1.8L513.4,488.1z M445.1,217c-0.2,0.3-0.5,0.7-0.7,1l-0.3-0.1l-1.2-0.4
	C443.6,217.3,444.4,217.1,445.1,217z M441.5,220.3c-0.2-0.2-0.3-0.4-0.5-0.6c-0.1-0.2-0.2-0.4-0.2-0.7c0-0.2,0-0.4,0.1-0.5
	c0-0.1,0.1-0.1,0.1-0.1l2.6,0.8l1.3,0.4l2.5,0.8c0.4,0.1,0.8,0.3,1.1,0.6l0.1,0.3c0,0.3-0.1,0.6-0.3,0.8c-0.2,0.4-0.5,0.7-0.9,0.9
	c-0.2,0.1-0.4,0.1-0.6,0.1c-0.6,0-1.2,0-1.9-0.1c-0.7-0.1-1.2-0.1-1.6-0.1h-0.1c0,0,0,0,0-0.1l0,0c0-0.1,0.1-0.2,0-0.3
	c0-0.1-0.1-0.2-0.2-0.3l-0.7-0.7l-0.4-0.4L441.5,220.3z M479.1,492.2c-0.2,0.6-0.4,1.3-0.5,2c-0.5-0.2-1-0.5-1.4-1
	c-0.7-0.9-1.1-2-1.1-3.1c0-0.5,0-1,0.1-1.5c0-0.1,0-0.2,0-0.3c0-0.1,0-0.1-0.1-0.2l0,0c0-0.1-0.1-0.1-0.2-0.2s-0.2-0.1-0.2-0.1
	c-0.1,0-0.2,0-0.3,0c-0.1,0-0.2,0-0.2,0.1l0,0l0,0c-0.2,0.1-0.3,0.1-0.5,0.1c-0.8,0.1-2.1,0.2-2.3,0.3h-0.3c-1,0.1-2,0-3-0.2
	c-0.9-0.4-1.7-1.1-2.1-1.9c-0.6-0.9-1.1-1.9-1.5-2.9c-0.6-1.3-1-2.6-1.1-4c0-0.2,0-0.4,0-0.6c0-1.1,0.3-2.3,0.8-3.3
	c0.6-1,1.3-1.8,2.1-2.6c2.4-2.9,3.4-6.2,4.8-9.4c3.1-7.4,4.7-15.4,4.8-23.4c0.1-5.5-0.1-11-0.4-16.6c-0.8-12.9-2.6-25.8-3.9-38.5
	c-2-20-4.9-39.9-6.1-59.8v-0.4c-1.2-17.9-3.4-35.6-6.8-53.2c-0.9-5.8-2.5-11.4-4.7-16.9c-1.2-2.7-2.6-5.3-4.4-7.7
	c-1-1.3-2.2-2.5-3.5-3.5c-1.1-0.8-2.3-1.2-3.1-1.9c-0.9-1-1.5-2.1-1.6-3.4c-0.2-0.8-0.3-1.5-0.4-2.3c-0.1-0.7-0.2-1.4-0.2-1.9
	c0-0.1,0-0.3,0-0.4V233c0-0.8,0-1.6,0-2.4V230l0,0c0-0.6,0.1-1.2,0.2-1.8c0-0.1,0-0.2,0-0.3s0-0.2,0-0.3c0.1-0.6,0.3-1.3,0.4-1.9
	c0-0.2,0.1-0.3,0.1-0.5c0.1-0.3,0.2-0.6,0.3-1h0.5l0.6,0.1l0.9,0.1l1.1,0.1c0.4,0,0.7,0,1,0h0.4c0.4,0,0.7-0.2,1-0.4
	c0.2-0.2,0.4-0.4,0.6-0.6c0.2-0.2,0.4-0.4,0.5-0.7c0.1-0.1,0.1-0.2,0.2-0.4c0.2-0.3,0.3-0.7,0.3-1.1c0-0.1,0-0.2,0-0.2
	c0-0.2,0-0.3-0.1-0.4c0-0.2-0.1-0.3-0.2-0.4c-0.1-0.2-0.3-0.3-0.4-0.5c-0.3-0.2-0.6-0.4-1-0.5l-0.5-0.1l-2.1-0.6
	c0.3-0.4,0.5-0.8,0.8-1.1s0.4-0.5,0.7-0.8l0,0l0.6-0.6l0.5-0.6l0.1-0.1c0.3-0.4,0.7-0.7,1-1.1l0.1-0.1l0.2-0.2
	c0.3-0.3,0.6-0.6,0.9-0.8l0.1-0.1l0.3-0.3l0.5-0.4l0.5-0.4c0.5,0,0.9-0.1,1.3-0.2s1.1-0.2,1.6-0.4c1.2-0.3,2.3-0.6,3.3-0.8
	c0.4-0.1,0.7-0.1,1.1-0.1s0.8,0,1.2,0c0.2,0,0.3,0,0.4-0.1c2.7,0.9,4.8,3,5.9,5.6c0.1,0.2,0.2,0.3,0.4,0.4c0.8,0.2,1.5,0.6,2.1,1.1
	c0.6,0.6,1,1.3,1.4,2c1,1.8,2,3.5,2.9,5.4c3.5,7.2,4.7,15,5.2,23c0.1,2.4,0.2,4.8,0.3,7.2c0.3,10.1,0.1,20.3,0.6,30.5
	c0,1,0.1,1.9,0.2,2.9c0.6,9.4,1.9,18.8,2.9,28.1c0.9,8.9,1.8,17.9,2.4,26.8c0.5,7.4,0.7,14.8,0.6,22.2c0,2.5,0,5,0.2,7.4
	c0.6,8.6,2.1,17,2.8,25.5c0.7,9.9,2.9,19.6,6.3,28.9c3.7,9.7,7.7,19.4,12,28.9c2.2,5,3.8,10.2,4.6,15.5c0.1,0.8,0.2,1.7,0.3,2.5
	c0.1,2,0,4-0.5,5.9c-0.3,1.3-0.8,2.5-1.4,3.7c-0.5,0.9-1.2,1.6-2,2.2c-0.2,0-0.5,0-0.7,0h-0.1c-0.6,0-1.1,0.2-1.7,0.4
	c-0.3,0.1-0.5,0.2-0.8,0.3l-0.7,0.3c-0.5,0-1.1,0-1.8,0h-0.5c-0.8,0.2-1.6,0.5-2.3,0.9c-0.6,0.4-1.2,0.6-1.9,0.9
	c-0.2,0-0.4,0.1-0.6,0.1c-0.8,0-1.5-0.1-2.2-0.3c-0.8-0.2-1.7-0.4-2.6-0.4c-0.4,0-0.8,0.1-1.2,0.3c-0.5-0.4-1.1-0.9-1.6-1.4
	s-0.9-0.8-1.4-1.2c-0.2-0.2-0.5-0.4-0.8-0.5c-0.3-0.2-0.6-0.4-0.9-0.5c-0.2-0.1-0.5-0.2-0.7-0.3c-0.3-0.1-0.5-0.1-0.8-0.2
	c-0.2,0-0.4,0-0.5,0c-0.7,0-1.4,0.4-1.8,1c-0.5,0.7-0.9,1.4-1.3,2.1s-0.8,1.5-1.1,2.2c-0.2,0.5-0.5,1-0.7,1.5
	S479.2,491.8,479.1,492.2L479.1,492.2z M501.5,488.4c-1.1,0.8-2.1,1.7-3,2.7c-0.3,0.3-0.4,0.7-0.5,1.1c-0.9-0.7-1.9-1.3-2.9-1.8
	c-0.7-0.3-1.5-0.7-2.1-1c0.2,0,0.4,0,0.6,0c0.4,0.1,0.8,0.1,1.2,0.2s0.8,0.2,1.2,0.3c0.4,0.1,0.9,0.1,1.4,0.1c0.3,0,0.6-0.1,0.8-0.1
	c0.6-0.2,1.1-0.4,1.7-0.7l0.5-0.3l0.5-0.2C501,488.6,501.2,488.5,501.5,488.4L501.5,488.4z M496.5,612.9c-0.5-6-1.1-12-1.5-17.9
	c-0.2-2.9-0.3-5.8-0.3-8.7c-0.1-8-0.2-16.1-0.7-24.1c-0.1-0.9-0.1-1.9-0.2-2.8c-0.4-4.7-0.5-9.7-1.6-14.4c-1.3-5.6-2.1-11.3-3.4-17
	c-1.4-5.8-2.9-11.6-4.4-17.4c-0.7-2.5-1.3-5-2-7.5c-0.7-2.4-1.9-4.3-2.3-6.5c0-0.3-0.1-0.6-0.1-0.9c0,0,0-0.1,0-0.2
	c0-0.4,0-0.9,0.1-1.3c0.1-1,0.4-1.9,0.9-2.8c0.8-1.9,1.8-3.8,3-5.6c0.2-0.3,0.5-0.5,0.8-0.5c0.5,0,1,0.1,1.4,0.4
	c0.5,0.3,1,0.6,1.4,0.9c0.8,0.7,1.6,1.5,2.5,2.2c0.4,0.3,0.7,0.6,1.1,0.9l0,0c1.1,0.7,2.2,1.2,3.4,1.7c1.1,0.4,2,1,2.9,1.8
	c0.1,0.1,0.2,0.3,0.4,0.5c0,0.1,0,0.2,0,0.3c0.1,0.4,0.2,0.7,0.4,1c0.1,0.1,0.2,0.2,0.3,0.3c0.1,0.1,0.2,0.2,0.3,0.3l0,0
	c0.2,0.5,0.3,1,0.4,1.5c0,0.2,0.1,0.5,0.1,0.7c0,1.8-0.2,3.7-0.5,5.5c-0.1,0.7-0.1,1.3,0,2c0.1,0.8,0.2,1.6,0.3,2.3
	c-0.2,0.8-0.4,1.7-0.6,2.5c-0.4,1.6-0.6,3.3-0.6,4.9c0,0.2,0,0.5,0,0.7s0,0.2,0,0.3c0,0.5,0.1,1.1,0.2,1.6c0.4,1.6,0.8,3.2,1.3,4.8
	c0.2,0.8,0.5,1.6,0.7,2.4c0,0.8,0,1.5,0.1,2.2c0.1,2.2,0.4,4.5,0.7,6.7c0.3,2.1,0.6,4.1,0.9,6.2c0.8,5.7,1.4,11.4,1.8,17
	c0.2,2.9,0.3,5.8,0.3,8.8c0,8.8-0.7,17.5-0.5,26.4c0.1,5.5,0.6,10.6,0.7,16c0,2.7,0.2,5.5,0.3,8.3c0.2,3.5,0.6,6.9,1.1,10.3
	c0,0.1,0,0.2,0,0.3c-0.3,2.5-0.5,5-0.8,7.5c-0.1,1.1-0.2,2.1-0.4,3.1c-0.1,0.5-0.2,1-0.3,1.4c-0.1,0.5-0.3,0.9-0.5,1.4
	c-0.2,0.3-0.3,0.7-0.4,1.1c-0.2,0.7-0.4,1.4-0.5,2.1c0,0.3-0.1,0.7-0.1,1.1s0,0.8-0.1,1.2c0,0.4,0,0.8,0,1.2v0.2
	c0,0.2,0,0.3,0.1,0.5c-0.3,0-0.6,0-0.9-0.1C499.1,636.4,497.4,624.7,496.5,612.9L496.5,612.9z M503.2,542.2
	c-0.1-0.7-0.2-1.4-0.3-2.1s-0.2-1.4-0.3-2.1c-0.2-1.2-0.3-2.4-0.5-3.6c0.5,2.4,1,4.8,1.5,7.2c0.2,1.1,0.4,2.2,0.6,3.3
	c0.4,2.2,0.6,4.5,0.9,6.8c0.1,1.4,0.3,2.9,0.4,4.3c0.4,4.3,0.6,8.7,0.9,12.9l0.1,2.1c0,0.3,0.1,0.7,0.1,1.1c0.1,2,0.2,3.9,0.3,5.9
	c0.3,5.9,0.4,11.8,0.3,17.7c0,1.9-0.2,3.7-0.4,5.5c-0.2,1.4-0.3,2.8-0.3,4.2c0,0.5,0,0.9,0,1.4c0,1.6,0,3.3,0.1,4.9s0,3.2-0.1,4.8
	c-0.1,1.1-0.1,2.1-0.3,3.2c0,0.5-0.1,1.1-0.2,1.6c-0.2-1.6-0.3-3.2-0.4-4.8c-0.1-1.4-0.1-2.8-0.2-4.1s-0.1-2.8-0.1-4.1
	c-0.1-4.8-0.4-9.3-0.6-14l-0.1-2c-0.1-3.3,0-6.6,0.1-9.8c0-1.1,0.1-2.2,0.1-3.3c0.1-4.4,0.3-8.8,0.3-13.2c0-3-0.1-5.9-0.3-8.9
	C504.4,552.2,503.8,547.2,503.2,542.2L503.2,542.2z M490.4,660.7c0.3-0.4,0.6-0.7,1-1.1c1.9-1.9,3.5-4.2,4.8-6.6
	c0.6-0.9,1.3-1.6,2.2-2.1c0.8-0.5,1.6-1.1,2.4-1.7l0,0h0.2c0.6,0.1,1.2,0.1,1.8,0.1l0,0c0.4,0.9,0.9,1.8,1.4,2.6l0,0l0.1,0.1
	l0.3,0.3l0,0c0.6,0.9,1.3,1.7,2,2.5l0,0c-0.3,0.4-0.6,0.8-1,1.1c-0.9,0.5-1.6,1.2-2.2,2c-0.4,0.8-0.7,1.7-0.8,2.6
	c-0.1,1.1-0.3,2.2-0.5,3.4c-1.7-0.5-3.3-0.8-5-1.1c-0.2,0-0.4,0-0.6,0s-0.5,0.1-0.7,0.2l-0.2,0.1c0-0.3-0.1-0.6-0.2-0.9
	c-0.1-0.3-0.3-0.6-0.5-0.9l0,0l0,0c-0.6-0.6-1.3-0.8-2.1-0.8h-0.2c-0.9,0.2-1.7,0.5-2.3,0.7C490.2,661.2,490.3,660.9,490.4,660.7z
	 M503.3,665.9l0.6,0.2l0.2,0.1l1.5,0.5c0.7,0.1,1.4,0.4,2,0.9l0.1,0.3v0.1c0,0,0,0.1,0,0.2c0,0.2-0.1,0.3-0.1,0.5
	c0,0.1,0,0.2-0.1,0.2c-0.1,0.2-0.1,0.3-0.3,0.5l0,0c-0.1,0.1-0.2,0.2-0.3,0.2l0,0c-0.2,0.1-0.4,0.2-0.6,0.2c-0.3,0-0.6,0-0.9,0
	c-1.3-0.1-2.6-0.4-4-0.7c-0.5-0.1-0.9-0.2-1.3-0.3c-0.1,0-0.2,0-0.3-0.1c-0.4-0.1-0.8-0.3-1.2-0.5c-0.3-0.2-0.5-0.3-0.8-0.5
	c-0.2-0.2-0.3-0.4-0.5-0.6c-0.1-0.1-0.1-0.2-0.1-0.2c-0.1-0.2-0.2-0.3-0.2-0.5c0-0.1,0-0.1-0.1-0.2v-0.1c0-0.1,0-0.1-0.1-0.2
	c0-0.1-0.1-0.3-0.1-0.4c0,0,0,0,0-0.1c0-0.2-0.1-0.4-0.1-0.7c0-0.1,0-0.1,0-0.2h0.3c1.7,0.3,3.5,0.6,5.1,1.1l0.6,0.2l0.7,0.2
	L503.3,665.9z M473,719.6c-0.2,0.2-0.4,0.5-0.6,0.7l-0.3,0.3c-0.2,0.2-0.4,0.4-0.6,0.6s-0.3,0.4-0.5,0.6c-0.6,0.7-1.1,1.4-1.5,2.2
	c-0.3,0.7-0.5,1.5-0.5,2.3c0,0.6-0.2,1.3-0.5,1.9c-0.1,0.3-0.3,0.5-0.5,0.7c-0.1,0.1-0.3,0.2-0.5,0.2s-0.3,0-0.5-0.1
	c-0.4-0.2-0.6-0.6-0.6-1c0-0.2,0-0.3,0-0.5c0.4-1.2,0.7-2.6,0.7-3.9c0-0.2-0.1-0.5-0.1-0.8c-0.2-0.6-0.4-1.1-0.7-1.7
	c-0.2-0.3-0.4-0.7-0.5-1c0-0.1,0-0.2-0.1-0.2v-0.2c0-0.1,0-0.3,0-0.4c0.1-0.2,0.2-0.5,0.3-0.7c0.1-0.2,0.3-0.4,0.5-0.6
	c0.5-0.5,1.2-0.8,1.9-0.9l0,0c1.3,0,2.5,0.4,3.5,1.1c0.2,0.2,0.5,0.4,0.8,0.6l0.3,0.3l0.1,0.1l0,0l0,0
	C473.1,719.3,473.1,719.5,473,719.6z M480.1,703.9c-0.2,0.4-0.4,0.8-0.7,1.1c-0.4,0.4-0.8,0.9-1.1,1.5c-0.5,0.9-1.1,1.8-1.7,2.8
	c-0.4,0.7-0.7,1.5-0.9,2.3c-0.7,2.2-1.3,4.4-1.5,6.7c-0.2-0.2-0.3-0.3-0.5-0.5c-0.3-0.3-0.6-0.5-0.8-0.6c-1.3-0.9-2.8-1.4-4.3-1.3
	h-0.1c-0.4,0-0.9,0.1-1.2,0.3c0.4-0.5,0.8-0.9,1.1-1.2c2.7-3.1,3.6-7.2,3.5-11.2v-0.4c0-0.3,0-0.6-0.1-0.9c-0.1-0.5,0.1-1.1,0.3-1.5
	c0.1-0.1,0.1-0.2,0.2-0.3c0.1-0.2,0.3-0.3,0.4-0.5l0.2-0.2l0.4-0.2c0.2-0.1,0.4-0.2,0.7-0.2h0.1c1.6,0.1,3.2,0.6,4.5,1.5
	c0.2,0.1,0.4,0.3,0.5,0.5l0.1,0.1l0.5,0.7l0,0c0.1,0.2,0.3,0.4,0.3,0.6c0.1,0.2,0.1,0.4,0.2,0.6L480.1,703.9z M492.3,673.6
	c-0.3,0.2-0.6,0.5-0.9,0.7l-0.4,0.3l-0.3,0.2c-0.7,0.7-1.3,1.4-1.9,2.2c-1.1,1.5-1.9,3.3-2.5,5.1c-0.9,2.8-1.6,5.6-2.1,8.5
	c-0.2,1.4-0.3,2.8-0.4,4c-0.1,1.3-0.4,2.5-1,3.6s-1.3,2.2-2,3.2h-0.1l0,0c-0.2-0.3-0.4-0.5-0.6-0.8s-0.5-0.6-0.8-0.8
	c-1.5-1.1-3.3-1.7-5.2-1.8h-0.3c-0.7,0.1-1.3,0.3-1.8,0.7l0,0c-0.2-0.2-0.4-0.3-0.5-0.5c-0.2-0.2-0.3-0.5-0.4-0.8V697
	c0.2-0.5,0.4-1,0.7-1.5l2.6-4.7c0.6-1.3,1.1-2.6,1.4-4c1.2-3.3,2.5-6.6,3.9-9.8c0.8-2.2,1.7-4.2,2.8-6.2c0.5-0.8,1.2-1.6,1.9-2.2
	l0.4-0.3l0.5-0.5l0.1-0.1l0.4-0.3c0.1,0,0.1-0.1,0.2-0.1l0.2-0.1l0,0c1.6,0.3,3,1.1,4.1,2.3c0,0.1,0.1,0.1,0.1,0.2
	c0.5,0.5,0.8,1.1,1.1,1.7c0.2,0.3,0.3,0.7,0.4,1.1c0.1,0.4,0.2,0.7,0.2,1.1L492.3,673.6z M496.3,671.5l-0.2,0.1l0,0
	c-0.3,0.2-0.6,0.3-1,0.3c-0.5,0-0.9,0-1.4-0.2c-0.2-0.1-0.3-0.2-0.5-0.2c-0.4-1.1-1-2.1-1.7-3c-1.3-1.4-3-2.4-4.9-2.8h-0.3
	c-0.3,0-0.6,0.1-0.9,0.3c-0.1,0.1-0.2,0.1-0.2,0.2c0-0.6,0-1.2,0.1-1.7c0.1-0.7,0.6-1.3,1.2-1.6c0.3-0.1,0.5-0.2,0.8-0.2
	c0.5,0,1,0,1.5,0c0.2,0,0.5,0,0.8,0h0.1h0.4c0.1,0,0.3,0,0.4-0.1c0.8-0.2,1.5-0.5,2.1-0.6h0.1c0.4,0,0.8,0.1,1.1,0.4l0.1,0.1
	l0.2,0.3c0.1,0.2,0.1,0.6,0.2,1c0,0.1,0,0.3,0.1,0.4c0,0.1,0.1,0.2,0.1,0.4c0.2,0.3,0.4,0.6,0.7,0.9l0.2,0.2c0,0.2,0.1,0.4,0.2,0.6
	c0,0.1,0.1,0.2,0.1,0.4c0.1,0.2,0.2,0.4,0.3,0.7c0.1,0.1,0.1,0.2,0.2,0.3c0.2,0.3,0.4,0.6,0.7,0.9c0.2,0.1,0.3,0.3,0.5,0.4h0.1
	c-0.1,0.2-0.1,0.3-0.2,0.5c-0.2,0.5-0.3,0.9-0.5,1.3C496.7,670.9,496.6,671.3,496.3,671.5L496.3,671.5z M497.5,705.2
	c1.3-1.3,2.3-2.8,3.1-4.4c0.8-1.7,1.1-3.6,1.1-5.5c0.1-1.4,0.1-2.9,0-4.3c-0.2-2.5-0.6-4.9-1.2-7.3c-0.6-2.3-1.6-4.3-2.1-6.4
	c-0.3-1.7-0.7-3.3-1.3-4.9c0.4-0.3,0.6-0.7,0.8-1.2c0.1-0.4,0.3-0.8,0.4-1.2c0.1-0.1,0.1-0.3,0.2-0.5l0.2,0.1l0.4,0.1
	c0.2,0.1,0.4,0.1,0.7,0.2l0.3,0.1l0.7,0.1h0.2c1.3,0.2,2.7,0.5,4.1,0.7c0.4,0,0.7,0,1.1,0h0.3h0.2c0.1,0.2,0.1,0.4,0.2,0.6
	c0.1,0.4,0.1,0.7,0.2,1.1c0.1,1.2-0.1,2.3-0.6,3.4c-0.2,0.4-0.5,0.9-0.9,1.5c-0.1,0.2-0.2,0.5-0.2,0.8v0.1c0,0.1-0.1,0.2-0.1,0.3
	s-0.1,0.2-0.1,0.4c0,0.1-0.1,0.3-0.1,0.4c0,0,0,0,0,0.1c0,0.2,0,0.4-0.1,0.6v0.1c-0.1,1.1-0.1,2.2-0.1,3.3c0,0.5,0.1,1,0.1,1.4
	c0.1,0.7,0.1,1.4,0.2,2.1c0.1,1.6,0.1,3.3,0.2,5c0,0.5,0.1,1,0.1,1.6c0.2,2.9,0.7,5.8,1.5,8.6c0.1,0.3,0.2,0.7,0.3,1.1l0,0
	c0,0.1,0.1,0.2,0.1,0.3c0.2,0.4,0.3,0.8,0.4,1.2s0.1,0.5,0.2,0.7s0.1,0.5,0.1,0.7s0,0.4,0,0.5c-0.1,1.1-0.4,2.1-0.9,3.1
	c-0.2,0.4-0.4,0.8-0.6,1.2v0.1c-0.2,0.3-0.5,0.7-0.8,1l0,0c-0.3,0.3-0.6,0.6-1,0.8l0,0l-0.2,0.1l-0.6-0.5c-0.9-0.8-1.8-1.4-2.9-2
	c-1-0.5-2.1-0.8-3.2-0.7h-0.4c-0.3,0-0.5,0.1-0.7,0.2c-0.1-0.5-0.2-1-0.3-1.6C496.5,707.2,496.8,706,497.5,705.2L497.5,705.2z
	 M506.5,684.7c0-0.4-0.1-0.8-0.1-1.2c0.3,0.7,0.5,1.5,0.7,2.3c0.3,1.3,0.5,2.6,0.6,3.9c0.1,1.4,0.1,2.8,0.1,4.4c0,1.4,0,2.9-0.2,4.3
	c-0.3-1.7-0.5-3.3-0.6-5c0-0.5-0.1-1-0.1-1.5c-0.1-1.6-0.1-3.3-0.2-5C506.6,686.2,506.6,685.4,506.5,684.7L506.5,684.7z
	 M493.7,735.7c1.1-1.7,1.3-3.4,1.8-5c0.8-2.5,1.1-5,0.9-7.6c-0.2-2.4-0.7-4.7-1.4-7c-0.1-0.2-0.1-0.5-0.1-0.7c0-1,0.2-1.9,0.8-2.8
	c0.1-0.2,0.3-0.4,0.5-0.6c0.2-0.2,0.3-0.3,0.5-0.5c0.2-0.1,0.4-0.3,0.6-0.3c0.2-0.1,0.4-0.1,0.6-0.2h0.3c0.9,0,1.8,0.2,2.5,0.6
	c0.9,0.5,1.8,1.1,2.6,1.8l0.1,0.1l0.1,0.1c-0.1,0.1-0.1,0.3-0.1,0.5l0,0c0,0.2,0.1,0.4,0.2,0.6c0.2,0.4,0.4,0.8,0.7,1.1
	c0.2,0.2,0.3,0.3,0.5,0.4c-0.2,0.9-0.6,1.7-1,2.5c-1.5,3.3-2.6,6.7-3.4,10.2c-0.7,2.5-1.2,5.1-1.7,7.7c0,0.2-0.1,0.4-0.1,0.6
	c-0.1,0.8-0.2,1.6-0.4,2.3c-0.1,0.3-0.2,0.5-0.3,0.7c-0.1-0.2-0.2-0.4-0.3-0.6c-0.2-0.2-0.4-0.4-0.6-0.5l-3.8-2.5
	c-0.1-0.1-0.2-0.1-0.3-0.1C493.2,736.5,493.5,736.1,493.7,735.7L493.7,735.7z M481,747l0.3-0.2l0.3,0.1l0,0c1.5-0.2,2.9-0.9,3.9-2
	c2-2,3.1-4.5,5-6c0.2-0.2,0.4-0.3,0.6-0.5c0.2-0.1,0.4-0.3,0.6-0.3c0.1-0.1,0.3-0.1,0.4-0.1s0.2,0,0.2,0.1c0.1,0,0.1,0,0.2,0
	c1.3,0.8,2.5,1.7,3.8,2.5c0.1,0.1,0.3,0.2,0.4,0.3l0.1,0.1l0,0c0,0.2-0.1,0.5-0.2,0.6s-0.1,0.2-0.2,0.3s-0.2,0.1-0.2,0.2
	c-0.1,0.1-0.2,0.2-0.3,0.2l-0.1,0.1c-0.1,0-0.1,0.1-0.2,0.1c-0.2,0.1-0.4,0.2-0.6,0.3c-1.2,0.4-2.3,1-3.3,1.8
	c-0.4,0.3-0.7,0.6-1.1,0.9l0,0c-1.8,1.5-3.9,2.7-6,4c0-0.2-0.1-0.4-0.2-0.5c-0.1-0.2-0.3-0.2-0.4-0.3c-0.3-0.2-0.6-0.5-0.9-0.6
	L483,748c-0.3-0.2-0.6-0.4-1-0.5c-0.2-0.1-0.5-0.2-0.7-0.3C481.2,747.2,481.1,747.1,481,747L481,747z M479,751
	c-0.4,0.1-0.7,0.1-1.1,0.1l0,0h-0.5H477c-0.3,0-0.7,0-1,0h-0.1h-0.5c-0.2-0.2-0.3-0.5-0.3-0.8l0,0c0-0.1,0-0.3,0.1-0.4l0.2-0.1
	c0.2-0.1,0.4-0.1,0.6-0.1h0.5c0.2,0,0.3,0,0.5,0c0.9-0.2,1.7-0.5,2.5-1l0.5-0.3c0.1-0.1,0.2-0.1,0.3-0.1h0.2h0.1h0.1
	c0.3,0.1,0.5,0.3,0.8,0.3h0.1c0.2,0,0.4,0.1,0.5,0.2l0.3,0.3c0.3,0.1,0.5,0.3,0.8,0.5l0.2,0.2L483,750h-0.1l0,0
	c-0.3,0.1-0.5,0.1-0.8,0.2l-0.8,0.2c-0.1,0-0.2,0.1-0.3,0.1C480.3,750.8,479.7,750.9,479,751L479,751z M495.6,749.2
	c0,0.2-0.1,0.4-0.3,0.5c-0.2,0.2-0.5,0.4-0.7,0.6c-0.3,0.1-0.7,0.2-1,0.2h-0.8c-2.6,0.3-5.3,0.6-7.9,1c-1.4,0.2-2.7,0.7-4,0.7
	c-0.4,0-0.8,0-1.2,0h-0.1c0.5-0.1,1.1-0.2,1.5-0.3s1.2-0.4,1.8-0.5l0,0c0.2,0,0.4,0.1,0.6,0.1c0.4,0,0.8-0.2,1.2-0.4l0,0
	c2-1.3,4.2-2.6,6.1-4.1l0,0c0.9,0.3,1.8,0.5,2.8,0.6c0.1,0,0.2,0,0.3,0l0,0l0.1,0.2l0.2,0.2h0.1l0.4,0.3c0.1,0.1,0.2,0.1,0.3,0.2
	l0,0l0,0h0.1l0,0c0.1,0.2,0.1,0.4,0.1,0.6L495.6,749.2z M495.3,746c-0.2,0.1-0.4,0.2-0.6,0.2H494c-0.5-0.1-1-0.2-1.5-0.3
	c-0.1,0-0.2,0-0.2-0.1c0.1-0.1,0.1-0.1,0.2-0.2c0.9-0.7,1.9-1.2,3-1.6c0.3-0.2,0.6-0.3,1-0.5l0.2-0.1l0.5-0.4l0,0h0.1h0.2
	c0.4-0.1,0.8-0.3,1.1-0.7c0.1-0.1,0.2-0.3,0.3-0.5c0.2-0.4,0.4-0.8,0.6-1.2c0.1-0.4,0.2-0.9,0.3-1.3c0.2-0.9,0.3-1.7,0.3-2.2
	c0.4-2.6,1-5.1,1.7-7.6c0.2-0.7,0.4-1.4,0.6-2.1l0.5-1.8c0.2-0.7,0.4-1.4,0.6-2.1c0-0.1,0.1-0.3,0.2-0.4c0.1-0.4,0.3-0.9,0.4-1.3
	c0.3-0.8,0.6-1.6,1-2.4l0,0c0.2-0.4,0.4-0.8,0.6-1.3c0,0,0,0,0-0.1c0.1-0.3,0.2-0.5,0.3-0.8c0-0.1,0.1-0.3,0.1-0.4l0,0h0.1
	c0.2,0,0.4,0.1,0.6,0.2c1.2,0.3,2.2,0.9,3.2,1.6c0.2,0.2,0.5,0.4,0.7,0.6c0,0.1,0.1,0.1,0.2,0.2c0.3,0.2,0.5,0.5,0.7,0.8
	c0,0,0.1,0.1,0.1,0.3v0.1c0,0.2,0,0.3,0,0.5v0.1c-0.1,0.4-0.3,0.7-0.5,1.1l-4.7,8.3c-1.5,2.7-3.5,5.1-5.2,7.9
	c-0.4,0.7-0.8,1.3-1.2,1.9c-0.2,0.3-0.4,0.6-0.6,0.9c-0.2,0.3-0.4,0.6-0.7,0.8c0,0.1-0.1,0.1-0.2,0.2c-0.9,0.9-1.8,1.9-2.6,3
	C495.7,745.7,495.5,745.9,495.3,746L495.3,746z M514.3,720h0.3h0.1c1.1,0.6,1.9,1.6,2.3,2.7c0,0.2,0.1,0.4,0.1,0.6
	c0,1.2-0.3,2.4-0.9,3.5c-1.9,4.4-5.1,8-8.3,11.7c-2.6,3.1-5.5,5.9-8.6,8.5c-0.3,0.3-0.7,0.5-1.2,0.7h-0.3c-0.6,0-1.1-0.1-1.6-0.3
	l-0.3-0.1l0,0c0.1,0,0.2-0.1,0.3-0.1c0.4-0.3,0.7-0.6,0.9-1c0.8-1.1,1.7-2.1,2.7-3c0.5-0.6,1-1.2,1.4-1.9c0.4-0.6,0.8-1.3,1.2-1.9
	s0.8-1.3,1.3-2c1.3-1.9,2.8-3.9,4-6c1.5-2.8,3.1-5.6,4.7-8.3c0.3-0.5,0.5-0.9,0.6-1.5c0.1-0.3,0.1-0.7,0.1-1v-0.1
	c0-0.1,0-0.3-0.1-0.4c0-0.2-0.1-0.4-0.2-0.5l0,0l0,0l-0.1-0.1C513.1,719.8,513.7,720,514.3,720z M517.2,706.1c0,2.6-1.4,4.7-2.3,7.5
	c-0.2,0.8-0.5,1.6-0.9,2.3c-0.2,0.4-0.5,0.8-0.7,1.2c-0.1,0.3-0.4,0.5-0.6,0.7c-0.1,0.1-0.3,0.1-0.4,0.2c-0.3,0.1-0.6,0.2-0.9,0.2
	c-1.4-1.3-3.1-2.2-4.9-2.5h-0.2c-0.1,0-0.3,0-0.4,0c-0.1-0.1-0.2-0.2-0.3-0.3c-0.1,0-0.1-0.1-0.1-0.2c-0.2-0.2-0.4-0.4-0.5-0.7l0,0
	l0.1-0.1c0.2-0.1,0.4-0.2,0.6-0.3h0.1l0,0c0.4-0.3,0.8-0.6,1.1-1c0,0,0,0,0.1-0.1c0.3-0.4,0.6-0.8,0.9-1.2c0,0,0-0.1,0.1-0.1
	s0.2-0.3,0.2-0.4c0.1-0.1,0.1-0.1,0.1-0.2c0,0,0,0,0-0.1l0,0c0.1-0.2,0.2-0.4,0.3-0.6l0,0c0.5-1.1,0.9-2.3,1-3.5c0-0.2,0-0.5,0-0.7
	c-0.1-0.7-0.2-1.4-0.5-2c-0.2-0.4-0.3-0.8-0.5-1.2l0,0c-0.1-0.3-0.1-0.6-0.2-0.9c0.5-2.6,0.7-5.2,0.6-7.8c0-1.5,0-3-0.1-4.4
	s-0.3-2.8-0.7-4.2c-0.5-1.8-1.1-3.5-1.9-5.2l0,0c0.1-0.6,0.2-1.2,0.3-1.7c0-0.2,0.1-0.3,0.2-0.5c0.2-0.4,0.6-0.9,0.9-1.5
	c0.5-1.3,0.8-2.6,0.7-4c0-0.5-0.1-0.9-0.2-1.4c-0.1-0.3-0.2-0.6-0.3-0.8l0,0c0,0,0.1,0,0.1-0.1s0.1-0.1,0.2-0.2
	c0.2-0.2,0.4-0.5,0.5-0.8c0-0.1,0-0.1,0.1-0.2l0,0l0,0c0.9,0.3,1.8,0.7,2.8,1c0.9,0.3,1.9,0.5,2.8,0.5l0,0c0.2,0.6,0.3,1.2,0.4,1.8
	v0.1c0.2,2.5,0.3,5,0.5,7.5c0.1,2.1,0,4.1,0.1,6.3c0,0.6,0.1,1.2,0.2,1.7c0.5,3.1,0.6,6.2,0.8,9.4l0.2,2.4c0,0.5,0.1,1.1,0.2,1.6
	c0.2,1.3,0.4,2.5,0.5,3.8C517,705.6,517.1,705.9,517.2,706.1L517.2,706.1z M514.6,666.1c0.1,0.2,0.3,0.3,0.5,0.3
	c0.1,0.4,0.1,0.8,0.2,1.3s0,0.9,0,1.3c-0.2,0.1-0.4,0.1-0.6,0.2h-0.1c-0.9,0-1.7-0.1-2.5-0.4l0,0c-1-0.3-2-0.7-2.9-1
	c0-0.4-0.2-0.9-0.6-1.2c-0.7-0.6-1.5-1-2.4-1.2c-0.9-0.3-1.8-0.6-2.8-0.8c0.2-1.2,0.4-2.4,0.5-3.5c0.1-0.4,0.1-0.8,0.2-1.2
	s0.2-0.7,0.4-1c0.5-0.7,1.2-1.3,1.9-1.7c0.4-0.3,0.8-0.7,1.1-1.2l0,0c0.4,0.4,0.7,0.8,1.2,1.2l0,0c-0.1,0.2-0.1,0.4-0.1,0.6v0.1l0,0
	c0,0.4,0.2,0.8,0.5,1.2c0.2,0.3,0.5,0.6,0.8,0.8C511.7,661.6,513.3,663.7,514.6,666.1L514.6,666.1z M512.8,490.5
	c0.1,1.3-0.3,2.5-1.1,3.5c-0.7,0.6-1.3,1.4-1.7,2.2c-0.4,1-0.7,2-0.9,3c-0.7,3.3-0.9,6.7-0.5,10c0.1,1,0.1,2,0.2,3
	c0.2,2,0.3,4,0.4,5.9c0.2,3.4,0.4,6.9,0.6,10.3l0.1,1.6c0.3,4.4,0.9,8.8,1.4,13.1s0.8,8.7,1.3,13c0.5,4.7,1.3,9.4,1.6,14.1
	c0.1,1.1,0.1,2.1,0.1,3.2c0,6,0.1,12,0.3,18.1s0.2,12,0,18s-0.1,11.8-0.7,17.6c-0.2,3.1-0.2,6.3,0.1,9.4c0,0.2,0,0.3,0,0.5
	c0.1,2,0.4,4,0.7,6c0.3,1.6,0.9,3.3,1,4.8c0,0.3,0,0.7,0,1c-0.2,0.8-0.5,1.7-1,2.4c-0.5,0.9-0.7,1.8-1,2.4c-0.5,0.7-1.3,1.3-2.1,1.7
	c-0.8,0.4-1.6,0.7-2.4,1c-0.5-0.5-1.1-1-1.6-1.6c-0.8-0.9-1.6-2-2.4-3l0,0c-0.3-0.4-0.6-0.9-0.8-1.3l-0.1-0.1
	c-0.1-0.2-0.2-0.4-0.3-0.6c-0.1-0.3-0.2-0.5-0.3-0.8c0-0.1-0.1-0.2-0.1-0.3s0-0.1,0-0.2c-0.1-0.3-0.1-0.5-0.1-0.8
	c0-0.7,0-1.5,0.1-2.2c0-1.3,0.3-2.6,0.8-3.7c0.8-2,1.2-4.2,1.3-6.3c0.1-1.1,0.2-2.2,0.3-3.2c0.2-1.6,0.4-3.2,0.5-4.7
	c0.2-2.3,0.5-4.7,0.8-7c0.4-4.4,0.5-8.7,0.3-13.1c0-3.7,0.8-7.2,0.8-11.1c0.1-7.9-0.1-15.8-0.6-23.8c-0.1-1.1-0.1-2.1-0.2-3.2
	c-0.7-9.1-1-18.5-2.8-27.6c-1.1-5.4-2.3-10.8-3.6-16.1c0-0.1-0.1-0.2-0.1-0.3l0,0c-0.4-1.5-0.8-3-1.2-4.5c-0.2-0.9-0.5-1.8-0.7-2.8
	c-0.1-0.6-0.2-1.1-0.3-1.7c-0.1-1.8,0.1-3.5,0.6-5.2l0,0c0.2-0.9,0.4-1.8,0.7-2.8c0.5-2,1-3.9,1.5-5.9c0.2-0.8,0.3-1.7,0.3-2.6
	c-0.1-1.6-0.8-3.1-2-4.2l-0.2-0.2c-0.2-0.2-0.4-0.4-0.6-0.6c-0.1-0.2-0.2-0.5-0.2-0.7c0-0.1,0-0.2,0-0.3c0-0.1,0-0.1,0-0.2
	c0-0.5,0.2-0.9,0.4-1.3c1.4-1.6,3.1-2.9,5-3.8l0.2-0.1c0.9-0.4,1.8-0.7,2.7-0.9h0.1c0.3,0,0.6,0,0.9,0.1c0.8,0.1,1.6,0.4,2.4,0.6
	c0.6,0.2,1.2,0.5,1.6,1c0.3,0.4,0.4,0.8,0.4,1.3L512.8,490.5z M499.9,504.1v-0.4c0.1-1.4,0.5-2.7,0.5-4.2c0-0.5,0-0.9,0-1.4
	c0.2,0.5,0.3,0.9,0.3,1.4c0,0.4,0,0.7,0,1.1s-0.1,0.7-0.2,1.1C500.4,502.5,500.2,503.3,499.9,504.1L499.9,504.1z"/>
<polygon class="st1" points="162.7,502.2 162.4,502.1 162.4,502.1 "/>
<polygon class="st1" points="162.7,502.2 162.4,502.1 162.4,502.1 "/>
<path class="st2" d="M204,275.3c-0.3-0.4-0.7-0.8-1-1.2c-8.1-8.4-11.8-20.1-16-30.8c-2.5-6.3-4.7-12.6-6.5-19.2
	c-1.7-6.1-4.4-10.8-3.9-17.2c0.2-2.4,0-5.1,1.2-6.5C187.9,193.5,196,190,196,190l13.1-6.6c0,0,62.3-25.4,67.7-30.8
	c5.4-5.4,7.5-47.9,7.5-63.2h80.4c0,15.3,2,57.8,7.5,63.2c5.5,5.4,67.7,30.8,67.7,30.8L453,190c0,0,19.9,8.6,35.7,25l-0.1,0.3
	c6.6,6.7,11.5,14.8,14.6,23.7c11.4,34.9,3.5,74.4,3.5,74.4s11.1,39,7.8,79.5c-3.3,40.5,13.2,54.7,15.8,81.5
	c4.6,47.8,0.9,114.2-2.2,152.1c-1.4,16.9,0.1,48.9-1.3,66.5c-1,12.2-4.4,33-11.3,42.1c-6.8,9.1-21.8,23.4-26,21.5
	c-3.4,2.9-23,0.9-19.6-6.6c3.4-7.5,14.5-9.5,19.3-17.3c4.8-7.8,5.1-30.9,1.2-31.2s-12,6.6-12.7,14.9c-0.7,8.3-3.4,20.5-13.6,20.9
	c-7.1,0.2-2.2-9.2-1.5-18.5c0.7-9.1-0.2-27.6,12.7-46.6c12.9-19,14.7-37.1,13-57.2c-1.7-20.1-26.2-79.7-29-113.7
	c-2.8-34,6.3-50,1.6-65.5s-16.2-65.1-14.4-87.3l0.2-1l-5.4-67c0.1,0-14.1,81-14.1,81c-3.6,13.7-4.8,69.4-4.8,99
	c0,24-3.2,45.7-1,60.2l-96.7,0.2h-0.1l-96.7-0.2c2.2-14.6-1-36.2-1-60.2c0-29.6-1.1-85.3-4.8-99c0,0-14.2-81-14.1-81l-0.1,1.5
	C207.4,279.4,206.1,277,204,275.3z"/>
<path class="st0" d="M513.5,487c-0.1-0.2-0.3-0.3-0.5-0.5c-0.5-0.4-1.1-0.7-1.7-0.9l-0.9-0.3l-0.5-0.1c0.3-0.3,0.6-0.6,0.8-0.9
	c0.2-0.4,0.4-0.7,0.6-1c0.1-0.2,0.2-0.3,0.3-0.5c0.3-0.5,0.5-1,0.7-1.5c0.2-0.7,0.4-1.3,0.6-2c0.5-2.1,0.7-4.2,0.5-6.3
	c-0.1-0.9-0.2-1.7-0.3-2.6c-0.1-0.6-0.3-1.3-0.4-2c-0.9-4.7-2.3-9.4-4.3-13.8c-1-2.4-2.1-4.8-3.1-7.2s-2-4.8-3-7.2
	c-1-2.4-2-4.8-3-7.2c-0.9-2.4-1.9-4.9-2.8-7.3c-1.3-3.4-2.4-6.9-3.3-10.4c-0.3-1.2-0.6-2.4-0.8-3.6c-0.5-2.4-1-4.8-1.3-7.2
	c-0.2-1.2-0.3-2.4-0.5-3.6c-0.2-1.2-0.3-2.6-0.4-3.6s-0.2-2.1-0.3-3.2c-0.3-2.1-0.5-4.3-0.8-6.4c-0.4-3.2-0.8-6.3-1.2-9.5
	c-0.1-1.1-0.2-2.1-0.3-3.2c0-1.1-0.1-2.1-0.2-3.2c-0.2-2.4-0.2-4.8-0.2-7.3c0-1.9,0-3.7,0-5.6s-0.1-3.7-0.1-5.6
	c-0.2-3.7-0.4-7.4-0.6-11.1c-0.3-4.5-0.7-9-1.1-13.5c-0.4-4.5-0.9-8.9-1.3-13.4c-0.7-7-1.6-14-2.3-21c-0.2-2.3-0.5-4.7-0.6-7
	c-0.1-1-0.2-1.9-0.2-2.9c-0.1-2.5-0.2-5.1-0.2-7.6c-0.1-7.6-0.1-15.3-0.3-22.9c-0.1-2.4-0.1-4.8-0.3-7.2c-0.2-2-0.4-4-0.6-6
	c-0.4-4-1.3-8-2.5-11.8c-0.3-1-0.7-2-1-2.9c-0.3-0.9-0.8-1.9-1.2-2.8c-0.9-1.8-1.9-3.6-2.9-5.4c-0.4-0.8-0.9-1.6-1.6-2.3
	c-0.7-0.6-1.4-1-2.3-1.3c-0.6-1.4-1.4-2.6-2.5-3.6c-1.1-1.1-2.3-1.9-3.7-2.4c-0.3-0.1-0.6-0.2-0.9-0.3c-0.4-0.7-1-1.2-1.7-1.6
	c-0.2-0.1-0.5-0.2-0.7-0.3c-0.7-0.2-1.4-0.4-2.1-0.5c-1-0.2-1.9-0.3-2.9-0.3s-1.9,0-2.9,0c-0.4,0-0.9,0-1.3,0.1l-1.3,0.2
	c-0.1-0.1-0.2-0.3-0.4-0.5c-0.5-0.4-1.1-0.8-1.7-1.1c-0.7-0.2-1.4-0.5-2.2-0.6c-0.3,0-0.6-0.1-0.8-0.1c-1.1-0.2-2.3-0.3-3.5-0.4
	c-3.5-0.3-7-0.3-10.4-0.8c-4.8-0.6-9.7-1.4-14.6-1.6c-1.2,0-2.4-0.1-3.6-0.2c-1.7-0.1-3.5-0.3-5.3-0.5c-1.8-0.2-3.5-0.4-5.3-0.7
	c-1.4-0.2-2.7-0.4-4-0.7l0.7,1.5c1,0.2,2.1,0.4,3.1,0.6c4.7,0.8,9.5,1.3,14.3,1.5c4.8,0.2,9.8,0.9,14.5,1.6
	c4.7,0.7,9.3,0.5,13.9,1.3c0.9,0.1,1.7,0.4,2.6,0.7c0.8,0.3,1.4,0.8,1.8,1.5c0.1,0.2,0.4,0.3,0.7,0.3c1-0.1,1.9-0.2,2.9-0.3
	c1.9-0.1,3.7-0.1,5.5,0.2c0.8,0.1,1.6,0.3,2.3,0.7l0.1,0.1c0.3,0.1,0.6,0.3,0.8,0.6h-0.2c-1.5,0.2-3.1,0.5-4.6,1
	c-0.9,0.2-1.9,0.4-2.9,0.5h-0.2h-0.2c-0.3,0-0.6-0.1-0.9-0.1c-0.4,0.1-0.7,0.2-1.1,0.3c-0.2,0-0.4,0-0.6,0.1h-0.1
	c-0.1,0-0.2,0-0.3,0.1l-0.2,0.2l-0.1,0.1c-0.1,0.1-0.1,0.1-0.2,0.2c-0.1,0.2-0.3,0.4-0.5,0.6c-0.2,0.1-0.4,0.2-0.6,0.2
	c-0.3,0-0.6,0-0.8,0l-3.8-0.4c-3.8-0.3-7.6-0.7-11.4-0.7c-1.5,0-3.1,0-4.7,0.1h-1c-0.7,0-1.6,0.1-2.2,0.2s-1.2,0.2-1.8,0.3l-0.4,0.1
	l-0.5,0.1l-0.8,0.2c-0.8,0.3-1.6,0.5-2.4,0.9l0,0c-0.1,0.1-0.3,0.1-0.5,0.2l-1.1-0.6l-4.4-2.3l-1.8-0.9l-0.4-0.1h-0.2
	c-1.9,0.2-3.7,0.1-5.6-0.2h-0.3c-0.7-0.1-1.3-0.2-1.9-0.3l0.7,1.4l1,0.1c0.6,0.1,1.1,0.1,1.6,0.2h0.2c0.7,0,1.3,0.1,1.9,0.1h0.6
	c0.6,0,1.3-0.1,2-0.1l2.2,1.2l1.4,0.8l0.7,0.4l1.2,0.6l1.8,0.9l0,0c0.1,0.1,0.2,0.1,0.3,0.1s0.2,0,0.3-0.1c1.9-1,4-1.6,6.1-1.8
	c0.8-0.1,1.5-0.2,2.3-0.2c0.4-0.1,0.9-0.1,1.4-0.1c1.4,0,2.8,0,4.1,0c1.1,0,2.3,0,3.4,0.1l1,0.1l2.5,0.2l0.9,0.1
	c2.4,0.2,4.7,0.5,7.1,0.7c0.3,0,0.7,0,1,0l0,0c0.2,0,0.4,0,0.6-0.1h0.1c0.1,0,0.2,0,0.3-0.1c0.1,0,0.1-0.1,0.2-0.1l0.1-0.1l0,0
	l0.3-0.3l0.1-0.1l0.1-0.2c0-0.1,0.1-0.2,0.2-0.3l0,0c0-0.1,0-0.1,0.1-0.1c0.1-0.1,0.2-0.1,0.3-0.1c0.2,0,0.4,0,0.6,0
	c-0.1,0.1-0.1,0.1-0.2,0.2c-1.2,1-2.3,2.2-3.4,3.5l0,0c-1.6,0.2-3.1,0.5-4.6,1c-0.3,0.1-0.7,0.2-1,0.4c-0.4,0.2-0.8,0.6-1,1v0.1
	c-0.2,0.3-0.2,0.7-0.2,1.1s0.1,0.8,0.3,1.2c0.4,0.6,0.8,1.1,1.3,1.6l0.8,0.8l0,0c-0.2,0.4-0.3,0.9-0.4,1.3c-0.1,0.4-0.3,0.8-0.4,1.2
	l0,0c-0.2,0.8-0.4,1.6-0.5,2.4v0.1v0.2c-0.1,0.7-0.1,1.4-0.2,2.1c0,0.2,0,0.3,0,0.5c-0.1,0.8-0.1,1.7,0,2.5c0.1,0.3,0.1,0.5,0.1,0.8
	c0.1,0.4,0.1,1,0.2,1.6c-1.5,1.4-2.9,2.9-4.3,4.4c-0.6,0.7-1.2,1.5-1.6,2.4c-0.4,0.9-0.6,1.8-0.6,2.8c0,1.9-0.3,3.7-1,5.5
	c-0.6,1.3-2,2.2-3.4,3.2s-2.8,2.1-4.2,3.3c-0.1-0.8-0.3-1.7-0.6-2.5c-1.1-3-2.9-5.6-5.4-7.5c0.9-3.5-1.9-6.3-4.1-8.6
	c-0.3-0.4-0.6-0.7-0.9-1l-0.3-0.3c0.5,1.1,1,2.3,1.5,3.4c1.7,1.8,3.2,3.8,2.6,6.1l0.6,1.6c2.1,1.8,3.8,4.1,4.8,6.7
	c0.4,1,0.6,2.1,0.7,3.1c0,0.6,0,1.3-0.1,1.9c0,0.2-0.1,0.5-0.1,0.7c0.7,0.3,1.5,0.6,2.3,0.9c-0.3-0.3-0.7-0.5-1-0.7
	c0.2-0.7,0.2-1.5,0.2-2.2c1.6-1.3,3.2-2.6,4.9-3.8c1.4-0.9,3-1.9,3.9-3.7c0.7-1.9,1.1-3.9,1.1-6c0-0.6,0.1-1.3,0.3-1.9
	c0.1-0.2,0.1-0.4,0.2-0.5c0.3-0.6,0.7-1.2,1.2-1.7c0-0.1,0.1-0.2,0.2-0.3c0.2-0.3,0.5-0.5,0.7-0.8c1-1,1.9-2,2.9-2.9
	c0,0.4,0.1,0.8,0.2,1.2c0.2,1.2,0.6,2.3,1.3,3.3c0.3,0.3,0.5,0.6,0.8,0.8c1,0.8,2.3,1.3,3.1,1.9c0.3,0.3,0.6,0.6,0.9,0.8
	c0.6,0.5,1.1,1,1.6,1.6c0.3,0.3,0.6,0.6,0.8,0.9c0.4,0.6,0.8,1.2,1.2,1.8c0.4,0.6,0.8,1.2,1.1,1.8c0.3,0.6,0.7,1.3,1,1.9
	s0.6,1.2,0.9,1.9c2.1,5.4,3.7,10.9,4.6,16.6c2.2,11.5,3.9,23.1,5.2,34.7c0.4,3.9,0.8,7.8,1.1,11.7c0.2,2.2,0.4,4.5,0.5,6.7v0.4
	c0.5,7.4,1.2,14.9,2,22.4c1.3,12.5,2.9,24.9,4.1,37.4c0.2,1.6,0.3,3.2,0.5,4.8c0.4,3.2,0.7,6.4,1.1,9.6c0.8,6.4,1.5,12.9,2,19.3
	c0.2,1.6,0.3,3.2,0.4,4.8c0.4,5.5,0.5,11,0.4,16.5c-0.1,2.9-0.4,5.9-0.8,8.8c-0.1,1-0.3,1.9-0.5,2.9c-0.4,1.9-0.8,3.9-1.4,5.7
	s-1.2,3.7-2,5.5c-0.2,0.4-0.3,0.8-0.5,1.2c-0.4,0.8-0.7,1.6-1,2.4c-0.5,1.4-1.2,2.7-2,3.9c-0.3,0.5-0.7,1-1.1,1.5
	c-0.1,0.1-0.2,0.2-0.3,0.3c-0.5,0.5-1,1.1-1.5,1.7c-0.2,0.3-0.4,0.6-0.5,0.9l-0.2,0.5c-0.4,0.9-0.6,1.9-0.7,2.9c0,0.2,0,0.2,0,0.5
	s0,0.5,0,0.7c0,1.2,0.3,2.3,0.7,3.4c0.1,0.4,0.2,0.7,0.4,1.1c0.4,1.1,1,2.1,1.6,3.1c0.2,0.3,0.4,0.6,0.6,0.8c0.4,0.5,0.9,1,1.4,1.3
	c0.3,0.2,0.6,0.3,0.9,0.4c0.3,0.1,0.6,0.1,0.9,0.2c0.9,0.1,1.7,0.2,2.6,0.1h0.3h0.6l1.1-0.1h0.3h0.3c0,0.1,0,0.1,0,0.3s0,0.4,0,0.6
	c0,0.3,0,0.7,0.1,1c0.2,0.9,0.5,1.7,1,2.4c0.1,0.1,0.2,0.3,0.3,0.4c0.6,0.8,1.4,1.3,2.3,1.6c0,0.1,0,0.3,0,0.4c0,0.3,0,0.7,0.1,1
	c0,0.3,0.1,0.6,0.2,0.9c0.4,1,0.7,2.1,1.2,3.1c0.1,0.3,0.3,0.7,0.4,1c0.3,0.5,0.4,1.1,0.6,1.6c0.7,2.5,1.3,5,2,7.5
	c0.7,2.9,1.5,5.8,2.2,8.7s1.4,5.8,2.1,8.7c0.9,4.3,1.6,8.5,2.5,12.8c0.3,1.4,0.6,2.8,0.9,4.2c0.1,0.5,0.2,1.1,0.3,1.7
	c0.6,4.1,1,8.3,1.2,12.5l0.1,1.8c0,0.3,0.1,0.6,0.1,0.9c0.3,4,0.4,8,0.5,12c0,2,0,4,0.1,6s0.1,4,0.1,6c0.1,3,0.2,5.9,0.4,8.8
	c0.1,1.5,0.2,3,0.3,4.5c0.1,1.5,0.3,3,0.4,4.5c0.3,3,0.6,6,0.8,9c0.1,2.2,0.4,4.5,0.6,6.7c0.2,2.2,0.5,4.5,0.8,6.7
	c1,7.2,2.1,14.4,3.6,21.6c-0.7,0.6-1.6,1.1-2.5,1.7c-1,0.6-2,1.5-2.6,2.6c-1.2,2.3-2.8,4.5-4.6,6.3c-0.4,0.4-0.7,0.8-1.1,1.2
	c-0.3,0.4-0.5,0.9-0.6,1.4c-0.4,0-0.9,0-1.4,0s-0.9,0.1-1.3,0.3c-1,0.5-1.7,1.4-1.9,2.5c-0.2,0.9-0.2,1.9-0.1,2.8l0,0
	c0,0.1,0,0.1,0,0.2c-0.2,0.1-0.4,0.3-0.5,0.4c-0.8,0.8-1.5,1.6-2.1,2.5c-1.1,2-2.1,4.2-2.9,6.4c-1.4,3.3-2.7,6.6-3.9,9.9
	c-0.3,1.3-0.8,2.6-1.3,3.8l-2.6,4.7c-0.3,0.6-0.6,1.2-0.8,1.8c-0.1,0.3-0.1,0.6-0.1,0.9c0,0.5,0.2,1.1,0.6,1.5
	c0.2,0.2,0.4,0.5,0.7,0.7c-0.1,0.1-0.2,0.3-0.3,0.4c-0.4,0.7-0.6,1.5-0.5,2.3c0,0.3,0.1,0.6,0.1,0.9v0.4c0,3.8-0.8,7.5-3.2,10.3
	c-0.4,0.4-1.1,1-1.6,1.8c-0.6,0.8-1,1.7-1,2.6v-0.3c-0.1,0.4-0.2,0.9-0.2,1.3l0.1,0.5c0.2,0.6,0.4,1.1,0.7,1.6
	c0.3,0.4,0.5,0.8,0.6,1.3c0,0.2,0.1,0.4,0.1,0.6c-0.1,1.2-0.3,2.4-0.7,3.5c-0.1,0.3-0.1,0.6-0.1,0.9c0,0.8,0.5,1.6,1.2,2
	c0.3,0.2,0.8,0.3,1.2,0.3c0.5-0.1,1-0.3,1.3-0.6c0.3-0.3,0.6-0.7,0.8-1.1c0.3-0.7,0.5-1.5,0.6-2.3c0-0.7,0.2-1.3,0.4-1.9
	c0.5-1,1.1-1.9,1.9-2.6c0.1,0,0.2,0,0.3,0c1.1-0.1,2-0.8,2.3-1.9c0.1-0.5,0.2-1,0.2-1.6c0.3-2.2,0.8-4.4,1.5-6.5
	c0.1-0.7,0.4-1.4,0.7-2c0.6-0.9,1.3-1.8,1.8-2.8c0.2-0.4,0.5-0.8,0.9-1.2c0.5-0.5,0.8-1.1,1-1.7c0.1-0.3,0.1-0.5,0.1-0.8
	c0-0.2,0-0.4-0.1-0.6c0.2,0,0.3-0.1,0.4-0.2c0.8-1.1,1.6-2.3,2.3-3.6c0.6-1.3,1-2.7,1.1-4.1c0.2-1.4,0.2-2.7,0.4-4
	c0.5-2.8,1.2-5.6,2.1-8.3c0.5-1.7,1.3-3.3,2.3-4.7c0.5-0.7,1.1-1.4,1.7-2l0,0c0.1-0.1,0.3-0.2,0.4-0.3c0.3-0.3,0.7-0.6,1-0.8
	l0.4-0.4l0.2-0.2l0.1-0.1c0.1-0.1,0.1-0.3,0.1-0.4l0,0c0-0.2-0.1-0.4-0.1-0.6c0.5,0.2,1,0.2,1.5,0.2c0.3,0,0.6-0.1,0.9-0.2
	c0.4,1.4,0.8,3,1.1,4.5c0.5,2.4,1.5,4.4,2.1,6.5c0.6,2.3,0.9,4.6,1.1,7c0.1,1.4,0.1,2.8,0,4.2c0,1.8-0.3,3.4-1,5
	c-0.7,1.5-1.7,2.9-2.9,4.1c-1,1.1-1.5,2.7-1.3,4.2c0,0.8,0.2,1.5,0.4,2.2c-0.4,0.3-0.8,0.7-1.1,1.2c-0.7,1.1-1.1,2.3-1,3.6
	c0,0.3,0.1,0.7,0.2,1c0.8,2.2,1.2,4.4,1.4,6.7c0.2,2.4-0.1,4.8-0.8,7.1c-0.5,1.8-0.7,3.3-1.6,4.7c-0.4,0.6-0.9,1.1-1.3,1.8
	c-0.6,0.3-1.2,0.7-1.7,1.1c-2.2,1.8-3.4,4.4-5.1,6.1c-0.7,0.9-1.8,1.4-2.9,1.6c-0.1-0.1-0.3-0.1-0.4-0.1c-0.2,0-0.4,0.1-0.6,0.2
	l-0.3,0.2c-0.5,0.3-0.8,0.8-0.8,1.3c-0.3,0.2-0.6,0.3-0.9,0.5c-0.6,0.4-1.4,0.6-2.1,0.8h-0.2h-0.5c-0.3,0-0.6,0-0.9,0.1
	c-0.4,0.1-0.7,0.4-0.9,0.7c-0.1,0.4-0.2,0.7-0.2,1.1v-0.1c0,0.7,0.3,1.3,0.8,1.8c0.1,0.1,0.2,0.2,0.4,0.2c0.2,0,0.5,0,0.7,0h0.3
	c0.4,0,0.7,0,1.1,0h0.6c0.2,0.4,0.5,0.6,0.9,0.8c0.4,0.2,0.7,0.2,1.1,0.3s0.9,0.1,1.4,0.1c1.5-0.2,2.9-0.6,4.1-0.8
	c2.6-0.4,5.2-0.7,7.8-1h0.7c0.6,0,1.2-0.1,1.7-0.4c0.3-0.2,0.6-0.4,0.9-0.7c0.3-0.3,0.5-0.7,0.6-1.2v-0.4v-0.1
	c0.3,0.1,0.6,0.1,0.9,0.1c0.2,0,0.4-0.1,0.6-0.1c0.6-0.2,1.1-0.5,1.6-0.9c3.2-2.6,6.2-5.5,8.8-8.7c3.2-3.6,6.5-7.4,8.5-12
	c0.6-1.3,1-2.7,1-4.1c0-0.3,0-0.6-0.1-0.9c-0.6-1.5-1.6-2.8-3-3.6c-0.2-0.1-0.3-0.1-0.5-0.1h-0.2H514c-0.2,0-0.4,0-0.6-0.1
	c0.3-0.3,0.5-0.6,0.7-0.9s0.4-0.7,0.6-1c0.5-0.9,0.9-1.8,1.1-2.7c0.7-2.5,2.2-4.7,2.3-7.8c0-0.4,0-0.7,0-1.1
	c-0.1-1.3-0.4-2.6-0.5-3.8c0-0.5-0.1-1-0.1-1.5l-0.2-2.5c-0.3-3.1-0.4-6.3-0.9-9.5c-0.1-0.5-0.2-1.1-0.2-1.6c-0.1-2.1,0-4.1-0.1-6.3
	c-0.2-2.5-0.3-5-0.5-7.5v-0.1c0-0.7-0.1-1.3-0.3-2c0.2-0.1,0.4-0.1,0.5-0.2c0.2-0.2,0.3-0.4,0.3-0.6c0-0.7,0-1.3,0-1.9
	c-0.1-1.3-0.3-2.6-0.7-3.8c-0.1-0.4-0.4-0.6-0.7-0.5c-0.2,0.1-0.4,0.2-0.5,0.4c-1.1-1.7-2.5-3.4-4-4.8c-0.2-0.2-0.4-0.5-0.6-0.7
	c-0.3-0.3-0.3-0.7-0.1-1h0.1c0.4-0.1,0.8-0.3,1.2-0.4s0.8-0.3,1.2-0.5c0.8-0.4,1.5-0.9,2.1-1.5c0.2-0.2,0.4-0.5,0.5-0.7
	c0.1-0.2,0.2-0.4,0.3-0.6c0.1-0.2,0.1-0.4,0.2-0.6c0.1-0.2,0.1-0.4,0.2-0.6c0-0.2,0.1-0.3,0.2-0.5l0.2-0.3c0.4-0.7,0.7-1.4,0.9-2.1
	c0-0.1,0.1-0.3,0.1-0.4c0.1-0.3,0.1-0.4,0.1-0.7s0-0.5,0-0.7c0-0.4-0.1-0.9-0.2-1.3c-0.2-0.9-0.4-1.7-0.6-2.5
	c-0.1-0.4-0.1-0.8-0.2-1.1c-0.1-1-0.3-1.9-0.4-2.9c-0.1-0.9-0.2-1.9-0.3-2.9v-0.5c0-0.8-0.1-1.5-0.1-2.3c-0.1-0.8-0.1-1.5-0.1-2.3
	c-0.1-1.5,0-3,0.1-4.5c0.2-1.4,0.3-2.9,0.4-4.4c0.3-4.5,0.3-8.9,0.4-13.3c0-1.5,0.1-3,0.1-4.5c0-3,0.1-6,0-9c0-1.5,0-3-0.1-4.5
	c-0.1-3-0.1-6-0.2-9c-0.1-3-0.1-6-0.1-9c0-0.5,0-1.1-0.1-1.6c-0.1-0.5-0.1-1.1-0.1-1.6c-0.1-1.2-0.2-2.5-0.3-3.6
	c-0.1-1.1-0.3-2.3-0.4-3.5c-0.3-1.8-0.5-3.6-0.7-5.3c-0.1-0.5-0.1-1.1-0.2-1.7c-0.2-2.2-0.4-4.3-0.6-6.5s-0.4-4.3-0.6-6.5l-0.2-1.6
	c-0.4-3.8-0.9-7.6-1.2-11.4l-0.1-1.7c-0.1-1.1-0.1-2.3-0.2-3.4c-0.1-2.3-0.3-4.6-0.4-6.9c-0.1-1.3-0.2-2.7-0.3-4c0-0.7,0-1.3-0.1-2
	c0-0.5-0.1-1-0.1-1.5s-0.1-1-0.1-1.5c-0.1-0.8-0.1-1.6-0.1-2.4c-0.1-1.6,0-3.2,0.2-4.8c0.1-0.8,0.2-1.6,0.4-2.4
	c0.1-0.4,0.3-0.9,0.4-1.4c0.2-0.5,0.3-1,0.5-1.4c0-0.2,0.1-0.4,0.2-0.5c0.2-0.1,0.3-0.3,0.4-0.4c0.1-0.2,0.3-0.3,0.4-0.5l0.5-0.5
	c0.3-0.3,0.5-0.6,0.7-1c0.5-1,0.7-2.2,0.7-3.3v-0.4c-0.1-0.7-0.3-1.3-0.6-1.8V487z M445,217c-0.2,0.3-0.5,0.7-0.7,1l-0.3-0.1
	l-1.2-0.4C443.5,217.3,444.3,217.1,445,217z M441.4,220.2c-0.1-0.2-0.3-0.4-0.4-0.6c-0.1-0.2-0.2-0.5-0.2-0.7s0-0.3,0.1-0.5l0.1-0.1
	l2.6,0.8l1.3,0.4l2.5,0.8c0.4,0.1,0.8,0.3,1.1,0.6l0.1,0.3c0,0.3-0.1,0.6-0.3,0.8c-0.3,0.3-0.6,0.6-0.9,0.9
	c-0.2,0.1-0.4,0.1-0.6,0.1c-0.6,0-1.3,0-1.9-0.1c-0.7,0-1.2-0.1-1.6-0.1h-0.1c0-0.1,0-0.1,0-0.1l0,0c0.1-0.1,0.1-0.2,0.1-0.3
	c-0.1-0.1-0.1-0.2-0.2-0.3l-0.7-0.7L442,221L441.4,220.2z M479.5,491c-0.1,0.4-0.3,0.8-0.6,0.7c-0.2,0.6-0.4,1.3-0.5,2
	c-0.6-0.2-1-0.5-1.4-1c-0.6-0.9-1-2-1.1-3.1c-0.1-0.5,0-1,0.1-1.5c0-0.1,0-0.2,0-0.3s-0.1-0.1-0.1-0.2l0,0c-0.1-0.1-0.1-0.1-0.2-0.2
	c0,0-0.1-0.1-0.2-0.1s-0.2,0-0.3,0c0,0-0.1,0.1-0.2,0.1l0,0l0,0c-0.2,0-0.3,0.1-0.5,0.1c-0.8,0.2-2.1,0.3-2.3,0.3h-0.3
	c-1,0.1-2,0.1-3-0.2c-0.9-0.4-1.6-1.1-2.1-1.9c-0.6-0.9-1.1-1.9-1.5-2.9c-0.6-1.3-1-2.6-1.1-4c0-0.2,0-0.4,0-0.6
	c0-1.2,0.3-2.3,0.8-3.3c0.6-1,1.3-1.8,2.1-2.6c2.4-2.9,3.4-6.2,4.8-9.4c3.1-7.4,4.7-15.4,4.8-23.4c0.1-5.5,0-11.1-0.4-16.6
	c-0.8-12.9-2.7-25.8-3.9-38.5c-1.9-20-4.8-40-6.1-59.8v-0.4c-1.1-17.9-3.4-35.6-6.8-53.2c-1-5.7-2.5-11.4-4.7-16.8
	c-1.2-2.7-2.7-5.3-4.4-7.7c-1-1.3-2.2-2.5-3.5-3.5c-1.1-0.8-2.3-1.3-3.1-1.9c-0.8-0.9-1.4-2.1-1.6-3.4c-0.2-0.8-0.3-1.5-0.4-2.3
	c-0.1-0.7-0.2-1.3-0.2-1.9c0-0.1,0-0.3,0-0.4v-0.4c0-0.8,0-1.6,0-2.4v-0.6l0,0c0.1-0.6,0.1-1.2,0.2-1.8c0.1-0.1,0.1-0.2,0.1-0.3
	c0.1-0.1,0.1-0.2,0.1-0.3c0.1-0.7,0.2-1.3,0.4-1.9c0-0.2,0.1-0.3,0.1-0.5c0.1-0.4,0.2-0.7,0.3-1h0.5l0.6,0.1l0.9,0.1l1.1,0.1
	c0.3,0,0.7,0,1,0h0.4c0.4,0,0.7-0.2,1-0.4c0.2-0.2,0.4-0.4,0.6-0.6c0.2-0.2,0.3-0.5,0.5-0.7c0.1-0.1,0.1-0.3,0.2-0.4
	c0.2-0.4,0.3-0.7,0.3-1.1c0,0,0-0.1,0-0.2c0-0.1,0-0.3-0.1-0.4c-0.1-0.1-0.1-0.3-0.2-0.4c-0.1-0.2-0.2-0.4-0.4-0.5
	c-0.3-0.2-0.6-0.4-1-0.5l-0.5-0.1l-2.1-0.6c0.3-0.4,0.5-0.8,0.8-1.1c0.3-0.3,0.5-0.5,0.7-0.8l0,0l0.6-0.6l0.5-0.6l0.1-0.1
	c0.3-0.4,0.6-0.7,1-1.1l0.1-0.1l0.2-0.2c0.3-0.3,0.6-0.5,0.9-0.8l0.1-0.1l0.3-0.3l0.5-0.4l0.6-0.4c0.4-0.1,0.8-0.1,1.3-0.2
	s1.1-0.3,1.6-0.4c1.2-0.3,2.2-0.6,3.3-0.8c0.4,0,0.7-0.1,1.1-0.1s0.8,0,1.2,0c0.1,0.1,0.3,0,0.4-0.1c2.7,0.9,4.8,3,5.9,5.6
	c0.1,0.2,0.2,0.3,0.4,0.4c0.8,0.2,1.5,0.6,2.1,1.1c0.6,0.6,1,1.3,1.4,2c1.1,1.8,2,3.6,2.9,5.4c3.5,7.2,4.7,15,5.2,23
	c0.1,2.4,0.2,4.8,0.3,7.2c0.4,10.1,0.1,20.3,0.6,30.5c0.1,1,0.1,1.9,0.2,2.9c0.7,9.5,2,18.8,2.9,28.1c0.9,8.9,1.8,17.8,2.4,26.8
	c0.5,7.4,0.7,14.8,0.6,22.2c0,2.5,0,4.9,0.2,7.4c0.6,8.5,2.1,16.9,2.8,25.5c0.7,9.9,2.8,19.6,6.3,28.9c3.8,9.7,7.8,19.4,12,28.9
	c2.2,4.9,3.8,10.1,4.6,15.5c0.1,0.8,0.2,1.7,0.3,2.5c0.1,2,0,4-0.5,5.9c-0.3,1.3-0.8,2.5-1.4,3.7c-0.5,0.9-1.2,1.7-2,2.2
	c-0.2,0-0.5,0-0.7,0h0.1c-0.6,0.1-1.2,0.2-1.7,0.4c-0.3,0.1-0.6,0.2-0.8,0.3l-0.7,0.3c-0.6,0-1.2,0-1.8,0H502
	c-0.8,0.2-1.6,0.5-2.3,0.9c-0.6,0.4-1.2,0.7-1.9,0.9c-0.2,0.1-0.4,0.1-0.6,0.1c-0.7,0-1.5-0.1-2.2-0.3c-0.9-0.3-1.7-0.4-2.6-0.4
	c-0.4,0-0.8,0.1-1.2,0.3c-0.5-0.4-1.1-1-1.6-1.4s-0.9-0.8-1.4-1.2c-0.3-0.1-0.5-0.3-0.8-0.5c-0.3-0.2-0.6-0.3-0.9-0.5
	c-0.2-0.1-0.4-0.2-0.7-0.3c-0.3-0.1-0.5-0.2-0.8-0.2c-0.2,0-0.4,0-0.6,0c-0.7,0-1.4,0.4-1.8,1c-0.5,0.7-0.9,1.4-1.3,2.1
	s-0.8,1.5-1.1,2.2C479.9,490,479.7,490.5,479.5,491L479.5,491z M500.7,488.7c0.2-0.1,0.4-0.2,0.6-0.3c-1.1,0.8-2.1,1.7-3,2.7
	c-0.2,0.3-0.4,0.7-0.5,1.1c-0.9-0.8-1.9-1.4-2.9-1.8c-0.7-0.3-1.4-0.6-2.1-1c0.2,0,0.4,0,0.6,0c0.4,0,0.9,0.1,1.2,0.2
	c0.3,0.1,0.8,0.2,1.2,0.3c0.5,0.1,0.9,0.1,1.4,0.1c0.3,0,0.5,0,0.8-0.1c0.6-0.2,1.2-0.4,1.7-0.7l0.5-0.3L500.7,488.7L500.7,488.7z
	 M496,613.2c-0.5-5.9-1.1-11.9-1.5-17.9c-0.2-2.9-0.3-5.8-0.3-8.7c-0.1-8-0.2-16.1-0.7-24.1c-0.1-0.9-0.1-1.9-0.2-2.8
	c-0.4-4.7-0.5-9.7-1.6-14.4c-1.3-5.6-2.1-11.3-3.4-17c-1.4-5.8-2.9-11.6-4.4-17.4c-0.6-2.5-1.3-5.1-2-7.5c-0.7-2.4-1.9-4.4-2.3-6.5
	c0-0.3-0.1-0.6-0.1-0.9c0-0.1,0-0.2,0-0.2c0-0.4,0-0.9,0.1-1.3c0.2-1,0.5-1.9,0.9-2.8c0.8-2,1.8-3.8,3-5.6c0.2-0.3,0.5-0.5,0.8-0.5
	c0.5,0,1,0.2,1.4,0.4c0.5,0.2,1,0.5,1.4,0.9c0.8,0.6,1.6,1.4,2.5,2.2c0.3,0.3,0.7,0.6,1.1,0.9l0,0c1.1,0.6,2.2,1.2,3.4,1.7
	c1.1,0.4,2.1,1,2.9,1.8c0.2,0.2,0.3,0.4,0.4,0.5c0.1,0.1,0.1,0.2,0.1,0.3c0.1,0.4,0.2,0.7,0.4,1c0.1,0.1,0.2,0.2,0.3,0.3
	c0.1,0.1,0.2,0.2,0.3,0.3l0,0c0.2,0.5,0.3,1,0.4,1.5c0.1,0.2,0.1,0.5,0.1,0.7c0,1.9-0.2,3.7-0.5,5.5c-0.1,0.7-0.1,1.3,0,2
	c0,0.8,0.1,1.5,0.3,2.3c-0.2,0.8-0.4,1.6-0.6,2.5c-0.4,1.6-0.6,3.2-0.6,4.9c0,0.2,0,0.6,0,0.7s0,0.2,0,0.3c0,0.6,0.1,1.1,0.2,1.6
	c0.4,1.6,0.9,3.2,1.3,4.8c0.3,0.8,0.5,1.6,0.7,2.4c0,0.7,0.1,1.5,0.1,2.2c0.1,2.2,0.4,4.5,0.7,6.7c0.3,2.1,0.6,4.1,0.9,6.2
	c0.8,5.7,1.4,11.3,1.8,17c0.2,2.9,0.3,5.9,0.3,8.8c0,8.8-0.7,17.6-0.5,26.4c0.2,5.5,0.6,10.5,0.7,16c0,2.7,0.1,5.5,0.3,8.3
	c0.2,3.5,0.6,6.9,1.1,10.3c0,0.1,0,0.2,0,0.3c-0.3,2.5-0.5,5-0.8,7.5c-0.2,1.1-0.2,2.1-0.4,3.1c-0.1,0.4-0.2,0.9-0.3,1.4
	s-0.3,0.9-0.5,1.4c-0.1,0.4-0.3,0.7-0.4,1.1c-0.2,0.7-0.3,1.4-0.4,2.1c-0.1,0.4-0.1,0.7-0.1,1.1s-0.1,0.8-0.1,1.2s0,0.8,0,1.2v0.2
	c0.1,0.2,0.1,0.3,0.1,0.5c-0.3-0.1-0.6-0.1-0.9-0.1C499,636.4,497.3,624.8,496,613.2z M504.7,557.2c-0.4-5-0.9-10-1.5-14.9
	c-0.1-0.7-0.2-1.4-0.3-2.1s-0.2-1.4-0.3-2.1c-0.2-1.2-0.3-2.4-0.5-3.6c0.5,2.4,1,4.8,1.5,7.2c0.2,1.1,0.4,2.2,0.6,3.3
	c0.4,2.2,0.7,4.5,0.9,6.8c0.2,1.4,0.3,2.9,0.4,4.3c0.3,4.3,0.6,8.6,0.9,12.9l0.1,2.1c0.1,0.4,0.1,0.8,0.1,1.1c0.1,2,0.2,3.9,0.3,5.9
	c0.3,5.9,0.4,11.8,0.3,17.7c0,1.8-0.2,3.7-0.4,5.5c-0.1,1.4-0.2,2.8-0.3,4.2c-0.1,0.4-0.1,0.9-0.1,1.4c0.1,1.7,0.1,3.3,0.1,4.9
	s0,3.2-0.1,4.8c-0.1,1.1-0.2,2.1-0.3,3.2c-0.1,0.5-0.1,1.1-0.2,1.6c-0.2-1.6-0.3-3.2-0.4-4.8c-0.1-1.3-0.2-2.7-0.2-4.1
	s-0.1-2.7-0.1-4.1c-0.1-4.8-0.4-9.3-0.6-14l-0.1-2c0-3.2,0-6.5,0.1-9.8c0-1.1,0.1-2.2,0.1-3.3c0.1-4.4,0.3-8.8,0.3-13.2
	C505,563.1,504.9,560.1,504.7,557.2L504.7,557.2z M490,661.4c0-0.2,0.1-0.4,0.4-0.5c0.3-0.4,0.6-0.8,1-1.1c1.9-2,3.5-4.2,4.8-6.6
	c0.5-0.8,1.3-1.6,2.2-2.1c0.7-0.5,1.6-1.1,2.4-1.7l0,0h0.2c0.6,0.1,1.2,0.1,1.8,0.1l0,0c0.4,0.9,0.9,1.8,1.4,2.6l0,0
	c0.1,0,0.1,0.1,0.1,0.1l0.3,0.3l0,0c0.7,0.9,1.3,1.7,2,2.5l0,0c-0.3,0.4-0.6,0.8-1,1.1c-0.9,0.5-1.7,1.2-2.3,2
	c-0.4,0.8-0.7,1.7-0.8,2.6c-0.2,1.2-0.3,2.3-0.5,3.4c-1.7-0.5-3.4-0.9-5.1-1.1c-0.2,0-0.4,0-0.6,0c-0.3,0-0.5,0.1-0.7,0.2l-0.2,0.1
	c-0.1-0.3-0.1-0.6-0.2-0.9c-0.1-0.4-0.3-0.7-0.6-0.9l0,0l0,0c-0.6-0.6-1.3-0.8-2.1-0.8h-0.2C491.4,660.9,490.6,661.3,490,661.4
	L490,661.4z M503.2,665.8l0.6,0.2l0.2,0.1l1.5,0.5c0.7,0.2,1.4,0.5,2,0.9l0.1,0.3c0,0,0,0,0,0.1s0,0.2,0,0.2c0,0.2,0,0.3-0.1,0.5
	c-0.1,0.1-0.1,0.1-0.1,0.2c-0.1,0.2-0.2,0.4-0.3,0.5l0,0c-0.1,0.1-0.2,0.1-0.3,0.2l0,0c-0.2,0.1-0.4,0.2-0.6,0.2c-0.3,0-0.6,0-0.9,0
	c-1.3-0.2-2.6-0.5-4-0.7c-0.4-0.1-0.9-0.2-1.3-0.3c-0.1,0-0.2-0.1-0.3-0.1c-0.4-0.1-0.8-0.3-1.2-0.5c-0.3-0.1-0.6-0.3-0.8-0.5
	c-0.2-0.2-0.4-0.4-0.5-0.6c0,0-0.1-0.1-0.1-0.2c0-0.2-0.1-0.3-0.2-0.5c0-0.1-0.1-0.1-0.1-0.2V666c0-0.1-0.1-0.1-0.1-0.2
	c0-0.1-0.1-0.3-0.1-0.4s0-0.1,0-0.1c0-0.2-0.1-0.5-0.1-0.7c0-0.1,0-0.1,0-0.2h0.3c1.7,0.2,3.4,0.6,5.1,1.1l0.6,0.2l0.7,0.2
	L503.2,665.8z M473.2,719.2c0,0.2-0.1,0.3-0.2,0.4c-0.1,0.3-0.4,0.5-0.6,0.7l-0.3,0.3c-0.2,0.2-0.4,0.4-0.6,0.6
	c-0.2,0.2-0.3,0.4-0.5,0.6c-0.6,0.6-1.1,1.4-1.5,2.2c-0.3,0.7-0.5,1.5-0.5,2.3c-0.1,0.7-0.2,1.3-0.5,1.9c-0.1,0.3-0.3,0.5-0.5,0.7
	c-0.1,0.1-0.3,0.2-0.5,0.2c-0.2,0-0.4,0-0.5-0.1c-0.4-0.2-0.6-0.6-0.6-1c0-0.2,0-0.3,0-0.5c0.5-1.2,0.7-2.6,0.8-3.9
	c0-0.3-0.1-0.5-0.1-0.8c-0.2-0.6-0.4-1.2-0.7-1.7c-0.2-0.3-0.4-0.7-0.5-1c0,0-0.1-0.1-0.1-0.2v-0.2c0-0.1,0-0.3,0-0.4
	c0.1-0.3,0.2-0.5,0.3-0.7c0.1-0.2,0.3-0.4,0.5-0.6c0.5-0.5,1.2-0.8,1.9-0.9l0,0c1.2,0,2.5,0.4,3.5,1.1c0.2,0.2,0.6,0.4,0.8,0.6
	l0.3,0.3L473.2,719.2L473.2,719.2L473.2,719.2L473.2,719.2z M479.9,703.8c-0.1,0.4-0.4,0.8-0.7,1.1c-0.4,0.5-0.8,1-1.1,1.5
	c-0.5,1-1.1,1.8-1.7,2.8c-0.4,0.8-0.7,1.5-0.9,2.3c-0.7,2.2-1.3,4.4-1.5,6.7c-0.2-0.2-0.3-0.3-0.5-0.5c-0.3-0.3-0.6-0.5-0.8-0.6
	c-1.2-0.9-2.8-1.3-4.3-1.3h-0.1c-0.4,0-0.8,0.1-1.2,0.3c0.4-0.4,0.8-0.9,1.1-1.2c2.7-3.2,3.6-7.3,3.5-11.2v-0.4
	c0-0.3-0.1-0.6-0.1-0.9c-0.1-0.5,0-1,0.3-1.5c0.1-0.1,0.1-0.2,0.2-0.3c0.1-0.2,0.2-0.3,0.4-0.5l0.2-0.2l0.4-0.2
	c0.2-0.1,0.5-0.2,0.7-0.2h0.1c1.6,0,3.2,0.6,4.5,1.5c0.2,0.1,0.4,0.3,0.5,0.5c0.1,0,0.1,0.1,0.1,0.1l0.5,0.7l0,0
	c0.1,0.2,0.2,0.4,0.3,0.6c0.1,0.2,0.2,0.4,0.2,0.6L479.9,703.8z M492.5,673.5c-0.2,0.2-0.6,0.5-0.9,0.7l-0.4,0.3l-0.3,0.2
	c-0.7,0.7-1.3,1.4-1.9,2.2c-1.1,1.6-1.9,3.3-2.5,5.1c-0.9,2.8-1.6,5.6-2.1,8.5c-0.2,1.4-0.3,2.7-0.4,4c-0.1,1.2-0.4,2.5-1,3.6
	c-0.6,1.1-1.3,2.2-2,3.2h-0.1l0,0c-0.2-0.3-0.4-0.5-0.6-0.8c-0.2-0.3-0.5-0.6-0.8-0.8c-1.5-1.1-3.3-1.7-5.2-1.8H474
	c-0.7,0-1.3,0.3-1.8,0.7l0,0c-0.2-0.1-0.3-0.3-0.5-0.5c-0.2-0.2-0.4-0.5-0.4-0.8v-0.4c0.2-0.6,0.4-1,0.7-1.5l2.6-4.7
	c0.6-1.3,1.1-2.6,1.4-4c1.2-3.3,2.5-6.6,3.9-9.8c0.8-2.1,1.7-4.2,2.8-6.2c0.5-0.8,1.2-1.5,1.9-2.2l0.4-0.3l0.6-0.5l0.1-0.1l0.4-0.3
	c0.1,0,0.1-0.1,0.2-0.1l0.2-0.1l0,0c1.6,0.3,3,1.1,4.1,2.3c0,0.1,0,0.1,0.1,0.2c0.4,0.5,0.8,1.1,1.1,1.7c0.2,0.4,0.3,0.7,0.4,1.1
	c0.1,0.3,0.2,0.7,0.2,1.1L492.5,673.5z M496.7,670.7c0,0.4-0.2,0.6-0.5,0.6l-0.2,0.1l0,0c-0.3,0.2-0.6,0.3-1,0.3c-0.5,0-1,0-1.4-0.2
	c-0.2,0-0.3-0.1-0.5-0.2c-0.3-1.1-0.9-2.1-1.7-3c-1.3-1.4-3-2.3-4.9-2.7h-0.3c-0.3,0-0.6,0.1-0.9,0.3c0,0.1-0.1,0.2-0.2,0.2
	c0-0.6,0-1.1,0.1-1.7c0.2-0.7,0.6-1.3,1.2-1.6c0.2-0.1,0.5-0.2,0.8-0.2c0.5,0,1,0,1.5,0c0.2,0,0.5,0,0.8,0h0.1h0.4
	c0.1,0,0.3-0.1,0.4-0.1c0.8-0.2,1.5-0.5,2.1-0.6h0.1c0.4,0,0.8,0.1,1.1,0.4l0.1,0.1l0.2,0.3c0.1,0.2,0.1,0.6,0.2,1
	c0,0.1,0.1,0.3,0.1,0.4c0,0.2,0,0.3,0.1,0.4c0.2,0.3,0.4,0.6,0.7,0.9l0.2,0.2c0.1,0.2,0.1,0.4,0.2,0.6c0,0.2,0.1,0.3,0.1,0.4
	c0.1,0.3,0.2,0.5,0.3,0.7c0.1,0.1,0.1,0.2,0.2,0.3c0.2,0.3,0.4,0.6,0.7,0.9c0.1,0.2,0.3,0.3,0.5,0.4h0.1c-0.1,0.1-0.1,0.3-0.2,0.5
	C497,669.9,496.8,670.3,496.7,670.7L496.7,670.7z M496.5,708.4c-0.2-1.1,0.1-2.2,1.1-3.2c1.2-1.3,2.3-2.8,3.1-4.4
	c0.7-1.8,1.1-3.6,1.1-5.5c0.1-1.4,0.1-2.9,0-4.3c-0.2-2.5-0.6-4.9-1.2-7.3c-0.6-2.3-1.6-4.3-2.1-6.4c-0.3-1.7-0.7-3.3-1.3-4.9
	c0.4-0.3,0.6-0.7,0.8-1.2c0.1-0.4,0.2-0.8,0.4-1.2c0.1-0.2,0.1-0.3,0.2-0.5l0.2,0.1l0.4,0.1c0.2,0.1,0.5,0.1,0.7,0.2l0.3,0.1
	l0.7,0.1h0.2c1.3,0.2,2.7,0.5,4.1,0.7c0.4,0,0.7,0,1.1,0h0.3h0.2c0.1,0.2,0.1,0.4,0.2,0.6c0.1,0.4,0.2,0.7,0.2,1.1
	c0.1,1.2-0.1,2.3-0.6,3.4c-0.2,0.4-0.6,0.8-0.9,1.5c-0.1,0.3-0.1,0.5-0.2,0.8v0.1c-0.1,0.1-0.1,0.2-0.1,0.3c0,0.2-0.1,0.3-0.1,0.4
	c-0.1,0.1-0.1,0.3-0.1,0.4s0,0.1,0,0.1c-0.1,0.2-0.1,0.4-0.1,0.6v0.1c-0.2,1.1-0.2,2.2-0.1,3.3c0,0.4,0,0.9,0.1,1.4
	c0.1,0.7,0.2,1.4,0.2,2.1c0.1,1.7,0.1,3.3,0.2,5c0,0.6,0.1,1.1,0.1,1.6c0.2,2.9,0.6,5.8,1.4,8.6c0.1,0.4,0.2,0.7,0.3,1.1l0,0
	c0,0.1,0.1,0.2,0.1,0.3c0.2,0.4,0.3,1,0.4,1.2c0.1,0.2,0.1,0.5,0.2,0.7s0.1,0.5,0.1,0.7c0,0.1,0,0.3,0,0.5c-0.1,1.1-0.4,2.1-0.9,3.1
	c-0.2,0.4-0.4,0.8-0.6,1.2v0.1c-0.3,0.3-0.5,0.7-0.8,1l0,0c-0.3,0.3-0.6,0.6-1,0.8l0,0l-0.2,0.1l-0.6-0.5c-0.9-0.8-1.9-1.4-2.9-2
	c-1-0.5-2.1-0.7-3.2-0.7h-0.4c-0.2,0-0.5,0.1-0.7,0.2C496.6,709.5,496.5,708.9,496.5,708.4L496.5,708.4z M506.6,686.9
	c0-0.7-0.1-1.5-0.2-2.2c0-0.4-0.1-0.8-0.1-1.2c0.2,0.8,0.5,1.5,0.7,2.3c0.3,1.3,0.5,2.6,0.6,3.9c0.1,1.4,0.1,2.9,0.1,4.4
	c0,1.4-0.1,2.9-0.2,4.3c-0.2-1.6-0.4-3.3-0.6-5c0-0.5-0.1-1-0.1-1.5C506.7,690.2,506.7,688.6,506.6,686.9L506.6,686.9z M492.8,736.8
	c0.3-0.3,0.6-0.7,0.9-0.7c1.1-1.7,1.3-3.4,1.8-5c0.8-2.5,1.1-5,0.9-7.6c-0.2-2.4-0.6-4.7-1.4-7c0-0.2-0.1-0.5-0.1-0.7
	c0-1,0.3-2,0.8-2.8c0.2-0.2,0.3-0.4,0.5-0.6c0.1-0.2,0.3-0.4,0.5-0.5s0.4-0.2,0.6-0.3c0.2-0.1,0.4-0.2,0.6-0.2h0.3
	c0.8,0,1.7,0.2,2.5,0.6c0.9,0.5,1.8,1.1,2.6,1.8c0,0,0,0.1,0.1,0.1l0.1,0.1c-0.1,0.1-0.1,0.3-0.1,0.5l0,0c0,0.2,0.1,0.4,0.2,0.6
	c0.1,0.4,0.4,0.8,0.7,1.1c0.1,0.1,0.3,0.3,0.4,0.4c-0.2,0.9-0.6,1.7-1,2.5c-1.5,3.2-2.6,6.7-3.4,10.2c-0.7,2.5-1.2,5.1-1.7,7.7
	c0,0.2-0.1,0.4-0.1,0.6c-0.1,0.7-0.2,1.5-0.4,2.3c-0.1,0.2-0.2,0.5-0.3,0.7c0-0.2-0.1-0.4-0.3-0.6c-0.1-0.2-0.4-0.3-0.6-0.5
	l-3.8-2.6C493,736.9,492.9,736.8,492.8,736.8L492.8,736.8z M480.7,747.1l0.3-0.2l0.3,0.1l0,0c1.5-0.2,2.9-0.9,3.9-2c2-2,3.1-4.5,5-6
	c0.2-0.2,0.4-0.4,0.6-0.5s0.4-0.2,0.6-0.3c0.1,0,0.3-0.1,0.4-0.1c0,0,0.1,0.1,0.2,0.1s0.1,0,0.2,0c1.3,0.8,2.5,1.7,3.8,2.5
	c0.1,0.1,0.3,0.2,0.4,0.3l0.1,0.1l0,0c0,0.2-0.1,0.4-0.2,0.6c0,0.1-0.1,0.2-0.2,0.3c0,0.1-0.1,0.1-0.2,0.2c-0.1,0-0.2,0.1-0.3,0.2
	l-0.1,0.1c0,0-0.1,0.1-0.2,0.1c-0.2,0.1-0.4,0.2-0.6,0.3c-1.2,0.4-2.3,1-3.3,1.8c-0.3,0.3-0.7,0.6-1.1,0.9l0,0c-1.9,1.4-3.9,2.7-6,4
	c0-0.2-0.1-0.3-0.2-0.5c-0.2-0.1-0.3-0.2-0.4-0.3c-0.2-0.2-0.6-0.4-0.9-0.6l-0.1-0.1c-0.3-0.2-0.6-0.4-1-0.5
	c-0.2-0.1-0.5-0.2-0.7-0.3c0-0.1-0.1-0.1-0.2-0.1L480.7,747.1z M480.7,750.6c-0.5,0.3-1.2,0.5-2.2,0.6c-0.4,0.1-0.7,0.1-1.1,0.1l0,0
	h-0.5h-0.4c-0.3,0-0.6,0-1,0h-0.1h-0.5c-0.1-0.2-0.3-0.5-0.3-0.8l0,0c0-0.1,0-0.3,0.1-0.4l0.2-0.1c0.2-0.1,0.4-0.1,0.6-0.1h0.5
	c0.2,0,0.3,0,0.5,0c0.9-0.2,1.7-0.6,2.5-1l0.5-0.3c0.1,0,0.2-0.1,0.3-0.1h0.2h0.1h0.1c0.2,0.1,0.5,0.2,0.8,0.3h0.1
	c0.2,0,0.3,0.1,0.5,0.2l0.3,0.3c0.3,0.1,0.6,0.3,0.8,0.5l0.2,0.2l-0.2,0.1h-0.1l0,0c-0.3,0-0.6,0.1-0.8,0.2l-0.8,0.2
	C480.9,750.5,480.8,750.6,480.7,750.6L480.7,750.6z M495.7,749.2c-0.1,0.2-0.2,0.4-0.3,0.5c-0.2,0.2-0.4,0.4-0.7,0.6
	c-0.3,0.1-0.7,0.2-1,0.2h-0.8c-2.6,0.3-5.3,0.6-7.9,1c-1.5,0.2-2.8,0.6-4,0.7c-0.4,0-0.8,0-1.2,0h-0.1c0.6-0.1,1-0.2,1.6-0.3
	s1.2-0.3,1.8-0.5l0,0c0.2,0.1,0.4,0.1,0.6,0.1c0.4,0,0.8-0.2,1.2-0.4l0,0c2-1.3,4.1-2.6,6.1-4.1l0,0c0.9,0.3,1.8,0.5,2.8,0.6
	c0.1,0,0.2,0,0.3,0l0,0l0.1,0.2l0.2,0.2h0.1l0.4,0.3c0.1,0.1,0.2,0.2,0.3,0.2l0,0l0,0h0.1l0,0c0,0.2,0.1,0.4,0.1,0.6L495.7,749.2z
	 M495.8,745.4c-0.1,0.2-0.4,0.4-0.8,0.6c-0.2,0.1-0.4,0.2-0.6,0.2h-0.7c-0.4-0.1-0.9-0.2-1.4-0.3c0,0-0.1-0.1-0.2-0.1
	c0.1-0.1,0.1-0.1,0.2-0.2c0.9-0.7,1.9-1.2,3-1.6c0.3-0.1,0.6-0.3,0.9-0.5l0.2-0.1l0.5-0.4l0,0h0.1h0.2c0.4-0.2,0.8-0.4,1.1-0.7
	c0.1-0.2,0.2-0.3,0.3-0.5c0.3-0.3,0.5-0.8,0.6-1.2c0.1-0.4,0.2-0.9,0.3-1.3c0.1-0.9,0.2-1.7,0.3-2.2c0.4-2.6,1-5.1,1.7-7.6
	c0.2-0.7,0.4-1.4,0.6-2.1l0.5-1.8c0.2-0.7,0.4-1.4,0.6-2.1c0.1-0.1,0.1-0.3,0.2-0.4c0.1-0.4,0.2-0.9,0.4-1.3c0.3-0.8,0.6-1.6,1-2.4
	l0,0c0.2-0.4,0.4-0.9,0.6-1.3c0.1-0.1,0.1-0.1,0.1-0.1c0.1-0.2,0.2-0.5,0.3-0.8c0-0.1,0.1-0.3,0.1-0.4l0,0h0.1
	c0.2,0.1,0.4,0.2,0.6,0.2c1.2,0.3,2.3,0.8,3.2,1.6c0.3,0.2,0.5,0.4,0.7,0.6c0.1,0.1,0.1,0.1,0.2,0.2c0.3,0.2,0.5,0.5,0.7,0.8
	c0.1,0,0.1,0.1,0.1,0.3v0.2c0,0.2,0,0.3,0,0.5v0.1c-0.1,0.4-0.3,0.8-0.5,1.1l-4.7,8.3c-1.5,2.7-3.5,5.2-5.2,7.9
	c-0.4,0.7-0.8,1.3-1.2,1.9c-0.2,0.3-0.4,0.6-0.6,0.9c-0.2,0.3-0.5,0.5-0.7,0.8c-0.1,0.1-0.1,0.2-0.2,0.2
	C497.5,743.3,496.6,744.3,495.8,745.4L495.8,745.4z M512.3,719.4c0.6,0.3,1.1,0.5,1.6,0.5h0.3h0.1c1,0.6,1.8,1.6,2.3,2.7
	c0.1,0.2,0.1,0.4,0.1,0.6c0,1.2-0.3,2.4-0.9,3.5c-1.9,4.4-5.1,8.1-8.3,11.7c-2.6,3.1-5.5,6-8.6,8.5c-0.4,0.3-0.8,0.6-1.2,0.7h-0.3
	c-0.6,0-1.1-0.1-1.6-0.3l-0.3-0.1l0,0c0.1,0,0.2,0,0.3-0.1c0.3-0.3,0.6-0.6,0.9-1c0.9-1.1,1.7-2.1,2.7-3c0.5-0.6,1-1.2,1.4-1.9
	c0.4-0.6,0.8-1.2,1.2-1.9c0.4-0.7,0.9-1.4,1.3-2c1.4-2,2.8-3.9,4-6c1.6-2.7,3.1-5.5,4.7-8.3c0.3-0.5,0.5-1,0.6-1.5
	c0.1-0.3,0.1-0.7,0.1-1v-0.1c0-0.1-0.1-0.3-0.1-0.4c0-0.2-0.1-0.3-0.2-0.5l0,0l0,0L512.3,719.4L512.3,719.4z M517,705.1
	c0.1,0.2,0.2,0.5-0.2,0.7c-0.1,2.6-1.5,4.7-2.3,7.5c-0.2,0.8-0.5,1.6-0.9,2.3c-0.2,0.4-0.4,0.8-0.6,1.2c-0.1,0.3-0.3,0.5-0.6,0.7
	c-0.1,0.1-0.3,0.2-0.4,0.2c-0.3,0.1-0.6,0.2-0.9,0.2c-1.4-1.3-3.1-2.2-4.9-2.5H506c-0.1,0-0.3,0-0.4,0c-0.1-0.1-0.2-0.2-0.3-0.3
	c0-0.1-0.1-0.1-0.1-0.2c-0.2-0.2-0.4-0.4-0.5-0.7l0,0l0.1-0.1c0.2-0.1,0.4-0.2,0.6-0.3h0.1l0,0c0.4-0.3,0.8-0.6,1.1-1
	c0-0.1,0.1-0.1,0.1-0.1c0.3-0.4,0.6-0.8,0.9-1.2c0.1-0.1,0,0,0.1-0.1c0.1-0.1,0.1-0.3,0.2-0.4c0,0,0.1-0.1,0.1-0.2s0-0.1,0-0.1l0,0
	c0.1-0.2,0.2-0.4,0.3-0.6l0,0c0.5-1.1,0.9-2.3,1-3.5c0-0.2,0-0.5,0-0.7c-0.1-0.6-0.3-1.3-0.5-2c-0.1-0.4-0.3-0.8-0.4-1.2l0,0
	c0-0.3-0.1-0.6-0.2-0.9c0.4-2.6,0.7-5.2,0.6-7.8c0-1.5,0-2.9-0.1-4.4c-0.1-1.4-0.3-2.8-0.7-4.2c-0.5-1.8-1.1-3.5-1.9-5.2l0,0
	c0.1-0.6,0.2-1.1,0.3-1.7c0.1-0.2,0.1-0.4,0.2-0.5c0.2-0.4,0.6-0.8,0.9-1.5c0.6-1.3,0.8-2.6,0.7-4c-0.1-0.5-0.2-0.9-0.3-1.4
	c-0.1-0.2-0.2-0.5-0.3-0.8l0,0l0.1-0.1c0.1-0.1,0.1-0.2,0.2-0.2c0.2-0.2,0.4-0.5,0.5-0.8c0.1-0.1,0.1-0.1,0.1-0.2l0,0l0,0
	c0.9,0.3,1.9,0.7,2.8,1s1.8,0.5,2.8,0.5l0,0c0.3,0.5,0.4,1.2,0.4,1.8v0.1c0.2,2.5,0.3,5,0.5,7.5c0.1,2.1,0,4.2,0.1,6.3
	c0.1,0.5,0.1,1.1,0.2,1.7c0.6,3.1,0.6,6.2,0.9,9.4l0.2,2.4c0,0.5,0,1.1,0.1,1.6C516.7,702.6,516.9,703.9,517,705.1L517,705.1z
	 M509.6,659.8c2,1.8,3.6,3.9,4.9,6.1c0.1,0.2,0.3,0.3,0.5,0.3c0,0.5,0.1,0.9,0.1,1.3s0,0.9,0,1.3c-0.2,0.1-0.4,0.2-0.6,0.2h-0.1
	c-0.9,0-1.7-0.1-2.5-0.4l0,0c-0.9-0.2-1.9-0.6-2.9-1c0-0.5-0.3-0.9-0.6-1.2c-0.8-0.5-1.6-0.9-2.5-1.1c-0.9-0.3-1.9-0.5-2.8-0.8
	c0.1-1.2,0.3-2.3,0.5-3.5c0.1-0.5,0.1-0.9,0.2-1.2c0.1-0.4,0.2-0.7,0.4-1c0.5-0.7,1.2-1.2,1.9-1.7c0.4-0.4,0.8-0.8,1.1-1.2l0,0
	c0.4,0.4,0.8,0.8,1.2,1.2l0,0c-0.1,0.2-0.1,0.4-0.1,0.6v0.1l0,0c0,0.4,0.2,0.9,0.5,1.2C509.1,659.3,509.3,659.6,509.6,659.8
	L509.6,659.8z M512.6,490.1c0,1.3-0.4,2.5-1.1,3.5c-0.7,0.7-1.3,1.4-1.7,2.2c-0.4,1-0.7,2-0.9,3c-0.6,3.3-0.8,6.7-0.5,10
	c0,1,0.1,2,0.2,3c0.1,1.9,0.3,3.9,0.4,5.9c0.2,3.4,0.4,6.9,0.6,10.3l0.1,1.7c0.3,4.4,0.9,8.8,1.4,13.1s0.9,8.7,1.3,13
	c0.5,4.7,1.3,9.4,1.6,14.1c0.1,1.1,0.1,2.2,0.1,3.2c0,6,0.1,12.1,0.3,18.1s0.1,12.1,0,18s-0.1,11.8-0.7,17.6
	c-0.2,3.2-0.2,6.3,0.1,9.4c0,0.2,0,0.3,0,0.5c0.1,2,0.4,4,0.7,6c0.3,1.6,0.9,3.3,1,4.8c0,0.3,0,0.7,0,1c-0.2,0.9-0.5,1.7-1,2.4
	c-0.5,0.9-0.7,1.8-1,2.4c-0.5,0.7-1.3,1.3-2.1,1.7s-1.6,0.7-2.4,1c-0.6-0.5-1.1-1.1-1.6-1.6c-0.9-0.9-1.7-2-2.4-3l0,0
	c-0.3-0.4-0.6-0.9-0.8-1.3c-0.1,0-0.1-0.1-0.1-0.1c-0.1-0.2-0.2-0.4-0.3-0.6c-0.1-0.3-0.2-0.5-0.3-0.8c0-0.1-0.1-0.2-0.1-0.3
	s0-0.1,0-0.2c0-0.3-0.1-0.5-0.1-0.8c0-0.7,0-1.5,0.1-2.2c0-1.3,0.3-2.5,0.8-3.7c0.8-2,1.2-4.1,1.3-6.3c0.1-1,0.2-2.1,0.3-3.2
	c0.2-1.6,0.3-3.1,0.5-4.7c0.3-2.3,0.5-4.7,0.8-7c0.4-4.3,0.5-8.7,0.3-13.1c-0.1-3.7,0.7-7.2,0.8-11.1c0.1-8-0.1-15.9-0.6-23.8
	c-0.1-1.1-0.1-2.1-0.2-3.2c-0.7-9.1-1-18.6-2.8-27.6c-1.1-5.4-2.3-10.8-3.6-16.1c-0.1-0.1-0.1-0.2-0.1-0.3l0,0
	c-0.3-1.5-0.8-3-1.2-4.5c-0.2-1-0.5-1.9-0.7-2.8c-0.1-0.6-0.2-1.1-0.2-1.7c0-1.7,0.2-3.5,0.6-5.2l0,0c0.2-1,0.5-1.9,0.7-2.8
	c0.5-2,1-3.9,1.5-5.9c0.3-0.9,0.3-1.7,0.3-2.6c-0.1-1.6-0.8-3.1-2-4.2l-0.2-0.2c-0.2-0.2-0.4-0.4-0.6-0.6c-0.1-0.2-0.2-0.4-0.2-0.7
	c0-0.1,0-0.2,0-0.3s0-0.1,0-0.2c0-0.5,0.2-0.9,0.4-1.3c1.4-1.6,3.1-2.9,5-3.8l0.2-0.1c0.8-0.5,1.7-0.8,2.7-0.9h0.1
	c0.3,0,0.6,0,0.9,0.1c0.8,0.1,1.6,0.3,2.4,0.6c0.6,0.2,1.2,0.5,1.6,1c0.2,0.4,0.4,0.8,0.4,1.3V490.1z M500.4,501.7
	c-0.1,0.8-0.3,1.6-0.7,2.4v-0.4c0.2-1.4,0.5-2.7,0.6-4.2c0-0.5,0-0.9,0-1.4c0.2,0.5,0.3,0.9,0.3,1.4c0,0.4,0,0.7,0,1.1
	S500.5,501.4,500.4,501.7L500.4,501.7z"/>
<path class="st0" d="M187.7,208.9c0.4-0.7,1-1.3,1.7-1.6c0.2-0.1,0.4-0.2,0.7-0.3c0.7-0.2,1.4-0.4,2.1-0.5c0.9-0.1,1.9-0.2,2.9-0.3
	h2.9c0.5,0,0.9,0.1,1.3,0.1l1.3,0.2c0.1-0.2,0.3-0.4,0.4-0.5c0.5-0.5,1.1-0.9,1.7-1.1c0.7-0.3,1.5-0.5,2.2-0.6
	c0.2-0.1,0.5-0.1,0.8-0.1c1.2-0.2,2.4-0.3,3.5-0.4c3.5-0.3,7-0.4,10.4-0.8c4.8-0.6,9.7-1.4,14.6-1.6c1.2-0.1,2.4-0.1,3.5-0.2
	c1.8-0.1,3.6-0.3,5.3-0.5c1.7-0.2,3.5-0.4,5.3-0.7c1.3-0.2,2.7-0.5,4-0.7l-0.7,1.5c-1,0.2-2,0.4-3.1,0.6c-4.7,0.7-9.5,1.2-14.3,1.5
	c-4.8,0.2-9.6,1-14.5,1.6c-4.9,0.6-9.3,0.5-13.9,1.3c-0.9,0.1-1.8,0.4-2.6,0.7c-0.7,0.3-1.4,0.8-1.8,1.5c-0.1,0.3-0.4,0.4-0.7,0.3
	c-1-0.2-1.9-0.3-2.9-0.3c-1.8-0.1-3.7-0.1-5.5,0.2c-0.8,0.1-1.6,0.3-2.3,0.7c0,0-0.1,0-0.1,0.1c-0.3,0.2-0.6,0.4-0.8,0.6h0.2
	c1.6,0.2,3.1,0.5,4.6,1c1,0.3,1.9,0.4,2.9,0.5h0.4c0.3,0,0.6,0,0.9-0.1c0.4-0.1,0.8-0.1,1.2-0.1c0.2,0,0.4,0.1,0.6,0.1h0.1
	c0.1,0,0.2,0.1,0.3,0.1l0.3,0.3c0.1,0.1,0.1,0.1,0.2,0.2c0.2,0.2,0.3,0.4,0.5,0.6c0.2,0.1,0.4,0.2,0.6,0.2h0.8l3.8-0.4
	c3.8-0.4,7.5-0.7,11.4-0.7c1.5,0,3.1,0,4.7,0.1h1c0.8,0,1.5,0.1,2.2,0.2c0.7,0.1,1.2,0.2,1.8,0.3l0.4,0.1l0.5,0.1l0.8,0.2
	c0.8,0.2,1.6,0.5,2.4,0.9c0.2,0.1,0.4,0.1,0.5,0.2l1.1-0.6l4.4-2.3l1.8-0.9l0.4-0.1h0.2c1.9,0.1,3.8,0.1,5.6-0.2h0.3
	c0.6-0.1,1.2-0.2,1.9-0.3l-0.7,1.4l-1,0.1c-0.5,0.1-1,0.2-1.6,0.2h-0.2c-0.6,0.1-1.2,0.1-1.9,0.1h-0.6c-0.7,0-1.3,0-2-0.1l-2.2,1.2
	l-1.5,0.8l-0.7,0.4l-1.2,0.6l-1.8,0.9c-0.1,0-0.2,0.1-0.3,0.1s-0.2,0-0.3-0.1c-1.9-1-4-1.6-6.1-1.8c-0.7-0.1-1.5-0.2-2.3-0.2
	c-0.5,0-1,0-1.4-0.1c-1.4,0-2.8-0.1-4.1,0c-1.1,0-2.3,0.1-3.4,0.1l-1,0.1l-2.5,0.2l-0.9,0.1c-2.4,0.2-4.7,0.4-7.1,0.7h-1
	c-0.2,0-0.4-0.1-0.6-0.1h-0.2c-0.1,0-0.2-0.1-0.3-0.1c-0.1,0-0.1-0.1-0.2-0.1l-0.1-0.1l-0.3-0.3l-0.1-0.1l-0.1-0.2
	c-0.1-0.1-0.2-0.2-0.2-0.3l-0.1-0.1c-0.1,0-0.2-0.1-0.3-0.1H199c0.1,0.1,0.1,0.1,0.2,0.2c1.2,1.1,2.4,2.3,3.4,3.5c0,0,0.1,0,0.1,0
	c0.2,0.4,0.5,0.6,0.9,0.7c0,0.1,0,0.2,0.1,0.2h-0.1c0.2,0.3,0.5,0.7,0.7,1l0.3-0.1l0.4-0.1c0.4,0,0.7-0.2,0.9-0.4c0,0,0,0,0,0
	c0.4,0,0.8-0.2,1-0.4c0.1,0,0.1,0,0.2,0.1c0.3,0.1,0.7,0.2,1,0.4c0.4,0.2,0.8,0.6,1,1v0.1c0.2,0.4,0.2,0.8,0.2,1.1
	c0,0.4-0.1,0.8-0.3,1.2c-0.3,0.6-0.8,1.1-1.3,1.6l-0.8,0.8c0.2,0.4,0.3,0.9,0.4,1.3c0.1,0.4,0.3,0.8,0.4,1.2
	c0.2,0.8,0.4,1.6,0.5,2.4v0.3c0.1,0.7,0.2,1.4,0.2,2.1v0.5c0.1,0.8,0.1,1.7,0,2.5c0,0.3,0,0.5-0.1,0.8c0,0.5-0.1,1-0.2,1.6
	c1.5,1.4,3,2.8,4.3,4.4c0.7,0.7,1.2,1.5,1.6,2.4c0.4,0.9,0.6,1.9,0.6,2.8c0,1.9,0.3,3.8,1,5.5c0.6,1.3,2,2.2,3.5,3.2
	s2.9,2.2,4.2,3.3c0.1-0.9,0.3-1.7,0.6-2.5c1.1-2.9,2.9-5.5,5.4-7.5c-0.9-3.5,1.9-6.4,4.1-8.6c0.3-0.3,0.6-0.7,0.9-1l0.3-0.3
	c-0.5,1.1-1,2.3-1.5,3.4c-1.7,1.8-3.1,3.9-2.5,6.1l-0.6,1.6c-2.2,1.8-3.9,4.1-4.8,6.7c-0.4,1-0.6,2-0.7,3.1v1.9
	c0,0.2,0.1,0.5,0.1,0.7c-0.8,0.3-1.6,0.6-2.3,0.9c0.3-0.2,0.7-0.5,1-0.7c-0.1-0.7-0.2-1.5-0.2-2.2c-1.5-1.4-3.2-2.6-4.9-3.9
	c-1.4-1-3-2-3.9-3.7c-0.7-1.9-1.1-3.9-1.1-6c0-0.6-0.1-1.3-0.3-1.9c-0.1-0.2-0.1-0.3-0.2-0.5c-0.3-0.6-0.7-1.2-1.2-1.7
	c-0.1-0.1-0.1-0.2-0.2-0.3c-0.2-0.3-0.5-0.5-0.7-0.8c-0.9-1-1.9-2-2.9-2.9c-0.1,0.2-0.1,0.4-0.1,0.7c-0.2-0.4-0.5-0.8-0.8-1.1
	c0.1-0.3,0.1-0.7,0.1-1c0.1-0.7,0.2-1.4,0.2-1.9v-3.8c0-0.6-0.1-1.2-0.2-1.8v-0.6c-0.1-0.6-0.3-1.3-0.4-1.9c0-0.2-0.1-0.3-0.1-0.5
	c-0.1-0.3-0.2-0.6-0.3-1h-0.4c-0.1-0.5-0.2-0.9-0.3-1.4c0.1,0,0.1,0,0.2,0h0.1c0,0,0,0,0-0.1c0-0.1-0.1-0.2,0-0.3
	c0-0.1,0.1-0.2,0.2-0.3l0.7-0.7l0.4-0.4l0.4-0.8c0.2-0.2,0.3-0.4,0.5-0.6c0.1-0.2,0.2-0.4,0.2-0.7c0-0.2,0-0.4-0.1-0.5
	c0-0.1-0.1-0.1-0.1-0.1l-2.6,0.8l-1.3,0.4l-0.3,0.1c-0.2-0.3-0.5-0.6-0.7-0.9l0.4-0.1c-0.3-0.4-0.5-0.8-0.8-1.1
	c-0.3-0.3-0.4-0.5-0.7-0.8l-0.6-0.6l-0.5-0.6l-0.1-0.1c-0.3-0.4-0.7-0.7-1-1.1l-0.1-0.1l-0.2-0.2c-0.3-0.3-0.6-0.6-0.9-0.8l-0.4-0.4
	l-0.5-0.4l-0.5-0.4c-0.5,0-0.9-0.1-1.3-0.2c-0.4-0.1-1.1-0.2-1.6-0.4c-1.2-0.3-2.3-0.6-3.3-0.8c-0.4-0.1-0.7-0.1-1.1-0.1h-1.2
	c-0.2,0-0.3,0-0.4-0.1c0,0-0.1,0-0.1,0c-0.1-0.6-0.3-1.1-0.5-1.6C187.7,208.9,187.7,208.9,187.7,208.9z"/>
<polygon class="st1" points="162.4,502.1 162.4,502.1 162.7,502.2 "/>
<polygon class="st1" points="162.4,502.1 162.4,502.1 162.7,502.2 "/>
</svg>
