<?xml version="1.0" encoding="utf-8"?>
<!-- Generator: Adobe Illustrator 20.0.0, SVG Export Plug-In . SVG Version: 6.00 Build 0)  -->
<svg version="1.1" id="Layer_1" xmlns="http://www.w3.org/2000/svg" xmlns:xlink="http://www.w3.org/1999/xlink" x="0px" y="0px"
	 viewBox="0 0 648 864" style="enable-background:new 0 0 648 864;" xml:space="preserve">
<style type="text/css">
	.st0{fill:none;}
	.st1{fill:#CCCCCC;}
	.st2{fill:#FFFFFF;}
	.st3{fill:none;stroke:#231F20;stroke-width:0.25;stroke-miterlimit:10;}
	.st4{fill:none;stroke:#0A3B59;stroke-width:2;stroke-miterlimit:10;stroke-dasharray:6,6;}
	.st5{fill:#0A3B59;}
	.st6{fill:none;stroke:#2A8ECD;stroke-width:2;stroke-miterlimit:10;stroke-dasharray:6;}
	.st7{fill:#1578B5;}
	.st8{font-family:'AvenirNext-Regular';}
	.st9{font-size:24px;}
</style>
<title>female-transradial-R</title>
<path class="st0" d="M460.7,450.9c7.5-0.8,15.1-1.4,22.7-1.9C475.8,450,468.3,451.1,460.7,450.9z"/>
<path class="st1" d="M149.1,542c0.8-9.4,3-15.7,3.8-29.4c0.7-11.5,0-15.6,1.4-29.2c1.2-12.1,2.6-18.2,4-22.8
	c1.6-5.4,3.7-10.7,6.2-15.8c2.2-43.4,5.4-70.8,8.2-88.3c2.2-14.3,3.8-20.2,4.3-32.8c0.6-18.3-2-27.4,2.5-39.7
	c2.6-6.6,5.8-13,9.5-19.1c3.8-6.1,8.5-11.6,13.9-16.3c8.2-7.1,17.1-13.3,26.5-18.7c29.1-15.5,40.3-11.9,51.4-21
	c10.1-8.2,19-26,13.3-67.7h30.1h30.1c-5.8,41.8,3.1,59.5,13.3,67.7c1,0.8,2,1.5,3.1,2.2c10.2,6.3,21.8,4.7,48.3,18.8
	c9.4,5.3,18.3,11.6,26.5,18.7c5.5,4.7,10.2,10.2,13.9,16.3c3.7,6.1,6.9,12.5,9.5,19.1c4.5,12.3,1.9,21.4,2.5,39.7
	c0.4,12.6,2,18.5,4.3,32.8c2.7,17.5,6,44.9,8.2,88.3c2.5,5.1,4.6,10.3,6.2,15.8c1.3,4.5,2.8,10.6,4,22.8c1.3,13.6,0.6,17.7,1.4,29.2
	c0.8,13.7,3,20,3.8,29.4c2.8,32.7-5,49.1-3.6,78.5c0.1,2.1,0.5,8.6,0.6,17.7c0.2,11.7-0.2,12.6,0,19.8c0.5,21,4.4,23.2,1.1,30.4
	c-3.6,8-11.2,12-16.7,14.2c-1.1,0.3-16.7,4.7-20.9-1.2c-0.4-0.6-2.3-3.2-1.5-5.5c0.4-1.1,1.2-1.9,2.3-2.4
	c7.2-4.7,10.1-9.9,11.4-12.8c2.9-6.4,2.7-12.9,2.4-22.3c-0.1-3.7-0.4-6.7-0.6-8.8c-0.5,1.1-1.4,3.1-2.5,5.5
	c-6.5,14.7-7.6,18.4-11.8,22c-1.8,1.5-6.3,5.3-9,3.9c-5.1-2.7-0.5-23.9,7.2-40.8c7.1-15.5,10.4-12.9,13.6-23.3
	c1.9-6,1.7-9.5-3.5-50.1c-1.9-14.9-2.5-19.3-3.6-26.1c-2-12.6-3.1-19.2-5.1-27.2c-6-24.1-11.6-26.4-15.5-48
	c-1.3-7.3-2.1-14.6-2.3-22c-0.2-7,0-13.9,0.6-20.9c1-11-2.2-38.5-19.6-109.3l-3.9,11c-2.5,0.6,8.5,28.9-6.5,58.6
	c-2,4-4.3,7.7-7,11.2c-10.6,14.6-12.8,53.5,18.7,155.1l-89.7,0.5v0.1H324h-9.8v-0.1l-89.7-0.5c31.5-101.7,29.3-140.5,18.7-155.1
	c-2.7-3.5-5-7.3-7-11.2c-14.9-29.8-4-58-6.4-58.6l-3.9-11c-17.4,70.8-20.6,98.3-19.6,109.3c0.6,6.9,0.8,13.9,0.6,20.9
	c-0.2,7.4-1,14.7-2.3,22c-3.9,21.6-9.5,23.9-15.5,48c-2,8-3.1,14.7-5.1,27.2c-0.9,5.7-1.5,9.8-2.8,19.8l-0.6,5h-31.8
	C148.3,557.8,148.4,549.9,149.1,542z"/>
<path class="st2" d="M449.5,477c0.4,1,0.8,2,1.3,3c0.1,0.3,0.3,0.5,0.5,0.8c0.3,0.5,0.7,1,1.1,1.5c0.2,0.2,0.4,0.4,0.7,0.6
	c0.2,0.2,0.5,0.3,0.7,0.4c0.7,0.4,1.4,0.7,2.1,0.9l0.2,0.1l0.5,0.2l0.9,0.2l0.2,0.1l0.2,0.1c0,0.1,0,0.2,0,0.2s0,0.3,0,0.5
	c0,0.3,0.1,0.6,0.1,0.9c0.2,0.8,0.4,1.5,0.8,2.3c0.1,0.1,0.1,0.3,0.2,0.4c0.5,0.8,1.1,1.5,1.9,2c0,0.1,0,0.2,0,0.3
	c0,0.3,0.1,0.6,0.1,0.9s0.1,0.5,0.2,0.8c0.3,1,0.6,2,1,2.9c0.1,0.3,0.2,0.6,0.3,0.9c0.2,0.5,0.3,1,0.5,1.5c0.6,2.2,1.1,4.5,1.7,6.7
	c0.6,2.6,1.2,5.2,1.9,7.8c0.6,2.6,1.2,5.2,1.8,7.7c0.8,3.7,1.4,7.4,2.1,11.2c0.2,1.2,0.5,2.5,0.8,3.7c0.1,0.5,0.2,1,0.3,1.5
	c0.6,3.5,0.8,7.1,1.1,10.5l0.1,1.5c0,0.3,0,0.5,0.1,0.8c0.2,3.3,0.4,6.6,0.5,9.9c0.1,1.6,0.1,3.3,0.1,4.9s0.1,3.3,0.1,4.9
	c0,2.4,0.2,4.8,0.4,7.2c0.1,1.2,0.2,2.5,0.3,3.8s0.2,2.5,0.4,3.8c0.2,2.5,0.5,5,0.7,7.5c0.2,1.9,0.4,3.8,0.6,5.7s0.5,3.8,0.7,5.7
	c0.8,6.2,1.8,12.4,3,18.7c-0.7,0.2-1.3,0.4-2,0.6c-0.8,0.2-1.6,0.6-2.1,1.3c-0.9,1.5-2.2,2.7-3.6,3.7c-0.3,0.2-0.6,0.4-0.9,0.6
	c-0.3,0.3-0.5,0.6-0.5,1c-0.4-0.2-0.7-0.3-1.1-0.5c-0.3-0.1-0.7-0.2-1-0.2c-0.7,0.1-1.3,0.7-1.5,1.4c-0.1,0.7-0.2,1.5-0.1,2.2l0,0
	c0,0.1,0,0.1,0,0.2c-0.1,0-0.3,0.1-0.4,0.2c-0.6,0.3-1.2,0.8-1.7,1.3c-0.9,1.3-1.7,2.8-2.3,4.3c-1.1,2.2-2.1,4.5-3.1,6.8
	c-0.2,0.9-0.6,1.8-1,2.7l-2.1,3c-0.3,0.4-0.5,0.8-0.6,1.2c-0.1,0.2-0.1,0.4-0.1,0.7c0.1,0.5,0.2,1,0.5,1.5c0.2,0.3,0.4,0.6,0.6,0.8
	c-0.1,0.1-0.2,0.1-0.2,0.2c-0.3,0.5-0.5,1.1-0.4,1.7c0,0.3,0,0.5,0.1,0.7v0.3c0.1,3-0.6,5.8-2.5,7.3c-0.4,0.3-0.8,0.6-1.2,1
	c-0.5,0.4-0.8,1.1-0.8,1.8v0.1c-0.2,0.3-0.2,0.7-0.2,1v0.4c0.1,0.5,0.3,1,0.6,1.5c0.2,0.4,0.4,0.8,0.5,1.3c0,0.2,0.1,0.3,0.1,0.5
	c0,0.9-0.2,1.8-0.5,2.6c-0.1,0.2-0.1,0.5-0.1,0.7c0.1,0.8,0.4,1.5,1,2c0.3,0.3,0.6,0.5,1,0.6c0.3,0.1,0.7,0.1,1-0.1
	c0.3-0.1,0.5-0.4,0.7-0.6c0.3-0.5,0.4-1.1,0.5-1.7c0-0.5,0.1-1,0.3-1.4c0.4-0.6,0.9-1.1,1.5-1.5c0.1,0.1,0.2,0.1,0.3,0.1
	c0.3,0.1,0.6,0.1,0.9,0.1c0.4-0.1,0.8-0.4,0.9-0.9c0.1-0.4,0.2-0.8,0.2-1.2c0.2-1.7,0.5-3.3,1.1-4.8c0.1-0.5,0.3-1,0.6-1.4
	c0.5-0.6,1-1.1,1.4-1.7c0.2-0.3,0.5-0.5,0.7-0.7c0.4-0.2,0.7-0.6,0.8-1c0-0.2,0-0.4,0-0.6c0-0.2,0-0.4-0.1-0.5c0.1,0,0.2,0,0.3-0.1
	c0.7-0.7,1.3-1.4,1.9-2.2c0.5-0.9,0.8-1.9,0.9-3c0.1-1,0.1-2.1,0.3-3.1c0.4-2.1,0.9-4.1,1.6-6c0.4-1.1,1-2.2,1.9-3.1
	c0.4-0.4,0.9-0.8,1.4-1.1l0,0c0.1-0.1,0.2-0.1,0.3-0.1c0.2-0.1,0.5-0.2,0.8-0.3l0.3-0.2l0.1-0.1l0.1-0.1c0.1-0.1,0.1-0.2,0.1-0.3
	l0,0c0-0.2-0.1-0.4-0.1-0.6c0.4,0.3,0.8,0.5,1.2,0.6c0.2,0.1,0.5,0.1,0.7,0.1c0.4,1.3,0.8,2.6,1,4c0.4,2.1,1.3,4,1.7,5.9
	c0.5,2,0.8,4,1,6.1c0.1,1.1,0.1,2.3,0.1,3.4c0.1,1.3-0.2,2.5-0.8,3.7c-0.6,1-1.4,1.8-2.3,2.4c-0.9,0.6-1.1,1.8-1,3
	c0.1,0.6,0.2,1.3,0.4,1.9c-0.4,0.1-0.7,0.4-0.9,0.6c-0.6,0.7-0.9,1.7-0.8,2.6c0,0.3,0.1,0.6,0.2,0.9c0.6,1.9,1,3.9,1.2,5.9
	c0.2,1.9,0,3.7-0.6,5.5c-0.4,1.3-0.6,2.5-1.3,3.3c-0.4,0.3-0.7,0.6-1,1c-0.5,0-1,0.1-1.4,0.3c-1.8,0.8-2.7,2.5-4,3.3
	c-0.7,0.5-1.6,0.6-2.4,0.4c-0.1-0.1-0.2-0.1-0.3-0.2c-0.1,0-0.3,0-0.5,0l-0.3,0.1c-0.4,0.1-0.6,0.5-0.6,0.8c-0.2,0-0.5,0-0.7,0.1
	c-0.6,0.1-1.1,0.1-1.7,0l-0.2-0.1l-0.4-0.1c-0.2-0.1-0.5-0.1-0.7-0.2c-0.3,0-0.5,0.1-0.7,0.3c-0.1,0.2-0.2,0.5-0.2,0.8v0.1l0,0
	c0.1,0.6,0.3,1.2,0.7,1.7c0.1,0.1,0.2,0.2,0.3,0.3c0.2,0.1,0.4,0.2,0.6,0.2l0.2,0.1c0.3,0.1,0.6,0.2,0.9,0.3l0.4,0.2
	c0.2,0.3,0.4,0.7,0.7,0.9c0.3,0.2,0.6,0.4,0.9,0.6c0.4,0.2,0.8,0.4,1.2,0.5c1.2,0.4,2.3,0.4,3.3,0.7c2.1,0.5,4.2,1.1,6.3,1.7
	l0.6,0.2c0.4,0.2,0.9,0.2,1.4,0.2c0.3-0.1,0.5-0.2,0.8-0.3c0.3-0.2,0.5-0.5,0.5-0.8l0,0V703v-0.1c0.2,0.1,0.5,0.3,0.8,0.3
	c0.2,0,0.3,0.1,0.5,0.1c0.4,0,0.9,0,1.3-0.2c2.5-1.1,4.9-2.5,7-4.2c2.6-1.9,5.2-3.9,6.8-7c0.5-0.9,0.8-1.9,0.8-3
	c0-0.3-0.1-0.5-0.1-0.8c-0.5-1.5-1.3-2.8-2.5-3.9c-0.1-0.1-0.2-0.2-0.4-0.2h-0.2l-0.1-0.1c-0.2-0.1-0.3-0.2-0.5-0.3
	c0.2-0.1,0.4-0.3,0.5-0.5s0.3-0.5,0.5-0.7c0.4-0.5,0.7-1.1,0.9-1.8c0.6-1.8,1.8-3.1,1.8-5.6c0-0.3,0-0.6,0-0.9
	c-0.1-1.1-0.3-2.2-0.4-3.3c-0.1-0.4-0.1-0.8-0.1-1.3l-0.1-2.1c-0.2-2.6-0.3-5.2-0.8-8c-0.1-0.5-0.1-0.9-0.1-1.4
	c-0.1-1.7,0-3.3-0.1-5.1c-0.1-2.1-0.3-4.1-0.4-6.2v-0.1c0-0.6-0.1-1.2-0.3-1.8c0.1,0,0.2,0,0.4,0c0.2,0,0.3-0.2,0.3-0.3
	c0-0.5,0-1,0-1.5c-0.1-1.1-0.3-2.2-0.6-3.3c-0.1-0.3-0.3-0.5-0.6-0.6c-0.1,0-0.3,0-0.4,0.2c-0.9-1.8-2-3.6-3.2-5.2
	c-0.2-0.2-0.4-0.5-0.5-0.7s-0.2-0.3-0.2-0.5c0-0.1,0-0.2,0.1-0.3h0.1c0.3,0,0.6,0,0.9,0s0.6,0,1-0.1c0.6,0,1.2-0.2,1.7-0.6
	c0.2-0.1,0.3-0.2,0.4-0.4c0.1-0.1,0.2-0.3,0.2-0.4c0.1-0.2,0.1-0.3,0.2-0.4l0.2-0.4c0.1-0.1,0.1-0.2,0.2-0.3l0.1-0.2
	c0.3-0.4,0.5-0.9,0.7-1.4c0-0.1,0.1-0.2,0.1-0.3c0-0.2,0-0.3,0-0.5s0-0.4,0-0.5c0-0.4-0.1-0.7-0.2-1.1c-0.1-0.8-0.3-1.5-0.5-2.2
	c-0.1-0.3-0.1-0.7-0.2-1c-0.1-0.8-0.3-1.7-0.4-2.5s-0.2-1.7-0.2-2.5v-0.4c0-0.7-0.1-1.3-0.1-1.9s-0.1-1.3-0.1-1.9
	c-0.1-1.2,0-2.4,0.1-3.7c0.1-1.1,0.2-2.3,0.2-3.5c0.2-3.5,0.2-7.1,0.2-10.7c0-1.2,0-2.4,0-3.6c0-2.4,0-4.9-0.1-7.3
	c0-1.2,0-2.5-0.1-3.7c-0.1-2.5-0.2-4.9-0.2-7.4s-0.1-4.9-0.1-7.4c0-0.4,0-0.9-0.1-1.3s0-0.9-0.1-1.3c-0.1-1-0.2-2-0.3-3
	s-0.2-2-0.4-3c-0.2-1.5-0.4-3-0.6-4.5c-0.1-0.5-0.1-1-0.2-1.5c-0.2-1.8-0.4-3.7-0.5-5.5s-0.4-3.7-0.6-5.5l-0.2-1.4
	c-0.4-3.2-0.8-6.5-1-9.7l-0.1-1.4c-0.1-1-0.1-1.9-0.2-2.8c-0.1-1.9-0.2-3.8-0.4-5.7c-0.1-1.1-0.2-2.2-0.3-3.3c0-0.5-0.1-1.1-0.1-1.7
	s-0.1-0.8-0.1-1.2s-0.1-0.8-0.1-1.2c0-0.7-0.1-1.3-0.1-2c-0.1-1.3,0-2.6,0.1-3.8c0.1-0.6,0.2-1.2,0.3-1.8c0.1-0.4,0.2-0.7,0.3-1
	c0.1-0.3,0.2-0.6,0.4-1c0-0.1,0.1-0.2,0.2-0.3c0.1-0.1,0.1-0.2,0.2-0.3c0.1-0.1,0.2-0.1,0.3-0.2l0.4-0.3c0.2-0.2,0.4-0.4,0.5-0.6
	c0.4-0.8,0.6-1.6,0.5-2.5v-0.4c0-0.6-0.2-1.1-0.5-1.6l-0.1-0.2c-0.1-0.2-0.3-0.4-0.4-0.6c-0.4-0.5-0.9-0.9-1.4-1.3l-0.7-0.5
	l-0.4-0.3c0.2-0.1,0.5-0.3,0.6-0.5c0.2-0.2,0.3-0.4,0.5-0.6c0.1-0.1,0.1-0.2,0.2-0.3c0.2-0.3,0.4-0.7,0.5-1c0.2-0.5,0.4-0.9,0.5-1.4
	c0.4-1.6,0.5-3.3,0.3-4.9c0-0.7-0.1-1.5-0.2-2.2s-0.2-1.2-0.3-1.8c-0.8-4.3-2-8.5-3.6-12.6c-0.9-2.3-1.7-4.5-2.6-6.8
	c-0.8-2.3-1.7-4.5-2.5-6.8s-1.6-4.5-2.4-6.8s-1.6-4.5-2.3-6.8c-1.1-3.2-2-6.4-2.7-9.5c-0.2-1-0.5-2.1-0.7-3.2
	c-0.4-2.1-0.8-4.2-1.1-6.3c-0.1-1-0.3-2.1-0.4-3.1s-0.2-2-0.3-3.1s-0.2-1.8-0.3-2.7c-0.2-1.8-0.4-3.6-0.6-5.4
	c-0.4-2.7-0.7-5.4-1-8.1c-0.1-0.9-0.2-1.8-0.3-2.7s-0.2-1.8-0.2-2.7c-0.1-2-0.2-4-0.2-6c0-1.5,0-3,0-4.5s-0.1-3-0.1-4.6
	c-0.1-3-0.3-6.1-0.5-9.2c-0.3-3.7-0.6-7.5-1-11.3s-0.8-7.5-1.2-11.3c-0.6-5.9-1.4-11.9-2-17.8c-0.2-2-0.4-3.9-0.5-5.9
	c-0.1-0.8-0.1-1.6-0.2-2.4c-0.1-2.1-0.2-4.2-0.2-6.2c-0.2-6.2-0.2-12.4-0.4-18.7c-0.1-2-0.2-4-0.3-6c-0.1-1.7-0.3-3.4-0.5-5.1
	c-0.4-3.5-1.2-7-2.2-10.4c-0.3-0.9-0.5-1.8-0.9-2.6s-0.7-1.8-1-2.7c-0.7-1.8-1.5-3.6-2.4-5.3c-0.4-0.8-0.8-1.7-1.3-2.4
	c-0.5-0.7-1.2-1.3-1.9-1.8c-0.2-0.7-0.5-1.3-0.9-1.9c-0.3-0.6-0.7-1.2-1.2-1.8c-0.9-1.2-1.9-2.2-3-3.1c-0.2-0.2-0.5-0.3-0.7-0.5
	c-0.3-0.7-0.8-1.4-1.4-1.9c-0.2-0.2-0.4-0.3-0.5-0.5c-0.5-0.4-1.1-0.8-1.7-1.1c-0.8-0.4-1.5-0.8-2.3-1.1s-1.6-0.6-2.4-0.9
	c-0.4-0.1-0.7-0.2-1.1-0.3l-1-0.3c-0.1-0.2-0.2-0.4-0.4-0.6c-0.4-0.5-0.8-1-1.4-1.5s-1.2-0.9-1.8-1.2l-0.6-0.4c-1-0.5-1.9-1-2.9-1.5
	c-2.8-1.4-5.6-2.5-8.4-4c-3.9-2.1-7.8-4.2-11.8-6c-1-0.4-1.9-0.9-2.9-1.3c-1.4-0.7-2.9-1.4-4.3-2.1s-2.9-1.5-4.3-2.3
	c-1.1-0.6-2.1-1.2-3.2-1.9l0.6,1.4c0.8,0.5,1.6,1,2.5,1.4c3.8,2.1,7.7,4,11.6,5.8s7.8,3.9,11.7,5.9s7.5,3.4,11.2,5.5
	c0.8,0.4,1.5,0.9,2.1,1.4s1.1,1.1,1.4,1.8c0.1,0.2,0.3,0.4,0.6,0.5c0.8,0.2,1.5,0.4,2.4,0.6c1.5,0.5,3,1.1,4.4,1.9
	c0.7,0.4,1.3,0.8,1.9,1.3l0.1,0.1c0.2,0.2,0.5,0.5,0.7,0.8l-0.2-0.1c-1.2-0.3-2.5-0.6-3.7-0.7c-0.8-0.1-1.6-0.3-2.4-0.5h-0.1l0,0
	h-0.1c-0.2-0.1-0.5-0.2-0.7-0.3c-0.3-0.2-0.7-0.3-1-0.4c-0.2-0.1-0.3-0.1-0.5-0.1H435h-0.3l-0.2,0.1h-0.1l-0.1,0.1
	c-0.2,0.2-0.3,0.3-0.4,0.3c-0.2,0.1-0.3,0.1-0.5,0s-0.4-0.2-0.6-0.3l-3-1.5c-3-1.5-6.1-3-9.2-4.2c-1.2-0.5-2.5-1-3.8-1.4L416,243
	c-0.6-0.2-1.2-0.4-1.8-0.5s-1-0.2-1.5-0.3l-0.3-0.1H412l-0.6-0.1c-0.6-0.1-1.3-0.1-1.9,0l0,0c-0.1,0-0.3,0-0.4,0l-0.9-0.8l-3.6-3.4
	l-1.5-1.3l-0.3-0.2h-0.1c-1.6-0.5-3.1-1.2-4.5-2l-0.2-0.1c-0.5-0.3-1-0.6-1.5-0.8l0.5,1.4l0.8,0.4c0.4,0.2,0.9,0.5,1.3,0.7l0.1,0.1
	c0.5,0.2,1,0.5,1.5,0.7l0.5,0.2c0.5,0.2,1.1,0.4,1.6,0.6l1.8,1.7l1.2,1.1l0.6,0.5l1,0.9l1.4,1.3l0,0c0.1,0.1,0.2,0.1,0.3,0.2
	c0.1,0,0.2,0,0.2,0c1.7-0.2,3.4,0,5,0.5c0.6,0.2,1.2,0.3,1.8,0.6c0.4,0.1,0.8,0.3,1.1,0.4c1.1,0.4,2.3,0.9,3.3,1.3s1.9,0.8,2.8,1.2
	l0.8,0.4l2,0.9l0.8,0.4c1.9,0.9,3.8,1.9,5.7,2.8c0.2,0.1,0.5,0.2,0.8,0.3l0,0c0.2,0.1,0.3,0.1,0.5,0.1h0.3h0.2h0.1l0,0l0.2-0.1
	l0.1-0.1l0.1-0.1c0.1-0.1,0.1-0.1,0.2-0.2l0,0c0,0,0,0,0.1,0s0.2,0,0.3,0.1c0.2,0.1,0.3,0.1,0.5,0.2l-0.1,0.1
	c-1,0.5-1.9,1.1-2.8,1.8l0,0c-1.2-0.3-2.4-0.6-3.7-0.6c-0.3,0-0.5,0-0.8,0s-0.6,0.2-0.8,0.5c0,0,0,0,0,0.1c-0.1,0.3-0.2,0.6-0.2,0.9
	c0,0.3,0.1,0.7,0.3,1c0.3,0.6,0.6,1.2,1,1.7l0.6,0.9l0,0c-0.1,0.3-0.2,0.6-0.3,0.9c-0.1,0.3-0.2,0.6-0.3,0.9l0,0
	c-0.2,0.6-0.3,1.2-0.4,1.8v0.1v0.2c-0.1,0.5-0.1,1.1-0.2,1.7c0,0.1,0,0.3,0,0.4c0,0.7,0,1.4,0,2.1c0,0.2,0,0.4,0.1,0.7
	c0,0.4,0.1,0.9,0.2,1.4c-1.2,0.6-2.4,1.4-3.5,2.2c-0.5,0.4-1,0.9-1.3,1.4c-0.3,0.7-0.4,1.4-0.5,2.1c0,1.4-0.2,2.8-0.8,4.1
	c-0.5,0.9-1.6,1.2-2.8,1.5c-1.2,0.4-2.3,0.8-3.4,1.3c-0.1-0.8-0.3-1.5-0.5-2.2c-1-2.9-2.5-5.5-4.4-7.8c0.7-2.6-1.5-5.8-3.4-8.3
	c-0.3-0.4-0.5-0.7-0.8-1.1l-0.2-0.3l1.2,3.2c1.4,2,2.5,4.1,2.1,5.8l0.5,1.5c1.8,2.1,3.1,4.4,4,7c0.3,0.9,0.5,1.8,0.6,2.7
	c0.1,0.5,0.1,1,0,1.5c0,0.2-0.1,0.4-0.1,0.5c0.6,0.5,1.3,1,1.9,1.5c-0.3-0.3-0.5-0.6-0.8-0.9c0.1-0.6,0.2-1.2,0.1-1.8
	c1.3-0.6,2.6-1.1,3.9-1.6c1.1-0.4,2.4-0.6,3.1-1.8c0.6-1.4,0.9-2.9,0.9-4.5c0-0.5,0.1-1,0.2-1.5l0.1-0.3c0.2-0.4,0.5-0.7,0.9-1
	l0.2-0.2c0.2-0.1,0.4-0.3,0.6-0.4c0.7-0.5,1.5-1,2.3-1.4c0.1,0.3,0.1,0.7,0.2,1c0.2,1.1,0.6,2.1,1.1,3.1c0.2,0.3,0.4,0.6,0.6,0.9
	c0.8,1,1.9,1.8,2.5,2.5c0.3,0.3,0.5,0.6,0.7,0.9c0.5,0.6,0.9,1.2,1.3,1.9c0.2,0.3,0.4,0.6,0.6,1c0.3,0.6,0.7,1.2,1,1.8
	c0.3,0.6,0.6,1.2,0.9,1.8s0.6,1.2,0.8,1.9s0.5,1.2,0.7,1.9c1.7,4.9,3,9.9,3.8,14.9c1.9,10,3.4,20,4.5,29.8c0.4,3.3,0.7,6.6,1,9.8
	c0.2,1.9,0.3,3.7,0.4,5.6v0.3c0.4,6.2,1.1,12.5,1.8,18.8c1.2,10.5,2.5,21.2,3.6,31.7c0.1,1.4,0.3,2.7,0.4,4c0.3,2.7,0.6,5.4,0.9,8.1
	c0.6,5.4,1.3,10.9,1.7,16.3c0.1,1.3,0.2,2.7,0.3,4c0.3,4.6,0.5,9.1,0.4,13.5c0,2.3-0.2,4.6-0.5,6.9c-0.1,0.7-0.2,1.5-0.4,2.2
	c-0.3,1.4-0.7,2.8-1.1,4.1c-0.4,1.3-1,2.6-1.6,3.9c-0.1,0.3-0.3,0.5-0.4,0.8c-0.3,0.5-0.5,1.1-0.8,1.6c-0.4,0.9-0.9,1.8-1.6,2.5
	c-0.3,0.3-0.6,0.6-0.9,0.9c-0.1,0.1-0.1,0.1-0.2,0.2c-0.4,0.3-0.8,0.6-1.2,0.9c-0.2,0.2-0.3,0.3-0.4,0.5l-0.1,0.3
	c-0.3,0.7-0.5,1.4-0.5,2.1c0,0.1,0,0.3,0,0.4s0,0.4,0,0.5 M432.1,254.5c-0.2,0.2-0.4,0.4-0.6,0.6l-0.2-0.2l-1-0.7
	C430.9,254.3,431.5,254.4,432.1,254.5z M429.2,256c-0.1-0.2-0.3-0.4-0.4-0.7c-0.1-0.2-0.1-0.4-0.2-0.6c0-0.1,0-0.3,0.1-0.4l0.1-0.1
	l2.1,1.5l1,0.7l2,1.4c0.4,0.2,0.7,0.5,0.9,0.9l0.1,0.3c0,0.2-0.1,0.4-0.2,0.6c-0.2,0.2-0.4,0.4-0.7,0.5c-0.2,0-0.3,0-0.5-0.1
	c-0.5-0.2-1-0.4-1.5-0.6c-0.5-0.3-1-0.5-1.3-0.6h-0.1l0,0l0,0c0-0.1,0-0.2,0-0.3c0-0.1-0.1-0.2-0.1-0.3l-0.5-0.8l-0.3-0.4L429.2,256
	z M449.6,472.9c0-0.8,0.2-1.7,0.6-2.4c0.3-0.6,1-0.9,1.7-1.4c1.9-1.6,2.7-3.9,3.8-6.1c2.5-5.5,3.8-11.4,3.7-17.5
	c0.1-4.4-0.1-9-0.5-13.6c-0.8-10.7-2.3-21.8-3.4-32.5c-1.7-16.8-4.2-34-5.4-50.5v-0.3c-1.1-15.2-3.1-30.4-5.9-45.4
	c-0.9-5.2-2.2-10.2-3.9-15.2c-1-2.6-2.2-5.2-3.6-7.6c-0.8-1.4-1.8-2.8-2.9-4c-0.9-1-1.9-1.7-2.5-2.5c-0.7-1-1.2-2.1-1.4-3.3
	c-0.1-0.7-0.3-1.4-0.3-2s-0.1-1.2-0.2-1.6c0-0.1,0-0.2,0-0.3v-0.3c0-0.7,0-1.3,0-2v-0.5l0,0c0-0.5,0.1-1,0.1-1.4c0-0.1,0-0.2,0-0.2
	c0-0.1,0-0.2,0-0.2c0.1-0.5,0.2-0.9,0.3-1.4c0-0.1,0.1-0.2,0.1-0.3s0.2-0.5,0.3-0.7l0.4,0.2l0.5,0.2l0.8,0.4l0.9,0.4
	c0.3,0.1,0.6,0.2,0.8,0.3l0.3,0.1c0.3,0.1,0.6,0.1,0.8,0c0.2-0.1,0.3-0.2,0.5-0.3c0.2-0.1,0.3-0.2,0.4-0.4c0.1-0.1,0.1-0.1,0.2-0.2
	c0.1-0.2,0.2-0.5,0.2-0.8c0-0.1,0-0.1,0-0.2s0-0.2-0.1-0.3c0-0.1-0.1-0.3-0.1-0.4c-0.1-0.2-0.2-0.4-0.3-0.5
	c-0.2-0.3-0.5-0.5-0.8-0.8l-0.4-0.3l-1.7-1.2c0.2-0.2,0.4-0.4,0.6-0.6l0.5-0.4l0,0l0.5-0.4l0.4-0.3l0,0c0.3-0.2,0.5-0.4,0.8-0.5
	l0.1-0.1l0.1-0.1c0.2-0.1,0.5-0.3,0.7-0.4h0.1l0.3-0.1l0.4-0.1l0.4-0.2c0.4,0.1,0.7,0.2,1.1,0.3s0.9,0.2,1.3,0.2
	c1,0.1,1.8,0.2,2.7,0.4c0.3,0.1,0.6,0.1,0.9,0.2c0.3,0.1,0.7,0.2,1,0.4c0.1,0,0.2,0,0.4,0c2.2,1.6,3.9,3.9,4.8,6.4
	c0.1,0.2,0.2,0.3,0.3,0.4c0.6,0.4,1.2,0.9,1.7,1.5c0.4,0.7,0.8,1.4,1.1,2.1c0.8,1.7,1.6,3.5,2.3,5.2c2.6,6.5,4.1,13.4,4.4,20.3
	c0.1,2,0.2,4,0.3,5.9c0.4,8.3,0.2,16.5,0.7,25c0,0.8,0.1,1.6,0.1,2.4c0.6,7.8,1.7,15.8,2.5,23.7c0.8,7.5,1.6,15.1,2.1,22.5
	c0.4,6.1,0.7,12.2,0.6,18.2c0,2,0.1,4,0.2,6.1c0.5,7.1,1.8,14.4,2.5,21.6c0.7,8.6,2.5,17.1,5.3,25.4c3.1,9.1,6.4,18.2,9.9,27.3
	c1.8,4.5,3.1,9.3,3.8,14.1c0.1,0.7,0.2,1.4,0.2,2.1c0.1,1.6,0,3.1-0.3,4.6c-0.2,0.9-0.6,1.8-1.1,2.6c-0.4,0.6-1,1-1.6,1.1
	c-0.2-0.1-0.4-0.2-0.5-0.2h-0.1c-0.4-0.1-0.9-0.2-1.3-0.2h-0.6h-0.6c-0.4-0.2-0.9-0.4-1.4-0.6l-0.4-0.1c-0.6-0.1-1.2-0.1-1.8,0
	c-0.5,0.1-1,0.1-1.5,0.1c-0.2,0-0.3-0.1-0.5-0.1c-0.6-0.3-1.2-0.6-1.8-1c-0.6-0.4-1.3-0.8-2.1-1.1c-0.3-0.1-0.7-0.2-1-0.1
	c-0.4-0.5-0.9-1.1-1.3-1.6s-0.7-0.9-1.1-1.4l-0.6-0.7c-0.2-0.2-0.5-0.5-0.7-0.7s-0.4-0.3-0.6-0.5c-0.2-0.1-0.4-0.3-0.6-0.4
	c-0.1-0.1-0.3-0.1-0.4-0.2c-0.5-0.2-1.1-0.1-1.5,0.3s-0.7,0.8-1,1.3s-0.6,0.9-0.9,1.4c-0.2,0.3-0.4,0.6-0.5,1
	c-0.2,0.3-0.3,0.5-0.4,0.8c-0.2,0.5-0.3,1-0.4,1.5c-0.4-0.4-0.8-0.8-1.1-1.3c-0.5-0.9-0.9-1.9-0.9-2.9c0-0.4,0-0.8,0.1-1.2
	c0-0.1,0-0.1,0-0.2s0-0.1-0.1-0.2l0,0c0-0.1-0.1-0.1-0.1-0.2c-0.1-0.1-0.1-0.1-0.2-0.2c-0.1,0-0.1-0.1-0.2-0.1s-0.1,0-0.2,0l0,0l0,0
	c-0.1,0-0.3,0-0.4-0.1c-0.7-0.1-1.7-0.5-1.9-0.5l-0.2-0.1c-0.9-0.3-1.7-0.7-2.4-1.2c-0.7-0.6-1.3-1.4-1.7-2.2
	c-0.5-0.9-0.9-1.9-1.3-2.8 M479.7,492.7c-0.9,0.3-1.7,0.7-2.4,1.2c-0.2,0.2-0.4,0.4-0.4,0.7c-0.7-0.9-1.5-1.7-2.4-2.4
	c-0.6-0.5-1.2-1-1.7-1.5c0.2,0.1,0.4,0.2,0.5,0.2c0.3,0.2,0.6,0.4,0.9,0.6s0.6,0.4,1,0.6s0.7,0.4,1.1,0.5c0.2,0.1,0.4,0.1,0.7,0.1
	c0.4,0.1,0.9,0.1,1.3,0l0.4-0.1h0.4c0.1-0.1,0.3-0.1,0.5-0.2L479.7,492.7z M476.5,592.2c-0.5-5-1-10.1-1.4-15
	c-0.2-2.4-0.3-4.8-0.3-7.2c-0.1-6.5-0.2-13.1-0.7-19.8c-0.1-0.8-0.1-1.5-0.2-2.3c-0.2-4.1-0.7-8.2-1.4-12.2
	c-1.1-4.9-1.8-9.9-2.9-14.9s-2.4-10.3-3.6-15.5c-0.5-2.2-1.1-4.5-1.7-6.7c-0.6-2.1-1.6-4.1-1.9-6c0-0.3-0.1-0.5-0.1-0.8v-0.1
	c0-0.3,0-0.7,0-1c0.1-0.7,0.3-1.4,0.7-2c0.6-1.3,1.4-2.5,2.4-3.6c0.2-0.2,0.4-0.2,0.7-0.1c0.4,0.2,0.8,0.4,1.1,0.8
	c0.4,0.4,0.8,0.8,1.1,1.2c0.7,0.8,1.3,1.7,2,2.6c0.3,0.4,0.6,0.7,0.9,1.1l0,0c0.9,0.9,1.8,1.7,2.8,2.5c0.9,0.7,1.7,1.5,2.3,2.4
	c0.1,0.2,0.2,0.3,0.3,0.5c0,0.1,0,0.2,0,0.3c0.1,0.3,0.2,0.6,0.3,0.9l0.2,0.4c0.1,0.1,0.2,0.2,0.2,0.3l0,0c0.1,0.4,0.2,0.9,0.3,1.3
	c0,0.2,0,0.4,0.1,0.6c0,1.4-0.1,2.9-0.4,4.3c0,0.5,0,1.1,0,1.6c0.1,0.7,0.1,1.3,0.3,2c-0.2,0.6-0.3,1.2-0.5,1.9
	c-0.3,1.2-0.5,2.5-0.5,3.8c0,0.2,0,0.4,0,0.6s0,0.2,0,0.3c0,0.5,0.1,0.9,0.2,1.3c0.3,1.4,0.7,2.8,1.1,4.3c0.2,0.7,0.4,1.5,0.5,2.2
	c0,0.6,0,1.2,0.1,1.8c0.1,1.9,0.4,3.8,0.6,5.7s0.5,3.5,0.8,5.3c0.7,4.9,1.2,9.7,1.6,14.4c0.2,2.4,0.3,4.8,0.3,7.2
	c0.1,7.1-0.5,14-0.2,21.3c0.1,4.5,0.5,8.8,0.7,13.2c0.1,2.2,0.2,4.5,0.3,6.8c0.2,2.9,0.5,5.8,1,8.7c0,0.1,0,0.2,0,0.2
	c-0.2,1.9-0.4,3.9-0.6,5.8c-0.1,0.8-0.1,1.7-0.3,2.4c0,0.4-0.1,0.7-0.2,1.1c-0.1,0.3-0.2,0.7-0.4,1c-0.1,0.2-0.2,0.5-0.3,0.7
	c-0.2,0.5-0.3,1-0.3,1.5c0,0.3,0,0.6,0,0.9s0,0.6-0.1,0.9c0,0.3,0,0.7,0,1v0.2c0,0.1,0,0.3,0.1,0.4c-0.3-0.1-0.5-0.2-0.8-0.3
	C478.7,612.4,477.3,602.3,476.5,592.2L476.5,592.2z M481.5,536.9c-0.1-0.6-0.1-1.2-0.2-1.8s-0.2-1.2-0.2-1.8c-0.1-1-0.3-2-0.4-3.1
	c0.4,2.1,0.9,4.2,1.3,6.3c0.2,1,0.4,1.9,0.5,2.9c0.3,1.9,0.5,3.9,0.8,5.8c0.1,1.2,0.2,2.4,0.4,3.6c0.3,3.6,0.5,7.2,0.8,10.8l0.1,1.8
	c0,0.3,0,0.6,0.1,0.9c0.1,1.6,0.2,3.3,0.3,4.9c0.3,4.9,0.4,9.7,0.4,14.5c0,1.5-0.1,2.9-0.3,4.3c-0.1,1.1-0.2,2.2-0.2,3.3
	c0,0.4,0,0.8,0,1.1c0,1.3,0.1,2.7,0.1,4s0,2.6,0,3.9c0,0.8-0.1,1.7-0.2,2.5c0,0.4-0.1,0.8-0.1,1.2c-0.1-1.3-0.3-2.7-0.4-4
	c-0.1-1.2-0.1-2.3-0.2-3.4s-0.1-2.3-0.1-3.4c-0.1-4-0.4-7.7-0.6-11.6l-0.1-1.7c-0.1-2.7-0.1-5.3,0-8c0-0.9,0-1.8,0.1-2.6
	c0.1-3.5,0.2-7,0.2-10.6c0-2.4-0.1-4.9-0.3-7.3c-0.5-4.2-1-8.4-1.6-12.7L481.5,536.9z M471.9,629c0.3-0.2,0.5-0.4,0.8-0.5
	c1.5-1,2.8-2.3,3.8-3.8c0.5-0.5,1.1-0.9,1.8-1c0.6-0.2,1.3-0.3,1.9-0.6l0,0l0.2,0.1c0.5,0.2,0.9,0.5,1.4,0.7l0,0
	c0.3,0.9,0.7,1.7,1.1,2.5l0,0l0.1,0.1l0.2,0.4l0,0c0.5,0.9,1,1.8,1.6,2.6l0,0c-0.2,0.3-0.5,0.5-0.8,0.6c-0.7,0.2-1.3,0.5-1.8,1
	c-0.4,0.6-0.6,1.2-0.6,1.9c-0.1,0.9-0.2,1.7-0.4,2.6c-1.3-0.9-2.7-1.7-4.1-2.5c-0.2-0.1-0.3-0.2-0.5-0.2c-0.2-0.1-0.4-0.1-0.5-0.1
	l-0.1,0.1c0-0.3-0.1-0.5-0.1-0.8c-0.1-0.3-0.2-0.6-0.5-0.9l0,0V631c-0.4-0.6-1-1.1-1.7-1.3h-0.2c-0.8-0.2-1.3-0.1-1.9-0.2
	C471.7,629.3,471.8,629.1,471.9,629z M482.4,637.3l0.5,0.3l0.2,0.1l1.2,0.9c0.6,0.4,1.1,0.8,1.6,1.3l0.1,0.3c0,0,0,0,0,0.1v0.1
	c0,0.1-0.1,0.2-0.1,0.3s0,0.1-0.1,0.2c0,0.1-0.1,0.2-0.2,0.3l0,0c-0.1,0-0.1,0.1-0.2,0.1l0,0c-0.2,0-0.3,0-0.5-0.1s-0.5-0.2-0.7-0.3
	c-1.1-0.5-2.1-1.2-3.2-1.8c-0.4-0.2-0.7-0.4-1.1-0.7l-0.3-0.2c-0.4-0.2-0.7-0.5-1-0.8c-0.2-0.2-0.4-0.4-0.6-0.7
	c-0.1-0.2-0.3-0.4-0.4-0.6c0-0.1-0.1-0.2-0.1-0.2c-0.1-0.2-0.1-0.3-0.2-0.5c0-0.1,0-0.1-0.1-0.2v-0.1c0-0.1,0-0.1-0.1-0.2
	c0-0.1-0.1-0.2-0.1-0.4c0,0,0,0,0-0.1c0-0.2-0.1-0.4-0.1-0.6c0,0,0-0.1,0-0.2l0.3,0.1c1.4,0.8,2.8,1.6,4.2,2.5l0.5,0.3L482.4,637.3
	L482.4,637.3z M458.4,671.3c-0.2,0.1-0.3,0.2-0.5,0.3l-0.2,0.1l-0.5,0.3c-0.1,0.1-0.3,0.2-0.4,0.3c-0.5,0.4-0.9,0.8-1.2,1.3
	c-0.3,0.5-0.4,1.1-0.4,1.7c0,0.5-0.1,1-0.4,1.4c-0.1,0.2-0.2,0.3-0.4,0.4c-0.1,0.1-0.3,0.1-0.4,0s-0.3-0.1-0.4-0.2
	c-0.3-0.3-0.5-0.6-0.5-1c0-0.1,0-0.3,0-0.4c0.4-0.9,0.5-1.9,0.5-2.9c0-0.2,0-0.4-0.1-0.7c-0.1-0.5-0.3-1.1-0.6-1.6
	c-0.2-0.3-0.3-0.7-0.4-1c0-0.1,0-0.2-0.1-0.2v-0.2c0-0.1,0-0.2,0-0.3c0-0.2,0.1-0.3,0.2-0.4c0.1-0.1,0.3-0.3,0.4-0.3
	c0.5-0.2,1-0.3,1.5-0.1l0,0c1.1,0.4,2.1,1.1,2.9,2c0.2,0.2,0.4,0.5,0.6,0.7l0.2,0.3l0.1,0.1v0.2
	C458.4,671.1,458.4,671.2,458.4,671.3L458.4,671.3z M463.9,660.7c-0.1,0.3-0.3,0.5-0.6,0.7c-0.3,0.2-0.6,0.5-0.9,0.8
	c-0.4,0.6-0.9,1.1-1.4,1.7c-0.3,0.5-0.5,1-0.7,1.6c-0.6,1.6-1,3.3-1.2,5c-0.1-0.2-0.3-0.4-0.4-0.6s-0.5-0.6-0.7-0.8
	c-1-1.1-2.2-1.9-3.5-2.5h-0.1c-0.3-0.1-0.7-0.1-1-0.1c0.3-0.3,0.6-0.5,0.9-0.7c2.1-1.7,2.8-4.7,2.7-8v-0.3c0-0.3,0-0.5-0.1-0.7
	c-0.1-0.4,0-0.8,0.2-1.1c0-0.1,0.1-0.1,0.2-0.2c0.1-0.1,0.2-0.2,0.3-0.3l0.2-0.1l0.3-0.1c0.2,0,0.4,0,0.6,0h0.1
	c1.4,0.6,2.6,1.6,3.6,2.7c0.2,0.2,0.3,0.4,0.4,0.6l0.1,0.1l0.4,0.7l0,0c0.1,0.2,0.2,0.4,0.3,0.6c0.1,0.2,0.1,0.4,0.1,0.5
	L463.9,660.7z M473.6,640.1l-0.8,0.3l-0.3,0.1l-0.2,0.1c-0.5,0.3-1,0.7-1.5,1.2c-0.9,0.9-1.6,2.1-2,3.3c-0.7,2-1.3,4.1-1.6,6.2
	c-0.2,1.1-0.2,2.2-0.3,3.2c0,0.9-0.3,1.8-0.8,2.6c-0.5,0.7-1,1.4-1.6,2h-0.1l0,0c-0.2-0.3-0.3-0.6-0.5-0.9c-0.2-0.3-0.4-0.7-0.7-1
	c-1.2-1.3-2.6-2.4-4.2-3.1l-0.2-0.1c-0.5-0.2-1-0.2-1.4,0l0,0c-0.2-0.2-0.3-0.4-0.4-0.6c-0.2-0.2-0.3-0.5-0.3-0.8v-0.3
	c0.1-0.4,0.3-0.7,0.5-1l2.1-3c0.5-0.9,0.8-1.8,1.1-2.8c1-2.3,2-4.5,3-6.7c0.6-1.5,1.3-2.9,2.2-4.2c0.4-0.5,0.9-0.9,1.5-1.2l0.3-0.2
	l0.4-0.2l0.1-0.1l0.4-0.1c0.1,0,0.1,0,0.2,0h0.2l0,0c1.3,0.8,2.5,1.9,3.4,3.2c0,0.1,0.1,0.1,0.1,0.2c0.4,0.6,0.7,1.1,0.9,1.8
	c0.1,0.3,0.2,0.7,0.3,1C473.5,639.4,473.6,639.7,473.6,640.1L473.6,640.1z M476.8,639.6h-0.1l0,0c-0.3,0-0.5,0-0.8-0.1
	c-0.4-0.1-0.8-0.3-1.1-0.6c-0.1-0.1-0.3-0.2-0.4-0.3c-0.3-1-0.8-2-1.4-3c-1-1.5-2.4-2.8-4-3.8l-0.2-0.1c-0.2-0.1-0.5-0.1-0.7,0
	c-0.1,0-0.1,0-0.2,0c0-0.5,0-0.9,0.1-1.4s0.5-0.9,0.9-0.9c0.2,0,0.4,0,0.6,0.1c0.4,0.1,0.8,0.3,1.2,0.5c0.2,0.1,0.4,0.2,0.6,0.3h0.1
	l0.3,0.1c0.1,0,0.2,0,0.3,0.1c0.6,0.1,1.2,0,1.7,0.2h0.1c0.4,0.1,0.7,0.4,0.9,0.7l0.1,0.1l0.2,0.4c0.1,0.2,0.1,0.5,0.2,0.9
	c0,0.1,0,0.2,0.1,0.3c0,0.1,0.1,0.2,0.1,0.3c0.2,0.3,0.3,0.6,0.6,0.9l0.1,0.2c0,0.2,0.1,0.3,0.1,0.5s0.1,0.2,0.1,0.3
	s0.1,0.4,0.2,0.6s0.1,0.2,0.1,0.3c0.2,0.3,0.4,0.6,0.6,0.9c0.1,0.2,0.3,0.3,0.4,0.5l0.1,0.1c0,0.1-0.1,0.2-0.2,0.4
	c-0.2,0.3-0.3,0.7-0.4,0.9S476.9,639.6,476.8,639.6L476.8,639.6z M478,667.3c1-0.6,1.9-1.5,2.5-2.5c0.6-1.3,0.9-2.7,0.9-4.1
	c0-1.2,0-2.3-0.1-3.5c-0.2-2.1-0.5-4.2-1-6.3c-0.5-2-1.3-4-1.7-5.9c-0.2-1.5-0.6-2.9-1.1-4.4c0.3-0.2,0.5-0.4,0.6-0.7
	s0.2-0.5,0.3-0.8c0-0.1,0.1-0.2,0.2-0.3l0.1,0.1l0.3,0.2c0.2,0.1,0.4,0.2,0.5,0.4l0.3,0.2l0.6,0.3l0.1,0.1c1.1,0.6,2.2,1.3,3.3,1.9
	c0.3,0.1,0.6,0.3,0.9,0.4l0.2,0.1h0.1c0.1,0.2,0.1,0.4,0.1,0.6c0.1,0.3,0.1,0.6,0.1,0.9c0.1,0.9-0.1,1.8-0.5,2.6
	c-0.1,0.3-0.4,0.5-0.7,0.9c-0.1,0.2-0.1,0.3-0.2,0.5c0,0,0,0,0,0.1s0,0.1,0,0.2c0,0.1,0,0.2-0.1,0.3c0,0.1,0,0.2,0,0.3
	c0,0,0,0,0,0.1s0,0.3-0.1,0.5v0.1c-0.1,0.9-0.1,1.8,0,2.6c0,0.4,0.1,0.8,0.1,1.2c0.1,0.6,0.1,1.2,0.2,1.7c0.1,1.3,0.1,2.7,0.2,4.1
	c0,0.4,0.1,0.9,0.1,1.3c0.2,2.5,0.6,5,1.2,7.5c0.1,0.3,0.2,0.6,0.3,1l0,0c0,0.1,0.1,0.2,0.1,0.3c0.1,0.4,0.2,0.7,0.3,1.1
	s0.1,0.4,0.2,0.6c0,0.2,0.1,0.4,0.1,0.6c0,0.1,0,0.3,0,0.4c-0.1,0.8-0.3,1.5-0.7,2.2c-0.1,0.3-0.3,0.5-0.5,0.7l0,0
	c-0.2,0.2-0.4,0.4-0.6,0.6l0,0c-0.2,0.2-0.5,0.3-0.8,0.4l0,0h0.2l-0.5-0.6c-0.7-0.9-1.5-1.7-2.3-2.5c-0.7-0.7-1.6-1.3-2.6-1.6
	l-0.4-0.1c-0.2,0-0.4-0.1-0.6-0.1c-0.1-0.4-0.2-0.9-0.2-1.4C477.2,668.6,477.4,667.7,478,667.3z M485.1,653.6c0-0.3-0.1-0.7-0.1-1
	c0.2,0.7,0.4,1.4,0.6,2.1c0.3,1.1,0.4,2.2,0.5,3.4s0.1,2.3,0.1,3.6c0,1.1,0,2.3-0.1,3.4c-0.2-1.4-0.4-2.9-0.5-4.3
	c0-0.4-0.1-0.8-0.1-1.3c-0.1-1.3-0.1-2.7-0.2-4.1C485.2,654.8,485.1,654.2,485.1,653.6L485.1,653.6z M475.1,690.9
	c0.9-1,1-2.4,1.4-3.5c0.6-1.9,0.8-3.9,0.7-5.9c-0.2-2.1-0.6-4.2-1.2-6.2c-0.1-0.2-0.1-0.4-0.1-0.6c-0.1-0.7,0.2-1.4,0.6-2
	c0.1-0.1,0.2-0.2,0.4-0.3c0.1-0.1,0.3-0.2,0.4-0.2c0.2-0.1,0.3-0.1,0.5-0.1s0.3,0,0.5,0l0.3,0.1c0.8,0.3,1.5,0.7,2,1.3
	c0.8,0.7,1.5,1.5,2.1,2.3l0.1,0.1l0.1,0.1c-0.1,0.1-0.1,0.2-0.1,0.4l0,0c0,0.2,0.1,0.4,0.2,0.6c0.1,0.4,0.3,0.8,0.6,1.2
	c0.1,0.2,0.2,0.3,0.4,0.5c-0.2,0.6-0.4,1.2-0.8,1.7c-1.2,2.3-2.1,4.7-2.7,7.2c-0.5,1.9-1,3.8-1.4,5.7c0,0.1,0,0.3-0.1,0.5
	c-0.1,0.6-0.2,1.2-0.3,1.8c0,0.2-0.1,0.3-0.2,0.5c-0.1-0.2-0.2-0.4-0.3-0.6c-0.2-0.2-0.3-0.4-0.5-0.6l-3.1-3.3
	c-0.1-0.1-0.2-0.1-0.3-0.2C474.7,691.3,474.9,691.1,475.1,690.9L475.1,690.9z M465,696l0.2-0.1l0.2,0.1l0,0c1,0.4,2.2,0.2,3.1-0.4
	c1.6-1,2.4-2.7,4-3.3c0.2-0.1,0.3-0.1,0.5-0.2c0.2-0.1,0.3-0.1,0.5-0.1c0.1,0,0.2,0,0.3,0c0.1,0,0.1,0.1,0.2,0.1c0,0,0.1,0,0.1,0.1
	c1,1.1,2.1,2.2,3.1,3.3c0.1,0.1,0.2,0.3,0.3,0.4v0.1l0,0c0,0.2,0,0.3-0.2,0.5c0,0.1-0.1,0.1-0.2,0.2c-0.1,0-0.1,0.1-0.2,0.1
	s-0.2,0.1-0.2,0.1h-0.1c-0.1,0-0.1,0-0.2,0c-0.2,0-0.3,0.1-0.5,0.1c-0.9,0-1.8,0.1-2.7,0.4c-0.3,0.1-0.6,0.3-0.9,0.4l0,0
	c-1.6,0.6-3.2,1-4.8,1.4c0-0.2-0.1-0.4-0.2-0.5c-0.1-0.2-0.2-0.3-0.3-0.4c-0.2-0.3-0.5-0.6-0.8-0.8l-0.1-0.1
	c-0.2-0.3-0.5-0.5-0.8-0.7c-0.2-0.1-0.4-0.3-0.6-0.4C465.1,696.1,465,696,465,696L465,696z M463.4,698.6c-0.3-0.1-0.5-0.2-0.9-0.3
	l0,0l-0.4-0.1l-0.3-0.1l-0.8-0.3h-0.1l-0.4-0.1c-0.1-0.2-0.2-0.5-0.3-0.8l0,0c0-0.1,0-0.2,0-0.3h0.1c0.2,0,0.3,0,0.5,0.1l0.4,0.1
	l0.4,0.1c0.7,0.1,1.3,0.1,2,0l0.4-0.1c0.1,0,0.2,0,0.2,0h0.2l0.1,0.1h0.1c0.2,0.2,0.4,0.4,0.7,0.5l0.1,0.1c0.1,0.1,0.3,0.2,0.4,0.3
	l0.2,0.3c0.2,0.2,0.4,0.4,0.6,0.6l0.1,0.2h-0.2h-0.1l0,0c-0.2,0-0.4,0-0.6-0.1l-0.6-0.1h-0.3C464.4,698.8,463.9,698.8,463.4,698.6
	L463.4,698.6z M476.8,702.4c0,0.1-0.1,0.3-0.2,0.3c-0.2,0.1-0.4,0.2-0.6,0.2c-0.3,0-0.6,0-0.8-0.2l-0.6-0.2
	c-2.1-0.6-4.2-1.2-6.3-1.7c-1.1-0.3-2.2-0.3-3.2-0.7c-0.3-0.1-0.6-0.2-0.9-0.4l-0.1-0.1c0.4,0.1,0.9,0.2,1.2,0.2s1,0.1,1.5,0.1l0,0
	c0.2,0.1,0.3,0.2,0.5,0.2c0.3,0.1,0.7,0.1,1,0.1l0,0c1.7-0.4,3.3-0.8,4.9-1.4l0,0c0.7,0.5,1.5,1,2.3,1.4c0.1,0,0.2,0.1,0.2,0.1l0,0
	l0.1,0.2l0.1,0.2v0.1l0.3,0.4c0.1,0.1,0.2,0.2,0.3,0.2l0,0l0,0l0.1,0.1l0,0c0.1,0.2,0.1,0.3,0.1,0.5L476.8,702.4z M476.5,699.7
	c-0.2,0.1-0.3,0.1-0.5,0l-0.2-0.1h-0.1l-0.3-0.1l0,0c-0.4-0.2-0.8-0.4-1.2-0.7c-0.1,0-0.1-0.1-0.2-0.1c0.1,0,0.1,0,0.2-0.1
	c0.8-0.3,1.6-0.4,2.4-0.3c0.3,0,0.5-0.1,0.8-0.2h0.1l0.4-0.2l0,0l0,0h0.1h0.2c0.3,0,0.6,0,0.9-0.2c0.1-0.1,0.2-0.2,0.3-0.3
	c0.2-0.3,0.3-0.5,0.5-0.8c0.1-0.3,0.2-0.7,0.3-1c0.1-0.7,0.2-1.3,0.3-1.7c0.3-1.9,0.8-3.8,1.3-5.6c0.2-0.5,0.3-1,0.5-1.5l0.4-1.3
	c0.1-0.5,0.3-1,0.5-1.5c0-0.1,0.1-0.2,0.1-0.3c0.1-0.3,0.2-0.6,0.3-0.9c0.2-0.5,0.5-1.1,0.8-1.6l0,0c0.2-0.3,0.3-0.5,0.5-0.8
	c0,0,0,0,0-0.1c0.1-0.2,0.2-0.4,0.2-0.6c0-0.1,0.1-0.2,0.1-0.3l0,0h0.1c0.2,0.1,0.3,0.2,0.5,0.3c1,0.6,1.8,1.4,2.6,2.3
	c0.2,0.2,0.4,0.5,0.6,0.7c0,0.1,0.1,0.2,0.1,0.2c0.2,0.3,0.4,0.6,0.6,0.9c0,0.1,0.1,0.2,0.1,0.3v0.1c0,0.1,0,0.3,0,0.4v0.1
	c-0.1,0.3-0.2,0.5-0.4,0.7l-3.7,5.3c-1.2,1.7-2.8,3.1-4.1,4.7c-0.3,0.4-0.6,0.8-1,1.2c-0.1,0.2-0.3,0.4-0.5,0.5
	c-0.2,0.2-0.3,0.3-0.5,0.5l-0.1,0.1c-0.8,0.5-1.5,1-2.1,1.6C476.8,699.7,476.6,699.8,476.5,699.7L476.5,699.7z M491.6,684.6l0.2,0.1
	h0.1c0.8,0.8,1.5,1.9,1.9,3c0,0.2,0.1,0.4,0.1,0.5c0,0.9-0.2,1.8-0.7,2.6c-1.5,2.9-4,4.9-6.6,6.8c-2.1,1.7-4.4,3.1-6.9,4.1
	c-0.3,0.1-0.6,0.2-0.9,0.2l-0.3-0.1c-0.5-0.2-0.9-0.4-1.3-0.8l-0.2-0.2l0,0c0.1,0,0.2,0,0.2,0c0.3-0.1,0.5-0.3,0.7-0.5
	c0.7-0.6,1.4-1.1,2.1-1.6c0.4-0.3,0.8-0.7,1.1-1.1c0.3-0.4,0.6-0.8,1-1.2s0.7-0.8,1-1.2c1.1-1.1,2.2-2.3,3.1-3.6
	c1.2-1.8,2.5-3.5,3.7-5.3c0.2-0.3,0.4-0.6,0.5-1c0.1-0.3,0.1-0.5,0.1-0.8v-0.1c0-0.1,0-0.2-0.1-0.3c0-0.2-0.1-0.3-0.2-0.5l0,0l0,0
	l-0.1-0.1C490.6,684.1,491.1,684.4,491.6,684.6L491.6,684.6z M493.8,674.3c0,2.1-1.1,3.4-1.8,5.4c-0.1,0.6-0.4,1.1-0.7,1.5
	c-0.2,0.2-0.4,0.5-0.5,0.8c-0.1,0.2-0.3,0.3-0.5,0.4c-0.1,0-0.2,0-0.3,0c-0.2,0-0.5,0-0.7-0.1c-1.1-1.5-2.4-2.7-4-3.6l-0.2-0.1
	c-0.1,0-0.2-0.1-0.3-0.2c-0.1-0.1-0.2-0.2-0.3-0.4c0-0.1-0.1-0.1-0.1-0.2c-0.2-0.2-0.3-0.5-0.4-0.7l0,0h0.1c0.1,0,0.3,0,0.5-0.1l0,0
	l0,0c0.3-0.1,0.6-0.3,0.9-0.5l0,0c0.3-0.2,0.5-0.4,0.7-0.7l0,0c0.1-0.1,0.1-0.2,0.2-0.3c0.1,0,0.1-0.1,0.1-0.2l0,0l0,0
	c0,0,0.1-0.2,0.2-0.4l0,0c0.5-0.8,0.7-1.6,0.8-2.5c0-0.2,0-0.4,0-0.6c-0.1-0.6-0.2-1.2-0.4-1.8c-0.1-0.4-0.2-0.8-0.4-1.1l0,0
	c-0.1-0.2-0.1-0.5-0.2-0.8c0.4-2,0.5-4.1,0.5-6.1c0-1.2,0-2.4-0.1-3.6c-0.1-1.2-0.3-2.4-0.6-3.6c-0.4-1.6-0.9-3.3-1.6-4.8l0,0
	c0-0.4,0.1-0.9,0.2-1.3c0-0.1,0.1-0.2,0.1-0.3c0.1-0.3,0.5-0.5,0.7-1c0.4-0.9,0.6-2,0.5-3c0-0.4-0.1-0.8-0.2-1.2
	c0-0.3-0.1-0.5-0.2-0.8l0,0h0.1c0,0,0.1,0,0.1-0.1c0.2-0.1,0.3-0.3,0.4-0.5v-0.1l0,0c0.7,0.6,1.5,1.2,2.2,1.7s1.5,1,2.3,1.3l0,0
	c0.2,0.5,0.3,1.1,0.3,1.6v0.1c0.1,2.1,0.3,4.2,0.4,6.2c0.1,1.7,0,3.3,0.1,5.1c0,0.5,0.1,1,0.1,1.5c0.4,2.7,0.5,5.2,0.8,7.9l0.1,2
	c0,0.5,0.1,0.9,0.1,1.3c0.1,1.1,0.3,2.2,0.4,3.2C493.7,673.9,493.8,674.1,493.8,674.3L493.8,674.3z M491.4,641
	c0.1,0.2,0.2,0.3,0.4,0.4c0,0.4,0.1,0.7,0.1,1.1s0,0.7,0,1.1c-0.2,0-0.3,0-0.5-0.1h-0.1c-0.7-0.3-1.4-0.7-2-1.1l0,0
	c-0.8-0.6-1.6-1.2-2.4-1.8c0-0.4-0.2-0.8-0.5-1.1c-0.6-0.7-1.3-1.3-2-1.7c-0.7-0.5-1.5-1-2.2-1.5c0.1-0.9,0.3-1.8,0.4-2.7
	c0-0.3,0.1-0.6,0.1-0.9c0.1-0.2,0.2-0.5,0.3-0.7c0.4-0.4,1-0.7,1.5-0.8c0.3-0.1,0.6-0.3,0.9-0.6l0,0c0.3,0.4,0.6,0.9,0.9,1.3l0,0
	c-0.1,0.1-0.1,0.3-0.1,0.5v0.1l0,0c0,0.4,0.2,0.8,0.4,1.1c0.2,0.3,0.4,0.6,0.6,0.9C489.1,636.5,490.4,638.7,491.4,641z M488.7,498
	c0.1,0.9-0.2,1.8-0.8,2.5c-0.4,0.3-1,0.5-1.4,1.2c-0.3,0.7-0.6,1.4-0.7,2.1c-0.5,2.6-0.6,5.3-0.4,7.9c0.1,0.8,0.1,1.7,0.2,2.5
	c0.1,1.7,0.3,3.3,0.4,5c0.2,2.8,0.4,5.7,0.6,8.6l0.1,1.4c0.3,3.7,0.8,7.4,1.2,11.1s0.7,7.3,1.1,11c0.4,4,1.1,8,1.4,11.9
	c0.1,0.9,0.1,1.8,0.1,2.6c0.1,4.9,0.2,9.8,0.4,14.8s0.2,9.8,0.2,14.6s0,9.5-0.5,14c-0.1,2.6-0.1,5.1,0.2,7.7c0,0.1,0,0.3,0,0.4
	c0.1,1.7,0.3,3.4,0.6,5.1c0.2,1.4,0.8,3,0.8,4.2c0,0.3,0,0.6,0,0.8c-0.1,0.6-0.4,1.2-0.8,1.6c-0.4,0.6-0.5,1.2-0.8,1.6
	c-0.5,0.4-1.1,0.7-1.7,0.7c-0.6,0.1-1.3,0.1-2,0c-0.5-0.6-0.9-1.2-1.3-1.8c-0.7-1-1.3-2.1-1.9-3.2l0,0c-0.2-0.4-0.5-0.9-0.7-1.3
	l-0.1-0.1c-0.1-0.2-0.1-0.4-0.2-0.6s-0.2-0.5-0.3-0.7l-0.1-0.3c0-0.1,0-0.1,0-0.2c-0.1-0.2-0.1-0.5-0.1-0.7c0-0.6,0-1.2,0.1-1.8
	c0-1,0.2-1.9,0.6-2.8c0.6-1.5,1-3.1,1-4.7c0.1-0.8,0.2-1.7,0.2-2.5c0.1-1.2,0.3-2.4,0.4-3.7c0.2-1.8,0.4-3.6,0.6-5.4
	c0.3-3.5,0.3-7,0.2-10.5c-0.1-3,0.6-5.6,0.6-8.8c0-6.4-0.2-12.9-0.7-19.5c-0.1-0.9-0.1-1.8-0.2-2.7c-0.6-7.6-0.9-15.4-2.5-23.3
	c-0.9-4.7-1.9-9.5-3-14.2c0-0.1,0-0.2-0.1-0.2l0,0c-0.3-1.4-0.7-2.7-1-4.1c-0.2-0.8-0.4-1.7-0.6-2.5c-0.1-0.5-0.2-0.9-0.2-1.4
	c-0.1-1.4,0.1-2.7,0.4-4.1l0,0c0.2-0.7,0.3-1.3,0.5-2c0.4-1.4,0.8-2.9,1.2-4.3c0.2-0.6,0.3-1.3,0.2-2c-0.1-1.5-0.7-2.9-1.6-4
	l-0.2-0.2c-0.2-0.2-0.4-0.4-0.5-0.7c-0.1-0.2-0.2-0.4-0.2-0.6c0-0.1,0-0.2,0-0.3c0,0,0-0.1,0-0.2c0.1-0.5,0.1-0.8,0.3-0.9
	c1.2-0.9,2.6-1.4,4-1.5h0.1c0.7-0.1,1.5,0,2.2,0.1h0.1c0.2,0.1,0.5,0.2,0.7,0.3c0.7,0.4,1.3,0.8,1.9,1.3c0.5,0.4,1,0.8,1.3,1.3
	C488.6,497.1,488.8,497.5,488.7,498L488.7,498z M478.5,504.9v-0.3c0.1-1.1,0.4-2.1,0.4-3.2c0-0.4,0-0.7,0-1.1
	c0.1,0.4,0.2,0.8,0.2,1.2c0,0.3,0,0.6,0,0.9s-0.1,0.5-0.2,0.8C478.8,503.8,478.6,504.3,478.5,504.9L478.5,504.9z"/>
<path class="st2" d="M173.7,558.6h1c0.1-2.9,0.2-5.8,0.4-8.8c0-0.3,0-0.5,0.1-0.8l0.1-1.5c0.3-3.5,0.5-7,1.1-10.5
	c0.1-0.5,0.2-1,0.3-1.5c0.3-1.2,0.5-2.5,0.8-3.7c0.7-3.7,1.3-7.4,2.1-11.2c0.6-2.6,1.2-5.1,1.8-7.7c0.6-2.6,1.2-5.2,1.9-7.8
	c0.5-2.2,1.1-4.5,1.7-6.7c0.1-0.5,0.3-1,0.4-1.5c0.1-0.3,0.2-0.6,0.3-0.9c0.4-1,0.7-1.9,1-2.9c0.1-0.3,0.1-0.5,0.2-0.8
	c0.1-0.3,0.1-0.6,0.1-0.9c0-0.1,0-0.2,0-0.3c0.8-0.5,1.4-1.2,1.9-2c0.1-0.1,0.2-0.3,0.2-0.4c0.4-0.7,0.7-1.5,0.8-2.3
	c0.1-0.3,0.1-0.6,0.1-0.9c0-0.2,0-0.3,0-0.5s0-0.2,0-0.2l0.2-0.1l0.2-0.1l0.9-0.2l0.5-0.2l0.2-0.1c0.7-0.2,1.4-0.5,2.1-0.9
	c0.2-0.1,0.5-0.3,0.7-0.4c0.2-0.2,0.5-0.4,0.7-0.6c0.4-0.4,0.8-0.9,1.1-1.5c0.2-0.3,0.3-0.5,0.5-0.8c0.5-1,1-2,1.3-3l1-4
	c0-0.2,0-0.4,0-0.5s0-0.3,0-0.4c0-0.7-0.2-1.4-0.6-2.1l-0.1-0.3c-0.1-0.2-0.3-0.4-0.4-0.5c-0.4-0.3-0.8-0.6-1.2-0.9
	c-0.1-0.1-0.2-0.1-0.2-0.2c-0.3-0.3-0.6-0.6-0.9-0.9c-0.6-0.8-1.2-1.6-1.6-2.5c-0.3-0.5-0.5-1.1-0.8-1.6c-0.1-0.3-0.3-0.5-0.4-0.8
	c-0.6-1.3-1.1-2.5-1.6-3.9s-0.8-2.7-1.1-4.1c-0.1-0.7-0.3-1.4-0.4-2.2c-0.3-2.3-0.5-4.6-0.6-6.9c-0.1-4.4,0.1-8.9,0.4-13.5
	c0.1-1.3,0.2-2.7,0.3-4c0.5-5.4,1.1-10.8,1.7-16.3c0.3-2.7,0.6-5.4,0.9-8.1c0.1-1.4,0.3-2.7,0.4-4c1.1-10.5,2.5-21.1,3.6-31.7
	c0.7-6.3,1.3-12.6,1.8-18.8v-0.3c0.1-1.9,0.3-3.7,0.4-5.6c0.3-3.3,0.6-6.5,1-9.8c1.1-9.8,2.6-19.8,4.5-29.8
	c0.8-5.1,2.1-10.1,3.8-14.9c0.2-0.6,0.5-1.2,0.7-1.9s0.5-1.2,0.8-1.9s0.6-1.2,0.9-1.8s0.6-1.2,1-1.8c0.2-0.3,0.4-0.6,0.6-1
	c0.4-0.6,0.8-1.2,1.3-1.9c0.2-0.3,0.5-0.6,0.7-0.9c0.7-0.8,1.7-1.5,2.5-2.5c0.2-0.3,0.4-0.6,0.6-0.9c0.5-1,0.9-2,1.1-3.1
	c0.1-0.4,0.1-0.7,0.2-1c0.8,0.4,1.5,0.9,2.3,1.4c0.2,0.1,0.4,0.3,0.6,0.4l0.2,0.2c0.4,0.3,0.7,0.6,0.9,1l0.1,0.3
	c0.1,0.5,0.2,1,0.2,1.5c0,1.5,0.3,3.1,0.9,4.5c0.7,1.2,2,1.4,3.1,1.8c1.3,0.4,2.6,1,3.9,1.6c0,0.6,0,1.2,0.1,1.8
	c-0.3,0.3-0.6,0.6-0.8,0.9c0.6-0.5,1.3-1,1.9-1.5c0-0.2-0.1-0.4-0.1-0.5c-0.1-0.5-0.1-1,0-1.5c0.1-0.9,0.3-1.8,0.6-2.7
	c0.9-2.6,2.2-4.9,4-7l0.5-1.5c-0.4-1.7,0.7-3.8,2.1-5.8l1.2-3.3l-0.2,0.3c-0.2,0.4-0.5,0.7-0.8,1.1c-1.8,2.6-4.1,5.7-3.4,8.3
	c-2,2.3-3.5,4.9-4.4,7.8c-0.2,0.7-0.4,1.5-0.5,2.2c-1.1-0.5-2.2-1-3.4-1.3c-1.1-0.4-2.3-0.7-2.8-1.5c-0.5-1.3-0.8-2.7-0.8-4.1
	c0-0.7-0.2-1.4-0.5-2.1c-0.3-0.6-0.8-1-1.3-1.4c-1.1-0.8-2.3-1.6-3.5-2.2c0.1-0.5,0.1-1,0.2-1.4c0-0.2,0-0.5,0.1-0.7
	c0-0.7,0-1.4,0-2.1c0-0.1,0-0.3,0-0.4c0-0.6-0.1-1.1-0.2-1.7v-0.2v-0.1c-0.1-0.6-0.2-1.2-0.4-1.8l0,0c-0.1-0.3-0.2-0.6-0.3-0.9
	s-0.2-0.6-0.3-0.9l0,0l0.6-0.9c0.4-0.5,0.7-1.1,1-1.7c0.1-0.3,0.2-0.7,0.3-1c0-0.3,0-0.6-0.2-0.9c0,0,0,0,0-0.1
	c-0.2-0.3-0.5-0.4-0.8-0.5c-0.3,0-0.5,0-0.8,0c-1.2,0.1-2.5,0.3-3.7,0.6l0,0c-0.8-0.7-1.8-1.3-2.8-1.8l-0.1-0.1
	c0.2-0.1,0.3-0.2,0.5-0.2c0.1,0,0.2-0.1,0.3-0.1s0.1,0,0.1,0l0,0c0.1,0.1,0.1,0.1,0.2,0.2l0.1,0.1l0.1,0.1l0.2,0.1l0,0h0.1h0.2
	c0.1,0,0.2,0,0.3,0h0.1c0.2,0,0.3,0,0.5-0.1l0,0c0.3-0.1,0.5-0.2,0.8-0.3c1.9-0.9,3.8-1.9,5.7-2.8l0.8-0.4l2-0.9l0.8-0.4
	c0.9-0.4,1.8-0.8,2.8-1.2s2.2-0.9,3.3-1.3c0.4-0.1,0.8-0.3,1.1-0.4c0.6-0.2,1.2-0.4,1.8-0.6c1.6-0.5,3.3-0.7,5-0.5
	c0.1,0,0.2,0,0.2,0c0.1,0,0.2-0.1,0.3-0.2l0,0l1.4-1.3l0.9-0.9l0.6-0.5l1.2-1.1l1.8-1.7c0.6-0.2,1.1-0.4,1.6-0.6l0.5-0.2
	c0.5-0.2,1-0.4,1.5-0.7l0.1-0.1c0.4-0.2,0.8-0.4,1.3-0.7l0.8-0.4l0.6-1.4c-0.5,0.3-1,0.5-1.5,0.8l-0.2,0.1c-1.4,0.8-3,1.5-4.5,2
	h-0.1l-0.3,0.2l-1.5,1.3l-3.5,3.2l-0.9,0.8c-0.1,0-0.3,0-0.4,0l0,0c-0.6-0.1-1.3-0.1-1.9,0l-0.6,0.1h-0.4l-0.3,0.1
	c-0.5,0.1-1,0.2-1.5,0.3s-1.2,0.3-1.8,0.5l-0.8,0.3c-1.3,0.5-2.6,1-3.8,1.4c-3.1,1.2-6.1,2.7-9.2,4.2l-3,1.5
	c-0.2,0.1-0.4,0.2-0.6,0.3c-0.2,0.1-0.3,0.1-0.5,0c-0.1,0-0.2-0.2-0.4-0.3l-0.1-0.1h-0.1l-0.2-0.1h-0.3h-0.1c-0.2,0-0.3,0-0.5,0.1
	c-0.3,0.1-0.7,0.3-1,0.4c-0.2,0.1-0.5,0.2-0.7,0.3h-0.1l0,0h-0.1c-0.8,0.2-1.6,0.4-2.4,0.5c-1.3,0.1-2.5,0.3-3.7,0.7l-0.2,0.1
	c0.2-0.3,0.4-0.5,0.7-0.8l0.1-0.1c0.6-0.5,1.2-0.9,1.9-1.3c1.4-0.8,2.9-1.4,4.4-1.9c0.8-0.3,1.6-0.5,2.4-0.6
	c0.3-0.1,0.5-0.3,0.6-0.5c0.3-0.7,0.8-1.3,1.4-1.8c0.7-0.5,1.4-1,2.1-1.4c3.7-2.1,7.4-3.5,11.2-5.5s7.8-4.2,11.7-5.9
	s7.8-3.6,11.6-5.8c0.8-0.5,1.7-1,2.5-1.4l0.6-1.4c-1.1,0.6-2.1,1.3-3.2,1.9c-1.4,0.8-2.9,1.5-4.3,2.3s-2.9,1.4-4.3,2.1
	c-0.9,0.4-1.9,0.9-2.9,1.3c-4,1.8-7.9,3.9-11.8,6c-2.8,1.5-5.6,2.6-8.4,4c-1,0.5-1.9,1-2.9,1.5l-0.6,0.4c-0.6,0.4-1.2,0.8-1.8,1.2
	c-0.5,0.4-1,0.9-1.4,1.5c-0.1,0.2-0.2,0.4-0.4,0.6l-1,0.3c-0.4,0.1-0.7,0.2-1.1,0.3c-0.8,0.3-1.6,0.6-2.4,0.9s-1.6,0.7-2.3,1.1
	c-0.6,0.3-1.1,0.7-1.7,1.1c-0.2,0.1-0.4,0.3-0.6,0.5c-0.6,0.5-1.1,1.2-1.4,1.9c-0.2,0.2-0.5,0.3-0.7,0.5c-1.1,0.9-2.1,1.9-3,3.1
	c-0.4,0.6-0.8,1.2-1.2,1.8c-0.3,0.6-0.6,1.3-0.9,1.9c-0.7,0.5-1.3,1.1-1.9,1.8c-0.5,0.8-1,1.6-1.3,2.4c-0.8,1.8-1.6,3.5-2.4,5.3
	c-0.4,0.9-0.7,1.8-1,2.7s-0.6,1.8-0.9,2.6c-1,3.4-1.7,6.9-2.1,10.4c-0.2,1.7-0.4,3.4-0.5,5.1c-0.1,2-0.2,4-0.3,6
	c-0.3,6.3-0.2,12.5-0.4,18.7c-0.1,2.1-0.1,4.2-0.2,6.2c0,0.8-0.1,1.6-0.2,2.4c-0.1,2-0.3,3.9-0.5,5.9c-0.6,5.9-1.4,11.9-2,17.8
	c-0.4,3.8-0.8,7.5-1.2,11.3s-0.7,7.5-1,11.2c-0.2,3.1-0.4,6.2-0.5,9.2c-0.1,1.5-0.1,3-0.1,4.6c0,1.5,0,3,0,4.5c0,2-0.1,4-0.2,6
	c-0.1,0.9-0.1,1.8-0.2,2.7c-0.1,0.9-0.2,1.8-0.3,2.7c-0.3,2.7-0.7,5.4-1,8.1c-0.2,1.8-0.4,3.6-0.6,5.4c-0.1,0.9-0.2,1.8-0.3,2.7
	s-0.2,2-0.3,3.1s-0.2,2.1-0.4,3.1c-0.3,2.1-0.7,4.2-1.1,6.3c-0.2,1-0.4,2.1-0.7,3.2c-0.8,3.2-1.6,6.3-2.7,9.5
	c-0.8,2.3-1.5,4.5-2.3,6.8s-1.6,4.5-2.4,6.8c-0.8,2.3-1.7,4.5-2.5,6.8s-1.7,4.5-2.6,6.8c-1.6,4.1-2.8,8.3-3.6,12.6
	c-0.1,0.6-0.2,1.2-0.3,1.8s-0.2,1.5-0.2,2.2c-0.2,1.7,0,3.3,0.3,4.9c0.1,0.5,0.3,1,0.5,1.4c0.2,0.3,0.3,0.7,0.5,1
	c0.1,0.1,0.1,0.2,0.2,0.3c0.1,0.2,0.3,0.4,0.5,0.6s0.4,0.3,0.6,0.5l-0.4,0.3l-0.7,0.5c-0.5,0.4-1,0.8-1.4,1.3
	c-0.2,0.2-0.3,0.4-0.4,0.6l-0.1,0.2c-0.3,0.5-0.4,1-0.4,1.6v0.4c0,0.9,0.2,1.7,0.6,2.5c0.1,0.2,0.3,0.4,0.5,0.6l0.4,0.3
	c0.1,0.1,0.2,0.1,0.3,0.2s0.2,0.1,0.3,0.2s0.1,0.2,0.2,0.3c0.1,0.3,0.3,0.6,0.4,1c0.1,0.3,0.2,0.7,0.3,1c0.1,0.6,0.2,1.2,0.3,1.8
	c0.1,1.3,0.2,2.5,0.1,3.8c0,0.7,0,1.3-0.1,2c0,0.4-0.1,0.8-0.1,1.2s-0.1,0.8-0.1,1.2s-0.1,1.1-0.1,1.7c-0.1,1.1-0.2,2.2-0.3,3.3
	c-0.1,1.9-0.3,3.8-0.4,5.7c-0.1,1-0.1,1.9-0.2,2.8l-0.1,1.4c-0.2,3.2-0.7,6.4-1.1,9.7l-0.2,1.4c-0.2,1.8-0.4,3.7-0.6,5.5
	s-0.4,3.7-0.6,5.5c0,0.5-0.1,1-0.2,1.5c-0.2,1.5-0.4,3-0.6,4.5c0,0.4-0.1,0.8-0.1,1.1h1c0.3-2.5,0.7-5,0.9-7.4
	c0.4-3.7,0.7-7.3,1.1-11s0.9-7.4,1.2-11.1l0.1-1.4c0.2-2.9,0.4-5.7,0.6-8.6c0.1-1.7,0.2-3.3,0.4-5c0.1-0.8,0.1-1.7,0.2-2.5
	c0.3-2.6,0.2-5.3-0.4-7.9c-0.2-0.7-0.4-1.5-0.7-2.1c-0.4-0.7-0.9-0.9-1.4-1.2c-0.6-0.7-0.9-1.6-0.8-2.5v-0.3c0-0.4,0.1-0.8,0.4-1.2
	c0.4-0.5,0.8-1,1.3-1.3c0.6-0.5,1.3-0.9,1.9-1.3c0.2-0.1,0.5-0.2,0.7-0.3h0.1c0.7-0.2,1.5-0.2,2.2-0.1h0.1c1.4,0.1,2.8,0.6,4,1.5
	c0.2,0.1,0.2,0.5,0.3,0.9c0,0,0,0.1,0,0.2s0,0.2,0,0.3c0,0.2-0.1,0.5-0.2,0.6c-0.1,0.2-0.3,0.5-0.5,0.7l-0.2,0.2
	c-0.9,1.1-1.5,2.5-1.6,4c-0.1,0.7,0,1.4,0.2,2c0.4,1.4,0.8,2.8,1.2,4.3c0.2,0.7,0.4,1.3,0.5,2l0,0c0.4,1.3,0.5,2.7,0.4,4.1
	c0,0.5-0.1,1-0.2,1.4c-0.2,0.8-0.4,1.6-0.6,2.5c-0.4,1.3-0.7,2.7-1,4.1l0,0c0,0.1,0,0.2-0.1,0.2c-1.1,4.8-2.1,9.5-3,14.2
	c-1.5,7.4-1.8,14.7-2.4,21.9h1c0.2-3.2,0.5-6.5,0.8-9.7c0.1-1.2,0.2-2.4,0.4-3.6c0.2-1.9,0.4-3.9,0.8-5.8c0.2-1,0.3-1.9,0.5-2.9
	c0.4-2.1,0.8-4.2,1.3-6.3c-0.1,1-0.3,2-0.4,3.1c-0.1,0.6-0.2,1.2-0.2,1.8s-0.2,1.2-0.2,1.8c-0.6,4.3-1.1,8.5-1.4,12.7
	c-0.2,2.4-0.3,4.9-0.3,7.3c0,0.6,0,1.2,0,1.8h1c0-0.7,0-1.5,0-2.2c0-2.4,0.1-4.8,0.3-7.2c0.3-4.7,0.9-9.5,1.6-14.4
	c0.2-1.8,0.5-3.5,0.8-5.3c0.3-1.9,0.5-3.8,0.6-5.7c0-0.6,0.1-1.2,0.1-1.8c0.2-0.7,0.4-1.5,0.6-2.2c0.4-1.4,0.8-2.8,1.1-4.3
	c0.1-0.4,0.2-0.9,0.2-1.3c0-0.1,0-0.2,0-0.3s0-0.4,0-0.6c0-1.3-0.1-2.6-0.5-3.8c-0.1-0.6-0.3-1.2-0.5-1.9c0.1-0.7,0.2-1.3,0.3-2
	c0-0.5,0-1.1,0-1.6c-0.3-1.4-0.4-2.8-0.4-4.3c0-0.2,0-0.4,0.1-0.6c0.1-0.5,0.2-0.9,0.3-1.3l0,0c0.1-0.1,0.2-0.2,0.2-0.3l0.2-0.4
	c0.2-0.3,0.3-0.6,0.3-0.9c0-0.1,0-0.2,0-0.3c0.1-0.2,0.2-0.3,0.3-0.5c0.7-0.9,1.5-1.7,2.3-2.4c1-0.8,1.9-1.6,2.8-2.5l0,0
	c0.3-0.3,0.6-0.7,0.9-1.1c0.7-0.9,1.4-1.8,2-2.6c0.4-0.4,0.7-0.8,1.1-1.2c0.3-0.3,0.7-0.6,1.1-0.8c0.2-0.1,0.5-0.1,0.7,0.1
	c0.9,1.1,1.7,2.3,2.4,3.6c0.4,0.6,0.6,1.3,0.7,2c0,0.3,0,0.7,0,1v0.1c0,0.2,0,0.5-0.1,0.8c-0.3,1.9-1.4,3.9-1.9,6s-1.1,4.5-1.7,6.7
	c-1.2,5.2-2.5,10.3-3.6,15.5s-1.8,10-2.9,14.9c-0.7,4-1.2,8.1-1.4,12.2c-0.1,0.8-0.1,1.6-0.2,2.3C173.9,553,173.8,555.8,173.7,558.6
	z M169.7,504.9c-0.2-0.6-0.3-1.1-0.5-1.7c-0.1-0.3-0.1-0.5-0.2-0.8c0-0.3,0-0.6,0-0.9c0-0.4,0.1-0.8,0.2-1.2c0,0.4,0,0.7,0,1.1
	c0.1,1.1,0.3,2.1,0.4,3.2v0.3H169.7z M168.6,492.7c0.2,0,0.4,0,0.6,0h0.4l0.4,0.1c0.4,0.1,0.9,0.1,1.3,0c0.2,0,0.4-0.1,0.7-0.1
	c0.4-0.1,0.7-0.3,1.1-0.5c0.4-0.2,0.7-0.4,1-0.6s0.6-0.4,0.9-0.6c0.2-0.1,0.3-0.2,0.5-0.2c-0.6,0.5-1.1,1-1.7,1.5
	c-0.9,0.7-1.7,1.5-2.4,2.4c-0.1-0.3-0.2-0.5-0.4-0.7C170.2,493.3,169.4,492.9,168.6,492.7L168.6,492.7z M217.8,254.2l-1,0.7
	l-0.2,0.2c-0.2-0.2-0.4-0.4-0.6-0.6C216.6,254.4,217.2,254.3,217.8,254.2L217.8,254.2z M218.4,256.8l-0.3,0.4l-0.6,0.8
	c-0.1,0.1-0.1,0.2-0.1,0.3c0,0.1,0,0.2,0,0.3l0,0l0,0h-0.1c-0.3,0.1-0.8,0.4-1.3,0.6s-1,0.5-1.5,0.6c-0.2,0.1-0.3,0.1-0.5,0.1
	c-0.3-0.1-0.5-0.3-0.7-0.5s-0.2-0.4-0.2-0.6l0.1-0.3c0.2-0.4,0.5-0.6,0.9-0.9l2-1.4l1-0.7l2.1-1.5c0,0,0.1,0,0.1,0.1
	c0.1,0.1,0.1,0.3,0.1,0.4c0,0.2-0.1,0.4-0.2,0.6c-0.1,0.2-0.2,0.4-0.4,0.7L218.4,256.8z M186.1,487.8c-0.2-0.3-0.4-0.6-0.5-1
	c-0.3-0.5-0.6-1-0.9-1.4c-0.3-0.5-0.6-0.9-1-1.3s-1-0.5-1.4-0.3c-0.2,0.1-0.3,0.1-0.4,0.2c-0.2,0.1-0.4,0.3-0.6,0.4
	c-0.2,0.2-0.4,0.3-0.6,0.5c-0.3,0.2-0.5,0.5-0.7,0.7l-0.6,0.7c-0.4,0.5-0.8,0.9-1.1,1.4s-0.9,1.1-1.3,1.6c-0.3,0-0.7,0-1,0.1
	c-0.7,0.3-1.4,0.7-2.1,1.1c-0.6,0.4-1.2,0.7-1.8,1c-0.1,0.1-0.3,0.1-0.5,0.1c-0.5,0-1,0-1.5-0.1c-0.6-0.1-1.2-0.1-1.8,0l-0.4,0.1
	c-0.5,0.2-1,0.4-1.4,0.6h-0.6h-0.6c-0.5,0-0.9,0.1-1.3,0.2h-0.1c-0.2,0.1-0.4,0.2-0.6,0.2c-0.7-0.2-1.2-0.5-1.6-1.1
	c-0.5-0.8-0.9-1.6-1.1-2.6c-0.4-1.5-0.5-3.1-0.3-4.6c0-0.7,0.1-1.4,0.2-2.1c0.8-4.8,2.1-9.5,3.8-14.1c3.5-9.1,6.8-18.2,9.9-27.3
	c2.8-8.2,4.6-16.8,5.3-25.4c0.6-7.2,1.9-14.5,2.4-21.6c0.1-2,0.2-4.1,0.2-6.1c-0.1-6,0.2-12,0.6-18.2c0.5-7.5,1.3-15,2.1-22.5
	c0.8-7.9,1.9-15.8,2.5-23.7c0.1-0.8,0.1-1.6,0.1-2.4c0.5-8.4,0.3-16.6,0.7-25c0.1-2,0.2-3.9,0.3-5.9c0.3-7,1.8-13.8,4.4-20.3
	c0.7-1.8,1.5-3.5,2.3-5.2c0.3-0.7,0.7-1.4,1.1-2.1c0.5-0.6,1-1.1,1.7-1.5c0.2-0.1,0.3-0.3,0.3-0.4c0.9-2.6,2.6-4.8,4.8-6.4
	c0.1,0,0.2,0,0.4,0c0.3-0.2,0.7-0.3,1-0.4c0.3-0.1,0.6-0.2,0.9-0.2c0.9-0.2,1.7-0.3,2.7-0.4c0.4-0.1,0.9-0.1,1.3-0.2
	s0.7-0.2,1.1-0.3l0.4,0.2l0.4,0.1l0.3,0.1h0.1c0.2,0.1,0.5,0.2,0.7,0.4l0.1,0.1l0.1,0.1c0.3,0.2,0.6,0.3,0.8,0.5h0.1l0.4,0.3
	l0.4,0.4l0,0l0.5,0.4c0.2,0.2,0.4,0.4,0.6,0.6l-1.8,1.3l-0.4,0.3c-0.3,0.2-0.6,0.5-0.8,0.8c-0.1,0.2-0.2,0.3-0.3,0.5
	c-0.1,0.1-0.1,0.3-0.1,0.4s-0.1,0.3-0.1,0.4s0,0.1,0,0.2c0,0.3,0.1,0.5,0.2,0.8c0,0.1,0.1,0.2,0.2,0.2c0.1,0.1,0.3,0.3,0.4,0.4
	c0.1,0.1,0.3,0.2,0.4,0.3c0.3,0.1,0.6,0.1,0.8,0l0.3-0.1c0.3-0.1,0.6-0.2,0.8-0.3l0.9-0.4l0.8-0.4l0.5-0.2l0.4-0.2
	c0.1,0.2,0.2,0.5,0.3,0.7s0.1,0.2,0.1,0.3c0.1,0.5,0.2,0.9,0.3,1.4c0,0.1,0,0.2,0,0.2c0,0.1,0,0.2,0,0.2c0.1,0.5,0.1,0.9,0.1,1.4
	l0,0v0.5c0,0.7,0,1.3,0,2v0.3c0,0.1,0,0.2,0,0.3c0,0.5-0.1,1-0.2,1.6s-0.2,1.3-0.3,2c-0.2,1.2-0.7,2.3-1.4,3.3
	c-0.6,0.8-1.6,1.5-2.5,2.5c-1.1,1.2-2,2.6-2.9,4c-1.4,2.4-2.6,5-3.6,7.6c-1.7,4.9-3.1,10-3.9,15.2c-2.8,15-4.8,30.1-5.9,45.3v0.3
	c-1.2,16.5-3.7,33.6-5.4,50.5c-1.1,10.7-2.7,21.8-3.4,32.5c-0.3,4.6-0.5,9.1-0.5,13.6c-0.1,6,1.2,12,3.7,17.5
	c1.1,2.2,1.9,4.5,3.8,6.1c0.7,0.5,1.4,0.8,1.7,1.4c0.4,0.7,0.6,1.6,0.6,2.4l-0.9,4.1c-0.4,1-0.8,1.9-1.3,2.8c-0.4,0.8-1,1.6-1.7,2.2
	c-0.7,0.5-1.6,0.9-2.4,1.2l-0.2,0.1c-0.2,0.1-1.2,0.4-1.9,0.5c-0.1,0-0.3,0.1-0.4,0.1l0,0l0,0c-0.1,0-0.1,0-0.2,0
	c-0.1,0-0.1,0-0.2,0.1c-0.1,0-0.1,0.1-0.2,0.2c-0.1,0.1-0.1,0.1-0.1,0.2l0,0c0,0.1-0.1,0.1-0.1,0.2s0,0.1,0,0.2
	c0.1,0.4,0.1,0.8,0.1,1.2c-0.1,1-0.4,2-0.9,2.9c-0.3,0.5-0.7,0.9-1.1,1.3c-0.1-0.5-0.2-1-0.4-1.5
	C186.5,488.3,186.3,488.1,186.1,487.8L186.1,487.8z"/>
<polygon class="st3" points="163.5,548.8 163.2,548.8 163.2,548.8 "/>
<polyline class="st2" points="173.8,558.6 166,558.6 166,557.7 166,557.7 173.8,557.7 174,557.8 "/>
<polygon class="st2" points="163,558.6 163.1,557.6 158.2,557.5 158.1,558.6 "/>
<polygon class="st3" points="163.5,491.9 163.2,491.9 163.2,491.9 "/>
<polygon class="st3" points="163.5,491.9 163.2,491.9 163.2,491.9 "/>
<line class="st4" x1="446.6" y1="482.6" x2="469.5" y2="622.5"/>
<rect x="440.2" y="481.6" transform="matrix(0.9869 -0.1614 0.1614 0.9869 -72.0371 78.4222)" class="st5" width="13" height="2"/>
<rect x="463.1" y="621.4" transform="matrix(0.9869 -0.1614 0.1614 0.9869 -94.3006 83.9506)" class="st5" width="13" height="2"/>
<line class="st4" x1="200.7" y1="486.3" x2="183.7" y2="566.1"/>
<rect x="199.7" y="479.9" transform="matrix(0.2088 -0.978 0.978 0.2088 -316.8253 581.1295)" class="st5" width="2" height="13"/>
<rect x="182.7" y="559.6" transform="matrix(0.2088 -0.978 0.978 0.2088 -408.2839 627.6056)" class="st5" width="2" height="13"/>
<line class="st6" x1="452.5" y1="493.8" x2="578.5" y2="470.1"/>
<line class="st6" x1="467.4" y1="558.2" x2="579.5" y2="537.6"/>
<line class="st6" x1="473.9" y1="619.8" x2="579.5" y2="602.1"/>
<line class="st6" x1="63" y1="509.2" x2="183.9" y2="525"/>
<circle class="st7" cx="39" cy="506.6" r="22.5"/>
<circle class="st7" cx="601" cy="466.6" r="22.5"/>
<circle class="st7" cx="601.5" cy="535.6" r="22.5"/>
<circle class="st7" cx="602" cy="600.9" r="22.5"/>
<polygon class="st5" points="222.8,510.4 195.5,552 250.1,552 "/>
<polygon class="st5" points="428,541 400.7,582.6 455.3,582.6 "/>
<text transform="matrix(1 0 0 1 416.21 578.12)" class="st2 st8 st9">L1</text>
<text transform="matrix(1 0 0 1 22.08 515.12)" class="st2 st8 st9">C4</text>
<text transform="matrix(1 0 0 1 587.08 475.13)" class="st2 st8 st9">C3</text>
<text transform="matrix(1 0 0 1 585.25 544.11)" class="st2 st8 st9">C2</text>
<text transform="matrix(1 0 0 1 586.53 609.43)" class="st2 st8 st9">C1</text>
<text transform="matrix(1 0 0 1 210.82 547.21)" class="st2 st8 st9">L2</text>
</svg>
