<?xml version="1.0" encoding="utf-8"?>
<!-- Generator: Adobe Illustrator 20.0.0, SVG Export Plug-In . SVG Version: 6.00 Build 0)  -->
<svg version="1.1" id="Layer_1" xmlns="http://www.w3.org/2000/svg" xmlns:xlink="http://www.w3.org/1999/xlink" x="0px" y="0px"
	 viewBox="0 0 648 864" style="enable-background:new 0 0 648 864;" xml:space="preserve">
<style type="text/css">
	.st0{fill:#D1D3D4;}
	.st1{fill:#FFFFFF;}
	.st2{fill:none;stroke:#231F20;stroke-width:0.25;stroke-miterlimit:10;}
	.st3{fill:none;stroke:#0A3B59;stroke-width:2;stroke-miterlimit:10;stroke-dasharray:6,6;}
	.st4{fill:#0A3B59;}
	.st5{fill:none;stroke:#2A8ECD;stroke-width:2;stroke-miterlimit:10;stroke-dasharray:6;}
	.st6{fill:#1578B5;}
	.st7{font-family:'AvenirNext-Regular';}
	.st8{font-size:24px;}
</style>
<title>Outline 7</title>
<path class="st0" d="M125.4,570c-2.9-29.4-9.8-70.1-7.3-96.2c2.6-26.8,19.1-41,15.8-81.5s7.8-79.5,7.8-79.5s-8-39.5,3.5-74.4
	c3.1-8.9,8.1-17,14.6-23.7l-0.1-0.3c15.9-16.4,35.7-25,35.7-25l13.1-6.6c0,0,62.3-25.4,67.7-30.8s7.5-47.9,7.5-63.2H364
	c0,15.3,2,57.8,7.5,63.2s67.7,30.8,67.7,30.8l13.1,6.6c0,0,19.9,8.6,35.7,25l-0.1,0.3c6.6,6.7,11.5,14.8,14.6,23.7
	c11.5,34.9,3.5,74.3,3.5,74.3s11.1,39,7.8,79.5s13.2,54.7,15.8,81.5c4.6,47.8,0.9,114.2-2.2,152.1c-1.4,16.9,0.1,48.9-1.3,66.5
	c-1,12.2-4.4,33-11.3,42.1s-21.8,23.4-26,21.5c-3.4,2.9-23,0.9-19.6-6.6s14.5-9.5,19.3-17.3s5.1-30.9,1.2-31.2s-12,6.6-12.7,14.9
	s-3.4,20.5-13.5,20.9c-7.1,0.2-2.2-9.2-1.5-18.5c0.7-9.1-0.2-27.6,12.7-46.6s14.7-37.1,13-57.2s-26.2-79.7-29-113.7s6.3-50,1.6-65.5
	s-16.2-65.1-14.4-87.2l0.2-1l-5.4-67c0,0-14.1,81-14.1,81c-3.6,13.7-4.8,69.4-4.8,99c0,24-3.2,45.7-1,60.2l-96.7,0.2h-0.1l-96.8-0.2
	c2.2-14.6-1-36.2-1-60.2c0-29.6-1.1-85.3-4.8-99c0,0-14.2-81-14.1-81l-5.4,67l0.2,1c1.8,22.1-9.8,71.7-14.4,87.3s4.4,31.5,1.6,65.5
	c-1.5,18.5-17.5,52-24.7,75.2C164.4,575.7,127.8,594.4,125.4,570z"/>
<path class="st1" d="M512.8,487.5c-0.2-0.2-0.3-0.4-0.5-0.5c-0.5-0.4-1.1-0.7-1.7-0.9l-0.9-0.3l-0.5-0.1c0.3-0.3,0.6-0.6,0.8-0.9
	c0.2-0.3,0.4-0.6,0.6-1c0.1-0.2,0.2-0.3,0.3-0.5c0.3-0.5,0.5-1,0.7-1.5c0.2-0.7,0.4-1.3,0.6-2c0.5-2.1,0.6-4.2,0.5-6.3
	c-0.1-0.9-0.2-1.8-0.3-2.6c-0.1-0.7-0.3-1.4-0.4-2c-0.9-4.8-2.4-9.4-4.3-13.9c-1.1-2.4-2.1-4.8-3.1-7.2c-1-2.4-2-4.8-3-7.2
	c-1-2.4-2-4.8-3-7.2c-1-2.4-1.9-4.8-2.8-7.3c-1.3-3.4-2.4-6.9-3.3-10.4c-0.3-1.2-0.6-2.4-0.8-3.6c-0.5-2.4-1-4.8-1.3-7.2
	c-0.2-1.2-0.3-2.4-0.5-3.6s-0.3-2.4-0.4-3.6s-0.2-2.2-0.3-3.2c-0.2-2.1-0.5-4.3-0.8-6.4c-0.4-3.2-0.8-6.4-1.2-9.5
	c-0.1-1.1-0.2-2.1-0.3-3.2s-0.2-2.1-0.2-3.2c-0.2-2.4-0.2-4.9-0.2-7.3c0-1.9,0-3.7,0-5.6s0-3.7-0.1-5.6c-0.1-3.7-0.3-7.4-0.5-11.1
	c-0.3-4.5-0.6-9-1.1-13.5s-0.9-9-1.3-13.4c-0.7-7-1.6-14-2.3-21c-0.2-2.3-0.4-4.7-0.6-7c-0.1-1-0.1-1.9-0.2-2.9
	c-0.1-2.5-0.2-5.1-0.2-7.6c-0.1-7.6-0.1-15.2-0.3-22.9c-0.1-2.4-0.2-4.8-0.3-7.2c-0.1-2-0.3-4-0.5-6c-0.4-4-1.3-8-2.5-11.8
	c-0.3-1-0.7-1.9-1-2.9s-0.8-1.9-1.2-2.8c-0.9-1.8-1.9-3.6-2.9-5.4c-0.4-0.9-1-1.6-1.6-2.3c-0.7-0.6-1.5-1-2.3-1.3
	c-0.6-1.4-1.4-2.6-2.5-3.6c-1.1-1-2.3-1.8-3.7-2.4c-0.3-0.1-0.6-0.2-0.9-0.3c-0.4-0.7-1-1.3-1.7-1.6c-0.2-0.1-0.4-0.2-0.7-0.3
	c-0.7-0.2-1.4-0.4-2.1-0.5c-0.9-0.1-1.9-0.2-2.9-0.3c-1,0-1.9,0-2.9,0c-0.5,0-0.9,0.1-1.3,0.1l-1.3,0.2c-0.1-0.2-0.3-0.4-0.4-0.5
	c-0.5-0.5-1.1-0.9-1.7-1.1c-0.7-0.3-1.5-0.5-2.2-0.6c-0.2-0.1-0.5-0.1-0.8-0.1c-1.2-0.2-2.4-0.3-3.5-0.4c-3.5-0.3-7-0.4-10.4-0.8
	c-4.8-0.6-9.7-1.4-14.6-1.6c-1.2-0.1-2.4-0.1-3.5-0.2c-1.8-0.1-3.6-0.3-5.3-0.5s-3.5-0.4-5.3-0.7c-1.3-0.2-2.7-0.5-4-0.7l0.7,1.5
	c1,0.2,2,0.4,3.1,0.6c4.7,0.7,9.5,1.2,14.3,1.5c4.8,0.2,9.6,1,14.5,1.6s9.3,0.5,13.9,1.3c0.9,0.1,1.8,0.4,2.6,0.7
	c0.7,0.3,1.4,0.8,1.8,1.5c0.1,0.3,0.4,0.4,0.7,0.3c1-0.2,1.9-0.3,2.9-0.3c1.8-0.1,3.7-0.1,5.5,0.2c0.8,0.1,1.6,0.3,2.3,0.7
	c0,0,0.1,0,0.1,0.1c0.3,0.2,0.6,0.4,0.8,0.6h-0.2c-1.6,0.2-3.1,0.5-4.6,1c-1,0.3-1.9,0.4-2.9,0.5h-0.2h-0.2c-0.3,0-0.6,0-0.9-0.1
	c-0.4-0.1-0.8-0.1-1.2-0.1c-0.2,0-0.4,0.1-0.6,0.1h-0.1c-0.1,0-0.2,0.1-0.3,0.1l-0.2,0.2l-0.1,0.1c-0.1,0.1-0.1,0.1-0.2,0.2
	c-0.2,0.2-0.3,0.4-0.5,0.6c-0.2,0.1-0.4,0.2-0.6,0.2c-0.2,0-0.5,0-0.8,0l-3.8-0.4c-3.8-0.4-7.5-0.7-11.4-0.7c-1.5,0-3.1,0-4.7,0.1
	h-1c-0.8,0-1.5,0.1-2.2,0.2s-1.2,0.2-1.8,0.3l-0.4,0.1l-0.5,0.1l-0.8,0.2c-0.8,0.2-1.6,0.5-2.4,0.9l0,0c-0.2,0.1-0.4,0.1-0.5,0.2
	l-1.1-0.6l-4.4-2.3l-1.8-0.9l-0.4-0.1H408c-1.9,0.1-3.8,0.1-5.6-0.2h-0.3c-0.6-0.1-1.2-0.2-1.9-0.3l0.7,1.4l1,0.1
	c0.5,0.1,1,0.2,1.6,0.2h0.2c0.6,0.1,1.2,0.1,1.9,0.1h0.6c0.7,0,1.3,0,2-0.1l2.4,1.3l1.5,0.8l0.7,0.4l1.2,0.6l1.8,0.9l0,0
	c0.1,0,0.2,0.1,0.3,0.1c0.1,0,0.2,0,0.3-0.1c1.9-1,4-1.6,6.1-1.8c0.7-0.1,1.5-0.2,2.3-0.2c0.5,0,1,0,1.4-0.1c1.4,0,2.8-0.1,4.1,0
	c1.1,0,2.3,0.1,3.4,0.1l1,0.1l2.5,0.2l0.9,0.1c2.4,0.2,4.7,0.4,7.1,0.7c0.3,0,0.7,0,1,0l0,0c0.2,0,0.4-0.1,0.6-0.1h0.1
	c0.1,0,0.2-0.1,0.3-0.1c0.1,0,0.1-0.1,0.2-0.1l0.1-0.1l0,0l0.3-0.3l0.1-0.1l0.1-0.2c0.1-0.1,0.2-0.2,0.2-0.3l0,0
	c0,0,0.1-0.1,0.1-0.1c0.1,0,0.2-0.1,0.3-0.1c0.2,0,0.4,0,0.6,0c-0.1,0.1-0.1,0.1-0.2,0.2c-1.2,1.1-2.4,2.3-3.4,3.5l0,0
	c-1.6,0.2-3.1,0.5-4.6,1c-0.3,0.1-0.7,0.2-1,0.4c-0.4,0.2-0.8,0.6-1,1c0,0,0,0.1,0,0.1c-0.2,0.4-0.2,0.8-0.2,1.1
	c0,0.4,0.1,0.8,0.3,1.2c0.3,0.6,0.8,1.1,1.3,1.6l0.8,0.8l0,0c-0.2,0.4-0.3,0.9-0.4,1.3s-0.3,0.8-0.4,1.2l0,0
	c-0.2,0.8-0.4,1.6-0.5,2.4c0,0,0,0.1,0,0.1v0.2c-0.1,0.7-0.2,1.4-0.2,2.1c0,0.2,0,0.3,0,0.5c-0.1,0.8-0.1,1.7,0,2.5
	c0,0.3,0,0.5,0.1,0.8c0,0.5,0.1,1,0.2,1.6c-1.5,1.4-3,2.8-4.3,4.4c-0.7,0.7-1.2,1.5-1.6,2.4c-0.4,0.9-0.6,1.9-0.6,2.8
	c0,1.9-0.3,3.8-1,5.5c-0.6,1.3-2,2.2-3.5,3.2s-2.9,2.2-4.2,3.3c-0.1-0.9-0.3-1.7-0.6-2.5c-1.1-2.9-2.9-5.5-5.4-7.5
	c0.9-3.5-1.9-6.4-4.1-8.6c-0.3-0.3-0.6-0.7-0.9-1l-0.3-0.3c0.5,1.1,1,2.3,1.5,3.4c1.7,1.8,3.1,3.9,2.5,6.1l0.6,1.6
	c2.2,1.8,3.9,4.1,4.8,6.7c0.4,1,0.6,2,0.7,3.1c0,0.6,0,1.3,0,1.9c0,0.2-0.1,0.5-0.1,0.7c0.8,0.3,1.6,0.6,2.3,0.9
	c-0.3-0.2-0.7-0.5-1-0.7c0.1-0.7,0.2-1.5,0.2-2.2c1.5-1.4,3.2-2.6,4.9-3.9c1.4-1,3-2,3.9-3.7c0.7-1.9,1.1-3.9,1.1-6
	c0-0.6,0.1-1.3,0.3-1.9c0.1-0.2,0.1-0.3,0.2-0.5c0.3-0.6,0.7-1.2,1.2-1.7c0.1-0.1,0.1-0.2,0.2-0.3c0.2-0.3,0.5-0.5,0.7-0.8
	c0.9-1,1.9-2,2.9-2.9c0.1,0.4,0.1,0.8,0.2,1.2c0.2,1.2,0.7,2.3,1.3,3.3c0.2,0.3,0.5,0.6,0.8,0.8c1,0.8,2.3,1.3,3.1,1.9
	c0.3,0.2,0.6,0.5,0.9,0.8c0.6,0.5,1.1,1.1,1.6,1.6c0.2,0.3,0.5,0.6,0.8,0.9c0.4,0.6,0.8,1.2,1.2,1.8c0.4,0.6,0.8,1.2,1.1,1.8
	s0.7,1.2,1,1.9s0.6,1.3,0.9,1.9c2.1,5.3,3.7,10.9,4.6,16.6c2.2,11.5,4,23.1,5.2,34.7c0.4,3.9,0.8,7.8,1.1,11.7
	c0.2,2.2,0.3,4.4,0.5,6.7v0.4c0.5,7.5,1.2,14.9,2,22.4c1.3,12.5,2.9,25,4.1,37.4c0.2,1.6,0.3,3.2,0.5,4.8c0.3,3.2,0.7,6.4,1.1,9.6
	c0.7,6.4,1.5,12.8,2,19.3c0.1,1.6,0.3,3.2,0.4,4.8c0.4,5.5,0.5,11,0.4,16.5c-0.1,3-0.3,5.9-0.8,8.8c-0.2,1-0.3,1.9-0.5,2.9
	c-0.4,1.9-0.9,3.8-1.4,5.7s-1.2,3.7-2,5.5c-0.2,0.4-0.4,0.8-0.5,1.2c-0.3,0.8-0.6,1.6-1,2.4c-0.5,1.4-1.2,2.7-2,3.9
	c-0.3,0.5-0.7,1.1-1.1,1.5c-0.1,0.1-0.2,0.2-0.3,0.3c-0.5,0.5-1,1.1-1.5,1.7c-0.2,0.3-0.4,0.6-0.5,0.9l-0.2,0.5
	c-0.4,0.9-0.6,1.9-0.7,2.9c0,0.2,0,0.3,0,0.5s0,0.4,0,0.7c0.1,1.2,0.3,2.3,0.7,3.4c0.1,0.4,0.3,0.7,0.4,1.1c0.5,1.1,1,2.1,1.6,3.1
	c0.2,0.3,0.4,0.5,0.6,0.8c0.4,0.5,0.8,0.9,1.4,1.3c0.3,0.2,0.6,0.3,0.9,0.4c0.3,0.1,0.6,0.1,0.9,0.2c0.9,0.1,1.7,0.2,2.6,0.1h0.3
	l0.6,0l1.1-0.1l0.3,0l0.3,0c0,0.1,0,0.2,0,0.3s0,0.4,0,0.6c0,0.3,0.1,0.7,0.1,1c0.2,0.9,0.5,1.7,1,2.4c0.1,0.1,0.2,0.3,0.3,0.4
	c0.6,0.8,1.4,1.4,2.3,1.7c0,0.1,0,0.3,0,0.4c0,0.3,0.1,0.7,0.1,1c0.1,0.3,0.2,0.6,0.2,0.9c0.3,1.1,0.7,2.1,1.2,3.1
	c0.1,0.3,0.3,0.7,0.4,1c0.2,0.5,0.4,1,0.5,1.6c0.7,2.5,1.3,5,2,7.5c0.8,2.9,1.5,5.8,2.2,8.7c0.7,2.9,1.4,5.8,2.1,8.7
	c1,4.2,1.7,8.5,2.5,12.8c0.3,1.4,0.6,2.8,0.9,4.2c0.1,0.6,0.2,1.1,0.3,1.7c0.6,4.1,1,8.3,1.2,12.5l0.1,1.8c0,0.3,0,0.6,0.1,0.9
	c0.3,4,0.4,8,0.5,12c0.1,2,0.1,4,0.1,6s0,4,0.1,6c0,2.9,0.2,5.8,0.4,8.8c0.1,1.5,0.2,3,0.3,4.5s0.3,3,0.4,4.5c0.3,3,0.6,6,0.8,9
	c0.2,2.2,0.4,4.5,0.6,6.7s0.5,4.5,0.8,6.7c0.9,7.2,2.1,14.5,3.6,21.6c-0.7,0.6-1.6,1.1-2.5,1.7c-1.1,0.6-2,1.5-2.6,2.6
	c-1.2,2.3-2.7,4.4-4.5,6.3c-0.4,0.4-0.8,0.8-1.1,1.2c-0.3,0.4-0.5,0.9-0.6,1.4c-0.5,0-0.9,0-1.4,0c-0.4,0-0.9,0.1-1.3,0.3
	c-0.9,0.5-1.6,1.4-1.9,2.5c-0.2,0.9-0.2,1.9-0.1,2.8l0,0c0,0.1,0,0.1,0,0.2c-0.2,0.1-0.3,0.3-0.5,0.4c-0.8,0.7-1.5,1.6-2.1,2.5
	c-1.2,2.1-2.1,4.2-2.9,6.4c-1.4,3.3-2.7,6.6-3.9,9.9c-0.3,1.3-0.8,2.6-1.3,3.8l-2.6,4.7c-0.3,0.6-0.6,1.1-0.8,1.8
	c-0.1,0.3-0.1,0.6-0.1,0.9c0,0.6,0.3,1.1,0.6,1.5c0.2,0.3,0.5,0.5,0.7,0.7c-0.1,0.1-0.2,0.3-0.3,0.4c-0.4,0.7-0.6,1.5-0.5,2.3
	c0,0.3,0,0.6,0.1,0.9v0.4c0.1,3.7-0.8,7.5-3.2,10.3c-0.4,0.4-1,1.1-1.6,1.8c-0.6,0.7-1,1.6-1,2.6v0.1c-0.2,0.4-0.3,0.8-0.2,1.3
	l0.1,0.5c0.2,0.6,0.4,1.1,0.7,1.6c0.2,0.4,0.4,0.9,0.6,1.3c0,0.2,0.1,0.4,0.1,0.6c0,1.2-0.3,2.4-0.7,3.5c-0.1,0.3-0.1,0.6-0.1,0.9
	c0.1,0.8,0.5,1.6,1.2,2c0.4,0.2,0.8,0.3,1.2,0.3c0.5,0,0.9-0.2,1.3-0.6c0.3-0.3,0.6-0.7,0.8-1.1c0.3-0.7,0.5-1.5,0.6-2.3
	c0-0.7,0.2-1.3,0.4-1.9c0.5-1,1.1-1.8,1.9-2.6c0.1,0,0.2,0,0.3,0c1.1,0,2-0.8,2.3-1.9c0.2-0.5,0.2-1.1,0.2-1.6
	c0.2-2.2,0.7-4.4,1.5-6.5c0.2-0.7,0.4-1.4,0.7-2c0.6-0.9,1.2-1.8,1.8-2.8c0.3-0.4,0.6-0.8,0.9-1.2c0.5-0.5,0.8-1,1-1.7
	c0.1-0.3,0.1-0.5,0.1-0.8c0-0.2,0-0.4-0.1-0.6c0.2,0,0.3-0.1,0.4-0.2c0.9-1.1,1.6-2.4,2.3-3.6c0.6-1.3,1-2.7,1.1-4.1
	c0.1-1.3,0.2-2.7,0.4-4c0.5-2.8,1.3-5.6,2.2-8.2c0.5-1.7,1.3-3.3,2.3-4.7c0.5-0.7,1.1-1.4,1.7-2l0,0c0.1-0.1,0.3-0.2,0.4-0.3
	c0.3-0.2,0.7-0.5,1-0.8l0.4-0.4l0.2-0.2l0.1-0.1c0.1-0.1,0.1-0.3,0.1-0.4l0,0c0-0.2-0.1-0.4-0.1-0.6c0.5,0.2,1,0.2,1.5,0.2
	c0.3,0,0.6-0.1,0.9-0.2c0.5,1.5,0.9,3,1.1,4.5c0.5,2.3,1.5,4.4,2.1,6.5c0.6,2.3,1,4.6,1.1,7c0.1,1.4,0.1,2.8,0,4.2
	c0,1.7-0.3,3.4-1,5c-0.7,1.5-1.7,2.9-2.9,4.1c-1,1.2-1.5,2.7-1.3,4.2c0.1,0.7,0.2,1.5,0.4,2.2c-0.4,0.3-0.8,0.8-1.1,1.2
	c-0.7,1.1-1.1,2.3-1,3.6c0,0.3,0.1,0.7,0.2,1c0.7,2.2,1.2,4.4,1.4,6.7c0.2,2.4-0.1,4.8-0.8,7.1c-0.6,1.8-0.7,3.3-1.6,4.7
	c-0.3,0.5-0.9,1-1.3,1.8c-0.6,0.3-1.2,0.6-1.8,1.1c-2.2,1.8-3.3,4.4-5.1,6.1c-0.8,0.9-1.8,1.4-2.9,1.6c-0.1,0-0.3-0.1-0.4-0.1
	c-0.2,0-0.4,0.1-0.6,0.2l-0.3,0.2c-0.4,0.3-0.7,0.8-0.8,1.3c-0.3,0.1-0.6,0.3-0.9,0.5c-0.7,0.4-1.4,0.6-2.1,0.8h-0.3h-0.5
	c-0.3,0-0.6,0.1-0.9,0.1c-0.4,0.1-0.7,0.4-0.9,0.7c-0.2,0.3-0.3,0.7-0.2,1.1v0.1c0.1,0.7,0.4,1.3,0.8,1.8c0.1,0.1,0.3,0.2,0.4,0.2
	c0.2,0,0.5,0,0.7,0h0.3c0.4,0,0.7,0,1.1,0h0.5c0.2,0.3,0.5,0.6,0.9,0.8c0.4,0.1,0.7,0.2,1.1,0.3c0.5,0.1,1,0.1,1.4,0.1
	c1.5-0.1,2.8-0.6,4-0.8c2.6-0.4,5.2-0.7,7.8-1h0.7c0.6,0,1.2-0.2,1.7-0.4c0.3-0.2,0.6-0.5,0.9-0.7c0.3-0.3,0.6-0.8,0.6-1.2v-0.4
	c0,0,0-0.1,0-0.1c0.3,0.1,0.6,0.1,0.9,0.1c0.2,0,0.4,0,0.6-0.1c0.6-0.2,1.1-0.5,1.6-0.9c3.2-2.6,6.2-5.5,8.8-8.7
	c3.3-3.7,6.5-7.4,8.5-12c0.6-1.3,1-2.7,1-4.1c0-0.3-0.1-0.6-0.1-0.9c-0.6-1.5-1.6-2.8-3-3.6c-0.1-0.1-0.3-0.1-0.5-0.1h-0.2h-0.2
	c-0.2,0-0.4-0.1-0.6-0.1c0.3-0.3,0.5-0.5,0.7-0.9c0.2-0.4,0.4-0.7,0.6-1c0.5-0.8,0.9-1.7,1.1-2.7c0.7-2.5,2.2-4.8,2.3-7.8
	c0-0.4,0-0.8,0-1.1c-0.1-1.3-0.3-2.6-0.5-3.8c-0.1-0.5-0.1-1-0.1-1.5l-0.2-2.5c-0.3-3.1-0.3-6.3-0.9-9.5c-0.1-0.5-0.1-1.1-0.2-1.6
	c-0.1-2,0-4.1-0.1-6.3c-0.2-2.5-0.3-5-0.5-7.5v-0.1c0-0.7-0.1-1.3-0.3-2c0.2-0.1,0.3-0.1,0.5-0.2c0.2-0.1,0.3-0.3,0.3-0.6
	c0-0.6,0-1.2,0-1.9c-0.1-1.3-0.3-2.6-0.7-3.8c-0.1-0.3-0.4-0.5-0.7-0.5c-0.2,0-0.4,0.2-0.5,0.4c-1.1-1.8-2.5-3.4-4-4.8
	c-0.2-0.2-0.4-0.4-0.6-0.7c-0.3-0.3-0.3-0.7-0.1-1h0.1c0.4-0.1,0.8-0.3,1.2-0.4s0.8-0.3,1.2-0.5c0.8-0.4,1.5-0.9,2.1-1.5
	c0.2-0.2,0.4-0.4,0.5-0.7c0.1-0.2,0.2-0.4,0.3-0.6c0.1-0.2,0.2-0.4,0.2-0.6s0.2-0.4,0.2-0.6c0.1-0.2,0.1-0.4,0.2-0.5l0.2-0.3
	c0.4-0.7,0.7-1.4,0.9-2.1c0-0.1,0.1-0.3,0.1-0.4c0-0.2,0-0.4,0.1-0.7s0-0.4,0-0.7c0-0.4-0.1-0.9-0.2-1.3c-0.2-0.9-0.4-1.7-0.6-2.5
	c-0.1-0.4-0.2-0.8-0.2-1.1c-0.2-1-0.3-1.9-0.4-2.9s-0.2-2-0.3-2.9v-0.5c0-0.8-0.1-1.6-0.1-2.3s-0.1-1.5-0.1-2.3
	c-0.1-1.5,0-3,0.1-4.5c0.2-1.5,0.3-2.9,0.3-4.4c0.3-4.4,0.3-8.9,0.4-13.3c0-1.5,0.1-3,0.1-4.5c0-3,0-6,0-9c0-1.5,0-3-0.1-4.5
	c-0.1-3-0.2-6-0.2-9s-0.1-6-0.1-9c0-0.5,0-1.1-0.1-1.6s0-1.1-0.1-1.6c-0.1-1.2-0.2-2.4-0.3-3.6s-0.3-2.4-0.4-3.5
	c-0.2-1.8-0.4-3.5-0.7-5.3c-0.1-0.6-0.2-1.2-0.2-1.7c-0.2-2.2-0.4-4.3-0.6-6.5s-0.4-4.3-0.7-6.5l-0.2-1.6c-0.4-3.8-0.9-7.6-1.2-11.4
	l-0.1-1.7c-0.1-1.1-0.1-2.3-0.2-3.4c-0.1-2.3-0.3-4.6-0.4-6.9c-0.1-1.3-0.2-2.7-0.3-4c0-0.7-0.1-1.3-0.1-2c0-0.5-0.1-1-0.1-1.5
	s-0.1-1-0.1-1.5c0-0.8-0.1-1.6-0.1-2.4c-0.1-1.6,0-3.2,0.2-4.8c0.1-0.8,0.2-1.6,0.4-2.4c0.1-0.5,0.2-1,0.4-1.4
	c0.1-0.5,0.3-0.9,0.5-1.4c0.1-0.2,0.1-0.3,0.2-0.5c0.1-0.1,0.2-0.3,0.4-0.4c0.1-0.1,0.3-0.3,0.4-0.5l0.5-0.5c0.3-0.3,0.5-0.6,0.7-1
	c0.5-1,0.7-2.2,0.7-3.3v-0.4c0-0.6-0.2-1.2-0.5-1.8L512.8,487.5z M444.5,216.4c-0.2,0.3-0.5,0.7-0.7,1l-0.3-0.1l-1.2-0.4
	C443,216.8,443.7,216.6,444.5,216.4z M440.9,219.8c-0.2-0.2-0.3-0.4-0.5-0.6c-0.1-0.2-0.2-0.4-0.2-0.7c0-0.2,0-0.4,0.1-0.5
	c0-0.1,0.1-0.1,0.1-0.1l2.6,0.8l1.3,0.4l2.5,0.8c0.4,0.1,0.8,0.3,1.1,0.6l0.1,0.3c0,0.3-0.1,0.6-0.3,0.8c-0.2,0.4-0.5,0.7-0.9,0.9
	c-0.2,0.1-0.4,0.1-0.6,0.1c-0.6,0-1.3,0-1.9-0.1c-0.7-0.1-1.2-0.1-1.6-0.1h-0.1c0,0,0,0,0-0.1l0,0c0-0.1,0.1-0.2,0-0.3
	c0-0.1-0.1-0.2-0.2-0.3l-0.7-0.7l-0.4-0.4L440.9,219.8z M478.5,491.6c-0.2,0.6-0.4,1.3-0.5,2c-0.5-0.2-1-0.5-1.4-1
	c-0.7-0.9-1.1-2-1.1-3.1c0-0.5,0-1,0.1-1.5c0-0.1,0-0.2,0-0.3c0-0.1,0-0.1-0.1-0.2l0,0c0-0.1-0.1-0.1-0.2-0.2
	c-0.1-0.1-0.2-0.1-0.2-0.1c-0.1,0-0.2,0-0.3,0c-0.1,0-0.2,0-0.2,0.1l0,0l0,0c-0.2,0.1-0.3,0.1-0.5,0.1c-0.8,0.1-2.1,0.2-2.3,0.3
	h-0.3c-1,0.1-2,0-3-0.2c-0.9-0.4-1.6-1.1-2.1-1.9c-0.6-0.9-1.1-1.9-1.5-2.9c-0.6-1.3-1-2.6-1.1-4c0-0.2,0-0.4,0-0.6
	c0-1.1,0.3-2.3,0.8-3.3c0.6-1,1.3-1.8,2.1-2.6c2.4-2.9,3.4-6.2,4.8-9.4c3.1-7.4,4.7-15.4,4.8-23.4c0.1-5.5-0.1-11-0.4-16.6
	c-0.8-12.9-2.6-25.8-3.9-38.5c-2-20-4.9-39.9-6.1-59.8v-0.4c-1.2-17.9-3.4-35.6-6.8-53.2c-1-5.8-2.6-11.4-4.8-16.9
	c-1.2-2.7-2.6-5.3-4.4-7.7c-1-1.3-2.2-2.5-3.5-3.5c-1.1-0.8-2.3-1.2-3.1-1.9c-0.9-1-1.5-2.1-1.6-3.4c-0.2-0.8-0.3-1.5-0.4-2.3
	c-0.1-0.7-0.2-1.4-0.2-1.9c0-0.1,0-0.3,0-0.4v-0.4c0-0.8,0-1.6,0-2.4v-0.6l0,0c0-0.6,0.1-1.2,0.2-1.8c0-0.1,0-0.2,0-0.3
	c0-0.1,0-0.2,0-0.3c0.1-0.6,0.3-1.3,0.4-1.9c0-0.2,0.1-0.3,0.1-0.5c0.1-0.3,0.2-0.6,0.3-1h0.5l0.6,0.1l0.9,0.1l1.1,0.1
	c0.4,0,0.7,0,1,0h0.4c0.4,0,0.7-0.2,1-0.4c0.2-0.2,0.4-0.4,0.6-0.6c0.2-0.2,0.4-0.4,0.5-0.7c0.1-0.1,0.1-0.2,0.2-0.4
	c0.2-0.3,0.3-0.7,0.3-1.1c0-0.1,0-0.2,0-0.2c0-0.2,0-0.3-0.1-0.4c0-0.2-0.1-0.3-0.2-0.4c-0.1-0.2-0.3-0.3-0.4-0.5
	c-0.3-0.2-0.6-0.4-1-0.5l-0.5-0.1l-2.1-0.6c0.3-0.4,0.5-0.8,0.8-1.1s0.4-0.5,0.7-0.8l0,0l0.6-0.6l0.5-0.6l0.1-0.1
	c0.3-0.4,0.7-0.7,1-1.1l0.1-0.1l0.2-0.2c0.3-0.3,0.6-0.6,0.9-0.8l0.1-0.1l0.3-0.3l0.5-0.4l0.5-0.4c0.5,0,0.9-0.1,1.3-0.2
	s1.1-0.2,1.6-0.4c1.2-0.3,2.3-0.6,3.3-0.8c0.4-0.1,0.7-0.1,1.1-0.1c0.4,0,0.8,0,1.2,0c0.2,0,0.3,0,0.4-0.1c2.7,0.9,4.8,3,5.9,5.6
	c0.1,0.2,0.2,0.3,0.4,0.4c0.8,0.2,1.5,0.6,2.1,1.1c0.6,0.6,1,1.3,1.4,2c1,1.8,2,3.5,2.9,5.4c3.5,7.2,4.7,15,5.2,23
	c0.1,2.4,0.2,4.8,0.3,7.2c0.3,10.1,0.1,20.3,0.6,30.5c0,1,0.1,1.9,0.2,2.9c0.6,9.4,1.9,18.8,2.9,28.1c0.9,8.9,1.8,17.9,2.4,26.8
	c0.5,7.4,0.7,14.8,0.6,22.2c0,2.5,0,5,0.2,7.4c0.6,8.6,2.1,17,2.8,25.5c0.7,9.9,2.9,19.6,6.3,28.9c3.7,9.7,7.7,19.4,12,28.9
	c2.2,5,3.8,10.2,4.6,15.5c0.1,0.8,0.2,1.7,0.3,2.5c0.1,2,0,4-0.5,5.9c-0.3,1.3-0.8,2.5-1.4,3.7c-0.5,0.9-1.2,1.6-2,2.2
	c-0.2,0-0.5,0-0.7,0h-0.1c-0.6,0-1.1,0.2-1.7,0.4c-0.3,0.1-0.5,0.2-0.8,0.3l-0.7,0.3c-0.5,0-1.1,0-1.8,0l-0.5,0
	c-0.8,0.2-1.6,0.5-2.3,0.9c-0.6,0.4-1.2,0.6-1.9,0.9c-0.2,0-0.4,0.1-0.6,0.1c-0.8,0-1.5-0.1-2.2-0.3c-0.8-0.2-1.7-0.4-2.6-0.4
	c-0.4,0-0.8,0.1-1.2,0.3c-0.5-0.4-1.1-0.9-1.6-1.4s-0.9-0.8-1.4-1.2c-0.2-0.2-0.5-0.4-0.8-0.5c-0.3-0.2-0.6-0.4-0.9-0.5
	c-0.2-0.1-0.5-0.2-0.7-0.3c-0.3-0.1-0.5-0.1-0.8-0.2c-0.2,0-0.4,0-0.5,0c-0.7,0-1.4,0.4-1.8,1c-0.5,0.7-0.9,1.4-1.3,2.1
	c-0.4,0.7-0.8,1.5-1.1,2.2c-0.2,0.5-0.5,1-0.7,1.5S478.6,491.2,478.5,491.6L478.5,491.6z M500.8,487.8c-1.1,0.8-2.1,1.7-3,2.7
	c-0.3,0.3-0.4,0.7-0.5,1.1c-0.9-0.7-1.9-1.3-2.9-1.8c-0.7-0.3-1.5-0.7-2.1-1c0.2,0,0.4,0,0.6,0c0.4,0.1,0.8,0.1,1.2,0.2
	s0.8,0.2,1.2,0.3c0.4,0.1,0.9,0.1,1.4,0.1c0.3,0,0.6-0.1,0.8-0.1c0.6-0.2,1.1-0.4,1.7-0.7l0.5-0.3l0.5-0.2
	C500.4,488,500.6,487.9,500.8,487.8L500.8,487.8z M495.8,612.4c-0.5-6-1.1-12-1.5-17.9c-0.2-2.9-0.3-5.8-0.3-8.7
	c-0.1-8-0.2-16.1-0.7-24.1c-0.1-0.9-0.1-1.9-0.2-2.8c-0.4-4.7-0.5-9.7-1.6-14.4c-1.3-5.6-2.1-11.3-3.4-17
	c-1.4-5.8-2.9-11.6-4.4-17.4c-0.7-2.5-1.3-5-2-7.5c-0.7-2.4-1.9-4.3-2.3-6.5c0-0.3-0.1-0.6-0.1-0.9c0,0,0-0.1,0-0.2
	c0-0.4,0-0.9,0.1-1.3c0.1-1,0.4-1.9,0.9-2.8c0.8-1.9,1.8-3.8,3-5.6c0.2-0.3,0.5-0.5,0.8-0.5c0.5,0,1,0.1,1.4,0.4
	c0.5,0.3,1,0.6,1.4,0.9c0.8,0.7,1.6,1.5,2.5,2.2c0.4,0.3,0.7,0.6,1.1,0.9l0,0c1.1,0.7,2.2,1.2,3.4,1.7c1.1,0.4,2,1,2.9,1.8
	c0.1,0.1,0.2,0.3,0.4,0.5c0,0.1,0,0.2,0,0.3c0.1,0.4,0.2,0.7,0.4,1c0.1,0.1,0.2,0.2,0.3,0.3c0.1,0.1,0.2,0.2,0.3,0.3l0,0
	c0.2,0.5,0.3,1,0.4,1.5c0,0.2,0.1,0.5,0.1,0.7c0,1.8-0.2,3.7-0.6,5.5c-0.1,0.7-0.1,1.3,0,2c0.1,0.8,0.2,1.6,0.3,2.3
	c-0.2,0.8-0.4,1.7-0.6,2.5c-0.4,1.6-0.6,3.3-0.6,4.9c0,0.2,0,0.5,0,0.7s0,0.2,0,0.3c0,0.5,0.1,1.1,0.2,1.6c0.4,1.6,0.8,3.2,1.3,4.8
	c0.2,0.8,0.5,1.6,0.7,2.4c0,0.8,0,1.5,0.1,2.2c0.1,2.2,0.4,4.5,0.7,6.7c0.3,2.1,0.6,4.1,0.9,6.2c0.8,5.7,1.4,11.4,1.8,17
	c0.2,2.9,0.3,5.9,0.3,8.8c0,8.8-0.7,17.5-0.5,26.4c0.1,5.5,0.6,10.6,0.7,16c0,2.7,0.2,5.5,0.3,8.3c0.2,3.5,0.6,6.9,1.1,10.3
	c0,0.1,0,0.2,0,0.3c-0.3,2.5-0.5,5-0.8,7.5c-0.1,1.1-0.2,2.1-0.4,3.1c-0.1,0.5-0.2,1-0.3,1.4c-0.1,0.5-0.3,0.9-0.5,1.4
	c-0.2,0.3-0.3,0.7-0.4,1.1c-0.2,0.7-0.4,1.4-0.5,2.1c0,0.3-0.1,0.7-0.1,1.1s0,0.8-0.1,1.2c0,0.4,0,0.8,0,1.2v0.3
	c0,0.2,0,0.3,0.1,0.5c-0.3,0-0.6,0-0.9-0.1C498.4,635.8,496.8,624.2,495.8,612.4L495.8,612.4z M502.6,541.6
	c-0.1-0.7-0.2-1.4-0.3-2.1s-0.2-1.4-0.3-2.1c-0.2-1.2-0.3-2.4-0.5-3.6c0.5,2.4,1,4.8,1.5,7.2c0.2,1.1,0.4,2.2,0.6,3.3
	c0.4,2.2,0.6,4.5,0.9,6.8c0.1,1.4,0.3,2.9,0.4,4.3c0.4,4.3,0.6,8.7,0.9,12.9l0.1,2.1c0,0.3,0.1,0.7,0.1,1.1c0.1,2,0.2,3.9,0.3,5.9
	c0.3,5.9,0.4,11.8,0.3,17.7c0,1.9-0.2,3.7-0.4,5.5c-0.2,1.4-0.3,2.8-0.3,4.2c0,0.5,0,0.9,0,1.4c0,1.6,0,3.3,0.1,4.9s0,3.2-0.1,4.8
	c-0.1,1.1-0.1,2.1-0.3,3.2c0,0.5-0.1,1.1-0.2,1.6c-0.2-1.6-0.3-3.2-0.4-4.8c-0.1-1.4-0.1-2.8-0.2-4.1s-0.1-2.8-0.1-4.1
	c-0.1-4.8-0.4-9.3-0.6-14l-0.1-2c-0.1-3.3,0-6.6,0.1-9.8c0-1.1,0.1-2.2,0.1-3.3c0.1-4.4,0.3-8.8,0.3-13.2c0-3-0.1-5.9-0.3-8.9
	C503.8,551.6,503.2,546.6,502.6,541.6L502.6,541.6z M489.7,660.2c0.3-0.4,0.6-0.7,1-1.1c1.9-1.9,3.5-4.2,4.8-6.6
	c0.6-0.9,1.3-1.6,2.2-2.1c0.8-0.5,1.6-1.1,2.4-1.7l0,0h0.2c0.6,0.1,1.2,0.1,1.8,0.1l0,0c0.4,0.9,0.9,1.8,1.4,2.6l0,0
	c0,0,0.1,0.1,0.1,0.1l0.3,0.3l0,0c0.6,0.9,1.3,1.7,2,2.5l0,0c-0.3,0.4-0.6,0.8-1,1.1c-0.9,0.5-1.6,1.2-2.2,2
	c-0.4,0.8-0.7,1.7-0.8,2.6c-0.1,1.1-0.3,2.2-0.5,3.4c-1.7-0.5-3.3-0.8-5-1.1c-0.2,0-0.4,0-0.6,0c-0.2,0-0.5,0.1-0.7,0.2l-0.2,0.1
	c0-0.3-0.1-0.6-0.2-0.9c-0.1-0.3-0.3-0.6-0.5-0.9l0,0v0c-0.6-0.6-1.3-0.8-2.1-0.8h-0.2c-0.9,0.2-1.7,0.5-2.3,0.7
	C489.6,660.6,489.7,660.4,489.7,660.2z M502.7,665.3l0.6,0.2l0.2,0.1l1.5,0.5c0.7,0.1,1.4,0.4,2,0.9l0.1,0.3c0,0,0,0.1,0,0.1
	s0,0.1,0,0.2c0,0.2-0.1,0.3-0.1,0.5c0,0.1,0,0.2-0.1,0.2c-0.1,0.2-0.1,0.3-0.3,0.5l0,0c-0.1,0.1-0.2,0.2-0.3,0.2l0,0
	c-0.2,0.1-0.4,0.2-0.6,0.2c-0.3,0-0.6,0-0.9,0c-1.3-0.1-2.6-0.4-4-0.7c-0.5-0.1-0.9-0.2-1.3-0.3c-0.1,0-0.2,0-0.3-0.1
	c-0.4-0.1-0.8-0.3-1.2-0.5c-0.3-0.2-0.5-0.3-0.8-0.5c-0.2-0.2-0.3-0.4-0.5-0.6c-0.1-0.1-0.1-0.2-0.1-0.2c-0.1-0.2-0.2-0.3-0.2-0.5
	c0-0.1,0-0.1-0.1-0.2c0,0,0-0.1,0-0.1c0-0.1,0-0.1-0.1-0.2c0-0.1-0.1-0.3-0.1-0.4c0,0,0,0,0-0.1c0-0.2-0.1-0.4-0.1-0.7
	c0-0.1,0-0.1,0-0.2h0.3c1.7,0.3,3.5,0.6,5.1,1.1l0.6,0.2l0.7,0.2L502.7,665.3z M472.4,719.1c-0.2,0.2-0.4,0.5-0.6,0.7l-0.3,0.3
	c-0.2,0.2-0.4,0.4-0.6,0.6s-0.3,0.4-0.5,0.6c-0.6,0.7-1.1,1.4-1.5,2.2c-0.3,0.7-0.5,1.5-0.5,2.3c0,0.6-0.2,1.3-0.5,1.9
	c-0.1,0.3-0.3,0.5-0.5,0.7c-0.1,0.1-0.3,0.2-0.5,0.2c-0.2,0-0.3,0-0.5-0.1c-0.4-0.2-0.6-0.6-0.6-1c0-0.2,0-0.3,0-0.5
	c0.4-1.2,0.7-2.6,0.7-3.9c0-0.2-0.1-0.5-0.1-0.8c-0.2-0.6-0.4-1.1-0.7-1.7c-0.2-0.3-0.4-0.7-0.5-1c0-0.1,0-0.2-0.1-0.2v-0.2
	c0-0.1,0-0.3,0-0.4c0.1-0.2,0.2-0.5,0.3-0.7c0.1-0.2,0.3-0.4,0.5-0.6c0.5-0.5,1.2-0.8,1.9-0.9l0,0c1.3,0,2.5,0.4,3.5,1.1
	c0.2,0.2,0.5,0.4,0.8,0.6l0.3,0.3l0.1,0.1l0,0v0C472.5,718.8,472.5,718.9,472.4,719.1L472.4,719.1z M479.5,703.3
	c-0.2,0.4-0.4,0.8-0.7,1.1c-0.4,0.4-0.8,0.9-1.1,1.5c-0.5,0.9-1.1,1.8-1.7,2.8c-0.4,0.7-0.7,1.5-0.9,2.3c-0.7,2.2-1.3,4.4-1.5,6.7
	c-0.2-0.2-0.3-0.3-0.5-0.5c-0.3-0.3-0.6-0.5-0.8-0.6c-1.3-0.9-2.8-1.4-4.3-1.3h-0.1c-0.4,0-0.9,0.1-1.2,0.3c0.4-0.5,0.8-0.9,1.1-1.2
	c2.7-3.1,3.6-7.2,3.5-11.2v-0.4c0-0.3,0-0.6-0.1-0.9c-0.1-0.5,0.1-1.1,0.3-1.5c0.1-0.1,0.1-0.2,0.2-0.3c0.1-0.2,0.3-0.3,0.4-0.5
	l0.2-0.2l0.4-0.2c0.2-0.1,0.4-0.2,0.7-0.2h0.1c1.6,0.1,3.2,0.6,4.5,1.5c0.2,0.1,0.4,0.3,0.5,0.5c0,0,0.1,0.1,0.1,0.1l0.5,0.7
	c0,0,0,0,0,0c0.1,0.2,0.3,0.4,0.3,0.6c0.1,0.2,0.1,0.4,0.2,0.6L479.5,703.3z M491.7,673.1c-0.3,0.2-0.6,0.5-0.9,0.7l-0.4,0.3
	l-0.3,0.2c-0.7,0.7-1.3,1.4-1.9,2.2c-1.1,1.5-1.9,3.3-2.5,5.1c-0.9,2.8-1.6,5.6-2.1,8.5c-0.2,1.4-0.3,2.8-0.4,4
	c-0.1,1.3-0.4,2.5-1,3.6c-0.6,1.1-1.3,2.2-2,3.2h-0.1l0,0c-0.2-0.3-0.4-0.5-0.6-0.8c-0.2-0.3-0.5-0.6-0.8-0.8
	c-1.5-1.1-3.3-1.7-5.2-1.8h-0.3c-0.7,0.1-1.3,0.3-1.8,0.7l0,0c-0.2-0.2-0.4-0.3-0.5-0.5c-0.2-0.2-0.3-0.5-0.4-0.8v-0.4
	c0.2-0.5,0.4-1,0.7-1.5l2.6-4.7c0.6-1.3,1.1-2.6,1.4-4c1.2-3.3,2.5-6.6,3.9-9.8c0.8-2.2,1.7-4.2,2.8-6.2c0.5-0.8,1.2-1.6,1.9-2.2
	l0.4-0.3l0.5-0.5l0.1-0.1l0.4-0.3c0.1,0,0.1-0.1,0.2-0.1l0.2-0.1l0,0c1.6,0.3,3,1.1,4.1,2.3c0,0.1,0.1,0.1,0.1,0.2
	c0.5,0.5,0.8,1.1,1.1,1.7c0.2,0.3,0.3,0.7,0.4,1.1c0.1,0.4,0.2,0.7,0.2,1.1L491.7,673.1z M495.7,671l-0.2,0.1l0,0
	c-0.3,0.2-0.6,0.3-1,0.3c-0.5,0-0.9,0-1.4-0.2c-0.2-0.1-0.3-0.2-0.5-0.2c-0.4-1.1-1-2.1-1.7-3c-1.3-1.4-3-2.4-4.9-2.8h-0.3
	c-0.3,0-0.6,0.1-0.9,0.3c-0.1,0.1-0.2,0.1-0.2,0.2c0-0.6,0-1.2,0.1-1.7c0.1-0.7,0.6-1.3,1.2-1.6c0.3-0.1,0.5-0.2,0.8-0.2
	c0.5,0,1,0,1.5,0c0.2,0,0.5,0,0.8,0h0.1h0.4c0.1,0,0.3,0,0.4-0.1c0.8-0.2,1.5-0.5,2.1-0.6h0.1c0.4,0,0.8,0.1,1.1,0.4l0.1,0.1
	l0.2,0.3c0.1,0.2,0.1,0.6,0.2,1c0,0.1,0,0.3,0.1,0.4c0,0.1,0.1,0.2,0.1,0.4c0.2,0.3,0.4,0.6,0.7,0.9l0.2,0.2c0,0.2,0.1,0.4,0.2,0.6
	c0,0.1,0.1,0.2,0.1,0.4c0.1,0.2,0.2,0.4,0.3,0.7c0.1,0.1,0.1,0.2,0.2,0.3c0.2,0.3,0.4,0.6,0.7,0.9c0.2,0.1,0.3,0.3,0.5,0.4h0.1
	c-0.1,0.2-0.1,0.3-0.2,0.5c-0.2,0.5-0.3,0.9-0.5,1.3C496.1,670.4,496,670.7,495.7,671L495.7,671z M496.9,704.6
	c1.3-1.3,2.3-2.8,3.1-4.4c0.8-1.7,1.1-3.6,1.1-5.5c0.1-1.4,0.1-2.9,0-4.3c-0.2-2.5-0.6-4.9-1.2-7.3c-0.6-2.3-1.6-4.3-2.1-6.4
	c-0.3-1.7-0.7-3.3-1.3-4.9c0.4-0.3,0.6-0.7,0.8-1.2c0.1-0.4,0.3-0.8,0.4-1.2c0.1-0.1,0.1-0.3,0.2-0.5l0.2,0.1l0.4,0.1
	c0.2,0.1,0.4,0.1,0.7,0.2l0.3,0.1l0.7,0.1h0.2c1.3,0.2,2.7,0.5,4.1,0.7c0.4,0,0.7,0,1.1,0h0.3h0.2c0.1,0.2,0.1,0.4,0.2,0.6
	c0.1,0.4,0.1,0.7,0.2,1.1c0.1,1.2-0.1,2.3-0.6,3.4c-0.2,0.4-0.5,0.9-0.9,1.5c-0.1,0.2-0.2,0.5-0.2,0.8c0,0,0,0.1,0,0.1
	c0,0.1-0.1,0.2-0.1,0.3c0,0.1-0.1,0.2-0.1,0.4c0,0.1-0.1,0.3-0.1,0.4c0,0,0,0,0,0.1c0,0.2,0,0.4-0.1,0.6v0.1
	c-0.1,1.1-0.1,2.2-0.1,3.3c0,0.5,0.1,1,0.1,1.4c0.1,0.7,0.1,1.4,0.2,2.1c0.1,1.6,0.1,3.3,0.2,5c0,0.5,0.1,1,0.1,1.6
	c0.2,2.9,0.7,5.8,1.5,8.6c0.1,0.3,0.2,0.7,0.3,1.1v0c0,0.1,0.1,0.2,0.1,0.3c0.2,0.4,0.3,0.8,0.4,1.2s0.1,0.5,0.2,0.7
	c0.1,0.2,0.1,0.5,0.1,0.7c0,0.2,0,0.4,0,0.5c-0.1,1.1-0.4,2.1-0.9,3.1c-0.2,0.4-0.4,0.8-0.6,1.2v0.1c-0.2,0.3-0.5,0.7-0.8,1l0,0
	c-0.3,0.3-0.6,0.6-1,0.8l0,0l-0.2,0.1l-0.6-0.5c-0.9-0.8-1.8-1.4-2.9-2c-1-0.5-2.1-0.8-3.2-0.7h-0.4c-0.3,0-0.5,0.1-0.7,0.2
	c-0.1-0.5-0.2-1-0.3-1.6C495.9,706.6,496.2,705.5,496.9,704.6L496.9,704.6z M505.9,684.2c0-0.4-0.1-0.8-0.1-1.2
	c0.3,0.7,0.5,1.5,0.7,2.3c0.3,1.3,0.5,2.6,0.6,3.9c0.1,1.4,0.1,2.8,0.1,4.4c0,1.4,0,2.9-0.2,4.3c-0.3-1.7-0.5-3.3-0.6-5
	c0-0.5-0.1-1-0.1-1.5c-0.1-1.6-0.1-3.3-0.2-5C506,685.6,506,684.9,505.9,684.2L505.9,684.2z M493.1,735.2c1.1-1.7,1.3-3.4,1.8-5
	c0.8-2.5,1.1-5,0.9-7.6c-0.2-2.4-0.7-4.7-1.4-7c-0.1-0.2-0.1-0.5-0.1-0.7c0-1,0.2-1.9,0.8-2.8c0.1-0.2,0.3-0.4,0.5-0.6
	c0.1-0.2,0.3-0.4,0.5-0.5c0.2-0.1,0.4-0.3,0.6-0.3c0.2-0.1,0.4-0.1,0.6-0.2h0.3c0.9,0,1.8,0.2,2.5,0.6c0.9,0.5,1.8,1.1,2.6,1.8
	c0,0,0.1,0.1,0.1,0.1c0,0,0.1,0.1,0.1,0.1c-0.1,0.1-0.1,0.3-0.1,0.5c0,0,0,0,0,0c0,0.2,0.1,0.4,0.2,0.6c0.2,0.4,0.4,0.8,0.7,1.1
	c0.2,0.2,0.3,0.3,0.5,0.4c-0.2,0.9-0.6,1.7-1,2.5c-1.5,3.3-2.6,6.7-3.4,10.2c-0.7,2.5-1.2,5.1-1.7,7.7c0,0.2-0.1,0.4-0.1,0.6
	c-0.1,0.8-0.2,1.6-0.4,2.3c-0.1,0.3-0.2,0.5-0.3,0.7c-0.1-0.2-0.2-0.4-0.3-0.6c-0.2-0.2-0.4-0.4-0.6-0.5l-3.8-2.5
	c-0.1-0.1-0.2-0.1-0.3-0.1C492.5,735.9,492.8,735.6,493.1,735.2L493.1,735.2z M480.4,746.5l0.3-0.2l0.3,0.1l0,0
	c1.5-0.2,2.9-0.9,3.9-2c2-2,3.1-4.5,5-6c0.2-0.2,0.4-0.3,0.6-0.5c0.2-0.1,0.4-0.3,0.6-0.3c0.1-0.1,0.3-0.1,0.4-0.1
	c0.1,0,0.2,0,0.2,0.1c0.1,0,0.1,0,0.2,0c1.3,0.8,2.5,1.7,3.8,2.5c0.1,0.1,0.3,0.2,0.4,0.3l0.1,0.1l0,0c0,0.2-0.1,0.5-0.2,0.6
	c-0.1,0.1-0.1,0.2-0.2,0.3c-0.1,0.1-0.2,0.1-0.2,0.2c-0.1,0.1-0.2,0.2-0.3,0.2l-0.1,0.1c-0.1,0-0.1,0.1-0.2,0.1
	c-0.2,0.1-0.4,0.2-0.6,0.3c-1.2,0.4-2.3,1-3.3,1.8c-0.4,0.3-0.7,0.6-1.1,0.9l0,0c-1.8,1.5-3.9,2.7-6,4c0-0.2-0.1-0.4-0.2-0.5
	c-0.1-0.2-0.3-0.2-0.4-0.3c-0.3-0.2-0.6-0.5-0.9-0.6l-0.1-0.1c-0.3-0.2-0.6-0.4-1-0.5c-0.2-0.1-0.5-0.2-0.7-0.3
	c-0.1,0-0.2-0.1-0.2-0.1L480.4,746.5z M478.4,750.5c-0.4,0.1-0.7,0.1-1.1,0.1l0,0h-0.5h-0.4c-0.3,0-0.7,0-1,0h-0.1h-0.5
	c-0.2-0.2-0.3-0.5-0.3-0.8l0,0c0-0.1,0-0.3,0.1-0.4l0.2-0.1c0.2-0.1,0.4-0.1,0.6-0.1h0.5c0.2,0,0.3,0,0.5,0c0.9-0.2,1.7-0.5,2.5-1
	l0.5-0.3c0.1-0.1,0.2-0.1,0.3-0.1h0.2h0.1h0.1c0.3,0.1,0.5,0.3,0.8,0.3h0.1c0.2,0,0.4,0.1,0.5,0.2l0.3,0.3c0.3,0.1,0.5,0.3,0.8,0.5
	l0.2,0.2l-0.2,0.1c0,0-0.1,0-0.1,0l0,0c-0.3,0.1-0.5,0.1-0.8,0.2l-0.8,0.2c-0.1,0-0.2,0.1-0.3,0.1
	C479.7,750.2,479,750.4,478.4,750.5L478.4,750.5z M495,748.7c0,0.2-0.1,0.4-0.3,0.5c-0.2,0.2-0.5,0.4-0.7,0.6
	c-0.3,0.1-0.7,0.2-1,0.2h-0.8c-2.6,0.3-5.3,0.6-7.9,1c-1.4,0.2-2.7,0.7-4,0.7c-0.4,0-0.8,0-1.2,0c0,0-0.1,0-0.1,0
	c0.5-0.1,1.1-0.2,1.5-0.3s1.2-0.4,1.8-0.5l0,0c0.2,0,0.4,0.1,0.6,0.1c0.4,0,0.8-0.2,1.2-0.4l0,0c2-1.3,4.2-2.6,6.1-4.1l0,0
	c0.9,0.3,1.8,0.5,2.8,0.6c0.1,0,0.2,0,0.3,0l0,0l0.1,0.2l0.2,0.2h0.1l0.4,0.3c0.1,0.1,0.2,0.1,0.3,0.2l0,0l0,0h0.1v0
	c0.1,0.2,0.1,0.4,0.1,0.6L495,748.7z M494.7,745.5c-0.2,0.1-0.4,0.2-0.6,0.2h-0.7c-0.5-0.1-1-0.2-1.5-0.3c-0.1,0-0.2,0-0.2-0.1
	c0.1-0.1,0.1-0.1,0.2-0.2c0.9-0.7,1.9-1.2,3-1.6c0.3-0.2,0.6-0.3,1-0.5l0.2,0l0.5-0.4l0,0h0.1h0.2c0.4-0.1,0.8-0.3,1.1-0.7
	c0.1-0.1,0.2-0.3,0.3-0.5c0.2-0.4,0.4-0.8,0.6-1.2c0.1-0.4,0.2-0.9,0.3-1.3c0.2-0.9,0.3-1.7,0.3-2.2c0.4-2.6,1-5.1,1.7-7.6
	c0.2-0.7,0.4-1.4,0.6-2.1l0.5-1.8c0.2-0.7,0.4-1.4,0.6-2.1c0-0.1,0.1-0.3,0.2-0.4c0.1-0.4,0.3-0.9,0.4-1.3c0.3-0.8,0.6-1.6,1-2.4
	l0,0c0.2-0.4,0.4-0.8,0.6-1.3c0,0,0,0,0-0.1c0.1-0.3,0.2-0.5,0.3-0.8c0-0.1,0.1-0.3,0.1-0.4l0,0h0.1c0.2,0,0.4,0.1,0.6,0.2
	c1.2,0.3,2.2,0.9,3.2,1.6c0.2,0.2,0.5,0.4,0.7,0.6c0,0.1,0.1,0.1,0.2,0.2c0.3,0.2,0.5,0.5,0.7,0.8c0,0,0.1,0.1,0.1,0.3v0.1
	c0,0.2,0,0.3,0,0.5c0,0,0,0.1,0,0.1c-0.1,0.4-0.3,0.7-0.5,1.1l-4.7,8.3c-1.5,2.7-3.5,5.1-5.2,7.9c-0.4,0.7-0.8,1.3-1.2,1.9
	c-0.2,0.3-0.4,0.6-0.6,0.9c-0.2,0.3-0.4,0.6-0.7,0.8c0,0.1-0.1,0.1-0.2,0.2c-0.9,0.9-1.8,1.9-2.6,3
	C495.1,745.2,494.9,745.4,494.7,745.5L494.7,745.5z M513.6,719.4h0.3h0.1c1.1,0.6,1.9,1.6,2.3,2.7c0,0.2,0.1,0.4,0.1,0.6
	c0,1.2-0.3,2.4-0.9,3.5c-1.9,4.4-5.1,8-8.3,11.7c-2.6,3.1-5.5,5.9-8.6,8.5c-0.3,0.3-0.7,0.5-1.2,0.7h-0.3c-0.6,0-1.1-0.1-1.6-0.3
	l-0.3-0.1l0,0c0.1,0,0.2-0.1,0.3-0.1c0.4-0.3,0.7-0.6,0.9-1c0.8-1.1,1.7-2.1,2.7-3c0.5-0.6,1-1.2,1.4-1.9c0.4-0.6,0.8-1.3,1.2-1.9
	s0.8-1.3,1.3-2c1.3-1.9,2.8-3.9,4-6c1.5-2.8,3.1-5.6,4.7-8.3c0.3-0.5,0.5-0.9,0.6-1.5c0.1-0.3,0.1-0.7,0.1-1v-0.1
	c0-0.1,0-0.3-0.1-0.4c0-0.2-0.1-0.4-0.2-0.5l0,0l0,0l-0.1-0.1C512.4,719.1,513,719.4,513.6,719.4L513.6,719.4z M516.5,705.5
	c0,2.6-1.4,4.7-2.3,7.5c-0.2,0.8-0.5,1.6-0.9,2.3c-0.2,0.4-0.5,0.8-0.7,1.2c-0.1,0.3-0.4,0.5-0.6,0.7c-0.1,0.1-0.3,0.1-0.4,0.2
	c-0.3,0.1-0.6,0.2-0.9,0.2c-1.4-1.3-3.1-2.2-4.9-2.5h-0.2c-0.1,0-0.3,0-0.4,0c-0.1-0.1-0.2-0.2-0.3-0.3c-0.1,0-0.1-0.1-0.1-0.2
	c-0.2-0.2-0.4-0.4-0.5-0.7l0,0l0.1-0.1c0.2-0.1,0.4-0.2,0.6-0.3h0.1l0,0c0.4-0.3,0.8-0.6,1.1-1c0,0,0,0,0.1-0.1
	c0.3-0.4,0.6-0.8,0.9-1.2c0,0,0-0.1,0.1-0.1s0.2-0.3,0.2-0.4c0.1-0.1,0.1-0.1,0.1-0.2c0,0,0,0,0-0.1l0,0c0.1-0.2,0.2-0.4,0.3-0.6
	l0,0c0.5-1.1,0.9-2.3,1-3.5c0-0.2,0-0.5,0-0.7c-0.1-0.7-0.2-1.4-0.5-2c-0.2-0.4-0.3-0.8-0.5-1.2l0,0c-0.1-0.3-0.1-0.6-0.2-0.9
	c0.5-2.6,0.7-5.2,0.6-7.8c0-1.5,0-3-0.1-4.4c-0.1-1.4-0.3-2.8-0.7-4.2c-0.5-1.8-1.1-3.5-1.9-5.2l0,0c0.1-0.6,0.2-1.2,0.3-1.7
	c0-0.2,0.1-0.3,0.2-0.5c0.2-0.4,0.6-0.9,0.9-1.5c0.5-1.3,0.8-2.6,0.7-4c0-0.5-0.1-0.9-0.2-1.4c-0.1-0.3-0.2-0.6-0.3-0.8l0,0
	c0,0,0.1,0,0.1-0.1c0-0.1,0.1-0.1,0.2-0.2c0.2-0.2,0.4-0.5,0.5-0.8c0-0.1,0-0.1,0.1-0.2l0,0l0,0c0.9,0.3,1.8,0.7,2.8,1
	c0.9,0.3,1.9,0.5,2.8,0.5l0,0c0.2,0.6,0.3,1.2,0.4,1.8v0.1c0.2,2.5,0.3,5,0.5,7.5c0.1,2.1,0,4.1,0.1,6.3c0,0.6,0.1,1.2,0.2,1.7
	c0.5,3.1,0.6,6.2,0.8,9.4l0.2,2.4c0,0.5,0.1,1.1,0.2,1.6c0.2,1.3,0.4,2.5,0.5,3.8C516.4,705,516.5,705.3,516.5,705.5L516.5,705.5z
	 M513.9,665.5c0.1,0.2,0.3,0.3,0.5,0.3c0.1,0.4,0.1,0.8,0.2,1.3s0,0.9,0,1.3c-0.2,0.1-0.4,0.1-0.6,0.2h-0.1c-0.9,0-1.7-0.1-2.5-0.4
	l0,0c-1-0.3-2-0.7-2.9-1c0-0.4-0.2-0.9-0.6-1.2c-0.7-0.6-1.5-1-2.4-1.2c-0.9-0.3-1.8-0.6-2.8-0.8c0.2-1.2,0.4-2.4,0.5-3.5
	c0.1-0.4,0.1-0.8,0.2-1.2c0.1-0.4,0.2-0.7,0.4-1c0.5-0.7,1.2-1.3,1.9-1.7c0.4-0.3,0.8-0.7,1.1-1.2l0,0c0.4,0.4,0.7,0.8,1.2,1.2l0,0
	c-0.1,0.2-0.1,0.4-0.1,0.6v0.1l0,0c0,0.4,0.2,0.9,0.5,1.2c0.2,0.3,0.5,0.6,0.8,0.8C511.1,661,512.7,663.2,513.9,665.5L513.9,665.5z
	 M512.2,489.9c0.1,1.3-0.3,2.5-1.1,3.5c-0.7,0.6-1.3,1.4-1.7,2.2c-0.4,1-0.7,2-0.9,3c-0.7,3.3-0.9,6.7-0.5,10c0.1,1,0.1,2,0.2,3
	c0.2,2,0.3,4,0.4,5.9c0.2,3.4,0.4,6.9,0.6,10.3l0.1,1.7c0.3,4.4,0.9,8.8,1.4,13.1s0.8,8.7,1.3,13c0.5,4.7,1.3,9.4,1.6,14.1
	c0.1,1.1,0.1,2.1,0.1,3.2c0,6,0.1,12,0.3,18.1s0.2,12,0,18s-0.1,11.8-0.7,17.6c-0.2,3.1-0.2,6.3,0.1,9.4c0,0.2,0,0.3,0,0.5
	c0.1,2,0.4,4,0.7,6c0.3,1.6,0.9,3.3,1,4.8c0,0.3,0,0.7,0,1c-0.2,0.8-0.5,1.7-1,2.4c-0.5,0.9-0.7,1.8-1,2.4c-0.5,0.7-1.3,1.3-2.1,1.7
	c-0.8,0.4-1.6,0.7-2.4,1c-0.5-0.5-1.1-1-1.6-1.6c-0.8-0.9-1.6-2-2.4-3l0,0c-0.3-0.4-0.6-0.9-0.8-1.3c0,0-0.1-0.1-0.1-0.1
	c-0.1-0.2-0.2-0.4-0.3-0.6c-0.1-0.3-0.2-0.5-0.3-0.8c0-0.1-0.1-0.2-0.1-0.3s0-0.1,0-0.2c-0.1-0.3-0.1-0.5-0.1-0.8
	c0-0.7,0-1.5,0.1-2.2c0-1.3,0.3-2.6,0.8-3.7c0.8-2,1.2-4.2,1.3-6.3c0.1-1.1,0.2-2.2,0.3-3.2c0.2-1.6,0.4-3.2,0.5-4.7
	c0.2-2.3,0.5-4.7,0.8-7c0.4-4.4,0.5-8.7,0.3-13.1c0-3.7,0.8-7.2,0.8-11.1c0.1-7.9-0.1-15.8-0.6-23.8c-0.1-1.1-0.1-2.1-0.2-3.2
	c-0.7-9.1-1-18.5-2.8-27.6c-1.1-5.4-2.3-10.8-3.6-16.1c0-0.1-0.1-0.2-0.1-0.3l0,0c-0.4-1.5-0.8-3-1.2-4.5c-0.2-0.9-0.5-1.8-0.7-2.8
	c-0.1-0.5-0.2-1.1-0.2-1.7c-0.1-1.8,0.1-3.5,0.6-5.2v0c0.2-0.9,0.4-1.8,0.7-2.8c0.5-2,1-3.9,1.5-5.9c0.2-0.8,0.3-1.7,0.3-2.6
	c-0.1-1.6-0.8-3.1-2-4.2l-0.2-0.2c-0.2-0.2-0.4-0.4-0.6-0.6c-0.1-0.2-0.2-0.5-0.2-0.7c0-0.1,0-0.2,0-0.3c0-0.1,0-0.1,0-0.2
	c0-0.5,0.2-0.9,0.4-1.3c1.4-1.6,3.1-2.9,5-3.8l0.2-0.1c0.9-0.4,1.8-0.7,2.7-0.9h0.1c0.3,0,0.6,0,0.9,0.1c0.8,0.1,1.6,0.4,2.4,0.6
	c0.6,0.2,1.2,0.5,1.6,1c0.3,0.4,0.4,0.8,0.4,1.3L512.2,489.9z M499.3,503.5v-0.4c0.1-1.4,0.5-2.7,0.5-4.2c0-0.5,0-0.9,0-1.4
	c0.2,0.5,0.3,0.9,0.3,1.4c0,0.4,0,0.7,0,1.1c0,0.4-0.1,0.7-0.2,1.1C499.8,501.9,499.5,502.7,499.3,503.5L499.3,503.5z"/>
<path class="st1" d="M138.2,568.7c2.1,1.1,4-4.7,4-4.7c0.2-2.8,0.4-5.7,0.6-8.6c0.1-1.4,0.2-2.9,0.4-4.3c0.2-2.3,0.5-4.6,0.9-6.8
	c0.2-1.1,0.4-2.2,0.6-3.3c0.5-2.4,1-4.8,1.5-7.2c-0.2,1.2-0.3,2.4-0.5,3.6c-0.1,0.7-0.2,1.4-0.3,2.1s-0.2,1.4-0.3,2.1
	c-0.7,5-1.2,10-1.6,15c-0.2,2.5-0.3,4.9-0.3,7.4c0,3.7,1.9,5.4,5.5,5.6s6.7-4.4,6.7-4.4c0.1-1.2,0.1-2.4,0.2-3.5
	c0-0.3,0.1-0.6,0.1-0.9l0.1-1.8c0.2-4.2,0.6-8.4,1.2-12.5c0.1-0.6,0.2-1.2,0.3-1.7c0.3-1.4,0.6-2.8,0.9-4.2
	c0.9-4.3,1.6-8.5,2.5-12.8c0.7-2.9,1.4-5.8,2.1-8.7c0.7-2.9,1.5-5.8,2.2-8.7c0.7-2.5,1.3-5,2-7.5c0.2-0.5,0.3-1.1,0.6-1.6
	c0.1-0.3,0.3-0.7,0.4-1c0.5-1,0.8-2.1,1.2-3.1c0.1-0.3,0.2-0.6,0.2-0.9c0.1-0.3,0.1-0.7,0.1-1c0-0.1,0-0.3,0-0.4
	c0.9-0.3,1.7-0.8,2.3-1.6c0.1-0.1,0.2-0.3,0.3-0.4c0.5-0.7,0.8-1.5,1-2.4c0.1-0.3,0.1-0.7,0.1-1c0-0.2,0-0.4,0-0.6s0-0.2,0-0.3
	l0.3,0l0.3,0l1.1,0.1l0.6,0h0.3c0.9,0.1,1.7,0,2.6-0.1c0.3-0.1,0.6-0.1,0.9-0.2c0.3-0.1,0.6-0.2,0.9-0.4c0.5-0.3,1-0.8,1.4-1.3
	c0.2-0.2,0.4-0.5,0.6-0.8c0.6-1,1.2-2,1.6-3.1c0.2-0.4,0.3-0.7,0.4-1.1c0.4-1.1,0.7-2.2,0.7-3.4c0-0.2,0-0.4,0-0.7s0-0.3,0-0.5
	c-0.1-1-0.3-2-0.7-2.9l-0.2-0.5c-0.1-0.3-0.3-0.6-0.5-0.9c-0.5-0.6-1-1.2-1.5-1.7c-0.1-0.1-0.2-0.2-0.3-0.3c-0.4-0.5-0.8-1-1.1-1.5
	c-0.8-1.2-1.5-2.5-2-3.9c-0.3-0.8-0.6-1.6-1-2.4c-0.2-0.4-0.3-0.8-0.5-1.2c-0.8-1.8-1.4-3.7-2-5.5s-1-3.8-1.4-5.7
	c-0.2-1-0.4-1.9-0.5-2.9c-0.4-2.9-0.7-5.9-0.8-8.8c-0.1-5.5,0-11,0.4-16.5c0.1-1.6,0.2-3.2,0.4-4.8c0.5-6.4,1.2-12.9,2-19.3
	c0.4-3.2,0.7-6.4,1.1-9.6c0.2-1.6,0.3-3.2,0.5-4.8c1.2-12.5,2.8-24.9,4.1-37.4c0.8-7.5,1.5-15,2-22.4v-0.4c0.1-2.2,0.3-4.5,0.5-6.7
	c0.3-3.9,0.7-7.8,1.1-11.7c1.3-11.6,3-23.2,5.2-34.7c0.9-5.7,2.5-11.2,4.6-16.6c0.3-0.7,0.6-1.3,0.9-1.9s0.7-1.3,1-1.9
	s0.7-1.2,1.1-1.8s0.8-1.2,1.2-1.8c0.2-0.3,0.5-0.6,0.8-0.9c0.5-0.6,1-1.1,1.6-1.6c0.3-0.2,0.6-0.5,0.9-0.8c0.8-0.6,2.1-1.1,3.1-1.9
	c0.3-0.2,0.5-0.5,0.8-0.8c0.7-1,1.1-2.1,1.3-3.3c0.1-0.4,0.2-0.8,0.2-1.2c1,0.9,1.9,1.9,2.9,2.9c0.2,0.3,0.5,0.5,0.7,0.8
	c0.1,0.1,0.2,0.2,0.2,0.3c0.5,0.5,0.9,1.1,1.2,1.7c0.1,0.1,0.1,0.3,0.2,0.5c0.2,0.6,0.3,1.3,0.3,1.9c0,2.1,0.4,4.1,1.1,6
	c0.9,1.8,2.5,2.8,3.9,3.7c1.7,1.2,3.3,2.5,4.9,3.8c0,0.7,0,1.5,0.2,2.2c-0.3,0.2-0.7,0.4-1,0.7c0.8-0.3,1.6-0.6,2.3-0.9
	c0-0.2-0.1-0.5-0.1-0.7c-0.1-0.6-0.1-1.3-0.1-1.9c0.1-1,0.3-2.1,0.7-3.1c1-2.6,2.7-4.9,4.8-6.7l0.6-1.6c-0.6-2.3,0.9-4.3,2.6-6.1
	c0.5-1.1,1-2.3,1.5-3.4l-0.3,0.3c-0.3,0.3-0.6,0.6-0.9,1c-2.2,2.3-5,5.1-4.1,8.6c-2.5,1.9-4.3,4.5-5.4,7.5c-0.3,0.8-0.5,1.7-0.6,2.5
	c-1.4-1.2-2.8-2.3-4.2-3.3s-2.8-1.9-3.4-3.2c-0.7-1.8-1-3.6-1-5.5c0-1-0.2-1.9-0.6-2.8c-0.4-0.9-1-1.7-1.6-2.4
	c-1.4-1.5-2.8-3-4.3-4.4c0.1-0.6,0.1-1.2,0.2-1.6c0-0.3,0-0.5,0.1-0.8c0.1-0.8,0.1-1.7,0-2.5c0-0.2,0-0.3,0-0.5
	c-0.1-0.7-0.1-1.4-0.2-2.1v-0.2c0,0,0-0.1,0-0.1c-0.1-0.8-0.3-1.6-0.5-2.4l0,0c-0.1-0.4-0.3-0.8-0.4-1.2s-0.2-0.9-0.4-1.3l0,0
	l0.8-0.8c0.5-0.5,0.9-1,1.3-1.6c0.2-0.4,0.3-0.8,0.3-1.2c0-0.4,0-0.8-0.2-1.1c0,0,0-0.1,0-0.1c-0.2-0.4-0.6-0.8-1-1
	c-0.3-0.2-0.7-0.3-1-0.4c-1.5-0.5-3-0.8-4.6-1l0,0c-1.1-1.3-2.2-2.5-3.4-3.5c-0.1-0.1-0.1-0.1-0.2-0.2c0.2,0,0.4,0,0.6,0
	c0.1,0,0.2,0,0.3,0.1c0.1,0,0.1,0,0.1,0.1l0,0c0.1,0.1,0.2,0.2,0.2,0.3l0.1,0.2l0.1,0.1l0.3,0.3l0,0l0.1,0.1c0.1,0,0.1,0.1,0.2,0.1
	c0.1,0.1,0.2,0.1,0.3,0.1h0c0.2,0.1,0.4,0.1,0.6,0.1l0,0c0.3,0,0.7,0,1,0c2.4-0.2,4.7-0.5,7.1-0.7l0.9-0.1l2.5-0.2l1-0.1
	c1.1-0.1,2.3-0.1,3.4-0.1c1.3,0,2.7,0,4.1,0c0.5,0,1,0,1.4,0.1c0.8,0,1.5,0.1,2.3,0.2c2.1,0.2,4.2,0.8,6.1,1.8
	c0.1,0.1,0.2,0.1,0.3,0.1c0.1,0,0.2,0,0.3-0.1l0,0l1.8-0.9l1.2-0.6l0.7-0.4l1.4-0.8l2.2-1.2c0.7,0,1.4,0.1,2,0.1h0.6
	c0.6,0,1.2-0.1,1.9-0.1h0.2c0.5-0.1,1-0.1,1.6-0.2l1-0.1l0.7-1.4c-0.6,0.1-1.2,0.2-1.9,0.3h-0.3c-1.9,0.3-3.7,0.4-5.6,0.2h-0.2
	l-0.4,0.1l-1.8,0.9l-4.4,2.3l-1.1,0.6c-0.2-0.1-0.4-0.1-0.5-0.2l0,0c-0.8-0.4-1.6-0.6-2.4-0.9l-0.8-0.2l-0.5-0.1l-0.4-0.1
	c-0.6-0.1-1.2-0.2-1.8-0.3s-1.5-0.2-2.2-0.2h-1c-1.6-0.1-3.2-0.1-4.7-0.1c-3.8,0-7.6,0.4-11.4,0.7l-3.8,0.4c-0.2,0-0.5,0-0.8,0
	c-0.2,0-0.4-0.1-0.6-0.2c-0.2-0.2-0.4-0.4-0.5-0.6c-0.1-0.1-0.1-0.1-0.2-0.2l-0.1-0.1l-0.2-0.2c-0.1-0.1-0.2-0.1-0.3-0.1h-0.1
	c-0.2-0.1-0.4-0.1-0.6-0.1c-0.4,0-0.8,0-1.2,0.1c-0.3,0-0.6,0.1-0.9,0.1h-0.2h-0.2c-1-0.1-2-0.3-2.9-0.5c-1.5-0.5-3.1-0.8-4.6-1
	h-0.2c0.2-0.3,0.5-0.5,0.8-0.6c0,0,0.1-0.1,0.1-0.1c0.7-0.4,1.5-0.6,2.3-0.7c1.8-0.3,3.6-0.3,5.5-0.2c1,0.1,1.9,0.2,2.9,0.3
	c0.3,0,0.6-0.1,0.7-0.3c0.4-0.7,1-1.2,1.8-1.5c0.9-0.3,1.7-0.6,2.6-0.7c4.6-0.8,9.2-0.6,13.9-1.3s9.7-1.4,14.5-1.6
	c4.8-0.2,9.6-0.7,14.3-1.5c1-0.2,2.1-0.4,3.1-0.6l0.7-1.5c-1.3,0.3-2.6,0.5-4,0.7c-1.8,0.3-3.5,0.5-5.3,0.7s-3.6,0.4-5.3,0.5
	c-1.2,0.1-2.4,0.2-3.6,0.2c-4.9,0.2-9.8,1-14.6,1.6c-3.4,0.5-6.9,0.5-10.4,0.8c-1.2,0.1-2.4,0.2-3.5,0.4c-0.2,0-0.5,0.1-0.8,0.1
	c-0.8,0.1-1.5,0.4-2.2,0.6c-0.6,0.3-1.2,0.7-1.7,1.1c-0.2,0.2-0.3,0.4-0.4,0.5l-1.3-0.2c-0.4-0.1-0.9-0.1-1.3-0.1c-1,0-1.9,0-2.9,0
	c-1,0-1.9,0.1-2.9,0.3c-0.7,0.1-1.4,0.3-2.1,0.5c-0.2,0.1-0.5,0.2-0.7,0.3c-0.7,0.4-1.3,0.9-1.7,1.6c-0.3,0.1-0.6,0.2-0.9,0.3
	c-1.4,0.5-2.6,1.3-3.7,2.4c-1.1,1-1.9,2.2-2.5,3.6c-0.9,0.3-1.6,0.7-2.3,1.3c-0.7,0.7-1.2,1.5-1.6,2.3c-1,1.8-2,3.6-2.9,5.4
	c-0.4,0.9-0.9,1.9-1.2,2.8s-0.7,1.9-1,2.9c-1.2,3.7-2,7.6-2.5,11.5c-0.2,2-0.4,4-0.6,6c-0.2,2.4-0.2,4.8-0.3,7.2
	c-0.2,7.6-0.2,15.3-0.3,22.9c0,2.5-0.1,5.1-0.2,7.6c0,1-0.1,1.9-0.2,2.9c-0.1,2.3-0.4,4.7-0.6,7c-0.7,7-1.6,14-2.3,21
	c-0.4,4.5-0.9,8.9-1.3,13.4s-0.8,9-1.1,13.5c-0.2,3.7-0.4,7.4-0.6,11.1c0,1.9-0.1,3.7-0.1,5.6c0,1.9,0,3.7,0,5.6
	c0,2.5,0,4.9-0.2,7.3c-0.1,1.1-0.2,2.1-0.2,3.2c-0.1,1.1-0.2,2.1-0.3,3.2c-0.4,3.2-0.8,6.3-1.2,9.5c-0.3,2.1-0.5,4.3-0.8,6.4
	c-0.1,1.1-0.2,2.2-0.3,3.2s-0.2,2.4-0.4,3.6s-0.3,2.4-0.5,3.6c-0.3,2.4-0.8,4.8-1.3,7.2c-0.2,1.2-0.5,2.4-0.8,3.6
	c-0.9,3.6-1.9,7.1-3.2,10.5c-0.9,2.4-1.9,4.9-2.8,7.3c-1,2.4-2,4.8-3,7.2c-1,2.4-2,4.8-3,7.2s-2.1,4.8-3.2,7.1
	c-2,4.4-3.4,9.1-4.3,13.8c-0.1,0.7-0.3,1.4-0.4,2c-0.1,0.9-0.2,1.7-0.3,2.6c-0.2,2.1,0,4.2,0.5,6.3c0.2,0.7,0.4,1.3,0.6,2
	c0.2,0.5,0.4,1,0.7,1.5c0.1,0.2,0.2,0.3,0.3,0.5c0.2,0.3,0.4,0.6,0.6,1c0.2,0.3,0.5,0.6,0.8,0.9l-0.5,0.1l-0.9,0.3
	c-0.6,0.2-1.2,0.5-1.7,0.9c-0.2,0.2-0.4,0.3-0.5,0.5l-0.1,0.2c-0.3,0.5-0.5,1.1-0.6,1.8v0.5c0,1.1,0.2,2.3,0.7,3.3
	c0.2,0.4,0.4,0.7,0.7,1l0.5,0.5c0.1,0.2,0.3,0.3,0.4,0.5c0.1,0.1,0.2,0.3,0.4,0.4c0.1,0.1,0.2,0.3,0.2,0.5c0.2,0.4,0.3,0.9,0.5,1.4
	c0.1,0.5,0.3,1,0.4,1.4c0.2,0.8,0.3,1.6,0.4,2.4c0.2,1.6,0.3,3.2,0.2,4.8c0,0.8,0,1.6-0.1,2.4c0,0.5-0.1,1-0.1,1.5s-0.1,1-0.1,1.5
	c-0.1,0.7-0.1,1.3-0.1,2c-0.1,1.3-0.2,2.7-0.3,4c-0.1,2.3-0.3,4.6-0.4,6.9c-0.1,1.1-0.1,2.3-0.2,3.4l-0.1,1.7
	c-0.3,3.8-0.8,7.6-1.2,11.4l-0.2,1.6c-0.2,2.2-0.4,4.3-0.6,6.5s-0.4,4.3-0.6,6.5c-0.1,0.6-0.1,1.2-0.2,1.7c-0.2,1.7-0.4,3.5-0.7,5.3
	c-0.1,0.4-0.1,0.8-0.1,1.2C133.3,568.2,136.1,567.6,138.2,568.7z M205.4,217l-1.2,0.4l-0.3,0.1c-0.2-0.3-0.5-0.7-0.7-1
	C204,216.6,204.7,216.8,205.4,217z M206.2,220.5l-0.4,0.4l-0.7,0.7c-0.1,0.1-0.1,0.2-0.2,0.3c0,0.1,0,0.2,0.1,0.3l0,0c0,0,0,0,0,0.1
	h-0.1c-0.4,0-0.9,0.1-1.6,0.1c-0.6,0.1-1.3,0.1-1.9,0.1c-0.2,0-0.4,0-0.6-0.1c-0.3-0.3-0.6-0.6-0.9-0.9c-0.2-0.2-0.3-0.5-0.3-0.8
	l0.1-0.3c0.3-0.3,0.7-0.5,1.1-0.6l2.5-0.8l1.3-0.4l2.6-0.8c0,0,0.1,0.1,0.1,0.1c0.1,0.2,0.1,0.3,0.1,0.5c0,0.2-0.1,0.5-0.2,0.7
	c-0.1,0.2-0.3,0.4-0.4,0.6L206.2,220.5z M168.7,490.5c-0.2-0.5-0.4-1-0.7-1.5c-0.3-0.7-0.7-1.5-1.1-2.2c-0.4-0.7-0.8-1.4-1.3-2.1
	c-0.4-0.6-1.1-1-1.8-1c-0.2,0-0.4,0-0.6,0c-0.3,0-0.5,0.1-0.8,0.2c-0.3,0.1-0.5,0.2-0.7,0.3c-0.3,0.2-0.6,0.3-0.9,0.5
	c-0.3,0.2-0.5,0.4-0.8,0.5c-0.5,0.4-0.9,0.8-1.4,1.2s-1.1,1-1.6,1.4c-0.4-0.2-0.8-0.3-1.2-0.3c-0.9,0-1.7,0.1-2.6,0.4
	c-0.7,0.2-1.5,0.3-2.2,0.3c-0.2,0-0.4,0-0.6-0.1c-0.7-0.2-1.3-0.5-1.9-0.9c-0.7-0.4-1.5-0.7-2.3-0.9l-0.5,0c-0.6,0-1.2,0-1.8,0
	l-0.7-0.3c-0.2-0.1-0.5-0.2-0.8-0.3c-0.5-0.2-1.1-0.3-1.7-0.4h-0.1c-0.2,0-0.5,0-0.7,0c-0.8-0.5-1.5-1.3-2-2.2
	c-0.6-1.2-1.1-2.4-1.4-3.7c-0.5-1.9-0.6-3.9-0.5-5.9c0.1-0.8,0.2-1.7,0.3-2.5c0.8-5.4,2.4-10.6,4.6-15.5c4.2-9.5,8.2-19.2,12-28.9
	c3.5-9.3,5.6-19,6.3-28.9c0.7-8.6,2.2-17,2.8-25.5c0.2-2.5,0.2-4.9,0.2-7.4c-0.1-7.4,0.1-14.8,0.6-22.2c0.6-9,1.5-17.9,2.4-26.8
	c0.9-9.3,2.2-18.6,2.9-28.1c0.1-1,0.1-1.9,0.2-2.9c0.5-10.2,0.2-20.4,0.6-30.5c0.1-2.4,0.2-4.8,0.3-7.2c0.5-8,1.7-15.8,5.2-23
	c0.9-1.8,1.8-3.6,2.9-5.4c0.4-0.7,0.8-1.4,1.4-2c0.6-0.5,1.3-0.9,2.1-1.1c0.2-0.1,0.3-0.2,0.4-0.4c1.1-2.6,3.2-4.7,5.9-5.6
	c0.1,0.1,0.3,0.2,0.4,0.1c0.4,0,0.8,0,1.2,0c0.4,0,0.7,0.1,1.1,0.1c1.1,0.2,2.1,0.5,3.3,0.8c0.5,0.1,1.1,0.3,1.6,0.4
	s0.9,0.1,1.3,0.2l0.6,0.4l0.5,0.4l0.3,0.3l0.1,0.1c0.3,0.3,0.6,0.5,0.9,0.8l0.2,0.2l0.1,0.1c0.4,0.4,0.7,0.7,1,1.1l0.1,0.1l0.5,0.6
	l0.6,0.6l0,0l0.7,0.8c0.3,0.4,0.5,0.7,0.8,1.1l-2.1,0.6l-0.5,0.1c-0.4,0.1-0.7,0.3-1,0.5c-0.2,0.1-0.3,0.3-0.4,0.5
	c-0.1,0.1-0.1,0.3-0.2,0.4c-0.1,0.1-0.1,0.3-0.1,0.4c0,0.1,0,0.2,0,0.2c0,0.4,0.1,0.7,0.3,1.1c0.1,0.1,0.1,0.3,0.2,0.4
	c0.2,0.2,0.3,0.5,0.5,0.7c0.2,0.2,0.4,0.4,0.6,0.6c0.3,0.2,0.6,0.4,1,0.4h0.4c0.3,0,0.7,0,1,0l1.1-0.1l0.9-0.1l0.6-0.1h0.5
	c0.1,0.3,0.2,0.6,0.3,1c0,0.2,0.1,0.3,0.1,0.5c0.2,0.6,0.3,1.2,0.4,1.9c0,0.1,0,0.2,0.1,0.3c0,0.1,0,0.2,0.1,0.3
	c0.1,0.6,0.1,1.2,0.2,1.8l0,0v0.6c0,0.8,0,1.6,0,2.4v0.4c0,0.1,0,0.3,0,0.4c0,0.6-0.1,1.2-0.2,1.9c-0.1,0.8-0.2,1.5-0.4,2.3
	c-0.2,1.3-0.8,2.5-1.6,3.4c-0.8,0.6-2,1.1-3.1,1.9c-1.3,1-2.5,2.2-3.5,3.5c-1.7,2.4-3.2,5-4.4,7.7c-2.2,5.4-3.7,11.1-4.7,16.9
	c-3.4,17.6-5.7,35.3-6.8,53.2v0.4c-1.3,19.8-4.2,39.8-6.1,59.8c-1.2,12.7-3.1,25.6-3.9,38.5c-0.4,5.5-0.5,11.1-0.4,16.6
	c0.1,8,1.7,16,4.8,23.4c1.4,3.2,2.4,6.5,4.8,9.4c0.8,0.8,1.5,1.6,2.1,2.6c0.5,1,0.8,2.1,0.8,3.3c0,0.2,0,0.4,0,0.6
	c-0.1,1.4-0.5,2.7-1.1,4c-0.4,1-0.9,2-1.5,2.9c-0.5,0.8-1.2,1.5-2.1,1.9c-1,0.3-2,0.3-3,0.2H176c-0.2,0-1.5-0.1-2.3-0.3
	c-0.2,0-0.3-0.1-0.5-0.1l0,0l0,0c-0.1,0-0.2-0.1-0.2-0.1c-0.1,0-0.2,0-0.3,0c-0.1,0-0.2,0.1-0.2,0.1c-0.1,0.1-0.1,0.1-0.2,0.2l0,0
	c0,0.1-0.1,0.1-0.1,0.2c0,0.1,0,0.2,0,0.3c0.1,0.5,0.2,1,0.1,1.5c-0.1,1.1-0.5,2.2-1.1,3.1c-0.4,0.5-0.8,0.8-1.4,1
	c-0.1-0.7-0.3-1.4-0.5-2C169.1,491.2,168.9,490.8,168.7,490.5L168.7,490.5z M147.6,488.2l0.5,0.2l0.5,0.3c0.5,0.3,1.1,0.5,1.7,0.7
	c0.3,0.1,0.5,0.1,0.8,0.1c0.5,0,0.9,0,1.4-0.1c0.4-0.1,0.9-0.2,1.2-0.3s0.8-0.2,1.2-0.2c0.2,0,0.4,0,0.6,0c-0.7,0.4-1.4,0.7-2.1,1
	c-1,0.4-2,1-2.9,1.8c-0.1-0.4-0.3-0.8-0.5-1.1c-0.9-1-1.9-1.9-3-2.7C147.1,488,147.3,488.1,147.6,488.2L147.6,488.2z M144.6,563.8
	c-0.8-2.2,0.1-4.7,0.3-7.1c0.4-5.7,1-11.3,1.8-17c0.3-2.1,0.6-4.1,0.9-6.2c0.3-2.2,0.6-4.5,0.7-6.7c0-0.7,0.1-1.5,0.1-2.2
	c0.2-0.8,0.4-1.6,0.7-2.4c0.4-1.6,0.9-3.2,1.3-4.8c0.1-0.5,0.2-1,0.2-1.6c0-0.1,0-0.2,0-0.3s0-0.5,0-0.7c0-1.7-0.2-3.3-0.6-4.9
	c-0.2-0.9-0.4-1.7-0.6-2.5c0.2-0.8,0.3-1.5,0.3-2.3c0.1-0.7,0.1-1.3,0-2c-0.3-1.8-0.5-3.6-0.5-5.5c0-0.2,0-0.5,0.1-0.7
	c0.1-0.5,0.2-1,0.4-1.5l0,0c0.1-0.1,0.2-0.2,0.3-0.3c0.1-0.1,0.2-0.2,0.3-0.3c0.2-0.3,0.3-0.6,0.4-1c0-0.1,0-0.2,0.1-0.3
	c0.1-0.1,0.2-0.3,0.4-0.5c0.8-0.8,1.8-1.4,2.9-1.8c1.2-0.5,2.3-1.1,3.4-1.7l0,0c0.4-0.3,0.8-0.6,1.1-0.9c0.9-0.8,1.7-1.6,2.5-2.2
	c0.4-0.4,0.9-0.7,1.4-0.9c0.4-0.2,0.9-0.4,1.4-0.4c0.3,0,0.6,0.2,0.8,0.5c1.2,1.8,2.2,3.6,3,5.6c0.4,0.9,0.7,1.8,0.9,2.8
	c0.1,0.4,0.1,0.9,0.1,1.3c0,0,0,0.1,0,0.2c0,0.3-0.1,0.6-0.1,0.9c-0.4,2.1-1.6,4.1-2.3,6.5s-1.4,5-2,7.5c-1.5,5.8-3,11.6-4.4,17.4
	c-1.3,5.7-2.1,11.4-3.4,17c-1.1,4.7-1.2,9.7-1.6,14.4c-0.1,0.9-0.1,1.9-0.2,2.8c-0.1,1.1-0.1,2.3-0.2,3.4
	C154.1,566.8,147.8,573.5,144.6,563.8L144.6,563.8z M134.6,563.5c-0.2-2.7,0.7-5.3,1-7.9c0.4-4.3,0.8-8.7,1.3-13s1.1-8.7,1.4-13.1
	l0.1-1.7c0.2-3.4,0.4-6.9,0.6-10.3c0.1-2,0.3-4,0.4-5.9c0.1-1,0.2-2,0.2-3c0.3-3.3,0.1-6.7-0.5-10c-0.2-1-0.5-2-0.9-3
	c-0.4-0.8-1-1.5-1.7-2.2c-0.7-1-1.1-2.2-1.1-3.5v-0.3c0-0.5,0.2-0.9,0.4-1.3c0.4-0.5,1-0.8,1.6-1c0.8-0.3,1.6-0.5,2.4-0.6
	c0.3-0.1,0.6-0.1,0.9-0.1h0.1c1,0.1,1.9,0.4,2.7,0.9l0.2,0.1c1.9,0.9,3.6,2.2,5,3.8c0.2,0.4,0.4,0.8,0.4,1.3c0,0.1,0,0.1,0,0.2
	c0,0.1,0,0.2,0,0.3c0,0.3-0.1,0.5-0.2,0.7c-0.2,0.2-0.4,0.4-0.6,0.6l-0.2,0.2c-1.2,1.1-1.9,2.6-2,4.2c0,0.9,0,1.7,0.3,2.6
	c0.5,2,1,3.9,1.5,5.9c0.2,0.9,0.5,1.8,0.7,2.8v0c0.4,1.7,0.6,3.5,0.6,5.2c0,0.6-0.1,1.1-0.2,1.7c-0.2,0.9-0.5,1.8-0.7,2.8
	c-0.4,1.5-0.9,3-1.2,4.5l0,0c0,0.1,0,0.2-0.1,0.3c-1.3,5.3-2.5,10.7-3.6,16.1c-1.6,7.7-2,15.7-2.5,23.6c0,0-1.5,5.1-4.2,3.1
	S134.9,566.4,134.6,563.5L134.6,563.5z M147.7,501.2c-0.1-0.3-0.2-0.7-0.2-1.1c0-0.4,0-0.7,0-1.1c0-0.5,0.1-0.9,0.3-1.4
	c0,0.5,0,0.9,0,1.4c0.1,1.5,0.4,2.8,0.6,4.2v0.4C148.2,502.7,147.9,501.9,147.7,501.2L147.7,501.2z"/>
<polygon class="st2" points="173.3,501.6 173,501.6 173,501.6 173.3,501.6 "/>
<line class="st3" x1="457.4" y1="492.3" x2="483.9" y2="653.3"/>
<rect x="450.9" y="491.3" transform="matrix(0.9867 -0.1625 0.1625 0.9867 -73.9056 80.8528)" class="st4" width="13" height="2"/>
<rect x="477.5" y="652.3" transform="matrix(0.9867 -0.1626 0.1626 0.9867 -99.805 87.4076)" class="st4" width="13" height="2"/>
<line class="st3" x1="214.4" y1="484.7" x2="191.5" y2="579.8"/>
<rect x="213.4" y="478.2" transform="matrix(0.2343 -0.9722 0.9722 0.2343 -306.9885 579.538)" class="st4" width="2" height="13"/>
<rect x="190.5" y="573.3" transform="matrix(0.2343 -0.9722 0.9722 0.2343 -417.0424 630.0945)" class="st4" width="2" height="13"/>
<line class="st5" x1="468.2" y1="490.8" x2="588.2" y2="468.8"/>
<line class="st5" x1="487.3" y1="574.3" x2="589.2" y2="556.3"/>
<line class="st5" x1="494.3" y1="652.8" x2="589.2" y2="636.8"/>
<line class="st5" x1="72.8" y1="518.9" x2="193.7" y2="534.7"/>
<circle class="st6" cx="48.7" cy="516.3" r="22.5"/>
<circle class="st6" cx="610.7" cy="465.3" r="22.5"/>
<circle class="st6" cx="611.2" cy="554.3" r="22.5"/>
<circle class="st6" cx="611.7" cy="635.7" r="22.5"/>
<polygon class="st4" points="228.5,515.6 201.2,557.2 255.8,557.2 "/>
<polygon class="st4" points="437.5,550.5 410.2,592.1 464.8,592.1 "/>
<text transform="matrix(1 0 0 1 596.07 472.81)" class="st1 st7 st8">C1</text>
<text transform="matrix(1 0 0 1 596.07 643.14)" class="st1 st7 st8">C3</text>
<text transform="matrix(1 0 0 1 426.07 587.81)" class="st1 st7 st8">L1</text>
<text transform="matrix(1 0 0 1 32.4 524.81)" class="st1 st7 st8">C4</text>
<text transform="matrix(1 0 0 1 595.57 562.81)" class="st1 st7 st8">C2</text>
<text transform="matrix(1 0 0 1 216.13 553.54)" class="st1 st7 st8">L2</text>
</svg>
