<?xml version="1.0" standalone="no"?>
<!DOCTYPE svg PUBLIC "-//W3C//DTD SVG 1.1//EN" "http://www.w3.org/Graphics/SVG/1.1/DTD/svg11.dtd" >
<svg>
<metadata>
Created by FontForge 20090622 at Fri Oct  6 19:36:19 2017
 By deploy user
Copyright &#195;&#130;&#194;&#169; 2004 - 2007 Linotype GmbH, www.linotype.com. All rights reserved.
</metadata>
<defs>
<font id="AvenirNext-BoldCond" horiz-adv-x="274" >
  <font-face 
    font-family="Avenir Next LT Pro Cond"
    font-weight="700"
    font-stretch="condensed"
    units-per-em="1000"
    panose-1="0 0 0 0 0 0 0 0 0 0"
    ascent="800"
    descent="-200"
    x-height="523"
    cap-height="708"
    bbox="-120 -250 939 964"
    underline-thickness="50"
    underline-position="-50"
    unicode-range="U+000D-U+FB02"
  />
<missing-glyph horiz-adv-x="512" 
d="M0 718h512v-718h-512v718zM50 50h412v617h-412v-617zM271 234h-46l-2 17q0 56 13 81q17 33 46 59q30 29 40 46.5t10 36.5q0 36 -22.5 60.5t-53.5 24.5q-71 0 -82 -95l-50 8q6 69 42 103t93 34q55 0 89.5 -36t34.5 -95q0 -34 -13 -60t-50 -60q-37 -33 -43 -52
q-6 -20 -6 -72zM278 117h-56v67h56v-67z" />
    <glyph glyph-name=".notdef" horiz-adv-x="512" 
d="M0 718h512v-718h-512v718zM50 50h412v617h-412v-617zM271 234h-46l-2 17q0 56 13 81q17 33 46 59q30 29 40 46.5t10 36.5q0 36 -22.5 60.5t-53.5 24.5q-71 0 -82 -95l-50 8q6 69 42 103t93 34q55 0 89.5 -36t34.5 -95q0 -34 -13 -60t-50 -60q-37 -33 -43 -52
q-6 -20 -6 -72zM278 117h-56v67h56v-67z" />
    <glyph glyph-name=".null" horiz-adv-x="200" 
 />
    <glyph glyph-name=".null" horiz-adv-x="200" 
 />
    <glyph glyph-name="nonmarkingreturn" horiz-adv-x="333" 
 />
    <glyph glyph-name="CR" unicode="&#xd;" horiz-adv-x="0" 
 />
    <glyph glyph-name="space" unicode=" " horiz-adv-x="200" 
 />
    <glyph glyph-name="exclam" unicode="!" horiz-adv-x="328" 
d="M249 81q0 -39 -23.5 -64.5t-61.5 -25.5q-37 0 -60.5 25.5t-23.5 64.5q0 37 24 64t60 27q37 0 61 -26.5t24 -64.5zM242 241h-155v467h155v-467z" />
    <glyph glyph-name="quotedbl" unicode="&#x22;" horiz-adv-x="393" 
d="M172 440h-103v268h103v-268zM323 440h-102v268h102v-268z" />
    <glyph glyph-name="numbersign" unicode="#" horiz-adv-x="429" 
d="M245 407h-51l-9 -105h50zM398 407h-71l-9 -105h51v-99h-61l-20 -203h-83l20 203h-50l-20 -203h-84l20 203h-61v99h71l11 105h-62v99h71l19 202h84l-19 -202h50l20 202h83l-20 -202h60v-99z" />
    <glyph glyph-name="dollar" unicode="$" horiz-adv-x="525" 
d="M230 705v81h62v-75q102 -5 161 -68l-79 -112q-36 42 -88 42q-29 0 -47.5 -17t-18.5 -53q0 -29 19 -47.5t64 -40.5q29 -14 49.5 -28t44.5 -37t36.5 -56.5t12.5 -75.5q0 -88 -44.5 -143.5t-115.5 -70.5v-86h-62v81q-108 4 -180 76l78 115q48 -51 109 -51q29 0 47.5 18.5
t18.5 50.5q0 31 -20.5 50.5t-69.5 43.5q-65 33 -99.5 75.5t-34.5 119.5q0 87 44.5 139.5t112.5 68.5z" />
    <glyph glyph-name="percent" unicode="%" horiz-adv-x="694" 
d="M538 709l-302 -730l-75 27l303 732zM214 532q0 97 -48 97q-22 0 -34 -26.5t-12 -70.5q0 -42 12 -69.5t34 -27.5q24 0 36 27.5t12 69.5zM310 531q0 -83 -39 -135t-105 -52q-65 0 -104 52.5t-39 134.5q0 83 39 136t104 53q66 0 105 -53t39 -136zM576 173q0 97 -47 97
q-22 0 -34 -27t-12 -70t12 -70t34 -27q47 0 47 97zM673 172q0 -83 -39 -135t-105 -52q-65 0 -104 52.5t-39 134.5q0 83 39 135.5t104 52.5q66 0 105 -52.5t39 -135.5z" />
    <glyph glyph-name="ampersand" unicode="&#x26;" horiz-adv-x="607" 
d="M307 164l-91 131q-16 -10 -29 -33t-13 -54q0 -42 19 -66.5t51 -24.5q43 0 63 47zM330 544q0 30 -11.5 49t-32.5 19q-22 0 -35.5 -20.5t-13.5 -49.5q0 -51 34 -92q59 38 59 94zM602 0h-178l-41 59q-49 -74 -152 -74q-94 0 -147.5 55.5t-53.5 157.5q0 134 117 196
q-51 69 -51 148q0 85 53.5 135.5t135.5 50.5q78 0 126.5 -46.5t48.5 -128.5q0 -62 -34.5 -105.5t-94.5 -82.5l59 -82l49 105h151l-114 -213z" />
    <glyph glyph-name="quotesingle" unicode="'" horiz-adv-x="240" 
d="M171 440h-102v268h102v-268z" />
    <glyph glyph-name="parenleft" unicode="(" horiz-adv-x="282" 
d="M241 -131l-97 -44q-57 97 -88.5 219t-31.5 244t31.5 244t88.5 219l97 -44q-106 -187 -106 -419t106 -419z" />
    <glyph glyph-name="parenright" unicode=")" horiz-adv-x="282" 
d="M258 288q0 -122 -31.5 -244t-88.5 -219l-97 44q106 187 106 419t-106 419l97 44q57 -97 88.5 -219t31.5 -244z" />
    <glyph glyph-name="asterisk" unicode="*" horiz-adv-x="474" 
d="M448 519l-121 -38l76 -105l-89 -65l-77 108l-75 -104l-89 64l78 103l-123 41l36 100l120 -42v127h110v-127l121 39z" />
    <glyph glyph-name="plus" unicode="+" horiz-adv-x="666" 
d="M611 240h-212v-209h-130v209h-213v126h212v209h130v-209h213v-126z" />
    <glyph glyph-name="comma" unicode="," horiz-adv-x="270" 
d="M224 167l-81 -285h-116l60 285h137z" />
    <glyph glyph-name="hyphen" unicode="-" horiz-adv-x="248" 
d="M220 217h-192v119h192v-119z" />
    <glyph glyph-name="period" unicode="." horiz-adv-x="270" 
d="M220 81q0 -38 -24 -64t-61 -26q-38 0 -61.5 25.5t-23.5 64.5q0 38 24 64.5t61 26.5q36 0 60.5 -27t24.5 -64z" />
    <glyph glyph-name="slash" unicode="/" horiz-adv-x="292" 
d="M283 739l-194 -777l-84 18l195 778z" />
    <glyph glyph-name="zero" unicode="0" horiz-adv-x="525" 
d="M335 354q0 228 -73 228t-73 -228t73 -228t73 228zM495 354q0 -67 -10 -126t-34 -117t-72.5 -92t-116.5 -34q-69 0 -117 34t-72 92t-33.5 116.5t-9.5 126.5t9.5 126.5t33.5 116.5t72 92t117 34q68 0 116.5 -34t72.5 -92t34 -117t10 -126z" />
    <glyph glyph-name="one" unicode="1" horiz-adv-x="525" 
d="M380 0h-157v522l-106 -80l-71 124l194 142h140v-708z" />
    <glyph glyph-name="two" unicode="2" horiz-adv-x="525" 
d="M475 513q0 -62 -28 -113t-78 -109l-132 -153h229v-138h-419v142l215 247q56 64 56 122q0 33 -15.5 54t-44.5 21q-30 0 -48.5 -24t-22.5 -68l-150 14q12 105 72.5 160t153.5 55q97 0 154.5 -57t57.5 -153z" />
    <glyph glyph-name="three" unicode="3" horiz-adv-x="525" 
d="M480 207q0 -104 -63 -163t-160 -59q-89 0 -150 45.5t-81 134.5l141 36q18 -79 83 -79q36 0 55.5 27.5t19.5 64.5q0 45 -25.5 67.5t-71.5 22.5h-36v118h40q40 0 61.5 23.5t21.5 65.5q0 30 -17 52.5t-48 22.5q-50 0 -69 -67l-137 34q23 86 82 128t135 42q84 0 144.5 -50.5
t60.5 -141.5q0 -62 -26 -104.5t-71 -56.5v-3q51 -14 81 -58t30 -102z" />
    <glyph glyph-name="four" unicode="4" horiz-adv-x="525" 
d="M285 274v278h-2l-121 -278h123zM496 142h-72v-142h-142v142h-259v136l207 430h194v-434h72v-132z" />
    <glyph glyph-name="five" unicode="5" horiz-adv-x="525" 
d="M476 235q0 -120 -63 -185t-161 -65q-84 0 -143 46.5t-77 134.5l137 43q20 -85 79 -85q36 0 55 29.5t19 76.5q0 52 -29.5 79.5t-74.5 27.5q-65 0 -141 -31l15 402h359v-139h-225l-5 -122q25 11 54 11q95 0 148 -60t53 -163z" />
    <glyph glyph-name="six" unicode="6" horiz-adv-x="525" 
d="M341 242q0 52 -20.5 84.5t-56.5 32.5q-34 0 -56.5 -33t-22.5 -84t22 -84t56 -33q35 0 56.5 33t21.5 84zM310 472q90 0 137.5 -64.5t47.5 -167.5q0 -120 -64 -187.5t-166 -67.5q-104 0 -169 67t-65 185q0 104 60 217l135 254h183l-137 -242l1 -1q12 7 37 7z" />
    <glyph glyph-name="seven" unicode="7" horiz-adv-x="525" 
d="M464 588l-209 -588h-174l209 567h-243v141h417v-120z" />
    <glyph glyph-name="eight" unicode="8" horiz-adv-x="525" 
d="M335 208q0 45 -20 73.5t-52 28.5t-52 -28.5t-20 -73.5t19.5 -73t52.5 -28q34 0 53 27.5t19 73.5zM329 518q0 40 -17.5 65t-48.5 25t-48 -25t-17 -65q0 -38 18 -65t47 -27q30 0 48 27t18 65zM496 199q0 -93 -64 -153.5t-169 -60.5q-104 0 -166.5 60.5t-62.5 153.5
q0 68 32 111.5t79 61.5v2q-97 38 -97 155q0 80 56.5 137t158.5 57q103 0 161 -57t58 -137q0 -116 -96 -155v-2q47 -18 78.5 -62t31.5 -111z" />
    <glyph glyph-name="nine" unicode="9" horiz-adv-x="525" 
d="M184 472q0 -52 20.5 -83.5t56.5 -31.5q34 0 56.5 32t22.5 83t-22 82.5t-56 31.5q-35 0 -56.5 -31.5t-21.5 -82.5zM217 245q-90 0 -138.5 64t-48.5 165q0 118 65.5 183.5t167.5 65.5t166.5 -66t64.5 -183q0 -102 -60 -217l-135 -257h-183l139 251l-1 1q-12 -7 -37 -7z" />
    <glyph glyph-name="colon" unicode=":" horiz-adv-x="300" 
d="M233 85q0 -38 -23.5 -63t-59.5 -25t-59 25t-23 63q0 37 23.5 62.5t58.5 25.5q36 0 59.5 -25.5t23.5 -62.5zM233 436q0 -38 -23.5 -63t-59.5 -25t-59 25t-23 63q0 36 23.5 61.5t58.5 25.5t59 -25.5t24 -61.5z" />
    <glyph glyph-name="semicolon" unicode=";" horiz-adv-x="300" 
d="M230 167l-81 -285h-114l59 285h136zM233 436q0 -38 -23.5 -63t-59.5 -25t-59 25t-23 63q0 36 23.5 61.5t58.5 25.5t59 -25.5t24 -61.5z" />
    <glyph glyph-name="less" unicode="&#x3c;" horiz-adv-x="666" 
d="M587 37l-508 214v103l508 214v-136l-306 -131l306 -127v-137z" />
    <glyph glyph-name="equal" unicode="=" horiz-adv-x="666" 
d="M598 150h-530v123h530v-123zM598 335h-530v123h530v-123z" />
    <glyph glyph-name="greater" unicode="&#x3e;" horiz-adv-x="666" 
d="M587 251l-508 -214v137l306 127l-306 131v136l508 -214v-103z" />
    <glyph glyph-name="question" unicode="?" horiz-adv-x="428" 
d="M306 81q0 -39 -23.5 -64.5t-61.5 -25.5t-61.5 25.5t-23.5 64.5q0 38 24 64.5t61 26.5t61 -26.5t24 -64.5zM280 266v-28h-132v42q0 49 16.5 82t52.5 71l17 18q35 37 35 69q0 69 -55 69q-30 0 -46.5 -25t-19.5 -55l-131 23q11 84 63 139.5t143 55.5q89 0 141 -51.5
t52 -144.5q0 -58 -23 -98t-70 -81q-43 -38 -43 -86z" />
    <glyph glyph-name="at" unicode="@" horiz-adv-x="640" 
d="M368 392q0 76 -40 76q-27 0 -44 -42.5t-17 -96.5q0 -74 42 -74q27 0 43 45t16 92zM606 403q0 -106 -42.5 -174.5t-113.5 -68.5q-70 0 -74 72h-2q-28 -72 -91 -72q-50 0 -80 48t-30 121q0 92 38.5 161.5t103.5 69.5q58 0 72 -60h2l7 34h82l-23 -134q-13 -76 -13 -106
q0 -39 25 -39q26 0 44.5 39t18.5 107q0 117 -53.5 182.5t-147.5 65.5t-152.5 -85t-58.5 -210q0 -131 59 -211.5t162 -80.5t175 75l44 -67q-89 -88 -227 -88q-139 0 -218.5 102.5t-79.5 268.5q0 162 81.5 267.5t214.5 105.5q130 0 203.5 -84t73.5 -239z" />
    <glyph glyph-name="A" unicode="A" horiz-adv-x="543" 
d="M328 253l-57 301h-4l-60 -301h121zM544 0h-167l-29 129h-159l-29 -129h-160l172 708h201z" />
    <glyph glyph-name="B" unicode="B" horiz-adv-x="544" 
d="M356 217q0 44 -25.5 66t-60.5 22h-58v-172h60q37 0 60.5 22t23.5 62zM343 500q0 39 -21.5 57t-55.5 18h-54v-153h55q32 0 54 19.5t22 58.5zM508 202q0 -104 -61.5 -153t-148.5 -49h-235v708h212q29 0 55.5 -4t55.5 -16t50 -31.5t34.5 -53t13.5 -77.5q0 -114 -88 -155v-2
q45 -11 78.5 -54.5t33.5 -112.5z" />
    <glyph glyph-name="C" unicode="C" horiz-adv-x="512" 
d="M416 188l89 -111q-68 -96 -196 -96q-123 0 -199 104t-76 269q0 167 76 270t199 103q127 0 195 -89l-86 -116q-39 52 -97 52q-61 0 -94.5 -61.5t-33.5 -158.5q0 -96 33.5 -158t95.5 -62q59 0 94 54z" />
    <glyph glyph-name="D" unicode="D" horiz-adv-x="590" 
d="M395 352q0 104 -35.5 160t-95.5 56h-39v-428h39q59 0 95 55.5t36 156.5zM556 352q0 -165 -73 -258.5t-221 -93.5h-199v708h199q148 0 221 -93.5t73 -262.5z" />
    <glyph glyph-name="E" unicode="E" horiz-adv-x="448" 
d="M417 0h-354v708h342v-141h-189v-139h174v-132h-174v-153h201v-143z" />
    <glyph glyph-name="F" unicode="F" horiz-adv-x="432" 
d="M408 563h-184v-144h169v-137h-168v-282h-162v708h345v-145z" />
    <glyph glyph-name="G" unicode="G" horiz-adv-x="560" 
d="M513 419v-377q-75 -58 -195 -58q-132 0 -208 101.5t-76 268.5q0 166 75.5 269.5t198.5 103.5q132 0 197 -86l-87 -117q-36 50 -98 50q-63 0 -95.5 -62t-32.5 -158t31.5 -158.5t93.5 -62.5q37 0 56 15v132h-76v139h216z" />
    <glyph glyph-name="H" unicode="H" horiz-adv-x="609" 
d="M546 0h-159v296h-165v-296h-159v708h159v-269h165v269h159v-708z" />
    <glyph glyph-name="I" unicode="I" horiz-adv-x="287" 
d="M224 0h-161v708h161v-708z" />
    <glyph glyph-name="J" unicode="J" horiz-adv-x="445" 
d="M385 708v-485q0 -114 -51 -176.5t-154 -62.5q-74 0 -126 41.5t-68 111.5l130 58q15 -60 56 -60q31 0 42.5 25t11.5 77v471h159z" />
    <glyph glyph-name="K" unicode="K" horiz-adv-x="568" 
d="M563 0h-185l-151 329h-3v-329h-161v708h161v-295h3l146 295h179l-182 -324z" />
    <glyph glyph-name="L" unicode="L" horiz-adv-x="423" 
d="M414 0h-351v708h162v-560h189v-148z" />
    <glyph glyph-name="M" unicode="M" horiz-adv-x="771" 
d="M708 0h-157l6 486h-4l-119 -486h-113l-115 486h-3l5 -486h-145v708h202l114 -456h4l111 456h214v-708z" />
    <glyph glyph-name="N" unicode="N" horiz-adv-x="603" 
d="M540 0h-171l-164 431h-3l4 -431h-143v708h176l163 -437h3l-3 437h138v-708z" />
    <glyph glyph-name="O" unicode="O" horiz-adv-x="612" 
d="M414 356q0 96 -28 156t-80 60q-53 0 -80.5 -59.5t-27.5 -156.5t27.5 -157.5t80.5 -60.5q51 0 79.5 61t28.5 157zM578 356q0 -170 -73.5 -272.5t-198.5 -102.5t-198.5 102.5t-73.5 272.5t72.5 270.5t199.5 100.5q125 0 198.5 -101t73.5 -270z" />
    <glyph glyph-name="P" unicode="P" horiz-adv-x="522" 
d="M350 483q0 46 -22 68t-57 22h-51v-185h51q34 0 56.5 25.5t22.5 69.5zM500 486q0 -111 -62.5 -169.5t-148.5 -58.5h-69v-258h-157v708h220q41 0 77 -11.5t68.5 -36t52 -69t19.5 -105.5z" />
    <glyph glyph-name="Q" unicode="Q" horiz-adv-x="620" 
d="M415 358q0 94 -28.5 153t-79.5 59q-52 0 -80.5 -58.5t-28.5 -153.5q0 -94 28.5 -153.5t80.5 -59.5t80 60.5t28 152.5zM612 0h-311q-126 0 -196.5 95t-70.5 263t74 268.5t198 100.5q125 0 197.5 -99.5t72.5 -262.5q0 -71 -23 -136.5t-54 -90.5v-4l113 4v-138z" />
    <glyph glyph-name="R" unicode="R" horiz-adv-x="541" 
d="M349 486q0 49 -24 68.5t-58 19.5h-50v-179h47q37 0 61 23t24 68zM528 0h-169l-95 282h-47v-282h-154v708h227q104 0 160.5 -54t56.5 -159q0 -72 -30 -118.5t-70 -60.5z" />
    <glyph glyph-name="S" unicode="S" horiz-adv-x="461" 
d="M439 656l-83 -118q-38 44 -92 44q-30 0 -50 -18t-20 -55q0 -31 19.5 -49.5t67.5 -42.5q30 -15 51.5 -29.5t46.5 -38.5t38.5 -59t13.5 -79q0 -109 -63.5 -169.5t-156.5 -60.5q-60 0 -113 22.5t-88 57.5l82 120q51 -53 114 -53q30 0 49.5 19.5t19.5 52.5t-21.5 53.5
t-72.5 45.5q-68 33 -104.5 78.5t-36.5 125.5q0 109 65.5 166.5t152.5 57.5q115 0 181 -71z" />
    <glyph glyph-name="T" unicode="T" horiz-adv-x="415" 
d="M416 572h-130v-572h-157v572h-130v136h417v-136z" />
    <glyph glyph-name="U" unicode="U" horiz-adv-x="581" 
d="M530 708v-446q0 -126 -59.5 -203.5t-182.5 -77.5q-83 0 -137.5 38.5t-77 99.5t-22.5 143v446h161v-432q0 -141 79 -141t79 141v432h160z" />
    <glyph glyph-name="V" unicode="V" horiz-adv-x="546" 
d="M547 708l-174 -708h-203l-171 708h181l96 -518h2l95 518h174z" />
    <glyph glyph-name="W" unicode="W" horiz-adv-x="799" 
d="M791 708l-134 -708h-170l-87 475h-2l-86 -475h-170l-133 708h163l73 -493h4l77 493h155l80 -493h3l72 493h155z" />
    <glyph glyph-name="X" unicode="X" horiz-adv-x="540" 
d="M538 0h-173l-98 234l-97 -234h-167l174 371l-160 337h167l87 -215l88 215h164l-161 -336z" />
    <glyph glyph-name="Y" unicode="Y" horiz-adv-x="492" 
d="M504 708l-180 -453v-255h-157v255l-179 453h173l85 -293h2l86 293h170z" />
    <glyph glyph-name="Z" unicode="Z" horiz-adv-x="458" 
d="M424 0h-400v130l217 437h-199v141h382v-127l-216 -436h216v-145z" />
    <glyph glyph-name="bracketleft" unicode="[" horiz-adv-x="282" 
d="M232 -156h-196v888h196v-99h-78v-690h78v-99z" />
    <glyph glyph-name="backslash" unicode="\" horiz-adv-x="292" 
d="M5 739l83 19l195 -778l-84 -18z" />
    <glyph glyph-name="bracketright" unicode="]" horiz-adv-x="282" 
d="M245 -156h-195v99h78v690h-78v99h195v-888z" />
    <glyph glyph-name="asciicircum" unicode="^" horiz-adv-x="690" 
d="M616 343h-148l-124 213l-123 -213h-148l213 365h118z" />
    <glyph glyph-name="underscore" unicode="_" horiz-adv-x="500" 
d="M500 -164h-500v89h500v-89z" />
    <glyph glyph-name="grave" unicode="`" 
d="M0 723h130l90 -144h-108z" />
    <glyph glyph-name="a" unicode="a" horiz-adv-x="465" 
d="M281 65h-2q-22 -78 -116 -78q-54 0 -95.5 38.5t-41.5 120.5q0 98 64 140.5t159 42.5h20v8q0 72 -64 72q-54 0 -93 -46l-69 96q32 38 79 59t95 21q103 0 148 -60.5t45 -180.5v-298h-129v65zM274 199v29h-28q-87 0 -87 -71q0 -29 13 -44.5t33 -15.5q34 0 51.5 30.5
t17.5 71.5z" />
    <glyph glyph-name="b" unicode="b" horiz-adv-x="528" 
d="M210 262q0 -62 17.5 -102t49.5 -40q34 0 50.5 39.5t16.5 102.5q0 64 -16.5 103t-50.5 39q-32 0 -49.5 -40t-17.5 -102zM62 0v756h156v-286h3q9 30 37.5 49.5t66.5 19.5q82 0 127.5 -75t45.5 -195q0 -122 -46.5 -203.5t-126.5 -81.5q-81 0 -110 79h-2v-63h-151z" />
    <glyph glyph-name="c" unicode="c" horiz-adv-x="361" 
d="M302 161l63 -121q-45 -56 -130 -56q-97 0 -151 76.5t-54 201.5q0 124 55 200.5t152 76.5q80 0 126 -52l-63 -122q-19 30 -51 30q-30 0 -49 -35.5t-19 -97.5q0 -63 19 -97.5t52 -34.5q32 0 50 31z" />
    <glyph glyph-name="d" unicode="d" horiz-adv-x="528" 
d="M318 262q0 62 -17.5 102t-49.5 40q-34 0 -50.5 -39.5t-16.5 -102.5t17 -102.5t50 -39.5q32 0 49.5 40t17.5 102zM466 0h-151v63h-2q-28 -79 -110 -79q-80 0 -126.5 81.5t-46.5 203.5q0 120 45.5 195t127.5 75q38 0 67 -19.5t38 -49.5h3v286h155v-756z" />
    <glyph glyph-name="e" unicode="e" horiz-adv-x="473" 
d="M181 324h119q0 98 -56 98q-29 0 -46 -31.5t-17 -66.5zM444 222h-262q0 -45 20 -76t51 -31q45 0 67 57l115 -65q-57 -126 -188 -126q-96 0 -156.5 73.5t-60.5 205.5q0 128 59 205t154 77q103 0 152 -74.5t49 -201.5v-44z" />
    <glyph glyph-name="f" unicode="f" horiz-adv-x="299" 
d="M316 773l-8 -127q-17 5 -32 5q-56 0 -56 -85v-43h80v-122h-79v-401h-153v401h-62v122h62v44q0 95 42.5 154.5t139.5 59.5q36 0 66 -8z" />
    <glyph glyph-name="g" unicode="g" horiz-adv-x="527" 
d="M318 262q0 62 -17.5 102t-49.5 40q-34 0 -50.5 -39.5t-16.5 -102.5t17 -102.5t50 -39.5q32 0 49.5 40t17.5 102zM315 523h150v-486q0 -277 -234 -277q-53 0 -105.5 19t-87.5 49l73 116q53 -46 110 -46q47 0 69.5 32.5t22.5 86.5v43h-2q-12 -28 -41 -47.5t-66 -19.5
q-83 0 -128.5 75t-45.5 195q0 122 46.5 199t127.5 77q80 0 108 -78h3v62z" />
    <glyph glyph-name="h" unicode="h" horiz-adv-x="538" 
d="M217 308v-308h-157v756h157v-303h3q13 38 45.5 63.5t77.5 25.5q43 0 72 -17.5t43 -51t19.5 -69.5t5.5 -84v-320h-157v321q0 83 -48 83q-29 0 -45 -26t-16 -70z" />
    <glyph glyph-name="i" unicode="i" horiz-adv-x="276" 
d="M224 665q0 -39 -24 -65t-62 -26t-62 26t-24 65q0 38 24 65t62 27t62 -27t24 -65zM217 0h-158v523h158v-523z" />
    <glyph glyph-name="j" unicode="j" horiz-adv-x="277" 
d="M225 665q0 -39 -24 -65t-62 -26t-62 26t-24 65q0 38 24 65t62 27t62 -27t24 -65zM218 523v-558q0 -205 -175 -205q-40 0 -70 6l8 137q15 -5 28 -5q30 0 40 20t10 61v544h159z" />
    <glyph glyph-name="k" unicode="k" horiz-adv-x="500" 
d="M503 0h-181l-102 240h-2v-240h-156v756h156v-444h2l96 211h184l-132 -240z" />
    <glyph glyph-name="l" unicode="l" horiz-adv-x="284" 
d="M222 0h-160v756h160v-756z" />
    <glyph glyph-name="m" unicode="m" horiz-adv-x="796" 
d="M62 523h153v-74h2q10 40 43 66.5t81 26.5q95 0 122 -93h2q15 40 49 66.5t84 26.5q43 0 72.5 -17.5t44 -51t20 -69.5t5.5 -84v-320h-155v321q0 83 -48 83q-29 0 -44.5 -26t-15.5 -70v-308h-154v321q0 83 -47 83q-29 0 -44.5 -26t-15.5 -70v-308h-154v523z" />
    <glyph glyph-name="n" unicode="n" horiz-adv-x="540" 
d="M62 523h153v-74h2q13 40 47 66.5t81 26.5q43 0 71.5 -17.5t42.5 -51t19.5 -69.5t5.5 -84v-320h-157v321q0 83 -47 83q-29 0 -45 -26t-16 -70v-308h-157v523z" />
    <glyph glyph-name="o" unicode="o" horiz-adv-x="495" 
d="M315 262q0 63 -16.5 102.5t-50.5 39.5q-32 0 -49 -39.5t-17 -102.5t17 -102.5t49 -39.5q34 0 50.5 39.5t16.5 102.5zM465 261q0 -125 -58.5 -202.5t-158.5 -77.5t-159 78t-59 202q0 125 59 203t159 78t158.5 -78t58.5 -203z" />
    <glyph glyph-name="p" unicode="p" horiz-adv-x="528" 
d="M210 262q0 -62 17.5 -102t49.5 -40q34 0 50.5 39.5t16.5 102.5q0 64 -16.5 103t-50.5 39q-32 0 -49.5 -40t-17.5 -102zM62 523h151v-62h3q33 78 109 78q82 0 127.5 -76t45.5 -196q0 -123 -46 -203t-127 -80q-42 0 -69 20.5t-38 51.5h-2v-296h-154v763z" />
    <glyph glyph-name="q" unicode="q" horiz-adv-x="528" 
d="M318 262q0 62 -17.5 102t-49.5 40q-34 0 -50.5 -39.5t-16.5 -102.5t17 -102.5t50 -39.5q32 0 49.5 40t17.5 102zM466 523v-763h-154v296h-2q-11 -31 -38 -51.5t-69 -20.5q-81 0 -127 80t-46 203q0 120 45.5 196t127.5 76q76 0 109 -78h3v62h151z" />
    <glyph glyph-name="r" unicode="r" horiz-adv-x="344" 
d="M62 0v523h153v-88h1q29 104 105 104q16 0 25 -3l-10 -157q-18 5 -34 5q-37 0 -59.5 -37t-22.5 -88v-259h-158z" />
    <glyph glyph-name="s" unicode="s" horiz-adv-x="400" 
d="M383 475l-76 -99q-40 40 -85 40q-19 0 -32.5 -12.5t-13.5 -32.5q0 -19 13.5 -28.5t55.5 -22.5q128 -40 128 -158q0 -88 -55.5 -133t-125.5 -45q-109 0 -184 72l78 100q48 -50 99 -50q22 0 34.5 13t12.5 34q0 23 -17.5 35t-62.5 26q-52 18 -84.5 52t-32.5 100
q0 82 54 127.5t124 45.5q98 0 170 -64z" />
    <glyph glyph-name="t" unicode="t" horiz-adv-x="315" 
d="M305 127v-123q-32 -17 -85 -17q-78 0 -114.5 42t-36.5 128v244h-63v122h62v126h152v-126h90v-122h-90v-208q0 -73 50 -73q22 0 35 7z" />
    <glyph glyph-name="u" unicode="u" horiz-adv-x="540" 
d="M478 0h-153v74h-2q-13 -40 -47 -66.5t-81 -26.5q-43 0 -71.5 17.5t-42.5 51t-19.5 69.5t-5.5 84v320h157v-320q0 -83 47 -83q29 0 45 26t16 70v307h157v-523z" />
    <glyph glyph-name="v" unicode="v" horiz-adv-x="470" 
d="M467 523l-137 -523h-191l-136 523h165l70 -358h4l66 358h159z" />
    <glyph glyph-name="w" unicode="w" horiz-adv-x="692" 
d="M686 523l-118 -523h-159l-66 300h-2l-65 -300h-154l-116 523h160l51 -327h2l60 327h134l62 -327h2l51 327h158z" />
    <glyph glyph-name="x" unicode="x" horiz-adv-x="468" 
d="M-2 0l126 274l-116 249h167l59 -161l62 161h166l-120 -250l128 -273h-171l-65 166l-63 -166h-173z" />
    <glyph glyph-name="y" unicode="y" horiz-adv-x="476" 
d="M473 523l-148 -541q-14 -52 -28.5 -86t-38.5 -68t-60 -51t-85 -17q-40 0 -88 10l21 142q19 -8 42 -8q48 0 63 54l8 29l-156 536h165l75 -349h2l69 349h159z" />
    <glyph glyph-name="z" unicode="z" horiz-adv-x="399" 
d="M373 0h-346v129l175 262h-165v132h334v-124l-176 -267h178v-132z" />
    <glyph glyph-name="braceleft" unicode="{" horiz-adv-x="282" 
d="M235 -156h-64q-62 0 -91 43t-29 116v148q0 47 -12.5 64.5t-38.5 17.5v110q26 0 38.5 17.5t12.5 64.5v148q0 73 29 116t91 43h64v-99h-29q-44 0 -44 -72v-158q0 -54 -19.5 -81.5t-42.5 -32.5v-2q23 -5 42.5 -32.5t19.5 -81.5v-158q0 -72 44 -72h29v-99z" />
    <glyph glyph-name="bar" unicode="|" horiz-adv-x="241" 
d="M186 -250h-130l-1 1000h131v-1000z" />
    <glyph glyph-name="braceright" unicode="}" horiz-adv-x="282" 
d="M282 343v-110q-26 0 -38.5 -17.5t-12.5 -64.5v-148q0 -73 -29 -116t-91 -43h-65v99h30q44 0 44 72v158q0 54 19 81t43 33v2q-24 6 -43 33t-19 81v158q0 72 -44 72h-30v99h65q62 0 91 -43t29 -116v-148q0 -47 12.5 -64.5t38.5 -17.5z" />
    <glyph glyph-name="asciitilde" unicode="~" horiz-adv-x="666" 
d="M593 287v-2q-57 -100 -139 -100q-54 0 -112 38q-61 38 -107 38q-50 0 -84 -70l-66 104q51 99 137 99q58 0 120 -37q67 -40 99 -40q25 0 44.5 18.5t42.5 52.5z" />
    <glyph glyph-name="uni00A0" unicode="&#xa0;" horiz-adv-x="200" 
 />
    <glyph glyph-name="exclamdown" unicode="&#xa1;" horiz-adv-x="328" 
d="M249 455q0 -38 -24 -64.5t-61 -26.5q-36 0 -60 27t-24 64q0 39 23.5 64.5t60.5 25.5q38 0 61.5 -25.5t23.5 -64.5zM242 295v-467h-155v467h155z" />
    <glyph glyph-name="cent" unicode="&#xa2;" horiz-adv-x="525" 
d="M327 583v-53q65 -10 99 -49l-63 -120q-19 30 -51 30q-30 0 -49 -34t-19 -95q0 -60 19 -94t52 -34q32 0 50 31l63 -119q-36 -42 -101 -53v-56h-64v57q-81 13 -126 86q-44 71 -44 182q0 108 44.5 179.5t125.5 87.5v54h64z" />
    <glyph glyph-name="sterling" unicode="&#xa3;" horiz-adv-x="529" 
d="M284 426h113v-117h-113v-169h175v-140h-407v140h76v169h-73v117h73v63q0 58 19.5 110t69.5 90.5t124 38.5q93 0 148 -49l-73 -119q-19 21 -57 21q-75 0 -75 -106v-49z" />
    <glyph glyph-name="currency" unicode="&#xa4;" horiz-adv-x="525" 
d="M263 412q-35 0 -55 -35t-20 -88t20 -88.5t55 -35.5q37 0 57 35t20 89t-20 88.5t-57 34.5zM501 496l-66 -80q28 -55 28 -127q0 -79 -29 -132l66 -81l-66 -83l-68 83q-43 -32 -103 -32q-54 0 -103 34l-69 -85l-67 82l70 85q-29 55 -29 129q0 72 26 126l-66 81l66 80l67 -80
q53 36 105 36q57 0 106 -34l64 78z" />
    <glyph glyph-name="yen" unicode="&#xa5;" horiz-adv-x="529" 
d="M393 428h78v-105h-133v-76h133v-105h-133v-142h-157v142h-129v105h129v76h-129v105h81l-121 280h163l89 -267l88 267h160z" />
    <glyph glyph-name="brokenbar" unicode="&#xa6;" horiz-adv-x="241" 
d="M186 -175h-131v362h131v-362zM186 313h-131v362h131v-362z" />
    <glyph glyph-name="section" unicode="&#xa7;" horiz-adv-x="516" 
d="M212 111l-38 15q-65 26 -95 64t-30 104q0 48 23 82.5t54 51.5q-50 38 -50 113q0 77 56 131.5t143 54.5q124 0 185 -83l-92 -86q-31 45 -88 45q-28 0 -46 -14t-18 -44q0 -24 15.5 -36.5t61.5 -32.5q7 -3 11 -5l31 -14q67 -30 99.5 -70t32.5 -105q0 -46 -22 -79t-56 -48
q54 -38 54 -111q0 -51 -18.5 -90t-49.5 -60t-65.5 -31.5t-71.5 -10.5q-136 0 -207 83l84 101q50 -60 121 -60q27 0 46 14t19 41t-19 43.5t-70 36.5zM338 270q0 27 -17 42.5t-53 31.5l-53 24q-40 -15 -40 -56q0 -14 4.5 -25t16.5 -20t21 -13.5l28 -13.5l52 -24q41 10 41 54z
" />
    <glyph glyph-name="dieresis" unicode="&#xa8;" 
d="M303 666q0 -35 -21 -58.5t-53 -23.5q-33 0 -53.5 23t-20.5 59q0 34 21 58t53 24t53 -24t21 -58zM119 666q0 -35 -21 -58.5t-53 -23.5q-33 0 -53.5 23t-20.5 59q0 34 21 58t53 24t53 -24t21 -58z" />
    <glyph glyph-name="copyright" unicode="&#xa9;" horiz-adv-x="640" 
d="M320 686q-106 0 -169 -92.5t-63 -238.5t63 -238.5t169 -92.5t169 92.5t63 238.5t-63 238.5t-169 92.5zM320 -20q-128 0 -206 102t-78 273t78 273t206 102q126 0 205 -102.5t79 -272.5q0 -171 -78.5 -273t-205.5 -102zM387 266l58 -77q-41 -63 -110 -63q-75 0 -119.5 63
t-44.5 168t44 168.5t117 63.5q74 0 112 -59l-55 -79q-17 33 -50 33q-27 0 -44 -36t-17 -91t17 -90.5t44 -35.5q29 0 48 35z" />
    <glyph glyph-name="ordfeminine" unicode="&#xaa;" horiz-adv-x="320" 
d="M182 512v17h-15q-48 0 -48 -42q0 -15 7.5 -24t19.5 -9q36 0 36 58zM270 396h-77v35h-2q-15 -44 -71 -44q-34 0 -59.5 24t-25.5 71q0 59 36.5 85t93.5 26h16v7q0 22 -9 29.5t-28 7.5q-27 0 -55 -24l-42 64q44 44 107 44q116 0 116 -148v-177z" />
    <glyph glyph-name="guillemotleft" unicode="&#xab;" horiz-adv-x="416" 
d="M380 73l-80 -42l-109 231l109 231l80 -42l-88 -189zM225 73l-80 -42l-109 231l109 231l80 -42l-88 -189z" />
    <glyph glyph-name="logicalnot" unicode="&#xac;" horiz-adv-x="666" 
d="M606 145h-130v183h-425v123h555v-306z" />
    <glyph glyph-name="uni00AD" unicode="&#xad;" horiz-adv-x="248" 
d="M220 217h-192v119h192v-119z" />
    <glyph glyph-name="registered" unicode="&#xae;" horiz-adv-x="480" 
d="M240 698q-64 0 -101.5 -55.5t-37.5 -143.5t37.5 -143.5t101.5 -55.5t101.5 55.5t37.5 143.5t-37.5 143.5t-101.5 55.5zM240 274q-76 0 -123 61t-47 164t47 164t123 61t123 -61t47 -164t-47 -164t-123 -61zM346 371h-75l-33 93h-9v-93h-71v266h90q37 0 62 -20t25 -66
q0 -59 -33 -74zM229 518h16q9 0 15 9t6 23q0 23 -21 23h-16v-55z" />
    <glyph glyph-name="macron" unicode="&#xaf;" 
d="M284 613h-294v77h294v-77z" />
    <glyph glyph-name="degree" unicode="&#xb0;" horiz-adv-x="320" 
d="M219 560q0 44 -16 72.5t-43 28.5t-43 -28.5t-16 -72.5q0 -46 16 -75t43 -29t43 29t16 75zM288 560q0 -70 -35 -121t-93 -51t-93 51t-35 121q0 69 35 119t93 50t93 -50t35 -119z" />
    <glyph glyph-name="plusminus" unicode="&#xb1;" horiz-adv-x="666" 
d="M616 31h-555v127h555v-127zM616 331h-212v-132h-130v132h-213v127h213v132h130v-132h212v-127z" />
    <glyph glyph-name="twosuperior" unicode="&#xb2;" horiz-adv-x="325" 
d="M306 585q0 -38 -17.5 -68.5t-50.5 -67.5l-84 -93h147v-89h-268v93l136 154q35 38 35 70q0 44 -37 44q-39 0 -44 -56l-98 9q8 68 46 102.5t99 34.5q64 0 100 -35.5t36 -97.5z" />
    <glyph glyph-name="threesuperior" unicode="&#xb3;" horiz-adv-x="325" 
d="M306 397q0 -66 -39.5 -103t-101.5 -37q-58 0 -96.5 29t-51.5 86l93 23q13 -49 52 -49q22 0 34 15.5t12 38.5q0 56 -61 56h-24v78h27q51 0 51 54q0 18 -10 31t-30 13q-31 0 -43 -40l-90 23q15 54 53.5 80t85.5 26q54 0 92.5 -31.5t38.5 -88.5q0 -38 -17.5 -65t-45.5 -36
v-1q33 -10 52 -38t19 -64z" />
    <glyph glyph-name="acute" unicode="&#xb4;" 
d="M274 723l-112 -144h-108l90 144h130z" />
    <glyph glyph-name="mu" unicode="&#xb5;" horiz-adv-x="666" 
d="M89 498h162v-248q0 -29 4.5 -53.5t23 -47.5t49.5 -23q47 0 69 31t22 80v261h162v-498h-155v57h-1q-37 -64 -111 -64q-40 0 -63 20v-239h-162v724z" />
    <glyph glyph-name="paragraph" unicode="&#xb6;" horiz-adv-x="618" 
d="M555 -129h-116v737h-85v-737h-116v464q-98 2 -156 52t-58 131q0 190 244 190h287v-837z" />
    <glyph glyph-name="periodcentered" unicode="&#xb7;" horiz-adv-x="270" 
d="M220 269q0 -38 -24 -64t-61 -26q-38 0 -61.5 25.5t-23.5 64.5q0 38 24 64.5t61 26.5q36 0 60.5 -27t24.5 -64z" />
    <glyph glyph-name="cedilla" unicode="&#xb8;" 
d="M257 -139q0 -52 -42 -74.5t-94 -22.5q-65 0 -110 22l24 62q36 -17 77 -17q48 0 48 32q0 27 -42 27q-22 0 -44 -9l-31 28l65 91h84l-47 -61q5 2 23 2q36 0 62.5 -18.5t26.5 -61.5z" />
    <glyph glyph-name="onesuperior" unicode="&#xb9;" horiz-adv-x="325" 
d="M247 265h-106v320l-67 -49l-45 81l120 91h98v-443z" />
    <glyph glyph-name="ordmasculine" unicode="&#xba;" horiz-adv-x="320" 
d="M197 553q0 80 -37 80t-37 -80t37 -80t37 80zM290 552q0 -74 -35 -121t-95 -47t-95.5 47t-35.5 121q0 75 35 122t96 47q60 0 95 -46.5t35 -122.5z" />
    <glyph glyph-name="guillemotright" unicode="&#xbb;" horiz-adv-x="416" 
d="M36 73l88 189l-88 189l80 42l109 -231l-109 -231zM191 73l88 189l-88 189l80 42l109 -231l-109 -231z" />
    <glyph glyph-name="onequarter" unicode="&#xbc;" horiz-adv-x="750" 
d="M247 265h-106v320l-67 -49l-45 81l120 91h98v-443zM554 711l-271 -730l-78 24l270 732zM584 174v174h-1l-80 -174h81zM719 88h-44v-88h-93v88h-170v88l131 268h132v-270h44v-86z" />
    <glyph glyph-name="onehalf" unicode="&#xbd;" horiz-adv-x="750" 
d="M247 265h-106v320l-67 -49l-45 81l120 91h98v-443zM554 711l-271 -730l-78 24l270 732zM727 318q0 -38 -17.5 -68.5t-50.5 -67.5l-84 -93h147v-89h-268v93l136 154q35 38 35 70q0 44 -37 44q-39 0 -44 -56l-98 9q8 68 46 102.5t99 34.5q64 0 100 -35.5t36 -97.5z" />
    <glyph glyph-name="threequarters" unicode="&#xbe;" horiz-adv-x="750" 
d="M554 711l-271 -730l-78 24l270 732zM306 397q0 -66 -39.5 -103t-101.5 -37q-58 0 -96.5 29t-51.5 86l93 23q13 -49 52 -49q22 0 34 15.5t12 38.5q0 56 -61 56h-24v78h27q51 0 51 54q0 18 -10 31t-30 13q-31 0 -43 -40l-90 23q15 54 53.5 80t85.5 26q54 0 92.5 -31.5
t38.5 -88.5q0 -38 -17.5 -65t-45.5 -36v-1q33 -10 52 -38t19 -64zM584 174v174h-1l-80 -174h81zM719 88h-44v-88h-93v88h-170v88l131 268h132v-270h44v-86z" />
    <glyph glyph-name="questiondown" unicode="&#xbf;" horiz-adv-x="428" 
d="M122 455q0 39 23.5 64.5t61.5 25.5t61.5 -25.5t23.5 -64.5q0 -38 -24 -64.5t-61 -26.5t-61 26.5t-24 64.5zM148 270v28h132v-42q0 -49 -16.5 -82t-52.5 -71l-17 -18q-35 -37 -35 -69q0 -69 55 -69q54 0 66 80l131 -23q-11 -84 -63 -139.5t-143 -55.5q-89 0 -141 51.5
t-52 144.5q0 58 23 98t70 81q43 38 43 86z" />
    <glyph glyph-name="Agrave" unicode="&#xc0;" horiz-adv-x="543" 
d="M138 908h130l90 -144h-108zM328 253l-57 301h-4l-60 -301h121zM544 0h-167l-29 129h-159l-29 -129h-160l172 708h201z" />
    <glyph glyph-name="Aacute" unicode="&#xc1;" horiz-adv-x="543" 
d="M406 908l-112 -144h-108l90 144h130zM328 253l-57 301h-4l-60 -301h121zM544 0h-167l-29 129h-159l-29 -129h-160l172 708h201z" />
    <glyph glyph-name="Acircumflex" unicode="&#xc2;" horiz-adv-x="543" 
d="M446 764h-108l-67 85l-66 -85h-107l115 144h119zM328 253l-57 301h-4l-60 -301h121zM544 0h-167l-29 129h-159l-29 -129h-160l172 708h201z" />
    <glyph glyph-name="Atilde" unicode="&#xc3;" horiz-adv-x="543" 
d="M369 896h57q-2 -58 -26 -92t-63 -34q-33 0 -69 23q-35 22 -56 22q-28 0 -33 -44h-58q3 56 26.5 91t62.5 35q30 0 70 -24q38 -22 57 -22q15 0 22 10.5t10 34.5zM328 253l-57 301h-4l-60 -301h121zM544 0h-167l-29 129h-159l-29 -129h-160l172 708h201z" />
    <glyph glyph-name="Adieresis" unicode="&#xc4;" horiz-adv-x="543" 
d="M438 851q0 -35 -21 -58.5t-53 -23.5q-33 0 -53.5 23t-20.5 59q0 34 21 58t53 24t53 -24t21 -58zM254 851q0 -35 -21 -58.5t-53 -23.5q-33 0 -53.5 23t-20.5 59q0 34 21 58t53 24t53 -24t21 -58zM328 253l-57 301h-4l-60 -301h121zM544 0h-167l-29 129h-159l-29 -129h-160
l172 708h201z" />
    <glyph glyph-name="Aring" unicode="&#xc5;" horiz-adv-x="543" 
d="M323 855q0 28 -14.5 46.5t-39.5 18.5t-38.5 -18.5t-13.5 -46.5t13.5 -46.5t38.5 -18.5t39.5 18.5t14.5 46.5zM371 855q0 -48 -28.5 -78.5t-73.5 -30.5t-72.5 30.5t-27.5 78.5t27.5 78.5t72.5 30.5t73.5 -30.5t28.5 -78.5zM328 253l-57 301h-4l-60 -301h121zM544 0h-167
l-29 129h-159l-29 -129h-160l172 708h201z" />
    <glyph glyph-name="AE" unicode="&#xc6;" horiz-adv-x="720" 
d="M347 257v314h-5l-101 -314h106zM690 0h-343v131h-143l-43 -131h-164l246 708h436v-141h-185v-139h169v-132h-169v-153h196v-143z" />
    <glyph glyph-name="Ccedilla" unicode="&#xc7;" horiz-adv-x="512" 
d="M416 188l89 -111q-60 -86 -174 -95l-33 -43q5 2 23 2q36 0 62.5 -18.5t26.5 -61.5q0 -52 -42 -74.5t-94 -22.5q-65 0 -110 22l24 62q36 -17 77 -17q48 0 48 32q0 27 -42 27q-22 0 -44 -9l-31 28l56 79q-99 24 -158.5 123t-59.5 243q0 167 76 270t199 103q127 0 195 -89
l-86 -116q-39 52 -97 52q-61 0 -94.5 -61.5t-33.5 -158.5q0 -96 33.5 -158t95.5 -62q59 0 94 54z" />
    <glyph glyph-name="Egrave" unicode="&#xc8;" horiz-adv-x="448" 
d="M76 908h130l90 -144h-108zM417 0h-354v708h342v-141h-189v-139h174v-132h-174v-153h201v-143z" />
    <glyph glyph-name="Eacute" unicode="&#xc9;" horiz-adv-x="448" 
d="M384 908l-112 -144h-108l90 144h130zM417 0h-354v708h342v-141h-189v-139h174v-132h-174v-153h201v-143z" />
    <glyph glyph-name="Ecircumflex" unicode="&#xca;" horiz-adv-x="448" 
d="M409 764h-108l-67 85l-66 -85h-107l115 144h119zM417 0h-354v708h342v-141h-189v-139h174v-132h-174v-153h201v-143z" />
    <glyph glyph-name="Edieresis" unicode="&#xcb;" horiz-adv-x="448" 
d="M401 851q0 -35 -21 -58.5t-53 -23.5q-33 0 -53.5 23t-20.5 59q0 34 21 58t53 24t53 -24t21 -58zM217 851q0 -35 -21 -58.5t-53 -23.5q-33 0 -53.5 23t-20.5 59q0 34 21 58t53 24t53 -24t21 -58zM417 0h-354v708h342v-141h-189v-139h174v-132h-174v-153h201v-143z" />
    <glyph glyph-name="Igrave" unicode="&#xcc;" horiz-adv-x="287" 
d="M3 908h130l90 -144h-108zM224 0h-161v708h161v-708z" />
    <glyph glyph-name="Iacute" unicode="&#xcd;" horiz-adv-x="287" 
d="M285 908l-112 -144h-108l90 144h130zM224 0h-161v708h161v-708z" />
    <glyph glyph-name="Icircumflex" unicode="&#xce;" horiz-adv-x="287" 
d="M318 764h-108l-67 85l-66 -85h-107l115 144h119zM224 0h-161v708h161v-708z" />
    <glyph glyph-name="Idieresis" unicode="&#xcf;" horiz-adv-x="287" 
d="M309 851q0 -35 -21 -58.5t-53 -23.5q-33 0 -53.5 23t-20.5 59q0 34 21 58t53 24t53 -24t21 -58zM125 851q0 -35 -21 -58.5t-53 -23.5q-33 0 -53.5 23t-20.5 59q0 34 21 58t53 24t53 -24t21 -58zM224 0h-161v708h161v-708z" />
    <glyph glyph-name="Eth" unicode="&#xd0;" horiz-adv-x="595" 
d="M225 413h95v-105h-95v-168h39q59 0 95 55.5t36 156.5q0 104 -35.5 160t-95.5 56h-39v-155zM63 308h-49v105h49v295h199q148 0 221 -93.5t73 -262.5q0 -165 -73 -258.5t-221 -93.5h-199v308z" />
    <glyph glyph-name="Ntilde" unicode="&#xd1;" horiz-adv-x="603" 
d="M401 896h57q-2 -58 -26 -92t-63 -34q-33 0 -69 23q-35 22 -56 22q-28 0 -33 -44h-58q3 56 26.5 91t62.5 35q30 0 70 -24q38 -22 57 -22q15 0 22 10.5t10 34.5zM540 0h-171l-164 431h-3l4 -431h-143v708h176l163 -437h3l-3 437h138v-708z" />
    <glyph glyph-name="Ograve" unicode="&#xd2;" horiz-adv-x="612" 
d="M151 908h130l90 -144h-108zM414 356q0 96 -28 156t-80 60q-53 0 -80.5 -59.5t-27.5 -156.5t27.5 -157.5t80.5 -60.5q51 0 79.5 61t28.5 157zM578 356q0 -170 -73.5 -272.5t-198.5 -102.5t-198.5 102.5t-73.5 272.5t72.5 270.5t199.5 100.5q125 0 198.5 -101t73.5 -270z
" />
    <glyph glyph-name="Oacute" unicode="&#xd3;" horiz-adv-x="612" 
d="M451 908l-112 -144h-108l90 144h130zM414 356q0 96 -28 156t-80 60q-53 0 -80.5 -59.5t-27.5 -156.5t27.5 -157.5t80.5 -60.5q51 0 79.5 61t28.5 157zM578 356q0 -170 -73.5 -272.5t-198.5 -102.5t-198.5 102.5t-73.5 272.5t72.5 270.5t199.5 100.5q125 0 198.5 -101
t73.5 -270z" />
    <glyph glyph-name="Ocircumflex" unicode="&#xd4;" horiz-adv-x="612" 
d="M480 764h-108l-67 85l-66 -85h-107l115 144h119zM414 356q0 96 -28 156t-80 60q-53 0 -80.5 -59.5t-27.5 -156.5t27.5 -157.5t80.5 -60.5q51 0 79.5 61t28.5 157zM578 356q0 -170 -73.5 -272.5t-198.5 -102.5t-198.5 102.5t-73.5 272.5t72.5 270.5t199.5 100.5
q125 0 198.5 -101t73.5 -270z" />
    <glyph glyph-name="Otilde" unicode="&#xd5;" horiz-adv-x="612" 
d="M402 896h57q-2 -58 -26 -92t-63 -34q-33 0 -69 23q-35 22 -56 22q-28 0 -33 -44h-58q3 56 26.5 91t62.5 35q29 0 70 -24q38 -22 57 -22q15 0 22 10.5t10 34.5zM414 356q0 96 -28 156t-80 60q-53 0 -80.5 -59.5t-27.5 -156.5t27.5 -157.5t80.5 -60.5q51 0 79.5 61
t28.5 157zM578 356q0 -170 -73.5 -272.5t-198.5 -102.5t-198.5 102.5t-73.5 272.5t72.5 270.5t199.5 100.5q125 0 198.5 -101t73.5 -270z" />
    <glyph glyph-name="Odieresis" unicode="&#xd6;" horiz-adv-x="612" 
d="M472 851q0 -35 -21 -58.5t-53 -23.5q-33 0 -53.5 23t-20.5 59q0 34 21 58t53 24t53 -24t21 -58zM288 851q0 -35 -21 -58.5t-53 -23.5q-33 0 -53.5 23t-20.5 59q0 34 21 58t53 24t53 -24t21 -58zM414 356q0 96 -28 156t-80 60q-53 0 -80.5 -59.5t-27.5 -156.5t27.5 -157.5
t80.5 -60.5q51 0 79.5 61t28.5 157zM578 356q0 -170 -73.5 -272.5t-198.5 -102.5t-198.5 102.5t-73.5 272.5t72.5 270.5t199.5 100.5q125 0 198.5 -101t73.5 -270z" />
    <glyph glyph-name="multiply" unicode="&#xd7;" horiz-adv-x="666" 
d="M604 130l-94 -93l-177 173l-176 -173l-93 89l177 175l-178 174l94 91l177 -173l174 172l91 -87l-174 -173z" />
    <glyph glyph-name="Oslash" unicode="&#xd8;" horiz-adv-x="615" 
d="M192 356q0 -67 11 -112l159 315q-24 24 -56 24q-56 0 -85 -63t-29 -164zM420 356q0 64 -13 115l-162 -317q27 -27 61 -27q55 0 84.5 64t29.5 165zM578 356q0 -170 -73.5 -272.5t-198.5 -102.5q-74 0 -136 40l-32 -69l-78 36l48 94q-74 103 -74 274q0 170 72.5 270.5
t199.5 100.5q70 0 132 -38l34 72l77 -35l-48 -95q77 -102 77 -275z" />
    <glyph glyph-name="Ugrave" unicode="&#xd9;" horiz-adv-x="581" 
d="M148 908h130l90 -144h-108zM530 708v-446q0 -126 -59.5 -203.5t-182.5 -77.5q-83 0 -137.5 38.5t-77 99.5t-22.5 143v446h161v-432q0 -141 79 -141t79 141v432h160z" />
    <glyph glyph-name="Uacute" unicode="&#xda;" horiz-adv-x="581" 
d="M443 908l-112 -144h-108l90 144h130zM530 708v-446q0 -126 -59.5 -203.5t-182.5 -77.5q-83 0 -137.5 38.5t-77 99.5t-22.5 143v446h161v-432q0 -141 79 -141t79 141v432h160z" />
    <glyph glyph-name="Ucircumflex" unicode="&#xdb;" horiz-adv-x="581" 
d="M466 764h-108l-67 85l-66 -85h-107l115 144h119zM530 708v-446q0 -126 -59.5 -203.5t-182.5 -77.5q-83 0 -137.5 38.5t-77 99.5t-22.5 143v446h161v-432q0 -141 79 -141t79 141v432h160z" />
    <glyph glyph-name="Udieresis" unicode="&#xdc;" horiz-adv-x="581" 
d="M458 851q0 -35 -21 -58.5t-53 -23.5q-33 0 -53.5 23t-20.5 59q0 34 21 58t53 24t53 -24t21 -58zM274 851q0 -35 -21 -58.5t-53 -23.5q-33 0 -53.5 23t-20.5 59q0 34 21 58t53 24t53 -24t21 -58zM530 708v-446q0 -126 -59.5 -203.5t-182.5 -77.5q-83 0 -137.5 38.5
t-77 99.5t-22.5 143v446h161v-432q0 -141 79 -141t79 141v432h160z" />
    <glyph glyph-name="Yacute" unicode="&#xdd;" horiz-adv-x="492" 
d="M399 908l-112 -144h-108l90 144h130zM504 708l-180 -453v-255h-157v255l-179 453h173l85 -293h2l86 293h170z" />
    <glyph glyph-name="Thorn" unicode="&#xde;" horiz-adv-x="544" 
d="M360 368q0 87 -93 87h-47v-178h44q96 0 96 91zM513 369q0 -116 -64 -169.5t-166 -53.5h-63v-146h-157v708h157v-121h66q227 0 227 -218z" />
    <glyph glyph-name="germandbls" unicode="&#xdf;" horiz-adv-x="528" 
d="M379 416v-1q55 -13 91 -63.5t36 -131.5q0 -103 -47.5 -166.5t-149.5 -63.5q-23 0 -63 8v125q14 -5 32 -5q82 0 82 111q0 56 -25.5 86t-66.5 30h-18v125h17q31 0 50.5 24t19.5 65q0 35 -15 57.5t-45 22.5q-66 0 -66 -128v-511h-152v507q0 119 53 190t167 71
q95 0 146 -54.5t51 -142.5q0 -59 -28 -100.5t-69 -54.5z" />
    <glyph glyph-name="agrave" unicode="&#xe0;" horiz-adv-x="465" 
d="M90 723h130l90 -144h-108zM281 65h-2q-22 -78 -116 -78q-54 0 -95.5 38.5t-41.5 120.5q0 98 64 140.5t159 42.5h20v8q0 72 -64 72q-54 0 -93 -46l-69 96q32 38 79 59t95 21q103 0 148 -60.5t45 -180.5v-298h-129v65zM274 199v29h-28q-87 0 -87 -71q0 -29 13 -44.5
t33 -15.5q34 0 51.5 30.5t17.5 71.5z" />
    <glyph glyph-name="aacute" unicode="&#xe1;" horiz-adv-x="465" 
d="M382 722l-112 -144h-108l90 144h130zM281 65h-2q-22 -78 -116 -78q-54 0 -95.5 38.5t-41.5 120.5q0 98 64 140.5t159 42.5h20v8q0 72 -64 72q-54 0 -93 -46l-69 96q32 38 79 59t95 21q103 0 148 -60.5t45 -180.5v-298h-129v65zM274 199v29h-28q-87 0 -87 -71
q0 -29 13 -44.5t33 -15.5q34 0 51.5 30.5t17.5 71.5z" />
    <glyph glyph-name="acircumflex" unicode="&#xe2;" horiz-adv-x="465" 
d="M400 579h-108l-67 85l-66 -85h-107l115 144h119zM281 65h-2q-22 -78 -116 -78q-54 0 -95.5 38.5t-41.5 120.5q0 98 64 140.5t159 42.5h20v8q0 72 -64 72q-54 0 -93 -46l-69 96q32 38 79 59t95 21q103 0 148 -60.5t45 -180.5v-298h-129v65zM274 199v29h-28q-87 0 -87 -71
q0 -29 13 -44.5t33 -15.5q34 0 51.5 30.5t17.5 71.5z" />
    <glyph glyph-name="atilde" unicode="&#xe3;" horiz-adv-x="465" 
d="M323 711h57q-2 -58 -26 -92t-63 -34q-33 0 -69 23q-35 22 -56 22q-28 0 -33 -44h-58q3 55 26 90q23 36 63 36q30 0 70 -24q38 -22 57 -22q15 0 22 10.5t10 34.5zM281 65h-2q-22 -78 -116 -78q-54 0 -95.5 38.5t-41.5 120.5q0 98 64 140.5t159 42.5h20v8q0 72 -64 72
q-54 0 -93 -46l-69 96q32 38 79 59t95 21q103 0 148 -60.5t45 -180.5v-298h-129v65zM274 199v29h-28q-87 0 -87 -71q0 -29 13 -44.5t33 -15.5q34 0 51.5 30.5t17.5 71.5z" />
    <glyph glyph-name="adieresis" unicode="&#xe4;" horiz-adv-x="465" 
d="M392 666q0 -35 -21 -58.5t-53 -23.5q-33 0 -53.5 23t-20.5 59q0 34 21 58t53 24t53 -24t21 -58zM208 666q0 -35 -21 -58.5t-53 -23.5q-33 0 -53.5 23t-20.5 59q0 34 21 58t53 24t53 -24t21 -58zM281 65h-2q-22 -78 -116 -78q-54 0 -95.5 38.5t-41.5 120.5q0 98 64 140.5
t159 42.5h20v8q0 72 -64 72q-54 0 -93 -46l-69 96q32 38 79 59t95 21q103 0 148 -60.5t45 -180.5v-298h-129v65zM274 199v29h-28q-87 0 -87 -71q0 -29 13 -44.5t33 -15.5q34 0 51.5 30.5t17.5 71.5z" />
    <glyph glyph-name="aring" unicode="&#xe5;" horiz-adv-x="465" 
d="M279 670q0 28 -14.5 46.5t-39.5 18.5t-38.5 -18.5t-13.5 -46.5t13.5 -46.5t38.5 -18.5t39.5 18.5t14.5 46.5zM327 670q0 -48 -28.5 -78.5t-73.5 -30.5t-72.5 30.5t-27.5 78.5t27.5 78.5t72.5 30.5t73.5 -30.5t28.5 -78.5zM281 65h-2q-22 -78 -116 -78q-54 0 -95.5 38.5
t-41.5 120.5q0 98 64 140.5t159 42.5h20v8q0 72 -64 72q-54 0 -93 -46l-69 96q32 38 79 59t95 21q103 0 148 -60.5t45 -180.5v-298h-129v65zM274 199v29h-28q-87 0 -87 -71q0 -29 13 -44.5t33 -15.5q34 0 51.5 30.5t17.5 71.5z" />
    <glyph glyph-name="ae" unicode="&#xe6;" horiz-adv-x="702" 
d="M410 324h119q0 98 -56 98q-29 0 -46 -31.5t-17 -66.5zM274 199v23h-28q-41 0 -64 -13.5t-23 -51.5q0 -29 13 -44.5t33 -15.5q35 0 52 29t17 73zM217 542q98 0 133 -72q44 72 132 72q96 0 143.5 -78t47.5 -198v-44h-262q0 -45 20 -76t51 -31q45 0 67 57l115 -65
q-57 -126 -185 -126q-46 0 -84 22t-56 60q-16 -37 -54 -59.5t-96 -22.5q-72 0 -117.5 39t-45.5 124q0 51 19 88t52 56t70.5 27.5t81.5 8.5h20v16q0 72 -64 72q-54 0 -93 -46l-69 96q32 38 79 59t95 21z" />
    <glyph glyph-name="ccedilla" unicode="&#xe7;" horiz-adv-x="361" 
d="M302 161l63 -121q-33 -39 -88 -51l-38 -50q5 2 23 2q36 0 62.5 -18.5t26.5 -61.5q0 -52 -42 -74.5t-94 -22.5q-65 0 -110 22l24 62q36 -17 77 -17q48 0 48 32q0 27 -42 27q-22 0 -44 -9l-31 28l56 80q-78 16 -120.5 89t-42.5 184q0 124 55 200.5t152 76.5q80 0 126 -52
l-63 -122q-19 30 -51 30q-30 0 -49 -35.5t-19 -97.5q0 -63 19 -97.5t52 -34.5q32 0 50 31z" />
    <glyph glyph-name="egrave" unicode="&#xe8;" horiz-adv-x="473" 
d="M91 723h130l90 -144h-108zM181 324h119q0 98 -56 98q-29 0 -46 -31.5t-17 -66.5zM444 222h-262q0 -45 20 -76t51 -31q45 0 67 57l115 -65q-57 -126 -188 -126q-96 0 -156.5 73.5t-60.5 205.5q0 128 59 205t154 77q103 0 152 -74.5t49 -201.5v-44z" />
    <glyph glyph-name="eacute" unicode="&#xe9;" horiz-adv-x="473" 
d="M396 723l-112 -144h-108l90 144h130zM181 324h119q0 98 -56 98q-29 0 -46 -31.5t-17 -66.5zM444 222h-262q0 -45 20 -76t51 -31q45 0 67 57l115 -65q-57 -126 -188 -126q-96 0 -156.5 73.5t-60.5 205.5q0 128 59 205t154 77q103 0 152 -74.5t49 -201.5v-44z" />
    <glyph glyph-name="ecircumflex" unicode="&#xea;" horiz-adv-x="473" 
d="M430 579h-108l-67 85l-66 -85h-107l115 144h119zM181 324h119q0 98 -56 98q-29 0 -46 -31.5t-17 -66.5zM444 222h-262q0 -45 20 -76t51 -31q45 0 67 57l115 -65q-57 -126 -188 -126q-96 0 -156.5 73.5t-60.5 205.5q0 128 59 205t154 77q103 0 152 -74.5t49 -201.5v-44z
" />
    <glyph glyph-name="edieresis" unicode="&#xeb;" horiz-adv-x="473" 
d="M416 666q0 -35 -21 -58.5t-53 -23.5q-33 0 -53.5 23t-20.5 59q0 34 21 58t53 24t53 -24t21 -58zM232 666q0 -35 -21 -58.5t-53 -23.5q-33 0 -53.5 23t-20.5 59q0 34 21 58t53 24t53 -24t21 -58zM181 324h119q0 98 -56 98q-29 0 -46 -31.5t-17 -66.5zM444 222h-262
q0 -45 20 -76t51 -31q45 0 67 57l115 -65q-57 -126 -188 -126q-96 0 -156.5 73.5t-60.5 205.5q0 128 59 205t154 77q103 0 152 -74.5t49 -201.5v-44z" />
    <glyph glyph-name="igrave" unicode="&#xec;" horiz-adv-x="276" 
d="M-6 723h130l90 -144h-108zM216 0h-156v523h156v-523z" />
    <glyph glyph-name="iacute" unicode="&#xed;" horiz-adv-x="276" 
d="M282 723l-112 -144h-108l90 144h130zM216 0h-156v523h156v-523z" />
    <glyph glyph-name="icircumflex" unicode="&#xee;" horiz-adv-x="276" 
d="M313 579h-108l-67 85l-66 -85h-107l115 144h119zM216 0h-156v523h156v-523z" />
    <glyph glyph-name="idieresis" unicode="&#xef;" horiz-adv-x="276" 
d="M306 666q0 -35 -21 -58.5t-53 -23.5q-33 0 -53.5 23t-20.5 59q0 34 21 58t53 24t53 -24t21 -58zM122 666q0 -35 -21 -58.5t-53 -23.5q-33 0 -53.5 23t-20.5 59q0 34 21 58t53 24t53 -24t21 -58zM216 0h-156v523h156v-523z" />
    <glyph glyph-name="eth" unicode="&#xf0;" horiz-adv-x="489" 
d="M315 261q0 61 -18.5 100t-52.5 39t-51.5 -38.5t-17.5 -100.5q0 -61 17.5 -100t51.5 -39t52.5 39.5t18.5 99.5zM458 259q0 -127 -60 -202.5t-154 -75.5q-96 0 -155 76t-59 204q0 116 56.5 189t144.5 73q23 0 42 -12l3 1q-26 54 -65 96l-100 -49l-63 67l103 48
q-15 16 -77 62l126 57q60 -52 75 -69l90 43l69 -66l-106 -48q130 -169 130 -394z" />
    <glyph glyph-name="ntilde" unicode="&#xf1;" horiz-adv-x="540" 
d="M366 703h57q-2 -58 -26 -92t-63 -34q-33 0 -69 23q-35 22 -56 22q-28 0 -33 -44h-58q3 56 26.5 91t62.5 35q29 0 70 -24q38 -22 57 -22q15 0 22 10.5t10 34.5zM62 523h153v-74h2q13 40 47 66.5t81 26.5q43 0 71.5 -17.5t42.5 -51t19.5 -69.5t5.5 -84v-320h-157v321
q0 83 -47 83q-29 0 -45 -26t-16 -70v-308h-157v523z" />
    <glyph glyph-name="ograve" unicode="&#xf2;" horiz-adv-x="495" 
d="M102 723h130l90 -144h-108zM315 262q0 63 -16.5 102.5t-50.5 39.5q-32 0 -49 -39.5t-17 -102.5t17 -102.5t49 -39.5q34 0 50.5 39.5t16.5 102.5zM465 261q0 -125 -58.5 -202.5t-158.5 -77.5t-159 78t-59 202q0 125 59 203t159 78t158.5 -78t58.5 -203z" />
    <glyph glyph-name="oacute" unicode="&#xf3;" horiz-adv-x="495" 
d="M396 723l-112 -144h-108l90 144h130zM315 262q0 63 -16.5 102.5t-50.5 39.5q-32 0 -49 -39.5t-17 -102.5t17 -102.5t49 -39.5q34 0 50.5 39.5t16.5 102.5zM465 261q0 -125 -58.5 -202.5t-158.5 -77.5t-159 78t-59 202q0 125 59 203t159 78t158.5 -78t58.5 -203z" />
    <glyph glyph-name="ocircumflex" unicode="&#xf4;" horiz-adv-x="495" 
d="M422 579h-108l-67 85l-66 -85h-107l115 144h119zM315 262q0 63 -16.5 102.5t-50.5 39.5q-32 0 -49 -39.5t-17 -102.5t17 -102.5t49 -39.5q34 0 50.5 39.5t16.5 102.5zM465 261q0 -125 -58.5 -202.5t-158.5 -77.5t-159 78t-59 202q0 125 59 203t159 78t158.5 -78
t58.5 -203z" />
    <glyph glyph-name="otilde" unicode="&#xf5;" horiz-adv-x="495" 
d="M344 711h57q-2 -58 -26 -92t-63 -34q-33 0 -69 23q-35 22 -56 22q-28 0 -33 -44h-58q3 55 26 90q22 36 63 36q29 0 70 -24q38 -22 57 -22q15 0 22 10.5t10 34.5zM315 262q0 63 -16.5 102.5t-50.5 39.5q-32 0 -49 -39.5t-17 -102.5t17 -102.5t49 -39.5q34 0 50.5 39.5
t16.5 102.5zM465 261q0 -125 -58.5 -202.5t-158.5 -77.5t-159 78t-59 202q0 125 59 203t159 78t158.5 -78t58.5 -203z" />
    <glyph glyph-name="odieresis" unicode="&#xf6;" horiz-adv-x="495" 
d="M414 666q0 -35 -21 -58.5t-53 -23.5q-33 0 -53.5 23t-20.5 59q0 34 21 58t53 24t53 -24t21 -58zM230 666q0 -35 -21 -58.5t-53 -23.5q-33 0 -53.5 23t-20.5 59q0 34 21 58t53 24t53 -24t21 -58zM315 262q0 63 -16.5 102.5t-50.5 39.5q-32 0 -49 -39.5t-17 -102.5
t17 -102.5t49 -39.5q34 0 50.5 39.5t16.5 102.5zM465 261q0 -125 -58.5 -202.5t-158.5 -77.5t-159 78t-59 202q0 125 59 203t159 78t158.5 -78t58.5 -203z" />
    <glyph glyph-name="divide" unicode="&#xf7;" horiz-adv-x="666" 
d="M586 240h-507v127h507v-127zM246 117q0 34 26 59t61 25t60.5 -25t25.5 -59t-25.5 -59.5t-60.5 -25.5t-61 25.5t-26 59.5zM246 489q0 34 26 59t61 25t60.5 -25t25.5 -59q0 -36 -25 -60.5t-61 -24.5t-61.5 24.5t-25.5 60.5z" />
    <glyph glyph-name="oslash" unicode="&#xf8;" horiz-adv-x="495" 
d="M172 262q0 -35 4 -60l105 209q-14 11 -33 11q-38 0 -57 -44.5t-19 -115.5zM326 262q0 38 -6 71l-110 -216q15 -15 38 -15q39 0 58.5 44.5t19.5 115.5zM437 545l-37 -73q65 -77 65 -211q0 -125 -58.5 -202.5t-158.5 -77.5q-57 0 -101 26l-26 -57l-67 32l37 74
q-61 80 -61 205t59 203t159 78q54 0 95 -23l28 57z" />
    <glyph glyph-name="ugrave" unicode="&#xf9;" horiz-adv-x="540" 
d="M124 723h130l90 -144h-108zM478 0h-153v74h-2q-13 -40 -47 -66.5t-81 -26.5q-43 0 -71.5 17.5t-42.5 51t-19.5 69.5t-5.5 84v320h157v-320q0 -83 47 -83q29 0 45 26t16 70v307h157v-523z" />
    <glyph glyph-name="uacute" unicode="&#xfa;" horiz-adv-x="540" 
d="M416 723l-112 -144h-108l90 144h130zM478 0h-153v74h-2q-13 -40 -47 -66.5t-81 -26.5q-43 0 -71.5 17.5t-42.5 51t-19.5 69.5t-5.5 84v320h157v-320q0 -83 47 -83q29 0 45 26t16 70v307h157v-523z" />
    <glyph glyph-name="ucircumflex" unicode="&#xfb;" horiz-adv-x="540" 
d="M442 579h-108l-67 85l-66 -85h-107l115 144h119zM478 0h-153v74h-2q-13 -40 -47 -66.5t-81 -26.5q-43 0 -71.5 17.5t-42.5 51t-19.5 69.5t-5.5 84v320h157v-320q0 -83 47 -83q29 0 45 26t16 70v307h157v-523z" />
    <glyph glyph-name="udieresis" unicode="&#xfc;" horiz-adv-x="540" 
d="M434 666q0 -35 -21 -58.5t-53 -23.5q-33 0 -53.5 23t-20.5 59q0 34 21 58t53 24t53 -24t21 -58zM250 666q0 -35 -21 -58.5t-53 -23.5q-33 0 -53.5 23t-20.5 59q0 34 21 58t53 24t53 -24t21 -58zM478 0h-153v74h-2q-13 -40 -47 -66.5t-81 -26.5q-43 0 -71.5 17.5t-42.5 51
t-19.5 69.5t-5.5 84v320h157v-320q0 -83 47 -83q29 0 45 26t16 70v307h157v-523z" />
    <glyph glyph-name="yacute" unicode="&#xfd;" horiz-adv-x="476" 
d="M391 723l-112 -144h-108l90 144h130zM473 523l-148 -541q-14 -52 -28.5 -86t-38.5 -68t-60 -51t-85 -17q-40 0 -88 10l21 142q19 -8 42 -8q48 0 63 54l8 29l-156 536h165l75 -349h2l69 349h159z" />
    <glyph glyph-name="thorn" unicode="&#xfe;" horiz-adv-x="528" 
d="M210 262q0 -62 17.5 -102t49.5 -40q34 0 50.5 39.5t16.5 102.5q0 64 -16.5 103t-50.5 39q-32 0 -49.5 -40t-17.5 -102zM62 762h151v-301h3q33 78 109 78q82 0 127.5 -76t45.5 -196q0 -123 -46 -203t-127 -80q-42 0 -69 20.5t-38 51.5h-2v-296h-154v1002z" />
    <glyph glyph-name="ydieresis" unicode="&#xff;" horiz-adv-x="476" 
d="M410 666q0 -35 -21 -58.5t-53 -23.5q-33 0 -53.5 23t-20.5 59q0 34 21 58t53 24t53 -24t21 -58zM226 666q0 -35 -21 -58.5t-53 -23.5q-33 0 -53.5 23t-20.5 59q0 34 21 58t53 24t53 -24t21 -58zM473 523l-148 -541q-14 -52 -28.5 -86t-38.5 -68t-60 -51t-85 -17
q-40 0 -88 10l21 142q19 -8 42 -8q48 0 63 54l8 29l-156 536h165l75 -349h2l69 349h159z" />
    <glyph glyph-name="Amacron" unicode="&#x100;" horiz-adv-x="543" 
d="M415 798h-294v77h294v-77zM328 253l-57 301h-4l-60 -301h121zM544 0h-167l-29 129h-159l-29 -129h-160l172 708h201z" />
    <glyph glyph-name="amacron" unicode="&#x101;" horiz-adv-x="465" 
d="M373 613h-294v77h294v-77zM281 65h-2q-22 -78 -116 -78q-54 0 -95.5 38.5t-41.5 120.5q0 98 64 140.5t159 42.5h20v8q0 72 -64 72q-54 0 -93 -46l-69 96q32 38 79 59t95 21q103 0 148 -60.5t45 -180.5v-298h-129v65zM274 199v29h-28q-87 0 -87 -71q0 -29 13 -44.5
t33 -15.5q34 0 51.5 30.5t17.5 71.5z" />
    <glyph glyph-name="Abreve" unicode="&#x102;" horiz-adv-x="543" 
d="M339 905h78q-11 -139 -150 -139q-61 0 -101.5 33t-46.5 106h78q7 -56 70 -56t72 56zM328 253l-57 301h-4l-60 -301h121zM544 0h-167l-29 129h-159l-29 -129h-160l172 708h201z" />
    <glyph glyph-name="abreve" unicode="&#x103;" horiz-adv-x="465" 
d="M303 720h78q-11 -139 -150 -139q-61 0 -101.5 33t-46.5 106h78q7 -56 70 -56t72 56zM281 65h-2q-22 -78 -116 -78q-54 0 -95.5 38.5t-41.5 120.5q0 98 64 140.5t159 42.5h20v8q0 72 -64 72q-54 0 -93 -46l-69 96q32 38 79 59t95 21q103 0 148 -60.5t45 -180.5v-298h-129
v65zM274 199v29h-28q-87 0 -87 -71q0 -29 13 -44.5t33 -15.5q34 0 51.5 30.5t17.5 71.5z" />
    <glyph glyph-name="Aogonek" unicode="&#x104;" horiz-adv-x="543" 
d="M328 253l-57 301h-4l-60 -301h121zM465 -130l31 -66q-50 -40 -111 -40q-42 0 -73 22t-31 69q0 66 100 145h-4l-29 129h-159l-29 -129h-160l172 708h201l171 -708h-66q-53 -45 -74.5 -71.5t-21.5 -48.5q0 -31 29 -31t54 21z" />
    <glyph glyph-name="aogonek" unicode="&#x105;" horiz-adv-x="465" 
d="M274 199v29h-28q-87 0 -87 -71q0 -29 13 -44.5t33 -15.5q34 0 51.5 30.5t17.5 71.5zM281 65h-2q-22 -78 -116 -78q-54 0 -95.5 38.5t-41.5 120.5q0 98 64 140.5t159 42.5h20v8q0 72 -64 72q-54 0 -93 -46l-69 96q32 38 79 59t95 21q103 0 148 -60.5t45 -180.5v-298h-27
q-52 -44 -73.5 -71t-21.5 -49q0 -31 29 -31t54 21l31 -66q-50 -40 -111 -40q-42 0 -73 22t-31 69q0 67 99 145h-5v65z" />
    <glyph glyph-name="Cacute" unicode="&#x106;" horiz-adv-x="512" 
d="M447 908l-112 -144h-108l90 144h130zM416 188l89 -111q-68 -96 -196 -96q-123 0 -199 104t-76 269q0 167 76 270t199 103q127 0 195 -89l-86 -116q-39 52 -97 52q-61 0 -94.5 -61.5t-33.5 -158.5q0 -96 33.5 -158t95.5 -62q59 0 94 54z" />
    <glyph glyph-name="cacute" unicode="&#x107;" horiz-adv-x="361" 
d="M375 723l-112 -144h-108l90 144h130zM302 161l63 -121q-45 -56 -130 -56q-97 0 -151 76.5t-54 201.5q0 124 55 200.5t152 76.5q80 0 126 -52l-63 -122q-19 30 -51 30q-30 0 -49 -35.5t-19 -97.5q0 -63 19 -97.5t52 -34.5q32 0 50 31z" />
    <glyph glyph-name="Ccircumflex" unicode="&#x108;" horiz-adv-x="512" 
d="M488 764h-108l-67 85l-66 -85h-107l115 144h119zM416 188l89 -111q-68 -96 -196 -96q-123 0 -199 104t-76 269q0 167 76 270t199 103q127 0 195 -89l-86 -116q-39 52 -97 52q-61 0 -94.5 -61.5t-33.5 -158.5q0 -96 33.5 -158t95.5 -62q59 0 94 54z" />
    <glyph glyph-name="ccircumflex" unicode="&#x109;" horiz-adv-x="361" 
d="M409 579h-108l-67 85l-66 -85h-107l115 144h119zM302 161l63 -121q-45 -56 -130 -56q-97 0 -151 76.5t-54 201.5q0 124 55 200.5t152 76.5q80 0 126 -52l-63 -122q-19 30 -51 30q-30 0 -49 -35.5t-19 -97.5q0 -63 19 -97.5t52 -34.5q32 0 50 31z" />
    <glyph glyph-name="Cdotaccent" unicode="&#x10a;" horiz-adv-x="512" 
d="M398 850q0 -39 -24 -65t-62 -26t-62 26t-24 65q0 38 24 65t62 27t62 -27t24 -65zM416 188l89 -111q-68 -96 -196 -96q-123 0 -199 104t-76 269q0 167 76 270t199 103q127 0 195 -89l-86 -116q-39 52 -97 52q-61 0 -94.5 -61.5t-33.5 -158.5q0 -96 33.5 -158t95.5 -62
q59 0 94 54z" />
    <glyph glyph-name="cdotaccent" unicode="&#x10b;" horiz-adv-x="361" 
d="M322 665q0 -39 -24 -65t-62 -26t-62 26t-24 65q0 38 24 65t62 27t62 -27t24 -65zM302 161l63 -121q-45 -56 -130 -56q-97 0 -151 76.5t-54 201.5q0 124 55 200.5t152 76.5q80 0 126 -52l-63 -122q-19 30 -51 30q-30 0 -49 -35.5t-19 -97.5q0 -63 19 -97.5t52 -34.5
q32 0 50 31z" />
    <glyph glyph-name="Ccaron" unicode="&#x10c;" horiz-adv-x="512" 
d="M138 908h108l67 -85l66 85h107l-115 -144h-119zM416 188l89 -111q-68 -96 -196 -96q-123 0 -199 104t-76 269q0 167 76 270t199 103q127 0 195 -89l-86 -116q-39 52 -97 52q-61 0 -94.5 -61.5t-33.5 -158.5q0 -96 33.5 -158t95.5 -62q59 0 94 54z" />
    <glyph glyph-name="ccaron" unicode="&#x10d;" horiz-adv-x="361" 
d="M62 723h108l67 -85l66 85h107l-115 -144h-119zM302 161l63 -121q-45 -56 -130 -56q-97 0 -151 76.5t-54 201.5q0 124 55 200.5t152 76.5q80 0 126 -52l-63 -122q-19 30 -51 30q-30 0 -49 -35.5t-19 -97.5q0 -63 19 -97.5t52 -34.5q32 0 50 31z" />
    <glyph glyph-name="Dcaron" unicode="&#x10e;" horiz-adv-x="590" 
d="M99 908h108l67 -85l66 85h107l-115 -144h-119zM395 352q0 104 -35.5 160t-95.5 56h-39v-428h39q59 0 95 55.5t36 156.5zM556 352q0 -165 -73 -258.5t-221 -93.5h-199v708h199q148 0 221 -93.5t73 -262.5z" />
    <glyph glyph-name="dcaron" unicode="&#x10f;" horiz-adv-x="528" 
d="M669 708l-62 -187h-105l50 187h117zM318 262q0 62 -17.5 102t-49.5 40q-34 0 -50.5 -39.5t-16.5 -102.5t17 -102.5t50 -39.5q32 0 49.5 40t17.5 102zM466 0h-151v63h-2q-28 -79 -110 -79q-80 0 -126.5 81.5t-46.5 203.5q0 120 45.5 195t127.5 75q38 0 67 -19.5t38 -49.5
h3v286h155v-756z" />
    <glyph glyph-name="Dcroat" unicode="&#x110;" horiz-adv-x="595" 
d="M225 413h95v-105h-95v-168h39q59 0 95 55.5t36 156.5q0 104 -35.5 160t-95.5 56h-39v-155zM63 308h-49v105h49v295h199q148 0 221 -93.5t73 -262.5q0 -165 -73 -258.5t-221 -93.5h-199v308z" />
    <glyph glyph-name="dcroat" unicode="&#x111;" horiz-adv-x="528" 
d="M318 262q0 62 -17.5 102t-49.5 40q-34 0 -50.5 -39.5t-16.5 -102.5t17 -102.5t50 -39.5q32 0 49.5 40t17.5 102zM466 0h-151v63h-2q-28 -79 -110 -79q-80 0 -126.5 81.5t-46.5 203.5q0 120 45.5 195t127.5 75q38 0 67 -19.5t38 -49.5h3v120h-100v77h100v89h155v-89h39
v-77h-39v-590z" />
    <glyph glyph-name="Emacron" unicode="&#x112;" horiz-adv-x="448" 
d="M378 798h-294v77h294v-77zM417 0h-354v708h342v-141h-189v-139h174v-132h-174v-153h201v-143z" />
    <glyph glyph-name="emacron" unicode="&#x113;" horiz-adv-x="473" 
d="M394 613h-294v77h294v-77zM181 324h119q0 98 -56 98q-29 0 -46 -31.5t-17 -66.5zM444 222h-262q0 -45 20 -76t51 -31q45 0 67 57l115 -65q-57 -126 -188 -126q-96 0 -156.5 73.5t-60.5 205.5q0 128 59 205t154 77q103 0 152 -74.5t49 -201.5v-44z" />
    <glyph glyph-name="Ebreve" unicode="&#x114;" horiz-adv-x="448" 
d="M303 905h78q-11 -139 -150 -139q-61 0 -101.5 33t-46.5 106h78q7 -56 70 -56t72 56zM417 0h-354v708h342v-141h-189v-139h174v-132h-174v-153h201v-143z" />
    <glyph glyph-name="ebreve" unicode="&#x115;" horiz-adv-x="473" 
d="M318 720h78q-11 -139 -150 -139q-61 0 -101.5 33t-46.5 106h78q7 -56 70 -56t72 56zM181 324h119q0 98 -56 98q-29 0 -46 -31.5t-17 -66.5zM444 222h-262q0 -45 20 -76t51 -31q45 0 67 57l115 -65q-57 -126 -188 -126q-96 0 -156.5 73.5t-60.5 205.5q0 128 59 205t154 77
q103 0 152 -74.5t49 -201.5v-44z" />
    <glyph glyph-name="Edotaccent" unicode="&#x116;" horiz-adv-x="448" 
d="M321 850q0 -39 -24 -65t-62 -26t-62 26t-24 65q0 38 24 65t62 27t62 -27t24 -65zM417 0h-354v708h342v-141h-189v-139h174v-132h-174v-153h201v-143z" />
    <glyph glyph-name="edotaccent" unicode="&#x117;" horiz-adv-x="473" 
d="M331 665q0 -39 -24 -65t-62 -26t-62 26t-24 65q0 38 24 65t62 27t62 -27t24 -65zM181 324h119q0 98 -56 98q-29 0 -46 -31.5t-17 -66.5zM444 222h-262q0 -45 20 -76t51 -31q45 0 67 57l115 -65q-57 -126 -188 -126q-96 0 -156.5 73.5t-60.5 205.5q0 128 59 205t154 77
q103 0 152 -74.5t49 -201.5v-44z" />
    <glyph glyph-name="Eogonek" unicode="&#x118;" horiz-adv-x="448" 
d="M383 -130l31 -66q-50 -40 -111 -40q-42 0 -73 22t-31 69q0 66 100 145h-236v708h342v-141h-189v-139h174v-132h-174v-153h201v-143h-21q-53 -45 -74.5 -71.5t-21.5 -48.5q0 -31 29 -31t54 21z" />
    <glyph glyph-name="eogonek" unicode="&#x119;" horiz-adv-x="473" 
d="M181 324h119q0 98 -56 98q-29 0 -46 -31.5t-17 -66.5zM444 222h-262q0 -45 20 -76t51 -31q45 0 67 57l115 -65q-43 -93 -125 -117q-84 -73 -84 -110q0 -31 29 -31t54 21l31 -66q-50 -40 -111 -40q-42 0 -73 22t-31 69q0 64 81 130q-79 15 -127.5 86.5t-48.5 188.5
q0 128 59 205t154 77q103 0 152 -74.5t49 -201.5v-44z" />
    <glyph glyph-name="Ecaron" unicode="&#x11a;" horiz-adv-x="448" 
d="M59 908h108l67 -85l66 85h107l-115 -144h-119zM417 0h-354v708h342v-141h-189v-139h174v-132h-174v-153h201v-143z" />
    <glyph glyph-name="ecaron" unicode="&#x11b;" horiz-adv-x="473" 
d="M71 723h108l67 -85l66 85h107l-115 -144h-119zM181 324h119q0 98 -56 98q-29 0 -46 -31.5t-17 -66.5zM444 222h-262q0 -45 20 -76t51 -31q45 0 67 57l115 -65q-57 -126 -188 -126q-96 0 -156.5 73.5t-60.5 205.5q0 128 59 205t154 77q103 0 152 -74.5t49 -201.5v-44z" />
    <glyph glyph-name="Gcircumflex" unicode="&#x11c;" horiz-adv-x="560" 
d="M489 764h-108l-67 85l-66 -85h-107l115 144h119zM513 419v-377q-75 -58 -195 -58q-132 0 -208 101.5t-76 268.5q0 166 75.5 269.5t198.5 103.5q132 0 197 -86l-87 -117q-36 50 -98 50q-63 0 -95.5 -62t-32.5 -158t31.5 -158.5t93.5 -62.5q37 0 56 15v132h-76v139h216z
" />
    <glyph glyph-name="gcircumflex" unicode="&#x11d;" horiz-adv-x="527" 
d="M437 579h-108l-67 85l-66 -85h-107l115 144h119zM318 262q0 62 -17.5 102t-49.5 40q-34 0 -50.5 -39.5t-16.5 -102.5t17 -102.5t50 -39.5q32 0 49.5 40t17.5 102zM315 523h150v-486q0 -277 -234 -277q-53 0 -105.5 19t-87.5 49l73 116q53 -46 110 -46q47 0 69.5 32.5
t22.5 86.5v43h-2q-12 -28 -41 -47.5t-66 -19.5q-83 0 -128.5 75t-45.5 195q0 122 46.5 199t127.5 77q80 0 108 -78h3v62z" />
    <glyph glyph-name="Gbreve" unicode="&#x11e;" horiz-adv-x="560" 
d="M383 905h78q-11 -139 -150 -139q-61 0 -101.5 33t-46.5 106h78q7 -56 70 -56t72 56zM513 419v-377q-75 -58 -195 -58q-132 0 -208 101.5t-76 268.5q0 166 75.5 269.5t198.5 103.5q132 0 197 -86l-87 -117q-36 50 -98 50q-63 0 -95.5 -62t-32.5 -158t31.5 -158.5
t93.5 -62.5q37 0 56 15v132h-76v139h216z" />
    <glyph glyph-name="gbreve" unicode="&#x11f;" horiz-adv-x="527" 
d="M338 720h78q-11 -139 -150 -139q-61 0 -101.5 33t-46.5 106h78q7 -56 70 -56t72 56zM318 262q0 62 -17.5 102t-49.5 40q-34 0 -50.5 -39.5t-16.5 -102.5t17 -102.5t50 -39.5q32 0 49.5 40t17.5 102zM315 523h150v-486q0 -277 -234 -277q-53 0 -105.5 19t-87.5 49l73 116
q53 -46 110 -46q47 0 69.5 32.5t22.5 86.5v43h-2q-12 -28 -41 -47.5t-66 -19.5q-83 0 -128.5 75t-45.5 195q0 122 46.5 199t127.5 77q80 0 108 -78h3v62z" />
    <glyph glyph-name="Gdotaccent" unicode="&#x120;" horiz-adv-x="560" 
d="M405 850q0 -39 -24 -65t-62 -26t-62 26t-24 65q0 38 24 65t62 27t62 -27t24 -65zM513 419v-377q-75 -58 -195 -58q-132 0 -208 101.5t-76 268.5q0 166 75.5 269.5t198.5 103.5q132 0 197 -86l-87 -117q-36 50 -98 50q-63 0 -95.5 -62t-32.5 -158t31.5 -158.5t93.5 -62.5
q37 0 56 15v132h-76v139h216z" />
    <glyph glyph-name="gdotaccent" unicode="&#x121;" horiz-adv-x="527" 
d="M356 665q0 -39 -24 -65t-62 -26t-62 26t-24 65q0 38 24 65t62 27t62 -27t24 -65zM318 262q0 62 -17.5 102t-49.5 40q-34 0 -50.5 -39.5t-16.5 -102.5t17 -102.5t50 -39.5q32 0 49.5 40t17.5 102zM315 523h150v-486q0 -277 -234 -277q-53 0 -105.5 19t-87.5 49l73 116
q53 -46 110 -46q47 0 69.5 32.5t22.5 86.5v43h-2q-12 -28 -41 -47.5t-66 -19.5q-83 0 -128.5 75t-45.5 195q0 122 46.5 199t127.5 77q80 0 108 -78h3v62z" />
    <glyph glyph-name="Gcommaaccent" unicode="&#x122;" horiz-adv-x="560" 
d="M380 -45l-62 -187h-105l50 187h117zM513 419v-377q-75 -58 -195 -58q-132 0 -208 101.5t-76 268.5q0 166 75.5 269.5t198.5 103.5q132 0 197 -86l-87 -117q-36 50 -98 50q-63 0 -95.5 -62t-32.5 -158t31.5 -158.5t93.5 -62.5q37 0 56 15v132h-76v139h216z" />
    <glyph glyph-name="gcommaaccent" unicode="&#x123;" horiz-adv-x="527" 
d="M215 579l62 187h105l-50 -187h-117zM318 262q0 62 -17.5 102t-49.5 40q-34 0 -50.5 -39.5t-16.5 -102.5t17 -102.5t50 -39.5q32 0 49.5 40t17.5 102zM315 523h150v-486q0 -277 -234 -277q-53 0 -105.5 19t-87.5 49l73 116q53 -46 110 -46q47 0 69.5 32.5t22.5 86.5v43h-2
q-12 -28 -41 -47.5t-66 -19.5q-83 0 -128.5 75t-45.5 195q0 122 46.5 199t127.5 77q80 0 108 -78h3v62z" />
    <glyph glyph-name="Hcircumflex" unicode="&#x124;" horiz-adv-x="609" 
d="M480 764h-108l-67 85l-66 -85h-107l115 144h119zM546 0h-159v296h-165v-296h-159v708h159v-269h165v269h159v-708z" />
    <glyph glyph-name="hcircumflex" unicode="&#x125;" horiz-adv-x="538" 
d="M444 796h-108l-67 85l-66 -85h-107l115 144h119zM217 308v-308h-157v756h157v-303h3q13 38 45.5 63.5t77.5 25.5q43 0 72 -17.5t43 -51t19.5 -69.5t5.5 -84v-320h-157v321q0 83 -48 83q-29 0 -45 -26t-16 -70z" />
    <glyph glyph-name="Hbar" unicode="&#x126;" horiz-adv-x="609" 
d="M222 439h165v77h-165v-77zM546 0h-159v296h-165v-296h-159v708h159v-115h165v115h159v-708z" />
    <glyph glyph-name="hbar" unicode="&#x127;" horiz-adv-x="538" 
d="M317 590h-100v-137h3q13 38 45.5 63.5t77.5 25.5q43 0 72 -17.5t43 -51t19.5 -69.5t5.5 -84v-320h-157v320q0 83 -48 83q-29 0 -45 -26t-16 -70v-307h-157v590h-37v77h37v89h157v-89h100v-77z" />
    <glyph glyph-name="Itilde" unicode="&#x128;" horiz-adv-x="287" 
d="M239 896h57q-2 -58 -26 -92t-63 -34q-33 0 -69 23q-35 22 -56 22q-28 0 -33 -44h-58q3 56 26.5 91t62.5 35q30 0 70 -24q38 -22 57 -22q15 0 22 10.5t10 34.5zM224 0h-161v708h161v-708z" />
    <glyph glyph-name="itilde" unicode="&#x129;" horiz-adv-x="276" 
d="M235 711h57q-2 -58 -26 -92t-63 -34q-33 0 -69 23q-35 22 -56 22q-28 0 -33 -44h-58q3 55 26 90q23 36 63 36q29 0 70 -24q38 -22 57 -22q15 0 22 10.5t10 34.5zM216 0h-156v523h156v-523z" />
    <glyph glyph-name="Imacron" unicode="&#x12a;" horiz-adv-x="287" 
d="M290 798h-294v77h294v-77zM224 0h-161v708h161v-708z" />
    <glyph glyph-name="imacron" unicode="&#x12b;" horiz-adv-x="276" 
d="M285 613h-294v77h294v-77zM216 0h-156v523h156v-523z" />
    <glyph glyph-name="Iogonek" unicode="&#x12e;" horiz-adv-x="287" 
d="M205 -130l31 -66q-50 -40 -111 -40q-42 0 -73 22t-31 69q0 66 100 145h-58v708h161v-708h-6q-53 -45 -74.5 -71.5t-21.5 -48.5q0 -31 29 -31t54 21z" />
    <glyph glyph-name="iogonek" unicode="&#x12f;" horiz-adv-x="276" 
d="M224 665q0 -39 -24 -65t-62 -26t-62 26t-24 65q0 38 24 65t62 27t62 -27t24 -65zM199 -130l31 -66q-50 -40 -111 -40q-42 0 -73 22t-31 69q0 66 100 145h-56v523h158v-523h-5q-53 -45 -74.5 -71.5t-21.5 -48.5q0 -31 29 -31t54 21z" />
    <glyph glyph-name="Idotaccent" unicode="&#x130;" horiz-adv-x="287" 
d="M231 850q0 -39 -24 -65t-62 -26t-62 26t-24 65q0 38 24 65t62 27t62 -27t24 -65zM224 0h-161v708h161v-708z" />
    <glyph glyph-name="dotlessi" unicode="&#x131;" horiz-adv-x="276" 
d="M216 0h-156v523h156v-523z" />
    <glyph glyph-name="IJ" unicode="&#x132;" horiz-adv-x="733" 
d="M673 708v-485q0 -114 -51 -176.5t-154 -62.5q-74 0 -126 41.5t-68 111.5l130 58q15 -60 56 -60q31 0 42.5 25t11.5 77v471h159zM224 0h-161v708h161v-708z" />
    <glyph glyph-name="ij" unicode="&#x133;" horiz-adv-x="543" 
d="M491 665q0 -39 -24 -65t-62 -26t-62 26t-24 65q0 38 24 65t62 27t62 -27t24 -65zM484 523v-558q0 -205 -175 -205q-40 0 -70 6l8 137q15 -5 28 -5q30 0 40 20t10 61v544h159zM224 665q0 -39 -24 -65t-62 -26t-62 26t-24 65q0 38 24 65t62 27t62 -27t24 -65zM217 0h-158
v523h158v-523z" />
    <glyph glyph-name="Jcircumflex" unicode="&#x134;" horiz-adv-x="445" 
d="M479 764h-108l-67 85l-66 -85h-107l115 144h119zM385 708v-485q0 -114 -51 -176.5t-154 -62.5q-74 0 -126 41.5t-68 111.5l130 58q15 -60 56 -60q31 0 42.5 25t11.5 77v471h159z" />
    <glyph glyph-name="jcircumflex" unicode="&#x135;" horiz-adv-x="299" 
d="M313 579h-108l-67 85l-66 -85h-107l115 144h119zM218 523v-558q0 -205 -175 -205q-40 0 -70 6l8 137q15 -5 28 -5q30 0 40 20t10 61v544h159z" />
    <glyph glyph-name="Kcommaaccent" unicode="&#x136;" horiz-adv-x="568" 
d="M369 -45l-62 -187h-105l50 187h117zM563 0h-185l-151 329h-3v-329h-161v708h161v-295h3l146 295h179l-182 -324z" />
    <glyph glyph-name="kcommaaccent" unicode="&#x137;" horiz-adv-x="500" 
d="M339 -45l-62 -187h-105l50 187h117zM503 0h-181l-102 240h-2v-240h-156v756h156v-444h2l96 211h184l-132 -240z" />
    <glyph glyph-name="Lacute" unicode="&#x139;" horiz-adv-x="423" 
d="M306 908l-112 -144h-108l90 144h130zM414 0h-351v708h162v-560h189v-148z" />
    <glyph glyph-name="lacute" unicode="&#x13a;" horiz-adv-x="284" 
d="M284 951l-112 -144h-108l90 144h130zM222 0h-160v756h160v-756z" />
    <glyph glyph-name="Lcommaaccent" unicode="&#x13b;" horiz-adv-x="423" 
d="M308 -45l-62 -187h-105l50 187h117zM414 0h-351v708h162v-560h189v-148z" />
    <glyph glyph-name="lcommaaccent" unicode="&#x13c;" horiz-adv-x="284" 
d="M209 -45l-62 -187h-105l50 187h117zM222 0h-160v756h160v-756z" />
    <glyph glyph-name="Lcaron" unicode="&#x13d;" horiz-adv-x="423" 
d="M436 708l-62 -187h-105l50 187h117zM414 0h-351v708h162v-560h189v-148z" />
    <glyph glyph-name="lcaron" unicode="&#x13e;" horiz-adv-x="284" 
d="M415 708l-62 -187h-105l50 187h117zM222 0h-160v756h160v-756z" />
    <glyph glyph-name="Ldot" unicode="&#x13f;" horiz-adv-x="423" 
d="M440 355q0 -39 -24 -65t-62 -26t-62 26t-24 65q0 38 24 65t62 27t62 -27t24 -65zM414 0h-351v708h162v-560h189v-148z" />
    <glyph glyph-name="ldot" unicode="&#x140;" horiz-adv-x="406" 
d="M430 345q0 -39 -24 -65t-62 -26t-62 26t-24 65q0 38 24 65t62 27t62 -27t24 -65zM222 0h-160v756h160v-756z" />
    <glyph glyph-name="Lslash" unicode="&#x141;" horiz-adv-x="424" 
d="M414 0h-351v200l-44 -41v141l44 41v367h162v-250l118 109v-141l-118 -109v-169h189v-148z" />
    <glyph glyph-name="lslash" unicode="&#x142;" horiz-adv-x="286" 
d="M267 423l-45 -40v-383h-160v270l-41 -36v132l41 36v354h160v-242l45 41v-132z" />
    <glyph glyph-name="Nacute" unicode="&#x143;" horiz-adv-x="603" 
d="M453 908l-112 -144h-108l90 144h130zM540 0h-171l-164 431h-3l4 -431h-143v708h176l163 -437h3l-3 437h138v-708z" />
    <glyph glyph-name="nacute" unicode="&#x144;" horiz-adv-x="540" 
d="M406 723l-112 -144h-108l90 144h130zM62 523h153v-74h2q13 40 47 66.5t81 26.5q43 0 71.5 -17.5t42.5 -51t19.5 -69.5t5.5 -84v-320h-157v321q0 83 -47 83q-29 0 -45 -26t-16 -70v-308h-157v523z" />
    <glyph glyph-name="Ncommaaccent" unicode="&#x145;" horiz-adv-x="603" 
d="M374 -45l-62 -187h-105l50 187h117zM540 0h-171l-164 431h-3l4 -431h-143v708h176l163 -437h3l-3 437h138v-708z" />
    <glyph glyph-name="ncommaaccent" unicode="&#x146;" horiz-adv-x="540" 
d="M339 -45l-62 -187h-105l50 187h117zM62 523h153v-74h2q13 40 47 66.5t81 26.5q43 0 71.5 -17.5t42.5 -51t19.5 -69.5t5.5 -84v-320h-157v321q0 83 -47 83q-29 0 -45 -26t-16 -70v-308h-157v523z" />
    <glyph glyph-name="Ncaron" unicode="&#x147;" horiz-adv-x="603" 
d="M127 908h108l67 -85l66 85h107l-115 -144h-119zM540 0h-171l-164 431h-3l4 -431h-143v708h176l163 -437h3l-3 437h138v-708z" />
    <glyph glyph-name="ncaron" unicode="&#x148;" horiz-adv-x="540" 
d="M93 723h108l67 -85l66 85h107l-115 -144h-119zM62 523h153v-74h2q13 40 47 66.5t81 26.5q43 0 71.5 -17.5t42.5 -51t19.5 -69.5t5.5 -84v-320h-157v321q0 83 -47 83q-29 0 -45 -26t-16 -70v-308h-157v523z" />
    <glyph glyph-name="napostrophe" unicode="&#x149;" horiz-adv-x="614" 
d="M153 708l-62 -187h-105l50 187h117zM136 523h153v-74h2q13 40 47 66.5t81 26.5q43 0 71.5 -17.5t42.5 -51t19.5 -69.5t5.5 -84v-320h-157v321q0 83 -47 83q-29 0 -45 -26t-16 -70v-308h-157v523z" />
    <glyph glyph-name="Omacron" unicode="&#x14c;" horiz-adv-x="612" 
d="M453 798h-294v77h294v-77zM414 356q0 96 -28 156t-80 60q-53 0 -80.5 -59.5t-27.5 -156.5t27.5 -157.5t80.5 -60.5q51 0 79.5 61t28.5 157zM578 356q0 -170 -73.5 -272.5t-198.5 -102.5t-198.5 102.5t-73.5 272.5t72.5 270.5t199.5 100.5q125 0 198.5 -101t73.5 -270z
" />
    <glyph glyph-name="omacron" unicode="&#x14d;" horiz-adv-x="495" 
d="M395 613h-294v77h294v-77zM315 262q0 63 -16.5 102.5t-50.5 39.5q-32 0 -49 -39.5t-17 -102.5t17 -102.5t49 -39.5q34 0 50.5 39.5t16.5 102.5zM465 261q0 -125 -58.5 -202.5t-158.5 -77.5t-159 78t-59 202q0 125 59 203t159 78t158.5 -78t58.5 -203z" />
    <glyph glyph-name="Obreve" unicode="&#x14e;" horiz-adv-x="612" 
d="M376 905h78q-11 -139 -150 -139q-61 0 -101.5 33t-46.5 106h78q7 -56 70 -56t72 56zM414 356q0 96 -28 156t-80 60q-53 0 -80.5 -59.5t-27.5 -156.5t27.5 -157.5t80.5 -60.5q51 0 79.5 61t28.5 157zM578 356q0 -170 -73.5 -272.5t-198.5 -102.5t-198.5 102.5t-73.5 272.5
t72.5 270.5t199.5 100.5q125 0 198.5 -101t73.5 -270z" />
    <glyph glyph-name="obreve" unicode="&#x14f;" horiz-adv-x="495" 
d="M319 720h78q-11 -139 -150 -139q-61 0 -101.5 33t-46.5 106h78q7 -56 70 -56t72 56zM315 262q0 63 -16.5 102.5t-50.5 39.5q-32 0 -49 -39.5t-17 -102.5t17 -102.5t49 -39.5q34 0 50.5 39.5t16.5 102.5zM465 261q0 -125 -58.5 -202.5t-158.5 -77.5t-159 78t-59 202
q0 125 59 203t159 78t158.5 -78t58.5 -203z" />
    <glyph glyph-name="Ohungarumlaut" unicode="&#x150;" horiz-adv-x="612" 
d="M546 908l-112 -144h-103l90 144h125zM393 908l-112 -144h-103l90 144h125zM414 356q0 96 -28 156t-80 60q-53 0 -80.5 -59.5t-27.5 -156.5t27.5 -157.5t80.5 -60.5q51 0 79.5 61t28.5 157zM578 356q0 -170 -73.5 -272.5t-198.5 -102.5t-198.5 102.5t-73.5 272.5
t72.5 270.5t199.5 100.5q125 0 198.5 -101t73.5 -270z" />
    <glyph glyph-name="ohungarumlaut" unicode="&#x151;" horiz-adv-x="495" 
d="M490 723l-112 -144h-103l90 144h125zM337 723l-112 -144h-103l90 144h125zM315 262q0 63 -16.5 102.5t-50.5 39.5q-32 0 -49 -39.5t-17 -102.5t17 -102.5t49 -39.5q34 0 50.5 39.5t16.5 102.5zM465 261q0 -125 -58.5 -202.5t-158.5 -77.5t-159 78t-59 202q0 125 59 203
t159 78t158.5 -78t58.5 -203z" />
    <glyph glyph-name="OE" unicode="&#x152;" horiz-adv-x="726" 
d="M349 140v428h-23q-59 0 -95 -55.5t-36 -156.5q0 -104 35.5 -160t95.5 -56h23zM695 0h-367q-148 0 -221 93.5t-73 262.5q0 165 73 258.5t221 93.5h356v-141h-185v-139h169v-132h-169v-153h196v-143z" />
    <glyph glyph-name="oe" unicode="&#x153;" horiz-adv-x="747" 
d="M457 324h119q0 98 -56 98q-29 0 -46 -31.5t-17 -66.5zM314 262q0 63 -16.5 102.5t-50.5 39.5q-32 0 -49 -39.5t-17 -102.5t17 -102.5t49 -39.5q34 0 50.5 39.5t16.5 102.5zM525 542q68 0 113.5 -39t63.5 -99t18 -138v-44h-262q0 -45 20 -76t51 -31q45 0 67 57l115 -65
q-57 -126 -188 -126q-94 0 -137 82q-18 -39 -56 -60.5t-84 -21.5q-100 0 -159 78t-59 202q0 125 59 203t159 78q105 0 141 -83q39 83 138 83z" />
    <glyph glyph-name="Racute" unicode="&#x154;" horiz-adv-x="541" 
d="M412 908l-112 -144h-108l90 144h130zM349 486q0 49 -24 68.5t-58 19.5h-50v-179h47q37 0 61 23t24 68zM528 0h-169l-95 282h-47v-282h-154v708h227q104 0 160.5 -54t56.5 -159q0 -72 -30 -118.5t-70 -60.5z" />
    <glyph glyph-name="racute" unicode="&#x155;" horiz-adv-x="344" 
d="M330 723l-112 -144h-108l90 144h130zM62 0v523h153v-88h1q29 104 105 104q16 0 25 -3l-10 -157q-18 5 -34 5q-37 0 -59.5 -37t-22.5 -88v-259h-158z" />
    <glyph glyph-name="Rcommaaccent" unicode="&#x156;" horiz-adv-x="541" 
d="M350 -45l-62 -187h-105l50 187h117zM349 486q0 49 -24 68.5t-58 19.5h-50v-179h47q37 0 61 23t24 68zM528 0h-169l-95 282h-47v-282h-154v708h227q104 0 160.5 -54t56.5 -159q0 -72 -30 -118.5t-70 -60.5z" />
    <glyph glyph-name="rcommaaccent" unicode="&#x157;" horiz-adv-x="344" 
d="M209 -45l-62 -187h-105l50 187h117zM62 0v523h153v-88h1q29 104 105 104q16 0 25 -3l-10 -157q-18 5 -34 5q-37 0 -59.5 -37t-22.5 -88v-259h-158z" />
    <glyph glyph-name="Rcaron" unicode="&#x158;" horiz-adv-x="541" 
d="M94 908h108l67 -85l66 85h107l-115 -144h-119zM349 486q0 49 -24 68.5t-58 19.5h-50v-179h47q37 0 61 23t24 68zM528 0h-169l-95 282h-47v-282h-154v708h227q104 0 160.5 -54t56.5 -159q0 -72 -30 -118.5t-70 -60.5z" />
    <glyph glyph-name="rcaron" unicode="&#x159;" horiz-adv-x="344" 
d="M26 723h108l67 -85l66 85h107l-115 -144h-119zM62 0v523h153v-88h1q29 104 105 104q16 0 25 -3l-10 -157q-18 5 -34 5q-37 0 -59.5 -37t-22.5 -88v-259h-158z" />
    <glyph glyph-name="Sacute" unicode="&#x15a;" horiz-adv-x="461" 
d="M386 908l-112 -144h-108l90 144h130zM439 656l-83 -118q-38 44 -92 44q-30 0 -50 -18t-20 -55q0 -31 19.5 -49.5t67.5 -42.5q30 -15 51.5 -29.5t46.5 -38.5t38.5 -59t13.5 -79q0 -109 -63.5 -169.5t-156.5 -60.5q-60 0 -113 22.5t-88 57.5l82 120q51 -53 114 -53
q30 0 49.5 19.5t19.5 52.5t-21.5 53.5t-72.5 45.5q-68 33 -104.5 78.5t-36.5 125.5q0 109 65.5 166.5t152.5 57.5q115 0 181 -71z" />
    <glyph glyph-name="sacute" unicode="&#x15b;" horiz-adv-x="400" 
d="M361 723l-112 -144h-108l90 144h130zM383 475l-76 -99q-40 40 -85 40q-19 0 -32.5 -12.5t-13.5 -32.5q0 -19 13.5 -28.5t55.5 -22.5q128 -40 128 -158q0 -88 -55.5 -133t-125.5 -45q-109 0 -184 72l78 100q48 -50 99 -50q22 0 34.5 13t12.5 34q0 23 -17.5 35t-62.5 26
q-52 18 -84.5 52t-32.5 100q0 82 54 127.5t124 45.5q98 0 170 -64z" />
    <glyph glyph-name="Scircumflex" unicode="&#x15c;" horiz-adv-x="461" 
d="M432 764h-108l-67 85l-66 -85h-107l115 144h119zM439 656l-83 -118q-38 44 -92 44q-30 0 -50 -18t-20 -55q0 -31 19.5 -49.5t67.5 -42.5q30 -15 51.5 -29.5t46.5 -38.5t38.5 -59t13.5 -79q0 -109 -63.5 -169.5t-156.5 -60.5q-60 0 -113 22.5t-88 57.5l82 120
q51 -53 114 -53q30 0 49.5 19.5t19.5 52.5t-21.5 53.5t-72.5 45.5q-68 33 -104.5 78.5t-36.5 125.5q0 109 65.5 166.5t152.5 57.5q115 0 181 -71z" />
    <glyph glyph-name="scircumflex" unicode="&#x15d;" horiz-adv-x="400" 
d="M388 579h-108l-67 85l-66 -85h-107l115 144h119zM383 475l-76 -99q-40 40 -85 40q-19 0 -32.5 -12.5t-13.5 -32.5q0 -19 13.5 -28.5t55.5 -22.5q128 -40 128 -158q0 -88 -55.5 -133t-125.5 -45q-109 0 -184 72l78 100q48 -50 99 -50q22 0 34.5 13t12.5 34q0 23 -17.5 35
t-62.5 26q-52 18 -84.5 52t-32.5 100q0 82 54 127.5t124 45.5q98 0 170 -64z" />
    <glyph glyph-name="Scedilla" unicode="&#x15e;" horiz-adv-x="461" 
d="M439 656l-83 -118q-38 44 -92 44q-30 0 -50 -18t-20 -55q0 -31 19.5 -49.5t67.5 -42.5q30 -15 51.5 -29.5t46.5 -38.5t38.5 -59t13.5 -79q0 -89 -43 -145.5t-112 -75.5l-39 -51q5 2 23 2q36 0 62.5 -18.5t26.5 -61.5q0 -52 -42 -74.5t-94 -22.5q-65 0 -110 22l24 62
q36 -17 77 -17q48 0 48 32q0 27 -42 27q-22 0 -44 -9l-31 28l52 73q-108 10 -177 79l82 120q51 -53 114 -53q30 0 49.5 19.5t19.5 52.5t-21.5 53.5t-72.5 45.5q-68 33 -104.5 78.5t-36.5 125.5q0 109 65.5 166.5t152.5 57.5q115 0 181 -71z" />
    <glyph glyph-name="scedilla" unicode="&#x15f;" horiz-adv-x="400" 
d="M383 475l-76 -99q-40 40 -85 40q-19 0 -32.5 -12.5t-13.5 -32.5q0 -19 13.5 -28.5t55.5 -22.5q128 -40 128 -158q0 -67 -33.5 -110t-85.5 -58l-42 -55q5 2 23 2q36 0 62.5 -18.5t26.5 -61.5q0 -52 -42 -74.5t-94 -22.5q-65 0 -110 22l24 62q36 -17 77 -17q48 0 48 32
q0 27 -42 27q-22 0 -44 -9l-31 28l54 76q-94 11 -156 71l78 100q48 -50 99 -50q22 0 34.5 13t12.5 34q0 23 -17.5 35t-62.5 26q-52 18 -84.5 52t-32.5 100q0 82 54 127.5t124 45.5q98 0 170 -64z" />
    <glyph glyph-name="Scaron" unicode="&#x160;" horiz-adv-x="461" 
d="M82 908h108l67 -85l66 85h107l-115 -144h-119zM439 656l-83 -118q-38 44 -92 44q-30 0 -50 -18t-20 -55q0 -31 19.5 -49.5t67.5 -42.5q30 -15 51.5 -29.5t46.5 -38.5t38.5 -59t13.5 -79q0 -109 -63.5 -169.5t-156.5 -60.5q-60 0 -113 22.5t-88 57.5l82 120
q51 -53 114 -53q30 0 49.5 19.5t19.5 52.5t-21.5 53.5t-72.5 45.5q-68 33 -104.5 78.5t-36.5 125.5q0 109 65.5 166.5t152.5 57.5q115 0 181 -71z" />
    <glyph glyph-name="scaron" unicode="&#x161;" horiz-adv-x="400" 
d="M41 723h108l67 -85l66 85h107l-115 -144h-119zM383 475l-76 -99q-40 40 -85 40q-19 0 -32.5 -12.5t-13.5 -32.5q0 -19 13.5 -28.5t55.5 -22.5q128 -40 128 -158q0 -88 -55.5 -133t-125.5 -45q-109 0 -184 72l78 100q48 -50 99 -50q22 0 34.5 13t12.5 34q0 23 -17.5 35
t-62.5 26q-52 18 -84.5 52t-32.5 100q0 82 54 127.5t124 45.5q98 0 170 -64z" />
    <glyph glyph-name="Tcommaaccent" unicode="&#x162;" horiz-adv-x="415" 
d="M275 -45l-62 -187h-105l50 187h117zM416 572h-130v-572h-157v572h-130v136h417v-136z" />
    <glyph glyph-name="tcommaaccent" unicode="&#x163;" horiz-adv-x="315" 
d="M252 -45l-62 -187h-105l50 187h117zM305 127v-123q-32 -17 -85 -17q-78 0 -114.5 42t-36.5 128v244h-63v122h62v126h152v-126h90v-122h-90v-208q0 -73 50 -73q22 0 35 7z" />
    <glyph glyph-name="Tcaron" unicode="&#x164;" horiz-adv-x="415" 
d="M34 908h108l67 -85l66 85h107l-115 -144h-119zM416 572h-130v-572h-157v572h-130v136h417v-136z" />
    <glyph glyph-name="tcaron" unicode="&#x165;" horiz-adv-x="315" 
d="M424 741l-62 -187h-105l50 187h117zM305 127v-123q-32 -17 -85 -17q-78 0 -114.5 42t-36.5 128v244h-63v122h62v126h152v-126h90v-122h-90v-208q0 -73 50 -73q22 0 35 7z" />
    <glyph glyph-name="Tbar" unicode="&#x166;" horiz-adv-x="415" 
d="M353 393h-67v-393h-157v393h-70v77h70v102h-130v136h417v-136h-130v-102h67v-77z" />
    <glyph glyph-name="tbar" unicode="&#x167;" horiz-adv-x="315" 
d="M281 255h-61v-62q0 -73 50 -73q21 0 34 7l1 -123q-32 -17 -85 -17q-78 0 -114.5 42t-36.5 128v98h-48v77h48v69h-63v122h62v126h152v-126h90v-122h-90v-69h61v-77z" />
    <glyph glyph-name="Utilde" unicode="&#x168;" horiz-adv-x="581" 
d="M387 896h57q-2 -58 -26 -92t-63 -34q-33 0 -69 23q-35 22 -56 22q-28 0 -33 -44h-58q3 56 26.5 91t62.5 35q30 0 70 -24q38 -22 57 -22q15 0 22 10.5t10 34.5zM530 708v-446q0 -126 -59.5 -203.5t-182.5 -77.5q-83 0 -137.5 38.5t-77 99.5t-22.5 143v446h161v-432
q0 -141 79 -141t79 141v432h160z" />
    <glyph glyph-name="utilde" unicode="&#x169;" horiz-adv-x="540" 
d="M363 711h57q-2 -58 -26 -92t-63 -34q-33 0 -69 23q-35 22 -56 22q-28 0 -33 -44h-58q3 55 26 90q23 36 63 36q30 0 70 -24q38 -22 57 -22q15 0 22 10.5t10 34.5zM478 0h-153v74h-2q-13 -40 -47 -66.5t-81 -26.5q-43 0 -71.5 17.5t-42.5 51t-19.5 69.5t-5.5 84v320h157
v-320q0 -83 47 -83q29 0 45 26t16 70v307h157v-523z" />
    <glyph glyph-name="Umacron" unicode="&#x16a;" horiz-adv-x="581" 
d="M439 798h-294v77h294v-77zM530 708v-446q0 -126 -59.5 -203.5t-182.5 -77.5q-83 0 -137.5 38.5t-77 99.5t-22.5 143v446h161v-432q0 -141 79 -141t79 141v432h160z" />
    <glyph glyph-name="umacron" unicode="&#x16b;" horiz-adv-x="540" 
d="M414 613h-294v77h294v-77zM478 0h-153v74h-2q-13 -40 -47 -66.5t-81 -26.5q-43 0 -71.5 17.5t-42.5 51t-19.5 69.5t-5.5 84v320h157v-320q0 -83 47 -83q29 0 45 26t16 70v307h157v-523z" />
    <glyph glyph-name="Ubreve" unicode="&#x16c;" horiz-adv-x="581" 
d="M361 905h78q-11 -139 -150 -139q-61 0 -101.5 33t-46.5 106h78q7 -56 70 -56t72 56zM530 708v-446q0 -126 -59.5 -203.5t-182.5 -77.5q-83 0 -137.5 38.5t-77 99.5t-22.5 143v446h161v-432q0 -141 79 -141t79 141v432h160z" />
    <glyph glyph-name="ubreve" unicode="&#x16d;" horiz-adv-x="540" 
d="M338 720h78q-11 -139 -150 -139q-61 0 -101.5 33t-46.5 106h78q7 -56 70 -56t72 56zM478 0h-153v74h-2q-13 -40 -47 -66.5t-81 -26.5q-43 0 -71.5 17.5t-42.5 51t-19.5 69.5t-5.5 84v320h157v-320q0 -83 47 -83q29 0 45 26t16 70v307h157v-523z" />
    <glyph glyph-name="Uring" unicode="&#x16e;" horiz-adv-x="581" 
d="M345 855q0 28 -14.5 46.5t-39.5 18.5t-38.5 -18.5t-13.5 -46.5t13.5 -46.5t38.5 -18.5t39.5 18.5t14.5 46.5zM393 855q0 -48 -28.5 -78.5t-73.5 -30.5t-72.5 30.5t-27.5 78.5t27.5 78.5t72.5 30.5t73.5 -30.5t28.5 -78.5zM530 708v-446q0 -126 -59.5 -203.5t-182.5 -77.5
q-83 0 -137.5 38.5t-77 99.5t-22.5 143v446h161v-432q0 -141 79 -141t79 141v432h160z" />
    <glyph glyph-name="uring" unicode="&#x16f;" horiz-adv-x="540" 
d="M321 670q0 28 -14.5 46.5t-39.5 18.5t-38.5 -18.5t-13.5 -46.5t13.5 -46.5t38.5 -18.5t39.5 18.5t14.5 46.5zM369 670q0 -48 -28.5 -78.5t-73.5 -30.5t-72.5 30.5t-27.5 78.5t27.5 78.5t72.5 30.5t73.5 -30.5t28.5 -78.5zM478 0h-153v74h-2q-13 -40 -47 -66.5t-81 -26.5
q-43 0 -71.5 17.5t-42.5 51t-19.5 69.5t-5.5 84v320h157v-320q0 -83 47 -83q29 0 45 26t16 70v307h157v-523z" />
    <glyph glyph-name="Uhungarumlaut" unicode="&#x170;" horiz-adv-x="581" 
d="M527 908l-112 -144h-103l90 144h125zM374 908l-112 -144h-103l90 144h125zM530 708v-446q0 -126 -59.5 -203.5t-182.5 -77.5q-83 0 -137.5 38.5t-77 99.5t-22.5 143v446h161v-432q0 -141 79 -141t79 141v432h160z" />
    <glyph glyph-name="uhungarumlaut" unicode="&#x171;" horiz-adv-x="540" 
d="M505 723l-112 -144h-103l90 144h125zM352 723l-112 -144h-103l90 144h125zM478 0h-153v74h-2q-13 -40 -47 -66.5t-81 -26.5q-43 0 -71.5 17.5t-42.5 51t-19.5 69.5t-5.5 84v320h157v-320q0 -83 47 -83q29 0 45 26t16 70v307h157v-523z" />
    <glyph glyph-name="Uogonek" unicode="&#x172;" horiz-adv-x="581" 
d="M366 -130l31 -66q-50 -40 -111 -40q-42 0 -73 22t-31 69q0 59 79 128q-108 8 -159 84t-51 195v446h161v-432q0 -141 79 -141t79 141v432h160v-446q0 -101 -39.5 -173t-119.5 -95q-49 -42 -68.5 -67t-19.5 -47q0 -31 29 -31q28 0 54 21z" />
    <glyph glyph-name="uogonek" unicode="&#x173;" horiz-adv-x="541" 
d="M478 0h-54q-53 -45 -74.5 -71.5t-21.5 -48.5q0 -31 29 -31t54 21l31 -66q-50 -40 -111 -40q-42 0 -73 22t-31 69q0 66 100 145h-2v74h-2q-13 -40 -47 -66.5t-81 -26.5q-43 0 -71.5 17.5t-42.5 51t-19.5 69.5t-5.5 84v320h157v-320q0 -83 47 -83q29 0 45 26t16 70v307h157
v-523z" />
    <glyph glyph-name="Wcircumflex" unicode="&#x174;" horiz-adv-x="799" 
d="M577 764h-108l-67 85l-66 -85h-107l115 144h119zM791 708l-134 -708h-170l-87 475h-2l-86 -475h-170l-133 708h163l73 -493h4l77 493h155l80 -493h3l72 493h155z" />
    <glyph glyph-name="wcircumflex" unicode="&#x175;" horiz-adv-x="692" 
d="M520 579h-108l-67 85l-66 -85h-107l115 144h119zM686 523l-118 -523h-159l-66 300h-2l-65 -300h-154l-116 523h160l51 -327h2l60 327h134l62 -327h2l51 327h158z" />
    <glyph glyph-name="Ycircumflex" unicode="&#x176;" horiz-adv-x="492" 
d="M421 764h-108l-67 85l-66 -85h-107l115 144h119zM504 708l-180 -453v-255h-157v255l-179 453h173l85 -293h2l86 293h170z" />
    <glyph glyph-name="ycircumflex" unicode="&#x177;" horiz-adv-x="476" 
d="M418 579h-108l-67 85l-66 -85h-107l115 144h119zM473 523l-148 -541q-14 -52 -28.5 -86t-38.5 -68t-60 -51t-85 -17q-40 0 -88 10l21 142q19 -8 42 -8q48 0 63 54l8 29l-156 536h165l75 -349h2l69 349h159z" />
    <glyph glyph-name="Ydieresis" unicode="&#x178;" horiz-adv-x="492" 
d="M414 851q0 -35 -21 -58.5t-53 -23.5q-33 0 -53.5 23t-20.5 59q0 34 21 58t53 24t53 -24t21 -58zM230 851q0 -35 -21 -58.5t-53 -23.5q-33 0 -53.5 23t-20.5 59q0 34 21 58t53 24t53 -24t21 -58zM504 708l-180 -453v-255h-157v255l-179 453h173l85 -293h2l86 293h170z" />
    <glyph glyph-name="Zacute" unicode="&#x179;" horiz-adv-x="458" 
d="M377 908l-112 -144h-108l90 144h130zM424 0h-400v130l217 437h-199v141h382v-127l-216 -436h216v-145z" />
    <glyph glyph-name="zacute" unicode="&#x17a;" horiz-adv-x="399" 
d="M357 723l-112 -144h-108l90 144h130zM373 0h-346v129l175 262h-165v132h334v-124l-176 -267h178v-132z" />
    <glyph glyph-name="Zdotaccent" unicode="&#x17b;" horiz-adv-x="458" 
d="M320 850q0 -39 -24 -65t-62 -26t-62 26t-24 65q0 38 24 65t62 27t62 -27t24 -65zM424 0h-400v130l217 437h-199v141h382v-127l-216 -436h216v-145z" />
    <glyph glyph-name="zdotaccent" unicode="&#x17c;" horiz-adv-x="399" 
d="M291 665q0 -39 -24 -65t-62 -26t-62 26t-24 65q0 38 24 65t62 27t62 -27t24 -65zM373 0h-346v129l175 262h-165v132h334v-124l-176 -267h178v-132z" />
    <glyph glyph-name="Zcaron" unicode="&#x17d;" horiz-adv-x="458" 
d="M63 908h108l67 -85l66 85h107l-115 -144h-119zM424 0h-400v130l217 437h-199v141h382v-127l-216 -436h216v-145z" />
    <glyph glyph-name="zcaron" unicode="&#x17e;" horiz-adv-x="399" 
d="M33 723h108l67 -85l66 85h107l-115 -144h-119zM373 0h-346v129l175 262h-165v132h334v-124l-176 -267h178v-132z" />
    <glyph glyph-name="florin" unicode="&#x192;" horiz-adv-x="529" 
d="M507 699l-41 -126q-26 14 -48 14q-27 0 -41.5 -17.5t-21.5 -56.5l-13 -73h102v-114h-120l-50 -294q-29 -172 -175 -172q-56 0 -89 13l30 130q10 -7 29 -7q26 0 38 20.5t19 62.5l41 247h-91v114h103l11 65q18 107 62 164t140 57q66 0 115 -27z" />
    <glyph glyph-name="Scommaaccent" unicode="&#x218;" horiz-adv-x="461" 
d="M280 -45l-62 -187h-105l50 187h117zM439 656l-83 -118q-38 44 -92 44q-30 0 -50 -18t-20 -55q0 -31 19.5 -49.5t67.5 -42.5q30 -15 51.5 -29.5t46.5 -38.5t38.5 -59t13.5 -79q0 -109 -63.5 -169.5t-156.5 -60.5q-60 0 -113 22.5t-88 57.5l82 120q51 -53 114 -53
q30 0 49.5 19.5t19.5 52.5t-21.5 53.5t-72.5 45.5q-68 33 -104.5 78.5t-36.5 125.5q0 109 65.5 166.5t152.5 57.5q115 0 181 -71z" />
    <glyph glyph-name="scommaaccent" unicode="&#x219;" horiz-adv-x="400" 
d="M257 -45l-62 -187h-105l50 187h117zM383 475l-76 -99q-40 40 -85 40q-19 0 -32.5 -12.5t-13.5 -32.5q0 -19 13.5 -28.5t55.5 -22.5q128 -40 128 -158q0 -88 -55.5 -133t-125.5 -45q-109 0 -184 72l78 100q48 -50 99 -50q22 0 34.5 13t12.5 34q0 23 -17.5 35t-62.5 26
q-52 18 -84.5 52t-32.5 100q0 82 54 127.5t124 45.5q98 0 170 -64z" />
    <glyph glyph-name="uni021A" unicode="&#x21a;" horiz-adv-x="415" 
d="M275 -45l-62 -187h-105l50 187h117zM416 572h-130v-572h-157v572h-130v136h417v-136z" />
    <glyph glyph-name="uni021B" unicode="&#x21b;" horiz-adv-x="315" 
d="M258 -45l-62 -187h-105l50 187h117zM305 127v-123q-32 -17 -85 -17q-78 0 -114.5 42t-36.5 128v244h-63v122h62v126h152v-126h90v-122h-90v-208q0 -73 50 -73q22 0 35 7z" />
    <glyph glyph-name="circumflex" unicode="&#x2c6;" 
d="M311 579h-108l-67 85l-66 -85h-107l115 144h119z" />
    <glyph glyph-name="caron" unicode="&#x2c7;" 
d="M-37 723h108l67 -85l66 85h107l-115 -144h-119z" />
    <glyph glyph-name="uni02C9" unicode="&#x2c9;" 
d="M284 798h-294v77h294v-77z" />
    <glyph glyph-name="breve" unicode="&#x2d8;" 
d="M208 720h78q-11 -139 -150 -139q-61 0 -101.5 33t-46.5 106h78q7 -56 70 -56t72 56z" />
    <glyph glyph-name="dotaccent" unicode="&#x2d9;" 
d="M223 665q0 -39 -24 -65t-62 -26t-62 26t-24 65q0 38 24 65t62 27t62 -27t24 -65z" />
    <glyph glyph-name="ring" unicode="&#x2da;" 
d="M191 670q0 28 -14.5 46.5t-39.5 18.5t-38.5 -18.5t-13.5 -46.5t13.5 -46.5t38.5 -18.5t39.5 18.5t14.5 46.5zM239 670q0 -48 -28.5 -78.5t-73.5 -30.5t-72.5 30.5t-27.5 78.5t27.5 78.5t72.5 30.5t73.5 -30.5t28.5 -78.5z" />
    <glyph glyph-name="ogonek" unicode="&#x2db;" 
d="M205 -130l31 -66q-50 -40 -111 -40q-42 0 -73 22t-31 69q0 66 100 145h97q-53 -45 -74.5 -71.5t-21.5 -48.5q0 -31 29 -31t54 21z" />
    <glyph glyph-name="tilde" unicode="&#x2dc;" 
d="M233 711h57q-2 -58 -26 -92t-63 -34q-33 0 -69 23q-35 22 -56 22q-28 0 -33 -44h-58q3 55 26 90q23 36 63 36q30 0 70 -24q38 -22 57 -22q15 0 22 10.5t10 34.5z" />
    <glyph glyph-name="hungarumlaut" unicode="&#x2dd;" 
d="M337 723l-112 -144h-103l90 144h125zM184 723l-112 -144h-103l90 144h125z" />
    <glyph glyph-name="uni0394" unicode="&#x394;" horiz-adv-x="710" 
d="M482 145l-138 358l-130 -358h268zM701 0h-692l268 708h140z" />
    <glyph glyph-name="uni03A9" unicode="&#x3a9;" horiz-adv-x="771" 
d="M720 0h-291v219q62 16 98 67q33 50 33 119q0 78 -51.5 126.5t-121.5 48.5q-72 0 -123.5 -48.5t-51.5 -127.5q0 -68 36 -117.5t94 -67.5v-219h-291v144h167v11q-78 24 -122 92q-45 68 -45 158q0 138 97 227t237 89q141 0 238 -87.5t97 -226.5q0 -92 -44 -160t-123 -92v-11
h167v-144z" />
    <glyph glyph-name="uni03BC" unicode="&#x3bc;" horiz-adv-x="666" 
d="M89 498h162v-248q0 -29 4.5 -53.5t23 -47.5t49.5 -23q47 0 69 31t22 80v261h162v-498h-155v57h-1q-37 -64 -111 -64q-40 0 -63 20v-239h-162v724z" />
    <glyph glyph-name="pi" unicode="&#x3c0;" horiz-adv-x="666" 
d="M627 129v-111q-47 -25 -119 -25q-69 0 -96.5 36.5t-27.5 101.5v230h-115v-361h-166v361h-69v137h591v-137h-78v-201q0 -43 35 -43q18 0 45 12z" />
    <glyph glyph-name="endash" unicode="&#x2013;" horiz-adv-x="360" 
d="M336 226h-312v102h312v-102z" />
    <glyph glyph-name="emdash" unicode="&#x2014;" horiz-adv-x="460" 
d="M436 226h-412v102h412v-102z" />
    <glyph glyph-name="quoteleft" unicode="&#x2018;" horiz-adv-x="229" 
d="M198 708l-50 -258h-117l63 258h104z" />
    <glyph glyph-name="quoteright" unicode="&#x2019;" horiz-adv-x="229" 
d="M31 450l50 258h117l-63 -258h-104z" />
    <glyph glyph-name="quotesinglbase" unicode="&#x201a;" horiz-adv-x="229" 
d="M198 143l-62 -258h-105l50 258h117z" />
    <glyph glyph-name="quotedblleft" unicode="&#x201c;" horiz-adv-x="398" 
d="M198 708l-50 -258h-117l63 258h104zM367 708l-50 -258h-117l62 258h105z" />
    <glyph glyph-name="quotedblright" unicode="&#x201d;" horiz-adv-x="397" 
d="M200 450l50 258h117l-63 -258h-104zM31 450l50 258h117l-62 -258h-105z" />
    <glyph glyph-name="quotedblbase" unicode="&#x201e;" horiz-adv-x="397" 
d="M200 -115l50 258h117l-63 -258h-104zM31 -115l50 258h117l-62 -258h-105z" />
    <glyph glyph-name="dagger" unicode="&#x2020;" horiz-adv-x="443" 
d="M424 377h-135v-508h-133v508h-135v131h134v200h134v-200h135v-131z" />
    <glyph glyph-name="daggerdbl" unicode="&#x2021;" horiz-adv-x="443" 
d="M424 48h-134v-179h-134v179h-135v126h135v229h-135v126h134v179h134v-179h135v-126h-135v-229h135v-126z" />
    <glyph glyph-name="bullet" unicode="&#x2022;" horiz-adv-x="500" 
d="M427 354q0 -74 -51.5 -125.5t-125.5 -51.5t-125.5 51.5t-51.5 125.5t51.5 125.5t125.5 51.5t125.5 -51.5t51.5 -125.5z" />
    <glyph glyph-name="ellipsis" unicode="&#x2026;" horiz-adv-x="900" 
d="M535 81q0 -38 -24 -64t-61 -26q-38 0 -61.5 25.5t-23.5 64.5q0 38 24 64.5t61 26.5q36 0 60.5 -27t24.5 -64zM835 81q0 -38 -24 -64t-61 -26q-38 0 -61.5 25.5t-23.5 64.5q0 38 24 64.5t61 26.5q36 0 60.5 -27t24.5 -64zM235 81q0 -38 -24 -64t-61 -26q-38 0 -61.5 25.5
t-23.5 64.5q0 38 24 64.5t61 26.5q36 0 60.5 -27t24.5 -64z" />
    <glyph glyph-name="perthousand" unicode="&#x2030;" horiz-adv-x="966" 
d="M520 709l-302 -730l-73 27l302 732zM847 168q0 42 -12 67.5t-34 25.5q-44 0 -44 -93t44 -93q22 0 34 26.5t12 66.5zM939 167q0 -79 -37.5 -129t-100.5 -50t-100 50t-37 129q0 80 37 130.5t100 50.5t100.5 -51t37.5 -130zM539 168q0 42 -12 67.5t-34 25.5q-44 0 -44 -93
t44 -93q22 0 34 26.5t12 66.5zM631 167q0 -79 -37.5 -129t-100.5 -50t-100 50t-37 129q0 80 37 130.5t100 50.5t100.5 -51t37.5 -130zM212 540q0 42 -12 67.5t-34 25.5q-44 0 -44 -93t44 -93q22 0 34 26.5t12 66.5zM304 539q0 -79 -37.5 -129t-100.5 -50t-100 50t-37 129
q0 80 37 130.5t100 50.5t100.5 -51t37.5 -130z" />
    <glyph glyph-name="guilsinglleft" unicode="&#x2039;" horiz-adv-x="261" 
d="M225 73l-80 -42l-109 231l109 231l80 -42l-88 -189z" />
    <glyph glyph-name="guilsinglright" unicode="&#x203a;" horiz-adv-x="261" 
d="M36 73l88 189l-88 189l80 42l109 -231l-109 -231z" />
    <glyph glyph-name="fraction" unicode="&#x2044;" horiz-adv-x="100" 
d="M229 711l-271 -730l-78 24l270 732z" />
    <glyph glyph-name="Euro" unicode="&#x20ac;" horiz-adv-x="529" 
d="M508 705l-33 -125q-35 15 -84 15q-98 0 -124 -107h194l-26 -99h-190q-2 -8 -2 -34q0 -22 1 -33h181l-23 -99h-142q11 -49 44.5 -76.5t79.5 -27.5q53 0 91 21l18 -133q-47 -26 -128 -26q-104 0 -174 65t-90 177h-78l24 99h45q-1 11 -1 33t1 34h-67l24 99h54
q27 118 100 178.5t182 60.5q70 0 123 -22z" />
    <glyph glyph-name="afii61289" unicode="&#x2113;" horiz-adv-x="500" 
d="M336 559q0 27 -9.5 45t-26.5 18q-16 0 -26.5 -20t-10.5 -52v-161q73 77 73 170zM412 132l50 -77q-82 -69 -178 -69q-80 0 -125 42.5t-45 107.5v30l-54 -46h-2l-53 81l108 86v235q0 85 53.5 142t134.5 57q72 0 114.5 -42t42.5 -111q0 -77 -47 -149.5t-148 -154.5v-104
q0 -33 17 -49t42 -16q39 0 88 37h2z" />
    <glyph glyph-name="trademark" unicode="&#x2122;" horiz-adv-x="760" 
d="M330 296v412h135l61 -268l57 268h136v-412h-93v261h-2l-63 -261h-78l-61 261h-2v-261h-90zM114 296v315h-79v97h258v-97h-78v-315h-101z" />
    <glyph glyph-name="Omega" unicode="&#x2126;" horiz-adv-x="771" 
d="M720 0h-291v219q62 16 98 67q33 50 33 119q0 78 -51.5 126.5t-121.5 48.5q-72 0 -123.5 -48.5t-51.5 -127.5q0 -68 36 -117.5t94 -67.5v-219h-291v144h167v11q-78 24 -122 92q-45 68 -45 158q0 138 97 227t237 89q141 0 238 -87.5t97 -226.5q0 -92 -44 -160t-123 -92v-11
h167v-144z" />
    <glyph glyph-name="estimated" unicode="&#x212e;" horiz-adv-x="800" 
d="M745 355h-535v-240q76 -78 192 -78q84 0 144.5 37.5t111.5 121.5l46 -28q-61 -96 -130 -138t-172 -42q-153 0 -247.5 105.5t-94.5 261.5q0 157 94.5 261t247.5 104q152 0 247.5 -102.5t95.5 -262.5zM210 402h385v193q-82 79 -194 79t-191 -79v-193z" />
    <glyph glyph-name="partialdiff" unicode="&#x2202;" horiz-adv-x="666" 
d="M420 279v13q-47 36 -92 36t-69 -29t-24 -77q0 -45 23 -73.5t61 -28.5q51 0 76 47t25 112zM427 428q0 60 -33 107t-96 47q-80 0 -137 -66l-77 112q93 93 215 93q64 0 115.5 -22t83.5 -57t53 -83t29.5 -97.5t8.5 -102.5t-6 -100t-24.5 -98.5t-47.5 -88.5t-79 -61t-116 -24
q-109 0 -178 68t-69 174q0 101 64.5 164.5t175.5 63.5q65 0 118 -29z" />
    <glyph glyph-name="Delta" unicode="&#x2206;" horiz-adv-x="710" 
d="M482 145l-138 358l-130 -358h268zM701 0h-692l268 708h140z" />
    <glyph glyph-name="product" unicode="&#x220f;" horiz-adv-x="753" 
d="M695 -214h-152v867h-333v-867h-151v1000h636v-1000z" />
    <glyph glyph-name="summation" unicode="&#x2211;" horiz-adv-x="666" 
d="M644 -214h-618v111l292 395l-280 383v111h594v-133h-402l256 -360l-273 -374h431v-133z" />
    <glyph glyph-name="minus" unicode="&#x2212;" horiz-adv-x="666" 
d="M598 242h-530v123h530v-123z" />
    <glyph glyph-name="uni2215" unicode="&#x2215;" horiz-adv-x="100" 
d="M229 711l-271 -730l-78 24l270 732z" />
    <glyph glyph-name="uni2219" unicode="&#x2219;" horiz-adv-x="270" 
d="M220 269q0 -38 -24 -64t-61 -26q-38 0 -61.5 25.5t-23.5 64.5q0 38 24 64.5t61 26.5q36 0 60.5 -27t24.5 -64z" />
    <glyph glyph-name="radical" unicode="&#x221a;" horiz-adv-x="569" 
d="M579 786l-214 -1000h-126l-145 300l-51 -24l-54 114l175 79l112 -239l158 770h145z" />
    <glyph glyph-name="infinity" unicode="&#x221e;" horiz-adv-x="837" 
d="M344 262q-71 71 -117 71q-29 0 -46.5 -20t-17.5 -50q0 -31 18 -49.5t49 -18.5q49 0 114 67zM674 263q0 32 -18 51.5t-49 19.5q-47 0 -114 -72q60 -68 117 -68q29 0 46.5 19.5t17.5 49.5zM792 266q0 -82 -49.5 -136.5t-133.5 -54.5q-97 0 -190 103q-47 -50 -88.5 -76
t-99.5 -26q-85 0 -135.5 53.5t-50.5 135.5q0 80 49.5 133.5t132.5 53.5q59 0 103.5 -28.5t88.5 -80.5q45 52 88.5 81t102.5 29q83 0 132.5 -53.5t49.5 -133.5z" />
    <glyph glyph-name="integral" unicode="&#x222b;" horiz-adv-x="633" 
d="M519 696q0 -28 -18.5 -47.5t-47.5 -19.5q-23 0 -36.5 13t-21 28.5t-15.5 18.5q-11 -10 -11 -53q0 -14 1 -41.5t1 -41.5v-440q0 -76 -2 -113q-2 -35 -6.5 -63t-16 -57.5t-28.5 -49t-46.5 -32t-68.5 -12.5q-46 0 -85 23t-39 69q0 10 5 18q5 21 22 33.5t40 12.5q22 0 35 -13
t20.5 -28t14.5 -17q12 7 12 47q1 15 -0.5 42t-1.5 38v34v462q0 37 1.5 62t6 61.5t16 60.5t29.5 47.5t47.5 35t69.5 11.5q43 0 83 -22t40 -67z" />
    <glyph glyph-name="approxequal" unicode="&#x2248;" horiz-adv-x="666" 
d="M482 247h97q-24 -184 -159 -184q-43 0 -132 32.5t-116 32.5q-40 0 -52 -62h-96q7 80 45.5 135.5t112.5 55.5q41 0 125.5 -30.5t125.5 -30.5q37 0 49 51zM483 468h97q-8 -92 -50 -142t-111 -50q-42 0 -130 32t-116 32q-37 0 -51 -55h-96q7 78 46.5 130.5t115.5 52.5
q42 0 123.5 -29.5t121.5 -29.5q42 0 50 59z" />
    <glyph glyph-name="notequal" unicode="&#x2260;" horiz-adv-x="666" 
d="M569 110h-273l-74 -146l-115 56l47 90h-102v127h167l43 84h-210v127h275l75 145l115 -55l-47 -90h99v-127h-164l-43 -84h207v-127z" />
    <glyph glyph-name="lessequal" unicode="&#x2264;" horiz-adv-x="666" 
d="M587 154l-508 214v103l508 214v-136l-306 -131l306 -127v-137zM587 18h-508v123h508v-123z" />
    <glyph glyph-name="greaterequal" unicode="&#x2265;" horiz-adv-x="666" 
d="M79 154v137l306 127l-306 131v136l508 -214v-103zM79 18v123h508v-123h-508z" />
    <glyph glyph-name="lozenge" unicode="&#x25ca;" horiz-adv-x="606" 
d="M405 356l-103 241l-101 -241l101 -241zM546 356l-184 -391h-120l-181 391l182 391h119z" />
    <glyph glyph-name="dotlessj" unicode="&#xf6be;" horiz-adv-x="299" 
d="M218 523v-558q0 -205 -175 -205q-40 0 -70 6l8 137q15 -5 28 -5q30 0 40 20t10 61v544h159z" />
    <glyph glyph-name="commaaccent" unicode="&#xf6c3;" 
d="M219 -45l-62 -187h-105l50 187h117z" />
    <glyph glyph-name="uniF8FF" unicode="&#xf8ff;" horiz-adv-x="512" 
d="M0 718h512v-718h-512v718zM50 50h412v617h-412v-617zM271 234h-46l-2 17q0 56 13 81q17 33 46 59q30 29 40 46.5t10 36.5q0 36 -22.5 60.5t-53.5 24.5q-71 0 -82 -95l-50 8q6 69 42 103t93 34q55 0 89.5 -36t34.5 -95q0 -34 -13 -60t-50 -60q-37 -33 -43 -52
q-6 -20 -6 -72zM278 117h-56v67h56v-67z" />
    <glyph glyph-name="fi" unicode="&#xfb01;" horiz-adv-x="575" 
d="M523 665q0 -39 -24 -65t-62 -26t-62 26t-24 65q0 38 24 65t62 27t62 -27t24 -65zM516 0h-158v523h158v-523zM316 773l-8 -127q-17 5 -32 5q-56 0 -56 -85v-43h80v-122h-79v-401h-153v401h-62v122h62v44q0 95 42.5 154.5t139.5 59.5q36 0 66 -8z" />
    <glyph glyph-name="fl" unicode="&#xfb02;" horiz-adv-x="583" 
d="M521 0h-160v756h160v-756zM316 773l-8 -127q-17 5 -32 5q-56 0 -56 -85v-43h80v-122h-79v-401h-153v401h-62v122h62v44q0 95 42.5 154.5t139.5 59.5q36 0 66 -8z" />
    <glyph glyph-name="ccedilla.sc" horiz-adv-x="450" 
d="M375 -139q0 -52 -42 -74.5t-94 -22.5q-65 0 -110 22l24 62q36 -17 77 -17q48 0 48 32q0 27 -42 27q-22 0 -44 -9l-31 28l58 82q-86 20 -136 102t-50 198q0 135 66 221.5t173 86.5q114 0 170 -70l-87 -113q-22 37 -73 37q-42 0 -67.5 -43.5t-25.5 -118.5q0 -73 25.5 -116
t67.5 -43q48 0 71 44l91 -109q-56 -73 -146 -82l-35 -46q5 2 23 2q36 0 62.5 -18.5t26.5 -61.5z" />
    <glyph glyph-name="four.onum" horiz-adv-x="551" 
d="M310 138v201h144v-201h74v-134h-73v-164h-147v164h-274v148l210 447h158l-217 -461h125z" />
    <glyph glyph-name="rcommaaccent.sc" horiz-adv-x="492" 
d="M252 452h-39v-115h37q26 0 43.5 14.5t17.5 44.5q0 56 -59 56zM317 0l-76 223h-28v-223h-153v583h200q92 0 145 -46.5t53 -133.5q0 -54 -24 -93t-55 -56l101 -254h-163zM328 -45l-62 -187h-105l50 187h117z" />
    <glyph glyph-name="breve.cap" 
d="M208 905h78q-11 -139 -150 -139q-61 0 -101.5 33t-46.5 106h78q7 -56 70 -56t72 56z" />
    <glyph glyph-name="five.onum" horiz-adv-x="483" 
d="M50 -151l11 140q56 -8 83 -8q142 0 142 116q0 49 -34 74.5t-87 25.5q-56 0 -108 -16l25 403h353v-141h-218l-10 -129q15 4 36 4q90 0 145.5 -56.5t55.5 -159.5q0 -70 -24.5 -122.5t-66 -82t-89 -43.5t-100.5 -14q-51 0 -114 9z" />
    <glyph glyph-name="d.sc" horiz-adv-x="525" 
d="M220 448v-313h19q41 0 68.5 39t27.5 115q0 79 -27.5 119t-68.5 40h-19zM60 0v583h178q128 0 191 -78.5t63 -215.5q0 -134 -63 -211.5t-191 -77.5h-178z" />
    <glyph glyph-name="e.sc" horiz-adv-x="416" 
d="M60 0v583h308v-135h-156v-86h143v-128h-143v-96h166v-138h-318z" />
    <glyph glyph-name="g.sc" horiz-adv-x="500" 
d="M279 -16q-114 0 -180 86t-66 221q0 136 65.5 222t172.5 86q117 0 178 -78l-87 -114q-35 46 -81 46q-44 0 -68 -44t-24 -118t23 -119t66 -45q23 0 35 6v85h-63v134h202v-316q-69 -52 -173 -52z" />
    <glyph glyph-name="six.onum" horiz-adv-x="540" 
d="M348 242q0 52 -20.5 84.5t-56.5 32.5q-34 0 -56.5 -33t-22.5 -84t22 -84t56 -33q35 0 56.5 33t21.5 84zM312 739l138 -75q-129 -113 -180 -198l1 -1q12 7 46 7q90 0 137.5 -64.5t47.5 -167.5q0 -120 -64 -187.5t-166 -67.5q-104 0 -169 67t-65 185q0 234 274 502z" />
    <glyph glyph-name="h.sc" horiz-adv-x="545" 
d="M328 0v234h-111v-234h-157v583h157v-212h111v212h157v-583h-157z" />
    <glyph glyph-name="i.sc" horiz-adv-x="279" 
d="M60 0v583h159v-583h-159z" />
    <glyph glyph-name="ring.cap" 
d="M191 855q0 28 -14.5 46.5t-39.5 18.5t-38.5 -18.5t-13.5 -46.5t13.5 -46.5t38.5 -18.5t39.5 18.5t14.5 46.5zM239 855q0 -48 -28.5 -78.5t-73.5 -30.5t-72.5 30.5t-27.5 78.5t27.5 78.5t72.5 30.5t73.5 -30.5t28.5 -78.5z" />
    <glyph glyph-name="seven.onum" horiz-adv-x="480" 
d="M458 584v-126q-131 -323 -233 -620l-152 33q82 224 223 572h-251v141h413z" />
    <glyph glyph-name="l.sc" horiz-adv-x="380" 
d="M60 0v583h160v-441h155v-142h-315z" />
    <glyph glyph-name="m.sc" horiz-adv-x="699" 
d="M639 0h-144l5 371h-3l-97 -371h-108l-94 371h-2l4 -371h-140v583h207l82 -353h2l71 353h217v-583z" />
    <glyph glyph-name="o.sc" horiz-adv-x="542" 
d="M271 134q36 0 57 42.5t21 116.5t-21 116t-57 42t-57 -42t-21 -116t21 -116.5t57 -42.5zM271 599q111 0 174.5 -84.5t63.5 -221.5t-64 -223t-174 -86t-174 86t-64 223t63.5 221.5t174.5 84.5z" />
    <glyph glyph-name="eight.onum" horiz-adv-x="530" 
d="M335 208q0 45 -20 73.5t-52 28.5t-52 -28.5t-20 -73.5t19.5 -73t52.5 -28q34 0 53 27.5t19 73.5zM329 518q0 40 -17.5 65t-48.5 25t-48 -25t-17 -65q0 -38 18 -65t47 -27q30 0 48 27t18 65zM496 199q0 -93 -64 -153.5t-169 -60.5q-104 0 -166.5 60.5t-62.5 153.5
q0 68 32 111.5t79 61.5v2q-97 38 -97 155q0 80 56.5 137t158.5 57q103 0 161 -57t58 -137q0 -116 -96 -155v-2q47 -18 78.5 -62t31.5 -111z" />
    <glyph glyph-name="p.sc" horiz-adv-x="467" 
d="M249 451h-33v-125h33q22 0 37 16t15 46q0 31 -14.5 47t-37.5 16zM263 199h-47v-199h-156v583h198q77 0 134 -47t57 -145q0 -93 -55 -142.5t-131 -49.5z" />
    <glyph glyph-name="q.sc" horiz-adv-x="542" 
d="M270 449q-34 0 -55 -40.5t-21 -114.5q0 -72 21 -113t55 -41q36 0 57 41.5t21 112.5q0 73 -21.5 114t-56.5 41zM455 132l80 2v-134h-270q-109 0 -170.5 79t-61.5 215t64 220.5t172 84.5q110 0 173 -83t63 -216q0 -47 -14 -93.5t-36 -74.5z" />
    <glyph glyph-name="hungarumlaut.cap" 
d="M337 908l-112 -144h-103l90 144h125zM184 908l-112 -144h-103l90 144h125z" />
    <glyph glyph-name="nine.onum" horiz-adv-x="540" 
d="M192 351q0 -52 20.5 -83.5t56.5 -31.5q34 0 56.5 32t22.5 83t-22 82.5t-56 31.5q-35 0 -56.5 -31.5t-21.5 -82.5zM219 -158q-101 53 -138 75q132 111 195 213l-1 1q-10 -7 -50 -7q-90 0 -138.5 64t-48.5 165q0 118 65.5 183.5t167.5 65.5t166.5 -66t64.5 -183
q0 -249 -283 -511z" />
    <glyph glyph-name="t.sc" horiz-adv-x="367" 
d="M260 451v-451h-153v451h-108v132h369v-132h-108z" />
    <glyph glyph-name="u.sc" horiz-adv-x="524" 
d="M260 -16q-107 0 -157.5 65.5t-50.5 169.5v364h159v-351q0 -99 52 -99q29 0 41 24t12 75v351h156v-364q0 -104 -52 -169.5t-160 -65.5z" />
    <glyph glyph-name="w.sc" horiz-adv-x="748" 
d="M742 583l-128 -583h-172l-72 335h-2l-70 -335h-166l-126 583h173l56 -364h2l63 364h147l67 -364h2l54 364h172z" />
    <glyph glyph-name="zero.sc" horiz-adv-x="478" 
d="M293 291q0 168 -54 168q-55 0 -55 -168q0 -165 55 -165q54 0 54 165zM445 291q0 -44 -5 -84t-19 -82t-36 -72t-59.5 -49.5t-86.5 -19.5q-61 0 -104 28t-64 76.5t-29.5 97t-8.5 105.5t8.5 106.5t29.5 97.5t64 76t104 28q49 0 86.5 -19.5t59.5 -49.5t36 -72t19 -82t5 -85z
" />
    <glyph glyph-name="x.sc" horiz-adv-x="480" 
d="M313 0l-73 179l-72 -179h-170l147 307l-131 276h166l63 -157l65 157h162l-131 -273l143 -310h-169z" />
    <glyph glyph-name="y.sc" horiz-adv-x="446" 
d="M224 365h3l59 218h168l-154 -381v-202h-154v202l-154 381h171z" />
    <glyph glyph-name="dotaccent.cap" 
d="M223 850q0 -39 -24 -65t-62 -26t-62 26t-24 65q0 38 24 65t62 27t62 -27t24 -65z" />
    <glyph glyph-name="one.sc" horiz-adv-x="478" 
d="M191 0v400l-78 -56l-72 117l172 122h133v-583h-155z" />
    <glyph glyph-name="aacute.sc" horiz-adv-x="475" 
d="M396 771l-112 -144h-108l90 144h130zM235 425l-40 -202h78l-36 202h-2zM321 0l-23 102h-126l-21 -102h-153l148 583h186l145 -583h-156z" />
    <glyph glyph-name="acircumflex.sc" horiz-adv-x="475" 
d="M411 627h-108l-67 85l-66 -85h-107l115 144h119zM235 425l-40 -202h78l-36 202h-2zM321 0l-23 102h-126l-21 -102h-153l148 583h186l145 -583h-156z" />
    <glyph glyph-name="adieresis.sc" horiz-adv-x="475" 
d="M403 714q0 -35 -21 -58.5t-53 -23.5q-33 0 -53.5 23t-20.5 59q0 34 21 58t53 24t53 -24t21 -58zM219 714q0 -35 -21 -58.5t-53 -23.5q-33 0 -53.5 23t-20.5 59q0 34 21 58t53 24t53 -24t21 -58zM235 425l-40 -202h78l-36 202h-2zM321 0l-23 102h-126l-21 -102h-153
l148 583h186l145 -583h-156z" />
    <glyph glyph-name="two.sc" horiz-adv-x="478" 
d="M339 234l-96 -100h178v-134h-371v130l181 196q42 45 42 88q0 46 -36 46q-41 0 -47 -73l-148 12q18 200 202 200q90 0 138.5 -49t48.5 -135q0 -87 -92 -181z" />
    <glyph glyph-name="aring.sc" horiz-adv-x="475" 
d="M290 718q0 28 -14.5 46.5t-39.5 18.5t-38.5 -18.5t-13.5 -46.5t13.5 -46.5t38.5 -18.5t39.5 18.5t14.5 46.5zM338 718q0 -48 -28.5 -78.5t-73.5 -30.5t-72.5 30.5t-27.5 78.5t27.5 78.5t72.5 30.5t73.5 -30.5t28.5 -78.5zM235 425l-40 -202h78l-36 202h-2zM321 0l-23 102
h-126l-21 -102h-153l148 583h186l145 -583h-156z" />
    <glyph glyph-name="amacron.sc" horiz-adv-x="475" 
d="M384 661h-294v77h294v-77zM235 425l-40 -202h78l-36 202h-2zM321 0l-23 102h-126l-21 -102h-153l148 583h186l145 -583h-156z" />
    <glyph glyph-name="caron.alt" 
d="M229 708l-62 -187h-105l50 187h117z" />
    <glyph glyph-name="three.sc" horiz-adv-x="478" 
d="M343 306v-4q85 -31 85 -133q0 -87 -55 -136t-141 -49q-78 0 -133.5 41.5t-72.5 122.5l141 33q13 -64 59 -64q22 0 35 17t13 43q0 63 -66 63h-43v117h46q55 0 55 63q0 46 -40 46q-37 0 -48 -55l-137 33q19 76 71.5 115.5t122.5 39.5q74 0 127.5 -41.5t53.5 -119.5
q0 -102 -73 -132z" />
    <glyph glyph-name="ae.sc" horiz-adv-x="619" 
d="M272 448h-3l-65 -221h68v221zM272 0v104h-100l-32 -104h-167l201 583h398v-135h-152v-86h138v-128h-138v-96h161v-138h-309z" />
    <glyph glyph-name="cacute.sc" horiz-adv-x="450" 
d="M427 771l-112 -144h-108l90 144h130zM272 -16q-107 0 -173 87t-66 220q0 135 66 221.5t173 86.5q114 0 170 -70l-87 -113q-22 37 -73 37q-42 0 -67.5 -43.5t-25.5 -118.5q0 -73 25.5 -116t67.5 -43q48 0 71 44l91 -109q-65 -83 -172 -83z" />
    <glyph glyph-name="ccaron.sc" horiz-adv-x="450" 
d="M102 771h108l67 -85l66 85h107l-115 -144h-119zM272 -16q-107 0 -173 87t-66 220q0 135 66 221.5t173 86.5q114 0 170 -70l-87 -113q-22 37 -73 37q-42 0 -67.5 -43.5t-25.5 -118.5q0 -73 25.5 -116t67.5 -43q48 0 71 44l91 -109q-65 -83 -172 -83z" />
    <glyph glyph-name="four.sc" horiz-adv-x="478" 
d="M242 411h-3l-74 -170h77v170zM382 113v-113h-142v113h-214v121l168 349h188v-342h59v-128h-59z" />
    <glyph glyph-name="cdotaccent.sc" horiz-adv-x="450" 
d="M360 723q0 -39 -24 -65t-62 -26t-62 26t-24 65q0 38 24 65t62 27t62 -27t24 -65zM272 -16q-107 0 -173 87t-66 220q0 135 66 221.5t173 86.5q114 0 170 -70l-87 -113q-22 37 -73 37q-42 0 -67.5 -43.5t-25.5 -118.5q0 -73 25.5 -116t67.5 -43q48 0 71 44l91 -109
q-65 -83 -172 -83z" />
    <glyph glyph-name="uogonek.sc" horiz-adv-x="524" 
d="M334 -130l31 -66q-50 -40 -111 -40q-42 0 -73 22t-31 69q0 64 82 131q-92 8 -136 72t-44 161v364h159v-351q0 -99 52 -99q29 0 41 24t12 75v351h156v-364q0 -81 -32 -140t-97 -82q-53 -46 -72.5 -70t-19.5 -47q0 -31 29 -31q28 0 54 21z" />
    <glyph glyph-name="question.sc" horiz-adv-x="388" 
d="M292 77q0 -37 -25 -61.5t-62 -24.5q-38 0 -62.5 24.5t-24.5 61.5t24.5 62t62.5 25q37 0 62 -25.5t25 -61.5zM297 280q-20 -17 -26 -28.5t-6 -29.5v-11h-132v22q0 72 57 125q42 37 42 63q0 44 -36 44q-39 0 -44 -65l-132 22q9 78 55.5 127.5t128.5 49.5q79 0 126.5 -45
t47.5 -124q0 -50 -20 -83t-61 -67z" />
    <glyph glyph-name="five.sc" horiz-adv-x="478" 
d="M228 -16q-78 0 -130 44t-66 120l136 40q5 -34 20 -52t36 -18q22 0 35 18t13 51q0 78 -73 78q-49 0 -130 -30l14 348h321v-135h-186l-3 -66q11 3 32 3q83 0 130.5 -54t47.5 -140q0 -100 -55.5 -153.5t-141.5 -53.5z" />
    <glyph glyph-name="eth.sc" horiz-adv-x="525" 
d="M220 350h72v-100h-72v-115h19q41 0 68.5 39t27.5 115q0 79 -27.5 119t-68.5 40h-19v-98zM60 250h-46v100h46v233h178q128 0 191 -78.5t63 -215.5q0 -134 -63 -211.5t-191 -77.5h-178v250z" />
    <glyph glyph-name="egrave.sc" horiz-adv-x="416" 
d="M59 771h130l90 -144h-108zM60 0v583h308v-135h-156v-86h143v-128h-143v-96h166v-138h-318z" />
    <glyph glyph-name="ecircumflex.sc" horiz-adv-x="416" 
d="M388 627h-108l-67 85l-66 -85h-107l115 144h119zM60 0v583h308v-135h-156v-86h143v-128h-143v-96h166v-138h-318z" />
    <glyph glyph-name="six.sc" horiz-adv-x="478" 
d="M237 282q-21 0 -36.5 -21t-15.5 -58t15 -58.5t37 -21.5q21 0 35.5 21.5t14.5 58.5t-14.5 58t-35.5 21zM261 396h1q8 1 13 1q81 0 123 -55t42 -141q0 -100 -56.5 -158.5t-145.5 -58.5q-91 0 -148 58t-57 157q0 84 52 179l113 205h174z" />
    <glyph glyph-name="ecaron.sc" horiz-adv-x="416" 
d="M42 771h108l67 -85l66 85h107l-115 -144h-119zM60 0v583h308v-135h-156v-86h143v-128h-143v-96h166v-138h-318z" />
    <glyph glyph-name="edieresis.sc" horiz-adv-x="416" 
d="M384 714q0 -35 -21 -58.5t-53 -23.5q-33 0 -53.5 23t-20.5 59q0 34 21 58t53 24t53 -24t21 -58zM200 714q0 -35 -21 -58.5t-53 -23.5q-33 0 -53.5 23t-20.5 59q0 34 21 58t53 24t53 -24t21 -58zM60 0v583h308v-135h-156v-86h143v-128h-143v-96h166v-138h-318z" />
    <glyph glyph-name="commaaccent.alt" 
d="M64 579l62 187h105l-50 -187h-117z" />
    <glyph glyph-name="seven.sc" horiz-adv-x="478" 
d="M249 0h-168l178 448h-213v135h379v-110z" />
    <glyph glyph-name="ebreve.sc" horiz-adv-x="416" 
d="M286 768h78q-11 -139 -150 -139q-61 0 -101.5 33t-46.5 106h78q4 -29 26 -44q19 -12 44 -12q63 0 72 56zM60 0v583h308v-135h-156v-86h143v-128h-143v-96h166v-138h-318z" />
    <glyph glyph-name="eogonek.sc" horiz-adv-x="416" 
d="M60 0v583h308v-135h-156v-86h143v-128h-143v-96h166v-138h-35q-53 -45 -74.5 -71.5t-21.5 -48.5q0 -31 29 -31q28 0 54 21l31 -66q-50 -40 -111 -40q-42 0 -73 22t-31 69q0 66 100 145h-186z" />
    <glyph glyph-name="gdotaccent.sc" horiz-adv-x="500" 
d="M360 723q0 -39 -24 -65t-62 -26t-62 26t-24 65q0 38 24 65t62 27t62 -27t24 -65zM279 -16q-114 0 -180 86t-66 221q0 136 65.5 222t172.5 86q117 0 178 -78l-87 -114q-35 46 -81 46q-44 0 -68 -44t-24 -118t23 -119t66 -45q23 0 35 6v85h-63v134h202v-316
q-69 -52 -173 -52z" />
    <glyph glyph-name="eight.sc" horiz-adv-x="478" 
d="M289 177q0 31 -13.5 50.5t-36.5 19.5t-37.5 -19.5t-14.5 -50.5q0 -30 14 -48.5t38 -18.5q23 0 36.5 18.5t13.5 48.5zM283 422q0 57 -44 57q-45 0 -45 -57q0 -25 12.5 -43t32.5 -18t32 18t12 43zM443 161q0 -77 -56 -127t-148 -50t-148 50t-56 127q0 56 26.5 92.5
t63.5 53.5v2q-78 34 -78 129q0 66 51.5 113.5t140.5 47.5q91 0 141.5 -47t50.5 -114q0 -95 -77 -129v-2q89 -46 89 -146z" />
    <glyph glyph-name="gbreve.sc" horiz-adv-x="500" 
d="M344 768h78q-11 -139 -150 -139q-61 0 -101.5 33t-46.5 106h78q4 -29 26 -44q19 -12 44 -12q63 0 72 56zM279 -16q-114 0 -180 86t-66 221q0 136 65.5 222t172.5 86q117 0 178 -78l-87 -114q-35 46 -81 46q-44 0 -68 -44t-24 -118t23 -119t66 -45q23 0 35 6v85h-63v134
h202v-316q-69 -52 -173 -52z" />
    <glyph glyph-name="gcommaaccent.sc" horiz-adv-x="500" 
d="M279 -16q-114 0 -180 86t-66 221q0 136 65.5 222t172.5 86q117 0 178 -78l-87 -114q-35 46 -81 46q-44 0 -68 -44t-24 -118t23 -119t66 -45q23 0 35 6v85h-63v134h202v-316q-69 -52 -173 -52zM338 -45l-62 -187h-105l50 187h117z" />
    <glyph glyph-name="grave.sc" 
d="M0 771h130l90 -144h-108z" />
    <glyph glyph-name="nine.sc" horiz-adv-x="478" 
d="M236 309q21 0 36.5 21t15.5 58t-15 58.5t-37 21.5q-21 0 -35.5 -21.5t-14.5 -58.5t14.5 -58t35.5 -21zM212 195h-1q-8 -1 -13 -1q-82 0 -123.5 54t-41.5 140q0 94 56.5 152.5t145.5 58.5q91 0 148 -58.5t57 -156.5q0 -84 -52 -179l-113 -205h-174z" />
    <glyph glyph-name="igrave.sc" horiz-adv-x="279" 
d="M-22 771h130l90 -144h-108zM60 0v583h159v-583h-159z" />
    <glyph glyph-name="iacute.sc" horiz-adv-x="279" 
d="M302 771l-112 -144h-108l90 144h130zM60 0v583h159v-583h-159z" />
    <glyph glyph-name="itilde.sc" horiz-adv-x="279" 
d="M235 759h57q-2 -58 -26 -92t-63 -34q-33 0 -69 23q-35 22 -56 22q-28 0 -33 -44h-58q3 56 26.5 91t62.5 35q29 0 70 -24q38 -22 57 -22q15 0 22 10.5t10 34.5zM60 0v583h159v-583h-159z" />
    <glyph glyph-name="grave.cap" 
d="M0 908h130l90 -144h-108z" />
    <glyph glyph-name="idieresis.sc" horiz-adv-x="279" 
d="M306 714q0 -35 -21 -58.5t-53 -23.5q-33 0 -53.5 23t-20.5 59q0 34 21 58t53 24t53 -24t21 -58zM122 714q0 -35 -21 -58.5t-53 -23.5q-33 0 -53.5 23t-20.5 59q0 34 21 58t53 24t53 -24t21 -58zM60 0v583h159v-583h-159z" />
    <glyph glyph-name="imacron.sc" horiz-adv-x="279" 
d="M286 661h-294v77h294v-77zM60 0v583h159v-583h-159z" />
    <glyph glyph-name="acute.sc" 
d="M274 771l-112 -144h-108l90 144h130z" />
    <glyph glyph-name="acute.cap" 
d="M274 908l-112 -144h-108l90 144h130z" />
    <glyph glyph-name="jcircumflex.sc" horiz-adv-x="382" 
d="M424 627h-108l-67 85l-66 -85h-107l115 144h119zM149 -16q-70 0 -115 37.5t-60 103.5l131 54q5 -48 35 -48q20 0 26.5 15t6.5 51v386h157v-397q0 -95 -45 -148.5t-136 -53.5z" />
    <glyph glyph-name="kcommaaccent.sc" horiz-adv-x="506" 
d="M506 0h-175l-114 258h-2v-258h-155v583h155v-228h2l109 228h170l-148 -267zM335 -45l-62 -187h-105l50 187h117z" />
    <glyph glyph-name="lcaron.sc" horiz-adv-x="424" 
d="M60 0v583h160v-441h155v-142h-315zM430 583l-62 -187h-105l50 187h117z" />
    <glyph glyph-name="circumflex.cap" 
d="M311 764h-108l-67 85l-66 -85h-107l115 144h119z" />
    <glyph glyph-name="lcommaaccent.sc" horiz-adv-x="380" 
d="M60 0v583h160v-441h155v-142h-315zM285 -45l-62 -187h-105l50 187h117z" />
    <glyph glyph-name="ldot.sc" horiz-adv-x="380" 
d="M415 323q0 -39 -24 -65t-62 -26t-62 26t-24 65q0 38 24 65t62 27t62 -27t24 -65zM60 0v583h160v-441h155v-142h-315z" />
    <glyph glyph-name="circumflex.sc" 
d="M311 627h-108l-67 85l-66 -85h-107l115 144h119z" />
    <glyph glyph-name="caron.cap" 
d="M-37 908h108l67 -85l66 85h107l-115 -144h-119z" />
    <glyph glyph-name="ncaron.sc" horiz-adv-x="544" 
d="M101 771h108l67 -85l66 85h107l-115 -144h-119zM484 0h-160l-125 326h-4l5 -326h-140v583h161l130 -324h3l-4 324h134v-583z" />
    <glyph glyph-name="ntilde.sc" horiz-adv-x="544" 
d="M368 759h57q-2 -58 -26 -92t-63 -34q-33 0 -69 23q-35 22 -56 22q-28 0 -33 -44h-58q3 56 26.5 91t62.5 35q29 0 70 -24q38 -22 57 -22q15 0 22 10.5t10 34.5zM484 0h-160l-125 326h-4l5 -326h-140v583h161l130 -324h3l-4 324h134v-583z" />
    <glyph glyph-name="ograve.sc" horiz-adv-x="542" 
d="M119 771h130l90 -144h-108zM271 134q36 0 57 42.5t21 116.5t-21 116t-57 42t-57 -42t-21 -116t21 -116.5t57 -42.5zM271 599q111 0 174.5 -84.5t63.5 -221.5t-64 -223t-174 -86t-174 86t-64 223t63.5 221.5t174.5 84.5z" />
    <glyph glyph-name="tilde.cap" 
d="M233 896h57q-2 -58 -26 -92t-63 -34q-33 0 -69 23q-35 22 -56 22q-28 0 -33 -44h-58q3 56 26.5 91t62.5 35q30 0 70 -24q38 -22 57 -22q15 0 22 10.5t10 34.5z" />
    <glyph glyph-name="oacute.sc" horiz-adv-x="542" 
d="M429 771l-112 -144h-108l90 144h130zM271 134q36 0 57 42.5t21 116.5t-21 116t-57 42t-57 -42t-21 -116t21 -116.5t57 -42.5zM271 599q111 0 174.5 -84.5t63.5 -221.5t-64 -223t-174 -86t-174 86t-64 223t63.5 221.5t174.5 84.5z" />
    <glyph glyph-name="ocircumflex.sc" horiz-adv-x="542" 
d="M445 627h-108l-67 85l-66 -85h-107l115 144h119zM271 134q36 0 57 42.5t21 116.5t-21 116t-57 42t-57 -42t-21 -116t21 -116.5t57 -42.5zM271 599q111 0 174.5 -84.5t63.5 -221.5t-64 -223t-174 -86t-174 86t-64 223t63.5 221.5t174.5 84.5z" />
    <glyph glyph-name="caron.sc" 
d="M-37 771h108l67 -85l66 85h107l-115 -144h-119z" />
    <glyph glyph-name="dieresis.cap" 
d="M303 851q0 -35 -21 -58.5t-53 -23.5q-33 0 -53.5 23t-20.5 59q0 34 21 58t53 24t53 -24t21 -58zM119 851q0 -35 -21 -58.5t-53 -23.5q-33 0 -53.5 23t-20.5 59q0 34 21 58t53 24t53 -24t21 -58z" />
    <glyph glyph-name="omacron.sc" horiz-adv-x="542" 
d="M417 661h-294v77h294v-77zM271 134q36 0 57 42.5t21 116.5t-21 116t-57 42t-57 -42t-21 -116t21 -116.5t57 -42.5zM271 599q111 0 174.5 -84.5t63.5 -221.5t-64 -223t-174 -86t-174 86t-64 223t63.5 221.5t174.5 84.5z" />
    <glyph glyph-name="obreve.sc" horiz-adv-x="542" 
d="M341 768h78q-11 -139 -150 -139q-61 0 -101.5 33t-46.5 106h78q4 -29 26 -44q19 -12 44 -12q63 0 72 56zM271 134q36 0 57 42.5t21 116.5t-21 116t-57 42t-57 -42t-21 -116t21 -116.5t57 -42.5zM271 599q111 0 174.5 -84.5t63.5 -221.5t-64 -223t-174 -86t-174 86
t-64 223t63.5 221.5t174.5 84.5z" />
    <glyph glyph-name="oslash.sc" horiz-adv-x="542" 
d="M271 121q40 0 64 46t24 126q0 40 -8 77l-117 -237q16 -12 37 -12zM183 293q0 -40 8 -80l116 239q-17 12 -36 12q-40 0 -64 -45.5t-24 -125.5zM271 599q59 0 105 -25l32 67l71 -34l-41 -83q71 -85 71 -231q0 -137 -64 -223t-174 -86q-57 0 -105 25l-27 -61l-72 35l37 77
q-71 85 -71 233q0 137 63.5 221.5t174.5 84.5z" />
    <glyph glyph-name="macron.cap" 
d="M284 798h-294v77h294v-77z" />
    <glyph glyph-name="oe.sc" horiz-adv-x="641" 
d="M292 448h-6q-41 0 -68 -39.5t-27 -115.5q0 -79 27 -118.5t68 -39.5h6v313zM603 0h-316q-128 0 -191 78t-63 215q0 135 63 212.5t191 77.5h307v-135h-152v-86h139v-128h-139v-96h161v-138z" />
    <glyph glyph-name="racute.sc" horiz-adv-x="492" 
d="M394 771l-112 -144h-108l90 144h130zM252 452h-39v-115h37q26 0 43.5 14.5t17.5 44.5q0 56 -59 56zM317 0l-76 223h-28v-223h-153v583h200q92 0 145 -46.5t53 -133.5q0 -54 -24 -93t-55 -56l101 -254h-163z" />
    <glyph glyph-name="tilde.sc" 
d="M233 759h57q-2 -58 -26 -92t-63 -34q-33 0 -69 23q-35 22 -56 22q-28 0 -33 -44h-58q3 56 26.5 91t62.5 35q30 0 70 -24q38 -22 57 -22q15 0 22 10.5t10 34.5z" />
    <glyph glyph-name="sacute.sc" horiz-adv-x="400" 
d="M378 771l-112 -144h-108l90 144h130zM384 532l-84 -115q-34 42 -77 42q-45 0 -45 -45q0 -20 14 -32.5t51 -29.5q130 -61 130 -174q0 -92 -56 -143t-137 -51q-106 0 -182 74l82 116q48 -48 95 -48q19 0 32 12t13 32q0 25 -19 39.5t-62 34.5q-51 24 -82 61.5t-31 103.5
q0 93 58 141.5t134 48.5q105 0 166 -67z" />
    <glyph glyph-name="f.sc" horiz-adv-x="402" 
d="M219 444v-89h139v-132h-139v-223h-159v583h310v-139h-151z" />
    <glyph glyph-name="scaron.sc" horiz-adv-x="400" 
d="M49 771h108l67 -85l66 85h107l-115 -144h-119zM384 532l-84 -115q-34 42 -77 42q-45 0 -45 -45q0 -20 14 -32.5t51 -29.5q130 -61 130 -174q0 -92 -56 -143t-137 -51q-106 0 -182 74l82 116q48 -48 95 -48q19 0 32 12t13 32q0 25 -19 39.5t-62 34.5q-51 24 -82 61.5
t-31 103.5q0 93 58 141.5t134 48.5q105 0 166 -67z" />
    <glyph glyph-name="k.sc" horiz-adv-x="506" 
d="M506 0h-175l-114 258h-2v-258h-155v583h155v-228h2l109 228h170l-148 -267z" />
    <glyph glyph-name="scommaaccent.sc" horiz-adv-x="400" 
d="M384 532l-84 -115q-34 42 -77 42q-45 0 -45 -45q0 -20 14 -32.5t51 -29.5q130 -61 130 -174q0 -92 -56 -143t-137 -51q-106 0 -182 74l82 116q48 -48 95 -48q19 0 32 12t13 32q0 25 -19 39.5t-62 34.5q-51 24 -82 61.5t-31 103.5q0 93 58 141.5t134 48.5q105 0 166 -67z
M245 -45l-62 -187h-105l50 187h117z" />
    <glyph glyph-name="n.sc" horiz-adv-x="544" 
d="M484 0h-160l-125 326h-4l5 -326h-140v583h161l130 -324h3l-4 324h134v-583z" />
    <glyph glyph-name="tcaron.sc" horiz-adv-x="367" 
d="M9 771h108l67 -85l66 85h107l-115 -144h-119zM260 451v-451h-153v451h-108v132h369v-132h-108z" />
    <glyph glyph-name="dieresis.sc" 
d="M303 714q0 -35 -21 -58.5t-53 -23.5q-33 0 -53.5 23t-20.5 59q0 34 21 58t53 24t53 -24t21 -58zM119 714q0 -35 -21 -58.5t-53 -23.5q-33 0 -53.5 23t-20.5 59q0 34 21 58t53 24t53 -24t21 -58z" />
    <glyph glyph-name="tbar.sc" horiz-adv-x="367" 
d="M260 451v-91h68v-90h-68v-270h-153v270h-68v90h68v91h-108v132h369v-132h-108z" />
    <glyph glyph-name="v.sc" horiz-adv-x="478" 
d="M482 583l-142 -583h-201l-143 583h170l77 -399h4l73 399h162z" />
    <glyph glyph-name="ugrave.sc" horiz-adv-x="524" 
d="M102 771h130l90 -144h-108zM260 -16q-107 0 -157.5 65.5t-50.5 169.5v364h159v-351q0 -99 52 -99q29 0 41 24t12 75v351h156v-364q0 -104 -52 -169.5t-160 -65.5z" />
    <glyph glyph-name="agrave.sc" horiz-adv-x="475" 
d="M83 771h130l90 -144h-108zM235 425l-40 -202h78l-36 202h-2zM321 0l-23 102h-126l-21 -102h-153l148 583h186l145 -583h-156z" />
    <glyph glyph-name="ucircumflex.sc" horiz-adv-x="524" 
d="M437 627h-108l-67 85l-66 -85h-107l115 144h119zM260 -16q-107 0 -157.5 65.5t-50.5 169.5v364h159v-351q0 -99 52 -99q29 0 41 24t12 75v351h156v-364q0 -104 -52 -169.5t-160 -65.5z" />
    <glyph glyph-name="atilde.sc" horiz-adv-x="475" 
d="M332 759h57q-2 -58 -26 -92t-63 -34q-33 0 -69 23q-35 22 -56 22q-28 0 -33 -44h-58q3 56 26.5 91t62.5 35q29 0 70 -24q38 -22 57 -22q15 0 22 10.5t10 34.5zM235 425l-40 -202h78l-36 202h-2zM321 0l-23 102h-126l-21 -102h-153l148 583h186l145 -583h-156z" />
    <glyph glyph-name="udieresis.sc" horiz-adv-x="524" 
d="M430 714q0 -35 -21 -58.5t-53 -23.5q-33 0 -53.5 23t-20.5 59q0 34 21 58t53 24t53 -24t21 -58zM246 714q0 -35 -21 -58.5t-53 -23.5q-33 0 -53.5 23t-20.5 59q0 34 21 58t53 24t53 -24t21 -58zM260 -16q-107 0 -157.5 65.5t-50.5 169.5v364h159v-351q0 -99 52 -99
q29 0 41 24t12 75v351h156v-364q0 -104 -52 -169.5t-160 -65.5z" />
    <glyph glyph-name="macron.sc" 
d="M284 661h-294v77h294v-77z" />
    <glyph glyph-name="ubreve.sc" horiz-adv-x="524" 
d="M336 768h78q-11 -139 -150 -139q-61 0 -101.5 33t-46.5 106h78q4 -29 26 -44q20 -12 44 -12q63 0 72 56zM260 -16q-107 0 -157.5 65.5t-50.5 169.5v364h159v-351q0 -99 52 -99q29 0 41 24t12 75v351h156v-364q0 -104 -52 -169.5t-160 -65.5z" />
    <glyph glyph-name="ccircumflex.sc" horiz-adv-x="450" 
d="M449 627h-108l-67 85l-66 -85h-107l115 144h119zM272 -16q-107 0 -173 87t-66 220q0 135 66 221.5t173 86.5q114 0 170 -70l-87 -113q-22 37 -73 37q-42 0 -67.5 -43.5t-25.5 -118.5q0 -73 25.5 -116t67.5 -43q48 0 71 44l91 -109q-65 -83 -172 -83z" />
    <glyph glyph-name="uhungarumlaut.sc" horiz-adv-x="524" 
d="M507 771l-112 -144h-103l90 144h125zM354 771l-112 -144h-103l90 144h125zM260 -16q-107 0 -157.5 65.5t-50.5 169.5v364h159v-351q0 -99 52 -99q29 0 41 24t12 75v351h156v-364q0 -104 -52 -169.5t-160 -65.5z" />
    <glyph glyph-name="dcroat.sc" horiz-adv-x="525" 
d="M220 350h72v-100h-72v-115h19q41 0 68.5 39t27.5 115q0 79 -27.5 119t-68.5 40h-19v-98zM60 250h-46v100h46v233h178q128 0 191 -78.5t63 -215.5q0 -134 -63 -211.5t-191 -77.5h-178v250z" />
    <glyph glyph-name="wcircumflex.sc" horiz-adv-x="748" 
d="M548 627h-108l-67 85l-66 -85h-107l115 144h119zM742 583l-128 -583h-172l-72 335h-2l-70 -335h-166l-126 583h173l56 -364h2l63 364h147l67 -364h2l54 364h172z" />
    <glyph glyph-name="eacute.sc" horiz-adv-x="416" 
d="M378 771l-112 -144h-108l90 144h130zM60 0v583h308v-135h-156v-86h143v-128h-143v-96h166v-138h-318z" />
    <glyph glyph-name="ycircumflex.sc" horiz-adv-x="446" 
d="M400 627h-108l-67 85l-66 -85h-107l115 144h119zM224 365h3l59 218h168l-154 -381v-202h-154v202l-154 381h171z" />
    <glyph glyph-name="breve.sc" 
d="M208 768h78q-11 -139 -150 -139q-61 0 -101.5 33t-46.5 106h78q4 -29 26 -44q19 -12 44 -12q63 0 72 56z" />
    <glyph glyph-name="zacute.sc" horiz-adv-x="403" 
d="M367 771l-112 -144h-108l90 144h130zM22 0v118l171 330h-156v135h340v-116l-170 -328h170v-139h-355z" />
    <glyph glyph-name="gcircumflex.sc" horiz-adv-x="500" 
d="M445 627h-108l-67 85l-66 -85h-107l115 144h119zM279 -16q-114 0 -180 86t-66 221q0 136 65.5 222t172.5 86q117 0 178 -78l-87 -114q-35 46 -81 46q-44 0 -68 -44t-24 -118t23 -119t66 -45q23 0 35 6v85h-63v134h202v-316q-69 -52 -173 -52z" />
    <glyph glyph-name="zdotaccent.sc" horiz-adv-x="403" 
d="M296 723q0 -39 -24 -65t-62 -26t-62 26t-24 65q0 38 24 65t62 27t62 -27t24 -65zM22 0v118l171 330h-156v135h340v-116l-170 -328h170v-139h-355z" />
    <glyph glyph-name="hbar.sc" horiz-adv-x="545" 
d="M217 351h111v59h-111v-59zM328 0v220h-111v-220h-157v583h157v-93h111v93h157v-583h-157z" />
    <glyph glyph-name="fl.sc" horiz-adv-x="775" 
d="M219 444v-89h139v-132h-139v-223h-159v583h310v-139h-151zM455 0v583h160v-441h155v-142h-315z" />
    <glyph glyph-name="icircumflex.sc" horiz-adv-x="279" 
d="M314 627h-108l-67 85l-66 -85h-107l115 144h119zM60 0v583h159v-583h-159z" />
    <glyph glyph-name="exclamdown.sc" horiz-adv-x="284" 
d="M229 506q0 -36 -25 -61.5t-62 -25.5q-38 0 -62.5 25t-24.5 62t24.5 61.5t62.5 24.5q37 0 62 -24.5t25 -61.5zM65 372h154v-372h-154v372z" />
    <glyph glyph-name="ring.sc" 
d="M191 718q0 28 -14.5 46.5t-39.5 18.5t-38.5 -18.5t-13.5 -46.5t13.5 -46.5t38.5 -18.5t39.5 18.5t14.5 46.5zM239 718q0 -48 -28.5 -78.5t-73.5 -30.5t-72.5 30.5t-27.5 78.5t27.5 78.5t72.5 30.5t73.5 -30.5t28.5 -78.5z" />
    <glyph glyph-name="Euro.sc" horiz-adv-x="478" 
d="M453 576l-33 -123q-38 17 -80 17q-31 0 -54.5 -15.5t-32.5 -44.5h163l-28 -99h-155q-1 -8 -1 -19q0 -8 1 -19h153l-25 -97h-112q8 -26 32 -42t54 -16q43 0 86 22l19 -131q-45 -25 -119 -25q-89 0 -148.5 51.5t-80.5 140.5h-69l26 97h33q-1 11 -1 19q0 11 1 19h-58l26 99
h44q24 92 88 140.5t156 48.5q67 0 115 -23z" />
    <glyph glyph-name="lacute.sc" horiz-adv-x="380" 
d="M303 771l-112 -144h-108l90 144h130zM60 0v583h160v-441h155v-142h-315z" />
    <glyph glyph-name="sterling.sc" horiz-adv-x="478" 
d="M439 551l-75 -116q-23 23 -48 23q-50 0 -50 -71v-26h93v-117h-93v-108h145v-136h-361v136h63v108h-61v117h61v37q0 49 16.5 92t60.5 76t110 33q81 0 139 -48z" />
    <glyph glyph-name="nacute.sc" horiz-adv-x="544" 
d="M434 771l-112 -144h-108l90 144h130zM484 0h-160l-125 326h-4l5 -326h-140v583h161l130 -324h3l-4 324h134v-583z" />
    <glyph glyph-name="yen.sc" horiz-adv-x="478" 
d="M362 362h59v-104h-110v-43h110v-102h-110v-113h-155v113h-106v102h106v43h-106v104h61l-100 221h162l64 -210h2l61 210h160z" />
    <glyph glyph-name="ncommaaccent.sc" horiz-adv-x="544" 
d="M484 0h-160l-125 326h-4l5 -326h-140v583h161l130 -324h3l-4 324h134v-583zM343 -45l-62 -187h-105l50 187h117z" />
    <glyph glyph-name="perthousand.sc" horiz-adv-x="947" 
d="M245 -21l-86 30l260 602l85 -32zM785 211q-26 0 -26 -64q0 -66 26 -66t26 66q0 64 -26 64zM785 -15q-61 0 -96 45t-35 116q0 69 35 115t96 46t96.5 -46t35.5 -115q0 -70 -35.5 -115.5t-96.5 -45.5zM161 503q-24 0 -24 -65t24 -65q27 0 27 65t-27 65zM161 276
q-61 0 -95.5 46t-34.5 115q0 70 34.5 115.5t95.5 45.5q62 0 96.5 -45.5t34.5 -115.5q0 -69 -35 -115t-96 -46zM500 211q-26 0 -26 -64q0 -66 26 -66q27 0 27 66q0 64 -27 64zM500 -15q-61 0 -95.5 45t-34.5 116q0 70 34.5 115.5t95.5 45.5q62 0 97 -46t35 -115
q0 -71 -35 -116t-97 -45z" />
    <glyph glyph-name="hungarumlaut.sc" 
d="M337 771l-112 -144h-103l90 144h125zM184 771l-112 -144h-103l90 144h125z" />
    <glyph glyph-name="one.onum" horiz-adv-x="441" 
d="M185 0v400l-78 -56l-72 117l172 122h133v-583h-155z" />
    <glyph glyph-name="ohungarumlaut.sc" horiz-adv-x="542" 
d="M510 771l-112 -144h-103l90 144h125zM357 771l-112 -144h-103l90 144h125zM271 134q36 0 57 42.5t21 116.5t-21 116t-57 42t-57 -42t-21 -116t21 -116.5t57 -42.5zM271 599q111 0 174.5 -84.5t63.5 -221.5t-64 -223t-174 -86t-174 86t-64 223t63.5 221.5t174.5 84.5z" />
    <glyph glyph-name="three.onum" horiz-adv-x="487" 
d="M80 174l-23 116q82 59 195 151v4h-202v139h382v-150q-93 -82 -174 -139v-3q14 2 20 2q71 0 123 -52.5t52 -146.5q0 -66 -24 -117t-65 -80t-89 -43.5t-102 -14.5q-69 0 -120 11l15 141q40 -10 91 -10q60 0 98 28.5t38 83.5q0 47 -32 71.5t-85 24.5q-56 0 -98 -16z" />
    <glyph glyph-name="c.sc" horiz-adv-x="450" 
d="M272 -16q-107 0 -173 87t-66 220q0 135 66 221.5t173 86.5q114 0 170 -70l-87 -113q-22 37 -73 37q-42 0 -67.5 -43.5t-25.5 -118.5q0 -73 25.5 -116t67.5 -43q48 0 71 44l91 -109q-65 -83 -172 -83z" />
    <glyph glyph-name="scircumflex.sc" horiz-adv-x="400" 
d="M398 627h-108l-67 85l-66 -85h-107l115 144h119zM384 532l-84 -115q-34 42 -77 42q-45 0 -45 -45q0 -20 14 -32.5t51 -29.5q130 -61 130 -174q0 -92 -56 -143t-137 -51q-106 0 -182 74l82 116q48 -48 95 -48q19 0 32 12t13 32q0 25 -19 39.5t-62 34.5q-51 24 -82 61.5
t-31 103.5q0 93 58 141.5t134 48.5q105 0 166 -67z" />
    <glyph glyph-name="j.sc" horiz-adv-x="382" 
d="M149 -16q-70 0 -115 37.5t-60 103.5l131 54q5 -48 35 -48q20 0 26.5 15t6.5 51v386h157v-397q0 -95 -45 -148.5t-136 -53.5z" />
    <glyph glyph-name="germandbls.sc" horiz-adv-x="800" 
d="M784 532l-84 -115q-34 42 -77 42q-45 0 -45 -45q0 -20 14 -32.5t51 -29.5q130 -61 130 -174q0 -92 -56 -143t-137 -51q-106 0 -182 74l82 116q48 -48 95 -48q19 0 32 12t13 32q0 25 -19 39.5t-62 34.5q-51 24 -82 61.5t-31 103.5q0 93 58 141.5t134 48.5q105 0 166 -67z
M384 532l-84 -115q-34 42 -77 42q-45 0 -45 -45q0 -20 14 -32.5t51 -29.5q130 -61 130 -174q0 -92 -56 -143t-137 -51q-106 0 -182 74l82 116q48 -48 95 -48q19 0 32 12t13 32q0 25 -19 39.5t-62 34.5q-51 24 -82 61.5t-31 103.5q0 93 58 141.5t134 48.5q105 0 166 -67z" />
    <glyph glyph-name="dotaccent.sc" 
d="M223 723q0 -39 -24 -65t-62 -26t-62 26t-24 65q0 38 24 65t62 27t62 -27t24 -65z" />
    <glyph glyph-name="thorn.sc" horiz-adv-x="463" 
d="M249 365h-33v-125h33q22 0 37 16t15 46q0 31 -14.5 47t-37.5 16zM263 113h-47v-113h-156v583h156v-86h42q77 0 134 -47t57 -145q0 -93 -55 -142.5t-131 -49.5z" />
    <glyph glyph-name="z.sc" horiz-adv-x="403" 
d="M22 0v118l171 330h-156v135h340v-116l-170 -328h170v-139h-355z" />
    <glyph glyph-name="utilde.sc" horiz-adv-x="524" 
d="M359 759h57q-2 -58 -26 -92t-63 -34q-33 0 -69 23q-35 22 -56 22q-28 0 -33 -44h-58q3 56 26.5 91t62.5 35q30 0 70 -24q38 -22 57 -22q15 0 22 10.5t10 34.5zM260 -16q-107 0 -157.5 65.5t-50.5 169.5v364h159v-351q0 -99 52 -99q29 0 41 24t12 75v351h156v-364
q0 -104 -52 -169.5t-160 -65.5z" />
    <glyph glyph-name="aogonek.sc" horiz-adv-x="475" 
d="M235 425l-40 -202h78l-36 202h-2zM405 -130l31 -66q-50 -40 -111 -40q-42 0 -73 22t-31 69q0 66 100 145l-23 102h-126l-21 -102h-153l148 583h186l145 -583h-59q-53 -45 -74.5 -71.5t-21.5 -48.5q0 -31 29 -31t54 21z" />
    <glyph glyph-name="uring.sc" horiz-adv-x="524" 
d="M316 718q0 28 -14.5 46.5t-39.5 18.5t-38.5 -18.5t-13.5 -46.5t13.5 -46.5t38.5 -18.5t39.5 18.5t14.5 46.5zM364 718q0 -48 -28.5 -78.5t-73.5 -30.5t-72.5 30.5t-27.5 78.5t27.5 78.5t72.5 30.5t73.5 -30.5t28.5 -78.5zM260 -16q-107 0 -157.5 65.5t-50.5 169.5v364
h159v-351q0 -99 52 -99q29 0 41 24t12 75v351h156v-364q0 -104 -52 -169.5t-160 -65.5z" />
    <glyph glyph-name="a.sc" horiz-adv-x="475" 
d="M235 425l-40 -202h78l-36 202h-2zM321 0l-23 102h-126l-21 -102h-153l148 583h186l145 -583h-156z" />
    <glyph glyph-name="yacute.sc" horiz-adv-x="446" 
d="M385 771l-112 -144h-108l90 144h130zM224 365h3l59 218h168l-154 -381v-202h-154v202l-154 381h171z" />
    <glyph glyph-name="iogonek.sc" horiz-adv-x="279" 
d="M60 0v583h159v-583q-53 -45 -74.5 -71.5t-21.5 -48.5q0 -31 29 -31q28 0 54 21l31 -66q-50 -40 -111 -40q-42 0 -73 22t-31 69q0 66 100 145h-62z" />
    <glyph glyph-name="zcaron.sc" horiz-adv-x="403" 
d="M33 771h108l67 -85l66 85h107l-115 -144h-119zM22 0v118l171 330h-156v135h340v-116l-170 -328h170v-139h-355z" />
    <glyph glyph-name="hcircumflex.sc" horiz-adv-x="545" 
d="M448 627h-108l-67 85l-66 -85h-107l115 144h119zM328 0v234h-111v-234h-157v583h157v-212h111v212h157v-583h-157z" />
    <glyph glyph-name="ij.sc" horiz-adv-x="672" 
d="M439 -16q-70 0 -115 37.5t-60 103.5l131 54q5 -48 35 -48q20 0 26.5 15t6.5 51v386h157v-397q0 -95 -45 -148.5t-136 -53.5zM60 0v583h159v-583h-159z" />
    <glyph glyph-name="odieresis.sc" horiz-adv-x="542" 
d="M437 714q0 -35 -21 -58.5t-53 -23.5q-33 0 -53.5 23t-20.5 59q0 34 21 58t53 24t53 -24t21 -58zM253 714q0 -35 -21 -58.5t-53 -23.5q-33 0 -53.5 23t-20.5 59q0 34 21 58t53 24t53 -24t21 -58zM271 134q36 0 57 42.5t21 116.5t-21 116t-57 42t-57 -42t-21 -116
t21 -116.5t57 -42.5zM271 599q111 0 174.5 -84.5t63.5 -221.5t-64 -223t-174 -86t-174 86t-64 223t63.5 221.5t174.5 84.5z" />
    <glyph glyph-name="cent.sc" horiz-adv-x="478" 
d="M307 583v-53q65 -10 99 -49l-63 -120q-19 30 -51 30q-30 0 -49 -34t-19 -95q0 -60 19 -94t52 -34q32 0 50 31l63 -119q-36 -42 -101 -53v-56h-64v57q-81 13 -126 86q-44 71 -44 182q0 108 44.5 179.5t125.5 87.5v54h64z" />
    <glyph glyph-name="lslash.sc" horiz-adv-x="380" 
d="M60 163l-54 -42v142l54 41v279h160v-156l102 79v-141l-102 -79v-144h155v-142h-315v163z" />
    <glyph glyph-name="ordfeminine.sc" horiz-adv-x="320" 
d="M159 633l-25 -113h50l-23 113h-2zM213 395l-14 56h-79l-14 -56h-99l93 326h123l92 -326h-102z" />
    <glyph glyph-name="s.sc" horiz-adv-x="400" 
d="M384 532l-84 -115q-34 42 -77 42q-45 0 -45 -45q0 -20 14 -32.5t51 -29.5q130 -61 130 -174q0 -92 -56 -143t-137 -51q-106 0 -182 74l82 116q48 -48 95 -48q19 0 32 12t13 32q0 25 -19 39.5t-62 34.5q-51 24 -82 61.5t-31 103.5q0 93 58 141.5t134 48.5q105 0 166 -67z
" />
    <glyph glyph-name="two.onum" horiz-adv-x="515" 
d="M59 0v140q151 110 202.5 158t51.5 95q0 34 -17 52t-44 18q-55 0 -79 -67l-131 43q26 74 81 117t133 43q95 0 151.5 -49.5t56.5 -140.5q0 -43 -15 -80.5t-49 -73t-61 -57.5t-78 -59v-3h204v-136h-406z" />
    <glyph glyph-name="b.sc" horiz-adv-x="501" 
d="M379 305v-2q86 -29 86 -132q0 -88 -54.5 -129.5t-130.5 -41.5h-220v583h201q25 0 48.5 -3.5t49.5 -14.5t45.5 -27.5t32 -45.5t12.5 -67q0 -83 -70 -120zM260 241h-52v-111h54q26 0 42 13.5t16 39.5q0 30 -17.5 44t-42.5 14zM255 453h-47v-96h48q23 0 38.5 12.5t15.5 37.5
q0 46 -55 46z" />
    <glyph glyph-name="scedilla.sc" horiz-adv-x="400" 
d="M384 532l-84 -115q-34 42 -77 42q-45 0 -45 -45q0 -20 14 -32.5t51 -29.5q130 -61 130 -174q0 -79 -42.5 -128t-109.5 -62l-37 -49q5 2 23 2q36 0 62.5 -18.5t26.5 -61.5q0 -52 -42 -74.5t-94 -22.5q-65 0 -110 22l24 62q36 -17 77 -17q48 0 48 32q0 27 -42 27
q-22 0 -44 -9l-31 28l56 79q-83 13 -140 70l82 116q48 -48 95 -48q19 0 32 12t13 32q0 25 -19 39.5t-62 34.5q-51 24 -82 61.5t-31 103.5q0 93 58 141.5t134 48.5q105 0 166 -67z" />
    <glyph glyph-name="emacron.sc" horiz-adv-x="416" 
d="M361 661h-294v77h294v-77zM60 0v583h308v-135h-156v-86h143v-128h-143v-96h166v-138h-318z" />
    <glyph glyph-name="uacute.sc" horiz-adv-x="524" 
d="M426 771l-112 -144h-108l90 144h130zM260 -16q-107 0 -157.5 65.5t-50.5 169.5v364h159v-351q0 -99 52 -99q29 0 41 24t12 75v351h156v-364q0 -104 -52 -169.5t-160 -65.5z" />
    <glyph glyph-name="abreve.sc" horiz-adv-x="475" 
d="M307 768h78q-11 -139 -150 -139q-61 0 -101.5 33t-46.5 106h78q4 -29 26 -44q19 -12 44 -12q63 0 72 56zM235 425l-40 -202h78l-36 202h-2zM321 0l-23 102h-126l-21 -102h-153l148 583h186l145 -583h-156z" />
    <glyph glyph-name="dcaron.sc" horiz-adv-x="525" 
d="M75 771h108l67 -85l66 85h107l-115 -144h-119zM220 448v-313h19q41 0 68.5 39t27.5 115q0 79 -27.5 119t-68.5 40h-19zM60 0v583h178q128 0 191 -78.5t63 -215.5q0 -134 -63 -211.5t-191 -77.5h-178z" />
    <glyph glyph-name="idotaccent.sc" horiz-adv-x="279" 
d="M223 723q0 -39 -24 -65t-62 -26t-62 26t-24 65q0 38 24 65t62 27t62 -27t24 -65zM60 0v583h159v-583h-159z" />
    <glyph glyph-name="fi.sc" horiz-adv-x="674" 
d="M219 444v-89h139v-132h-139v-223h-159v583h310v-139h-151zM455 0v583h159v-583h-159z" />
    <glyph glyph-name="otilde.sc" horiz-adv-x="542" 
d="M366 759h57q-2 -58 -26 -92t-63 -34q-33 0 -69 23q-35 22 -56 22q-28 0 -33 -44h-58q3 56 26.5 91t62.5 35q29 0 70 -24q38 -22 57 -22q15 0 22 10.5t10 34.5zM271 134q36 0 57 42.5t21 116.5t-21 116t-57 42t-57 -42t-21 -116t21 -116.5t57 -42.5zM271 599
q111 0 174.5 -84.5t63.5 -221.5t-64 -223t-174 -86t-174 86t-64 223t63.5 221.5t174.5 84.5z" />
    <glyph glyph-name="florin.sc" horiz-adv-x="478" 
d="M453 573l-41 -125q-17 17 -41 17q-37 0 -46 -51l-8 -44h81v-115h-101l-40 -223q-12 -67 -51.5 -107.5t-107.5 -40.5q-54 0 -88 13l35 131q17 -11 31 -11q13 0 20.5 8.5t10 17.5t5.5 29l31 183h-74v115h87q7 42 13 68t20 60t33 53.5t51.5 33.5t75.5 14q60 0 104 -26z" />
    <glyph glyph-name="r.sc" horiz-adv-x="492" 
d="M252 452h-39v-115h37q26 0 43.5 14.5t17.5 44.5q0 56 -59 56zM317 0l-76 223h-28v-223h-153v583h200q92 0 145 -46.5t53 -133.5q0 -54 -24 -93t-55 -56l101 -254h-163z" />
    <glyph glyph-name="rcaron.sc" horiz-adv-x="492" 
d="M81 771h108l67 -85l66 85h107l-115 -144h-119zM252 452h-39v-115h37q26 0 43.5 14.5t17.5 44.5q0 56 -59 56zM317 0l-76 223h-28v-223h-153v583h200q92 0 145 -46.5t53 -133.5q0 -54 -24 -93t-55 -56l101 -254h-163z" />
    <glyph glyph-name="edotaccent.sc" horiz-adv-x="416" 
d="M303 723q0 -39 -24 -65t-62 -26t-62 26t-24 65q0 38 24 65t62 27t62 -27t24 -65zM60 0v583h308v-135h-156v-86h143v-128h-143v-96h166v-138h-318z" />
    <glyph glyph-name="umacron.sc" horiz-adv-x="524" 
d="M411 661h-294v77h294v-77zM260 -16q-107 0 -157.5 65.5t-50.5 169.5v364h159v-351q0 -99 52 -99q29 0 41 24t12 75v351h156v-364q0 -104 -52 -169.5t-160 -65.5z" />
    <glyph glyph-name="questiondown.sc" horiz-adv-x="388" 
d="M106 513q0 37 25 61.5t62 24.5q38 0 62.5 -24.5t24.5 -61.5t-24.5 -62t-62.5 -25q-37 0 -62 25.5t-25 61.5zM101 310q20 17 26 28.5t6 29.5v11h132v-22q0 -72 -57 -125q-42 -37 -42 -63q0 -44 36 -44q39 0 44 65l132 -22q-9 -78 -55.5 -127.5t-128.5 -49.5
q-79 0 -126.5 45t-47.5 124q0 50 20 83t61 67z" />
    <glyph glyph-name="zero.onum" horiz-adv-x="552" 
d="M276 134q36 0 57 42.5t21 116.5t-21 116t-57 42t-57 -42t-21 -116t21 -116.5t57 -42.5zM276 599q111 0 174.5 -84.5t63.5 -221.5t-64 -223t-174 -86t-174 86t-64 223t63.5 221.5t174.5 84.5z" />
    <glyph glyph-name="tcommaaccent.sc" horiz-adv-x="367" 
d="M260 451v-451h-153v451h-108v132h369v-132h-108zM242 -45l-62 -187h-105l50 187h117z" />
    <glyph glyph-name="ydieresis.sc" horiz-adv-x="446" 
d="M392 714q0 -35 -21 -58.5t-53 -23.5q-33 0 -53.5 23t-20.5 59q0 34 21 58t53 24t53 -24t21 -58zM208 714q0 -35 -21 -58.5t-53 -23.5q-33 0 -53.5 23t-20.5 59q0 34 21 58t53 24t53 -24t21 -58zM224 365h3l59 218h168l-154 -381v-202h-154v202l-154 381h171z" />
    <glyph glyph-name="ampersand.sc" horiz-adv-x="532" 
d="M253 135l-68 97q-26 -19 -26 -57q0 -31 14 -48t38 -17q29 0 42 25zM243 491q-16 0 -25.5 -13.5t-9.5 -34.5q0 -32 23 -64q18 10 31 27.5t13 36.5q0 48 -32 48zM356 0l-27 38q-54 -54 -127 -54q-83 0 -130.5 46.5t-47.5 131.5q0 111 93 163q-40 53 -40 117q0 73 45.5 115
t118.5 42q70 0 113 -40t43 -111q0 -88 -104 -153l36 -49l33 70h146l-92 -167l116 -149h-176z" />
    <glyph glyph-name="percent.sc" horiz-adv-x="662" 
d="M245 -21l-86 30l260 602l85 -32zM161 503q-24 0 -24 -65t24 -65q27 0 27 65t-27 65zM161 276q-61 0 -95.5 46t-34.5 115q0 70 34.5 115.5t95.5 45.5q62 0 96.5 -45.5t34.5 -115.5q0 -69 -35 -115t-96 -46zM500 211q-26 0 -26 -64q0 -66 26 -66q27 0 27 66q0 64 -27 64z
M500 -15q-61 0 -95.5 45t-34.5 116q0 70 34.5 115.5t95.5 45.5q62 0 97 -46t35 -115q0 -71 -35 -116t-97 -45z" />
    <glyph glyph-name="dollar.sc" horiz-adv-x="478" 
d="M199 -67v67q-89 7 -154 69l78 111q49 -46 91 -46q19 0 31 11t12 31q0 13 -4.5 22.5t-19.5 19.5t-22 13.5l-32 15.5q-48 23 -77.5 58.5t-29.5 98.5q0 72 38 117.5t94 58.5v67h75v-64q87 -8 134 -61l-80 -110q-31 40 -73 40q-43 0 -43 -43q0 -18 12.5 -29.5t49.5 -29.5
q33 -16 56 -32t45.5 -52t22.5 -82q0 -71 -36 -118t-93 -63v-70h-75z" />
    <glyph glyph-name="exclam.sc" horiz-adv-x="284" 
d="M229 77q0 -37 -25 -61.5t-62 -24.5q-38 0 -62.5 24.5t-24.5 61.5t24.5 62t62.5 25q37 0 62 -25.5t25 -61.5zM65 211v372h154v-372h-154z" />
    </font>
</defs>
</svg>
