<?xml version="1.0" encoding="utf-8"?>
<!-- Generator: Adobe Illustrator 20.0.0, SVG Export Plug-In . SVG Version: 6.00 Build 0)  -->
<svg version="1.1" id="Layer_1" xmlns="http://www.w3.org/2000/svg" xmlns:xlink="http://www.w3.org/1999/xlink" x="0px" y="0px"
	 viewBox="0 0 64 64" style="enable-background:new 0 0 64 64;" xml:space="preserve">
<path d="M48.9,6.2L48.9,6.2C48.9,6.2,48.9,6.2,48.9,6.2c-5.1-3.3-11.2-5.2-17.7-5C14.6,1.5,1.2,15.2,1,31.8
	C0.9,49.1,15,63.2,32.3,63c16.6-0.2,30.3-13.7,30.6-30.3C63.1,21.6,57.5,11.8,48.9,6.2z M36.3,5.9c1.1,0.2,1.5,1.5,0.7,2.2
	c-0.3,0.3-0.6,0.6-0.8,0.9c-1.9,2.2-2.8,5.3-2.8,9.1V26c0,0.8-0.6,1.4-1.4,1.4h-2.6c-0.8,0-1.4-0.6-1.4-1.4V7c0-0.7,0.5-1.3,1.2-1.3
	C30.1,5.6,31,5.5,32,5.5C33.5,5.5,34.9,5.7,36.3,5.9z M5.5,32.1c0-10.8,6.5-20.1,15.8-24.2c0.9-0.4,1.8,0.3,1.8,1.2v46.1
	c0,0.9-1,1.6-1.8,1.2C12,52.2,5.5,42.9,5.5,32.1z M28,57.1V32.8c0-0.7,0.6-1.3,1.3-1.3H32c0.7,0,1.3,0.6,1.3,1.3v24.4
	c0,0.7-0.6,1.3-1.3,1.3c0,0,0,0,0,0c-0.9,0-1.9,0-2.8-0.1C28.5,58.4,28,57.8,28,57.1z M38.2,56.1V33.5c0-1.1,0.9-2,2-2h4.6
	c0.8,0,1.4-0.6,1.4-1.4v-1.4c0-0.8-0.6-1.4-1.4-1.4h-4.4c-1.2,0-2.2-1-2.2-2.2v-6.5c0-1.2,0.1-2.3,0.3-3.4c0.2-1.1,0.5-2,0.9-2.8
	c0.5-0.8,1.1-1.4,2-1.8c0.8-0.4,1.9-0.7,3.2-0.7c0.7,0,1.3,0,1.8,0.1l0,0c0.4,0.1,0.8,0.2,1.2,0.5c6.6,4.8,10.9,12.6,10.9,21.4
	c0,11.9-7.8,21.9-18.6,25.3C39.1,57.6,38.2,57,38.2,56.1z"/>
</svg>
