<?xml version="1.0" encoding="utf-8"?>
<!-- Generator: Adobe Illustrator 20.0.0, SVG Export Plug-In . SVG Version: 6.00 Build 0)  -->
<svg version="1.1" id="Layer_1" xmlns="http://www.w3.org/2000/svg" xmlns:xlink="http://www.w3.org/1999/xlink" x="0px" y="0px"
	 viewBox="0 0 100 100" style="enable-background:new 0 0 100 100;" xml:space="preserve">
<style type="text/css">
	.st0{fill:#F3F3F3;}
</style>
<path class="st0" d="M76.6,9.1L76.6,9.1C76.6,9.1,76.6,9.1,76.6,9.1c-8-5.2-17.6-8.2-27.8-7.9C22.6,1.8,1.6,23.3,1.3,49.4
	C1.1,76.6,23.2,98.7,50.4,98.5C76.6,98.3,98.1,77,98.6,50.8C99,33.4,90.1,18,76.6,9.1z M56.8,8.7c1.7,0.3,2.3,2.4,1.1,3.5
	c-0.5,0.4-0.9,0.9-1.3,1.4c-3,3.5-4.4,8.3-4.4,14.3v12.4c0,1.2-1,2.2-2.2,2.2h-4.1c-1.2,0-2.2-1-2.2-2.2V10.4c0-1.1,0.8-2,1.9-2.1
	C47,8.2,48.5,8.1,50,8.1C52.3,8.1,54.6,8.3,56.8,8.7z M8.3,49.8c0-17,10.2-31.6,24.8-38.1c1.4-0.6,2.9,0.4,2.9,1.9l0,72.5
	c0,1.5-1.5,2.5-2.8,1.9C18.5,81.5,8.3,66.8,8.3,49.8z M43.7,89.2V51c0-1.1,0.9-2,2-2H50c1.2,0,2.1,0.9,2.1,2.1v38.4
	c0,1.2-0.9,2.1-2.1,2.1c0,0,0,0,0,0c-1.5,0-2.9-0.1-4.4-0.2C44.5,91.2,43.7,90.3,43.7,89.2z M59.8,87.7V52.1c0-1.7,1.4-3.2,3.2-3.2
	h7.2c1.2,0,2.1-1,2.1-2.1v-2.2c0-1.2-1-2.2-2.2-2.2h-7c-1.9,0-3.4-1.5-3.4-3.4V28.8c0-1.9,0.1-3.7,0.4-5.4c0.3-1.7,0.8-3.1,1.5-4.4
	c0.7-1.3,1.7-2.2,3.1-2.9c1.3-0.7,3-1,5.1-1c1.1,0,2,0.1,2.8,0.2l0,0c0.7,0.1,1.3,0.4,1.8,0.8C84.9,23.7,91.7,36,91.7,49.8
	c0,18.7-12.3,34.5-29.2,39.8C61.2,90.1,59.8,89.1,59.8,87.7z"/>
</svg>
