<?xml version="1.0" encoding="utf-8"?>
<!-- Generator: Adobe Illustrator 20.0.0, SVG Export Plug-In . SVG Version: 6.00 Build 0)  -->
<svg version="1.1" id="Layer_1" xmlns="http://www.w3.org/2000/svg" xmlns:xlink="http://www.w3.org/1999/xlink" x="0px" y="0px"
	 viewBox="0 0 1440 1432" style="enable-background:new 0 0 1440 1432;" xml:space="preserve">
<style type="text/css">
	.st0{clip-path:url(#SVGID_2_);}
	.st1{clip-path:url(#SVGID_4_);}
</style>
<g>
	<g>
		<defs>
			<rect id="SVGID_1_" width="1440" height="1432"/>
		</defs>
		<clipPath id="SVGID_2_">
			<use xlink:href="#SVGID_1_"  style="overflow:visible;"/>
		</clipPath>
		<path class="st0" d="M465.6,1328.2c0,12.4-12.8,21-24.1,15.9c-162.4-73-290.8-205.9-357.8-371.6c-140-346.1,20-739,357.8-890.5
			c11.3-5.1,24.1,3.5,24.1,15.9V1328.2z"/>
	</g>
	<g>
		<defs>
			<rect id="SVGID_3_" width="1440" height="1432"/>
		</defs>
		<clipPath id="SVGID_4_">
			<use xlink:href="#SVGID_3_"  style="overflow:visible;"/>
		</clipPath>
		<path class="st1" d="M967.1,453.7H655.8c-9.5,0-17.3-7.7-17.3-17.3V42.3c0-8.8,6.7-16.4,15.5-17.3c52.4-5.4,105.2-4.8,157.5,1.8
			c379.1,47.8,647.7,393.8,599.9,772.9C1364.3,1173.6,1027,1440,654,1401.4c-8.8-0.9-15.5-8.5-15.5-17.3V989.8
			c0-9.5,7.7-17.3,17.3-17.3h311.3c9.5,0,17.3-7.7,17.3-17.3V816.9c0-9.5-7.7-17.3-17.3-17.3H655.8c-9.5,0-17.3-7.7-17.3-17.3V643.9
			c0-9.5,7.7-17.3,17.3-17.3h311.3c9.5,0,17.3-7.7,17.3-17.3V471C984.4,461.4,976.7,453.7,967.1,453.7"/>
	</g>
	<g>
		<defs>
			<rect id="SVGID_5_" width="1440" height="1432"/>
		</defs>
		<clipPath id="SVGID_6_">
			<use xlink:href="#SVGID_5_"  style="overflow:visible;"/>
		</clipPath>
	</g>
	<g>
		<defs>
			<rect id="SVGID_7_" width="1440" height="1432"/>
		</defs>
		<clipPath id="SVGID_8_">
			<use xlink:href="#SVGID_7_"  style="overflow:visible;"/>
		</clipPath>
	</g>
</g>
</svg>
