<?xml version="1.0" encoding="utf-8"?>
<!-- Generator: Adobe Illustrator 20.0.0, SVG Export Plug-In . SVG Version: 6.00 Build 0)  -->
<svg version="1.1" id="Layer_1" xmlns="http://www.w3.org/2000/svg" xmlns:xlink="http://www.w3.org/1999/xlink" x="0px" y="0px"
	 viewBox="0 0 129.6 131.1" style="enable-background:new 0 0 129.6 131.1;" xml:space="preserve">
<style type="text/css">
	.st0{fill:#424142;}
	.st1{clip-path:url(#SVGID_2_);fill:#424142;}
	.st2{clip-path:url(#SVGID_4_);fill:#424142;}
	.st3{fill:#00B7DF;}
	.st4{fill:#0D539C;}
	.st5{clip-path:url(#SVGID_6_);fill:#424142;}
	.st6{clip-path:url(#SVGID_8_);fill:#424142;}
	.st7{clip-path:url(#SVGID_10_);fill:#0D539C;}
	.st8{clip-path:url(#SVGID_12_);fill:#0D539C;}
	.st9{clip-path:url(#SVGID_14_);fill:#0D539C;}
</style>
<g>
	<path class="st0" d="M46.6,66.4c-0.1-0.3-0.3-0.6-0.5-0.9c-0.7-1-1.7-1.3-2.9-1.1c-1.1,0.2-1.8,1-2.4,1.9v0.1
		C42.7,66.4,44.6,66.4,46.6,66.4L46.6,66.4z M50.1,68.2c0,0.3,0,0.5,0,0.8c0,0.2-0.1,0.2-0.2,0.2c-2.2,0-4.4,0-6.6,0
		c-0.9,0-1.8,0-2.7,0c-0.2,0-0.2,0-0.1,0.2c0.2,0.7,0.5,1.3,0.9,1.8c0.5,0.5,1.2,0.8,1.9,0.9c0.5,0,1,0,1.5-0.1
		c0.7-0.2,1.2-0.7,1.6-1.3c0.1-0.1,0.1-0.1,0.2-0.1c0.9,0.4,1.7,0.8,2.6,1.3c0.2,0.1,0.2,0.1,0.1,0.3c-0.8,1.4-1.9,2.3-3.4,2.8
		c-2.4,0.7-4.6,0.4-6.7-1.1c-1.3-1-2-2.3-2.3-3.8c-0.3-1.6-0.2-3.1,0.4-4.6c0.7-1.6,1.9-2.7,3.4-3.3c1.1-0.4,2.1-0.6,3.3-0.6
		c0.9,0,1.8,0.2,2.6,0.6c1.6,0.7,2.6,1.9,3.1,3.5C50,66.4,50.1,67.3,50.1,68.2L50.1,68.2z"/>
	<path class="st0" d="M86.2,69.9L86.2,69.9c-0.4,0-0.9,0-1.3,0c-0.1,0-0.2,0-0.2,0.2c0,0.7,0,1.3,0,2c0,0.1,0,0.2,0.2,0.2
		c0.8,0,1.7,0,2.5,0c0.1,0,0.3,0,0.4-0.1c0.5-0.1,0.8-0.6,0.7-1.2c0-0.5-0.4-1.1-1.1-1.1C87.1,69.9,86.6,69.9,86.2,69.9L86.2,69.9z
		 M84.8,67c0.7,0,1.5,0,2.2,0c0.3,0,0.6-0.1,0.8-0.4c0.3-0.4,0.3-0.8,0.1-1.2c-0.2-0.4-0.6-0.6-1-0.6c-0.6,0-1.3,0-1.9,0
		c-0.2,0-0.2,0.1-0.2,0.2C84.8,65.6,84.8,66.3,84.8,67C84.7,67,84.8,67,84.8,67L84.8,67z M81.4,68.5c0-2.2,0-4.4,0-6.6
		c0-0.2,0-0.2,0.2-0.2c1.8,0,3.7,0,5.5,0c1,0,2,0.3,2.8,0.9c0.9,0.7,1.4,1.6,1.5,2.7c0.2,1.1-0.1,2.1-1,2.9c-0.1,0.1-0.1,0.1,0,0.2
		c1.3,0.7,1.6,1.9,1.5,3.3c-0.1,0.7-0.3,1.4-0.7,2c-0.6,0.9-1.4,1.4-2.3,1.6c-0.4,0.1-0.9,0.1-1.3,0.1c-2,0-4.1,0-6.1,0
		c-0.2,0-0.2,0-0.2-0.2C81.4,72.9,81.4,70.7,81.4,68.5L81.4,68.5L81.4,68.5z"/>
	<g>
		<g>
			<defs>
				<rect id="SVGID_1_" x="12.9" y="37.9" width="101.5" height="53.6"/>
			</defs>
			<clipPath id="SVGID_2_">
				<use xlink:href="#SVGID_1_"  style="overflow:visible;"/>
			</clipPath>
			<path class="st1" d="M55.8,68.5c0,0.1,0,0.1,0,0.2c0,2.1,0,4.2,0,6.3c0,0.2,0,0.2-0.2,0.2c-1.1,0-2.2,0-3.2,0
				c-0.2,0-0.2,0-0.2-0.2c0-4.4,0-8.9,0.1-13.3c0-0.2,0.1-0.2,0.2-0.2c0.3,0,0.6,0,0.9,0c0.1,0,0.2,0,0.3,0.1
				c2.2,2.2,4.4,4.3,6.6,6.5c0,0,0.1,0.1,0.1,0.2l0,0c0-0.1,0-0.1,0-0.2c0-2.1,0-4.2,0-6.3c0-0.2,0-0.2,0.2-0.2c1.1,0,2.1,0,3.2,0
				c0.2,0,0.2,0,0.2,0.2c0,4.4,0,8.9-0.1,13.3c0,0.1,0,0.2-0.2,0.2c-0.3,0-0.6,0-0.9,0c-0.1,0-0.2,0-0.3-0.1
				c-2.2-2.1-4.3-4.3-6.5-6.4C56,68.7,55.9,68.6,55.8,68.5L55.8,68.5L55.8,68.5z"/>
		</g>
		<g>
			<defs>
				<rect id="SVGID_3_" x="12.9" y="37.9" width="101.5" height="53.6"/>
			</defs>
			<clipPath id="SVGID_4_">
				<use xlink:href="#SVGID_3_"  style="overflow:visible;"/>
			</clipPath>
			<path class="st2" d="M105.7,68.5c0-2.2,0-4.4,0-6.6c0-0.2,0-0.2,0.2-0.2c2.7,0,5.4,0,8.1,0c0.2,0,0.2,0,0.2,0.2
				c0,0.9,0,1.8,0,2.7c0,0.1,0,0.2-0.2,0.2c-1.6,0-3.1,0-4.7,0c-0.2,0-0.2,0-0.2,0.2c0,0.5,0,1,0,1.5c0,0.1,0,0.2,0.2,0.2
				c1.4,0,2.8,0,4.3,0c0.2,0,0.2,0,0.2,0.2c0,0.9,0,1.8,0,2.7c0,0.2,0,0.2-0.2,0.2c-1.4,0-2.8,0-4.3,0c-0.2,0-0.2,0-0.2,0.2
				c0,0.7,0,1.4,0,2c0,0.2,0,0.2,0.2,0.2c1.6,0,3.2,0,4.8,0c0.2,0,0.2,0,0.2,0.2c0,0.9,0,1.8,0,2.7c0,0.1,0,0.2-0.2,0.2
				c-2.8,0-5.6,0-8.4,0c-0.1,0-0.2-0.1-0.2-0.2C105.6,73,105.6,70.8,105.7,68.5L105.7,68.5L105.7,68.5z"/>
		</g>
	</g>
	<path class="st0" d="M74.2,70.6c-0.5-1.2-1-2.4-1.6-3.6c-0.5,1.2-1,2.4-1.6,3.6C72.1,70.6,73.2,70.6,74.2,70.6L74.2,70.6z
		 M77.8,75.3c-0.5,0-1,0-1.5,0c-0.1,0-0.2,0-0.2-0.2c-0.2-0.5-0.4-0.9-0.6-1.4c-0.1-0.1-0.1-0.2-0.2-0.2c-1.7,0-3.4,0-5.1,0
		c-0.1,0-0.2,0-0.2,0.2c-0.2,0.5-0.4,0.9-0.7,1.4c0,0.1-0.1,0.2-0.2,0.2c-1,0-2.1,0-3.1,0c-0.1,0-0.2,0-0.2-0.2s0-0.5,0.2-0.7
		c2-4.3,4-8.6,6-12.8c0.1-0.1,0.1-0.2,0.3-0.2c0.4,0,0.8,0,1.1,0c0.1,0,0.2,0.1,0.2,0.2c2,4.4,4,8.7,6,13.1c0.1,0.2,0,0.4,0,0.6
		c0,0.1-0.1,0.1-0.1,0.1C78.9,75.3,78.4,75.3,77.8,75.3L77.8,75.3L77.8,75.3z"/>
	<path class="st3" d="M15.8,65.3c0,0.1,0,0.2,0.2,0.2c0.1,0,0.2,0,0.2,0c0.1,0.1,0.2,0,0.3-0.1c0.8-1.3,1.5-2.5,2.3-3.7
		c1-1.6,2-3.2,3-4.8c0.1-0.1,0.1-0.2,0-0.3c-0.5-0.5-0.7-1.1-0.4-1.8c0-0.1,0-0.1-0.1-0.2c-0.4-0.3-0.9-0.6-1.3-0.8
		c-0.6-0.4-1.3-0.8-1.9-1.2c-0.1,0-0.1-0.1-0.2,0c-0.2,0.2-0.5,0.4-0.8,0.4C17,53,17,53.1,17,53.2c0,0.6-0.1,1.3-0.2,1.9
		c-0.1,0.7-0.1,1.4-0.2,2.1c-0.1,0.7-0.1,1.3-0.2,2c-0.1,0.9-0.1,1.7-0.2,2.6c0,0.5-0.1,1-0.1,1.5C15.9,63.9,15.9,64.5,15.8,65.3
		L15.8,65.3z M28.6,44.4c0-0.1,0-0.1-0.1-0.1c-0.1-0.1-0.1-0.1-0.2-0.2c-0.1-0.2-0.2-0.1-0.3,0c-1.6,1.2-3.3,2.3-4.9,3.5
		c-1.7,1.2-3.3,2.3-5,3.5C18,51.2,18,51.2,18,51.4c0.1,0.3,0.1,0.5,0,0.8c-0.1,0.1,0,0.2,0.1,0.3c1.1,0.7,2.1,1.3,3.2,2
		c0.1,0.1,0.2,0.1,0.3,0c0.5-0.6,1.2-0.7,1.9-0.4c0.1,0.1,0.2,0,0.2-0.1c1.6-3.2,3.2-6.3,4.9-9.4C28.6,44.5,28.6,44.4,28.6,44.4
		L28.6,44.4z M22,56.8c-0.1,0-0.1,0.1-0.1,0.1c-1,1.7-2.1,3.3-3.1,5c-0.7,1.2-1.5,2.4-2.2,3.5c0,0.1-0.1,0.1,0,0.2
		c0.5,0.3,0.7,0.8,0.7,1.4c0,0.1,0,0.2,0.2,0.2c1.3,0.3,2.7,0.5,4,0.8c1.7,0.3,3.5,0.7,5.2,1c0.1,0,0.2,0,0.2-0.1
		c0.1-0.4,0.4-0.8,0.7-1.1c0.1-0.1,0.2-0.2,0.1-0.3c-0.8-1.9-1.6-3.8-2.4-5.6c-0.7-1.6-1.4-3.2-2.1-4.9c0-0.1-0.1-0.1-0.2-0.1
		C22.8,57,22.4,57,22,56.8C22.1,56.8,22,56.8,22,56.8L22,56.8z M24.4,55.3c0.4-0.1,0.8-0.1,1.2-0.2c0.8-0.1,1.5-0.2,2.3-0.3
		c0.9-0.1,1.7-0.2,2.6-0.3s1.7-0.2,2.6-0.3c1-0.1,2-0.3,2.9-0.4c0.1,0,0.2-0.1,0.2-0.2c0-0.5,0.1-0.9,0.4-1.2
		c0.1-0.1,0.3-0.2,0.2-0.4c0-0.1-0.2-0.2-0.3-0.4c-1.2-1.5-2.4-2.9-3.6-4.4c-0.8-1-1.6-2-2.4-2.9c-0.1-0.1-0.1-0.1-0.2,0
		c-0.4,0.3-0.9,0.3-1.3,0.2c-0.1,0-0.2,0-0.2,0.1c-0.2,0.3-0.3,0.7-0.5,1c-0.9,1.7-1.7,3.4-2.6,5.1c-0.6,1.1-1.2,2.3-1.8,3.4
		c0,0.1-0.1,0.2,0,0.2c0.2,0.2,0.4,0.5,0.4,0.8C24.3,55.3,24.3,55.3,24.4,55.3L24.4,55.3z M36,54c-0.2,0-0.3,0-0.4,0.1
		c-0.8,0.1-1.6,0.2-2.3,0.3c-0.9,0.1-1.7,0.2-2.6,0.3c-0.8,0.1-1.5,0.2-2.3,0.3s-1.5,0.2-2.3,0.3c-0.6,0.1-1.2,0.2-1.7,0.2
		c-0.1,0-0.1,0-0.1,0.1c-0.1,0.5-0.3,0.9-0.7,1.1c-0.1,0.1-0.1,0.1-0.1,0.2c0.2,0.5,0.5,1.1,0.7,1.6c1.3,3,2.6,5.9,3.8,8.9
		c0.1,0.1,0.1,0.2,0.3,0.1c0.5-0.2,1-0.2,1.4,0.1c0.1,0.1,0.2,0.1,0.3-0.1c1.7-3,3.5-6,5.3-9c0.6-1,1.2-2,1.8-3.1
		c0.1-0.1,0.1-0.2,0-0.2c-0.4-0.3-0.6-0.7-0.8-1.1C36.1,54,36.1,53.9,36,54L36,54z M15.9,68.5c-0.6,0-1.1-0.3-1.5-0.8
		c-0.3-0.6-0.2-1.4,0.5-2c0.1-0.1,0.3-0.1,0.4-0.2c0.4-0.1,0.4-0.1,0.4-0.5v-0.1c0.1-0.7,0.1-1.3,0.2-2c0.1-0.7,0.1-1.4,0.2-2
		c0.1-0.7,0.1-1.4,0.2-2.1c0.1-0.9,0.1-1.7,0.2-2.6c0-0.5,0.1-1.1,0.1-1.6s0.1-1,0.1-1.6c0-0.1,0-0.2-0.1-0.2
		c-0.2-0.1-0.4-0.2-0.5-0.3c-0.1-0.2-0.2-0.4-0.3-0.6c-0.1-0.7,0.6-1.4,1.3-1.3c0.3,0,0.5,0.2,0.7,0.4c0.1,0.1,0.1,0,0.2,0
		c0.8-0.6,1.6-1.1,2.4-1.7c2.2-1.5,4.3-3,6.5-4.6c0.4-0.3,0.8-0.5,1.1-0.8c0.1-0.1,0.1-0.1,0.1-0.2c-0.3-0.7-0.1-1.5,0.5-1.9
		c0.6-0.5,1.4-0.4,2,0.1c0,0,0,0,0.1,0L30.6,42c0,0.1,0.1,0.1,0.2,0c0.4,0.5,0.4,1.2,0,1.8c-0.1,0.1-0.1,0.2,0,0.3
		c1.8,2.2,3.7,4.5,5.5,6.7c0.2,0.3,0.5,0.6,0.7,0.9c0.1,0.1,0.1,0.1,0.2,0.1c0.7-0.4,1.4-0.4,2.1,0l0,0c0,0.1,0.1,0.1,0.1,0.1
		c0.5,0.4,0.8,1,0.8,1.7c-0.1,0-0.1,0-0.2,0.1c0,0.1,0.1,0.1,0.1,0.1c-0.2,1-1,1.7-2,1.7c-0.3,0-0.5,0-0.8-0.1
		c-0.1-0.1-0.2,0-0.3,0.1c-1,1.7-2,3.4-3,5.1c-1.3,2.3-2.7,4.6-4,6.9c-0.1,0.2-0.1,0.3,0,0.4c0.6,0.5,0.8,1.2,0.6,2
		c-0.2,0.8-0.7,1.3-1.5,1.5c-0.4,0.1-0.8,0.1-1.1-0.1c-0.1,0-0.1,0-0.2-0.1c0,0,0,0-0.1-0.1c-0.7-0.4-1.1-1-1.1-1.9
		c0-0.1-0.1-0.2-0.2-0.2c-1.6-0.3-3.2-0.6-4.7-0.9s-3.1-0.6-4.6-0.9c-0.1,0-0.1,0-0.2,0.1c-0.1,0.3-0.3,0.5-0.6,0.7
		c0,0-0.1,0-0.1,0.1c-0.2,0-0.4,0.2-0.5,0.2C16,68.5,15.9,68.4,15.9,68.5L15.9,68.5z"/>
	<path class="st0" d="M94.8,68.5c0-2.2,0-4.4,0-6.6c0-0.2,0-0.2,0.2-0.2c1,0,2.1,0,3.1,0c0.1,0,0.2,0,0.2,0.2c0,1.6,0,3.3,0,4.9
		c0,1.8,0.1,3.6,0.1,5.3c0,0.2,0.1,0.2,0.2,0.2c1.5,0,3,0,4.4,0c0.2,0,0.2,0.1,0.2,0.2c0,0.9,0,1.8,0,2.7c0,0.2,0,0.2-0.2,0.2
		c-2.7,0-5.4,0-8.1,0c-0.2,0-0.2,0-0.2-0.2C94.8,72.9,94.8,70.7,94.8,68.5L94.8,68.5L94.8,68.5z"/>
	<path class="st4" d="M25,82.9c0.2,0.4,0.4,0.7,0.6,1c0.1,0.1,0.1,0.2,0.3,0.1c0.4-0.1,0.6,0,0.8,0.3c0.1,0.1,0.2,0.1,0.3,0.1
		c1.6-0.4,3.1-0.9,4.7-1.3c1.5-0.4,3-0.9,4.6-1.3c0.1,0,0.2-0.1,0.1-0.2c0-0.1-0.1,0-0.2,0c-3,0-5.9-0.1-8.9-0.1c-0.4,0-0.7,0-1.1,0
		c-0.1,0-0.1,0-0.1,0.1C26,82.2,25.6,82.7,25,82.9L25,82.9z M37.9,85.1L37.9,85.1c0-0.6-0.1-1.3-0.1-1.9c0-0.1,0-0.2-0.2-0.2
		c-0.5-0.1-0.9-0.4-1.1-0.8c-0.1-0.1-0.1-0.2-0.3-0.1c-3,0.9-6.1,1.7-9.1,2.6c-0.2,0.1-0.3,0.1-0.3,0.3v0.1c-0.1,0.1,0,0.2,0.1,0.2
		c0.8,0.2,1.5,0.4,2.3,0.6c2.5,0.7,5.1,1.4,7.6,2c0.1,0,0.2,0,0.2-0.1c0.2-0.3,0.4-0.5,0.7-0.6c0.1,0,0.2-0.1,0.2-0.2
		C38,86.4,37.9,85.8,37.9,85.1L37.9,85.1z M15.9,68.5c0,0,0.1,0,0.2,0c0,0.1,0,0.1,0,0.2c0,1.4,0,2.7,0,4.1c0,0.9,0,1.8,0,2.7
		c0.1,0,0.1,0,0.2,0c0.5-0.1,0.9,0,1.2,0.4c0.3,0.4,0.4,0.8,0.1,1.3c-0.1,0.1,0,0.1,0.1,0.2c1.9,1.1,3.8,2.2,5.7,3.2
		c0,0,0.1,0.1,0.1,0c0.1-0.1,0.2-0.2,0.3-0.3c0.1-0.1,0-0.1-0.1-0.2c-2.3-3.8-4.6-7.7-6.9-11.5c0-0.1-0.1-0.1-0.1-0.2
		c0,0,0.1,0,0.1-0.1c0.1,0,0.1,0.1,0.2,0.2c1.9,3.1,3.7,6.2,5.6,9.3c0.4,0.8,0.9,1.5,1.3,2.3c0.1,0.1,0.1,0.1,0.2,0.1
		c0.3-0.1,0.5-0.2,0.8-0.1c0.2,0,0.2,0,0.3-0.2c0.5-1.4,1-2.8,1.5-4.2c0.5-1.4,1-2.8,1.5-4.2c0.1,0,0.1,0,0.2,0.1
		c-0.5,1.4-1,2.9-1.5,4.3s-1,2.8-1.5,4.1c0,0.1,0,0.2,0.1,0.2c0.5,0.2,0.7,0.6,0.8,1.1c0,0.1,0.1,0.2,0.2,0.2c1.6,0,3.2,0,4.8,0
		c1.7,0,3.4,0,5.1,0.1c0.1,0,0.2,0,0.2-0.2c0-0.3,0.2-0.6,0.4-0.8c0.1-0.1,0.1-0.2,0-0.3c-2-2.7-4-5.4-6-8c-0.2-0.3-0.4-0.5-0.6-0.8
		c0-0.1-0.1-0.1,0-0.2s0.1,0,0.2,0.1c1.3,1.7,2.5,3.4,3.8,5.1c0.9,1.2,1.9,2.5,2.8,3.7c0.1,0.1,0.1,0.1,0.3,0.1
		c0.6-0.3,1.4-0.2,1.8,0.3c0.5,0.5,0.6,1.2,0.2,1.9c-0.1,0.2,0,0.2,0.1,0.2c2.1,0.4,4.3,0.8,6.4,1.3c1.4,0.3,2.9,0.6,4.3,0.9
		c0.1,0,0.2,0.1,0.1,0.1c0,0.1-0.1,0-0.2,0c-3.5-0.7-7.1-1.4-10.6-2.1c-0.2,0-0.4-0.1-0.6,0.1c-0.2,0.2-0.4,0.2-0.7,0.3
		c-0.1,0-0.1,0-0.1,0.2c0,0.8,0.1,1.6,0.1,2.4c0,0.5,0.1,0.9,0.1,1.4c0,0.1,0,0.2,0.2,0.2c0.6,0.1,1,0.7,0.9,1.3
		c-0.1,0.6-0.7,1.1-1.3,1s-1-0.6-1-1.2c0-0.1,0-0.2-0.1-0.2c-3.3-0.9-6.6-1.8-10-2.7c-0.1,0-0.2,0-0.2,0.1c-0.3,0.3-0.9,0.3-1.2,0
		c-0.3-0.3-0.4-0.8,0-1.2c0.1-0.1,0.1-0.2,0-0.3c-0.2-0.3-0.4-0.6-0.5-0.9c-0.1-0.1-0.1-0.2-0.3-0.2c-0.9,0-1.7-0.7-1.6-1.6
		c0-0.2,0-0.4,0.1-0.5c0.1-0.2,0-0.2-0.1-0.3c-1.6-0.9-3.1-1.8-4.7-2.7c-0.3-0.2-0.6-0.3-0.9-0.5c-0.1,0-0.1-0.1-0.2,0
		C17,78,16.3,78,15.9,77.5s-0.4-1.2,0.1-1.6c0.1-0.1,0.1-0.2,0.1-0.3C15.8,73.1,15.9,70.8,15.9,68.5L15.9,68.5z"/>
	<path class="st0" d="M71.7,80.1c-0.5,0.5-0.9,0.9-1.3,1.4c-0.2,0.2-0.3,0.2-0.5,0c-0.4-0.5-0.9-0.9-1.3-1.4c-0.1,0.1,0,0.1,0,0.2
		c0,0.9,0,1.8,0,2.7c0,0.2,0,0.2-0.2,0.2c-0.5,0-1,0-1.5,0c-0.1,0-0.2,0-0.2-0.2c0-2.2,0-4.4,0-6.6c0-0.1,0-0.1,0.2-0.2
		c0.4,0,0.6,0.1,0.8,0.4c0.7,0.9,1.5,1.7,2.3,2.5c0.1,0.1,0.1,0.1,0.2,0c0.8-0.9,1.7-1.8,2.5-2.7c0.1-0.1,0.6-0.2,0.7-0.1
		c0.1,0,0,0.1,0,0.2c0,1.3,0,2.6,0,3.9c0,0.9,0,1.8,0,2.6c0,0.1,0,0.2-0.2,0.2c-0.5,0-1,0-1.5,0c-0.2,0-0.2-0.1-0.2-0.2
		c0-0.9,0-1.8,0-2.6C71.7,80.3,71.7,80.2,71.7,80.1L71.7,80.1z"/>
	<path class="st0" d="M80.3,80.2c-0.3,0.3-0.7,0.6-1,1c-0.1,0.1-0.2,0.3-0.4,0.4c-0.1,0.1-0.3,0.1-0.4,0c-0.4-0.4-0.8-0.9-1.2-1.3
		l-0.1-0.1c0,0.1,0,0.1,0,0.2c0,0.9,0,1.8,0,2.7c0,0.1,0,0.2-0.2,0.2c-0.5,0-1,0-1.5,0c-0.1,0-0.2,0-0.2-0.2c0-2.2,0-4.4,0-6.6
		c0-0.1,0-0.2,0.2-0.2c0.3,0,0.6,0.1,0.8,0.3c0.7,0.9,1.5,1.7,2.2,2.5c0.1,0.1,0.2,0.1,0.3,0c0.8-0.9,1.7-1.8,2.5-2.7
		c0.1-0.2,0.3-0.1,0.5-0.1c0.3,0,0.3,0,0.3,0.3c0,2.2,0,4.3,0,6.5c0,0.2,0,0.2-0.2,0.2c-0.5,0-0.9,0-1.4,0c-0.1,0-0.2,0-0.2-0.2
		c0-0.9,0-1.8,0-2.7C80.3,80.3,80.3,80.2,80.3,80.2L80.3,80.2L80.3,80.2z"/>
	<path class="st0" d="M60.2,79.7c0,0.2,0,0.5,0.1,0.8c0.2,0.6,0.7,1,1.3,1.1s1.2-0.1,1.6-0.5c0.5-0.5,0.6-1.2,0.4-1.9
		c-0.2-1-1.1-1.5-2.1-1.3C60.7,78,60.2,78.7,60.2,79.7L60.2,79.7z M65.5,79.7c0,1-0.3,2-1.1,2.7c-0.5,0.5-1.2,0.8-1.9,0.9
		c-0.8,0.1-1.6,0-2.4-0.4c-0.9-0.5-1.4-1.2-1.6-2.1c-0.3-1.2-0.2-2.3,0.5-3.2c0.8-1.1,2-1.5,3.3-1.4c1.2,0.1,2.1,0.7,2.7,1.8
		C65.4,78.4,65.5,79,65.5,79.7L65.5,79.7z"/>
	<path class="st0" d="M95.1,79.7c0-1,0-2.1,0-3.1c0-0.2,0-0.3,0.2-0.2c0.5,0,0.9,0,1.4,0c0.1,0,0.2,0,0.2,0.2c0,2.2,0,4.4,0,6.6
		c0,0.1,0,0.2-0.2,0.2c-0.4,0.1-0.6-0.1-0.8-0.4c-1-1-2-2-3-3l-0.1-0.1c-0.1,0.1,0,0.1,0,0.2c0,1,0,2,0,3c0,0.2,0,0.2-0.2,0.2
		c-0.5,0-1,0-1.5,0c-0.1,0-0.2,0-0.2-0.2c0-2.2,0-4.4,0-6.6c0-0.1,0-0.1,0.1-0.1c0.3,0,0.6,0.1,0.9,0.3c1,1,2,2,3,3
		C95,79.6,95,79.6,95.1,79.7L95.1,79.7L95.1,79.7z"/>
	<g>
		<g>
			<defs>
				<rect id="SVGID_5_" x="12.9" y="37.9" width="101.5" height="53.6"/>
			</defs>
			<clipPath id="SVGID_6_">
				<use xlink:href="#SVGID_5_"  style="overflow:visible;"/>
			</clipPath>
			<path class="st5" d="M56.5,78.7c-0.2,0-0.5,0-0.7,0c-0.1,0-0.1,0-0.2-0.1c-0.3-0.6-0.8-1-1.6-0.9c-0.9,0.1-1.5,0.6-1.6,1.6
				c-0.1,0.5,0,1,0.3,1.5c0.6,1,2.1,1.1,2.7,0.2c0.1-0.1,0.2-0.2,0.2-0.3c0-0.1,0.1-0.2,0.2-0.2c0.5,0,0.9,0,1.4,0
				c0.1,0,0.2,0,0.1,0.1c-0.2,1.2-0.9,2-2,2.4c-1.2,0.4-2.3,0.3-3.4-0.4c-0.7-0.5-1.2-1.2-1.3-2c-0.3-1.4,0-2.6,1.1-3.6
				c0.5-0.4,1.1-0.7,1.8-0.8c0.8-0.1,1.6,0,2.3,0.4c0.8,0.4,1.3,1.2,1.5,2.1c0,0.1,0,0.2-0.1,0.2C57,78.7,56.7,78.7,56.5,78.7
				L56.5,78.7L56.5,78.7z"/>
		</g>
		<g>
			<defs>
				<rect id="SVGID_7_" x="12.9" y="37.9" width="101.5" height="53.6"/>
			</defs>
			<clipPath id="SVGID_8_">
				<use xlink:href="#SVGID_7_"  style="overflow:visible;"/>
			</clipPath>
			<path class="st6" d="M100.1,88.2L100.1,88.2c0,1.1,0.9,1.8,1.9,1.7c0.7-0.1,1.2-0.7,1.3-1.5c0.1-1-0.5-1.8-1.4-1.9
				C100.9,86.4,100.1,87.2,100.1,88.2L100.1,88.2z M104.9,88.2c0,0.9-0.2,1.6-0.8,2.3c-0.7,0.8-1.6,1.1-2.7,1s-2.1-0.6-2.6-1.6
				C98.3,89,98.3,88,98.6,87c0.4-1.3,1.5-2,2.8-2.1c0.6,0,1.3,0.1,1.8,0.4c1,0.5,1.5,1.4,1.7,2.5C105,88,104.9,88.1,104.9,88.2
				L104.9,88.2z"/>
		</g>
	</g>
	<path class="st0" d="M58.9,86.3c-0.9,0-1.6,0.7-1.6,1.7s0.7,1.7,1.6,1.8c0.9,0,1.6-0.7,1.6-1.7C60.5,87.1,59.8,86.4,58.9,86.3
		L58.9,86.3z M58.9,84.8c1.9,0,3.3,1.4,3.3,3.3s-1.4,3.3-3.3,3.3c-1.9,0-3.3-1.3-3.3-3.3C55.6,86.1,57,84.8,58.9,84.8L58.9,84.8z"/>
	<path class="st0" d="M73.8,88c0-0.9,0-1.8,0-2.7c0-0.4,0-0.4,0.4-0.4s0.7,0,1.1,0c0.2,0,0.2,0,0.2,0.2c0,1.8,0,3.7,0,5.5
		c0,0.2,0,0.3,0,0.5c0,0.1,0,0.1-0.1,0.1c-0.3,0-0.5,0-0.8-0.3c-0.9-0.9-1.8-1.8-2.8-2.7l-0.1-0.1c0,0.1,0,0.1,0,0.2
		c0,0.9,0,1.8,0,2.7c0,0.1,0,0.2-0.2,0.2c-0.4,0-0.9,0-1.3,0c-0.2,0-0.2,0-0.2-0.2c0-2,0-4,0-6c0-0.1,0-0.2,0.2-0.2
		c0.3,0,0.5,0.1,0.7,0.3c0.9,0.9,1.8,1.8,2.7,2.7C73.6,87.9,73.7,88,73.8,88C73.7,88,73.8,88,73.8,88L73.8,88z"/>
	<path class="st0" d="M110,88.2c0-0.1,0-0.2,0-0.2c0-0.9,0-1.8,0-2.7c0-0.1,0-0.2,0.2-0.2c0.4,0,0.9,0,1.3,0c0.1,0,0.2,0,0.2,0.2
		c0,2,0,4.1,0,6.1c0,0.1,0,0.1-0.1,0.1c-0.3,0-0.5-0.1-0.7-0.3c-0.9-0.9-1.8-1.8-2.7-2.7l-0.1-0.1c-0.1,0.1,0,0.1,0,0.2
		c0,0.9,0,1.8,0,2.7c0,0.1,0,0.2-0.2,0.2c-0.4,0-0.9,0-1.3,0c-0.1,0-0.2,0-0.2-0.2c0-2,0-4.1,0-6.1c0-0.1,0-0.2,0.2-0.2
		c0.3,0,0.5,0.1,0.7,0.3c0.9,0.9,1.9,1.8,2.8,2.8C109.9,88.1,109.9,88.1,110,88.2L110,88.2z"/>
	<path class="st0" d="M83.8,78.8c0-0.8,0-1.5,0-2.3c0-0.1,0-0.2,0.2-0.2c0.4,0,0.9,0,1.3,0c0.1,0,0.2,0,0.2,0.2c0,1.4,0,2.8,0,4.3
		c0,0.5,0.3,0.9,0.8,0.9c0.4,0.1,0.9,0,1.2-0.3c0.1-0.1,0.2-0.3,0.2-0.5c0-1.5,0-2.9,0-4.4c0-0.2,0-0.2,0.2-0.2c0.4,0,0.9,0,1.3,0
		c0.1,0,0.2,0,0.2,0.2c0,1.5,0,3,0,4.5c0,1.1-0.7,2-1.9,2.2c-1.1,0.3-2.1,0.1-2.9-0.7c-0.5-0.4-0.7-1-0.7-1.6
		C83.8,80.2,83.8,79.5,83.8,78.8L83.8,78.8L83.8,78.8z"/>
	<path class="st0" d="M78.7,88.1L78.7,88.1c0,0.5,0,1,0,1.6c0,0.1,0,0.2,0.2,0.2s0.4,0,0.6,0c0.7,0,1.2-0.3,1.4-1
		c0.1-0.3,0.2-0.6,0.1-1c-0.1-0.8-0.6-1.5-1.6-1.5c-0.2,0-0.4,0-0.6,0c-0.1,0-0.2,0-0.2,0.2C78.7,87.1,78.7,87.6,78.7,88.1
		L78.7,88.1z M77.1,88.1c0-1,0-2,0-3c0-0.2,0-0.2,0.2-0.2c0.8,0,1.7,0,2.5,0c1.3,0.1,2.3,0.9,2.7,2.2c0.3,1.1,0.1,2.2-0.6,3.1
		c-0.5,0.6-1.1,0.9-1.8,1c-0.8,0.1-1.7,0-2.5,0c-0.2,0-0.4,0.1-0.4,0c-0.1-0.1,0-0.3,0-0.4C77.1,89.9,77.1,89,77.1,88.1L77.1,88.1
		L77.1,88.1z"/>
	<path class="st0" d="M68.4,87.2c0,0.6,0,1.3,0,1.9c0,1.1-0.7,1.9-1.7,2.1c-0.7,0.2-1.5,0.1-2.2-0.2c-0.7-0.4-1.1-1-1.1-1.8
		c0-1.4,0-2.8,0-4.1c0-0.1,0-0.2,0.2-0.2c0.4,0,0.8,0,1.2,0c0.2,0,0.2,0.1,0.2,0.2c0,1.3,0,2.6,0,3.9c0,0.4,0.2,0.7,0.6,0.8
		c0.4,0.2,1,0,1.2-0.3c0.1-0.1,0.2-0.3,0.2-0.4c0-1.3,0-2.7,0-4c0-0.2,0-0.2,0.2-0.2c0.4,0,0.8,0,1.2,0c0.2,0,0.2,0,0.2,0.2
		C68.4,85.8,68.4,86.5,68.4,87.2L68.4,87.2L68.4,87.2z"/>
	<path class="st0" d="M86.3,87.5c-0.2,0.6-0.5,1.1-0.7,1.6c0,0.1,0,0.1,0.1,0.1c0.4,0,0.9,0,1.3,0C86.8,88.6,86.6,88.1,86.3,87.5
		L86.3,87.5z M86.3,90.5c-0.4,0-0.7,0-1.1,0c-0.1,0-0.2,0-0.3,0.2c-0.1,0.2-0.2,0.3-0.2,0.5c0,0.1-0.1,0.1-0.2,0.1
		c-0.4,0-0.9,0-1.3,0c-0.1,0-0.1,0-0.1-0.1s0-0.2,0.1-0.2c0.9-2,1.8-3.9,2.7-5.9C86,85,86,85,86.1,84.9c0.4-0.1,0.6,0.1,0.7,0.5
		c0.8,1.9,1.7,3.7,2.6,5.6c0,0,0,0.1,0.1,0.1c0.1,0.2,0,0.3-0.2,0.3c-0.4,0-0.8,0-1.2,0c-0.1,0-0.2,0-0.2-0.1
		c-0.1-0.2-0.1-0.5-0.3-0.6c-0.2-0.1-0.5,0-0.7,0C86.6,90.5,86.5,90.5,86.3,90.5L86.3,90.5L86.3,90.5z"/>
	<path class="st0" d="M110.1,81.8c0-0.4,0-0.8,0-1.2c0-0.2,0-0.3-0.1-0.5c-0.7-1.1-1.4-2.3-2.1-3.4c0,0-0.1-0.1-0.1-0.2
		c0-0.2,0-0.2,0.2-0.2c0.5,0,1,0,1.5,0c0.1,0,0.2,0,0.3,0.2c0.4,0.7,0.7,1.3,1.1,2c0,0.1,0,0.1,0.1,0.1s0.1-0.1,0.1-0.1
		c0.4-0.7,0.7-1.3,1.1-2c0.1-0.1,0.1-0.1,0.2-0.1c0.5,0,1,0,1.5,0c0.3,0,0.3,0.1,0.2,0.3c-0.3,0.5-0.6,0.9-0.8,1.4
		c-0.5,0.7-0.9,1.5-1.4,2.2c-0.1,0.1-0.1,0.2-0.1,0.3c0,0.9,0,1.7,0,2.6c0,0.1,0,0.2-0.2,0.2c-0.5,0-0.9,0-1.4,0
		c-0.1,0-0.2,0-0.2-0.2C110.1,82.7,110.1,82.3,110.1,81.8L110.1,81.8L110.1,81.8z"/>
	<path class="st0" d="M99,79.8c0-0.6,0-1.1,0-1.7c0-0.2,0-0.2-0.2-0.2s-0.3,0-0.5,0c-0.1,0-0.1,0-0.1-0.1c0-0.4,0-0.8,0-1.3
		c0-0.1,0-0.1,0.1-0.1c1,0,2.1,0,3.1,0c0.1,0,0.1,0,0.1,0.1c0,0.4,0,0.8,0,1.2c0,0.1-0.1,0.2-0.2,0.2c-0.2,0-0.4,0-0.5,0
		s-0.1,0-0.1,0.1c0,1.2,0,2.4,0,3.6c0,0.1,0,0.1,0.1,0.1c0.2,0,0.4,0,0.6,0c0.1,0,0.1,0,0.1,0.1c0,0.4,0,0.9,0,1.3
		c0,0.1,0,0.1-0.1,0.1c-1.1,0-2.2,0-3.3,0c-0.1,0-0.1,0-0.1-0.1c0-0.4,0-0.9,0-1.3c0-0.1,0-0.1,0.1-0.1c0.2,0,0.4,0,0.6,0
		c0.1,0,0.2,0,0.2-0.2C99,81,99,80.4,99,79.8L99,79.8L99,79.8z"/>
	<path class="st0" d="M103.8,80.6c0-0.8,0-1.6,0-2.5c0-0.1,0-0.2-0.2-0.2c-0.4,0-0.9,0-1.3,0c-0.1,0-0.2,0-0.2-0.2
		c0-0.4,0-0.9,0-1.3c0-0.1,0-0.1,0.1-0.1c1.6,0,3.2,0,4.9,0c0.1,0,0.1,0,0.1,0.1c0,0.4,0,0.9,0,1.3c0,0.1,0,0.1-0.2,0.1
		c-0.4,0-0.9,0-1.3,0c-0.2,0-0.2,0-0.2,0.2c0,1.6,0,3.3,0,4.9c0,0.2,0,0.2-0.2,0.2c-0.5,0-0.9,0-1.4,0c-0.1,0-0.2,0-0.2-0.2
		C103.8,82.3,103.8,81.4,103.8,80.6L103.8,80.6L103.8,80.6z"/>
	<path class="st0" d="M50.8,88c0-1,0-2,0-3c0-0.1,0-0.2,0.2-0.2c1.2,0,2.4,0,3.6,0c0.1,0,0.2,0,0.2,0.2c0,0.4,0,0.7,0,1.1
		c0,0.1,0,0.2-0.2,0.2c-0.7,0-1.3,0-2,0c-0.1,0-0.2,0-0.2,0.2c0,0.4,0,0.7,0,1.1c0,0.1,0,0.2,0.2,0.2c0.6,0,1.1,0,1.7,0
		c0.1,0,0.2,0,0.2,0.2c0,0.4,0,0.7,0,1.1c0,0.2-0.1,0.2-0.2,0.2c-0.6,0-1.1,0-1.7,0c-0.1,0-0.2,0-0.2,0.2c0,0.6,0,1.2,0,1.7
		c0,0.1,0,0.2-0.2,0.2c-0.4,0-0.9,0-1.3,0c-0.2,0-0.2,0-0.2-0.2C50.8,90,50.8,89,50.8,88L50.8,88L50.8,88z"/>
	<path class="st4" d="M39.4,52C39.3,52,39.3,51.9,39.4,52c0.8-1.1,1.6-2.1,2.5-3.1c1.3-1.5,2.6-2.9,3.8-4.4l0.1-0.1
		c-0.5-0.4-0.8-0.9-0.6-1.6c0.2-0.8,0.8-1.3,1.6-1.2c0.9,0,1.5,0.7,1.5,1.5c0,0.2,0,0.5-0.1,0.7c-0.1,0.1,0,0.2,0.1,0.3
		c2.5,1.6,4.9,3.2,7.3,4.7c1.1,0.7,2.2,1.4,3.3,2.1c0.1,0.1,0.2,0.1,0.3,0c0.4-0.3,0.8-0.3,1.2-0.1s0.6,0.6,0.6,1.1s-0.3,0.8-0.7,1
		s-1,0-1.3-0.3c-0.4-0.4-0.4-0.9-0.2-1.3c0.1-0.2,0-0.2-0.1-0.3c-3.5-2.3-7.1-4.5-10.6-6.8c-0.1-0.1-0.2-0.1-0.3,0
		c-0.4,0.5-1.1,0.6-1.7,0.4c-0.1,0-0.2,0-0.2,0C43.7,47.1,41.5,49.5,39.4,52L39.4,52L39.4,52z"/>
	<path class="st0" d="M90.9,88.9c0-0.7,0-1.5,0-2.2c0-0.2-0.1-0.2-0.2-0.2c-0.4,0-0.8,0-1.2,0c-0.1,0-0.2,0-0.2-0.2
		c0-0.4,0-0.8,0-1.1c0-0.1,0-0.2,0.2-0.1c1.5,0,2.9,0,4.4,0c0.1,0,0.2,0,0.2,0.2c0,0.4,0,0.8,0,1.1c0,0.1,0,0.2-0.2,0.2
		c-0.4,0-0.8,0-1.2,0c-0.2,0-0.2,0-0.2,0.2c0,1.5,0,3,0,4.5c0,0.2,0,0.2-0.2,0.2c-0.4,0-0.8,0-1.2,0c-0.2,0-0.2,0-0.2-0.2
		C90.9,90.4,90.9,89.7,90.9,88.9L90.9,88.9L90.9,88.9z"/>
	<path class="st0" d="M95.3,88.2c0-0.5,0-1.1,0-1.6c0-0.1,0-0.2-0.2-0.2c-0.1,0-0.3,0-0.4,0s-0.1,0-0.1-0.1c0-0.4,0-0.8,0-1.2
		c0-0.1,0-0.1,0.1-0.1c1,0,1.9,0,2.9,0c0.1,0,0.1,0,0.1,0.1c0,0.4,0,0.8,0,1.2c0,0.1,0,0.1-0.1,0.1s-0.3,0-0.4,0s-0.2,0-0.2,0.2
		c0,1.1,0,2.1,0,3.2c0,0.1,0,0.2,0.2,0.2s0.3,0,0.5,0c0.1,0,0.1,0,0.1,0.1c0,0.4,0,0.8,0,1.2c0,0.1,0,0.1-0.1,0.1c-1,0-2,0-2.9,0
		c-0.1,0-0.1,0-0.1-0.1c0-0.4,0-0.8,0-1.2c0-0.1,0-0.1,0.1-0.1c0.2,0,0.3,0,0.5,0c0.1,0,0.2,0,0.2-0.2
		C95.3,89.2,95.3,88.7,95.3,88.2L95.3,88.2L95.3,88.2z"/>
	<g>
		<g>
			<defs>
				<rect id="SVGID_9_" x="12.9" y="37.9" width="101.5" height="53.6"/>
			</defs>
			<clipPath id="SVGID_10_">
				<use xlink:href="#SVGID_9_"  style="overflow:visible;"/>
			</clipPath>
			<path class="st7" d="M40.1,53.9C40.1,53.9,40,53.9,40.1,53.9c-0.1-0.2,0-0.2,0.1-0.2c1.9,0.2,3.8,0.4,5.7,0.6
				c2,0.2,4,0.4,5.9,0.6c0.1,0,0.2,0,0.2-0.1c0.4-1,1.5-1.4,2.4-0.8c0.5,0.3,0.7,1,0.6,1.6c-0.2,0.6-0.7,1.1-1.3,1.2
				c-1.1,0.1-1.8-0.7-1.7-1.5c0-0.1,0-0.1-0.1-0.2c-1.1-0.1-2.2-0.2-3.3-0.3s-2.1-0.2-3.2-0.3c-1-0.1-2.1-0.2-3.1-0.3
				C41.6,54.1,40.9,54,40.1,53.9C40.2,53.9,40.2,53.9,40.1,53.9C40.2,53.9,40.1,53.9,40.1,53.9L40.1,53.9z"/>
		</g>
		<g>
			<defs>
				<rect id="SVGID_11_" x="12.9" y="37.9" width="101.5" height="53.6"/>
			</defs>
			<clipPath id="SVGID_12_">
				<use xlink:href="#SVGID_11_"  style="overflow:visible;"/>
			</clipPath>
			<path class="st8" d="M16.1,52.6c0,0.1,0,0.3-0.1,0.4c-0.8,3.2-1.6,6.3-2.4,9.5c0,0.1,0,0.1-0.1,0.2c0.3,0,0.5,0,0.7,0.2
				c0.4,0.4,0.4,0.8,0,1.2c-0.1,0.1-0.1,0.1,0,0.2c0.2,0.3,0.4,0.7,0.7,1c0.1,0.1,0,0.2-0.1,0.2c-0.3-0.3-0.4-0.7-0.7-1
				c-0.1-0.2-0.2-0.3-0.4-0.2c-0.3,0.1-0.7-0.2-0.9-0.5c-0.1-0.3,0-0.8,0.3-1c0.1-0.1,0.2-0.2,0.2-0.3c0.8-3.3,1.6-6.6,2.5-9.8
				C15.9,52.6,15.9,52.5,16.1,52.6L16.1,52.6z"/>
		</g>
		<g>
			<defs>
				<rect id="SVGID_13_" x="12.9" y="37.9" width="101.5" height="53.6"/>
			</defs>
			<clipPath id="SVGID_14_">
				<use xlink:href="#SVGID_13_"  style="overflow:visible;"/>
			</clipPath>
			<path class="st9" d="M30.7,42.2c-0.1,0-0.1,0-0.2,0c0-0.1,0-0.1,0.1-0.1c1-0.4,2-0.9,3-1.3c1.3-0.6,2.6-1.1,3.9-1.7
				c0.1-0.1,0.2-0.1,0.2-0.3c0-0.4,0.3-0.8,0.7-0.8c0.5-0.1,0.8,0.2,1,0.6c0.1,0.4-0.1,0.8-0.5,1s-0.8,0-1-0.3
				c-0.1-0.1-0.1-0.1-0.2-0.1c-2.2,1-4.5,2-6.7,2.9C30.7,42.1,30.7,42.1,30.7,42.2L30.7,42.2z"/>
		</g>
	</g>
	<path class="st4" d="M49.8,42.4c0-0.5,0.4-0.9,0.9-0.8c0.5,0,0.8,0.4,0.8,0.8c0,0.5-0.4,0.8-0.8,0.8C50.2,43.3,49.8,42.9,49.8,42.4
		L49.8,42.4z"/>
	<path class="st3" d="M40.2,53.9L40.2,53.9L40.2,53.9L40.2,53.9z"/>
	<path class="st0" d="M84.8,66.9C84.8,66.9,84.8,67,84.8,66.9C84.8,67,84.7,67,84.8,66.9L84.8,66.9z"/>
</g>
</svg>
