<?xml version="1.0" encoding="utf-8"?>
<!-- Generator: Adobe Illustrator 20.0.0, SVG Export Plug-In . SVG Version: 6.00 Build 0)  -->
<svg version="1.1" id="Layer_1" xmlns="http://www.w3.org/2000/svg" xmlns:xlink="http://www.w3.org/1999/xlink" x="0px" y="0px"
	 viewBox="0 0 648 864" style="enable-background:new 0 0 648 864;" xml:space="preserve">
<style type="text/css">
	.st0{fill:none;}
	.st1{fill:#CCCCCC;}
	.st2{fill:#FFFFFF;}
	.st3{fill:none;stroke:#231F20;stroke-width:0.25;stroke-miterlimit:10;}
</style>
<title>female-transradial-L</title>
<path class="st0" d="M187.4,451c-7.6-0.8-15.1-1.4-22.7-1.9C172.3,450.1,179.9,451.2,187.4,451z"/>
<path class="st1" d="M499.1,542.1c-0.8-9.4-3-15.7-3.8-29.4c-0.7-11.5,0-15.6-1.4-29.2c-1.2-12.1-2.6-18.2-4-22.8
	c-1.6-5.4-3.7-10.7-6.2-15.8c-2.2-43.4-5.5-70.8-8.2-88.3c-2.2-14.3-3.8-20.2-4.3-32.8c-0.6-18.3,2-27.4-2.5-39.7
	c-2.6-6.6-5.8-13-9.5-19.1c-3.8-6.1-8.5-11.6-13.9-16.3c-8.2-7.1-17.1-13.3-26.5-18.7c-29.1-15.5-40.3-11.9-51.4-21
	c-10.1-8.2-19-26-13.3-67.7h-30.1H294c5.8,41.8-3.1,59.5-13.3,67.7c-1,0.8-2,1.5-3.1,2.2c-10.2,6.3-21.8,4.7-48.3,18.8
	c-9.4,5.3-18.3,11.6-26.5,18.7c-5.5,4.7-10.2,10.2-13.9,16.3c-3.7,6.1-6.9,12.5-9.5,19.1c-4.5,12.3-1.9,21.4-2.5,39.7
	c-0.4,12.6-2,18.5-4.3,32.8c-2.7,17.5-6,44.9-8.2,88.3c-2.5,5.1-4.6,10.3-6.2,15.8c-1.3,4.5-2.8,10.6-4,22.8
	c-1.3,13.6-0.6,17.7-1.4,29.2c-0.8,13.7-3,20-3.8,29.4c-2.8,32.7,5,49.1,3.6,78.5c-0.1,2.1-0.5,8.6-0.6,17.7
	c-0.2,11.7,0.2,12.6,0,19.8c-0.5,21-4.4,23.2-1.1,30.4c3.6,8,11.2,12,16.7,14.2c1.1,0.3,16.7,4.7,20.9-1.2c0.4-0.6,2.3-3.2,1.5-5.5
	c-0.4-1.1-1.2-1.9-2.3-2.4c-7.2-4.7-10.1-9.9-11.4-12.8c-2.9-6.4-2.7-12.9-2.4-22.3c0.1-3.7,0.4-6.7,0.6-8.8
	c0.5,1.1,1.4,3.1,2.5,5.5c6.5,14.7,7.6,18.4,11.8,22c1.8,1.5,6.3,5.3,8.9,3.9c5.1-2.7,0.5-23.9-7.2-40.8
	c-7.1-15.5-10.4-12.9-13.6-23.3c-1.9-6-1.7-9.5,3.5-50.1c1.9-14.9,2.5-19.3,3.6-26.1c2-12.6,3.1-19.2,5.1-27.2
	c5.9-24.1,11.6-26.4,15.5-48c1.3-7.3,2.1-14.6,2.3-22c0.2-7,0-13.9-0.6-20.9c-1-11,2.2-38.5,19.6-109.3l3.9,11
	c2.4,0.6-8.5,28.9,6.4,58.6c2,4,4.3,7.7,7,11.2c10.6,14.6,12.8,53.5-18.7,155.1l89.7,0.5v0.1l9.8,0l9.8,0v0l89.7-0.5
	C392.2,447.9,394.3,409,405,394.4c2.7-3.5,5-7.3,7-11.2c14.9-29.8,4-58,6.5-58.6l3.9-11c17.4,70.8,20.6,98.3,19.6,109.3
	c-0.6,6.9-0.8,13.9-0.6,20.9c0.2,7.4,1,14.7,2.3,22c3.9,21.6,9.5,23.9,15.5,48c2,8,3,14.7,5.1,27.2c0.9,5.7,1.5,9.8,2.8,19.8l0.6,5
	h31.9C499.9,557.8,499.8,550,499.1,542.1z"/>
<path class="st2" d="M199.6,473.1c0-0.2,0-0.4,0-0.5s0-0.3,0-0.4c0-0.7-0.2-1.5-0.5-2.1l-0.1-0.3c-0.1-0.2-0.3-0.4-0.4-0.5
	c-0.4-0.3-0.8-0.6-1.2-0.9c-0.1-0.1-0.2-0.1-0.2-0.2c-0.3-0.3-0.6-0.6-0.9-0.9c-0.6-0.8-1.2-1.6-1.6-2.5c-0.3-0.5-0.5-1.1-0.8-1.6
	c-0.1-0.3-0.3-0.5-0.4-0.8c-0.6-1.3-1.1-2.5-1.6-3.9c-0.5-1.4-0.8-2.7-1.1-4.1c-0.1-0.7-0.3-1.4-0.4-2.2c-0.3-2.3-0.5-4.6-0.6-6.9
	c-0.1-4.4,0.1-8.9,0.4-13.5c0.1-1.3,0.2-2.7,0.3-4c0.5-5.4,1.1-10.8,1.7-16.3c0.3-2.7,0.6-5.4,0.9-8.1c0.1-1.4,0.3-2.7,0.4-4
	c1.1-10.5,2.5-21.1,3.6-31.7c0.7-6.3,1.3-12.6,1.8-18.8v-0.3c0.1-1.9,0.3-3.7,0.4-5.6c0.3-3.3,0.6-6.5,1-9.8
	c1.1-9.8,2.6-19.8,4.5-29.8c0.8-5.1,2.1-10.1,3.8-14.9c0.2-0.6,0.5-1.2,0.7-1.9s0.5-1.2,0.8-1.9s0.6-1.2,0.9-1.8s0.6-1.2,1-1.8
	c0.2-0.3,0.4-0.6,0.6-1c0.4-0.6,0.8-1.2,1.3-1.9c0.2-0.3,0.5-0.6,0.7-0.9c0.7-0.8,1.7-1.5,2.5-2.5c0.2-0.3,0.4-0.6,0.6-0.9
	c0.5-1,0.9-2,1.1-3.1c0.1-0.4,0.1-0.7,0.2-1c0.8,0.4,1.5,0.9,2.3,1.4c0.2,0.1,0.4,0.3,0.6,0.4l0.2,0.2c0.4,0.3,0.7,0.6,0.9,1
	l0.1,0.3c0.1,0.5,0.2,1,0.2,1.5c0,1.5,0.3,3.1,0.9,4.5c0.7,1.2,2,1.4,3.1,1.8c1.3,0.4,2.6,1,3.9,1.6c0,0.6,0,1.2,0.1,1.8
	c-0.3,0.3-0.6,0.6-0.8,0.9c0.6-0.5,1.3-1,1.9-1.5c0-0.2-0.1-0.4-0.1-0.5c-0.1-0.5-0.1-1,0-1.5c0.1-0.9,0.3-1.8,0.6-2.7
	c0.9-2.6,2.2-4.9,4-7l0.5-1.5c-0.4-1.7,0.7-3.8,2.1-5.8l1.2-3.2l-0.2,0.3c-0.2,0.4-0.5,0.7-0.8,1.1c-1.8,2.6-4.1,5.7-3.4,8.3
	c-2,2.3-3.5,4.9-4.4,7.8c-0.2,0.7-0.4,1.5-0.5,2.2c-1.1-0.5-2.2-1-3.4-1.3c-1.1-0.4-2.3-0.7-2.8-1.5c-0.5-1.3-0.8-2.7-0.8-4.1
	c0-0.7-0.2-1.4-0.5-2.1c-0.3-0.6-0.8-1-1.3-1.4c-1.1-0.8-2.3-1.6-3.5-2.2c0.1-0.5,0.1-1,0.2-1.4c0-0.2,0-0.5,0.1-0.7
	c0-0.7,0-1.4,0-2.1c0-0.1,0-0.3,0-0.4c0-0.6-0.1-1.1-0.2-1.7v-0.2c0,0,0-0.1,0-0.1c-0.1-0.6-0.2-1.2-0.4-1.8l0,0
	c-0.1-0.3-0.2-0.6-0.3-0.9c-0.1-0.3-0.2-0.6-0.3-0.9l0,0l0.6-0.9c0.4-0.5,0.7-1.1,1-1.7c0.1-0.3,0.2-0.7,0.3-1c0-0.3,0-0.6-0.2-0.9
	c0,0,0,0,0-0.1c-0.2-0.3-0.5-0.4-0.8-0.5c-0.3,0-0.5,0-0.8,0c-1.2,0.1-2.5,0.3-3.7,0.6l0,0c-0.8-0.7-1.8-1.3-2.8-1.8l-0.1-0.1
	c0.2-0.1,0.3-0.2,0.5-0.2c0.1,0,0.2-0.1,0.3-0.1c0.1,0,0.1,0,0.1,0l0,0c0.1,0.1,0.1,0.1,0.2,0.2l0.1,0.1l0.1,0.1l0.2,0.1l0,0h0.1
	h0.2h0.3c0.2,0,0.3,0,0.5-0.1l0,0c0.3-0.1,0.5-0.2,0.8-0.3c1.9-0.9,3.8-1.9,5.7-2.8l0.8-0.4l2-0.9l0.8-0.4c0.9-0.4,1.8-0.8,2.8-1.2
	s2.2-0.9,3.3-1.3c0.4-0.1,0.8-0.3,1.1-0.4c0.6-0.2,1.2-0.4,1.8-0.6c1.6-0.5,3.3-0.7,5-0.5c0.1,0,0.2,0,0.2,0c0.1,0,0.2-0.1,0.3-0.2
	l0,0l1.4-1.3l0.9-0.9l0.6-0.5l1.2-1.1l1.8-1.7c0.6-0.2,1.1-0.4,1.6-0.6l0.5-0.2c0.5-0.2,1-0.4,1.5-0.7l0.1-0.1
	c0.4-0.2,0.8-0.4,1.3-0.7l0.8-0.4l0.6-1.4c-0.5,0.3-1,0.5-1.5,0.8l-0.2,0.1c-1.4,0.8-3,1.5-4.5,2h-0.1l-0.3,0.2l-1.6,1.3l-3.6,3.3
	l-0.9,0.8c-0.1,0-0.3,0-0.4,0l0,0c-0.6-0.1-1.3-0.1-1.9,0l-0.6,0.1h-0.4l-0.3,0.1c-0.5,0.1-1,0.2-1.5,0.3s-1.2,0.3-1.8,0.5l-0.8,0.3
	c-1.3,0.5-2.6,1-3.8,1.4c-3.1,1.2-6.1,2.7-9.2,4.2l-3,1.5c-0.2,0.1-0.4,0.2-0.6,0.3c-0.2,0.1-0.3,0.1-0.5,0c-0.1,0-0.2-0.2-0.4-0.3
	c0,0-0.1-0.1-0.1-0.1h-0.1l-0.2-0.1h-0.3h-0.1c-0.2,0-0.3,0-0.5,0.1c-0.3,0.1-0.7,0.3-1,0.4c-0.2,0.1-0.5,0.2-0.7,0.3h-0.1l0,0h-0.1
	c-0.8,0.2-1.6,0.4-2.4,0.5c-1.3,0.1-2.5,0.3-3.7,0.7l-0.2,0.1c0.2-0.3,0.4-0.5,0.7-0.8l0.1-0.1c0.6-0.5,1.2-0.9,1.9-1.3
	c1.4-0.8,2.9-1.4,4.4-1.9c0.8-0.3,1.6-0.5,2.4-0.6c0.3-0.1,0.5-0.3,0.6-0.5c0.3-0.7,0.8-1.3,1.4-1.8c0.7-0.5,1.4-1,2.1-1.4
	c3.7-2.1,7.4-3.5,11.2-5.5s7.8-4.2,11.7-5.9s7.8-3.6,11.6-5.8c0.8-0.5,1.7-1,2.5-1.4l0.6-1.4c-1.1,0.6-2.1,1.3-3.2,1.9
	c-1.4,0.8-2.9,1.5-4.3,2.3s-2.9,1.4-4.3,2.1c-0.9,0.4-1.9,0.9-2.9,1.3c-4,1.8-7.9,3.9-11.8,6c-2.8,1.5-5.6,2.6-8.4,4
	c-1,0.5-1.9,1-2.9,1.5l-0.6,0.4c-0.6,0.4-1.2,0.8-1.8,1.2c-0.5,0.4-1,0.9-1.4,1.5c-0.1,0.2-0.2,0.4-0.4,0.6l-1,0.3
	c-0.4,0.1-0.7,0.2-1.1,0.3c-0.8,0.3-1.6,0.6-2.4,0.9s-1.6,0.7-2.3,1.1c-0.6,0.3-1.1,0.7-1.7,1.1c-0.2,0.1-0.4,0.3-0.6,0.5
	c-0.6,0.5-1.1,1.2-1.4,1.9c-0.2,0.2-0.5,0.3-0.7,0.5c-1.1,0.9-2.1,1.9-3,3.1c-0.4,0.6-0.8,1.2-1.2,1.8c-0.3,0.6-0.6,1.3-0.9,1.9
	c-0.7,0.5-1.3,1.1-1.9,1.8c-0.5,0.8-1,1.6-1.3,2.4c-0.8,1.8-1.6,3.5-2.4,5.3c-0.4,0.9-0.7,1.8-1,2.7s-0.6,1.8-0.9,2.6
	c-1.1,3.5-1.8,7-2.2,10.6c-0.2,1.7-0.4,3.4-0.5,5.1c-0.1,2-0.2,4-0.3,6c-0.3,6.3-0.2,12.5-0.4,18.7c-0.1,2.1-0.1,4.2-0.2,6.2
	c0,0.8-0.1,1.6-0.2,2.4c-0.1,2-0.3,3.9-0.5,5.9c-0.6,5.9-1.4,11.9-2,17.8c-0.4,3.8-0.8,7.5-1.2,11.3s-0.7,7.5-1,11.3
	c-0.2,3.1-0.4,6.2-0.5,9.2c-0.1,1.5-0.1,3-0.1,4.6c0,1.5,0,3,0,4.5c0,2-0.1,4-0.2,6c-0.1,0.9-0.1,1.8-0.2,2.7
	c-0.1,0.9-0.2,1.8-0.3,2.7c-0.3,2.7-0.7,5.4-1,8.1c-0.2,1.8-0.4,3.6-0.6,5.4c-0.1,0.9-0.2,1.8-0.3,2.7s-0.2,2-0.3,3.1
	s-0.2,2.1-0.4,3.1c-0.3,2.1-0.7,4.2-1.1,6.3c-0.2,1-0.4,2.1-0.7,3.2c-0.8,3.2-1.6,6.3-2.7,9.5c-0.8,2.3-1.5,4.5-2.3,6.8
	c-0.8,2.3-1.6,4.5-2.4,6.8c-0.8,2.3-1.7,4.5-2.5,6.8c-0.8,2.3-1.7,4.5-2.6,6.8c-1.6,4.1-2.8,8.3-3.6,12.6c-0.1,0.6-0.2,1.2-0.3,1.8
	s-0.2,1.5-0.2,2.2c-0.2,1.7,0,3.3,0.3,4.9c0.1,0.5,0.3,1,0.5,1.4c0.2,0.3,0.3,0.7,0.5,1c0.1,0.1,0.1,0.2,0.2,0.3
	c0.1,0.2,0.3,0.4,0.5,0.6c0.2,0.2,0.4,0.3,0.6,0.5l-0.4,0.3l-0.7,0.5c-0.5,0.4-1,0.8-1.4,1.3c-0.2,0.2-0.3,0.4-0.4,0.6l-0.1,0.2
	c-0.3,0.5-0.4,1-0.4,1.6v0.4c0,0.9,0.2,1.7,0.6,2.5c0.1,0.2,0.3,0.4,0.5,0.6l0.4,0.3c0.1,0.1,0.2,0.1,0.3,0.2
	c0.1,0.1,0.2,0.1,0.3,0.2c0.1,0.1,0.1,0.2,0.2,0.3c0.1,0.3,0.3,0.6,0.4,1c0.1,0.3,0.2,0.7,0.3,1c0.1,0.6,0.2,1.2,0.3,1.8
	c0.1,1.3,0.2,2.5,0.1,3.8c0,0.7,0,1.3-0.1,2c0,0.4-0.1,0.8-0.1,1.2s-0.1,0.8-0.1,1.2s-0.1,1.1-0.1,1.7c-0.1,1.1-0.2,2.2-0.3,3.3
	c-0.1,1.9-0.3,3.8-0.4,5.7c-0.1,1-0.1,1.9-0.2,2.8l-0.1,1.4c-0.2,3.2-0.7,6.4-1.1,9.7l-0.2,1.4c-0.2,1.8-0.4,3.7-0.6,5.5
	s-0.4,3.7-0.6,5.5c0,0.5-0.1,1-0.2,1.5c-0.2,1.5-0.4,3-0.6,4.5c-0.1,1-0.3,2-0.4,3s-0.2,2-0.3,3c0,0.5,0,0.9-0.1,1.3
	s-0.1,0.9-0.1,1.3c0,2.5-0.1,4.9-0.1,7.4c-0.1,2.5-0.1,4.9-0.2,7.4c-0.1,1.2-0.1,2.5-0.1,3.7c-0.1,2.5-0.1,4.9-0.1,7.3
	c0,1.2,0,2.4,0,3.6c0,3.5,0,7.1,0.2,10.7c0.1,1.2,0.1,2.3,0.2,3.5c0.1,1.2,0.1,2.4,0.1,3.7c0,0.6,0,1.2-0.1,1.9
	c0,0.6-0.1,1.3-0.1,1.9v0.4c-0.1,0.8-0.1,1.6-0.2,2.5c-0.1,0.8-0.2,1.7-0.4,2.5c-0.1,0.3-0.1,0.6-0.2,1c-0.2,0.7-0.4,1.5-0.5,2.2
	c-0.1,0.4-0.1,0.7-0.2,1.1c0,0.2,0,0.4,0,0.5s0,0.3,0,0.5c0,0.1,0,0.2,0.1,0.3c0.1,0.5,0.4,1,0.7,1.4l0.1,0.2
	c0.1,0.1,0.1,0.2,0.2,0.3l0.2,0.4c0.1,0.1,0.1,0.3,0.2,0.4c0.1,0.1,0.1,0.3,0.2,0.4c0.1,0.1,0.2,0.3,0.4,0.4
	c0.5,0.3,1.1,0.5,1.7,0.6c0.3,0,0.6,0.1,1,0.1s0.6,0,0.9,0h0.1c0.1,0.1,0.1,0.2,0.1,0.3c0,0.2-0.1,0.4-0.2,0.5
	c-0.2,0.3-0.3,0.5-0.5,0.7c-1.2,1.6-2.3,3.4-3.2,5.2c-0.1-0.1-0.2-0.2-0.4-0.2c-0.3,0.1-0.5,0.3-0.6,0.6c-0.3,1.1-0.5,2.2-0.6,3.3
	c0,0.5,0,1,0,1.5c0,0.2,0.1,0.3,0.3,0.3c0.1,0,0.2,0,0.4,0c-0.2,0.6-0.2,1.2-0.3,1.8v0.1c-0.1,2.1-0.3,4.1-0.4,6.2
	c-0.1,1.8,0,3.4-0.1,5.1c0,0.5-0.1,0.9-0.1,1.4c-0.4,2.8-0.5,5.4-0.8,8l-0.1,2.1c0,0.4-0.1,0.9-0.1,1.3c-0.1,1.1-0.3,2.2-0.4,3.3
	c0,0.3,0,0.6,0,0.9c0,2.5,1.2,3.8,1.8,5.6c0.2,0.7,0.5,1.3,0.9,1.8c0.2,0.2,0.3,0.4,0.5,0.7c0.1,0.2,0.3,0.4,0.5,0.5
	c-0.1,0.1-0.3,0.2-0.4,0.3l-0.1,0.1l-0.2,0c-0.2,0-0.3,0.1-0.4,0.2c-1.1,1.1-1.9,2.4-2.4,3.9c-0.1,0.3-0.1,0.5-0.1,0.8
	c0,1.1,0.2,2.1,0.8,3c1.6,3.1,4.2,5.1,6.8,7c2.1,1.7,4.5,3.2,7,4.2c0.4,0.2,0.8,0.2,1.3,0.2c0.2,0,0.3-0.1,0.5-0.1
	c0.3-0.1,0.5-0.2,0.8-0.3c0,0,0,0.1,0,0.1v0.3l0,0c0,0.3,0.2,0.6,0.5,0.8c0.2,0.1,0.5,0.2,0.8,0.3c0.5,0.1,0.9,0,1.4-0.2l0.6-0.2
	c2.1-0.6,4.2-1.2,6.3-1.7c1-0.2,2.1-0.3,3.3-0.7c0.4-0.1,0.8-0.3,1.2-0.5c0.3-0.2,0.6-0.4,0.9-0.6c0.3-0.3,0.5-0.6,0.7-0.9l0.4-0.2
	c0.3-0.1,0.6-0.2,0.9-0.3l0.2-0.1c0.2-0.1,0.4-0.1,0.6-0.2c0.1-0.1,0.2-0.2,0.3-0.3c0.4-0.5,0.6-1.1,0.7-1.7l0,0v-0.1
	c0-0.3,0-0.6-0.2-0.8c-0.2-0.2-0.4-0.3-0.7-0.3c-0.2,0-0.5,0.1-0.7,0.2l-0.4,0.1l-0.2,0.1c-0.6,0.1-1.1,0.1-1.7,0
	c-0.2-0.1-0.5-0.1-0.7-0.1c0-0.4-0.2-0.7-0.6-0.8l-0.3-0.1c-0.1,0-0.3,0-0.4,0c-0.1,0-0.2,0.1-0.3,0.2c-0.8,0.2-1.7,0.1-2.4-0.4
	c-1.4-0.8-2.3-2.6-4.1-3.3c-0.4-0.2-0.9-0.3-1.4-0.3c-0.3-0.4-0.6-0.7-1-1c-0.7-0.8-0.8-2-1.3-3.3c-0.6-1.8-0.8-3.6-0.6-5.5
	c0.2-2,0.6-4,1.2-5.9c0.1-0.3,0.1-0.6,0.2-0.9c0.1-0.9-0.2-1.9-0.8-2.6c-0.3-0.3-0.6-0.5-0.9-0.6c0.2-0.6,0.3-1.3,0.4-1.9
	c0.1-1.2-0.1-2.5-1.1-3c-0.9-0.6-1.7-1.4-2.3-2.4c-0.6-1.2-0.8-2.4-0.8-3.7c0-1.1,0-2.3,0.1-3.4c0.2-2,0.5-4.1,1-6.1
	c0.5-1.9,1.3-3.9,1.7-5.9c0.2-1.4,0.6-2.7,1-4c0.2,0,0.5-0.1,0.7-0.1c0.4-0.2,0.8-0.4,1.2-0.6c0,0.2-0.1,0.4-0.1,0.6l0,0
	c0,0.1,0,0.2,0.1,0.3l0.1,0.1l0.1,0.1l0.3,0.2c0.2,0.1,0.6,0.2,0.8,0.3c0.1,0,0.2,0.1,0.3,0.1l0,0c0.5,0.3,1,0.7,1.4,1.1
	c0.8,0.9,1.5,1.9,1.9,3.1c0.7,2,1.2,4,1.5,6.1c0.2,1,0.2,2.1,0.3,3.1c0,1.1,0.3,2.1,0.9,3c0.5,0.8,1.2,1.5,1.9,2.2
	c0.1,0.1,0.2,0.1,0.3,0.1c-0.1,0.2-0.1,0.4-0.1,0.5c0,0.2,0,0.4,0,0.6c0.1,0.4,0.4,0.8,0.8,1c0.3,0.2,0.5,0.4,0.7,0.7
	c0.4,0.7,0.9,1.2,1.4,1.7c0.3,0.4,0.5,0.9,0.6,1.4c0.6,1.5,1,3.2,1.1,4.8c0,0.4,0.1,0.8,0.2,1.2c0.1,0.4,0.5,0.8,0.9,0.9
	c0.3,0,0.6,0,0.9-0.1c0.1,0,0.2-0.1,0.3-0.1c0.6,0.4,1.1,0.9,1.5,1.5c0.2,0.4,0.3,0.9,0.3,1.4c0,0.6,0.2,1.2,0.5,1.7
	c0.2,0.3,0.4,0.5,0.7,0.6c0.3,0.2,0.7,0.2,1,0.1c0.4-0.1,0.7-0.4,1-0.6c0.6-0.5,0.9-1.2,1-2c0-0.2,0-0.5-0.1-0.7
	c-0.3-0.8-0.5-1.7-0.5-2.6c0-0.2,0-0.3,0.1-0.5c0.1-0.4,0.3-0.9,0.5-1.3c0.2-0.5,0.4-1,0.6-1.5l0.1-0.4c0-0.3,0-0.7-0.2-1v-0.1
	c0-0.7-0.3-1.3-0.8-1.8c-0.4-0.4-0.8-0.7-1.2-1c-1.9-1.5-2.6-4.3-2.5-7.3v-0.3c0-0.2,0-0.5,0.1-0.7c0.1-0.6-0.1-1.2-0.4-1.7
	c-0.1-0.1-0.1-0.2-0.2-0.2c0.2-0.3,0.4-0.5,0.6-0.8c0.3-0.4,0.5-0.9,0.5-1.5c0-0.2,0-0.5-0.1-0.7c-0.1-0.4-0.4-0.8-0.6-1.2l-2.1-3
	c-0.4-0.8-0.8-1.7-1-2.7c-0.9-2.3-2-4.6-3.1-6.8c-0.6-1.5-1.4-3-2.3-4.3c-0.5-0.6-1-1-1.7-1.3c-0.1-0.1-0.2-0.1-0.4-0.2
	c0-0.1,0-0.1,0-0.2l0,0c0.1-0.7,0.1-1.5-0.1-2.2c-0.1-0.7-0.7-1.3-1.5-1.4c-0.3,0-0.7,0-1,0.2c-0.4,0.1-0.8,0.3-1.1,0.5
	c0-0.4-0.2-0.7-0.5-1c-0.3-0.2-0.6-0.4-0.9-0.6c-1.5-0.9-2.7-2.2-3.6-3.7c-0.5-0.7-1.3-1.1-2.1-1.3c-0.7-0.2-1.3-0.4-2-0.6
	c1.2-6.3,2.2-12.5,3-18.7c0.2-1.9,0.5-3.8,0.7-5.7s0.4-3.8,0.6-5.7c0.2-2.5,0.5-5,0.7-7.5c0.1-1.2,0.2-2.5,0.4-3.8s0.2-2.5,0.3-3.8
	c0.2-2.4,0.3-4.8,0.4-7.2c0-1.6,0.1-3.3,0.1-4.9s0.1-3.3,0.1-4.9c0.1-3.3,0.2-6.6,0.5-9.9c0-0.3,0-0.5,0.1-0.8l0.1-1.5
	c0.3-3.5,0.5-7,1.1-10.5c0.1-0.5,0.2-1,0.3-1.5c0.3-1.2,0.5-2.5,0.8-3.7c0.7-3.7,1.3-7.4,2.1-11.2c0.6-2.6,1.2-5.1,1.8-7.7
	c0.6-2.6,1.2-5.2,1.9-7.8c0.5-2.2,1.1-4.5,1.7-6.7c0.1-0.5,0.3-1,0.4-1.5c0.1-0.3,0.2-0.6,0.3-0.9c0.4-1,0.7-1.9,1-2.9
	c0.1-0.3,0.1-0.5,0.2-0.8c0.1-0.3,0.1-0.6,0.1-0.9c0-0.1,0-0.2,0-0.3c0.8-0.5,1.4-1.2,1.9-2c0.1-0.1,0.2-0.3,0.2-0.4
	c0.4-0.7,0.7-1.5,0.8-2.3c0.1-0.3,0.1-0.6,0.1-0.9c0-0.2,0-0.3,0-0.5s0-0.2,0-0.2l0.2-0.1l0.2-0.1l0.9-0.2l0.5-0.2l0.2-0.1
	c0.7-0.2,1.4-0.5,2.1-0.9c0.2-0.1,0.5-0.3,0.7-0.4c0.2-0.2,0.5-0.4,0.7-0.6c0.4-0.4,0.8-0.9,1.1-1.5c0.2-0.3,0.3-0.5,0.5-0.8
	c0.5-1,1-2,1.3-3 M217.8,254.3l-1,0.7l-0.2,0.2c-0.2-0.2-0.4-0.4-0.6-0.6C216.6,254.4,217.2,254.3,217.8,254.3L217.8,254.3z
	 M218.4,256.9l-0.3,0.4l-0.6,0.8c-0.1,0.1-0.1,0.2-0.1,0.3c0,0.1,0,0.2,0,0.3l0,0l0,0l-0.1,0c-0.3,0.1-0.8,0.4-1.3,0.6
	c-0.5,0.2-1,0.5-1.5,0.6c-0.2,0.1-0.3,0.1-0.5,0.1c-0.3-0.1-0.5-0.3-0.7-0.5c-0.2-0.2-0.2-0.4-0.2-0.6l0.1-0.3
	c0.2-0.4,0.5-0.6,0.9-0.9l2-1.4l1-0.7l2.1-1.5c0,0,0.1,0,0.1,0.1c0.1,0.1,0.1,0.3,0.1,0.4c0,0.2-0.1,0.4-0.2,0.6
	c-0.1,0.2-0.2,0.4-0.4,0.7L218.4,256.9z M197.7,477c-0.4,1-0.8,1.9-1.3,2.8c-0.4,0.8-1,1.6-1.7,2.2c-0.7,0.5-1.6,0.9-2.4,1.2
	l-0.2,0.1c-0.2,0-1.2,0.4-1.9,0.5c-0.1,0-0.3,0.1-0.4,0.1l0,0l0,0c-0.1,0-0.1,0-0.2,0c-0.1,0-0.1,0-0.2,0.1c-0.1,0-0.1,0.1-0.2,0.2
	c-0.1,0.1-0.1,0.1-0.1,0.2l0,0c0,0.1-0.1,0.1-0.1,0.2c0,0.1,0,0.1,0,0.2c0.1,0.4,0.1,0.8,0.1,1.2c-0.1,1-0.4,2-0.9,2.9
	c-0.3,0.5-0.7,0.9-1.1,1.3c-0.1-0.5-0.2-1-0.4-1.5c-0.1-0.3-0.3-0.5-0.4-0.8c-0.2-0.3-0.4-0.6-0.5-1c-0.3-0.5-0.6-1-0.9-1.4
	c-0.3-0.5-0.6-0.9-1-1.3c-0.4-0.4-1-0.5-1.4-0.3c-0.2,0.1-0.3,0.1-0.4,0.2c-0.2,0.1-0.4,0.3-0.6,0.4c-0.2,0.2-0.4,0.3-0.6,0.5
	c-0.3,0.2-0.5,0.5-0.7,0.7l-0.6,0.7c-0.4,0.5-0.8,0.9-1.1,1.4s-0.9,1.1-1.3,1.6c-0.3,0-0.7,0-1,0.1c-0.7,0.3-1.4,0.7-2.1,1.1
	c-0.6,0.4-1.2,0.7-1.8,1c-0.1,0.1-0.3,0.1-0.5,0.1c-0.5,0-1,0-1.5-0.1c-0.6-0.1-1.2-0.1-1.8,0l-0.4,0.1c-0.5,0.2-1,0.4-1.4,0.6h-0.6
	h-0.6c-0.5,0-0.9,0.1-1.3,0.2h-0.1c-0.2,0.1-0.4,0.2-0.6,0.2c-0.7-0.2-1.2-0.5-1.6-1.1c-0.5-0.8-0.9-1.6-1.1-2.6
	c-0.4-1.5-0.5-3.1-0.3-4.6c0-0.7,0.1-1.4,0.2-2.1c0.8-4.8,2.1-9.5,3.8-14.1c3.5-9.1,6.8-18.2,9.9-27.3c2.8-8.2,4.6-16.8,5.3-25.4
	c0.6-7.2,1.9-14.5,2.4-21.6c0.1-2,0.2-4.1,0.2-6.1c-0.1-6,0.2-12,0.6-18.2c0.5-7.5,1.3-15,2.1-22.5c0.8-7.9,1.9-15.8,2.5-23.7
	c0.1-0.8,0.1-1.6,0.1-2.4c0.5-8.4,0.3-16.6,0.7-25c0.1-2,0.2-3.9,0.3-5.9c0.3-7,1.8-13.8,4.3-20.3c0.7-1.8,1.5-3.5,2.3-5.2
	c0.3-0.7,0.7-1.4,1.1-2.1c0.5-0.6,1-1.1,1.7-1.5c0.2-0.1,0.3-0.3,0.3-0.4c0.9-2.6,2.6-4.8,4.8-6.4c0.1,0,0.2,0,0.4,0
	c0.3-0.2,0.7-0.3,1-0.4c0.3-0.1,0.6-0.2,0.9-0.2c0.9-0.2,1.7-0.3,2.7-0.4c0.4-0.1,0.9-0.1,1.3-0.2s0.7-0.2,1.1-0.3l0.4,0.2l0.4,0.1
	l0.3,0.1h0.1c0.2,0.1,0.5,0.2,0.7,0.4l0.1,0.1l0.1,0.1c0.3,0.2,0.6,0.3,0.8,0.5h0.1l0.4,0.3l0.4,0.4l0,0l0.5,0.4
	c0.2,0.2,0.4,0.4,0.6,0.6l-1.7,1.2l-0.4,0.3c-0.3,0.2-0.6,0.5-0.8,0.8c-0.1,0.2-0.2,0.3-0.3,0.5c-0.1,0.1-0.1,0.3-0.1,0.4
	c0,0.1-0.1,0.3-0.1,0.4c0,0.1,0,0.1,0,0.2c0,0.3,0.1,0.5,0.2,0.8c0,0.1,0.1,0.2,0.2,0.2c0.1,0.1,0.3,0.3,0.4,0.4
	c0.1,0.1,0.3,0.2,0.4,0.3c0.3,0.1,0.6,0.1,0.8,0l0.3-0.1c0.3-0.1,0.6-0.2,0.8-0.3l0.9-0.4l0.8-0.4l0.5-0.2l0.4-0.2
	c0.1,0.2,0.2,0.5,0.3,0.7s0.1,0.2,0.1,0.3c0.1,0.5,0.2,0.9,0.3,1.4c0,0.1,0,0.2,0,0.2c0,0.1,0,0.2,0,0.2c0.1,0.5,0.1,0.9,0.1,1.4
	l0,0v0.5c0,0.7,0,1.3,0,2v0.3c0,0.1,0,0.2,0,0.3c0,0.5-0.1,1-0.2,1.6s-0.2,1.3-0.3,2c-0.2,1.2-0.7,2.3-1.4,3.3
	c-0.6,0.8-1.6,1.5-2.5,2.5c-1.1,1.2-2,2.6-2.9,4c-1.4,2.4-2.6,5-3.6,7.6c-1.8,4.9-3.1,10-4,15.2c-2.8,15-4.8,30.1-5.9,45.4v0.3
	c-1.2,16.5-3.7,33.6-5.4,50.5c-1.1,10.7-2.7,21.8-3.4,32.5c-0.3,4.6-0.5,9.1-0.5,13.6c-0.1,6,1.2,12,3.7,17.5
	c1.1,2.2,1.9,4.5,3.8,6.1c0.7,0.5,1.4,0.8,1.7,1.4c0.4,0.7,0.6,1.6,0.6,2.4 M169.2,492.8h0.4l0.4,0.1c0.4,0.1,0.9,0.1,1.3,0
	c0.2,0,0.4-0.1,0.7-0.1c0.4-0.1,0.7-0.3,1.1-0.5c0.4-0.2,0.7-0.4,1-0.6s0.6-0.4,0.9-0.6c0.2-0.1,0.3-0.2,0.5-0.2
	c-0.6,0.5-1.1,1-1.7,1.5c-0.9,0.7-1.7,1.5-2.4,2.4c-0.1-0.2-0.2-0.4-0.4-0.6c-0.7-0.5-1.5-1-2.4-1.2
	C168.8,492.8,169,492.8,169.2,492.8L169.2,492.8z M167.4,622.2c-0.2,0.1-0.5,0.2-0.8,0.3c0-0.1,0-0.3,0.1-0.4V622c0-0.3,0-0.7,0-1
	c0-0.3,0-0.6-0.1-0.9s0-0.6-0.1-0.9c0-0.5-0.2-1-0.3-1.5c-0.1-0.2-0.2-0.5-0.3-0.7c-0.2-0.3-0.3-0.7-0.4-1c-0.1-0.3-0.2-0.7-0.2-1.1
	c-0.1-0.7-0.2-1.5-0.3-2.4c-0.2-1.9-0.4-3.9-0.6-5.8c0-0.1,0-0.2,0-0.2c0.4-2.9,0.8-5.8,1-8.7c0.2-2.3,0.3-4.6,0.3-6.8
	c0.1-4.5,0.5-8.7,0.7-13.2c0.3-7.2-0.3-14.2-0.2-21.3c0-2.4,0.1-4.8,0.3-7.2c0.3-4.7,0.9-9.5,1.6-14.4c0.2-1.8,0.5-3.5,0.8-5.3
	c0.3-1.9,0.5-3.8,0.6-5.7c0-0.6,0.1-1.2,0.1-1.8c0.2-0.7,0.4-1.5,0.6-2.2c0.4-1.4,0.8-2.8,1.1-4.3c0.1-0.4,0.2-0.9,0.2-1.3
	c0-0.1,0-0.2,0-0.3s0-0.4,0-0.6c0-1.3-0.1-2.6-0.5-3.8c-0.1-0.6-0.3-1.2-0.5-1.9c0.1-0.7,0.2-1.3,0.3-2c0-0.5,0-1.1,0-1.6
	c-0.3-1.4-0.4-2.8-0.4-4.3c0-0.2,0-0.4,0.1-0.6c0.1-0.5,0.2-0.9,0.3-1.3l0,0c0.1-0.1,0.2-0.2,0.2-0.3l0.2-0.4
	c0.2-0.3,0.3-0.6,0.3-0.9c0-0.1,0-0.2,0-0.3c0.1-0.2,0.2-0.3,0.3-0.5c0.7-0.9,1.5-1.7,2.3-2.4c1-0.8,1.9-1.6,2.8-2.5l0,0
	c0.3-0.3,0.6-0.7,0.9-1.1c0.7-0.9,1.4-1.8,2-2.6c0.4-0.4,0.7-0.8,1.1-1.2c0.3-0.3,0.7-0.6,1.1-0.8c0.2-0.1,0.5-0.1,0.7,0.1
	c0.9,1.1,1.7,2.3,2.4,3.6c0.4,0.6,0.6,1.3,0.7,2c0,0.3,0,0.7,0,1c0,0,0,0.1,0,0.1c0,0.2,0,0.5-0.1,0.8c-0.3,1.9-1.4,3.9-1.9,6
	s-1.1,4.5-1.7,6.7c-1.2,5.2-2.5,10.3-3.6,15.5s-1.8,10-2.9,14.9c-0.7,4-1.2,8.1-1.4,12.2c-0.1,0.8-0.1,1.6-0.2,2.3
	c-0.5,6.7-0.6,13.2-0.7,19.8c0,2.4-0.2,4.7-0.3,7.2c-0.4,5-0.9,10-1.4,15C170.8,602.2,169.4,612.3,167.4,622.2L167.4,622.2z
	 M165.4,549.6c-0.2,2.4-0.3,4.9-0.3,7.3c0,3.6,0.1,7.1,0.2,10.6c0,0.9,0,1.8,0.1,2.6c0,2.6,0.1,5.3,0,8l-0.1,1.7
	c-0.2,3.9-0.5,7.6-0.6,11.6c0,1.1-0.1,2.2-0.1,3.4s-0.1,2.3-0.2,3.4c-0.1,1.3-0.2,2.7-0.4,4c-0.1-0.4-0.1-0.8-0.1-1.2
	c-0.1-0.8-0.2-1.7-0.2-2.5c-0.1-1.3-0.1-2.6,0-3.9s0.1-2.7,0.1-4c0-0.4,0-0.8,0-1.1c0-1.1-0.1-2.2-0.2-3.3c-0.2-1.4-0.3-2.9-0.3-4.3
	c0-4.8,0.1-9.6,0.4-14.5c0.1-1.6,0.2-3.3,0.3-4.9c0-0.3,0-0.6,0.1-0.9l0.1-1.8c0.3-3.6,0.5-7.2,0.8-10.8c0.1-1.2,0.2-2.4,0.4-3.6
	c0.2-1.9,0.4-3.9,0.8-5.8c0.2-1,0.3-1.9,0.5-2.9c0.4-2.1,0.8-4.2,1.3-6.3c-0.1,1-0.3,2-0.4,3.1c-0.1,0.6-0.2,1.2-0.2,1.8
	s-0.2,1.2-0.2,1.8C166.2,541.2,165.8,545.4,165.4,549.6L165.4,549.6z M176.5,629.5c-0.5,0.1-1.1,0-1.9,0.2h-0.2
	c-0.7,0.3-1.3,0.7-1.7,1.3v0.1c0,0,0,0,0,0c-0.2,0.3-0.4,0.6-0.4,0.9c-0.1,0.3-0.1,0.5-0.1,0.8l-0.1-0.1c-0.2,0-0.4,0-0.6,0.1
	c-0.2,0.1-0.3,0.1-0.5,0.2c-1.4,0.8-2.8,1.6-4.1,2.5c-0.1-0.8-0.2-1.7-0.4-2.6c-0.1-0.7-0.3-1.3-0.6-1.9c-0.5-0.5-1.1-0.8-1.8-1
	c-0.3-0.1-0.6-0.3-0.8-0.6l0,0c0.6-0.9,1.1-1.7,1.6-2.6l0,0l0.2-0.4c0,0,0-0.1,0.1-0.1l0,0c0.4-0.8,0.8-1.7,1.1-2.5l0,0
	c0.5-0.2,1-0.4,1.4-0.7l0.2-0.1l0,0c0.6,0.3,1.3,0.4,1.9,0.6c0.7,0.1,1.3,0.5,1.8,1c1,1.5,2.3,2.8,3.8,3.8c0.3,0.2,0.6,0.3,0.8,0.5
	C176.5,629.1,176.5,629.3,176.5,629.5L176.5,629.5z M165.8,637.3l0.6-0.4l0.5-0.3c1.3-0.9,2.7-1.8,4.2-2.5l0.3-0.1c0,0,0,0.1,0,0.2
	c0,0.2-0.1,0.4-0.1,0.6c0,0,0,0,0,0.1c0,0.1-0.1,0.3-0.1,0.4c0,0.1,0,0.1-0.1,0.2c0,0,0,0.1,0,0.1c0,0.1,0,0.1-0.1,0.2
	c-0.1,0.2-0.1,0.3-0.2,0.5c0,0.1-0.1,0.2-0.1,0.2c-0.1,0.2-0.2,0.4-0.4,0.6c-0.2,0.2-0.4,0.5-0.6,0.7c-0.3,0.3-0.6,0.5-1,0.8
	l-0.3,0.2c-0.3,0.2-0.7,0.4-1.1,0.7c-1.1,0.6-2.2,1.3-3.2,1.8c-0.2,0.1-0.5,0.2-0.7,0.3c-0.2,0.1-0.3,0.1-0.5,0.1l0,0
	c-0.1,0-0.1,0-0.2-0.1l0,0c-0.1-0.1-0.2-0.2-0.2-0.3c0-0.1,0-0.1-0.1-0.2c0-0.1-0.1-0.2-0.1-0.3c0,0,0-0.1,0-0.1c0,0,0,0,0-0.1
	l0.1-0.3c0.5-0.5,1-1,1.6-1.3l1.2-0.9l0.2-0.1L165.8,637.3L165.8,637.3z M189.6,671L189.6,671l0.1-0.2l0.2-0.3
	c0.2-0.2,0.4-0.5,0.6-0.7c0.8-0.9,1.8-1.6,2.9-2l0,0c0.5-0.2,1-0.1,1.5,0.1c0.2,0.1,0.3,0.2,0.4,0.3c0.1,0.1,0.2,0.3,0.2,0.4
	c0,0.1,0,0.2,0,0.3v0.2c0,0.1,0,0.1-0.1,0.2c-0.1,0.3-0.3,0.7-0.4,1c-0.2,0.5-0.4,1-0.6,1.6c0,0.2-0.1,0.5-0.1,0.7
	c0,1,0.2,2,0.5,2.9c0,0.1,0,0.3,0,0.4c0,0.4-0.2,0.7-0.5,1c-0.1,0.1-0.2,0.2-0.4,0.2c-0.1,0.1-0.3,0.1-0.4,0
	c-0.2-0.1-0.3-0.2-0.4-0.4c-0.2-0.4-0.3-0.9-0.4-1.4c0-0.6-0.2-1.2-0.4-1.7c-0.3-0.5-0.7-1-1.2-1.3c-0.1-0.1-0.3-0.2-0.4-0.3
	l-0.5-0.3l-0.2-0.1c-0.2-0.1-0.4-0.2-0.5-0.3C189.7,671.3,189.6,671.1,189.6,671L189.6,671z M184.2,660.5c0-0.2,0.1-0.4,0.1-0.5
	c0.1-0.2,0.2-0.4,0.3-0.6l0,0l0.4-0.7l0.1-0.1c0.1-0.2,0.3-0.4,0.4-0.6c1-1.1,2.3-2,3.6-2.7h0.1c0.2,0,0.4,0,0.6,0l0.3,0.1l0.2,0.1
	c0.1,0.1,0.2,0.2,0.3,0.3c0.1,0.1,0.1,0.1,0.2,0.2c0.2,0.3,0.3,0.7,0.2,1.1c0,0.2,0,0.5-0.1,0.7v0.3c-0.1,3.2,0.6,6.3,2.7,8
	c0.2,0.2,0.6,0.4,0.9,0.7c-0.3,0-0.7,0-1,0.1h-0.1c-1.3,0.5-2.5,1.4-3.5,2.5c-0.1,0.2-0.4,0.5-0.7,0.8s-0.3,0.4-0.4,0.6
	c-0.2-1.7-0.6-3.4-1.2-5c-0.1-0.6-0.4-1.1-0.7-1.6c-0.5-0.6-1-1.1-1.4-1.7c-0.2-0.3-0.5-0.6-0.9-0.8c-0.3-0.2-0.5-0.4-0.6-0.7
	L184.2,660.5z M174.5,640.1c0-0.3,0.1-0.7,0.2-1c0.1-0.3,0.2-0.7,0.3-1c0.2-0.6,0.6-1.2,0.9-1.8c0.1-0.1,0.1-0.1,0.1-0.2
	c0.9-1.3,2-2.4,3.4-3.2l0,0h0.2c0.1,0,0.1,0,0.2,0l0.4,0.1l0.1,0.1l0.4,0.2l0.3,0.2c0.6,0.3,1.1,0.7,1.5,1.2
	c0.9,1.3,1.6,2.7,2.2,4.2c1.1,2.2,2.1,4.4,3.1,6.7c0.3,1,0.6,1.9,1.1,2.8l2.1,3c0.2,0.3,0.4,0.6,0.6,1v0.3c0,0.3-0.1,0.6-0.3,0.8
	c-0.1,0.2-0.3,0.4-0.4,0.6l0,0c-0.5-0.2-1-0.2-1.4,0l-0.2,0.1c-1.6,0.7-3,1.8-4.2,3.1c-0.3,0.3-0.5,0.6-0.7,1
	c-0.2,0.3-0.3,0.6-0.5,0.9l0,0h-0.1c-0.6-0.6-1.2-1.3-1.6-2c-0.5-0.8-0.7-1.7-0.8-2.6c-0.1-1-0.1-2.1-0.3-3.2
	c-0.4-2.1-0.9-4.2-1.6-6.2c-0.4-1.2-1.1-2.4-2-3.3c-0.4-0.5-0.9-0.9-1.5-1.2l-0.2-0.1l-0.3-0.1L174.5,640.1L174.5,640.1z M171,639.2
	c-0.1-0.2-0.2-0.6-0.4-0.9c-0.1-0.1-0.1-0.2-0.2-0.4l0.1-0.1c0.1-0.2,0.3-0.3,0.4-0.5c0.2-0.3,0.4-0.6,0.6-0.9
	c0.1-0.1,0.1-0.2,0.1-0.3s0.2-0.4,0.2-0.6s0.1-0.2,0.1-0.3s0.1-0.4,0.1-0.5l0.1-0.2c0.2-0.3,0.4-0.6,0.6-0.9c0-0.1,0.1-0.2,0.1-0.3
	c0-0.1,0.1-0.2,0.1-0.3c0.1-0.4,0.1-0.7,0.2-0.9l0.2-0.4l0.1-0.1c0.2-0.3,0.5-0.5,0.9-0.7h0.1c0.5-0.1,1-0.1,1.7-0.2
	c0.1,0,0.2,0,0.3-0.1l0.3-0.1h0.1c0.2-0.1,0.4-0.2,0.6-0.3c0.4-0.2,0.8-0.4,1.2-0.5c0.2-0.1,0.4-0.1,0.6-0.1
	c0.5,0.1,0.9,0.5,0.9,0.9c0.1,0.4,0.1,0.9,0.1,1.4c-0.1,0-0.1,0-0.2,0c-0.2-0.1-0.5-0.1-0.7,0l-0.2,0.1c-1.6,1-3,2.3-4,3.8
	c-0.6,0.9-1.1,1.9-1.4,3c-0.1,0.1-0.3,0.2-0.4,0.3c-0.3,0.3-0.7,0.5-1.1,0.6c-0.2,0.1-0.5,0.1-0.8,0.1l0,0h-0.1
	C171.2,639.6,171.1,639.5,171,639.2L171,639.2z M170.9,669.7c0,0.5-0.1,0.9-0.2,1.4c-0.2,0-0.4,0-0.6,0.1l-0.4,0.1
	c-1,0.4-1.9,0.9-2.6,1.6c-0.8,0.8-1.6,1.6-2.3,2.5l-0.5,0.6h-0.2l0,0c-0.3-0.1-0.5-0.2-0.8-0.4l0,0c-0.2-0.2-0.4-0.4-0.6-0.6l0,0
	c-0.2-0.2-0.4-0.5-0.5-0.7c-0.4-0.7-0.6-1.4-0.7-2.2c0-0.1,0-0.3,0-0.4c0-0.2,0-0.4,0.1-0.6c0-0.2,0.1-0.4,0.2-0.6s0.2-0.7,0.3-1.1
	c0-0.1,0.1-0.2,0.1-0.3l0,0c0.1-0.3,0.2-0.7,0.3-1c0.6-2.4,1-4.9,1.2-7.5c0-0.4,0.1-0.9,0.1-1.3c0.1-1.4,0.1-2.8,0.2-4.1
	c0-0.6,0.1-1.2,0.2-1.7c0.1-0.4,0.1-0.8,0.1-1.2c0.1-0.9,0.1-1.8,0-2.6v-0.1c0-0.1,0-0.3-0.1-0.5s0,0,0-0.1c0-0.1,0-0.2,0-0.3
	c0-0.1,0-0.2-0.1-0.3c0-0.1,0-0.1-0.1-0.2c0,0,0-0.1,0-0.1c0-0.2-0.1-0.4-0.2-0.5c-0.3-0.4-0.6-0.7-0.7-0.9
	c-0.4-0.8-0.5-1.7-0.4-2.6c0-0.3,0.1-0.6,0.1-0.9c0-0.2,0.1-0.4,0.1-0.6h0.1l0.2-0.1c0.3-0.1,0.6-0.2,0.9-0.4
	c1.1-0.6,2.2-1.3,3.3-1.9l0.1-0.1l0.6-0.3l0.3-0.2c0.2-0.1,0.4-0.2,0.6-0.4l0.3-0.2l0.1-0.1c0,0.1,0.1,0.2,0.2,0.3
	c0.1,0.3,0.2,0.5,0.3,0.8c0.1,0.3,0.3,0.6,0.6,0.7c-0.5,1.4-0.8,2.9-1.1,4.4c-0.4,1.9-1.2,3.8-1.7,5.9c-0.5,2.1-0.8,4.2-1,6.3
	c-0.1,1.2-0.1,2.4-0.1,3.5c-0.1,1.4,0.2,2.8,0.9,4.1c0.6,1,1.5,1.9,2.5,2.5C170.8,667.8,171,668.7,170.9,669.7L170.9,669.7z
	 M162.9,655.5c-0.1,1.4-0.1,2.8-0.2,4.1c0,0.4-0.1,0.8-0.1,1.3c-0.2,1.4-0.3,2.9-0.6,4.3c-0.1-1.1-0.1-2.3-0.1-3.4
	c0-1.3,0-2.4,0.1-3.6c0.1-1.1,0.2-2.3,0.5-3.4c0.2-0.7,0.4-1.4,0.6-2.1c0,0.3-0.1,0.7-0.1,1C163,654.3,163,654.9,162.9,655.5
	L162.9,655.5z M173.6,691.6c-0.1,0.1-0.2,0.1-0.3,0.2l-3.1,3.3c-0.2,0.2-0.4,0.4-0.5,0.6c-0.1,0.2-0.2,0.4-0.3,0.6
	c-0.1-0.2-0.2-0.3-0.2-0.5c-0.1-0.6-0.2-1.2-0.3-1.8c0-0.2-0.1-0.3-0.1-0.5c-0.4-1.9-0.8-3.8-1.4-5.7c-0.6-2.5-1.5-4.9-2.7-7.2
	c-0.3-0.5-0.6-1.1-0.8-1.7c0.1-0.2,0.2-0.3,0.4-0.5c0.3-0.4,0.5-0.7,0.6-1.2c0.1-0.2,0.1-0.4,0.2-0.6l0,0c0-0.1,0-0.3-0.1-0.4
	c0,0,0.1-0.1,0.1-0.1l0.1-0.1c0.7-0.8,1.4-1.6,2.1-2.3c0.6-0.6,1.3-1,2.1-1.3l0.3-0.1c0.2,0,0.3,0,0.5,0c0.2,0,0.3,0,0.5,0.1
	c0.1,0.1,0.3,0.1,0.4,0.2c0.1,0.1,0.3,0.2,0.4,0.3c0.5,0.6,0.7,1.3,0.6,2c0,0.2-0.1,0.4-0.1,0.6c-0.6,2-1,4.1-1.2,6.2
	c-0.2,2,0,4,0.7,5.9c0.4,1.1,0.5,2.5,1.4,3.5C173.2,691.3,173.4,691.5,173.6,691.6L173.6,691.6z M183.2,696.2
	c-0.1,0-0.1,0.1-0.2,0.2c-0.2,0.2-0.4,0.3-0.6,0.4c-0.3,0.2-0.6,0.5-0.8,0.7l-0.1,0.1c-0.3,0.2-0.5,0.5-0.8,0.8
	c-0.1,0.1-0.2,0.2-0.3,0.4c-0.1,0.2-0.2,0.3-0.2,0.5c-1.6-0.3-3.2-0.8-4.8-1.4l0,0c-0.3-0.1-0.6-0.2-0.9-0.4
	c-0.9-0.3-1.8-0.4-2.7-0.4c-0.2,0-0.3,0-0.5-0.1c-0.1,0-0.1,0-0.2,0h-0.1c-0.1,0-0.2-0.1-0.2-0.1c-0.1,0-0.1-0.1-0.2-0.1
	c-0.1,0-0.1-0.1-0.2-0.2c-0.1-0.1-0.2-0.3-0.2-0.5l0,0l0.1-0.1c0.1-0.1,0.2-0.3,0.3-0.4c1-1.1,2.1-2.2,3.1-3.3c0,0,0.1,0,0.1-0.1
	c0.1-0.1,0.1-0.1,0.2-0.1c0.1,0,0.2,0,0.3,0c0.2,0,0.3,0,0.5,0.1c0.2,0,0.4,0.1,0.5,0.2c1.5,0.6,2.4,2.3,4,3.3
	c0.9,0.6,2.1,0.8,3.1,0.4l0,0l0.3-0.3l0.2,0.1L183.2,696.2z M183.2,699h-0.3l-0.6,0.1c-0.2,0-0.4,0-0.6,0.1l0,0c0,0-0.1,0-0.1,0
	h-0.2l0.1-0.2c0.2-0.2,0.4-0.4,0.6-0.6l0.2-0.3c0.1-0.1,0.3-0.2,0.4-0.3l0.1-0.1c0.2-0.2,0.5-0.4,0.7-0.5h0.1l0.1-0.1h0.2
	c0.1,0,0.2,0,0.2,0l0.4,0.1c0.7,0.1,1.3,0.1,2,0l0.4-0.1l0.4-0.1c0.1-0.1,0.3-0.1,0.4-0.1h0.1c0,0.1,0,0.2,0,0.3l0,0
	c0,0.3-0.1,0.5-0.3,0.8l-0.4,0.1l-0.1,0l-0.8,0.3l-0.3,0.1l-0.4,0.1l0,0c-0.3,0.1-0.6,0.2-0.9,0.3
	C184.3,698.8,183.8,698.9,183.2,699L183.2,699z M171.4,702.4c0-0.2,0.1-0.4,0.1-0.5l0,0l0.1-0.1l0,0l0,0c0.1-0.1,0.2-0.2,0.3-0.2
	l0.3-0.4v-0.1l0.1-0.2l0.1-0.2l0,0c0.1,0,0.2-0.1,0.2-0.1c0.8-0.4,1.5-0.9,2.3-1.4l0,0c1.7,0.5,3.4,1,5.1,1.3l0,0
	c0.3,0.1,0.7,0.1,1-0.1c0.2-0.1,0.4-0.2,0.5-0.2l0,0c0.5,0,1-0.1,1.5-0.1s0.8-0.1,1.2-0.2l-0.1,0.1c-0.3,0.2-0.6,0.3-0.9,0.4
	c-1,0.3-2,0.4-3.2,0.7c-2.1,0.5-4.2,1.1-6.3,1.7L173,703c-0.3,0.1-0.6,0.2-0.8,0.2c-0.2-0.1-0.4-0.1-0.6-0.2
	c-0.1-0.1-0.2-0.2-0.2-0.3L171.4,702.4z M171.1,699.4c-0.6-0.6-1.3-1.1-2.1-1.6c0,0-0.1,0-0.1-0.1c-0.2-0.1-0.4-0.3-0.5-0.5
	c-0.2-0.2-0.3-0.3-0.5-0.5c-0.3-0.4-0.6-0.7-1-1.2c-1.4-1.7-2.9-3-4.1-4.7l-3.7-5.3c-0.2-0.2-0.3-0.5-0.4-0.7c0,0,0-0.1,0-0.1
	c0-0.1,0-0.3,0-0.4v-0.1c0-0.1,0-0.2,0.1-0.3c0.2-0.3,0.4-0.6,0.6-0.9c0.1-0.1,0.1-0.1,0.1-0.2c0.2-0.2,0.4-0.5,0.6-0.7
	c0.8-0.9,1.7-1.6,2.6-2.3c0.1-0.1,0.3-0.2,0.4-0.3h0.1l0,0c0,0.1,0,0.2,0.1,0.3c0.1,0.2,0.1,0.4,0.2,0.6c0,0,0,0,0,0.1
	c0.1,0.3,0.3,0.6,0.5,0.8l0,0c0.3,0.5,0.6,1,0.8,1.6c0.1,0.3,0.2,0.6,0.3,0.9c0.1,0.1,0.1,0.2,0.1,0.3c0.2,0.5,0.3,1,0.5,1.5
	l0.4,1.3c0.1,0.5,0.3,1,0.4,1.5c0.5,1.9,1,3.7,1.3,5.6c0.1,0.3,0.1,1,0.3,1.7c0.1,0.3,0.1,0.7,0.3,1c0.1,0.3,0.3,0.6,0.4,0.8
	c0.1,0.1,0.2,0.2,0.3,0.3c0.2,0.2,0.6,0.2,0.9,0.2h0.2h0.1l0,0l0,0l0.4,0.2h0.1c0.2,0.1,0.5,0.1,0.8,0.2c0.8,0,1.6,0.1,2.4,0.3
	c0.1,0,0.1,0.1,0.2,0.1c-0.1,0.1-0.1,0.1-0.2,0.1c-0.4,0.2-0.8,0.5-1.2,0.7l0,0l-0.3,0.1h-0.1l-0.2,0.1c-0.2,0.1-0.3,0.1-0.5,0
	C171.5,699.8,171.4,699.7,171.1,699.4L171.1,699.4z M158,683.6l-0.1,0.1l0,0l0,0c-0.1,0.2-0.2,0.3-0.2,0.5c0,0.1-0.1,0.2-0.1,0.3
	v0.1c0,0.3,0,0.5,0.1,0.8c0.1,0.4,0.2,0.7,0.5,1c1.2,1.8,2.5,3.5,3.7,5.3c1,1.3,2,2.5,3.1,3.6c0.4,0.4,0.7,0.8,1,1.2s0.6,0.8,1,1.2
	c0.3,0.4,0.7,0.8,1.1,1.1c0.8,0.5,1.5,1,2.1,1.6c0.2,0.2,0.4,0.4,0.7,0.5c0.1,0,0.2,0,0.2,0l0,0l-0.2,0.2c-0.4,0.3-0.8,0.6-1.3,0.8
	l-0.3,0.1c-0.3,0-0.6,0-0.9-0.2c-2.5-1-4.8-2.4-6.9-4.1c-2.6-1.9-5.1-3.9-6.6-6.8c-0.5-0.8-0.7-1.7-0.7-2.6c0-0.2,0-0.4,0.1-0.5
	c0.4-1.1,1.1-2.2,1.9-3h0.1l0.2-0.1C157.1,684.4,157.6,684,158,683.6z M154.3,673.6c0.1-1,0.3-2.1,0.4-3.2c0.1-0.5,0.1-0.9,0.1-1.3
	l0.1-2c0.2-2.7,0.3-5.3,0.8-7.9c0.1-0.5,0.1-1,0.1-1.5c0.1-1.8,0-3.4,0.1-5.1c0.1-2.1,0.3-4.2,0.4-6.2v-0.1c0-0.6,0.1-1.1,0.3-1.6
	l0,0c0.8-0.3,1.6-0.8,2.3-1.3c0.8-0.5,1.5-1.1,2.2-1.7l0,0c0,0,0,0.1,0,0.1c0.1,0.2,0.2,0.4,0.4,0.5c0,0,0.1,0,0.1,0.1s0,0,0.1,0
	l0,0c-0.1,0.2-0.2,0.5-0.2,0.8c-0.1,0.4-0.1,0.8-0.2,1.2c-0.1,1,0.1,2.1,0.5,3c0.2,0.5,0.6,0.7,0.7,1c0.1,0.1,0.1,0.2,0.1,0.3
	c0.1,0.4,0.2,0.9,0.2,1.3l0,0c-0.6,1.6-1.2,3.2-1.6,4.8c-0.3,1.2-0.5,2.4-0.6,3.6c-0.1,1.2-0.1,2.4-0.1,3.6
	c-0.1,2.1,0.1,4.1,0.5,6.1c-0.1,0.3-0.1,0.5-0.2,0.8l0,0c-0.1,0.3-0.2,0.7-0.4,1.1c-0.2,0.6-0.3,1.2-0.4,1.8c0,0.2,0,0.4,0,0.6
	c0.1,0.9,0.4,1.8,0.8,2.5l0,0c0.1,0.1,0.1,0.2,0.2,0.4s0,0,0,0s0,0,0,0c0,0.1,0.1,0.1,0.1,0.2c0.1,0.1,0.1,0.2,0.2,0.3
	c0,0,0,0,0.1,0c0.2,0.3,0.4,0.5,0.7,0.7c0,0,0,0,0.1,0c0.3,0.2,0.6,0.3,0.9,0.5l0,0l0,0c0.1,0,0.3,0,0.5,0.1h0.1l0,0
	c-0.1,0.3-0.2,0.5-0.4,0.7c0,0.1-0.1,0.1-0.1,0.2c-0.1,0.1-0.2,0.2-0.3,0.4c-0.1,0-0.2,0.1-0.3,0.2l-0.2,0.1c-1.6,0.9-2.9,2.1-4,3.6
	c-0.2,0.1-0.5,0.1-0.7,0.1c-0.1,0-0.2,0-0.3,0c-0.2-0.1-0.4-0.2-0.5-0.4c-0.1-0.3-0.3-0.5-0.5-0.8c-0.4-0.5-0.6-1-0.7-1.5
	c-0.6-2-1.8-3.2-1.8-5.4C154.2,674,154.3,673.8,154.3,673.6L154.3,673.6z M160.6,634.5c0.2-0.3,0.4-0.6,0.6-0.9
	c0.2-0.3,0.4-0.7,0.4-1.1l0,0v-0.1c0-0.2,0-0.3-0.1-0.5l0,0c0.3-0.4,0.6-0.9,0.9-1.3l0,0c0.3,0.3,0.6,0.5,0.9,0.6
	c0.6,0.1,1.2,0.4,1.6,0.8c0.1,0.2,0.3,0.4,0.3,0.7c0.1,0.3,0.1,0.6,0.1,0.9c0.1,0.9,0.3,1.8,0.4,2.7c-0.8,0.5-1.5,1-2.2,1.5
	c-0.7,0.5-1.4,1.1-2,1.7c-0.3,0.3-0.4,0.7-0.5,1.1c-0.8,0.6-1.6,1.2-2.4,1.8l0,0c-0.6,0.5-1.3,0.8-2,1.1h-0.1
	c-0.2,0-0.3,0.1-0.5,0.1c0-0.4,0-0.7,0-1.1s0.1-0.7,0.1-1.1c0.2-0.1,0.3-0.2,0.4-0.4C157.8,638.7,159.1,636.5,160.6,634.5
	L160.6,634.5z M159.4,497.8c0-0.4,0.1-0.8,0.4-1.2c0.4-0.5,0.8-1,1.3-1.3c0.6-0.5,1.3-0.9,1.9-1.3c0.2-0.1,0.5-0.2,0.7-0.3h0.1
	c0.7-0.2,1.5-0.2,2.2-0.1h0.1c1.4,0.1,2.8,0.6,4,1.5c0.2,0.1,0.2,0.5,0.3,0.9c0,0,0,0.1,0,0.2c0,0.1,0,0.2,0,0.3
	c0,0.2-0.1,0.5-0.2,0.6c-0.1,0.2-0.3,0.5-0.5,0.7l-0.2,0.2c-0.9,1.1-1.5,2.5-1.6,4c-0.1,0.7,0,1.4,0.2,2c0.4,1.4,0.8,2.8,1.2,4.3
	c0.2,0.7,0.4,1.3,0.5,2l0,0c0.4,1.3,0.5,2.7,0.4,4.1c0,0.5-0.1,1-0.2,1.4c-0.2,0.8-0.4,1.6-0.6,2.5c-0.4,1.3-0.7,2.7-1,4.1l0,0
	c0,0.1,0,0.2-0.1,0.2c-1.1,4.8-2.1,9.5-3,14.2c-1.6,7.9-1.9,15.7-2.5,23.3c-0.1,0.9-0.1,1.8-0.2,2.7c-0.5,6.6-0.7,13.1-0.7,19.5
	c0,3.2,0.6,5.8,0.6,8.8c-0.2,3.5-0.1,7,0.2,10.5c0.2,1.8,0.4,3.6,0.6,5.4c0.1,1.2,0.2,2.4,0.4,3.7c0.1,0.8,0.2,1.7,0.2,2.5
	c0,1.6,0.4,3.2,1,4.7c0.4,0.8,0.7,1.8,0.6,2.8c0.1,0.6,0.1,1.2,0.1,1.8c0,0.2-0.1,0.5-0.1,0.7c0,0.1,0,0.1,0,0.2l-0.1,0.3
	c-0.1,0.2-0.2,0.5-0.3,0.7s-0.1,0.4-0.2,0.6c0,0,0,0.1-0.1,0.1c-0.2,0.4-0.4,0.9-0.7,1.3l0,0c-0.6,1.1-1.2,2.2-1.9,3.2
	c-0.4,0.6-0.8,1.2-1.3,1.8c-0.6,0.1-1.3,0.1-1.9,0c-0.6,0-1.2-0.3-1.7-0.7c-0.3-0.3-0.4-1-0.8-1.6c-0.4-0.5-0.6-1-0.8-1.6
	c0-0.3,0-0.6,0-0.8c0.1-1.2,0.6-2.8,0.8-4.2c0.3-1.7,0.5-3.4,0.6-5.1c0-0.1,0-0.3,0-0.4c0.3-2.5,0.3-5.1,0.2-7.7
	c-0.4-4.5-0.4-9.3-0.5-14s-0.1-9.7,0.2-14.6s0.3-9.9,0.4-14.8c0-0.8,0.1-1.7,0.1-2.6c0.3-3.9,1-8,1.4-11.9c0.4-3.7,0.7-7.3,1.1-11
	s0.9-7.4,1.2-11.1l0.1-1.4c0.2-2.9,0.4-5.7,0.6-8.6c0.1-1.7,0.2-3.3,0.4-5c0.1-0.8,0.1-1.7,0.2-2.5c0.3-2.6,0.2-5.3-0.4-7.9
	c-0.2-0.7-0.4-1.5-0.7-2.1c-0.4-0.7-0.9-0.9-1.4-1.2C159.7,499.7,159.4,498.8,159.4,497.8L159.4,497.8z M169.2,503.3
	c-0.1-0.3-0.1-0.5-0.2-0.8c0-0.3,0-0.6,0-0.9c0-0.4,0.1-0.8,0.2-1.2c0,0.4,0,0.7,0,1.1c0.1,1.1,0.3,2.1,0.4,3.2v0.3
	C169.5,504.4,169.4,503.8,169.2,503.3L169.2,503.3z"/>
<path class="st2" d="M474.1,550.2c-0.1-0.8-0.1-1.5-0.2-2.3c-0.2-4.1-0.7-8.2-1.4-12.2c-1.1-4.9-1.8-9.9-2.9-14.9
	s-2.4-10.3-3.6-15.5c-0.5-2.2-1.1-4.5-1.7-6.7c-0.6-2.1-1.6-4.1-1.9-6c0-0.3-0.1-0.5-0.1-0.8c0,0,0-0.1,0-0.1c0-0.3,0-0.7,0-1
	c0.1-0.7,0.3-1.4,0.7-2c0.6-1.3,1.4-2.5,2.4-3.6c0.2-0.2,0.5-0.3,0.7-0.2c0.4,0.2,0.8,0.4,1.1,0.8c0.4,0.4,0.8,0.8,1.1,1.2
	c0.7,0.8,1.3,1.7,2,2.6c0.3,0.4,0.6,0.7,0.9,1.1l0,0c0.9,0.9,1.8,1.7,2.8,2.5c0.9,0.7,1.7,1.5,2.3,2.4c0.1,0.2,0.2,0.3,0.3,0.5
	c0,0.1,0,0.2,0,0.3c0.1,0.3,0.2,0.6,0.3,0.9l0.2,0.4c0.1,0.1,0.2,0.2,0.2,0.3l0,0c0.1,0.4,0.2,0.9,0.3,1.3c0,0.2,0,0.4,0.1,0.6
	c0,1.4-0.1,2.9-0.4,4.3c0,0.5,0,1.1,0,1.6c0.1,0.7,0.1,1.3,0.3,2c-0.2,0.6-0.3,1.2-0.5,1.9c-0.3,1.2-0.5,2.5-0.5,3.8
	c0,0.2,0,0.4,0,0.6s0,0.2,0,0.3c0,0.5,0.1,0.9,0.2,1.3c0.3,1.4,0.7,2.8,1.1,4.3c0.2,0.7,0.4,1.5,0.5,2.2c0,0.6,0,1.2,0.1,1.8
	c0.1,1.9,0.4,3.8,0.6,5.7s0.5,3.5,0.8,5.3c0.7,4.9,1.2,9.7,1.6,14.4c0.2,2.4,0.3,4.8,0.3,7.2c0,0.7,0,1.5,0,2.2h1c0-0.6,0-1.2,0-1.8
	c0-2.4-0.1-4.9-0.3-7.3c-0.3-4.2-0.8-8.4-1.4-12.7c-0.1-0.6-0.1-1.2-0.2-1.8s-0.2-1.2-0.2-1.8c-0.1-1-0.3-2-0.4-3.1
	c0.4,2.1,0.9,4.2,1.3,6.3c0.2,1,0.4,1.9,0.5,2.9c0.3,1.9,0.5,3.9,0.8,5.8c0.1,1.2,0.2,2.4,0.4,3.6c0.3,3.3,0.5,6.5,0.8,9.7h1
	c-0.5-7.2-0.9-14.5-2.4-21.9c-0.9-4.7-1.9-9.5-3-14.2c0-0.1,0-0.2-0.1-0.2l0,0c-0.3-1.4-0.7-2.7-1-4.1c-0.2-0.8-0.4-1.7-0.6-2.5
	c-0.1-0.5-0.2-0.9-0.2-1.4c-0.1-1.4,0.1-2.7,0.4-4.1l0,0c0.2-0.7,0.3-1.3,0.5-2c0.4-1.4,0.8-2.9,1.2-4.3c0.2-0.6,0.3-1.3,0.2-2
	c-0.1-1.5-0.7-2.9-1.6-4l-0.2-0.2c-0.2-0.2-0.4-0.4-0.5-0.7c-0.1-0.2-0.2-0.4-0.2-0.6c0-0.1,0-0.2,0-0.3c0,0,0-0.1,0-0.2
	c0.1-0.5,0.1-0.8,0.3-0.9c1.2-0.9,2.6-1.4,4-1.5h0.1c0.7-0.1,1.5,0,2.2,0.1h0.1c0.2,0.1,0.5,0.2,0.7,0.3c0.7,0.4,1.3,0.8,1.9,1.3
	c0.5,0.4,1,0.8,1.3,1.3c0.2,0.4,0.3,0.8,0.4,1.2v0.2c0.1,0.9-0.2,1.8-0.8,2.5c-0.4,0.3-1,0.5-1.4,1.2c-0.3,0.7-0.6,1.4-0.7,2.1
	c-0.5,2.6-0.6,5.3-0.4,7.9c0.1,0.8,0.1,1.7,0.2,2.5c0.1,1.7,0.3,3.3,0.4,5c0.2,2.8,0.4,5.7,0.6,8.6l0.1,1.4
	c0.3,3.7,0.8,7.4,1.2,11.1s0.7,7.3,1.1,11c0.3,2.4,0.6,4.9,0.9,7.4h1c0-0.4-0.1-0.8-0.1-1.1c-0.2-1.5-0.4-3-0.6-4.5
	c-0.1-0.5-0.1-1-0.2-1.5c-0.2-1.8-0.4-3.7-0.5-5.5s-0.4-3.7-0.6-5.5l-0.2-1.4c-0.4-3.2-0.8-6.5-1-9.7l-0.1-1.4
	c-0.1-1-0.1-1.9-0.2-2.8c-0.1-1.9-0.2-3.8-0.4-5.7c-0.1-1.1-0.2-2.2-0.3-3.3c0-0.5-0.1-1.1-0.1-1.7s-0.1-0.8-0.1-1.2
	s-0.1-0.8-0.1-1.2c0-0.7-0.1-1.3-0.1-2c-0.1-1.3,0-2.6,0.1-3.8c0.1-0.6,0.2-1.2,0.3-1.8c0.1-0.4,0.2-0.7,0.3-1
	c0.1-0.3,0.2-0.6,0.4-1c0-0.1,0.1-0.2,0.2-0.3c0.1-0.1,0.2-0.2,0.3-0.2c0.1-0.1,0.2-0.1,0.3-0.2l0.4-0.3c0.2-0.2,0.4-0.4,0.5-0.6
	c0.4-0.8,0.6-1.6,0.5-2.5v-0.4c0-0.6-0.2-1.1-0.5-1.6l-0.1-0.2c-0.1-0.2-0.3-0.4-0.4-0.6c-0.4-0.5-0.9-0.9-1.4-1.3l-0.7-0.5
	l-0.4-0.3c0.2-0.1,0.5-0.3,0.6-0.5c0.2-0.2,0.3-0.4,0.5-0.6c0.1-0.1,0.1-0.2,0.2-0.3c0.2-0.3,0.4-0.7,0.5-1c0.2-0.5,0.4-0.9,0.5-1.4
	c0.4-1.6,0.5-3.3,0.3-4.9c0-0.7-0.1-1.5-0.2-2.2s-0.2-1.2-0.3-1.8c-0.8-4.3-2-8.5-3.6-12.6c-0.9-2.3-1.7-4.5-2.6-6.8
	c-0.8-2.3-1.7-4.5-2.5-6.8c-0.8-2.3-1.6-4.5-2.4-6.8s-1.5-4.6-2.2-7c-1.1-3.2-2-6.4-2.7-9.5c-0.2-1-0.5-2.1-0.7-3.2
	c-0.4-2.1-0.8-4.2-1.1-6.3c-0.1-1-0.3-2.1-0.4-3.1s-0.2-2-0.3-3.1s-0.2-1.8-0.3-2.7c-0.2-1.8-0.4-3.6-0.6-5.4
	c-0.4-2.7-0.7-5.4-1-8.1c-0.1-0.9-0.2-1.8-0.3-2.7s-0.2-1.8-0.2-2.7c-0.1-2-0.2-4-0.2-6c0-1.5,0-3,0-4.5s-0.1-3-0.1-4.6
	c-0.1-3-0.3-6.1-0.5-9.2c-0.3-3.7-0.6-7.5-1-11.2s-0.8-7.5-1.2-11.3c-0.6-5.9-1.4-11.9-2-17.8c-0.2-2-0.4-3.9-0.5-5.9
	c-0.1-0.8-0.1-1.6-0.2-2.4c-0.1-2.1-0.2-4.2-0.2-6.2c-0.2-6.2-0.2-12.4-0.4-18.7c-0.1-2-0.2-4-0.3-6c-0.1-1.7-0.3-3.4-0.5-5.1
	c-0.4-3.5-1.1-7-2.1-10.4c-0.3-0.9-0.5-1.8-0.9-2.6s-0.7-1.8-1-2.7c-0.7-1.8-1.5-3.6-2.4-5.3c-0.4-0.8-0.8-1.7-1.3-2.4
	c-0.5-0.7-1.2-1.3-1.9-1.8c-0.2-0.7-0.5-1.3-0.9-1.9c-0.3-0.6-0.7-1.2-1.2-1.8c-0.9-1.2-1.9-2.2-3-3.1c-0.2-0.2-0.5-0.3-0.7-0.5
	c-0.3-0.7-0.8-1.4-1.4-1.9c-0.2-0.2-0.4-0.3-0.5-0.5c-0.5-0.4-1.1-0.8-1.7-1.1c-0.8-0.4-1.5-0.8-2.3-1.1s-1.6-0.6-2.4-0.9
	c-0.4-0.1-0.7-0.2-1.1-0.3l-1-0.3c-0.1-0.2-0.2-0.4-0.4-0.6c-0.4-0.5-0.8-1-1.4-1.5c-0.6-0.5-1.2-0.9-1.8-1.2l-0.6-0.4
	c-1-0.5-1.9-1-2.9-1.5c-2.8-1.4-5.6-2.5-8.4-4c-3.9-2.1-7.8-4.2-11.8-6c-1-0.4-1.9-0.9-2.9-1.3c-1.4-0.7-2.9-1.4-4.3-2.1
	s-2.9-1.5-4.3-2.3c-1.1-0.6-2.1-1.2-3.2-1.9l0.6,1.4c0.8,0.5,1.6,1,2.5,1.4c3.8,2.1,7.7,4,11.6,5.8s7.8,3.9,11.7,5.9
	s7.5,3.4,11.2,5.5c0.8,0.4,1.5,0.9,2.1,1.4c0.6,0.5,1.1,1.1,1.4,1.8c0.1,0.2,0.3,0.4,0.6,0.5c0.8,0.2,1.5,0.4,2.4,0.6
	c1.5,0.5,3,1.1,4.4,1.9c0.7,0.4,1.3,0.8,1.9,1.3l0.1,0.1c0.2,0.2,0.5,0.5,0.7,0.8l-0.2-0.1c-1.2-0.3-2.5-0.6-3.7-0.7
	c-0.8-0.1-1.6-0.3-2.4-0.5h-0.1l0,0h-0.1c-0.2-0.1-0.5-0.2-0.7-0.3c-0.3-0.2-0.7-0.3-1-0.4c-0.2-0.1-0.3-0.1-0.5-0.1H435h-0.3
	l-0.2,0.1h-0.1c0,0-0.1,0.1-0.1,0.1c-0.2,0.2-0.3,0.3-0.4,0.3c-0.2,0.1-0.3,0.1-0.5,0c-0.2-0.1-0.4-0.2-0.6-0.3l-3-1.5
	c-3-1.5-6.1-3-9.2-4.2c-1.2-0.5-2.5-1-3.8-1.4l-0.8-0.3c-0.6-0.2-1.2-0.4-1.8-0.5s-1-0.2-1.5-0.3l-0.3-0.1h-0.4l-0.6-0.1
	c-0.6-0.1-1.3-0.1-1.9,0l0,0c-0.1,0-0.3,0-0.4,0l-0.9-0.8l-3.6-3.4l-1.5-1.3l-0.3-0.2h-0.1c-1.6-0.5-3.1-1.2-4.5-2l-0.2-0.1
	c-0.5-0.3-1-0.6-1.5-0.8l0.5,1.4l0.8,0.4c0.4,0.2,0.9,0.5,1.3,0.7l0.1,0.1c0.5,0.2,1,0.5,1.5,0.7l0.5,0.2c0.5,0.2,1.1,0.4,1.6,0.6
	l1.8,1.7l1.2,1.1l0.6,0.5l1,0.9l1.4,1.3l0,0c0.1,0.1,0.2,0.1,0.3,0.2c0.1,0,0.2,0,0.2,0c1.7-0.2,3.4,0,5,0.5
	c0.6,0.2,1.2,0.3,1.8,0.6c0.4,0.1,0.8,0.3,1.1,0.4c1.1,0.4,2.3,0.9,3.3,1.3s1.9,0.8,2.8,1.2l0.8,0.4l2,0.9l0.8,0.4
	c1.9,0.9,3.8,1.9,5.7,2.8c0.2,0.1,0.5,0.2,0.8,0.3l0,0c0.2,0.1,0.3,0.1,0.5,0.1h0.1c0.1,0,0.2,0,0.3,0h0.2h0.1l0,0l0.2-0.1l0.1-0.1
	l0.1-0.1c0.1-0.1,0.1-0.1,0.2-0.2l0,0c0,0,0,0,0.1,0c0.1,0,0.2,0,0.3,0.1c0.2,0.1,0.3,0.1,0.5,0.2l-0.1,0.1c-1,0.5-1.9,1.1-2.8,1.8
	l0,0c-1.2-0.3-2.4-0.6-3.7-0.6c-0.3,0-0.5,0-0.8,0c-0.3,0-0.6,0.2-0.8,0.5c0,0,0,0,0,0.1c-0.1,0.3-0.2,0.6-0.2,0.9
	c0,0.3,0.1,0.7,0.3,1c0.3,0.6,0.6,1.2,1,1.7l0.6,0.9l0,0c-0.1,0.3-0.2,0.6-0.3,0.9c-0.1,0.3-0.2,0.6-0.3,0.9l0,0
	c-0.2,0.6-0.3,1.2-0.4,1.8c0,0,0,0.1,0,0.1v0.2c-0.1,0.5-0.1,1.1-0.2,1.7c0,0.1,0,0.3,0,0.4c0,0.7,0,1.4,0,2.1c0,0.2,0,0.4,0.1,0.7
	c0,0.4,0.1,0.9,0.2,1.4c-1.2,0.6-2.4,1.4-3.5,2.2c-0.5,0.4-1,0.9-1.3,1.4c-0.3,0.7-0.4,1.4-0.5,2.1c0,1.4-0.2,2.8-0.8,4.1
	c-0.5,0.9-1.6,1.2-2.8,1.5c-1.2,0.4-2.3,0.8-3.4,1.3c-0.1-0.8-0.3-1.5-0.5-2.2c-1-2.9-2.5-5.5-4.4-7.8c0.7-2.6-1.5-5.8-3.4-8.3
	c-0.3-0.4-0.5-0.7-0.8-1.1l-0.2-0.3l1.2,3.2c1.4,2,2.5,4.1,2.1,5.8l0.5,1.5c1.8,2.1,3.1,4.4,4,7c0.3,0.9,0.5,1.8,0.6,2.7
	c0.1,0.5,0.1,1,0,1.5c0,0.2-0.1,0.4-0.1,0.5c0.6,0.5,1.3,1,1.9,1.5c-0.3-0.3-0.5-0.6-0.8-0.9c0.1-0.6,0.2-1.2,0.1-1.8
	c1.3-0.6,2.6-1.1,3.9-1.6c1.1-0.4,2.4-0.6,3.1-1.8c0.6-1.4,0.9-2.9,0.9-4.5c0-0.5,0.1-1,0.2-1.5l0.1-0.3c0.2-0.4,0.5-0.7,0.9-1
	l0.2-0.2c0.2-0.1,0.4-0.3,0.6-0.4c0.7-0.5,1.5-1,2.3-1.4c0.1,0.3,0.1,0.7,0.2,1c0.2,1.1,0.6,2.1,1.1,3.1c0.2,0.3,0.4,0.6,0.6,0.9
	c0.8,1,1.9,1.8,2.5,2.5c0.3,0.3,0.5,0.6,0.7,0.9c0.5,0.6,0.9,1.2,1.3,1.9c0.2,0.3,0.4,0.6,0.6,1c0.3,0.6,0.7,1.2,1,1.8
	c0.3,0.6,0.6,1.2,0.9,1.8s0.6,1.2,0.8,1.9s0.5,1.2,0.7,1.9c1.7,4.9,3,9.9,3.8,14.9c1.8,10.1,3.2,20.1,4.3,29.9
	c0.4,3.3,0.7,6.6,1,9.8c0.2,1.9,0.3,3.7,0.4,5.6v0.3c0.4,6.2,1.1,12.5,1.8,18.8c1.2,10.5,2.5,21.2,3.6,31.7c0.1,1.4,0.3,2.7,0.4,4
	c0.3,2.7,0.6,5.4,0.9,8.1c0.6,5.4,1.3,10.9,1.7,16.3c0.1,1.3,0.2,2.7,0.3,4c0.3,4.6,0.5,9.1,0.4,13.5c0,2.3-0.2,4.6-0.5,6.9
	c-0.1,0.7-0.3,1.5-0.4,2.2c-0.3,1.4-0.7,2.8-1.1,4.1c-0.4,1.3-1,2.6-1.6,3.9c-0.1,0.3-0.3,0.5-0.4,0.8c-0.3,0.5-0.5,1.1-0.8,1.6
	c-0.4,0.9-0.9,1.7-1.6,2.5c-0.3,0.3-0.6,0.6-0.9,0.9c-0.1,0.1-0.1,0.1-0.2,0.2c-0.4,0.3-0.8,0.6-1.2,0.9c-0.2,0.2-0.3,0.3-0.4,0.5
	l-0.1,0.3c-0.3,0.7-0.5,1.4-0.5,2.1c0,0.1,0,0.3,0,0.4s0,0.4,0,0.5l1,4c0.4,1,0.8,2,1.3,3c0.1,0.3,0.3,0.5,0.5,0.8
	c0.3,0.5,0.7,1,1.1,1.5c0.2,0.2,0.4,0.4,0.7,0.6c0.2,0.2,0.5,0.3,0.7,0.4c0.7,0.4,1.4,0.7,2.1,0.9l0.2,0.1l0.5,0.2l0.9,0.2l0.2,0.1
	l0.2,0.1c0,0.1,0,0.2,0,0.2s0,0.3,0,0.5c0,0.3,0.1,0.6,0.1,0.9c0.2,0.8,0.4,1.5,0.8,2.3c0.1,0.1,0.1,0.3,0.2,0.4
	c0.5,0.8,1.1,1.5,1.9,2c0,0.1,0,0.2,0,0.3c0,0.3,0.1,0.6,0.1,0.9c0,0.3,0.1,0.5,0.2,0.8c0.3,1,0.6,2,1,2.9c0.1,0.3,0.2,0.6,0.3,0.9
	c0.2,0.5,0.3,1,0.5,1.5c0.6,2.2,1.1,4.5,1.7,6.7c0.6,2.6,1.2,5.2,1.9,7.8c0.6,2.6,1.2,5.2,1.8,7.7c0.8,3.7,1.4,7.4,2.1,11.2
	c0.2,1.2,0.5,2.5,0.8,3.7c0.1,0.5,0.2,1,0.3,1.5c0.6,3.5,0.8,7.1,1.1,10.5l0.1,1.5c0,0.3,0,0.5,0.1,0.8c0.2,2.9,0.4,5.9,0.5,8.8h1
	C474.4,555.9,474.3,553.1,474.1,550.2z M478.5,504.7c0.1-1.1,0.4-2.1,0.4-3.2c0-0.4,0-0.7,0-1.1c0.1,0.4,0.2,0.8,0.2,1.2
	c0,0.3,0,0.6,0,0.9c0,0.3-0.1,0.5-0.2,0.8c-0.2,0.6-0.3,1.2-0.5,1.7V504.7z M477.2,494c-0.2,0.2-0.4,0.4-0.4,0.7
	c-0.7-0.9-1.5-1.7-2.4-2.4c-0.6-0.5-1.2-1-1.7-1.5c0.2,0.1,0.4,0.2,0.5,0.2c0.3,0.2,0.6,0.4,0.9,0.6s0.6,0.4,1,0.6
	c0.4,0.2,0.7,0.4,1.1,0.5c0.2,0.1,0.4,0.1,0.7,0.1c0.4,0.1,0.9,0.1,1.3,0l0.4-0.1h0.4c0.2,0,0.4,0,0.5,0
	C478.8,493.1,478,493.5,477.2,494z M432.2,254.6c-0.2,0.2-0.4,0.4-0.6,0.6l-0.2-0.2l-1-0.7C431,254.4,431.6,254.4,432.2,254.6
	L432.2,254.6z M429.3,256.1c-0.1-0.2-0.3-0.4-0.4-0.7c-0.1-0.2-0.1-0.4-0.2-0.6c0-0.1,0-0.3,0.1-0.4c0,0,0.1-0.1,0.1-0.1l2.1,1.5
	l1,0.7l2,1.4c0.4,0.2,0.7,0.5,0.9,0.9l0.1,0.3c0,0.2-0.1,0.4-0.2,0.6c-0.2,0.2-0.4,0.4-0.7,0.5c-0.2,0-0.3,0-0.5-0.1
	c-0.5-0.2-1-0.4-1.5-0.6c-0.5-0.3-1-0.5-1.3-0.6l-0.1,0l0,0l0,0c0-0.1,0-0.2,0-0.3c0-0.1-0.1-0.2-0.1-0.3l-0.5-0.8l-0.3-0.4
	L429.3,256.1z M461.7,488.7c-0.2,0.5-0.3,1-0.4,1.5c-0.4-0.4-0.8-0.8-1.1-1.3c-0.5-0.9-0.9-1.9-0.9-2.9c0-0.4,0-0.8,0.1-1.2
	c0-0.1,0-0.1,0-0.2c0-0.1,0-0.1-0.1-0.2l0,0c0-0.1-0.1-0.1-0.1-0.2c-0.1-0.1-0.1-0.1-0.2-0.2c-0.1,0-0.1-0.1-0.2-0.1
	c-0.1,0-0.1,0-0.2,0l0,0l0,0c-0.1,0-0.3,0-0.4-0.1c-0.7-0.1-1.7-0.5-1.9-0.5l-0.2-0.1c-0.9-0.3-1.7-0.7-2.4-1.2
	c-0.7-0.6-1.3-1.4-1.7-2.2c-0.5-0.9-0.9-1.9-1.3-2.8l-0.9-4.1c0-0.8,0.2-1.7,0.6-2.4c0.3-0.6,1-0.9,1.7-1.4c1.9-1.6,2.7-3.9,3.8-6.1
	c2.5-5.5,3.8-11.4,3.7-17.5c0.1-4.4-0.1-9-0.5-13.6c-0.8-10.7-2.3-21.8-3.4-32.5c-1.7-16.8-4.2-34-5.4-50.5v-0.3
	c-1.1-15.2-3.1-30.4-5.9-45.4c-0.9-5.2-2.2-10.2-3.9-15.2c-1-2.6-2.2-5.2-3.6-7.6c-0.8-1.4-1.8-2.8-2.9-4c-0.9-1-1.9-1.8-2.5-2.5
	c-0.7-1-1.2-2.1-1.4-3.3c-0.1-0.7-0.3-1.4-0.3-2s-0.1-1.2-0.2-1.6c0-0.1,0-0.2,0-0.3v-0.3c0-0.7,0-1.3,0-2V264l0,0
	c0-0.5,0.1-1,0.1-1.4c0-0.1,0-0.2,0-0.2c0-0.1,0-0.2,0-0.2c0.1-0.5,0.2-0.9,0.3-1.4c0-0.1,0.1-0.2,0.1-0.3s0.2-0.5,0.3-0.7l0.4,0.2
	l0.5,0.2l0.8,0.4l0.9,0.4c0.3,0.1,0.6,0.2,0.8,0.3l0.3,0.1c0.3,0.1,0.6,0.1,0.8,0c0.2-0.1,0.3-0.2,0.5-0.3c0.2-0.1,0.3-0.2,0.4-0.4
	c0.1-0.1,0.1-0.1,0.2-0.2c0.1-0.2,0.2-0.5,0.2-0.8c0-0.1,0-0.1,0-0.2c0-0.1,0-0.3-0.1-0.4c0-0.1-0.1-0.3-0.1-0.4
	c-0.1-0.2-0.2-0.4-0.3-0.5c-0.2-0.3-0.5-0.5-0.8-0.8l-0.4-0.3l-1.7-1.2c0.2-0.2,0.4-0.4,0.6-0.6l0.5-0.4l0,0l0.5-0.4l0.4-0.3h0
	c0.3-0.2,0.5-0.4,0.8-0.5l0.1-0.1l0.1-0.1c0.2-0.1,0.5-0.3,0.7-0.4h0.1l0.3-0.1l0.4-0.1l0.4-0.2c0.4,0.1,0.7,0.2,1.1,0.3
	s0.9,0.2,1.3,0.2c1,0.1,1.8,0.2,2.7,0.4c0.3,0.1,0.6,0.1,0.9,0.2c0.3,0.1,0.7,0.2,1,0.4c0.1,0,0.2,0,0.4,0c2.2,1.6,3.9,3.9,4.8,6.4
	c0.1,0.2,0.2,0.3,0.3,0.4c0.6,0.4,1.2,0.9,1.7,1.5c0.4,0.7,0.8,1.4,1.1,2.1c0.8,1.7,1.6,3.5,2.3,5.2c2.6,6.5,4.1,13.4,4.4,20.3
	c0.1,2,0.2,4,0.3,5.9c0.4,8.3,0.2,16.5,0.7,25c0,0.8,0.1,1.6,0.1,2.4c0.6,7.8,1.7,15.8,2.5,23.7c0.8,7.5,1.6,15.1,2.1,22.5
	c0.4,6.1,0.7,12.2,0.6,18.2c0,2,0.1,4,0.2,6.1c0.5,7.1,1.8,14.4,2.5,21.6c0.7,8.6,2.4,17.1,5.1,25.3c3.1,9.1,6.4,18.2,9.9,27.3
	c1.8,4.5,3.1,9.3,3.8,14.1c0.1,0.7,0.2,1.4,0.2,2.1c0.1,1.6,0,3.1-0.3,4.6c-0.2,0.9-0.6,1.8-1.1,2.6c-0.4,0.6-1,1-1.6,1.1
	c-0.2-0.1-0.4-0.2-0.5-0.2h-0.1c-0.4-0.1-0.9-0.2-1.3-0.2h-0.6h-0.6c-0.4-0.2-0.9-0.4-1.4-0.6l-0.4-0.1c-0.6-0.1-1.2-0.1-1.8,0
	c-0.5,0.1-1,0.1-1.5,0.1c-0.2,0-0.3-0.1-0.5-0.1c-0.6-0.3-1.2-0.6-1.8-1c-0.6-0.4-1.3-0.8-2.1-1.1c-0.3-0.1-0.7-0.2-1-0.1
	c-0.4-0.5-0.9-1.1-1.3-1.6s-0.7-0.9-1.1-1.4l-0.6-0.7c-0.2-0.2-0.5-0.5-0.7-0.7c-0.2-0.2-0.4-0.3-0.6-0.5c-0.2-0.1-0.4-0.3-0.6-0.4
	c-0.1-0.1-0.3-0.1-0.4-0.2c-0.5-0.2-1.1-0.1-1.5,0.3c-0.4,0.4-0.7,0.8-1,1.3c-0.3,0.5-0.6,0.9-0.9,1.4c-0.2,0.3-0.4,0.6-0.5,1
	C461.9,488.1,461.7,488.4,461.7,488.7L461.7,488.7z"/>
<polygon class="st3" points="484.7,548.8 485,548.8 485,548.8 484.7,548.8 "/>
<polyline class="st2" points="474.4,558.7 482.1,558.7 482.1,557.8 482.1,557.8 474.4,557.8 474.2,557.9 "/>
<polygon class="st2" points="485.2,558.7 485.1,557.6 490,557.5 490.1,558.7 "/>
<polygon class="st3" points="484.7,492 485,492 485,492 484.7,492 "/>
<polygon class="st3" points="484.7,492 485,492 485,492 484.7,492 "/>
</svg>
