<?xml version="1.0" encoding="utf-8"?>
<!-- Generator: Adobe Illustrator 21.0.0, SVG Export Plug-In . SVG Version: 6.00 Build 0)  -->
<svg version="1.1" id="Layer_1" xmlns="http://www.w3.org/2000/svg" xmlns:xlink="http://www.w3.org/1999/xlink" x="0px" y="0px"
	 viewBox="0 0 648 864" style="enable-background:new 0 0 648 864;" xml:space="preserve">
<style type="text/css">
	.st0{fill:none;stroke:#231F20;stroke-width:0.25;stroke-miterlimit:10;}
	.st1{fill:#FFFFFF;}
	.st2{fill:#CCCCCC;}
</style>
<title>female-transradial-R</title>
<polygon class="st0" points="484.9,548.8 484.9,548.8 484.6,548.8 "/>
<polyline class="st1" points="474.1,557.8 474.3,557.7 482.1,557.7 482.1,557.7 482.1,558.6 474.3,558.6 "/>
<polygon class="st1" points="490,558.6 489.9,557.5 485,557.6 485.1,558.6 "/>
<polygon class="st0" points="484.9,491.9 484.9,491.9 484.6,491.9 "/>
<polygon class="st0" points="484.9,491.9 484.9,491.9 484.6,491.9 "/>
<g>
	<path class="st2" d="M152.6,620.5c1.4-29.4-6.4-45.8-3.6-78.6c0.8-9.4,3-15.7,3.8-29.4c0.7-11.5,0-15.6,1.4-29.2
		c1.2-12.1,2.6-18.2,4-22.8c2-6.7,4.3-12,6.2-15.8c2.2-43.4,5.4-70.8,8.2-88.3c2.2-14.3,3.8-20.2,4.3-32.8c0.6-18.3-2-27.4,2.5-39.7
		c1.2-3.1,4.5-10.9,9.5-19.1c4-6.5,8.7-11.7,13.9-16.3c13.3-11.5,26.4-18.5,26.4-18.5c29.1-15.5,40.3-11.9,51.4-21
		c10.1-8.2,19-26,13.3-67.7h60.2c-5.7,41.8,3.1,59.5,13.3,67.7c1,0.8,2.1,1.6,3.1,2.2c10.2,6.3,21.8,4.7,48.3,18.7
		c0,0,13.1,7,26.5,18.7c5.3,4.6,9.9,9.8,13.9,16.3c5,8.2,8.4,16,9.5,19.1c4.5,12.3,1.9,21.4,2.5,39.7c0.4,12.6,2,18.5,4.3,32.8
		c2.7,17.5,6,44.9,8.2,88.3c1.9,3.7,4.2,9.1,6.2,15.8c1.3,4.5,2.8,10.6,4,22.8c1.3,13.6,0.7,17.7,1.4,29.2c0.8,13.7,3,20,3.8,29.4
		c2.8,32.7-5,49.1-3.6,78.6c0.1,2.1,0.5,8.6,0.6,17.7c0.2,11.7-0.2,12.6,0,19.8c0.5,21,4.3,23.2,1.1,30.4
		c-3.6,7.9-11.2,12-16.7,14.2c-1.1,0.3-16.7,4.7-20.9-1.2c-0.4-0.6-2.3-3.2-1.5-5.5c0.3-0.9,1-1.7,2.3-2.4
		c7.2-4.7,10.1-9.9,11.4-12.8c2.9-6.4,2.7-12.9,2.4-22.3c-0.1-3.7-0.4-6.7-0.6-8.8c-0.5,1.1-1.4,3.1-2.5,5.5
		c-6.5,14.7-7.6,18.4-11.8,22c-1.8,1.5-6.3,5.3-8.9,3.9c-5.1-2.7-0.5-23.9,7.2-40.8c7.1-15.5,10.4-12.9,13.7-23.3
		c1.9-6.1,1.7-9.5-3.5-50.1c-1.9-14.9-2.5-19.4-3.6-26.1c-2-12.6-3.1-19.2-5.1-27.2c-5.9-24.1-11.6-26.4-15.5-48
		c-1.8-10-2.2-18.6-2.3-22c-0.2-11.5,0.6-20.2,0.6-20.9c1-11-2.2-38.5-19.6-109.3l-3.9,11c-2.4,0.6,8.5,28.9-6.4,58.6
		c-3.1,6.1-6.1,10-7,11.2c-10.6,14.6-12.8,53.5,18.7,155.1c-29.9,0.2-59.8,0.3-89.7,0.5v0.1c-3.3,0-6.6,0-9.8-0.1
		c-3.3,0-6.6,0-9.8,0.1v-0.1c-29.9-0.2-59.8-0.3-89.7-0.5c31.5-101.7,29.3-140.5,18.7-155.1c-0.9-1.2-3.9-5.1-7-11.2
		c-14.9-29.7-4-58-6.4-58.6l-3.9-11c-17.4,70.8-20.6,98.3-19.6,109.3c0.1,0.7,0.9,9.3,0.6,20.9c-0.1,3.4-0.5,12-2.3,22
		c-3.8,21.7-9.5,23.9-15.5,48c-2,8-3.1,14.7-5.1,27.2c-1.1,6.8-1.7,11.2-3.6,26.1c-5.1,40.6-5.4,44-3.5,50.1
		c3.3,10.3,6.5,7.9,13.6,23c-0.1,0.2-0.2,0.5-0.3,0.7c-0.6,1.1-1.3,2.1-2,3.2c-4.3,1.2-8.3,3.3-12,5.7c-0.4,0.3-0.8,0.5-1.2,0.8
		c-0.1-0.3-0.2-0.5-0.3-0.7c0,0.3-0.1,0.7-0.1,1c-4.5,3.1-9.3,6.9-14.8,7.3c-3,0.2-5.5-0.6-7.7-2c-0.1-5.5-0.4-7.3-0.3-17.8
		C152.1,629.1,152.5,622.6,152.6,620.5z"/>
	<path class="st1" d="M450.2,477.6c0.3,0.8,0.7,1.9,1.3,3c0.2,0.3,0.3,0.5,0.5,0.8c0.3,0.6,0.7,1.1,1.1,1.5c0.2,0.2,0.4,0.4,0.7,0.6
		c0.2,0.1,0.5,0.3,0.7,0.4c0.7,0.4,1.4,0.7,2.1,0.9l0.2,0.1c0,0.1,0.2,0.1,0.5,0.2c0.3,0.1,0.6,0.2,0.9,0.3c0.1,0.1,0.2,0.1,0.3,0.1
		c0.1,0.1,0.2,0.1,0.3,0.1c0,0,0,0.1,0,0.2c0,0.2,0,0.3,0,0.5c0,0.3,0,0.6,0.1,0.9c0.1,0.8,0.4,1.6,0.8,2.3c0,0.1,0.1,0.3,0.2,0.4
		c0.5,0.8,1.1,1.5,1.9,2c0,0.1,0,0.2,0,0.3c0,0.3,0,0.6,0.1,0.9c0,0.3,0.1,0.5,0.2,0.8c0.3,1,0.6,2,1,2.9c0.1,0.3,0.2,0.6,0.3,0.9
		c0.2,0.4,0.4,0.9,0.5,1.4c0.6,2.2,1.2,4.5,1.7,6.7c0.7,2.5,1.3,5.1,1.9,7.7c0.6,2.6,1.2,5.1,1.8,7.7c0.8,3.8,1.4,7.5,2.1,11.2
		c0.3,1.2,0.5,2.5,0.8,3.7c0.1,0.5,0.2,1,0.3,1.5c0.6,3.5,0.8,7.1,1.1,10.5l0.1,1.5c0.1,0.3,0.1,0.5,0.1,0.8
		c0.2,3.3,0.4,6.6,0.5,9.9c0,1.6,0.1,3.3,0.1,4.9s0.1,3.3,0.1,4.9c0,2.4,0.1,4.8,0.3,7.2c0.1,1.3,0.2,2.5,0.3,3.8s0.2,2.5,0.3,3.8
		c0.2,2.5,0.5,5,0.7,7.5c0.2,1.9,0.4,3.8,0.6,5.7c0.2,1.9,0.5,3.8,0.7,5.7c0.8,6.2,1.8,12.4,3,18.7c-0.6,0.3-1.3,0.4-2,0.6
		c-0.8,0.2-1.6,0.6-2.1,1.3c-1,1.4-2.1,2.7-3.6,3.6c-0.3,0.2-0.6,0.3-0.9,0.6c-0.2,0.3-0.4,0.6-0.5,1c-0.3-0.2-0.7-0.4-1.1-0.5
		c-0.3-0.2-0.7-0.2-1-0.2c-0.8,0.1-1.3,0.7-1.5,1.4c-0.2,0.7-0.1,1.5-0.1,2.2l0,0c0,0.1,0,0.1,0,0.2c-0.2,0.1-0.3,0.2-0.4,0.2
		c-0.7,0.3-1.2,0.8-1.7,1.3c-1,1.2-1.6,2.9-2.3,4.3c-1.1,2.2-2.2,4.5-3.1,6.8c-0.4,0.9-0.5,1.9-1,2.6c-0.7,1-1.4,2-2.1,3
		c-0.2,0.3-0.5,0.7-0.6,1.2c-0.1,0.2-0.1,0.5-0.1,0.7c0,0.5,0.2,1,0.5,1.5c0.2,0.3,0.4,0.5,0.6,0.8c-0.1,0-0.1,0.1-0.2,0.2
		c-0.4,0.5-0.4,1.1-0.4,1.7c0.1,0.2,0.1,0.5,0.1,0.7v0.3c0.1,3-0.6,5.8-2.5,7.3c-0.2,0.2-0.8,0.6-1.2,1c-0.4,0.5-0.8,1-0.8,1.8v0.1
		c-0.1,0.3-0.2,0.6-0.2,1l0.1,0.4c0.1,0.5,0.4,1,0.6,1.5c0.3,0.5,0.4,0.9,0.5,1.3c0.1,0.2,0.1,0.3,0.1,0.5c0.1,0.9-0.2,1.6-0.5,2.6
		c-0.1,0.2-0.1,0.5-0.1,0.7c0,0.6,0.4,1.4,1,2c0.3,0.3,0.7,0.5,1,0.6c0.4,0.1,0.7,0,1-0.1c0.3-0.1,0.5-0.3,0.7-0.6
		c0.4-0.5,0.4-1.1,0.5-1.7c0-0.5,0.1-1,0.3-1.4c0.4-0.6,0.9-1.1,1.5-1.5c0.1,0,0.2,0.1,0.3,0.1c0.3,0.1,0.6,0.2,0.9,0.1
		c0.5-0.1,0.8-0.5,0.9-0.9c0.1-0.5,0.2-0.9,0.2-1.3c0.1-1.7,0.5-3.3,1.1-4.8c0.2-0.6,0.3-1,0.6-1.4c0.5-0.5,1-1,1.4-1.7
		c0.1-0.3,0.4-0.5,0.7-0.7c0.3-0.2,0.7-0.5,0.8-1c0-0.2,0-0.4,0-0.6c0-0.1,0-0.3-0.1-0.5c0.1,0,0.2,0,0.3-0.1
		c0.6-0.7,1.3-1.4,1.8-2.2c0.6-0.9,0.8-2,0.9-3s0.1-2.1,0.3-3.1c0.4-2.2,0.9-4.2,1.6-6.1c0.4-1.3,1.1-2.2,1.9-3.1
		c0.4-0.4,0.9-0.8,1.4-1.1l0,0c0,0,0.1-0.1,0.3-0.1c0.2-0.1,0.5-0.2,0.8-0.3c0.1-0.1,0.2-0.2,0.3-0.2l0.1-0.1l0.1-0.1
		c0.1,0,0.1-0.1,0.1-0.3l0,0c0-0.2-0.1-0.4-0.1-0.6c0.4,0.2,0.8,0.5,1.2,0.6c0.3,0.1,0.5,0.1,0.7,0.1c0.5,1.3,0.7,2.6,1,4
		c0.4,2,1.2,4,1.7,5.9c0.5,2.1,0.9,4.1,1,6.1c0.1,1.2,0.1,2.3,0.1,3.4c-0.1,1.5-0.2,2.7-0.8,3.7s-1.4,1.8-2.3,2.4
		c-1,0.5-1.2,1.8-1.1,3c0.1,0.6,0.2,1.3,0.4,1.9c-0.3,0.1-0.6,0.3-0.9,0.6c-0.6,0.7-0.9,1.6-0.8,2.6c0.1,0.3,0.1,0.6,0.2,0.9
		c0.6,2.1,1.1,4.1,1.2,5.9c0.2,2,0,3.8-0.6,5.5c-0.5,1.3-0.6,2.5-1.3,3.3c-0.2,0.3-0.7,0.5-1,1c-0.6,0-1,0.1-1.4,0.3
		c-1.8,0.7-2.7,2.5-4.1,3.3c-0.7,0.5-1.5,0.7-2.4,0.4c-0.1-0.1-0.2-0.2-0.3-0.2c-0.2-0.1-0.4,0-0.5,0l-0.3,0.1
		c-0.4,0.1-0.6,0.4-0.6,0.8c-0.3,0-0.5,0.1-0.7,0.1c-0.5,0.1-1.1,0.1-1.7,0L462,696l-0.4-0.1c-0.2-0.1-0.4-0.2-0.7-0.2
		c-0.2,0-0.5,0.1-0.7,0.3c-0.2,0.2-0.2,0.5-0.2,0.8l0,0l0,0l0,0c0.1,0.5,0.3,1.2,0.7,1.7c0.1,0.2,0.2,0.2,0.3,0.3
		c0.2,0.1,0.4,0.1,0.6,0.2l0.2,0.1c0.3,0.1,0.6,0.2,0.9,0.3l0.4,0.1c0.2,0.4,0.4,0.7,0.7,0.9c0.3,0.3,0.6,0.5,0.9,0.6
		c0.4,0.2,0.8,0.4,1.2,0.5c1.2,0.4,2.3,0.5,3.3,0.7c2.1,0.5,4.2,1.1,6.3,1.7l0.6,0.2c0.4,0.1,0.9,0.3,1.4,0.2
		c0.2-0.1,0.4-0.2,0.7-0.3c0.2-0.1,0.5-0.4,0.5-0.8l0,0v-0.3v-0.1c0.2,0.1,0.4,0.2,0.7,0.3c0.2,0,0.4,0.1,0.5,0.1
		c0.6,0.1,1-0.1,1.3-0.2c2.6-0.9,4.9-2.6,7-4.2c2.6-1.9,5.2-3.9,6.8-7c0.4-0.8,0.9-1.8,0.8-3c0-0.3,0-0.5-0.1-0.8
		c-0.4-1.5-1.5-2.8-2.5-3.9c-0.1-0.1-0.3-0.2-0.4-0.2l-0.2-0.1l-0.1-0.1c-0.2-0.1-0.3-0.2-0.5-0.3c0.2-0.1,0.4-0.3,0.5-0.5
		c0.2-0.3,0.3-0.5,0.5-0.7c0.5-0.5,0.7-1.2,0.9-1.8c0.6-1.8,1.8-3.1,1.8-5.6c0-0.3,0-0.6,0-0.9c-0.1-1.1-0.3-2.2-0.4-3.3
		c0-0.4-0.1-0.9-0.1-1.3l-0.1-2.1c-0.3-2.6-0.4-5.2-0.8-8c-0.1-0.5-0.2-0.9-0.2-1.4c-0.1-1.7,0-3.3-0.1-5.1
		c-0.1-2.1-0.3-4.1-0.4-6.2v-0.1c-0.1-0.6-0.1-1.2-0.3-1.8c0.2,0,0.3,0,0.4,0c0.2,0,0.3-0.1,0.3-0.3c0-0.5,0-1,0-1.5
		c-0.1-1.1-0.3-2.2-0.6-3.3c-0.1-0.3-0.3-0.5-0.6-0.6c-0.2,0-0.3,0.1-0.4,0.2c-0.9-1.8-2-3.5-3.2-5.2c-0.2-0.2-0.4-0.5-0.5-0.7
		s-0.2-0.4-0.2-0.5s0-0.2,0.1-0.3c0.1,0,0.1,0,0.1,0c0.3,0,0.6,0,0.9,0c0.3,0,0.7-0.1,1-0.1c0.6-0.1,1.2-0.3,1.7-0.6
		c0.1-0.1,0.3-0.2,0.4-0.4c0.1-0.1,0.1-0.3,0.2-0.4c0.1-0.1,0.1-0.3,0.2-0.4c0.1-0.1,0.1-0.3,0.2-0.4s0.1-0.2,0.2-0.3
		c0-0.1,0.1-0.1,0.1-0.2c0.3-0.4,0.6-0.8,0.7-1.4c0.1-0.1,0.1-0.2,0.1-0.3c0-0.2,0-0.3,0-0.5c0-0.1,0-0.3,0-0.5
		c-0.1-0.3-0.1-0.7-0.2-1.1c-0.1-0.8-0.3-1.5-0.5-2.2c-0.1-0.4-0.1-0.7-0.2-1c-0.2-0.8-0.3-1.7-0.4-2.5c-0.1-0.9-0.1-1.7-0.2-2.5
		v-0.4c0-0.6-0.1-1.3-0.1-1.9c0-0.7-0.1-1.3-0.1-1.9c0-1.3,0-2.5,0.1-3.7c0.2-1.2,0.2-2.3,0.3-3.5c0.2-3.6,0.2-7.2,0.2-10.7
		c0-1.2,0-2.4,0-3.6c0-2.4,0-4.8-0.1-7.3c0-1.2,0-2.5-0.1-3.7c-0.1-2.5-0.1-4.9-0.2-7.4c-0.1-2.5-0.2-4.9-0.2-7.4
		c0-0.4-0.1-0.9-0.1-1.3c-0.1-0.4-0.1-0.8-0.1-1.3c-0.1-1-0.2-2-0.3-3c-0.1-1-0.3-2-0.4-3c-0.2-1.5-0.4-3-0.6-4.5
		c-0.1-0.5-0.2-1-0.2-1.5c-0.2-1.9-0.4-3.7-0.6-5.5c-0.2-1.8-0.4-3.7-0.6-5.5c-0.1-0.5-0.1-0.9-0.2-1.4c-0.4-3.3-0.9-6.5-1.1-9.7
		l-0.1-1.4c-0.1-1-0.1-2-0.2-2.9c-0.1-1.9-0.3-3.8-0.4-5.7c-0.1-1.1-0.2-2.2-0.3-3.3c0-0.6,0-1.1-0.1-1.7c0-0.4-0.1-0.8-0.1-1.2
		s-0.1-0.8-0.1-1.2c-0.1-0.7-0.1-1.3-0.1-2c-0.1-1.3-0.1-2.6,0.1-3.8c0.1-0.6,0.2-1.2,0.3-1.8c0.1-0.3,0.2-0.7,0.3-1
		s0.3-0.6,0.4-0.9c0.1-0.1,0.1-0.2,0.2-0.3s0.2-0.1,0.3-0.2c0.1,0,0.2-0.1,0.3-0.2c0.1-0.1,0.3-0.2,0.4-0.3c0.2-0.2,0.4-0.4,0.5-0.6
		c0.4-0.7,0.5-1.6,0.5-2.5V498c-0.1-0.5-0.2-1-0.5-1.6c0,0-0.1-0.1-0.1-0.2c-0.1-0.2-0.3-0.4-0.4-0.6c-0.4-0.5-0.9-1-1.4-1.3
		c-0.2-0.2-0.5-0.3-0.7-0.5c-0.1-0.1-0.3-0.2-0.4-0.3c0.2-0.2,0.4-0.3,0.6-0.5c0.2-0.2,0.4-0.4,0.5-0.6c0.1-0.1,0.1-0.2,0.2-0.3
		c0.2-0.3,0.4-0.6,0.5-1c0.2-0.4,0.4-0.9,0.5-1.4c0.4-1.5,0.4-3.2,0.3-4.9c0-0.7-0.1-1.5-0.2-2.2c-0.1-0.6-0.2-1.2-0.3-1.8
		c-0.8-4.2-2-8.4-3.6-12.6c-0.9-2.3-1.8-4.5-2.6-6.8c-0.9-2.3-1.7-4.5-2.5-6.8c-0.8-2.3-1.6-4.5-2.4-6.8c-0.8-2.3-1.5-4.5-2.3-6.8
		c-1.1-3.2-2-6.3-2.7-9.5c-0.3-1.1-0.5-2.2-0.7-3.2c-0.4-2.1-0.8-4.2-1.1-6.3c-0.2-1-0.3-2.1-0.4-3.1c-0.1-1.1-0.2-2.1-0.3-3.1
		c-0.1-0.9-0.2-1.8-0.3-2.7c-0.1-1.8-0.4-3.6-0.6-5.4c-0.3-2.7-0.7-5.4-1-8.1c-0.1-0.9-0.2-1.8-0.3-2.7c-0.1-0.9-0.1-1.8-0.2-2.7
		c-0.1-2-0.2-4-0.2-6c0-1.5,0-3,0-4.5c0-1.6,0-3.1-0.1-4.6c-0.1-3-0.3-6.1-0.5-9.2c-0.3-3.8-0.6-7.5-1-11.3s-0.8-7.5-1.2-11.3
		c-0.6-5.9-1.4-11.9-2-17.8c-0.2-2-0.4-4-0.5-5.9c-0.1-0.8-0.2-1.6-0.2-2.4c-0.2-2.1-0.2-4.2-0.3-6.3c-0.2-6.2-0.1-12.4-0.4-18.7
		c-0.1-2-0.2-4-0.3-6c-0.1-1.7-0.3-3.4-0.5-5.1c-0.4-3.4-1-6.9-2.1-10.4c-0.3-0.9-0.6-1.8-0.9-2.7c-0.3-0.9-0.6-1.8-1-2.7
		c-0.8-1.8-1.6-3.5-2.4-5.3c-0.4-1-0.8-1.7-1.3-2.4c-0.5-0.7-1.1-1.2-1.9-1.8c-0.3-0.6-0.6-1.3-0.9-1.9c-0.4-0.6-0.8-1.2-1.2-1.8
		c-0.9-1.2-1.9-2.2-3-3.1c-0.2-0.2-0.5-0.3-0.7-0.5c-0.3-0.7-0.8-1.4-1.4-1.9c-0.2-0.2-0.4-0.4-0.6-0.5c-0.6-0.5-1.2-0.8-1.7-1.1
		c-0.8-0.4-1.5-0.8-2.3-1.1c-0.8-0.3-1.6-0.6-2.4-0.9c-0.4-0.1-0.8-0.2-1.1-0.3c-0.3-0.1-0.7-0.2-1-0.3c-0.2-0.2-0.3-0.4-0.4-0.6
		c-0.4-0.6-0.9-1.1-1.4-1.5c-0.6-0.5-1.2-0.8-1.8-1.2c-0.2-0.2-0.4-0.3-0.6-0.4c-1-0.5-1.9-1-2.9-1.5c-2.8-1.4-5.6-2.5-8.4-4
		c-3.9-2.1-7.8-4.2-11.8-6c-1-0.4-2-0.9-2.9-1.3c-1.4-0.7-2.9-1.4-4.3-2.1c-1.4-0.8-2.9-1.5-4.3-2.3c-1.1-0.6-2.1-1.3-3.2-1.9
		c0.2,0.5,0.4,0.9,0.6,1.4c0.8,0.4,1.7,0.9,2.5,1.4c3.9,2.2,7.7,4.1,11.6,5.8s7.8,3.8,11.7,5.9c3.8,2,7.5,3.4,11.2,5.5
		c0.7,0.4,1.5,0.9,2.1,1.4c0.6,0.6,1.1,1.1,1.4,1.8c0.2,0.3,0.4,0.4,0.6,0.5c0.7,0.2,1.5,0.4,2.3,0.7c1.5,0.5,3,1.1,4.4,1.9
		c0.7,0.4,1.4,0.8,1.9,1.3c0.1,0,0.1,0.1,0.1,0.1c0.3,0.3,0.5,0.5,0.7,0.8c-0.1,0-0.1-0.1-0.2-0.1c-1.3-0.4-2.5-0.5-3.7-0.7
		c-0.7-0.1-1.5-0.3-2.3-0.5c-0.1,0-0.2,0-0.2,0l0,0h-0.1c-0.1,0-0.4-0.1-0.7-0.3c-0.3-0.1-0.7-0.3-1-0.4c-0.2-0.1-0.3-0.1-0.5-0.1
		c-0.1,0-0.1,0-0.1,0c-0.1,0-0.2,0-0.3,0c-0.1,0.1-0.1,0.1-0.2,0.1s-0.1,0-0.1,0l-0.1,0.1c-0.2,0.1-0.3,0.3-0.4,0.3
		c-0.1,0.1-0.3,0.1-0.5,0s-0.4-0.2-0.6-0.3c-1-0.5-2-1-3-1.5c-3.1-1.5-6.1-3-9.2-4.2c-1.2-0.4-2.5-0.9-3.8-1.4
		c-0.3-0.1-0.5-0.2-0.8-0.3c-0.6-0.2-1.2-0.3-1.8-0.5c-0.5-0.1-1-0.2-1.5-0.3c-0.1,0-0.2-0.1-0.3-0.1c-0.1,0-0.3,0-0.4,0
		c-0.2-0.1-0.4-0.1-0.6-0.1c-0.6,0-1.3,0-1.9,0l0,0c-0.1,0-0.3,0-0.4,0c-0.3-0.2-0.6-0.5-0.9-0.8c-1.2-1.1-2.4-2.2-3.6-3.3
		c-0.5-0.4-1-0.9-1.5-1.3l-0.3-0.2h-0.1c-1.5-0.5-2.9-1.2-4.5-2c0,0-0.1-0.1-0.2-0.1c-0.5-0.3-1-0.5-1.5-0.8
		c0.1,0.5,0.3,0.9,0.5,1.4c0.3,0.1,0.5,0.2,0.8,0.4c0.5,0.3,0.9,0.5,1.3,0.7c0,0.1,0.1,0.1,0.1,0.1c0.5,0.3,1,0.5,1.5,0.7
		c0.2,0.1,0.3,0.1,0.5,0.2c0.5,0.2,1,0.4,1.6,0.6c0.6,0.6,1.2,1.1,1.8,1.7c0.4,0.4,0.8,0.7,1.2,1.1c0.2,0.1,0.4,0.3,0.6,0.5
		c0.3,0.3,0.6,0.6,0.9,0.9c0.5,0.4,0.9,0.9,1.4,1.3l0,0c0.1,0.1,0.2,0.2,0.3,0.2c0,0,0.1,0,0.2,0c1.5-0.2,3.2,0,5,0.5
		c0.6,0.1,1.2,0.3,1.8,0.5c0.4,0.1,0.8,0.3,1.2,0.4c1.1,0.4,2.2,0.9,3.3,1.3c1,0.4,1.9,0.8,2.8,1.2c0.2,0.1,0.5,0.3,0.8,0.4
		c0.6,0.3,1.3,0.6,2,0.9c0.3,0.2,0.6,0.3,0.8,0.4c1.9,0.9,3.8,1.9,5.7,2.8c0.3,0.1,0.5,0.2,0.8,0.3l0,0c0.2,0,0.3,0.1,0.5,0.1
		c0.1,0,0.1,0,0.1,0c0.1,0,0.2,0,0.3,0s0.1,0,0.2,0h0.1l0,0c0.1,0,0.1-0.1,0.2-0.1c0-0.1,0.1-0.1,0.1-0.1l0.1-0.1
		c0.1-0.1,0.1-0.2,0.2-0.2l0,0c0,0,0,0,0.1,0s0.2,0.1,0.3,0.1s0.3,0.1,0.5,0.2c0,0,0,0.1-0.1,0.1c-1.1,0.5-2,1.1-2.8,1.8l0,0
		c-1.3-0.3-2.5-0.5-3.7-0.6c-0.3,0-0.5,0-0.8,0c-0.3,0.1-0.6,0.2-0.8,0.5c0,0.1,0,0.1,0,0.1c-0.2,0.3-0.2,0.6-0.2,0.9
		c0.1,0.3,0.2,0.7,0.3,1c0.3,0.7,0.7,1.2,1,1.7c0.1,0.2,0.4,0.5,0.6,0.9l0,0c-0.1,0.3-0.2,0.6-0.3,0.9s-0.2,0.6-0.3,0.9l0,0l0,0l0,0
		c-0.2,0.6-0.3,1.2-0.4,1.8v0.1c0,0.1,0,0.1,0,0.2c-0.1,0.6-0.2,1.1-0.2,1.7c0,0.1,0,0.3,0,0.4c-0.1,0.7-0.1,1.4,0,2.1
		c0.1,0.3,0.1,0.5,0.1,0.7c0.1,0.4,0.1,0.9,0.2,1.4c-1.3,0.7-2.4,1.4-3.5,2.2c-0.6,0.4-1,0.9-1.3,1.4c-0.3,0.5-0.4,1.2-0.5,2.1
		c-0.1,1.6-0.2,3.1-0.8,4.2c-0.5,0.8-1.7,1.1-2.8,1.5c-1.2,0.3-2.3,0.8-3.4,1.3c-0.1-0.7-0.3-1.4-0.5-2.2c-0.9-2.7-2.4-5.5-4.4-7.8
		c0.7-2.6-1.6-5.7-3.4-8.3c-0.3-0.4-0.6-0.8-0.8-1.1c0-0.1-0.1-0.2-0.2-0.3c0.4,1,0.8,2.1,1.2,3.2c1.4,2,2.5,4.1,2.1,5.8
		c0.1,0.5,0.3,1,0.5,1.5c1.8,2.1,3.2,4.6,4,7c0.3,1,0.5,1.9,0.6,2.7c0.1,0.5,0.1,1,0,1.5c0,0.1-0.1,0.3-0.1,0.5
		c0.6,0.5,1.3,1,1.9,1.5c-0.2-0.3-0.5-0.6-0.8-0.9c0.1-0.6,0.1-1.2,0.1-1.8c1.2-0.6,2.5-1.2,3.9-1.6c1.1-0.4,2.4-0.6,3.1-1.8
		c0.8-1.3,0.8-3,0.9-4.5c0-0.7,0.1-1.1,0.2-1.5c0-0.1,0.1-0.2,0.1-0.3c0.2-0.3,0.5-0.6,0.9-1c0.1-0.1,0.1-0.1,0.2-0.2
		c0.2-0.1,0.4-0.3,0.6-0.4c0.8-0.5,1.5-1,2.3-1.4c0,0.3,0.1,0.7,0.2,1c0.2,1.1,0.6,2.1,1.1,3.1c0.2,0.3,0.4,0.6,0.6,0.9
		c0.8,1,1.8,1.7,2.5,2.5c0.2,0.3,0.5,0.6,0.7,0.9c0.5,0.6,0.9,1.2,1.3,1.8c0.2,0.4,0.4,0.7,0.6,1c0.4,0.6,0.7,1.2,1,1.8
		s0.6,1.2,0.9,1.8c0.3,0.7,0.5,1.3,0.8,1.9c0.2,0.7,0.5,1.3,0.7,1.9c1.8,5,2.9,10,3.8,14.9c1.9,10,3.4,20,4.5,29.8
		c0.4,3.3,0.7,6.5,1,9.8c0.1,1.9,0.3,3.7,0.4,5.6v0.3c0.5,6.2,1.1,12.5,1.8,18.8c1.1,10.6,2.5,21.2,3.6,31.7
		c0.1,1.4,0.2,2.7,0.4,4.1c0.3,2.7,0.6,5.4,0.9,8.1c0.6,5.5,1.2,10.9,1.7,16.3c0.1,1.3,0.2,2.7,0.3,4c0.3,4.6,0.5,9.1,0.4,13.5
		c0,2.4-0.2,4.7-0.5,6.9c-0.1,0.8-0.3,1.5-0.4,2.2c-0.3,1.4-0.7,2.8-1.1,4.1c-0.5,1.4-1,2.7-1.6,3.9c-0.1,0.2-0.3,0.5-0.4,0.8
		c-0.3,0.5-0.5,1.1-0.8,1.6c-0.5,0.9-1,1.8-1.6,2.5c-0.3,0.3-0.6,0.6-0.9,0.9c0,0.1-0.1,0.1-0.2,0.2c-0.4,0.3-0.8,0.5-1.2,0.9
		c-0.1,0.1-0.3,0.3-0.4,0.5c0,0.1-0.1,0.2-0.1,0.3c-0.3,0.6-0.5,1.3-0.5,2.1c0,0.1,0,0.3,0,0.4s0,0.3,0,0.5 M432.1,254.4
		c-0.2,0.2-0.4,0.4-0.6,0.6c0-0.1-0.1-0.1-0.2-0.2c-0.3-0.2-0.7-0.5-1-0.7C430.9,254.2,431.5,254.3,432.1,254.4z M429.2,255.9
		c-0.2-0.3-0.3-0.5-0.4-0.7c-0.1-0.2-0.2-0.4-0.2-0.6s0-0.3,0.1-0.4l0.1-0.1c0.7,0.5,1.4,1,2.1,1.5c0.3,0.2,0.7,0.5,1,0.7
		c0.7,0.5,1.3,0.9,2,1.4c0.4,0.4,0.8,0.7,0.9,0.9l0.1,0.3c0.1,0.2,0,0.4-0.2,0.6c-0.2,0.2-0.4,0.4-0.7,0.5c0,0-0.2,0-0.5-0.1
		c-0.4-0.2-1-0.4-1.5-0.7c-0.5-0.2-1-0.5-1.3-0.6c0-0.1-0.1-0.1-0.1-0.1l0,0l0,0c0-0.1,0-0.2,0-0.3s0-0.2-0.1-0.3
		c-0.2-0.3-0.3-0.6-0.5-0.8c-0.1-0.1-0.2-0.3-0.3-0.4C429.5,256.4,429.3,256.2,429.2,255.9z M449.6,472.8c0-0.9,0.2-1.7,0.6-2.4
		c0.3-0.6,1-0.9,1.7-1.4c1.9-1.6,2.7-3.9,3.8-6.1c2.5-5.1,3.6-11,3.7-17.5c0-4.5-0.2-9-0.5-13.6c-0.7-10.7-2.3-21.8-3.4-32.5
		c-1.7-16.9-4.2-34-5.4-50.5v-0.3c-1.1-14.8-3-30-5.9-45.3c-0.9-5-2-10.1-3.9-15.2c-1-2.5-2.2-5.1-3.6-7.6c-0.8-1.4-1.8-2.8-2.9-4
		c-0.9-1-1.9-1.7-2.5-2.5c-0.6-0.7-1.1-2-1.4-3.3c-0.1-0.7-0.2-1.4-0.3-2s-0.2-1.1-0.2-1.6c0-0.1,0-0.2,0-0.3v-0.3c0-0.7,0-1.4,0-2
		c0-0.2,0-0.3,0-0.5l0,0c0-0.5,0-0.9,0.1-1.4c0-0.1,0-0.2,0-0.3s0-0.2,0-0.3c0.1-0.5,0.2-0.9,0.3-1.4c0-0.1,0.1-0.2,0.1-0.3
		c0.1-0.2,0.2-0.5,0.3-0.7c0.1,0.1,0.3,0.1,0.4,0.2c0.1,0,0.3,0.1,0.5,0.2c0.3,0.1,0.5,0.3,0.8,0.4c0.3,0.1,0.6,0.3,0.9,0.4
		c0.3,0.1,0.5,0.2,0.8,0.3c0.1,0,0.2,0.1,0.3,0.1c0.3,0.1,0.5,0.1,0.8,0c0.1-0.1,0.3-0.2,0.4-0.3s0.3-0.3,0.4-0.4
		c0.1,0,0.1-0.1,0.2-0.2c0.1-0.2,0.2-0.5,0.2-0.8c0-0.1,0-0.1,0-0.2s-0.1-0.3-0.1-0.4c-0.1-0.1-0.1-0.3-0.2-0.4
		c-0.1-0.2-0.2-0.3-0.3-0.5c-0.3-0.4-0.5-0.6-0.8-0.8c-0.2-0.1-0.3-0.2-0.4-0.3c-0.6-0.4-1.1-0.8-1.7-1.2c0.2-0.2,0.4-0.4,0.6-0.6
		c0.1-0.1,0.3-0.3,0.5-0.4l0,0c0.2-0.1,0.3-0.2,0.5-0.3c0.1-0.1,0.3-0.2,0.4-0.3c0.1,0,0.1,0,0.1,0c0.2-0.2,0.5-0.3,0.8-0.5
		c0-0.1,0.1-0.1,0.1-0.1l0.1-0.1c0.2-0.2,0.5-0.3,0.7-0.4h0.1c0.1,0,0.2-0.1,0.3-0.1c0.1,0,0.3,0,0.4-0.1c0.1-0.1,0.3-0.1,0.4-0.2
		c0.4,0.1,0.8,0.2,1.1,0.3c0.4,0.1,0.9,0.1,1.3,0.2c1,0.1,1.8,0.2,2.7,0.4c0.3,0,0.6,0.1,0.9,0.2c0.3,0.1,0.7,0.2,1,0.4
		c0.2,0,0.3,0,0.4,0c2.1,1.6,4,4,4.8,6.4c0,0.1,0.1,0.3,0.3,0.4c0.9,0.7,1.3,1.1,1.7,1.6c0.3,0.5,0.6,1.1,1.1,2.1
		c0.8,1.8,1.6,3.5,2.3,5.3c2.9,6.9,3.9,13.7,4.4,20.3c0.1,2,0.2,3.9,0.3,5.9c0.4,8.3,0.2,16.5,0.7,24.9c0,0.8,0,1.6,0.1,2.4
		c0.6,7.9,1.7,15.8,2.5,23.7c0.8,7.5,1.6,15.1,2.1,22.5c0.4,6.1,0.7,12.2,0.6,18.2c0,2,0.1,4.1,0.2,6.1c0.6,7.1,1.9,14.4,2.5,21.6
		c0.7,8.2,2.4,16.8,5.3,25.4c3.1,9.1,6.4,18.2,9.9,27.3c1.8,4.7,3.1,9.5,3.8,14.1c0.2,0.7,0.3,1.4,0.3,2.1c0.1,1.6,0.1,3.2-0.3,4.6
		c-0.2,0.9-0.6,1.9-1.1,2.6c-0.4,0.6-1,1-1.6,1.1c-0.2,0-0.4-0.1-0.6-0.2H484c-0.4-0.1-0.9-0.2-1.3-0.2c-0.2,0-0.4,0-0.6,0
		s-0.4,0-0.6,0c-0.4-0.2-0.9-0.4-1.4-0.6l-0.4-0.1c-0.7-0.2-1.3-0.1-1.8,0s-1,0.2-1.5,0.1c-0.2,0-0.3-0.1-0.5-0.1
		c-0.5-0.2-1.1-0.6-1.8-1s-1.4-0.9-2.1-1.1c-0.4-0.1-0.7-0.1-1-0.1c-0.4-0.5-0.9-1-1.3-1.6c-0.4-0.5-0.7-0.9-1.1-1.4
		c-0.2-0.2-0.4-0.5-0.6-0.7c-0.2-0.2-0.4-0.5-0.7-0.7c-0.2-0.2-0.4-0.3-0.6-0.5c-0.2-0.2-0.4-0.3-0.6-0.4c-0.1-0.1-0.2-0.1-0.4-0.2
		c-0.6-0.1-1.1-0.1-1.5,0.3c-0.3,0.4-0.7,0.8-1,1.3c-0.3,0.4-0.6,0.9-0.9,1.4c-0.1,0.4-0.3,0.7-0.5,1c-0.1,0.3-0.3,0.5-0.4,0.8
		c-0.2,0.5-0.3,1-0.4,1.5c-0.4-0.3-0.8-0.8-1.1-1.3c-0.5-0.9-0.8-2-0.9-2.9c0-0.4,0-0.8,0.1-1.2c0-0.1,0-0.1,0-0.2s-0.1-0.1-0.1-0.2
		l0,0c0-0.1-0.1-0.1-0.1-0.2c-0.1-0.1-0.1-0.2-0.2-0.2c-0.1-0.1-0.1-0.1-0.2-0.1c-0.1,0-0.1,0-0.2,0l0,0l0,0c0,0-0.2-0.1-0.4-0.1
		c-0.7-0.1-1.7-0.4-1.9-0.5l-0.2-0.1c-0.8-0.3-1.6-0.7-2.4-1.2c-0.6-0.4-1.2-1.2-1.7-2.2c-0.6-0.9-1-2-1.3-2.8 M479.6,492.6
		c-0.9,0.3-1.7,0.7-2.4,1.2c-0.2,0.2-0.3,0.4-0.4,0.7c-0.8-0.9-1.6-1.7-2.4-2.4c-0.6-0.5-1.2-1-1.7-1.5c0.1,0,0.3,0.1,0.5,0.2
		c0.3,0.2,0.6,0.4,0.9,0.6c0.3,0.2,0.6,0.4,1,0.6s0.7,0.4,1.1,0.5c0.3,0.1,0.5,0.2,0.7,0.2c0.5,0.1,0.9,0.1,1.3,0
		c0.1-0.1,0.3-0.1,0.4-0.1c0.2,0,0.3,0,0.4,0S479.3,492.6,479.6,492.6z M476.3,591.8c-0.5-5-1-10-1.4-15c-0.1-2.5-0.3-4.8-0.3-7.2
		c-0.1-6.6-0.2-13.1-0.7-19.8c-0.1-0.7-0.1-1.5-0.2-2.3c-0.3-3.9-0.5-8.1-1.4-12.2c-1.1-4.9-1.8-9.9-2.9-14.9
		c-1.1-5.2-2.3-10.3-3.6-15.5c-0.6-2.2-1.1-4.5-1.7-6.7c-0.5-2.1-1.6-4.1-1.9-6c-0.1-0.3-0.1-0.6-0.1-0.8v-0.1c-0.1-0.3,0-0.7,0-1
		c0.1-0.7,0.3-1.4,0.7-2c0.8-1.3,1.5-2.6,2.4-3.6c0.3-0.2,0.4-0.2,0.7-0.1c0.3,0.1,0.7,0.4,1.1,0.8c0.5,0.4,0.9,0.8,1.2,1.2
		c0.6,0.8,1.3,1.7,2,2.6c0.3,0.4,0.6,0.8,0.9,1.1l0,0c0.9,1,1.9,1.7,2.8,2.5s1.7,1.5,2.3,2.4c0.1,0.2,0.2,0.3,0.3,0.5
		c0,0.1,0,0.2,0,0.3c0,0.3,0.1,0.6,0.3,0.9c0,0.2,0.1,0.3,0.2,0.4c0,0.1,0.1,0.2,0.2,0.3l0,0c0.1,0.4,0.2,0.9,0.3,1.3
		c0.1,0.2,0.1,0.4,0.1,0.6c0.1,1.5-0.2,2.7-0.4,4.3c0,0.5,0,1.1,0,1.6c0.1,0.7,0.2,1.3,0.3,2c-0.2,0.7-0.4,1.3-0.5,1.9
		c-0.3,1.2-0.5,2.4-0.5,3.8c0,0.2,0,0.4,0,0.6c0,0.1,0,0.2,0,0.3c0,0.4,0.1,0.8,0.2,1.3c0.4,1.4,0.7,2.9,1.1,4.3
		c0.2,0.7,0.4,1.5,0.6,2.2c0,0.6,0.1,1.2,0.1,1.8c0.1,1.9,0.3,3.8,0.6,5.7c0.3,1.8,0.6,3.5,0.8,5.3c0.7,4.9,1.3,9.7,1.6,14.4
		c0.2,2.4,0.3,4.8,0.3,7.2c0.1,7.1-0.5,14-0.2,21.3c0.2,4.5,0.6,8.7,0.7,13.2c0,2.3,0.1,4.6,0.3,6.9c0.2,2.9,0.6,5.8,1,8.7
		c0,0,0,0.1,0,0.2c-0.2,1.9-0.4,3.9-0.6,5.8c-0.1,0.9-0.2,1.7-0.3,2.4c0,0.4-0.1,0.8-0.2,1.1c-0.1,0.4-0.2,0.7-0.4,1
		c-0.1,0.2-0.2,0.5-0.3,0.7c-0.1,0.5-0.2,1-0.3,1.5c-0.1,0.3-0.1,0.6-0.1,0.9c-0.1,0.3-0.1,0.6-0.1,0.9s0,0.6,0,1v0.2
		c0.1,0.1,0.1,0.3,0.1,0.4c-0.2-0.1-0.5-0.2-0.7-0.3C478.7,612,477.3,601.9,476.3,591.8z M481.1,537c0-0.6-0.1-1.2-0.2-1.8
		s-0.2-1.2-0.3-1.8c-0.1-1.1-0.2-2.1-0.4-3.1c0.5,2.1,0.9,4.2,1.3,6.3c0.2,1,0.3,1.9,0.5,2.9c0.4,1.9,0.6,3.9,0.8,5.8
		c0.1,1.2,0.2,2.4,0.3,3.6c0.3,3.6,0.5,7.2,0.8,10.8l0.1,1.8c0.1,0.3,0.1,0.6,0.1,0.9c0.1,1.6,0.2,3.3,0.3,4.9
		c0.3,4.9,0.4,9.7,0.4,14.5c0,1.5-0.2,2.9-0.3,4.3c-0.1,1.1-0.2,2.2-0.2,3.3c0,0.3,0,0.7,0,1.1c0,1.3,0.1,2.7,0.1,4
		c0.1,1.3,0.1,2.6,0,3.9c0,0.8-0.1,1.7-0.2,2.5c0,0.4,0,0.8-0.1,1.2c-0.2-1.3-0.3-2.7-0.4-4c-0.1-1.1-0.1-2.3-0.2-3.4
		c0-1.2-0.1-2.3-0.1-3.4c-0.1-4-0.4-7.7-0.6-11.6c0-0.6-0.1-1.1-0.1-1.7c-0.1-2.7,0-5.4,0-8c0.1-0.8,0.1-1.7,0.1-2.6
		c0.1-3.5,0.2-7,0.2-10.6c0-2.4-0.1-4.9-0.3-7.3C482.4,545.3,481.9,541.1,481.1,537z M471.8,628.7c0.2-0.2,0.5-0.3,0.8-0.5
		c1.5-0.9,2.8-2.3,3.8-3.8c0.4-0.5,1-0.8,1.8-1c0.6-0.2,1.3-0.3,1.9-0.6l0,0c0.1,0,0.1,0.1,0.2,0.1c0.5,0.3,0.9,0.5,1.4,0.7l0,0l0,0
		c0.3,0.9,0.7,1.8,1.1,2.6l0,0c0.1,0,0.1,0.1,0.1,0.1c0.1,0.2,0.1,0.3,0.2,0.4l0,0c0.5,0.9,1,1.7,1.6,2.6l0,0
		c-0.2,0.3-0.5,0.5-0.8,0.6c-0.6,0.3-1.3,0.4-1.8,1c-0.4,0.5-0.5,1.3-0.6,1.9c-0.1,0.9-0.3,1.7-0.4,2.6c-1.4-0.9-2.7-1.8-4.1-2.5
		c-0.2-0.1-0.3-0.1-0.5-0.2c-0.1-0.1-0.3-0.1-0.5-0.1c0,0.1-0.1,0.1-0.1,0.1c0-0.2,0-0.5-0.1-0.8c0-0.3-0.2-0.6-0.4-0.9
		c0-0.1,0-0.1,0-0.1c0-0.1,0-0.1,0-0.1c-0.5-0.7-1.1-1.1-1.7-1.3h-0.2c-0.8-0.2-1.4-0.1-1.9-0.2C471.6,629.2,471.7,629,471.8,628.7z
		 M482.3,637.2c0.2,0.1,0.3,0.2,0.4,0.5c0.1,0,0.2,0.1,0.2,0.1c0.4,0.3,0.8,0.6,1.2,0.9c0.6,0.4,1.2,0.8,1.6,1.3l0.1,0.3v0.1v0.1
		c0,0.1-0.1,0.2-0.1,0.3c-0.1,0.1-0.1,0.2-0.1,0.2c-0.1,0.2-0.1,0.2-0.2,0.3l0,0c-0.1,0.1-0.1,0.1-0.2,0.1l0,0c-0.1,0-0.3,0-0.5-0.1
		c-0.2-0.1-0.4-0.2-0.7-0.3c-1-0.5-2.1-1.2-3.2-1.8c-0.4-0.2-0.8-0.4-1.1-0.6c-0.1-0.1-0.2-0.1-0.3-0.2c-0.4-0.3-0.7-0.5-1-0.8
		c-0.2-0.2-0.4-0.5-0.6-0.7c-0.2-0.2-0.3-0.4-0.4-0.6c0,0-0.1-0.1-0.1-0.2c-0.1-0.2-0.1-0.3-0.2-0.5c-0.1-0.1-0.1-0.1-0.1-0.2v-0.1
		c-0.1-0.1-0.1-0.1-0.1-0.2c0-0.1-0.1-0.3-0.1-0.4s0-0.1,0-0.1c0-0.2-0.1-0.4-0.1-0.6v-0.1l0.3,0.1c1.4,0.7,2.8,1.6,4.2,2.5
		c0.2,0.1,0.3,0.2,0.5,0.3C481.9,636.9,482.1,637.1,482.3,637.2L482.3,637.2z M458.6,671.2c-0.1,0.1-0.3,0.2-0.5,0.3
		c0,0-0.1,0.1-0.2,0.1c-0.2,0.1-0.3,0.2-0.5,0.3c-0.1,0.1-0.3,0.2-0.4,0.3c-0.5,0.3-0.9,0.8-1.2,1.3s-0.3,1.2-0.4,1.7
		c-0.1,0.6-0.2,1-0.4,1.4c-0.1,0.2-0.2,0.3-0.4,0.4c-0.1,0-0.3,0-0.4,0s-0.2,0-0.4-0.2c-0.3-0.3-0.5-0.7-0.5-1c0-0.1,0-0.3,0-0.4
		c0.2-0.9,0.6-1.7,0.5-2.9c0-0.2-0.1-0.5-0.1-0.7c-0.1-0.6-0.4-1.1-0.6-1.6c-0.2-0.4-0.3-0.7-0.4-1c-0.1-0.1-0.1-0.1-0.1-0.2v-0.2
		c0-0.1,0-0.2,0-0.3c0-0.1,0.1-0.3,0.2-0.4s0.2-0.2,0.4-0.3c0.4-0.2,1.1-0.2,1.5-0.1l0,0c1,0.3,2.1,1.1,2.9,2
		c0.2,0.2,0.4,0.5,0.6,0.7l0.2,0.3l0.1,0.2l0,0l0,0C458.5,670.9,458.4,671.1,458.6,671.2z M464.2,660.6c-0.1,0.3-0.3,0.5-0.6,0.7
		s-0.7,0.4-0.9,0.8c-0.4,0.6-0.9,1.1-1.4,1.7c-0.4,0.5-0.5,1.1-0.7,1.6c-0.6,1.6-1,3.2-1.2,5c-0.1-0.2-0.3-0.4-0.4-0.6
		c-0.3-0.4-0.6-0.6-0.7-0.8c-1-1.1-2.3-2.1-3.5-2.5h-0.1c-0.3-0.1-0.7-0.1-1-0.1c0.3-0.3,0.6-0.5,0.8-0.7c2.1-1.6,2.8-4.7,2.7-7.9
		v-0.3c-0.1-0.2-0.1-0.5-0.1-0.7c-0.1-0.4-0.1-0.7,0.2-1.1c0.1-0.1,0.1-0.1,0.2-0.2s0.2-0.2,0.3-0.3c0.1,0,0.1-0.1,0.2-0.1
		c0.1-0.1,0.2-0.1,0.3-0.1c0.2-0.1,0.4-0.1,0.6,0h0.1c1.2,0.5,2.6,1.6,3.6,2.7c0.2,0.2,0.3,0.4,0.4,0.6l0.1,0.1
		c0.1,0.2,0.2,0.4,0.4,0.7l0,0c0.1,0.2,0.2,0.4,0.3,0.6c0.1,0.2,0.1,0.4,0.1,0.6L464.2,660.6z M473.4,640c-0.3,0.1-0.5,0.2-0.8,0.3
		c-0.1,0-0.2,0.1-0.3,0.1l-0.2,0.1c-0.6,0.3-1.1,0.8-1.5,1.2c-0.9,0.9-1.6,2-2,3.3c-0.6,2-1.2,4-1.6,6.2c-0.2,1.1-0.2,2.2-0.3,3.2
		c-0.1,0.9-0.3,1.8-0.8,2.6c-0.4,0.8-1,1.4-1.6,2h-0.1l0,0c-0.2-0.3-0.3-0.6-0.5-0.9c-0.2-0.2-0.4-0.6-0.7-0.9
		c-1.2-1.3-2.7-2.5-4.2-3.1l-0.2-0.1c-0.5-0.2-1-0.2-1.4,0l0,0c-0.1-0.2-0.3-0.4-0.4-0.6c-0.2-0.3-0.3-0.6-0.3-0.8v-0.3
		c0.1-0.4,0.4-0.7,0.6-1c0.7-1,1.4-2,2.1-3c0.6-0.9,0.7-1.9,1.1-2.8c1-2.3,2-4.5,3.1-6.7c0.7-1.5,1.3-3.1,2.2-4.2
		c0.4-0.5,0.9-0.9,1.5-1.2c0.1-0.1,0.2-0.1,0.3-0.2c0.1-0.1,0.2-0.1,0.4-0.2c0-0.1,0.1-0.1,0.1-0.1c0.2,0,0.3-0.1,0.4-0.1
		c0.1,0,0.2,0,0.2,0h0.2l0,0c1.3,0.7,2.5,1.9,3.4,3.2c0,0.1,0,0.1,0.1,0.2c0.3,0.6,0.7,1.2,0.9,1.8c0.1,0.3,0.2,0.7,0.3,1
		s0.2,0.7,0.2,1C473.6,640,473.6,640,473.4,640z M476.6,639.5h-0.1l0,0c-0.2,0-0.5,0-0.8-0.1c-0.4-0.1-0.8-0.3-1.1-0.6
		c-0.1-0.1-0.3-0.2-0.4-0.3c-0.3-0.9-0.8-2-1.4-2.9c-1.1-1.6-2.5-2.9-4-3.8l-0.2-0.1c-0.3-0.1-0.5,0-0.7,0c-0.1,0.1-0.1,0.1-0.2,0.1
		c0-0.5,0-1,0.1-1.4c0.1-0.5,0.5-0.9,0.9-0.9c0.2,0,0.4,0,0.7,0.1c0.4,0.1,0.8,0.3,1.2,0.5c0.2,0.1,0.4,0.2,0.6,0.3h0.1l0.3,0.1
		c0.1,0.1,0.2,0.1,0.3,0.1c0.7,0.1,1.2,0.1,1.7,0.2h0.1c0.4,0.2,0.8,0.5,0.9,0.7l0.1,0.1l0.2,0.4c0.1,0.2,0.1,0.5,0.2,0.9
		c0,0.1,0.1,0.2,0.1,0.3s0.1,0.2,0.1,0.3c0.2,0.3,0.4,0.6,0.6,0.9c0.1,0.1,0.1,0.1,0.2,0.2c0,0.1,0,0.3,0.1,0.5
		c0,0.1,0.1,0.2,0.1,0.3c0,0.2,0.1,0.4,0.2,0.6c0,0.1,0,0.2,0.1,0.3c0.2,0.3,0.4,0.6,0.6,0.9c0.1,0.2,0.3,0.3,0.4,0.5
		c0.1,0.1,0.1,0.1,0.1,0.1c-0.1,0.2-0.1,0.3-0.2,0.4c-0.2,0.3-0.3,0.7-0.4,0.9S476.9,639.5,476.6,639.5z M478.1,667.5
		c1-0.7,1.9-1.6,2.5-2.6c0.8-1.2,0.8-2.6,0.9-4.1c0-1.1,0-2.3-0.1-3.5c-0.1-2.1-0.5-4.2-1-6.3c-0.5-2.1-1.3-4-1.7-5.9
		c-0.3-1.4-0.6-2.9-1.1-4.4c0.3-0.1,0.5-0.4,0.6-0.7s0.2-0.6,0.3-0.8c0.1-0.1,0.2-0.2,0.2-0.3l0.1,0.1c0.1,0.1,0.2,0.1,0.3,0.2
		c0.1,0.2,0.3,0.3,0.5,0.4c0.1,0.1,0.2,0.1,0.3,0.2c0.2,0.1,0.4,0.2,0.6,0.3l0.1,0.1c1.1,0.6,2.2,1.3,3.3,1.9
		c0.3,0.2,0.6,0.3,0.9,0.4c0.1,0.1,0.1,0.1,0.2,0.1h0.1c0.1,0.2,0.2,0.4,0.2,0.6c0,0.3,0.1,0.6,0.1,0.9c0.1,1,0,1.9-0.4,2.6
		c-0.1,0.3-0.4,0.5-0.7,0.9c-0.1,0.1-0.2,0.3-0.2,0.5v0.1c-0.1,0.1-0.1,0.1-0.1,0.2c-0.1,0.1-0.1,0.2-0.1,0.3s0,0.2,0,0.3
		s0,0.1,0,0.1c-0.1,0.2-0.1,0.4-0.1,0.5l0,0l0,0c-0.1,0.8-0.1,1.7,0,2.6c0,0.4,0,0.8,0.1,1.2c0.1,0.5,0.2,1.1,0.2,1.7
		c0.1,1.4,0.1,2.7,0.2,4.1c0,0.4,0.1,0.9,0.1,1.3c0.2,2.5,0.5,4.9,1.2,7.5c0.1,0.3,0.2,0.7,0.3,1l0,0c0,0.1,0.1,0.2,0.1,0.3
		c0.1,0.4,0.2,0.8,0.3,1.1c0.1,0.2,0.2,0.4,0.2,0.6c0.1,0.2,0.1,0.4,0.1,0.6c0,0.1,0,0.3,0,0.4c0,0.9-0.3,1.5-0.7,2.2
		c-0.1,0.2-0.3,0.5-0.5,0.7l0,0c-0.2,0.2-0.4,0.4-0.6,0.6l0,0c-0.3,0.2-0.5,0.3-0.8,0.4l0,0c-0.1,0-0.1,0-0.2,0
		c-0.2-0.2-0.3-0.4-0.5-0.6c-0.7-0.8-1.4-1.7-2.3-2.5c-0.8-0.7-1.7-1.3-2.6-1.6l-0.4-0.1c-0.2-0.1-0.4-0.1-0.6-0.1
		c-0.1-0.5-0.2-1-0.2-1.4C477.1,668.5,477.3,667.6,478.1,667.5z M485,653.5c0-0.3-0.1-0.7-0.1-1c0.2,0.7,0.4,1.4,0.6,2.1
		c0.3,1.2,0.4,2.3,0.5,3.4c0.1,1.2,0.1,2.3,0.1,3.6c0,1.2,0,2.3-0.1,3.4c-0.2-1.4-0.3-2.9-0.5-4.3c0-0.5-0.1-0.9-0.1-1.3
		c-0.1-1.4-0.1-2.7-0.2-4.1C485.2,654.7,485.1,654.1,485,653.5z M475,691c0.9-1,1-2.4,1.4-3.5c0.7-1.8,0.8-3.8,0.7-5.9
		c-0.1-2-0.6-4.1-1.2-6.2c0-0.2-0.1-0.4-0.1-0.6c-0.1-0.7,0.2-1.5,0.6-2c0.1-0.1,0.2-0.2,0.4-0.3c0.1-0.1,0.3-0.1,0.4-0.2
		c0.2-0.1,0.3-0.1,0.5-0.1c0.2,0,0.3,0,0.5,0l0.3,0.1c0.7,0.2,1.4,0.7,2.1,1.3c0.7,0.6,1.4,1.5,2.1,2.3l0.1,0.1l0.1,0.1
		c-0.1,0.1-0.1,0.2-0.1,0.4l0,0c0,0.2,0.1,0.4,0.2,0.6c0.1,0.4,0.3,0.8,0.6,1.2c0.2,0.2,0.3,0.3,0.4,0.5c-0.2,0.6-0.5,1.2-0.8,1.7
		c-1.3,2.1-2,4.7-2.7,7.2c-0.5,1.8-0.9,3.7-1.3,5.7c0,0.2-0.1,0.3-0.1,0.5c-0.1,0.6-0.1,1.2-0.3,1.8c-0.1,0.2-0.1,0.4-0.2,0.5
		c-0.1-0.2-0.2-0.4-0.3-0.6c-0.2-0.2-0.3-0.4-0.5-0.6c-1-1.1-2.1-2.2-3.1-3.3c-0.1-0.1-0.2-0.1-0.3-0.2
		C474.7,691.3,474.9,691.1,475,691z M465.3,696l0.2-0.1l0.2,0.1l0,0c1.3,0.4,2.3,0.1,3.1-0.4c1.6-1,2.5-2.7,4-3.3
		c0.1-0.1,0.3-0.2,0.5-0.2c0.2-0.1,0.4-0.1,0.5-0.1s0.2,0,0.3,0c0.1,0,0.1,0.1,0.2,0.1c0,0.1,0.1,0.1,0.1,0.1c1,1.1,2.1,2.2,3.1,3.3
		c0.1,0.2,0.2,0.3,0.3,0.4l0.1,0.1l0,0c0,0.2-0.1,0.4-0.2,0.5c-0.1,0.1-0.1,0.1-0.2,0.2c-0.1,0-0.1,0.1-0.2,0.1c0,0-0.1,0.1-0.2,0.1
		H477c-0.1,0-0.1,0-0.2,0c-0.2,0-0.3,0.1-0.5,0.1c-0.9,0.1-1.9,0-2.7,0.4c-0.3,0.2-0.6,0.3-0.9,0.4l0,0c-1.5,0.6-3.1,1-4.8,1.4
		c0-0.2-0.1-0.4-0.2-0.5c-0.1-0.2-0.2-0.3-0.3-0.4c-0.3-0.4-0.6-0.6-0.8-0.8l-0.1-0.1c-0.3-0.3-0.6-0.5-0.8-0.7
		c-0.3-0.1-0.5-0.3-0.6-0.4c-0.1-0.1-0.1-0.1-0.2-0.2L465.3,696z M463.6,698.9c-0.3-0.1-0.6-0.2-0.9-0.3l0,0c-0.1,0-0.3-0.1-0.4-0.1
		l-0.3-0.1c-0.3-0.1-0.5-0.2-0.8-0.3l-0.1-0.1l-0.4-0.1c-0.2-0.3-0.3-0.6-0.3-0.8l0,0c-0.1-0.1,0-0.3,0-0.3h0.1c0.1,0,0.2,0,0.4,0.1
		l0.4,0.1c0.1,0,0.3,0.1,0.4,0.1c0.7,0.1,1.4,0.1,2,0c0.1-0.1,0.3-0.1,0.4-0.1c0,0,0.1,0,0.2,0h0.2l0.1,0.1h0.1
		c0.3,0.2,0.5,0.4,0.7,0.5c0,0.1,0.1,0.1,0.1,0.1c0.2,0.1,0.3,0.2,0.4,0.3l0.2,0.3c0.2,0.2,0.5,0.4,0.6,0.6l0.1,0.2
		c-0.1,0-0.1,0-0.2,0h-0.1l0,0c-0.2-0.1-0.4-0.1-0.6-0.1c-0.3-0.1-0.5-0.1-0.7-0.1c-0.1,0-0.2,0-0.3,0
		C464.3,698.8,463.8,698.7,463.6,698.9z M476.7,702.3c0,0.2-0.1,0.3-0.2,0.5c-0.2,0.1-0.4,0.1-0.6,0.2c-0.1,0.1-0.4,0-0.8-0.1
		l-0.6-0.2c-2.1-0.6-4.2-1.2-6.3-1.7c-1.2-0.3-2.2-0.4-3.2-0.7c-0.3-0.1-0.6-0.2-0.9-0.4c0-0.1-0.1-0.1-0.1-0.1
		c0.4,0.1,0.8,0.2,1.2,0.2c0.5,0,1,0.1,1.5,0.1l0,0c0.2,0.1,0.3,0.2,0.5,0.3c0.4,0.1,0.7,0.2,1,0.1l0,0c1.6-0.5,3.3-0.8,4.9-1.4l0,0
		c0.8,0.5,1.5,1,2.3,1.4c0.1,0.1,0.1,0.1,0.2,0.1l0,0l0.1,0.2l0.2,0.2v0.1l0.3,0.4c0.1,0,0.2,0.1,0.3,0.2l0,0l0,0l0.1,0.1l0,0
		C476.6,702,476.7,702.2,476.7,702.3L476.7,702.3z M476.2,699.8c-0.1,0.1-0.3,0.1-0.5,0l-0.2-0.1h-0.1c-0.1,0-0.2-0.1-0.3-0.1l0,0
		c-0.4-0.2-0.8-0.5-1.2-0.7c-0.1,0-0.1,0-0.2-0.1c0.1-0.1,0.1-0.1,0.2-0.1c0.6-0.3,1.5-0.2,2.4-0.3c0.3,0,0.5,0,0.8-0.1h0.1
		c0.1-0.1,0.3-0.1,0.4-0.2l0,0l0,0h0.1h0.2c0.3,0,0.6,0,0.8-0.2c0.1-0.1,0.2-0.2,0.3-0.3c0.2-0.2,0.4-0.5,0.5-0.8
		c0.2-0.3,0.2-0.7,0.3-1c0.2-0.7,0.2-1.3,0.3-1.7c0.3-1.9,0.8-3.8,1.3-5.6c0.1-0.5,0.3-1,0.4-1.5s0.3-0.9,0.4-1.3
		c0.2-0.5,0.3-1,0.5-1.5c0-0.1,0-0.2,0.1-0.3c0-0.3,0.2-0.6,0.3-0.9c0.2-0.6,0.5-1.1,0.8-1.6l0,0c0.2-0.2,0.4-0.5,0.5-0.8
		c0-0.1,0-0.1,0-0.1c0.1-0.2,0.1-0.4,0.2-0.6c0.1-0.1,0.1-0.2,0.1-0.3l0,0h0.1c0.2,0.1,0.4,0.2,0.5,0.3c1,0.6,1.8,1.4,2.6,2.3
		c0.2,0.2,0.4,0.5,0.6,0.7c0,0.1,0,0.1,0.1,0.2c0.2,0.3,0.4,0.6,0.6,0.9c0.1,0,0.1,0.2,0.1,0.3l0,0l0,0c0,0.1,0,0.3,0,0.4v0.1
		c-0.1,0.2-0.2,0.4-0.4,0.7c-1.2,1.8-2.5,3.5-3.7,5.3c-1.2,1.7-2.7,3-4.1,4.7c-0.4,0.5-0.7,0.8-1,1.2c-0.2,0.2-0.3,0.3-0.5,0.5
		c-0.1,0.2-0.3,0.4-0.5,0.5c0,0,0,0.1-0.1,0.1c-0.6,0.5-1.5,0.9-2.1,1.6C476.7,699.6,476.6,699.7,476.2,699.8z M491.5,684.6l0.2,0.1
		h0.1c0.9,1,1.7,2,1.9,3c0.1,0.1,0.1,0.3,0.1,0.5c0.1,0.9-0.3,1.8-0.7,2.6c-1.5,2.9-4,4.9-6.6,6.8c-2.1,1.5-4.4,3.2-6.9,4.1
		c-0.3,0.2-0.6,0.2-0.9,0.2l-0.3-0.1c-0.4-0.1-0.8-0.4-1.3-0.8l-0.2-0.2l0,0c0.1,0,0.1,0,0.2,0c0.2-0.1,0.5-0.2,0.7-0.5
		c0.5-0.6,1.4-1,2.1-1.6c0.4-0.4,0.8-0.7,1.1-1.1c0.4-0.4,0.7-0.8,1-1.2c0.3-0.4,0.7-0.8,1-1.2c1.1-1.2,2.2-2.3,3.2-3.6
		c1.2-1.8,2.5-3.5,3.7-5.3c0.2-0.3,0.4-0.6,0.5-1c0.1-0.2,0.1-0.5,0.1-0.8v-0.1c0-0.1-0.1-0.2-0.1-0.3c0-0.2-0.1-0.3-0.2-0.5l0,0
		l0,0c0,0-0.1,0-0.1-0.1C490.5,683.9,491,684.3,491.5,684.6z M494,674.2c0,2.2-1.1,3.4-1.8,5.4c-0.2,0.6-0.4,1.1-0.7,1.5
		c-0.2,0.3-0.4,0.6-0.5,0.8c-0.2,0.2-0.3,0.3-0.5,0.4c-0.1,0-0.2,0-0.3,0c-0.2,0-0.4,0-0.7-0.1c-1.1-1.5-2.5-2.7-4-3.6
		c-0.1-0.1-0.1-0.1-0.2-0.1c-0.1-0.1-0.2-0.2-0.3-0.2c-0.1-0.2-0.2-0.3-0.3-0.4c0-0.1-0.1-0.1-0.1-0.2c-0.2-0.2-0.3-0.5-0.4-0.7l0,0
		h0.1c0.2-0.1,0.4-0.1,0.5-0.1l0,0l0,0c0.3-0.2,0.6-0.3,0.9-0.5c0.1,0,0.1,0,0.1,0c0.3-0.2,0.5-0.5,0.7-0.7c0.1-0.1,0.1-0.1,0.1-0.1
		c0.1-0.1,0.2-0.2,0.2-0.3c0,0,0.1,0,0.1-0.1s0-0.1,0-0.1l0,0c0-0.2,0.1-0.3,0.2-0.4l0,0c0.4-0.7,0.7-1.4,0.8-2.5c0-0.2,0-0.4,0-0.6
		c-0.1-0.6-0.2-1.2-0.4-1.8c-0.2-0.4-0.3-0.7-0.4-1.1l0,0c-0.1-0.2-0.1-0.5-0.2-0.8c0.4-1.9,0.6-4,0.5-6.1c0-1.2,0-2.4-0.1-3.6
		c-0.1-1.1-0.3-2.3-0.6-3.6c-0.4-1.6-1-3.2-1.6-4.8l0,0c0-0.4,0.1-0.9,0.2-1.3c0-0.1,0.1-0.2,0.1-0.3c0.1-0.3,0.5-0.5,0.7-1
		c0.4-0.8,0.6-1.9,0.5-3c-0.1-0.4-0.1-0.8-0.2-1.2c0-0.3-0.1-0.5-0.2-0.8l0,0c0.1,0,0.1,0,0.1,0c0-0.1,0.1-0.1,0.1-0.1
		c0.2-0.1,0.3-0.3,0.4-0.5c0,0,0,0,0-0.1l0,0l0,0c0.7,0.6,1.4,1.2,2.2,1.7c0.7,0.5,1.5,1,2.3,1.3l0,0c0.2,0.5,0.3,1.1,0.3,1.6v0.1
		c0.1,2,0.3,4.1,0.4,6.2c0.1,1.7,0,3.3,0.1,5.1c0.1,0.5,0.1,1,0.2,1.5c0.5,2.6,0.6,5.2,0.8,7.9l0.1,2c0,0.4,0,0.8,0.1,1.3
		c0.1,1.1,0.3,2.2,0.4,3.2C493.8,673.7,493.8,674,494,674.2z M491.5,640.8c0.1,0.2,0.2,0.3,0.4,0.4c0,0.4,0.1,0.7,0.1,1.1
		c0,0.4,0,0.7,0,1.1c-0.2,0-0.3-0.1-0.5-0.1h-0.1c-0.6-0.2-1.3-0.6-2-1.1l0,0c-0.8-0.6-1.6-1.2-2.4-1.8c0-0.3-0.2-0.7-0.5-1.1
		c-0.6-0.7-1.4-1.3-2-1.7c-0.7-0.5-1.5-1-2.2-1.5c0.1-0.9,0.3-1.8,0.4-2.7c0.1-0.3,0.1-0.6,0.2-0.9s0.2-0.5,0.3-0.7
		c0.3-0.4,0.9-0.6,1.6-0.8c0.3-0.1,0.6-0.3,0.9-0.6l0,0c0.3,0.4,0.6,0.9,0.9,1.3l0,0c-0.1,0.2-0.1,0.3-0.1,0.5v0.1l0,0
		c0,0.4,0.2,0.8,0.4,1.1c0.2,0.3,0.4,0.7,0.6,0.9C489.1,636.4,490.4,638.7,491.5,640.8z M488.8,498c0,1.1-0.2,2-0.8,2.5
		c-0.5,0.3-1.1,0.5-1.4,1.2c-0.3,0.6-0.5,1.4-0.7,2.1c-0.6,2.5-0.6,5.2-0.4,7.9c0.1,0.8,0.1,1.7,0.2,2.5c0.2,1.7,0.3,3.4,0.4,5
		c0.2,2.9,0.4,5.7,0.6,8.6l0.1,1.4c0.3,3.7,0.8,7.4,1.2,11.1c0.4,3.7,0.7,7.3,1.1,11c0.4,3.9,1.1,8,1.4,11.9c0,0.9,0.1,1.7,0.1,2.6
		c0.1,4.9,0.2,9.8,0.4,14.8c0.3,4.9,0.3,9.8,0.2,14.6c-0.1,4.7-0.1,9.5-0.5,14c-0.2,2.5,0,5,0.2,7.6c0,0.1,0,0.3,0,0.4
		c0.1,1.7,0.3,3.4,0.6,5.1c0.2,1.4,0.7,3,0.8,4.2c0,0.3,0,0.5,0,0.8c-0.1,0.6-0.4,1.1-0.8,1.6c-0.4,0.6-0.5,1.3-0.8,1.6
		c-0.3,0.4-0.9,0.6-1.7,0.7c-0.6,0.1-1.3,0-1.9,0c-0.5-0.6-0.9-1.2-1.3-1.8c-0.7-1.1-1.3-2.1-1.9-3.2l0,0c-0.3-0.4-0.5-0.9-0.7-1.3
		c-0.1,0-0.1-0.1-0.1-0.1c-0.1-0.2-0.1-0.4-0.2-0.6s-0.2-0.5-0.3-0.7c0-0.1-0.1-0.2-0.1-0.3c0-0.1,0-0.1,0-0.2
		c0-0.2-0.1-0.5-0.1-0.7c0-0.6,0.1-1.1,0.1-1.8c0-1.2,0.1-1.9,0.6-2.8c0.8-1.4,0.8-3,1-4.7c0.1-0.8,0.2-1.7,0.3-2.5
		c0.2-1.3,0.3-2.5,0.4-3.7c0.2-1.8,0.4-3.6,0.6-5.4c0.4-3.4,0.3-7,0.2-10.5c-0.1-3,0.6-5.7,0.6-8.8c0-6.4-0.2-12.9-0.7-19.5
		c-0.1-0.9-0.1-1.8-0.2-2.7c-0.6-7.6-0.9-15.4-2.5-23.3c-0.9-4.7-1.9-9.4-3-14.2c-0.1,0-0.1-0.1-0.1-0.2l0,0c-0.3-1.4-0.7-2.8-1-4.1
		c-0.2-0.9-0.4-1.7-0.6-2.5c-0.1-0.5-0.2-0.9-0.2-1.4c-0.1-1.5,0.1-2.8,0.4-4.1l0,0c0.1-0.7,0.3-1.3,0.5-2c0.4-1.5,0.8-2.9,1.2-4.3
		c0.2-0.6,0.3-1.3,0.2-2c0-1.2-0.5-2.7-1.6-4c-0.1-0.1-0.1-0.1-0.2-0.2c-0.2-0.3-0.4-0.5-0.5-0.7c-0.1-0.1-0.2-0.4-0.2-0.6
		c0-0.1,0-0.2,0-0.3s0-0.1,0-0.2c0.1-0.5,0.1-0.8,0.3-0.9c1.1-0.9,2.5-1.4,4-1.5h0.1c0.7-0.1,1.6-0.1,2.2,0.1h0.1
		c0.2,0,0.5,0.2,0.7,0.3c0.6,0.4,1.3,0.8,1.9,1.3c0.5,0.4,1,0.8,1.3,1.3c0.3,0.4,0.4,0.8,0.4,1.2L488.8,498z M478.5,504.8
		c0-0.1,0-0.2,0-0.3c0.1-1.1,0.3-2.1,0.4-3.2c0-0.3,0-0.7,0-1.1c0.1,0.4,0.2,0.8,0.2,1.2c0,0.3,0,0.6,0,0.9
		c-0.1,0.3-0.1,0.5-0.2,0.8C478.7,503.7,478.6,504.3,478.5,504.8z"/>
	<path class="st1" d="M154.3,626.2v1c0,0.1,0.1,0.2,0.1,0.3c0.2,0.5,0.4,1,0.7,1.4c0,0.1,0.1,0.1,0.1,0.2c0.1,0.1,0.1,0.2,0.2,0.3
		c0.1,0.1,0.1,0.3,0.2,0.4c0.1,0.1,0.1,0.3,0.2,0.4c0,0.1,0.1,0.3,0.2,0.4c0.1,0.2,0.2,0.3,0.4,0.4c0.4,0.4,1.1,0.5,1.7,0.6
		c0.4,0.1,0.7,0.1,1,0.1h0.9c0.1,0,0.1,0,0.1,0c0.1,0.1,0.1,0.2,0.1,0.3s-0.1,0.3-0.2,0.5c-0.1,0.2-0.3,0.4-0.5,0.7
		c-1.2,1.7-2.3,3.4-3.2,5.2c-0.1-0.2-0.2-0.2-0.4-0.2c-0.3,0.1-0.5,0.3-0.6,0.6c-0.3,1.1-0.5,2.2-0.6,3.3v1.5c0,0.1,0.1,0.3,0.3,0.3
		h0.4c-0.2,0.7-0.3,1.3-0.3,1.8v0.1c-0.1,2.1-0.3,4.1-0.4,6.2c0,0.3,0,0.5,0,0.8c0.3-0.1,0.7-0.3,1-0.4l0,0l7.4-3
		c0.4-0.2,0.8-0.3,1.1-0.5c0,0,0,0,0,0l4.6-1.9c0.3-0.1,0.6-0.2,0.9-0.4c0,0,0,0,0-0.1l7.2-3.4c0.4-0.2,0.8-0.4,1.2-0.7l6.2-4.2
		c0.1-0.1,0.3-0.2,0.4-0.3c0.2-0.2,0.4-0.4,0.7-0.5c-0.6-1.4-1.2-2.9-2.2-4.1c-0.5-0.5-1.1-1-1.7-1.3c-0.1-0.1-0.2-0.1-0.4-0.2
		c0-0.1,0-0.1,0-0.2c0-0.7,0.1-1.5-0.1-2.2s-0.7-1.3-1.5-1.4c-0.3,0-0.7,0.1-1,0.2c-0.4,0.2-0.7,0.3-1.1,0.5c-0.1-0.4-0.3-0.8-0.5-1
		c-0.3-0.2-0.6-0.4-0.9-0.6c-1.5-0.8-2.6-2.1-3.6-3.6c-0.5-0.8-1.3-1.1-2.1-1.3c-0.7-0.2-1.4-0.3-2-0.6c1.2-6.3,2.2-12.5,3-18.7
		c0.2-1.9,0.5-3.8,0.7-5.7s0.4-3.8,0.6-5.7c0.2-2.5,0.5-5,0.7-7.5c0.1-1.3,0.2-2.5,0.3-3.8c0.1-1.3,0.2-2.5,0.3-3.8
		c0.1-2.4,0.3-4.8,0.3-7.2c0-1.6,0.1-3.3,0.1-4.9c0-1.6,0-3.3,0.1-4.9c0.1-3.3,0.3-6.6,0.5-9.9c0.1-0.3,0.1-0.5,0.1-0.8l0.1-1.5
		c0.3-3.4,0.5-7,1.1-10.5c0.1-0.5,0.2-1,0.3-1.5c0.3-1.2,0.6-2.5,0.8-3.7c0.7-3.8,1.3-7.5,2.1-11.2c0.6-2.5,1.2-5.1,1.8-7.7
		c0.6-2.5,1.3-5.1,1.9-7.7c0.6-2.2,1.1-4.5,1.7-6.7c0.2-0.4,0.3-0.9,0.5-1.4c0.1-0.3,0.2-0.6,0.3-0.9c0.4-0.9,0.7-1.9,1-2.9
		c0.1-0.3,0.1-0.5,0.2-0.8c0-0.3,0.1-0.6,0.1-0.9v-0.3c0.8-0.5,1.4-1.2,1.9-2c0.1-0.1,0.1-0.3,0.2-0.4c0.4-0.8,0.6-1.5,0.8-2.3
		c0-0.3,0.1-0.6,0.1-0.9v-0.5c0,0,0-0.1,0-0.2c0.1-0.1,0.2-0.1,0.3-0.1c0.1-0.1,0.2-0.1,0.3-0.1c0.3-0.1,0.6-0.2,0.9-0.3
		c0.2-0.1,0.4-0.2,0.5-0.2l0.2-0.1c0.7-0.2,1.4-0.5,2.1-0.9c0.2-0.1,0.5-0.2,0.7-0.4c0.3-0.2,0.5-0.4,0.7-0.6c0.4-0.5,0.8-1,1.1-1.5
		c0.2-0.3,0.4-0.5,0.5-0.8c0.5-1.1,1-2.2,1.3-3l1.7-4.7v-0.9c0-0.8-0.2-1.5-0.5-2.1c0-0.1-0.1-0.2-0.1-0.3c-0.1-0.2-0.3-0.3-0.4-0.5
		c-0.4-0.4-0.8-0.6-1.2-0.9c0-0.1-0.1-0.1-0.2-0.2c-0.3-0.3-0.6-0.6-0.9-0.9c-0.7-0.7-1.2-1.6-1.6-2.5c-0.3-0.5-0.5-1-0.8-1.6
		c-0.1-0.2-0.3-0.5-0.4-0.8c-0.6-1.3-1.2-2.6-1.6-3.9c-0.4-1.3-0.8-2.7-1.1-4.1c-0.2-0.7-0.3-1.5-0.4-2.2c-0.3-2.2-0.5-4.5-0.5-6.9
		c-0.1-4.4,0.1-8.9,0.4-13.5c0.1-1.3,0.2-2.7,0.3-4c0.4-5.4,1.1-10.9,1.7-16.3c0.3-2.7,0.6-5.4,0.9-8.1c0.1-1.4,0.3-2.8,0.4-4.1
		c1.1-10.5,2.4-21.2,3.6-31.7c0.7-6.3,1.4-12.6,1.8-18.8v-0.3c0.1-1.9,0.2-3.7,0.4-5.6c0.3-3.3,0.6-6.5,1-9.8
		c1.1-9.8,2.6-19.8,4.5-29.8c0.9-4.9,1.9-9.9,3.8-14.9c0.2-0.7,0.4-1.3,0.7-1.9c0.2-0.7,0.5-1.3,0.8-1.9s0.6-1.2,0.9-1.8
		s0.7-1.2,1-1.8c0.2-0.4,0.4-0.7,0.6-1c0.4-0.6,0.8-1.2,1.3-1.8c0.2-0.3,0.4-0.6,0.7-0.9c0.7-0.7,1.7-1.5,2.5-2.5
		c0.2-0.3,0.4-0.6,0.6-0.9c0.5-0.9,0.9-2,1.1-3.1c0.1-0.3,0.1-0.7,0.2-1c0.8,0.4,1.6,0.9,2.3,1.4c0.2,0.1,0.4,0.3,0.6,0.4
		c0.1,0.1,0.1,0.1,0.2,0.2c0.4,0.3,0.7,0.6,0.9,1c0,0.1,0.1,0.2,0.1,0.3c0.1,0.4,0.2,0.9,0.2,1.5c0.1,1.5,0.2,3.2,0.9,4.5
		c0.7,1.2,2,1.4,3.1,1.8c1.4,0.5,2.7,1,3.9,1.6c0,0.7,0,1.3,0.1,1.8c-0.3,0.3-0.5,0.6-0.8,0.9c0.6-0.5,1.3-1,1.9-1.5
		c0-0.1-0.1-0.3-0.1-0.5v-1.5c0.1-0.8,0.3-1.7,0.6-2.7c0.8-2.4,2.2-4.9,4-7c0.1-0.5,0.3-1,0.5-1.5c-0.4-1.7,0.7-3.8,2.1-5.8
		c0.4-1,0.8-2.1,1.2-3.2c0,0.1-0.1,0.2-0.2,0.3c-0.3,0.4-0.5,0.7-0.8,1.1c-1.9,2.6-4.1,5.7-3.4,8.3c-1.9,2.3-3.5,5.1-4.4,7.8
		c-0.2,0.8-0.4,1.5-0.5,2.2c-1.1-0.5-2.2-0.9-3.4-1.3c-1.2-0.3-2.3-0.6-2.8-1.5c-0.6-1.1-0.7-2.6-0.8-4.2c-0.1-0.9-0.2-1.6-0.5-2.1
		s-0.7-0.9-1.3-1.4c-1.1-0.8-2.3-1.6-3.5-2.2c0.1-0.5,0.2-1,0.2-1.4c0.1-0.3,0.1-0.5,0.1-0.7V263c-0.1-0.6-0.1-1.2-0.2-1.7
		c0-0.1,0-0.1,0-0.2V261c-0.1-0.6-0.2-1.2-0.4-1.8c-0.1-0.3-0.2-0.6-0.3-0.9s-0.2-0.6-0.3-0.9c0.2-0.3,0.4-0.7,0.6-0.9
		c0.3-0.5,0.7-1,1-1.7c0.2-0.3,0.3-0.7,0.3-1c0-0.4-0.1-0.7-0.2-0.9c0-0.1,0-0.1,0-0.1c-0.2-0.3-0.5-0.4-0.8-0.5H219
		c-1.2,0-2.5,0.3-3.7,0.6c-0.9-0.7-1.8-1.3-2.8-1.8l-0.1-0.1c0.2-0.1,0.4-0.2,0.5-0.2c0.2-0.1,0.2-0.1,0.3-0.1h0.1
		c0.1,0.1,0.1,0.1,0.2,0.2l0.1,0.1c0,0.1,0.1,0.1,0.1,0.1s0.1,0.1,0.2,0.1h0.1c0.1,0,0.1,0,0.2,0h0.3c0.1,0,0.1,0,0.1,0
		c0.2,0,0.3-0.1,0.5-0.1c0.3-0.1,0.6-0.2,0.8-0.3c1.9-0.9,3.8-1.9,5.7-2.8c0.3-0.2,0.5-0.3,0.8-0.4c0.6-0.3,1.3-0.6,2-0.9
		c0.2-0.1,0.5-0.3,0.8-0.4c1-0.4,1.9-0.8,2.8-1.2c1-0.4,2.2-0.9,3.3-1.3c0.4-0.1,0.8-0.3,1.2-0.4c0.6-0.2,1.2-0.3,1.8-0.5
		c1.9-0.5,3.6-0.7,5-0.5c0,0,0.1,0,0.2,0c0.1-0.1,0.2-0.1,0.3-0.2c0.4-0.4,0.9-0.8,1.4-1.3c0.3-0.3,0.6-0.6,0.9-0.9
		c0.2-0.1,0.4-0.3,0.6-0.5c0.4-0.4,0.8-0.7,1.2-1.1c0.6-0.6,1.2-1.2,1.8-1.7c0.5-0.2,1.1-0.4,1.6-0.6c0.2-0.1,0.3-0.1,0.5-0.2
		c0.5-0.2,1-0.5,1.5-0.7c0-0.1,0.1-0.1,0.1-0.1c0.5-0.2,0.9-0.5,1.3-0.7c0.3-0.1,0.5-0.3,0.8-0.4c0.1-0.5,0.3-0.9,0.5-1.4
		c-0.5,0.3-1,0.5-1.5,0.8c0,0-0.1,0.1-0.2,0.1c-1.5,0.9-2.9,1.5-4.5,2h-0.1l-0.3,0.2c-0.5,0.4-1,0.8-1.5,1.3
		c-1.2,1.1-2.4,2.2-3.6,3.3c-0.3,0.2-0.6,0.5-0.9,0.8H239c-0.6-0.1-1.2-0.1-1.9,0c-0.2,0.1-0.4,0.1-0.6,0.1h-0.4
		c-0.1,0-0.2,0.1-0.3,0.1c-0.5,0.1-1,0.2-1.5,0.3c-0.6,0.1-1.2,0.3-1.8,0.5c-0.3,0.1-0.5,0.2-0.8,0.3c-1.3,0.4-2.6,0.9-3.8,1.4
		c-3.1,1.2-6.2,2.7-9.2,4.2l-3,1.5c-0.2,0.1-0.4,0.2-0.6,0.3h-0.5c-0.1,0-0.2-0.1-0.4-0.3c0,0,0-0.1-0.1-0.1c-0.1,0-0.1,0-0.1,0
		c-0.1-0.1-0.1-0.1-0.2-0.1h-0.3c-0.1,0-0.1,0-0.1,0c-0.2,0-0.3,0.1-0.5,0.1c-0.4,0.1-0.7,0.2-1,0.4c-0.3,0.1-0.6,0.3-0.7,0.3h-0.1
		c-0.1,0-0.1,0-0.2,0c-0.7,0.2-1.5,0.4-2.3,0.5c-1.2,0.2-2.4,0.3-3.7,0.7c-0.1,0-0.1,0.1-0.2,0.1c0.2-0.3,0.4-0.6,0.7-0.8l0.1-0.1
		c0.6-0.5,1.2-0.9,1.9-1.3c1.4-0.8,2.9-1.4,4.4-1.9c0.8-0.3,1.5-0.5,2.3-0.7c0.3-0.1,0.5-0.3,0.6-0.5c0.3-0.7,0.8-1.3,1.4-1.8
		c0.6-0.5,1.4-1,2.1-1.4c3.7-2.1,7.4-3.5,11.2-5.5c3.9-2,7.8-4.2,11.7-5.9c3.9-1.8,7.8-3.7,11.6-5.8c0.9-0.4,1.7-0.9,2.5-1.4
		c0.2-0.5,0.4-0.9,0.6-1.4c-1,0.7-2.1,1.3-3.2,1.9c-1.4,0.8-2.9,1.6-4.3,2.3c-1.4,0.7-2.9,1.4-4.3,2.1c-1,0.4-1.9,0.9-2.9,1.3
		c-4,1.8-7.9,3.9-11.8,6c-2.8,1.5-5.6,2.6-8.4,4c-1,0.5-1.9,1-2.9,1.5c-0.2,0.1-0.4,0.3-0.6,0.4c-0.6,0.3-1.2,0.7-1.8,1.2
		c-0.5,0.5-1,0.9-1.4,1.5c-0.2,0.2-0.3,0.4-0.4,0.6c-0.3,0.1-0.6,0.2-1,0.3c-0.4,0.1-0.7,0.2-1.1,0.3c-0.8,0.3-1.6,0.6-2.4,0.9
		c-0.8,0.3-1.5,0.7-2.3,1.1c-0.6,0.3-1.1,0.7-1.7,1.1c-0.2,0.2-0.4,0.3-0.6,0.5c-0.6,0.5-1.1,1.2-1.4,1.9c-0.2,0.2-0.5,0.3-0.7,0.5
		c-1.1,0.9-2.1,1.9-3,3.1c-0.5,0.6-0.9,1.2-1.2,1.8c-0.4,0.6-0.7,1.3-0.9,1.9c-0.8,0.6-1.4,1.2-1.9,1.8c-0.5,0.7-0.8,1.4-1.3,2.4
		c-0.9,1.7-1.7,3.5-2.4,5.3c-0.3,0.9-0.6,1.8-1,2.7c-0.4,0.9-0.6,1.8-0.9,2.7c-1,3.5-1.7,7-2.1,10.4c-0.2,1.7-0.4,3.4-0.5,5.1
		c-0.1,2-0.2,4-0.3,6c-0.2,6.3-0.2,12.5-0.4,18.7c-0.1,2.1-0.2,4.2-0.3,6.3c-0.1,0.8-0.1,1.6-0.2,2.4c-0.1,2-0.3,3.9-0.5,5.9
		c-0.6,5.9-1.4,11.9-2,17.8c-0.4,3.8-0.8,7.5-1.2,11.3c-0.4,3.8-0.7,7.6-1,11.3c-0.2,3.1-0.4,6.1-0.5,9.2c0,1.6-0.1,3.1-0.1,4.6v4.5
		c0,2-0.1,4-0.2,6c0,0.9-0.1,1.8-0.2,2.7c-0.1,0.9-0.2,1.8-0.3,2.7c-0.3,2.7-0.6,5.4-1,8.1l-0.6,5.4c-0.1,0.9-0.2,1.8-0.3,2.7
		c-0.1,1-0.2,2.1-0.3,3.1c-0.1,1-0.2,2.1-0.4,3.1c-0.3,2.1-0.7,4.2-1.1,6.3c-0.2,1.1-0.5,2.1-0.7,3.2c-0.7,3.2-1.6,6.3-2.7,9.5
		c-0.7,2.3-1.5,4.5-2.3,6.8s-1.6,4.5-2.4,6.8s-1.6,4.5-2.5,6.8c-0.9,2.3-1.7,4.5-2.6,6.8c-1.6,4.2-2.8,8.4-3.6,12.6
		c-0.1,0.6-0.2,1.2-0.3,1.8c-0.1,0.7-0.1,1.5-0.2,2.2c-0.2,1.7-0.1,3.4,0.3,4.9c0.2,0.4,0.3,0.9,0.5,1.4c0.1,0.3,0.3,0.7,0.5,1
		c0.1,0.1,0.1,0.2,0.2,0.3c0.2,0.2,0.3,0.4,0.5,0.6c0.1,0.2,0.4,0.4,0.6,0.5c-0.2,0.1-0.3,0.2-0.4,0.3c-0.2,0.2-0.5,0.3-0.7,0.5
		c-0.4,0.4-1,0.8-1.4,1.3c-0.1,0.2-0.3,0.4-0.4,0.6c0,0-0.1,0.1-0.1,0.2c-0.3,0.6-0.5,1.1-0.5,1.6v0.4c0,0.9,0.1,1.8,0.5,2.5
		c0.1,0.2,0.3,0.4,0.5,0.6c0.2,0.1,0.3,0.2,0.4,0.3c0.1,0.1,0.2,0.1,0.3,0.2c0.1,0,0.2,0.1,0.3,0.2c0.1,0.1,0.2,0.2,0.2,0.3
		c0.2,0.2,0.3,0.6,0.4,0.9s0.2,0.6,0.3,1c0.1,0.6,0.2,1.2,0.3,1.8c0.1,1.2,0.1,2.5,0.1,3.8c0,0.7-0.1,1.3-0.1,2
		c0,0.4-0.1,0.8-0.1,1.2s-0.1,0.8-0.1,1.2c0,0.6-0.1,1.1-0.1,1.7c-0.1,1.1-0.2,2.2-0.3,3.3c-0.2,1.9-0.3,3.8-0.4,5.7
		c-0.1,1-0.1,1.9-0.2,2.9l-0.1,1.4c-0.3,3.2-0.7,6.5-1.1,9.7c-0.1,0.5-0.1,0.9-0.2,1.4c-0.2,1.8-0.4,3.7-0.6,5.5
		c-0.2,1.9-0.4,3.7-0.6,5.5c-0.1,0.5-0.1,1-0.2,1.5c-0.2,1.5-0.4,3-0.6,4.5c-0.2,1-0.3,2-0.4,3s-0.2,2-0.3,3
		c-0.1,0.4-0.1,0.9-0.1,1.3c-0.1,0.4-0.1,0.9-0.1,1.3c-0.1,2.5-0.1,4.9-0.2,7.4c0,2.5-0.1,4.9-0.2,7.4c0,1.2-0.1,2.5-0.1,3.7
		c-0.1,2.4-0.1,4.9-0.1,7.3v3.6c0,3.6,0,7.2,0.2,10.7c0.1,1.2,0.2,2.4,0.3,3.5c0.2,1.2,0.2,2.5,0.1,3.7c0,0.6-0.1,1.3-0.1,1.9
		c0,0.6-0.1,1.3-0.1,1.9v0.4c0,0.9-0.1,1.7-0.2,2.5c-0.1,0.8-0.3,1.7-0.4,2.5c0,0.3-0.1,0.7-0.2,1c-0.2,0.7-0.4,1.5-0.5,2.2
		C154.4,625.5,154.3,625.8,154.3,626.2z M217.7,254.1c-0.3,0.2-0.7,0.5-1,0.7c-0.1,0.1-0.1,0.1-0.2,0.2c-0.2-0.2-0.4-0.4-0.6-0.6
		C216.5,254.3,217.1,254.2,217.7,254.1z M218.8,256c-0.1,0.2-0.3,0.4-0.5,0.8c-0.1,0.1-0.2,0.2-0.3,0.4c-0.1,0.2-0.3,0.5-0.5,0.8
		c0,0.1-0.1,0.2-0.1,0.3v0.3c0,0.1-0.1,0.1-0.1,0.1c-0.3,0.1-0.8,0.3-1.3,0.6c-0.5,0.3-1.1,0.6-1.5,0.7c-0.3,0.1-0.5,0.1-0.5,0.1
		c-0.3-0.1-0.5-0.3-0.7-0.5c-0.1-0.2-0.2-0.4-0.2-0.6l0.1-0.3c0.1-0.3,0.4-0.6,0.9-0.9c0.7-0.5,1.3-0.9,2-1.4c0.3-0.2,0.7-0.5,1-0.7
		c0.7-0.5,1.4-1,2.1-1.5l0.1,0.1c0.1,0.1,0.1,0.2,0.1,0.4c-0.1,0.2-0.1,0.4-0.2,0.6C219.1,255.5,218.9,255.8,218.8,256z
		 M186.3,487.8c-0.1-0.4-0.3-0.7-0.5-1c-0.3-0.5-0.6-0.9-0.9-1.4s-0.6-0.9-1-1.3c-0.4-0.4-1-0.5-1.5-0.3c-0.1,0.1-0.3,0.1-0.4,0.2
		c-0.2,0.1-0.4,0.2-0.6,0.4s-0.4,0.3-0.6,0.5l-0.7,0.7c-0.2,0.3-0.4,0.5-0.6,0.7c-0.4,0.5-0.7,0.9-1.1,1.4c-0.4,0.5-0.9,1.1-1.3,1.6
		c-0.4,0-0.7,0-1,0.1c-0.8,0.2-1.5,0.7-2.1,1.1c-0.7,0.4-1.3,0.8-1.8,1c-0.2,0-0.4,0.1-0.5,0.1c-0.5,0.1-1,0-1.5-0.1
		c-0.5-0.1-1.1-0.2-1.8,0l-0.4,0.1c-0.5,0.2-1,0.4-1.4,0.6h-1.2c-0.4,0-0.8,0-1.3,0.2H164c-0.2,0-0.4,0.1-0.6,0.2
		c-0.6-0.1-1.2-0.5-1.6-1.1c-0.5-0.8-0.9-1.7-1.1-2.6c-0.3-1.4-0.4-2.9-0.3-4.6c0.1-0.7,0.2-1.4,0.3-2.1c0.7-4.6,2-9.4,3.8-14.1
		c3.5-9.1,6.8-18.2,9.9-27.3c2.9-8.6,4.6-17.2,5.3-25.4c0.7-7.2,2-14.5,2.5-21.6c0.1-2,0.2-4.1,0.2-6.1c-0.1-6,0.2-12.1,0.6-18.2
		c0.5-7.4,1.3-15,2.1-22.5c0.8-7.9,1.9-15.9,2.5-23.7c0-0.8,0.1-1.6,0.1-2.4c0.5-8.4,0.4-16.6,0.7-24.9c0.1-1.9,0.2-3.9,0.3-5.9
		c0.5-6.6,1.5-13.4,4.4-20.3c0.7-1.8,1.5-3.6,2.3-5.3c0.4-1,0.7-1.6,1.1-2.1s0.8-1,1.7-1.6c0.1-0.1,0.2-0.2,0.3-0.4
		c0.8-2.4,2.7-4.8,4.8-6.4c0.2,0.1,0.3,0.1,0.4,0c0.4-0.2,0.7-0.3,1-0.4c0.3-0.1,0.6-0.1,0.9-0.2c0.9-0.2,1.8-0.3,2.7-0.4
		c0.4,0,0.9-0.1,1.3-0.2c0.4-0.1,0.7-0.2,1.1-0.3c0.1,0.1,0.2,0.1,0.4,0.2c0.1,0,0.3,0,0.4,0.1c0.1,0,0.2,0.1,0.3,0.1h0.1
		c0.2,0.1,0.5,0.3,0.7,0.4l0.1,0.1c0,0.1,0.1,0.1,0.1,0.1c0.3,0.1,0.5,0.3,0.8,0.5c0.1,0,0.1,0,0.1,0c0.1,0.1,0.3,0.2,0.4,0.3
		c0.2,0.1,0.3,0.2,0.5,0.3s0.3,0.3,0.5,0.4l0.6,0.6c-0.6,0.4-1.1,0.8-1.7,1.2c-0.1,0.1-0.3,0.2-0.4,0.3c-0.3,0.2-0.5,0.5-0.8,0.8
		c-0.1,0.1-0.2,0.3-0.3,0.5c-0.1,0.1-0.2,0.3-0.2,0.4c-0.1,0.1-0.1,0.3-0.1,0.4c0,0.1,0,0.1,0,0.2c0,0.3,0.1,0.6,0.2,0.8
		c0.1,0.1,0.1,0.1,0.2,0.2c0.1,0.2,0.2,0.3,0.4,0.4c0.1,0.1,0.3,0.2,0.4,0.3c0.2,0.1,0.5,0.1,0.8,0c0.1,0,0.2-0.1,0.3-0.1
		c0.2-0.1,0.5-0.2,0.8-0.3c0.3-0.1,0.6-0.3,0.9-0.4c0.3-0.2,0.6-0.3,0.8-0.4c0.2-0.1,0.4-0.2,0.5-0.2c0.1-0.1,0.3-0.1,0.4-0.2
		c0.1,0.2,0.2,0.5,0.3,0.7c0,0.1,0.1,0.2,0.1,0.3c0.1,0.5,0.2,0.9,0.3,1.4v0.6c0,0.5,0.1,0.9,0.1,1.4v0.5c0.1,0.7,0,1.3,0,2v0.6
		c-0.1,0.4-0.1,1-0.2,1.6c0,0.6-0.1,1.3-0.3,2c-0.3,1.3-0.8,2.6-1.4,3.3c-0.6,0.8-1.6,1.5-2.5,2.5c-1.1,1.2-2.1,2.6-2.9,4
		c-1.5,2.5-2.6,5-3.6,7.6c-1.9,5.2-3,10.2-3.9,15.2c-2.9,15.3-4.8,30.4-5.9,45.3v0.3c-1.2,16.5-3.7,33.7-5.4,50.5
		c-1.1,10.7-2.6,21.8-3.4,32.5c-0.4,4.6-0.6,9.2-0.5,13.6c0.1,6.5,1.2,12.4,3.7,17.5c1.1,2.2,1.9,4.5,3.8,6.1
		c0.7,0.5,1.4,0.8,1.7,1.4c0.4,0.7,0.6,1.5,0.6,2.4l-0.8,4.1c-0.3,0.7-0.8,1.8-1.3,2.8s-1.2,1.8-1.7,2.2c-0.7,0.6-1.6,0.9-2.4,1.2
		l-0.2,0.1c-0.2,0-1.2,0.4-1.9,0.5c-0.2,0.1-0.4,0.1-0.4,0.1c-0.1,0-0.1,0-0.2,0c-0.1,0-0.1,0.1-0.2,0.1c-0.1,0.1-0.1,0.1-0.2,0.2
		c0,0.1-0.1,0.1-0.1,0.2c-0.1,0.1-0.1,0.1-0.1,0.2c0,0.1,0,0.1,0,0.2c0.1,0.3,0.1,0.8,0.1,1.2c0,0.9-0.4,2-0.9,2.9
		c-0.3,0.5-0.7,1-1.1,1.3c-0.1-0.5-0.2-1-0.4-1.5C186.6,488.3,186.5,488.1,186.3,487.8z M169.1,492.6h0.4c0.1,0.1,0.3,0.1,0.4,0.1
		c0.4,0,0.8,0.1,1.3,0c0.3-0.1,0.5-0.1,0.7-0.2c0.4-0.1,0.7-0.3,1.1-0.5c0.3-0.2,0.7-0.4,1-0.6s0.6-0.4,0.9-0.6
		c0.2-0.1,0.3-0.1,0.5-0.2c-0.5,0.5-1.1,1-1.7,1.5c-0.9,0.7-1.7,1.5-2.4,2.4c0-0.2-0.2-0.5-0.4-0.7c-0.7-0.5-1.5-0.9-2.4-1.2
		C168.7,492.6,168.9,492.6,169.1,492.6z M167.2,622.4c-0.2,0.1-0.4,0.2-0.7,0.3c0.1-0.1,0.1-0.3,0.1-0.4v-1.2
		c-0.1-0.3-0.1-0.6-0.1-0.9c0-0.3-0.1-0.6-0.1-0.9c0-0.5-0.1-1-0.3-1.5c-0.1-0.2-0.2-0.5-0.3-0.7c-0.2-0.3-0.3-0.7-0.4-1
		c-0.1-0.4-0.1-0.7-0.2-1.1c-0.1-0.7-0.2-1.6-0.3-2.4c-0.2-1.9-0.4-3.9-0.6-5.8c0,0,0-0.1,0-0.2c0.5-2.9,0.8-5.8,1-8.7
		c0.1-2.4,0.2-4.7,0.3-6.9c0.2-4.4,0.5-8.7,0.7-13.2c0.2-7.3-0.3-14.2-0.2-21.3c0-2.4,0.1-4.8,0.3-7.2c0.4-4.7,0.9-9.5,1.6-14.4
		c0.3-1.8,0.5-3.5,0.8-5.3c0.2-1.9,0.5-3.8,0.6-5.7c0.1-0.6,0.1-1.2,0.1-1.8c0.2-0.7,0.4-1.5,0.6-2.2c0.4-1.4,0.8-2.9,1.1-4.3
		c0.1-0.4,0.2-0.9,0.2-1.3v-0.9c0-1.4-0.2-2.6-0.5-3.8c-0.2-0.7-0.3-1.3-0.5-1.9c0.1-0.7,0.3-1.3,0.3-2c0-0.6,0.1-1.1,0-1.6
		c-0.2-1.6-0.5-2.8-0.4-4.3c0-0.2,0.1-0.4,0.1-0.6c0.1-0.4,0.2-0.9,0.3-1.3c0-0.1,0.1-0.2,0.2-0.3c0-0.1,0.1-0.3,0.2-0.4
		c0.2-0.3,0.2-0.6,0.3-0.9V496c0.1-0.2,0.2-0.3,0.3-0.5c0.6-0.9,1.4-1.6,2.3-2.4c0.9-0.8,1.9-1.6,2.8-2.5c0.3-0.4,0.6-0.7,0.9-1.1
		c0.7-0.9,1.3-1.8,2-2.6l1.2-1.2c0.4-0.4,0.8-0.7,1.1-0.8c0.3-0.1,0.5-0.1,0.7,0.1c1,1,1.7,2.3,2.4,3.6c0.4,0.6,0.6,1.3,0.7,2v1.1
		c0,0.3-0.1,0.5-0.1,0.8c-0.3,1.9-1.3,3.9-1.9,6c-0.6,2.2-1.2,4.5-1.7,6.7c-1.2,5.2-2.5,10.3-3.6,15.5c-1.1,5-1.8,10-2.9,14.9
		c-0.9,4.1-1.1,8.3-1.4,12.2c-0.1,0.7-0.1,1.5-0.2,2.3c-0.5,6.7-0.6,13.3-0.7,19.8c0,2.4-0.1,4.8-0.3,7.2c-0.4,4.9-1,10-1.4,15
		C170.7,601.9,169.3,612,167.2,622.4z M163.5,590.3v-1.1c0-1.1-0.1-2.2-0.2-3.3c-0.1-1.4-0.3-2.8-0.3-4.3c0-4.8,0.1-9.6,0.4-14.5
		c0.1-1.6,0.2-3.3,0.3-4.9c0-0.3,0.1-0.6,0.1-0.9l0.1-1.8c0.3-3.6,0.5-7.2,0.8-10.8c0-1.2,0.2-2.4,0.3-3.6c0.3-1.9,0.5-3.9,0.8-5.8
		c0.1-1,0.3-1.9,0.5-2.9c0.4-2.1,0.9-4.2,1.3-6.3c-0.1,1.1-0.3,2.1-0.4,3.1c-0.1,0.6-0.2,1.2-0.3,1.8c0,0.6-0.1,1.2-0.2,1.8
		c-0.6,4.3-1.1,8.5-1.6,12.5c-0.2,2.4-0.3,4.9-0.3,7.3c0,3.6,0.1,7.1,0.2,10.6c0.1,0.8,0.1,1.7,0.1,2.6c0.1,2.7,0.1,5.3,0,8
		c0,0.6-0.1,1.1-0.1,1.7c-0.2,3.9-0.5,7.7-0.6,11.6c0,1.1-0.1,2.3-0.1,3.4c-0.1,1.1-0.1,2.3-0.2,3.4c-0.1,1.3-0.3,2.7-0.4,4
		c0-0.4-0.1-0.8-0.1-1.2c-0.1-0.8-0.2-1.6-0.2-2.5v-3.9C163.4,593,163.5,591.6,163.5,590.3z M176.4,629.5c-0.6,0.1-1.2,0-1.9,0.2
		h-0.2c-0.6,0.2-1.2,0.6-1.7,1.3c0,0.1,0,0.1,0,0.1c0,0.1,0,0.1,0,0.1c-0.2,0.3-0.3,0.6-0.4,0.9c0,0.3-0.1,0.6-0.1,0.8
		c0-0.1-0.1-0.1-0.1-0.1c-0.1,0-0.3,0-0.5,0.1c-0.2,0-0.4,0.1-0.5,0.2c-1.4,0.8-2.8,1.6-4.1,2.5c-0.2-0.9-0.3-1.7-0.4-2.6
		c-0.1-0.6-0.2-1.4-0.6-1.9c-0.5-0.6-1.2-0.8-1.8-1c-0.3-0.1-0.6-0.3-0.8-0.6c0.6-0.8,1.1-1.7,1.6-2.6c0.1-0.2,0.1-0.3,0.2-0.4
		l0.1-0.1c0.4-0.9,0.8-1.7,1.1-2.6c0.4-0.2,0.9-0.5,1.4-0.7c0.1,0,0.1-0.1,0.2-0.1c0.6,0.3,1.3,0.4,1.9,0.6c0.8,0.2,1.4,0.5,1.8,1
		c1,1.5,2.2,2.8,3.8,3.8c0.3,0.1,0.6,0.3,0.8,0.5C176.3,629,176.4,629.2,176.4,629.5z M170.9,635.2L170.9,635.2
		c-0.1,0.2-0.1,0.3-0.1,0.3c-0.1,0.2-0.1,0.3-0.2,0.5c0,0,0,0.1-0.1,0.2c-0.1,0.2-0.2,0.4-0.4,0.6c-0.2,0.3-0.4,0.5-0.6,0.7
		c-0.3,0.3-0.7,0.6-1,0.8c-0.1,0.1-0.2,0.2-0.3,0.2c-0.4,0.2-0.7,0.4-1.1,0.6c-1.1,0.6-2.1,1.3-3.2,1.8c-0.2,0.1-0.5,0.2-0.7,0.3
		s-0.4,0.1-0.5,0.1c-0.1,0-0.1,0-0.2-0.1c-0.1-0.1-0.1-0.1-0.2-0.3c-0.1-0.1-0.1-0.1-0.1-0.2s-0.1-0.2-0.1-0.3v-0.2l0.1-0.3
		c0.4-0.4,1-0.9,1.6-1.3c0.4-0.3,0.8-0.6,1.2-0.9c0.1,0,0.1-0.1,0.2-0.1c0.2-0.2,0.3-0.3,0.5-0.4c0.2-0.2,0.4-0.3,0.5-0.5
		c0.2-0.1,0.3-0.2,0.5-0.3c1.4-0.9,2.8-1.8,4.2-2.5l0.3-0.1c0,0,0,0,0,0.1c0,0.2-0.1,0.4-0.1,0.6c0,0.1,0,0.1,0,0.1
		c0,0.1-0.1,0.3-0.1,0.4C170.9,635.1,170.9,635.1,170.9,635.2z M180.2,631.8c-0.1-0.1-0.1-0.1-0.2-0.1c-0.2-0.1-0.4-0.1-0.7,0
		l-0.2,0.1c-1.5,0.9-2.9,2.2-4,3.8c-0.6,0.9-1.1,1.9-1.4,2.9c-0.1,0.1-0.3,0.2-0.4,0.3c-0.4,0.3-0.8,0.5-1.1,0.6s-0.6,0.1-0.8,0.1
		h-0.1c-0.2,0-0.3-0.2-0.5-0.4c-0.1-0.3-0.2-0.6-0.4-0.9c-0.1-0.2-0.2-0.3-0.2-0.4c0.1-0.1,0.1-0.1,0.1-0.1c0.1-0.2,0.3-0.3,0.4-0.5
		c0.2-0.3,0.4-0.6,0.6-0.9c0-0.1,0-0.2,0.1-0.3c0-0.2,0.1-0.4,0.2-0.6c0-0.1,0.1-0.2,0.1-0.3s0.1-0.3,0.1-0.5
		c0.1-0.1,0.1-0.1,0.2-0.2c0.2-0.2,0.4-0.6,0.6-0.9c0-0.1,0.1-0.2,0.1-0.3c0.1-0.1,0.1-0.2,0.1-0.3c0.1-0.4,0.1-0.7,0.2-0.9l0.2-0.4
		l0.1-0.1c0.1-0.3,0.5-0.6,0.9-0.7h0.1c0.5-0.2,1.1-0.1,1.7-0.2c0.1-0.1,0.2-0.1,0.3-0.1l0.3-0.1h0.1c0.2-0.1,0.4-0.2,0.6-0.3
		c0.5-0.2,0.9-0.4,1.2-0.5s0.5-0.1,0.7-0.1c0.4,0,0.8,0.4,0.9,0.9C180.2,630.8,180.2,631.3,180.2,631.8z M175.8,640.5l-0.2-0.1
		c-0.1,0-0.2-0.1-0.3-0.1c-0.3-0.1-0.6-0.2-0.8-0.3c-0.1,0-0.1,0-0.2,0c0-0.3,0.1-0.7,0.2-1c0.1-0.3,0.2-0.7,0.3-1
		c0.2-0.6,0.5-1.2,0.9-1.8c0-0.1,0.1-0.1,0.1-0.2c0.9-1.3,2.1-2.4,3.4-3.2h0.2c0.1,0,0.1,0,0.2,0c0.1,0,0.3,0.1,0.4,0.1
		c0,0.1,0.1,0.1,0.1,0.1c0.1,0.1,0.3,0.1,0.4,0.2c0.1,0.1,0.2,0.2,0.3,0.2c0.6,0.3,1.1,0.7,1.5,1.2c0.7,0.8,1.2,1.9,1.7,3l-6.5,4.3
		c-0.1-0.1-0.1-0.2-0.2-0.2C176.8,641.2,176.3,640.8,175.8,640.5z M169.9,645.9c0.1-0.5,0.3-1,0.4-1.5c0.3-1.3,0.6-2.7,1-4
		c0.2,0,0.5,0,0.7-0.1c0.4-0.1,0.8-0.3,1.2-0.6c0,0.2-0.1,0.4-0.1,0.6s0.1,0.3,0.1,0.3l0.1,0.1l0.1,0.1c0,0.1,0.2,0.1,0.3,0.2
		c0.2,0.1,0.6,0.2,0.8,0.3c0.1,0,0.3,0.1,0.3,0.1c0.5,0.3,1,0.7,1.4,1.1c0.1,0.1,0.2,0.2,0.2,0.3L169.9,645.9z M164,648.1
		C164,648.1,164,648,164,648.1c0-0.2,0-0.2,0-0.2c0-0.2-0.1-0.3-0.2-0.5c-0.3-0.4-0.6-0.6-0.7-0.9c-0.3-0.7-0.5-1.6-0.4-2.6
		c0-0.3,0-0.6,0.1-0.9c0.1-0.2,0.1-0.4,0.2-0.6h0.1c0-0.1,0.1-0.1,0.2-0.1c0.3-0.1,0.6-0.3,0.9-0.4c1.1-0.6,2.2-1.3,3.3-1.9l0.1-0.1
		c0.2-0.1,0.4-0.2,0.6-0.3c0.1-0.1,0.2-0.1,0.3-0.2c0.1-0.2,0.3-0.3,0.5-0.4c0.1,0,0.2-0.1,0.3-0.2l0.1-0.1c0.1,0.1,0.2,0.2,0.2,0.3
		c0.1,0.2,0.2,0.5,0.3,0.8c0.1,0.2,0.3,0.5,0.6,0.7c-0.6,1.6-0.8,3-1.1,4.4c-0.1,0.5-0.2,0.9-0.4,1.4L164,648.1z M163,649l-6.7,2.3
		c0.1-1.7,0.2-3.4,0.3-5.1v-0.1c0-0.5,0.1-1.1,0.3-1.6c0.8-0.3,1.6-0.8,2.3-1.3s1.5-1.1,2.2-1.7v0.1c0.1,0.2,0.3,0.4,0.4,0.5
		c0,0.1,0.1,0.1,0.1,0.1h0.1c-0.1,0.3-0.1,0.5-0.2,0.8c-0.1,0.4-0.2,0.8-0.2,1.2c-0.1,1.1,0.1,2.2,0.5,3c0.2,0.5,0.5,0.7,0.7,1
		c0,0.1,0.1,0.2,0.1,0.3C162.9,648.6,163,648.8,163,649z M160.6,634.5c0.2-0.2,0.4-0.6,0.6-0.9c0.2-0.3,0.4-0.7,0.4-1.1v-0.1
		c0-0.2-0.1-0.4-0.1-0.5c0.3-0.4,0.6-0.9,0.9-1.3c0.3,0.3,0.6,0.5,0.9,0.6c0.7,0.3,1.3,0.4,1.6,0.8c0.1,0.2,0.2,0.4,0.3,0.7
		c0.1,0.3,0.2,0.6,0.2,0.9c0.1,0.9,0.3,1.8,0.4,2.7c-0.7,0.5-1.5,1-2.2,1.5c-0.7,0.4-1.4,0.9-2,1.7c-0.3,0.4-0.5,0.8-0.5,1.1
		c-0.8,0.6-1.6,1.2-2.4,1.8c-0.7,0.4-1.4,0.9-2,1.1h-0.1c-0.2,0.1-0.3,0.1-0.5,0.1v-1.1c0-0.4,0.1-0.7,0.1-1.1
		c0.2-0.1,0.3-0.2,0.4-0.4C157.6,638.7,158.9,636.4,160.6,634.5z M155.8,626.4c0-1.2,0.6-2.8,0.8-4.2c0.3-1.7,0.5-3.4,0.6-5.1v-0.4
		c0.2-2.5,0.5-5.1,0.2-7.6c-0.5-4.5-0.4-9.3-0.5-14c0-4.8,0-9.7,0.2-14.6c0.2-5,0.3-9.9,0.4-14.8c0-0.8,0-1.7,0.1-2.6
		c0.3-3.9,1-8,1.4-11.9c0.4-3.7,0.7-7.3,1.1-11s0.9-7.4,1.2-11.1l0.1-1.4c0.2-2.9,0.4-5.7,0.6-8.6c0.1-1.7,0.2-3.3,0.4-5
		c0.1-0.9,0.1-1.7,0.2-2.5c0.2-2.7,0.2-5.4-0.4-7.9c-0.2-0.7-0.4-1.4-0.7-2.1c-0.4-0.7-1-0.9-1.4-1.2c-0.6-0.5-0.8-1.4-0.8-2.5
		l0.1-0.4c0.1-0.4,0.2-0.8,0.4-1.2c0.2-0.4,0.7-0.9,1.3-1.3c0.6-0.5,1.3-1,1.9-1.3c0.2-0.1,0.5-0.2,0.7-0.3h0.1
		c0.6-0.2,1.5-0.1,2.2-0.1h0.1c1.5,0.2,2.9,0.6,4,1.5c0.2,0.1,0.2,0.4,0.3,0.9c0,0.1,0,0.1,0,0.2v0.3c0,0.2-0.1,0.4-0.2,0.6
		c-0.1,0.2-0.3,0.4-0.5,0.7c-0.1,0-0.1,0.1-0.2,0.2c-1,1.3-1.5,2.7-1.6,4c0,0.7,0,1.4,0.2,2c0.4,1.5,0.8,2.9,1.2,4.3
		c0.2,0.7,0.3,1.3,0.5,2c0.3,1.3,0.5,2.7,0.4,4.1c0,0.4-0.1,0.9-0.2,1.4c-0.2,0.8-0.4,1.7-0.6,2.5c-0.3,1.4-0.7,2.7-1,4.1
		c-0.1,0-0.1,0.1-0.1,0.2c-1.1,4.7-2.1,9.5-3,14.2c-1.6,7.9-1.9,15.7-2.5,23.3c-0.1,0.9-0.1,1.8-0.2,2.7c-0.5,6.6-0.7,13.1-0.7,19.5
		c0,3.2,0.7,5.8,0.6,8.8c0,3.5-0.2,7.1,0.2,10.5c0.2,1.8,0.4,3.6,0.6,5.4c0.1,1.3,0.3,2.5,0.4,3.7c0.1,0.8,0.2,1.7,0.3,2.5
		c0.2,1.6,0.2,3.3,1,4.7c0.4,0.9,0.6,1.6,0.6,2.8c0.1,0.7,0.1,1.2,0.1,1.8c0,0.2,0,0.5-0.1,0.7c0,0.1,0,0.1,0,0.2s-0.1,0.2-0.1,0.3
		c-0.1,0.2-0.2,0.5-0.3,0.7c0,0.2-0.1,0.4-0.2,0.6l-0.1,0.1c-0.2,0.4-0.5,0.9-0.7,1.3c-0.6,1.1-1.2,2.2-1.9,3.2
		c-0.4,0.6-0.8,1.2-1.3,1.8c-0.5,0.1-1.2,0.1-1.9,0c-0.8-0.1-1.4-0.3-1.7-0.7c-0.3-0.3-0.4-1-0.8-1.6c-0.4-0.5-0.7-1-0.8-1.6V626.4z
		 M169.2,503.1c-0.1-0.3-0.2-0.5-0.2-0.8v-0.9c0-0.4,0.1-0.8,0.2-1.2v1.1c0.1,1.1,0.3,2.1,0.4,3.2v0.3
		C169.4,504.3,169.3,503.7,169.2,503.1z"/>
</g>
</svg>
