<svg id="Layer_1" data-name="Layer 1" xmlns="http://www.w3.org/2000/svg" viewBox="0 0 648 864"><defs><style>.cls-1,.cls-2,.cls-6,.cls-7,.cls-9{fill:none;}.cls-1,.cls-6,.cls-7,.cls-9{stroke:#231f20;stroke-miterlimit:10;}.cls-1{stroke-width:0.25px;}.cls-3{fill:#ccc;}.cls-4{fill:#fff;}.cls-5{font-size:24px;font-family:Futura-Medium, Futura;}.cls-5,.cls-8{fill:#231f20;}.cls-7,.cls-9{stroke-width:0.75px;}.cls-7{stroke-dasharray:6 6;}.cls-9{stroke-dasharray:6;}</style></defs><title>Outline 6</title><polygon class="cls-1" points="513.59 557.93 513.88 557.91 513.88 557.91 513.59 557.93 513.59 557.93"/><path class="cls-2" d="M216.37,460.09c-7.55-.78-15.1-1.43-22.68-1.92C201.25,459.15,208.81,460.31,216.37,460.09Z"/><polygon class="cls-1" points="163.31 557.93 163.02 557.91 163.02 557.91 163.31 557.93 163.31 557.93"/><path class="cls-2" d="M460.54,460.09c7.55-.78,15.1-1.43,22.68-1.92C475.66,459.15,468.1,460.31,460.54,460.09Z"/><path class="cls-3" d="M236,392.23a72.38,72.38,0,0,0,7,11.24c10.62,14.63,12.79,53.47-18.73,155.13l89.73.5v.11l9.83-.05,9.83.05v-.11l89.73-.5c-31.52-101.66-29.34-140.5-18.73-155.13a72.4,72.4,0,0,0,7-11.24c14.91-29.75,4-58,6.45-58.62l3.94-11c17.4,70.8,20.6,98.32,19.61,109.34a196.46,196.46,0,0,0-.61,20.86,154.23,154.23,0,0,0,2.31,22c3.85,21.65,9.51,23.9,15.46,48,2,8,3.05,14.66,5.06,27.22,1.08,6.76,1.67,11.24,3.56,26.11,5.13,40.57,5.4,44,3.48,50.1-3.3,10.4-6.52,7.86-13.65,23.33-7.75,16.81-12.35,38.05-7.25,40.76,2.62,1.39,7.18-2.44,8.95-3.92,4.23-3.56,5.29-7.33,11.82-22,1.08-2.43,2-4.37,2.48-5.49.23,2,.5,5.07.6,8.76.26,9.47.44,16-2.42,22.34-1.27,2.83-4.24,8.09-11.4,12.75a4.39,4.39,0,0,0-2.29,2.37c-.81,2.27,1.11,4.91,1.54,5.51,4.22,5.87,19.81,1.51,20.91,1.19,5.49-2.17,13.1-6.27,16.71-14.22,3.24-7.14-.6-9.41-1.11-30.38-.18-7.18.23-8.08,0-19.76-.15-9.11-.51-15.64-.61-17.7-1.43-29.44,6.38-45.84,3.59-78.55-.8-9.39-3-15.71-3.79-29.43-.7-11.47,0-15.61-1.35-29.21-1.18-12.13-2.62-18.23-4-22.77a97.31,97.31,0,0,0-6.2-15.76c-2.18-43.37-5.45-70.83-8.17-88.3-2.23-14.27-3.83-20.18-4.26-32.79-.62-18.31,2-27.4-2.51-39.66a121.46,121.46,0,0,0-9.51-19.08,68.57,68.57,0,0,0-13.93-16.28,164.39,164.39,0,0,0-26.53-18.68c-26.43-14-38.05-12.43-48.27-18.75a29.52,29.52,0,0,1-3.11-2.21c-10.14-8.24-19-26-13.29-67.74l-30.1,0-30.1,0c5.75,41.76-3.14,59.5-13.29,67.74-11.1,9-22.24,5.48-51.38,21a164.39,164.39,0,0,0-26.53,18.68,68.56,68.56,0,0,0-13.93,16.28,121.41,121.41,0,0,0-9.51,19.08c-4.53,12.26-1.89,21.36-2.51,39.66-.43,12.61-2,18.51-4.26,32.79-.39,2.49-.79,5.18-1.19,8.08l41.33,6.73c3-15.07,7.28-34,13.16-58l3.94,11C232,334.18,221.14,362.48,236,392.23Zm-33.89-17.72c-8,0-16,1-23-2C186.15,375.51,194.15,374.51,202.15,374.51Z"/><path class="cls-4" d="M449.35,486.16a28,28,0,0,0,1.34,3c.14.27.3.54.47.81a8.69,8.69,0,0,0,1.11,1.46,5.11,5.11,0,0,0,.69.58c.23.16.46.31.69.44a11.51,11.51,0,0,0,2.09.91l.22.07.52.16.88.25.25.06.25.06c0,.08,0,.16,0,.24s0,.31,0,.47a8.1,8.1,0,0,0,.12.88,8.85,8.85,0,0,0,.82,2.26c.08.15.15.3.24.44a6.44,6.44,0,0,0,1.89,2c0,.11,0,.21,0,.32a8.18,8.18,0,0,0,.11.88c.05.27.14.53.2.8a28.51,28.51,0,0,0,1,2.91c.11.31.23.62.33.93.18.49.33,1,.45,1.45q.87,3.35,1.67,6.68.94,3.87,1.87,7.75t1.78,7.72c.82,3.72,1.43,7.43,2.15,11.16.24,1.24.48,2.49.75,3.74.1.5.21,1,.29,1.5.63,3.51.8,7.08,1.09,10.53l.11,1.54c0,.26,0,.52.07.77.24,3.32.39,6.62.49,9.89.06,1.64.1,3.28.14,4.91s.06,3.27.09,4.9c0,2.38.17,4.79.35,7.22.09,1.25.19,2.5.29,3.76s.24,2.52.35,3.77c.25,2.52.5,5,.72,7.52.17,1.88.37,3.78.58,5.67s.45,3.8.7,5.71c.8,6.18,1.81,12.41,3,18.69a17.06,17.06,0,0,1-2,.61,3.47,3.47,0,0,0-2.11,1.27,11.49,11.49,0,0,1-3.62,3.65,5.4,5.4,0,0,0-.91.62,1.71,1.71,0,0,0-.5,1c-.36-.16-.74-.33-1.13-.47a2.72,2.72,0,0,0-1-.16,1.76,1.76,0,0,0-1.48,1.42,7.81,7.81,0,0,0-.08,2.24h0a.92.92,0,0,0,0,.17,2.85,2.85,0,0,0-.37.17,5.65,5.65,0,0,0-1.69,1.34,20.66,20.66,0,0,0-2.31,4.29c-1.09,2.22-2.12,4.47-3.06,6.79a14.46,14.46,0,0,1-1,2.65l-2.1,3a3.68,3.68,0,0,0-.64,1.18,2.14,2.14,0,0,0-.07.67,3.44,3.44,0,0,0,.51,1.46,7.46,7.46,0,0,0,.58.81,1.12,1.12,0,0,0-.23.24,2.38,2.38,0,0,0-.39,1.68c0,.26,0,.5.06.74l0,.3c.08,3-.59,5.84-2.48,7.32a11.89,11.89,0,0,0-1.24,1,2.26,2.26,0,0,0-.81,1.76l0,.07a1.74,1.74,0,0,0-.19,1l.05.38a9.11,9.11,0,0,0,.58,1.51,6,6,0,0,1,.46,1.26,4.57,4.57,0,0,1,.08.52,8,8,0,0,1-.5,2.62,2.16,2.16,0,0,0-.06.69,3.36,3.36,0,0,0,1,2,2.69,2.69,0,0,0,1,.64,1.29,1.29,0,0,0,1-.06,1.68,1.68,0,0,0,.66-.62A4.41,4.41,0,0,0,456,685a3.44,3.44,0,0,1,.32-1.41,4.23,4.23,0,0,1,1.5-1.5,1.91,1.91,0,0,0,.27.13,1.87,1.87,0,0,0,.94.1,1.21,1.21,0,0,0,.9-.88,4.48,4.48,0,0,0,.19-1.25,17.81,17.81,0,0,1,1.14-4.83,4.67,4.67,0,0,1,.58-1.38c.45-.56,1-1.08,1.39-1.73a3.25,3.25,0,0,1,.74-.69,1.92,1.92,0,0,0,.8-1,1.84,1.84,0,0,0,0-.62,2.27,2.27,0,0,0-.1-.54.35.35,0,0,0,.32-.08,14.34,14.34,0,0,0,1.85-2.19,6.73,6.73,0,0,0,.86-3c.1-1,.11-2.1.28-3.11a38.38,38.38,0,0,1,1.61-6.05,7.78,7.78,0,0,1,1.85-3.06,6.28,6.28,0,0,1,1.36-1.12h0a1.56,1.56,0,0,1,.32-.12c.23-.11.55-.22.8-.32l.34-.16.13-.08.09-.07a.41.41,0,0,0,.07-.3h0c0-.19-.07-.38-.1-.56a5,5,0,0,0,1.22.64,2.81,2.81,0,0,0,.69.13,32.48,32.48,0,0,1,1,4c.42,2.06,1.27,4,1.74,5.92a36.12,36.12,0,0,1,1,6.07,30,30,0,0,1,.06,3.39,7.7,7.7,0,0,1-.75,3.7,7.21,7.21,0,0,1-2.32,2.36c-.93.57-1.14,1.79-1.05,3a10.18,10.18,0,0,0,.35,1.9,2.39,2.39,0,0,0-.92.63,3.58,3.58,0,0,0-.79,2.59,4.16,4.16,0,0,0,.17.89,28.83,28.83,0,0,1,1.16,5.89,13.59,13.59,0,0,1-.63,5.5c-.44,1.26-.56,2.45-1.28,3.29a10.52,10.52,0,0,0-1,1,3.16,3.16,0,0,0-1.39.31c-1.77.75-2.67,2.49-4.05,3.33a2.76,2.76,0,0,1-2.36.38,1.14,1.14,0,0,0-.33-.18.71.71,0,0,0-.45,0l-.27.07a.91.91,0,0,0-.6.84,3.33,3.33,0,0,0-.73.1,5.16,5.16,0,0,1-1.71,0l-.24-.07-.37-.12a2.75,2.75,0,0,0-.71-.17.82.82,0,0,0-.71.28,1.35,1.35,0,0,0-.19.79v.06h0a3.52,3.52,0,0,0,.69,1.73,1.18,1.18,0,0,0,.34.31,2.65,2.65,0,0,0,.58.24l.22.07q.44.19.87.33l.44.15a3,3,0,0,0,.73.91,6.49,6.49,0,0,0,.89.58,7.11,7.11,0,0,0,1.16.51c1.18.38,2.27.44,3.27.68,2.09.52,4.2,1.1,6.32,1.69l.56.18a2.66,2.66,0,0,0,1.36.18,4.13,4.13,0,0,0,.75-.3,1.09,1.09,0,0,0,.5-.81h0v-.28s0-.06,0-.09a4.4,4.4,0,0,0,.75.35,2.87,2.87,0,0,0,.47.11,2.54,2.54,0,0,0,1.29-.2,28.38,28.38,0,0,0,7-4.22c2.61-1.93,5.22-3.94,6.8-7a5.68,5.68,0,0,0,.78-3,3.89,3.89,0,0,0-.12-.78,9.86,9.86,0,0,0-2.45-3.88.81.81,0,0,0-.39-.24l-.2-.05-.13-.06a2.66,2.66,0,0,1-.45-.28,1.67,1.67,0,0,0,.54-.49,4.2,4.2,0,0,1,.46-.67,4.59,4.59,0,0,0,.89-1.79c.57-1.82,1.78-3.14,1.82-5.63,0-.32,0-.62,0-.92-.08-1.1-.28-2.2-.4-3.26-.06-.42-.09-.84-.13-1.27L494,676.4c-.24-2.61-.32-5.23-.76-8-.07-.46-.12-.92-.15-1.37-.12-1.67,0-3.28-.12-5.11-.15-2.07-.28-4.14-.43-6.22v-.07a8.23,8.23,0,0,0-.28-1.75,2.38,2.38,0,0,0,.37,0,.32.32,0,0,0,.27-.35,13.55,13.55,0,0,0,0-1.52,17.23,17.23,0,0,0-.58-3.32.84.84,0,0,0-.58-.6.33.33,0,0,0-.37.16,36.61,36.61,0,0,0-3.25-5.19,6.18,6.18,0,0,1-.52-.74,1.23,1.23,0,0,1-.21-.52.59.59,0,0,1,.1-.32h.07c.3,0,.6,0,.93,0s.64,0,1-.06a3.87,3.87,0,0,0,1.72-.56,1.89,1.89,0,0,0,.4-.39,2.81,2.81,0,0,0,.24-.42c.07-.15.13-.3.18-.44l.17-.42a1.91,1.91,0,0,1,.19-.35l.13-.2a4.42,4.42,0,0,0,.68-1.43,2.14,2.14,0,0,0,.07-.29c0-.17,0-.34,0-.52s0-.36,0-.54a9.56,9.56,0,0,0-.16-1.11c-.13-.75-.33-1.5-.5-2.2-.08-.35-.15-.68-.21-1-.14-.83-.27-1.67-.36-2.49s-.19-1.65-.24-2.46l0-.4c0-.65-.08-1.3-.13-1.93s-.08-1.27-.1-1.89a25.53,25.53,0,0,1,.07-3.66c.11-1.14.19-2.3.25-3.47.18-3.51.16-7.11.2-10.65,0-1.21,0-2.42,0-3.63,0-2.43,0-4.87-.07-7.33q0-1.84-.13-3.7c-.11-2.47-.18-4.93-.25-7.39s-.11-4.91-.15-7.36c0-.44,0-.89-.06-1.34s0-.89-.06-1.34c-.07-1-.16-2-.27-3s-.25-2-.37-3c-.19-1.5-.38-3-.57-4.48-.06-.49-.13-1-.17-1.48-.2-1.83-.37-3.65-.55-5.47s-.36-3.65-.57-5.49l-.17-1.39c-.38-3.24-.81-6.48-1.05-9.65l-.1-1.38c-.07-1-.14-1.91-.19-2.85-.12-1.9-.25-3.8-.39-5.71-.08-1.1-.18-2.21-.27-3.32,0-.55-.08-1.1-.13-1.66s-.07-.82-.1-1.23-.08-.83-.11-1.23c0-.68-.08-1.34-.1-2a24.1,24.1,0,0,1,.12-3.82,18.13,18.13,0,0,1,.32-1.8c.09-.35.18-.71.29-1a6.49,6.49,0,0,1,.36-.95.88.88,0,0,1,.19-.29,2,2,0,0,1,.28-.23c.1-.08.22-.15.33-.23l.39-.27A2.39,2.39,0,0,0,489,510a5,5,0,0,0,.55-2.46v-.36a4.25,4.25,0,0,0-.45-1.6l-.12-.24a5,5,0,0,0-.42-.58,7.93,7.93,0,0,0-1.41-1.29l-.69-.5-.38-.26a2.92,2.92,0,0,0,.65-.47,3.79,3.79,0,0,0,.49-.57,1.86,1.86,0,0,0,.2-.33,6.58,6.58,0,0,0,.54-1,10.85,10.85,0,0,0,.48-1.44,15.57,15.57,0,0,0,.34-4.94c-.05-.73-.14-1.47-.25-2.21s-.22-1.19-.33-1.78a72.35,72.35,0,0,0-3.59-12.6q-1.31-3.4-2.58-6.81t-2.5-6.81q-1.25-3.41-2.44-6.81t-2.34-6.81c-1.09-3.17-2-6.35-2.73-9.51-.25-1.05-.48-2.11-.69-3.16q-.65-3.15-1.09-6.26c-.15-1-.28-2.07-.4-3.1s-.23-2.05-.32-3.07-.18-1.82-.27-2.73c-.2-1.82-.42-3.63-.65-5.44-.35-2.72-.73-5.42-1-8.11-.1-.89-.2-1.78-.28-2.67s-.16-1.77-.22-2.66c-.14-2-.22-4-.2-6,0-1.5,0-3,0-4.52s-.07-3-.12-4.56c-.12-3.05-.3-6.12-.52-9.21-.27-3.74-.59-7.49-1-11.26s-.77-7.54-1.16-11.31c-.62-5.91-1.4-11.88-2-17.77-.2-2-.37-3.92-.51-5.87-.06-.79-.11-1.58-.16-2.37-.12-2.09-.2-4.18-.25-6.25-.17-6.23-.16-12.39-.42-18.68-.08-2-.18-4-.32-6-.12-1.67-.27-3.36-.49-5.06a62,62,0,0,0-2.11-10.39c-.26-.88-.55-1.76-.86-2.65s-.66-1.78-1-2.68c-.74-1.78-1.53-3.56-2.36-5.32a14,14,0,0,0-1.34-2.42,8.82,8.82,0,0,0-1.87-1.79,14.59,14.59,0,0,0-.87-1.91,15.94,15.94,0,0,0-1.16-1.81,16.47,16.47,0,0,0-3-3.09c-.23-.18-.47-.34-.7-.5a6.27,6.27,0,0,0-1.4-1.89c-.18-.17-.36-.32-.55-.47a12.69,12.69,0,0,0-1.67-1.07c-.75-.42-1.53-.79-2.3-1.13s-1.57-.64-2.35-.89c-.36-.12-.72-.23-1.07-.32l-1-.27c-.12-.2-.23-.39-.36-.58a7.76,7.76,0,0,0-1.36-1.46,13.74,13.74,0,0,0-1.79-1.24l-.6-.36c-1-.54-1.91-1-2.86-1.49-2.84-1.39-5.64-2.53-8.42-4-3.9-2.05-7.81-4.22-11.79-6-1-.42-1.92-.86-2.87-1.31-1.44-.67-2.87-1.39-4.31-2.12s-2.86-1.48-4.29-2.27c-1.08-.6-2.15-1.23-3.21-1.86l.58,1.41c.82.49,1.65,1,2.48,1.44,3.83,2.12,7.71,4,11.58,5.75s7.79,3.87,11.69,5.93,7.54,3.38,11.24,5.47a14.07,14.07,0,0,1,2.14,1.42,5.08,5.08,0,0,1,1.43,1.77.87.87,0,0,0,.56.49c.76.17,1.55.39,2.35.65a26.07,26.07,0,0,1,4.42,1.92,9.35,9.35,0,0,1,1.89,1.3l.09.09a4.49,4.49,0,0,1,.66.78l-.19-.07a19.72,19.72,0,0,0-3.73-.69,14.51,14.51,0,0,1-2.35-.49l-.15,0h0l-.14,0a7,7,0,0,1-.7-.34,7.25,7.25,0,0,0-1-.45,2.25,2.25,0,0,0-.47-.1h-.07l-.26,0-.18.06-.07,0a1.08,1.08,0,0,0-.13.09c-.2.16-.32.31-.42.34a.72.72,0,0,1-.49,0,5.31,5.31,0,0,1-.61-.26l-3-1.49c-3-1.49-6.09-3-9.17-4.22-1.19-.48-2.48-1-3.8-1.44l-.78-.28c-.6-.2-1.22-.38-1.82-.54s-1-.23-1.46-.32l-.32-.07-.39,0-.61-.07a11.2,11.2,0,0,0-1.93,0h0c-.14,0-.28,0-.42,0l-.9-.83-3.55-3.29-1.45-1.34-.28-.17-.14,0a26.61,26.61,0,0,1-4.54-2l-.24-.13c-.51-.28-1-.55-1.52-.81l.55,1.36.82.44c.42.24.85.46,1.26.67l.13.06c.5.25,1,.48,1.51.69l.47.19c.54.21,1.08.42,1.64.6l1.82,1.68,1.18,1.09.58.54.95.87,1.43,1.32,0,0a.84.84,0,0,0,.26.16.45.45,0,0,0,.24,0,12.5,12.5,0,0,1,5,.48c.6.16,1.21.34,1.83.55.38.13.77.27,1.15.41,1.14.41,2.28.85,3.34,1.28s1.85.77,2.76,1.18l.83.38,2,.95.75.36c1.91.92,3.81,1.87,5.74,2.81a6.13,6.13,0,0,0,.77.33h0a2.12,2.12,0,0,0,.47.1H434l.16,0,.11,0h0l.22-.13.09-.07.1-.09a1.39,1.39,0,0,1,.2-.18h0s.05,0,.11,0a1.09,1.09,0,0,1,.26.06,4.08,4.08,0,0,1,.5.22l-.14.08a14,14,0,0,0-2.75,1.78h0a16.59,16.59,0,0,0-3.67-.63,3.6,3.6,0,0,0-.77,0,1.15,1.15,0,0,0-.79.47s0,0,0,.06a1.42,1.42,0,0,0-.16.86,3.24,3.24,0,0,0,.27,1,10,10,0,0,0,1,1.71l.62.91v0a7.76,7.76,0,0,0-.33.9c-.1.29-.23.56-.31.86h0a16.65,16.65,0,0,0-.39,1.78.25.25,0,0,1,0,.09l0,.16c-.09.54-.13,1.1-.16,1.66,0,.13,0,.26,0,.39a17.49,17.49,0,0,0,0,2.06c0,.22,0,.44.06.67,0,.39.08.87.16,1.39a23.35,23.35,0,0,0-3.47,2.18,4.29,4.29,0,0,0-1.28,1.41,5.52,5.52,0,0,0-.46,2.09,10.4,10.4,0,0,1-.78,4.15c-.48.87-1.62,1.16-2.76,1.52a32,32,0,0,0-3.39,1.34,14.68,14.68,0,0,0-.52-2.23,23.46,23.46,0,0,0-4.42-7.79c.7-2.57-1.54-5.75-3.36-8.31-.28-.37-.52-.74-.76-1.09l-.24-.34,1.2,3.23c1.38,2,2.54,4.12,2.1,5.79l.53,1.47a21.53,21.53,0,0,1,4,7,12.65,12.65,0,0,1,.57,2.71,7.08,7.08,0,0,1,0,1.51c0,.19-.06.37-.1.55.64.48,1.27,1,1.9,1.47-.27-.29-.53-.59-.83-.87a7.13,7.13,0,0,0,.12-1.75,29.77,29.77,0,0,1,3.9-1.57c1.08-.36,2.41-.64,3.09-1.8a11.12,11.12,0,0,0,.88-4.48,6,6,0,0,1,.24-1.46l.15-.34a3.14,3.14,0,0,1,.92-1l.19-.16c.18-.14.39-.26.57-.4a24.76,24.76,0,0,1,2.28-1.43c.06.34.13.69.21,1a11.19,11.19,0,0,0,1.11,3.11,7.18,7.18,0,0,0,.61.91c.84,1,1.85,1.75,2.53,2.55.26.29.47.6.72.9q.71.9,1.32,1.85c.2.32.43.62.62,1q.51.9,1,1.81c.32.61.62,1.22.9,1.84s.56,1.24.82,1.86.5,1.24.73,1.87A87.8,87.8,0,0,1,443,312.21q2.81,15.05,4.46,29.83.54,4.92,1,9.81.23,2.79.43,5.57l0,.31c.44,6.21,1.08,12.51,1.78,18.83,1.16,10.54,2.55,21.18,3.62,31.67.14,1.35.28,2.7.44,4.05.3,2.7.61,5.42.93,8.14.64,5.44,1.27,10.89,1.74,16.27q.18,2,.32,4c.33,4.58.5,9.09.44,13.49a49.93,49.93,0,0,1-.55,6.92q-.18,1.1-.39,2.18a38.3,38.3,0,0,1-1.12,4.15,32.5,32.5,0,0,1-1.58,3.87c-.14.28-.28.55-.4.83-.26.55-.5,1.1-.77,1.62a11.36,11.36,0,0,1-1.58,2.52,6.08,6.08,0,0,1-.89.9,2.16,2.16,0,0,1-.23.17,8.22,8.22,0,0,0-1.18.91,2.85,2.85,0,0,0-.41.54l-.15.31a5.63,5.63,0,0,0-.52,2.12c0,.13,0,.26,0,.4s0,.36,0,.55M431.93,263.63c-.19.19-.39.38-.58.58l-.23-.16-1-.69A14.72,14.72,0,0,1,431.93,263.63ZM429,265.2a6,6,0,0,1-.36-.66,2.07,2.07,0,0,1-.16-.59.61.61,0,0,1,.08-.39.37.37,0,0,1,.09-.08l2.09,1.46,1,.73,2,1.4a2.7,2.7,0,0,1,.92.86l.08.26a.84.84,0,0,1-.24.59,2.18,2.18,0,0,1-.68.5,1.48,1.48,0,0,1-.51-.11,14,14,0,0,1-1.53-.65c-.54-.26-1-.5-1.29-.63l-.11-.05a.06.06,0,0,0,0,0v0a.48.48,0,0,0,0-.26,1,1,0,0,0-.14-.32l-.55-.81-.3-.44ZM449.4,482a4.86,4.86,0,0,1,.6-2.42c.33-.61,1-.9,1.69-1.44,1.91-1.6,2.7-3.92,3.78-6.08a40.55,40.55,0,0,0,3.72-17.47c.06-4.44-.13-9-.46-13.59-.77-10.74-2.33-21.78-3.42-32.51-1.74-16.82-4.22-34-5.4-50.46l0-.31A407.06,407.06,0,0,0,444,312.42a88.52,88.52,0,0,0-3.91-15.17,53.15,53.15,0,0,0-3.57-7.64,25.37,25.37,0,0,0-2.87-4c-.88-1-1.88-1.74-2.5-2.51a8.26,8.26,0,0,1-1.36-3.3c-.15-.68-.26-1.36-.34-2s-.14-1.17-.18-1.64a3,3,0,0,1,0-.32l0-.31a18.83,18.83,0,0,1,0-2l0-.51h0c0-.48.08-.95.15-1.41,0-.08,0-.17,0-.25a1.79,1.79,0,0,0,0-.25c.09-.48.2-.94.33-1.39,0-.11.06-.23.1-.34s.17-.46.26-.69l.41.2.49.24.75.37.85.39c.29.13.57.24.84.33l.3.09a1.27,1.27,0,0,0,.84,0,3.43,3.43,0,0,0,.45-.27,2.34,2.34,0,0,0,.42-.37,1.52,1.52,0,0,0,.16-.23,1.49,1.49,0,0,0,.23-.76.91.91,0,0,0,0-.18,1.66,1.66,0,0,0-.07-.39,2.14,2.14,0,0,0-.15-.41,3.38,3.38,0,0,0-.34-.53,4.59,4.59,0,0,0-.8-.75l-.38-.27L432.42,265a8.4,8.4,0,0,1,.65-.64l.52-.43h0l.45-.35.42-.32.05,0c.26-.19.53-.36.81-.53l.11-.07.13-.08c.23-.14.48-.26.72-.39l.1,0,.27-.12.37-.15.44-.17c.36.11.73.21,1.07.28s.88.16,1.32.22c.95.13,1.82.21,2.67.4.29.07.58.14.87.24a8.69,8.69,0,0,1,1,.39.45.45,0,0,0,.35,0,14.22,14.22,0,0,1,4.8,6.44.9.9,0,0,0,.33.44,7.27,7.27,0,0,1,1.69,1.55,12.44,12.44,0,0,1,1.15,2.1q1.24,2.62,2.34,5.25a63.27,63.27,0,0,1,4.38,20.33c.14,2,.24,4,.32,5.93.35,8.34.21,16.52.69,24.95,0,.79.09,1.59.15,2.38.56,7.84,1.69,15.83,2.51,23.68.79,7.54,1.59,15.08,2.12,22.53.44,6.15.7,12.23.64,18.2,0,2,.06,4.05.21,6.09.51,7.14,1.81,14.42,2.45,21.63a109,109,0,0,0,5.31,25.42q4.63,13.65,9.88,27.3a68.55,68.55,0,0,1,3.84,14.08c.12.72.2,1.42.25,2.12a14.47,14.47,0,0,1-.33,4.63,7.6,7.6,0,0,1-1.1,2.56,2.67,2.67,0,0,1-1.62,1.11c-.19-.09-.38-.18-.55-.25l-.1,0a4.93,4.93,0,0,0-1.34-.23h-.61l-.56,0c-.44-.18-.92-.4-1.43-.57l-.37-.1a4.61,4.61,0,0,0-1.82,0,5.13,5.13,0,0,1-1.5.1,2.51,2.51,0,0,1-.46-.11,8.77,8.77,0,0,1-1.8-1,9.78,9.78,0,0,0-2.07-1.1,3.07,3.07,0,0,0-1-.15c-.43-.51-.86-1.07-1.3-1.65s-.71-.94-1.11-1.41l-.62-.69a10.19,10.19,0,0,0-.73-.71,7.4,7.4,0,0,0-.59-.49,5,5,0,0,0-.64-.4,3.17,3.17,0,0,0-.44-.19,1.32,1.32,0,0,0-1.45.26,11.07,11.07,0,0,0-1,1.3c-.31.46-.6.94-.87,1.43-.19.32-.37.64-.54,1a7,7,0,0,0-.41.8,6.49,6.49,0,0,0-.38,1.48,4.66,4.66,0,0,1-1.12-1.28,6.71,6.71,0,0,1-.94-2.91,3.94,3.94,0,0,1,.08-1.22.61.61,0,0,0,0-.21.65.65,0,0,0-.07-.19v0a1.2,1.2,0,0,0-.14-.2,1,1,0,0,0-.19-.16.68.68,0,0,0-.21-.09.42.42,0,0,0-.19,0,0,0,0,0,0,0,0h0a2.37,2.37,0,0,1-.41-.07c-.66-.15-1.7-.48-1.87-.53l-.21-.07a9.33,9.33,0,0,1-2.42-1.16,6.45,6.45,0,0,1-1.68-2.2,26.49,26.49,0,0,1-1.26-2.84m29.06,15.73A7.44,7.44,0,0,0,477,503a1.34,1.34,0,0,0-.42.73,16.52,16.52,0,0,0-2.36-2.36c-.6-.51-1.18-1-1.73-1.5a5.25,5.25,0,0,1,.53.24c.29.17.6.36.94.57s.65.42,1,.62a6.54,6.54,0,0,0,1.1.5,3.5,3.5,0,0,0,.66.15,4.59,4.59,0,0,0,1.33,0l.4-.06.38,0A4.39,4.39,0,0,1,479.36,501.83Zm-3.14,99.46c-.45-5-1-10.06-1.37-15q-.26-3.62-.33-7.15c-.1-6.53-.24-13.09-.72-19.77-.06-.77-.12-1.55-.19-2.33a92.85,92.85,0,0,0-1.4-12.19c-1.07-4.93-1.79-9.88-2.89-14.89s-2.39-10.33-3.65-15.49q-.82-3.35-1.68-6.71c-.56-2.13-1.6-4.12-1.92-6,0-.26-.07-.51-.09-.75,0,0,0-.08,0-.13a5.05,5.05,0,0,1,0-1,5.49,5.49,0,0,1,.69-2,17.51,17.51,0,0,1,2.37-3.56.57.57,0,0,1,.66-.13,3.69,3.69,0,0,1,1.14.76,12.87,12.87,0,0,1,1.15,1.2c.68.8,1.31,1.71,2,2.61.29.36.58.71.9,1.06h0a32.41,32.41,0,0,0,2.77,2.48,13.22,13.22,0,0,1,2.33,2.39c.11.16.2.33.31.49a2.69,2.69,0,0,0,0,.29,3.23,3.23,0,0,0,.32.94l.23.37c.08.11.16.22.24.32l0,0a9.58,9.58,0,0,1,.31,1.34c0,.21.05.42.07.62a23.66,23.66,0,0,1-.4,4.27,9,9,0,0,0,0,1.58,17.33,17.33,0,0,0,.28,2c-.17.61-.34,1.23-.49,1.85a14.26,14.26,0,0,0-.47,3.79c0,.19,0,.38,0,.58s0,.18,0,.26a11.38,11.38,0,0,0,.2,1.35c.32,1.42.69,2.85,1.06,4.28.19.73.38,1.46.55,2.18,0,.61,0,1.22.09,1.84.13,1.87.36,3.76.64,5.67s.51,3.53.75,5.29c.67,4.88,1.25,9.68,1.59,14.4q.26,3.64.3,7.23c.07,7.11-.45,14-.19,21.26.15,4.52.55,8.75.66,13.21.06,2.24.17,4.53.33,6.85.21,2.88.52,5.79,1,8.69a1.72,1.72,0,0,0,0,.25c-.19,1.94-.38,3.88-.58,5.81-.1.85-.15,1.65-.28,2.4a6.12,6.12,0,0,1-.24,1.07,5.54,5.54,0,0,1-.39,1,4,4,0,0,0-.33.72,5.88,5.88,0,0,0-.34,1.53c0,.27-.05.56-.05.86s0,.6-.06.91a8.64,8.64,0,0,0,0,1v.18c0,.13,0,.26.06.41-.26-.12-.5-.22-.75-.35A285,285,0,0,1,476.23,601.29ZM481.17,546c-.08-.61-.15-1.22-.24-1.83s-.16-1.18-.25-1.77c-.14-1-.28-2-.43-3.06q.67,3.15,1.29,6.29c.19,1,.37,1.94.53,2.91.31,1.94.55,3.87.75,5.8.13,1.21.25,2.42.35,3.62.31,3.61.54,7.21.83,10.79l.13,1.76c0,.3.05.59.07.89.12,1.64.22,3.27.3,4.9q.39,7.32.37,14.49a43.13,43.13,0,0,1-.31,4.34c-.12,1.07-.21,2.17-.24,3.31,0,.38,0,.75,0,1.14,0,1.33.07,2.66.08,4s0,2.63,0,3.9c0,.85-.11,1.69-.21,2.51,0,.41-.08.82-.13,1.23-.14-1.34-.27-2.68-.37-4-.08-1.15-.14-2.29-.2-3.43s-.09-2.26-.12-3.37c-.1-3.95-.41-7.69-.59-11.56l-.08-1.66c-.09-2.69-.08-5.34,0-8,0-.88,0-1.76.06-2.64.09-3.52.2-7,.17-10.61q0-3.63-.31-7.3C482.23,554.52,481.73,550.3,481.17,546Zm-9.47,92.12a4.71,4.71,0,0,1,.81-.54,12.33,12.33,0,0,0,3.82-3.82,3,3,0,0,1,1.77-1c.61-.19,1.3-.35,1.94-.62h0l.2.09a14.29,14.29,0,0,0,1.42.65h0a20.77,20.77,0,0,0,1.15,2.55h0a.92.92,0,0,1,.07.14l.22.37h0c.52.91,1,1.78,1.59,2.63h0a1.7,1.7,0,0,1-.81.59,3.91,3.91,0,0,0-1.78,1,4,4,0,0,0-.64,1.88c-.11.87-.24,1.72-.36,2.57a45.78,45.78,0,0,0-4.08-2.47,3.05,3.05,0,0,0-.48-.22,1.28,1.28,0,0,0-.55-.08l-.13.06a4.65,4.65,0,0,0-.15-.78,2.52,2.52,0,0,0-.45-.88.1.1,0,0,0,0-.05l0-.06a3.57,3.57,0,0,0-1.7-1.31l-.18,0c-.75-.18-1.34-.1-1.86-.2A1,1,0,0,1,471.69,638.16Zm10.47,8.28.51.35.16.11,1.23.87a6.94,6.94,0,0,1,1.59,1.35l.1.26a.07.07,0,0,1,0,.07s0,.08,0,.13a2.29,2.29,0,0,1-.11.35,1.54,1.54,0,0,0-.06.16.8.8,0,0,1-.21.3l0,0a.49.49,0,0,1-.21.09h0a1,1,0,0,1-.51-.07,6.2,6.2,0,0,1-.72-.31c-1.06-.53-2.12-1.2-3.22-1.83-.38-.22-.73-.43-1.07-.65l-.26-.16a8.06,8.06,0,0,1-1-.76,7.3,7.3,0,0,1-.62-.68,4.13,4.13,0,0,1-.39-.64,1.32,1.32,0,0,1-.11-.25,3.87,3.87,0,0,1-.2-.48,1.65,1.65,0,0,0-.06-.16.57.57,0,0,1,0-.11,1.33,1.33,0,0,0-.06-.19c0-.12-.07-.25-.1-.39a.5.5,0,0,1,0-.06c0-.18-.08-.38-.12-.58a.77.77,0,0,1,0-.15l.27.12a46.24,46.24,0,0,1,4.16,2.55l.51.34.57.39Zm-24,34a2.55,2.55,0,0,1-.52.32l-.24.13-.47.27c-.13.08-.26.2-.39.3a4.94,4.94,0,0,0-1.18,1.34,4.22,4.22,0,0,0-.42,1.72,3.23,3.23,0,0,1-.35,1.38,1,1,0,0,1-.41.4.47.47,0,0,1-.39,0,1,1,0,0,1-.37-.25,1.5,1.5,0,0,1-.49-1,1.12,1.12,0,0,1,0-.39,7.84,7.84,0,0,0,.54-2.92c0-.2-.05-.44-.09-.68a8.06,8.06,0,0,0-.58-1.58,7.85,7.85,0,0,1-.42-1c0-.08,0-.16-.06-.22l0-.2a1,1,0,0,1,0-.33,1,1,0,0,1,.23-.43A1.19,1.19,0,0,1,453,677a2,2,0,0,1,1.52-.12h0a7.43,7.43,0,0,1,2.85,2c.17.2.42.46.62.7l.24.33.06.11v.08A.47.47,0,0,1,458.15,680.42Zm5.59-10.54a1.46,1.46,0,0,1-.57.69,3.69,3.69,0,0,0-.88.83c-.39.59-.88,1.11-1.36,1.7a5.27,5.27,0,0,0-.69,1.56,19.38,19.38,0,0,0-1.16,5c-.13-.2-.27-.38-.39-.57s-.53-.6-.68-.76a9.07,9.07,0,0,0-3.5-2.47l-.08,0a3.1,3.1,0,0,0-1-.13c.3-.26.61-.49.85-.67,2.12-1.68,2.82-4.73,2.73-7.95v-.34c0-.28,0-.53-.06-.74a1.6,1.6,0,0,1,.25-1.14c.05-.07.12-.1.17-.17a1.39,1.39,0,0,1,.33-.27l.18-.11.29-.06a1.14,1.14,0,0,1,.56,0l.12,0a11.4,11.4,0,0,1,3.64,2.69,2.88,2.88,0,0,1,.44.61l.06.11.38.69s0,0,0,0a3.48,3.48,0,0,1,.28.59,1.79,1.79,0,0,1,.13.55Zm9.66-20.63-.75.28-.32.14-.24.1a7.89,7.89,0,0,0-1.48,1.2,8.94,8.94,0,0,0-2,3.31,38.54,38.54,0,0,0-1.63,6.19c-.18,1.09-.2,2.17-.3,3.16a5.81,5.81,0,0,1-.76,2.64,11.45,11.45,0,0,1-1.63,2l-.08,0a.07.07,0,0,1,0,0c-.18-.3-.3-.57-.48-.87a5.23,5.23,0,0,0-.68-.95,12.81,12.81,0,0,0-4.22-3.09l-.21-.08a2,2,0,0,0-1.44,0h0a5.08,5.08,0,0,1-.43-.61,2,2,0,0,1-.3-.81l0-.34a3.25,3.25,0,0,1,.55-1l2.09-3a13.28,13.28,0,0,0,1.1-2.78c.95-2.29,2-4.55,3.05-6.74a20.76,20.76,0,0,1,2.2-4.17,5,5,0,0,1,1.52-1.2l.31-.15.44-.2.12-.06.35-.11a1,1,0,0,1,.16,0l.19,0h0a10.89,10.89,0,0,1,3.36,3.22c0,.07.07.13.12.21a10.25,10.25,0,0,1,.92,1.76c.13.33.23.66.32,1a6.12,6.12,0,0,1,.19,1Zm3.21-.47-.15,0,0,0a1.55,1.55,0,0,1-.78-.07,3.85,3.85,0,0,1-1.1-.6c-.13-.1-.27-.23-.4-.34a11.57,11.57,0,0,0-1.42-2.95,12.67,12.67,0,0,0-4-3.8l-.23-.11a1.37,1.37,0,0,0-.69,0,.91.91,0,0,1-.19.05,5.92,5.92,0,0,1,.07-1.36,1.14,1.14,0,0,1,.93-.94,1.79,1.79,0,0,1,.65.1,12.7,12.7,0,0,1,1.18.5c.2.09.41.18.64.27l.08,0,.3.09a2.39,2.39,0,0,0,.31.06c.64.1,1.17,0,1.66.18l.09,0a1.81,1.81,0,0,1,.89.66l.08.11.17.36c.07.22.1.54.18.92a2.38,2.38,0,0,0,.07.35c0,.11.08.23.13.34a5.51,5.51,0,0,0,.57.94l.15.21c0,.17.08.35.14.54s.08.23.11.33.15.42.25.64.09.2.15.29a6.65,6.65,0,0,0,.58.94c.14.19.3.32.43.48l.07.07a3,3,0,0,1-.17.36c-.18.31-.27.65-.39.89S476.74,648.73,476.6,648.78Zm1.22,27.72a7.64,7.64,0,0,0,2.51-2.55,8.44,8.44,0,0,0,.86-4.07c0-1.15,0-2.32-.07-3.52a37.58,37.58,0,0,0-1-6.29c-.51-2.05-1.34-4-1.72-5.86a30.84,30.84,0,0,0-1.06-4.37,1.43,1.43,0,0,0,.63-.73,5.39,5.39,0,0,1,.34-.81c0-.1.11-.2.16-.32l.14.1.3.21c.18.13.36.25.55.37l.27.17.58.33.14.09c1.07.61,2.18,1.3,3.32,1.87a8.28,8.28,0,0,0,.9.38l.24.07.14,0c.06.19.11.37.15.56a8.51,8.51,0,0,1,.13.92,5,5,0,0,1-.45,2.58c-.13.3-.44.52-.7.94a2.18,2.18,0,0,0-.19.53s0,0,0,.08a.49.49,0,0,0-.05.21c0,.09,0,.18-.06.28a1.59,1.59,0,0,0,0,.31s0,0,0,.07,0,.33-.06.46v.07a15.37,15.37,0,0,0,0,2.64c0,.41.07.8.12,1.21.07.58.13,1.16.17,1.74.1,1.35.13,2.7.23,4.1,0,.44.07.87.12,1.31a46.51,46.51,0,0,0,1.24,7.46c.08.29.16.62.26,1v0c0,.11.07.21.1.32.13.37.24.72.34,1.06s.12.44.17.64a3.84,3.84,0,0,1,.09.6,2.6,2.6,0,0,1,0,.42,5.52,5.52,0,0,1-.72,2.22,5.31,5.31,0,0,1-.5.74l0,0a4.46,4.46,0,0,1-.63.59s0,0,0,0a2.66,2.66,0,0,1-.77.37h0l-.19,0-.5-.62a26,26,0,0,0-2.33-2.54,7.51,7.51,0,0,0-2.6-1.62l-.36-.1a2.59,2.59,0,0,0-.59-.07,8.38,8.38,0,0,1-.22-1.36C477,677.75,477.18,676.88,477.82,676.49Zm7.06-13.76c0-.34-.07-.67-.11-1,.22.68.43,1.37.61,2.09a20.06,20.06,0,0,1,.51,3.38c.08,1.17.1,2.34.13,3.6a27.57,27.57,0,0,1-.09,3.42c-.24-1.44-.39-2.86-.55-4.3,0-.42-.08-.85-.11-1.27-.1-1.35-.13-2.72-.23-4.1C485,664,485,663.34,484.88,662.74ZM475,700.08c.88-1,1-2.36,1.41-3.5a14.78,14.78,0,0,0,.66-5.87,29.49,29.49,0,0,0-1.2-6.16,2.86,2.86,0,0,1-.11-.62,2.79,2.79,0,0,1,.62-2,1.66,1.66,0,0,1,.39-.34,1.9,1.9,0,0,1,.4-.21,1.52,1.52,0,0,1,.47-.09,1.49,1.49,0,0,1,.47,0l.26.08a5.9,5.9,0,0,1,2.05,1.3,23.57,23.57,0,0,1,2.14,2.33l.12.14a.61.61,0,0,0,.1.13.39.39,0,0,0-.08.37.08.08,0,0,0,0,0,2.93,2.93,0,0,0,.19.59,4.93,4.93,0,0,0,.6,1.16c.13.18.25.34.36.49a5.61,5.61,0,0,1-.76,1.7,30.5,30.5,0,0,0-2.68,7.23,57.62,57.62,0,0,0-1.35,5.71c0,.14,0,.3-.07.47a13.53,13.53,0,0,1-.32,1.76,2.36,2.36,0,0,1-.2.51,2.31,2.31,0,0,0-.27-.61,6.15,6.15,0,0,0-.53-.63l-3.1-3.26a2.13,2.13,0,0,0-.26-.21A4.69,4.69,0,0,0,475,700.08ZM464.8,705.2l.22-.07.23.14h0a3.59,3.59,0,0,0,3.11-.4c1.56-1,2.43-2.71,4-3.31a3.55,3.55,0,0,1,.52-.17,1.35,1.35,0,0,1,.49-.08,1,1,0,0,1,.32,0,.69.69,0,0,1,.2.14s.08,0,.13.07c1,1.09,2.06,2.18,3.1,3.26a3.78,3.78,0,0,1,.33.39l.05.13h0a.56.56,0,0,1-.17.45.67.67,0,0,1-.18.18,1.89,1.89,0,0,1-.2.09,1.41,1.41,0,0,1-.24.1l-.08,0a.76.76,0,0,1-.18,0,2.9,2.9,0,0,1-.46.09,7,7,0,0,0-2.66.4,8.31,8.31,0,0,1-.89.39h0a38.25,38.25,0,0,1-4.8,1.36,1.54,1.54,0,0,0-.21-.52c-.11-.17-.21-.28-.29-.39a5.5,5.5,0,0,0-.76-.79l-.09-.14a4.34,4.34,0,0,0-.8-.73,6.07,6.07,0,0,1-.56-.44,1.38,1.38,0,0,0-.2-.15Zm-1.62,2.62c-.26-.06-.55-.16-.87-.26h0l-.4-.12-.29-.1-.81-.3-.12-.05-.37-.12a1.94,1.94,0,0,1-.28-.77h0a.52.52,0,0,1,0-.3l.13,0a1.91,1.91,0,0,1,.45.1l.37.12.4.12a5.87,5.87,0,0,0,2,0l.43-.06a.79.79,0,0,1,.24,0l.17,0,.09.06.09,0a5.89,5.89,0,0,0,.67.55l.08.07a2.29,2.29,0,0,1,.41.35l.21.3a4,4,0,0,1,.63.62l.14.19h-.18a.26.26,0,0,1-.11,0h0c-.22,0-.42-.05-.63-.07l-.65-.07-.26,0A11.45,11.45,0,0,1,463.17,707.82Zm13.38,3.82a.42.42,0,0,1-.2.33,3.34,3.34,0,0,1-.58.22,2,2,0,0,1-.84-.15l-.61-.2c-2.1-.58-4.24-1.17-6.34-1.68-1.14-.29-2.2-.34-3.19-.67a5.45,5.45,0,0,1-.94-.41l-.11-.06c.41.08.85.17,1.25.21s1,.1,1.46.14h0a3,3,0,0,0,.52.25,1.76,1.76,0,0,0,1,.06h0a47.39,47.39,0,0,0,4.92-1.38h0a17.88,17.88,0,0,0,2.26,1.37,1,1,0,0,0,.25.11s0,0,0,0l.09.16.15.23,0,.06.3.37a2.2,2.2,0,0,0,.27.24h0v0l.11.08v0a2.54,2.54,0,0,1,.13.52Zm-.24-2.7a.63.63,0,0,1-.48,0l-.16-.07-.12,0-.28-.12h0c-.38-.19-.78-.43-1.17-.67a1.63,1.63,0,0,1-.2-.14.74.74,0,0,0,.16-.07,6.52,6.52,0,0,1,2.4-.31,5.23,5.23,0,0,0,.76-.15l.13,0,.38-.19s0,0,0,0h0l.07,0,.16,0a1.21,1.21,0,0,0,.85-.2,1.09,1.09,0,0,0,.26-.27,2.88,2.88,0,0,0,.45-.83,7,7,0,0,0,.26-1c.12-.67.2-1.31.26-1.66a52.78,52.78,0,0,1,1.32-5.64c.16-.5.3-1,.45-1.52l.38-1.27c.15-.5.31-1,.48-1.5a1.55,1.55,0,0,1,.13-.27,8.69,8.69,0,0,1,.34-.91,12.81,12.81,0,0,1,.82-1.59h0a5.91,5.91,0,0,0,.46-.84s0,0,0-.06a3,3,0,0,0,.24-.57,2.34,2.34,0,0,0,.08-.33l0,0,.07,0c.17.1.31.22.45.3a12,12,0,0,1,2.57,2.32c.2.22.37.45.56.69a1.43,1.43,0,0,0,.14.22,9.56,9.56,0,0,1,.56.87.55.55,0,0,1,.07.28v.07a2.17,2.17,0,0,1,0,.39s0,.07,0,.11a2.14,2.14,0,0,1-.38.71L485.15,700c-1.2,1.7-2.78,3.06-4.14,4.74-.33.41-.63.8-1,1.16a4,4,0,0,1-.49.53,5.18,5.18,0,0,1-.54.47.4.4,0,0,1-.13.08,12.81,12.81,0,0,0-2.1,1.59C476.6,708.81,476.46,708.92,476.31,708.94Zm15.09-15.12.23.09h.06a8.08,8.08,0,0,1,1.9,3,4.47,4.47,0,0,1,.07.55A4.82,4.82,0,0,1,493,700c-1.48,2.94-4,4.9-6.61,6.82a27.59,27.59,0,0,1-6.88,4.14,2,2,0,0,1-.93.18l-.28-.08a4.47,4.47,0,0,1-1.29-.78l-.23-.17,0,0a.74.74,0,0,0,.23,0,1.77,1.77,0,0,0,.74-.55,13.47,13.47,0,0,1,2.13-1.59,7.57,7.57,0,0,0,1.14-1.07c.32-.39.65-.78,1-1.18s.67-.8,1-1.18a39.41,39.41,0,0,0,3.15-3.59c1.22-1.76,2.48-3.51,3.72-5.27a2.66,2.66,0,0,0,.47-1,2.58,2.58,0,0,0,.06-.8v-.12a2,2,0,0,0-.07-.33,1.64,1.64,0,0,0-.19-.49h0s0,0,0,0l-.09-.13A4.5,4.5,0,0,0,491.41,693.82Zm2.23-10.34c0,2.12-1.13,3.37-1.78,5.36a4,4,0,0,1-.74,1.54,4.35,4.35,0,0,0-.51.75.91.91,0,0,1-.5.4,1.69,1.69,0,0,1-.32,0,1.86,1.86,0,0,1-.7-.12,13.51,13.51,0,0,0-4-3.59l-.16-.08c-.12-.05-.24-.12-.34-.16a4.41,4.41,0,0,1-.27-.36,1,1,0,0,1-.13-.17,3.32,3.32,0,0,1-.39-.72v0l.12,0c.14,0,.33,0,.47-.07h0l0,0a3.41,3.41,0,0,0,.91-.45.07.07,0,0,1,.05,0,4.76,4.76,0,0,0,.7-.68s0,0,.05-.05a2.92,2.92,0,0,0,.17-.27.27.27,0,0,0,.11-.15s0,0,0-.05,0,0,0,0,.15-.23.23-.36h0a5.8,5.8,0,0,0,.82-2.53,3.21,3.21,0,0,0,0-.58,9.28,9.28,0,0,0-.39-1.81c-.13-.38-.25-.76-.37-1.11h0c-.07-.24-.13-.51-.2-.79a27.27,27.27,0,0,0,.47-6.12c0-1.23,0-2.42-.14-3.64a20,20,0,0,0-.56-3.61,36.3,36.3,0,0,0-1.59-4.84h0a8,8,0,0,1,.22-1.31,1.1,1.1,0,0,1,.12-.33c.15-.28.47-.51.71-1a5.76,5.76,0,0,0,.53-3,8.49,8.49,0,0,0-.17-1.18c-.05-.26-.14-.51-.21-.76h0s.06,0,.07,0,.09,0,.13-.07a1.33,1.33,0,0,0,.37-.51,1.06,1.06,0,0,1,0-.14h0c.74.57,1.49,1.16,2.24,1.69a10.08,10.08,0,0,0,2.29,1.29h0a6,6,0,0,1,.31,1.62v.06c.15,2.07.27,4.15.42,6.23.11,1.71,0,3.33.13,5.11,0,.48.08,1,.15,1.47.44,2.65.52,5.24.76,7.91l.15,2c0,.45.06.88.13,1.35.14,1.11.34,2.18.41,3.19A6.66,6.66,0,0,1,493.64,683.48Zm-2.39-33.28a.85.85,0,0,0,.41.41c0,.36.11.72.13,1.08s0,.73,0,1.08a2.9,2.9,0,0,1-.5-.08l-.09,0a8.46,8.46,0,0,1-2-1.13l0,0c-.79-.56-1.58-1.16-2.37-1.79a2,2,0,0,0-.46-1.12,9,9,0,0,0-2-1.73c-.74-.51-1.49-1-2.24-1.55.13-.91.27-1.81.4-2.7,0-.33.09-.62.15-.88a1.94,1.94,0,0,1,.32-.66,3.54,3.54,0,0,1,1.55-.78,2.71,2.71,0,0,0,.89-.59h0c.3.43.61.86.94,1.3h0a1.13,1.13,0,0,0-.08.47v.06h0a2.69,2.69,0,0,0,.41,1.13,7.67,7.67,0,0,0,.62.9A33.46,33.46,0,0,1,491.24,650.2Zm-2.71-143.07a3.16,3.16,0,0,1-.83,2.51c-.41.34-1,.53-1.35,1.22a10.61,10.61,0,0,0-.71,2.14,26,26,0,0,0-.36,7.92c.06.82.13,1.65.2,2.47.15,1.66.28,3.31.4,5,.2,2.85.37,5.7.58,8.56l.1,1.39c.29,3.68.81,7.41,1.22,11.09s.72,7.29,1.12,11c.43,3.95,1.12,8,1.38,11.91.06.88.11,1.76.12,2.61.08,4.91.18,9.82.4,14.78s.22,9.77.17,14.6,0,9.53-.46,14a47.55,47.55,0,0,0,.17,7.65c0,.13,0,.27,0,.41.12,1.66.33,3.36.62,5.07.24,1.39.75,3,.84,4.18a3.82,3.82,0,0,1,0,.84,3.93,3.93,0,0,1-.77,1.63c-.36.56-.51,1.25-.78,1.6a2.5,2.5,0,0,1-1.68.7,9.87,9.87,0,0,1-1.95,0c-.45-.6-.88-1.19-1.28-1.79-.67-1-1.31-2.06-1.91-3.17l0,0c-.25-.44-.46-.88-.66-1.31a.85.85,0,0,1-.07-.13c-.09-.2-.15-.39-.23-.59s-.2-.49-.28-.73l-.1-.28c0-.06,0-.11,0-.17a4,4,0,0,1-.13-.69,15.91,15.91,0,0,1,.07-1.77,5.48,5.48,0,0,1,.64-2.75,12.55,12.55,0,0,0,1-4.74c.09-.84.16-1.68.25-2.52.13-1.22.26-2.44.37-3.67.18-1.82.36-3.63.57-5.44a79.62,79.62,0,0,0,.16-10.53c-.07-3,.56-5.61.59-8.76q0-9.6-.68-19.47c-.06-.89-.14-1.78-.2-2.66-.62-7.6-.93-15.36-2.48-23.27q-1.37-7.08-3-14.22a2.18,2.18,0,0,1-.06-.25h0c-.32-1.36-.69-2.72-1-4.07-.21-.83-.41-1.66-.6-2.48a10.57,10.57,0,0,1-.2-1.43,13.09,13.09,0,0,1,.42-4.07l0,0q.25-1,.54-2c.38-1.43.79-2.85,1.2-4.27a5.73,5.73,0,0,0,.2-2,7.23,7.23,0,0,0-1.65-4l-.2-.24a4.17,4.17,0,0,1-.5-.68,1.46,1.46,0,0,1-.19-.65,2,2,0,0,1,0-.26c0-.05,0-.11,0-.17.09-.49.12-.82.31-.94a7.3,7.3,0,0,1,4-1.46l.13,0a6.25,6.25,0,0,1,2.21.15l.07,0a4.94,4.94,0,0,1,.7.33,16.93,16.93,0,0,1,1.93,1.29,4.94,4.94,0,0,1,1.33,1.33,2.55,2.55,0,0,1,.36,1.17Zm-10.26,6.94v-.28c.11-1.1.35-2.08.41-3.23a8.63,8.63,0,0,0,0-1.11,5.29,5.29,0,0,1,.25,1.23,5.39,5.39,0,0,1,0,.87,4.22,4.22,0,0,1-.16.8C478.61,512.92,478.44,513.5,478.27,514.07Z"/><path class="cls-4" d="M196.3,374.62l1,0c.61-5.66,1.17-11.3,1.56-16.86l0-.31q.2-2.78.43-5.56.43-4.89,1-9.81,1.65-14.77,4.46-29.83a87.79,87.79,0,0,1,3.84-14.93c.24-.62.47-1.25.73-1.87s.54-1.24.82-1.86.59-1.23.9-1.84.64-1.21,1-1.81c.19-.33.42-.64.62-1q.61-.95,1.32-1.85c.25-.3.46-.61.72-.9.68-.79,1.68-1.54,2.53-2.55a7.22,7.22,0,0,0,.61-.91,11.19,11.19,0,0,0,1.11-3.11c.08-.35.15-.7.21-1a24.71,24.71,0,0,1,2.28,1.44c.18.14.39.26.57.4l.19.16a3.14,3.14,0,0,1,.92,1l.15.33a6,6,0,0,1,.24,1.46,11.12,11.12,0,0,0,.88,4.48c.68,1.17,2,1.44,3.09,1.8a29.75,29.75,0,0,1,3.9,1.57,7.12,7.12,0,0,0,.12,1.75c-.3.28-.56.58-.83.87.62-.51,1.26-1,1.9-1.47,0-.18-.07-.36-.1-.55a7.09,7.09,0,0,1,0-1.51,12.66,12.66,0,0,1,.57-2.71,21.53,21.53,0,0,1,4-7l.53-1.47c-.44-1.67.73-3.77,2.1-5.79l1.2-3.23-.24.34c-.24.35-.48.71-.76,1.09-1.81,2.57-4.06,5.74-3.36,8.31a23.46,23.46,0,0,0-4.42,7.79,14.68,14.68,0,0,0-.52,2.23,32,32,0,0,0-3.39-1.34c-1.14-.36-2.27-.66-2.76-1.52a10.4,10.4,0,0,1-.78-4.15,5.52,5.52,0,0,0-.46-2.09,4.28,4.28,0,0,0-1.28-1.41,23.29,23.29,0,0,0-3.47-2.18c.07-.52.12-1,.16-1.39,0-.23,0-.45.06-.67a17.54,17.54,0,0,0,0-2.06c0-.13,0-.26,0-.39,0-.56-.08-1.12-.16-1.66l0-.17a.25.25,0,0,1,0-.09A16.63,16.63,0,0,0,219,269h0c-.08-.3-.21-.57-.31-.86a7.73,7.73,0,0,0-.33-.9v0l.62-.91a10,10,0,0,0,1-1.71,3.24,3.24,0,0,0,.27-1,1.42,1.42,0,0,0-.16-.86s0,0,0-.06a1.15,1.15,0,0,0-.79-.47,3.61,3.61,0,0,0-.77,0,16.61,16.61,0,0,0-3.67.63h0a14,14,0,0,0-2.75-1.77l-.14-.08a4.06,4.06,0,0,1,.5-.22,1.1,1.1,0,0,1,.26-.06c.06,0,.1,0,.11,0h0a1.42,1.42,0,0,1,.2.18l.1.09.09.07.22.13h0l.11,0,.16,0a1.29,1.29,0,0,0,.27,0H214a2.12,2.12,0,0,0,.47-.1h0a6.12,6.12,0,0,0,.77-.33c1.92-.94,3.83-1.89,5.74-2.81l.75-.36,2-.95.83-.38c.91-.41,1.84-.81,2.76-1.18s2.2-.87,3.34-1.28c.38-.14.77-.29,1.15-.41.61-.2,1.23-.39,1.83-.55a12.5,12.5,0,0,1,5-.48.46.46,0,0,0,.24,0,.85.85,0,0,0,.26-.16l0,0,1.43-1.32.95-.87.58-.54,1.18-1.09,1.82-1.68c.56-.18,1.1-.39,1.64-.6l.47-.19c.5-.21,1-.44,1.51-.69l.13-.06c.41-.21.83-.43,1.26-.67L251,244l.55-1.36c-.51.26-1,.53-1.52.81l-.24.13a26.63,26.63,0,0,1-4.54,2l-.14,0-.28.17-1.46,1.34-3.55,3.29-.9.83c-.13,0-.28,0-.42,0h0a11.17,11.17,0,0,0-1.93,0l-.61.07-.39,0-.32.07c-.48.09-1,.19-1.46.32s-1.21.34-1.82.54l-.78.28c-1.31.46-2.61,1-3.8,1.44-3.08,1.24-6.13,2.73-9.17,4.22l-3,1.49a5.21,5.21,0,0,1-.61.26.72.72,0,0,1-.49,0c-.1,0-.21-.18-.42-.34a1.15,1.15,0,0,0-.13-.09l-.07,0-.18-.06-.26,0H213a2.25,2.25,0,0,0-.47.1,7.26,7.26,0,0,0-1,.45,7.16,7.16,0,0,1-.7.34l-.14,0h0l-.15,0a14.55,14.55,0,0,1-2.35.49,19.67,19.67,0,0,0-3.73.69l-.19.07a4.48,4.48,0,0,1,.66-.78l.09-.1a9.36,9.36,0,0,1,1.89-1.3,26.07,26.07,0,0,1,4.42-1.92c.8-.26,1.59-.48,2.35-.65a.86.86,0,0,0,.56-.49,5.08,5.08,0,0,1,1.43-1.77,14.1,14.1,0,0,1,2.14-1.42c3.71-2.09,7.42-3.46,11.24-5.47s7.8-4.21,11.69-5.93,7.75-3.63,11.58-5.75c.84-.46,1.66-1,2.48-1.44l.58-1.41c-1.06.64-2.13,1.27-3.21,1.86-1.43.79-2.85,1.54-4.29,2.27s-2.87,1.44-4.31,2.12c-.95.45-1.91.88-2.87,1.31-4,1.75-7.89,3.92-11.79,6-2.78,1.47-5.58,2.61-8.42,4-1,.46-1.9,1-2.86,1.49l-.6.36a13.76,13.76,0,0,0-1.79,1.23,7.77,7.77,0,0,0-1.36,1.46c-.13.18-.24.38-.36.58l-1,.27c-.35.09-.71.2-1.07.32-.78.26-1.57.56-2.35.89s-1.55.71-2.3,1.13a12.68,12.68,0,0,0-1.67,1.07c-.19.15-.37.3-.55.47a6.27,6.27,0,0,0-1.4,1.89c-.24.17-.48.32-.7.5a16.45,16.45,0,0,0-3,3.09,16,16,0,0,0-1.16,1.81,14.6,14.6,0,0,0-.87,1.91,8.83,8.83,0,0,0-1.87,1.79,14,14,0,0,0-1.34,2.42c-.83,1.77-1.62,3.54-2.36,5.32-.37.89-.72,1.79-1,2.68s-.6,1.77-.86,2.65a62,62,0,0,0-2.11,10.39c-.21,1.7-.37,3.39-.49,5.06-.14,2-.24,4-.32,6-.26,6.28-.24,12.45-.42,18.68-.06,2.08-.14,4.16-.25,6.25,0,.79-.1,1.58-.16,2.37-.14,1.95-.31,3.9-.51,5.87-.59,5.9-1.38,11.86-2,17.77-.39,3.77-.79,7.54-1.16,11.31q-.27,2.81-.51,5.62l1,.26c.5-5.8,1.11-11.65,1.72-17.49.82-7.85,1.95-15.84,2.51-23.68.06-.8.11-1.59.15-2.38.48-8.43.34-16.61.69-24.95.08-2,.18-3.94.32-5.93A63.27,63.27,0,0,1,192.71,279q1.09-2.63,2.34-5.25a12.43,12.43,0,0,1,1.15-2.1,7.25,7.25,0,0,1,1.69-1.55.9.9,0,0,0,.33-.44,14.23,14.23,0,0,1,4.8-6.44.45.45,0,0,0,.35,0,8.68,8.68,0,0,1,1-.39c.29-.1.58-.17.87-.24.85-.19,1.72-.27,2.67-.4.43-.06.87-.13,1.32-.22s.71-.17,1.07-.28l.44.17.37.15.27.12.1,0c.24.12.49.25.72.39l.13.08.11.07c.28.17.55.34.81.53l.05,0,.42.32.45.35h0l.52.43a8.4,8.4,0,0,1,.65.64l-1.69,1.18-.38.27a4.59,4.59,0,0,0-.8.75,3.38,3.38,0,0,0-.34.53,2.13,2.13,0,0,0-.15.41,1.67,1.67,0,0,0-.07.39.91.91,0,0,0,0,.18,1.5,1.5,0,0,0,.23.76,1.54,1.54,0,0,0,.16.23,2.34,2.34,0,0,0,.42.37,3.44,3.44,0,0,0,.45.27,1.27,1.27,0,0,0,.84,0l.3-.09c.27-.09.55-.2.84-.33l.85-.39.75-.37.49-.24.41-.2c.09.23.18.45.26.69s.06.23.1.34c.13.45.24.92.33,1.39a1.8,1.8,0,0,0,0,.25c0,.08,0,.17,0,.25.07.46.11.93.15,1.41h0l0,.51a18.8,18.8,0,0,1,0,2l0,.31a3.12,3.12,0,0,1,0,.32c0,.46-.1,1-.18,1.64s-.18,1.32-.34,2a8.26,8.26,0,0,1-1.36,3.31c-.62.77-1.63,1.52-2.5,2.51a25.36,25.36,0,0,0-2.87,4,53.17,53.17,0,0,0-3.57,7.64,88.52,88.52,0,0,0-3.91,15.17,407.07,407.07,0,0,0-5.88,45.35l0,.31C197.44,363.53,196.9,369.06,196.3,374.62Zm21.3-111.25-1,.69-.23.16c-.19-.2-.39-.39-.58-.58A14.73,14.73,0,0,1,217.59,263.37Zm.6,2.56-.3.44-.54.81a1,1,0,0,0-.14.32.48.48,0,0,0,0,.26v0a.06.06,0,0,0,0,0l-.11.05c-.29.13-.75.37-1.29.63a14.06,14.06,0,0,1-1.53.65,1.48,1.48,0,0,1-.51.11,2.18,2.18,0,0,1-.68-.5.84.84,0,0,1-.24-.59l.08-.26a2.7,2.7,0,0,1,.92-.86l2-1.4,1-.73,2.09-1.46a.37.37,0,0,1,.09.08.62.62,0,0,1,.08.39,2.06,2.06,0,0,1-.16.59,5.9,5.9,0,0,1-.36.66ZM196.3,374.62l-13.35-.87v-.68l13.52,1"/><polygon class="cls-1" points="143.75 533.79 143.47 533.77 143.47 533.77 143.75 533.79 143.75 533.79"/><polygon class="cls-1" points="143.75 533.79 143.47 533.77 143.47 533.77 143.75 533.79 143.75 533.79"/><text class="cls-5" transform="translate(80.04 365.88)">C4</text><circle class="cls-6" cx="96.17" cy="358.01" r="22.5"/><text class="cls-5" transform="translate(557.09 323.34)">C1</text><circle class="cls-6" cx="571.49" cy="314.85" r="22.5"/><text class="cls-5" transform="translate(555.96 389.55)">C2</text><circle class="cls-6" cx="571.35" cy="382.04" r="22.5"/><text class="cls-5" transform="translate(555.18 470.14)">C3</text><circle class="cls-6" cx="572.04" cy="461.15" r="22.5"/><text class="cls-5" transform="translate(374.69 463.93)">L2</text><text class="cls-5" transform="translate(382.5 378.28)">L1</text><line class="cls-7" x1="422.12" y1="322.06" x2="437.2" y2="479.79"/><rect class="cls-8" x="417.24" y="321.31" width="9.75" height="1.5" transform="translate(-28.73 41.62) rotate(-5.46)"/><rect class="cls-8" x="432.32" y="479.04" width="9.75" height="1.5" transform="translate(-43.7 43.81) rotate(-5.46)"/><line class="cls-9" x1="546.44" y1="384.03" x2="429.27" y2="396.35"/><line class="cls-7" x1="414.43" y1="397.27" x2="422.58" y2="487.15"/><rect class="cls-8" x="409.55" y="396.52" width="9.75" height="1.5" transform="matrix(1, -0.09, 0.09, 1, -34.2, 39.07)"/><rect class="cls-8" x="417.71" y="486.4" width="9.75" height="1.5" transform="translate(-42.27 40.16) rotate(-5.18)"/><line class="cls-9" x1="423.17" y1="330.05" x2="545.4" y2="315.79"/><line class="cls-9" x1="440.23" y1="473.5" x2="549.05" y2="463.79"/><line class="cls-9" x1="212.07" y1="376.79" x2="119.19" y2="360.92"/><line class="cls-7" x1="225.33" y1="324.53" x2="216.12" y2="379.9"/><rect class="cls-8" x="224.58" y="319.65" width="1.5" height="9.75" transform="translate(-131.78 493.53) rotate(-80.55)"/><rect class="cls-8" x="215.37" y="375.02" width="1.5" height="9.75" transform="translate(-194.1 530.72) rotate(-80.55)"/><text class="cls-5" transform="translate(236.69 363.68)">L3</text><polygon class="cls-6" points="393.24 340.76 420.53 382.36 365.96 382.36 393.24 340.76"/><polygon class="cls-6" points="386.77 427.51 414.05 469.1 359.48 469.1 386.77 427.51"/><polygon class="cls-6" points="248.51 326.97 275.8 368.57 221.23 368.57 248.51 326.97"/></svg>