<svg id="Layer_1" data-name="Layer 1" xmlns="http://www.w3.org/2000/svg" viewBox="0 0 648 864"><defs><style>.cls-1,.cls-4,.cls-5,.cls-7,.cls-9{fill:none;}.cls-2{fill:#ccc;}.cls-3{fill:#fff;}.cls-4,.cls-5,.cls-7,.cls-9{stroke:#231f20;stroke-miterlimit:10;}.cls-4{stroke-width:0.25px;}.cls-5,.cls-7{stroke-width:0.75px;}.cls-5{stroke-dasharray:6 6;}.cls-6,.cls-8{fill:#231f20;}.cls-7{stroke-dasharray:6;}.cls-8{font-size:24px;font-family:Futura-Medium, Futura;}</style></defs><title>Outline 6</title><path class="cls-1" d="M187.44,460c-7.55-.78-15.1-1.43-22.68-1.92C172.32,459.07,179.88,460.23,187.44,460Z"/><path class="cls-2" d="M499.1,551.11c-.8-9.39-3-15.71-3.79-29.43-.7-11.47,0-15.61-1.35-29.21-1.18-12.13-2.62-18.23-4-22.77a97.33,97.33,0,0,0-6.2-15.76c-2.18-43.37-5.45-70.83-8.17-88.3-2.23-14.27-3.83-20.18-4.26-32.79-.62-18.31,2-27.4-2.51-39.66a121.37,121.37,0,0,0-9.51-19.08,68.58,68.58,0,0,0-13.93-16.28,164.41,164.41,0,0,0-26.53-18.68c-29.14-15.48-40.28-11.94-51.38-21-10.14-8.24-19-26-13.29-67.74l-30.1,0-30.1,0c5.75,41.76-3.14,59.5-13.29,67.74a29.52,29.52,0,0,1-3.11,2.21c-10.21,6.31-21.83,4.71-48.27,18.75a164.39,164.39,0,0,0-26.53,18.68A68.58,68.58,0,0,0,188.9,274.1a121.42,121.42,0,0,0-9.51,19.08c-4.53,12.26-1.89,21.36-2.51,39.66-.43,12.61-2,18.51-4.26,32.79-2.73,17.47-6,44.94-8.17,88.3a97.31,97.31,0,0,0-6.2,15.76c-1.34,4.54-2.78,10.64-4,22.77-1.32,13.6-.65,17.74-1.35,29.21-.83,13.72-3,20-3.79,29.43-2.78,32.71,5,49.11,3.59,78.55-.1,2.07-.46,8.59-.61,17.7-.19,11.68.22,12.59,0,19.76-.51,21-4.35,23.24-1.11,30.38,3.6,7.95,11.21,12,16.71,14.22,1.1.32,16.69,4.67,20.91-1.19.43-.6,2.34-3.24,1.54-5.51a4.39,4.39,0,0,0-2.29-2.37c-7.16-4.66-10.13-9.93-11.4-12.75-2.86-6.37-2.68-12.87-2.42-22.34.1-3.68.38-6.71.6-8.76.51,1.12,1.4,3.07,2.48,5.49,6.54,14.65,7.59,18.43,11.82,22,1.76,1.48,6.32,5.31,8.95,3.92,5.1-2.7.5-23.94-7.25-40.76-7.13-15.48-10.36-12.94-13.65-23.33-1.92-6.05-1.66-9.53,3.48-50.1,1.88-14.87,2.47-19.35,3.56-26.11,2-12.56,3.08-19.17,5.06-27.22,5.95-24.13,11.61-26.37,15.46-48a154.24,154.24,0,0,0,2.31-22,196.45,196.45,0,0,0-.61-20.86c-1-11,2.21-38.54,19.61-109.34l3.94,11c2.45.58-8.46,28.88,6.45,58.63a72.4,72.4,0,0,0,7,11.24c10.62,14.63,12.79,53.47-18.73,155.13l89.73.5v.11l9.83-.05,9.83.05V559l89.73-.5C392.16,456.86,394.33,418,404.95,403.39a72.38,72.38,0,0,0,7-11.24c14.91-29.75,4-58,6.45-58.63l3.94-11c17.4,70.8,20.6,98.32,19.61,109.34a196.41,196.41,0,0,0-.61,20.86,154.2,154.2,0,0,0,2.31,22c3.85,21.65,9.51,23.9,15.46,48,2,8,3.05,14.66,5.06,27.22.91,5.69,1.48,9.77,2.75,19.78l.63,5h31.89A162.85,162.85,0,0,0,499.1,551.11Z"/><path class="cls-3" d="M199.62,482.09c0-.18,0-.37,0-.55s0-.26,0-.4a5.63,5.63,0,0,0-.52-2.12l-.15-.31a2.85,2.85,0,0,0-.41-.54,8.22,8.22,0,0,0-1.18-.91,2.16,2.16,0,0,1-.23-.17,6.08,6.08,0,0,1-.89-.9,11.36,11.36,0,0,1-1.58-2.52c-.27-.52-.51-1.07-.77-1.62-.13-.28-.27-.55-.4-.83a32.5,32.5,0,0,1-1.58-3.87,38.3,38.3,0,0,1-1.12-4.15q-.21-1.08-.39-2.18a49.93,49.93,0,0,1-.55-6.92c-.06-4.4.12-8.92.44-13.49q.14-2,.32-4c.48-5.38,1.1-10.83,1.74-16.27.32-2.72.64-5.44.93-8.14.15-1.35.3-2.7.44-4.05,1.08-10.49,2.46-21.12,3.62-31.67.7-6.33,1.33-12.62,1.78-18.83l0-.31q.2-2.78.43-5.57.43-4.89,1-9.81,1.65-14.77,4.46-29.83a87.8,87.8,0,0,1,3.84-14.93c.24-.62.47-1.24.73-1.87s.54-1.24.82-1.86.59-1.23.9-1.84.64-1.21,1-1.81c.19-.33.42-.64.62-1q.61-.95,1.32-1.85c.25-.3.46-.61.72-.9.68-.79,1.68-1.54,2.53-2.55a7.18,7.18,0,0,0,.61-.91,11.19,11.19,0,0,0,1.11-3.11c.08-.35.15-.7.21-1A24.76,24.76,0,0,1,221.7,280c.18.14.39.26.57.4l.19.16a3.14,3.14,0,0,1,.92,1l.15.34a6,6,0,0,1,.24,1.46,11.12,11.12,0,0,0,.88,4.48c.68,1.17,2,1.44,3.09,1.8a29.77,29.77,0,0,1,3.9,1.57,7.13,7.13,0,0,0,.12,1.75c-.3.28-.56.58-.83.87.62-.51,1.26-1,1.9-1.47,0-.18-.07-.36-.1-.55a7.08,7.08,0,0,1,0-1.51,12.65,12.65,0,0,1,.57-2.71,21.53,21.53,0,0,1,4-7l.53-1.47c-.44-1.67.73-3.77,2.1-5.79l1.2-3.23-.24.34c-.24.35-.48.71-.76,1.09-1.81,2.57-4.06,5.74-3.36,8.31a23.46,23.46,0,0,0-4.42,7.79,14.68,14.68,0,0,0-.52,2.23,32,32,0,0,0-3.39-1.34c-1.14-.36-2.28-.66-2.76-1.52a10.4,10.4,0,0,1-.78-4.15,5.52,5.52,0,0,0-.46-2.09,4.29,4.29,0,0,0-1.28-1.41,23.35,23.35,0,0,0-3.47-2.18c.07-.52.12-1,.16-1.39,0-.23,0-.45.06-.67a17.49,17.49,0,0,0,0-2.06c0-.13,0-.26,0-.39,0-.56-.08-1.12-.16-1.66l0-.16a.25.25,0,0,1,0-.09,16.65,16.65,0,0,0-.39-1.78h0c-.08-.3-.21-.57-.31-.86a7.76,7.76,0,0,0-.33-.9v0l.62-.91a10,10,0,0,0,1-1.71,3.24,3.24,0,0,0,.27-1,1.42,1.42,0,0,0-.16-.86s0,0,0-.06a1.15,1.15,0,0,0-.79-.47,3.6,3.6,0,0,0-.77,0,16.59,16.59,0,0,0-3.67.63h0a14,14,0,0,0-2.75-1.78l-.14-.08a4.08,4.08,0,0,1,.5-.22,1.09,1.09,0,0,1,.26-.06c.06,0,.1,0,.11,0h0a1.39,1.39,0,0,1,.2.18l.1.09.09.07.22.13h0l.11,0,.16,0h.33a2.12,2.12,0,0,0,.47-.1h0a6.13,6.13,0,0,0,.77-.33c1.92-.94,3.83-1.89,5.74-2.81l.75-.36,2-.95.83-.38c.91-.41,1.84-.81,2.76-1.18s2.2-.87,3.34-1.28c.38-.14.77-.29,1.15-.41.61-.2,1.23-.39,1.83-.55a12.5,12.5,0,0,1,5-.48.45.45,0,0,0,.24,0,.84.84,0,0,0,.26-.16l0,0,1.43-1.32.95-.87.58-.54,1.18-1.09,1.82-1.68c.56-.18,1.1-.39,1.64-.6l.47-.19c.5-.21,1-.44,1.51-.69l.13-.06c.41-.21.83-.43,1.26-.67l.82-.44.55-1.36c-.51.26-1,.53-1.52.81l-.24.13a26.61,26.61,0,0,1-4.54,2l-.14,0-.28.17L243.61,247l-3.55,3.29-.9.83c-.13,0-.28,0-.42,0h0a11.2,11.2,0,0,0-1.93,0l-.61.07-.39,0-.32.07c-.48.09-1,.19-1.46.32s-1.21.34-1.82.54l-.78.28c-1.31.46-2.61,1-3.8,1.44-3.08,1.24-6.13,2.73-9.17,4.22l-3,1.49a5.31,5.31,0,0,1-.61.26.72.72,0,0,1-.49,0c-.1,0-.21-.18-.42-.34a1.08,1.08,0,0,0-.13-.09l-.07,0-.18-.06-.26,0h-.07a2.25,2.25,0,0,0-.47.1,7.25,7.25,0,0,0-1,.45,7,7,0,0,1-.7.34l-.14,0h0l-.15,0a14.51,14.51,0,0,1-2.35.49,19.72,19.72,0,0,0-3.73.69l-.19.07a4.49,4.49,0,0,1,.66-.78l.09-.09a9.35,9.35,0,0,1,1.89-1.3,26.07,26.07,0,0,1,4.42-1.92c.8-.26,1.59-.48,2.35-.65a.87.87,0,0,0,.56-.49,5.08,5.08,0,0,1,1.43-1.77,14.07,14.07,0,0,1,2.14-1.42c3.71-2.09,7.42-3.46,11.24-5.47s7.8-4.21,11.69-5.93,7.75-3.63,11.58-5.75c.84-.46,1.66-1,2.48-1.44l.58-1.41c-1.06.64-2.13,1.27-3.21,1.86-1.43.79-2.85,1.54-4.29,2.27s-2.87,1.44-4.31,2.12c-.95.45-1.91.88-2.87,1.31-4,1.75-7.89,3.92-11.79,6-2.78,1.47-5.58,2.61-8.42,4-1,.46-1.9,1-2.86,1.49l-.6.36a13.74,13.74,0,0,0-1.79,1.24,7.76,7.76,0,0,0-1.36,1.46c-.13.18-.24.38-.36.58l-1,.27c-.35.09-.71.2-1.07.32-.78.26-1.57.56-2.35.89s-1.55.71-2.3,1.13a12.69,12.69,0,0,0-1.67,1.07c-.19.15-.37.3-.55.47a6.27,6.27,0,0,0-1.4,1.89c-.24.17-.48.32-.7.5a16.47,16.47,0,0,0-3,3.09,15.94,15.94,0,0,0-1.16,1.81,14.59,14.59,0,0,0-.87,1.91,8.82,8.82,0,0,0-1.87,1.79,14,14,0,0,0-1.34,2.42c-.83,1.77-1.62,3.54-2.36,5.32-.37.89-.72,1.79-1,2.68s-.6,1.77-.86,2.65A62,62,0,0,0,188,294.52c-.21,1.7-.37,3.39-.49,5.06-.14,2-.24,4-.32,6-.26,6.28-.24,12.45-.42,18.68-.06,2.08-.14,4.16-.25,6.25,0,.79-.1,1.58-.16,2.37-.14,1.95-.31,3.9-.51,5.87-.59,5.9-1.38,11.86-2,17.77-.39,3.77-.79,7.54-1.16,11.31s-.68,7.52-1,11.26c-.22,3.08-.41,6.16-.52,9.21q-.08,2.28-.12,4.56c0,1.51,0,3,0,4.52,0,2-.06,4-.2,6q-.09,1.32-.22,2.66c-.09.89-.18,1.78-.28,2.67-.31,2.68-.68,5.39-1,8.11-.23,1.81-.45,3.62-.65,5.44-.1.91-.2,1.82-.27,2.73s-.2,2-.32,3.07-.25,2.06-.4,3.1q-.44,3.11-1.09,6.26c-.21,1-.45,2.1-.69,3.16-.75,3.16-1.64,6.34-2.73,9.51q-1.14,3.4-2.34,6.81t-2.44,6.81q-1.23,3.41-2.5,6.81t-2.58,6.81a72.35,72.35,0,0,0-3.59,12.6c-.11.59-.23,1.19-.33,1.78s-.2,1.48-.25,2.21a15.57,15.57,0,0,0,.34,4.94,10.85,10.85,0,0,0,.48,1.44,6.58,6.58,0,0,0,.54,1,1.86,1.86,0,0,0,.2.33,3.79,3.79,0,0,0,.49.57,2.92,2.92,0,0,0,.65.47l-.38.26-.69.5a7.93,7.93,0,0,0-1.41,1.29,5,5,0,0,0-.42.58l-.12.24a4.25,4.25,0,0,0-.45,1.6v.36a5,5,0,0,0,.55,2.46,2.39,2.39,0,0,0,.52.61l.39.27c.12.08.24.15.33.23a2,2,0,0,1,.28.23.88.88,0,0,1,.19.29,6.49,6.49,0,0,1,.36.95c.11.34.2.69.29,1a18.13,18.13,0,0,1,.32,1.8,24.1,24.1,0,0,1,.12,3.82c0,.66,0,1.32-.1,2,0,.4-.07.82-.11,1.23s-.06.81-.1,1.23-.09,1.11-.13,1.66c-.09,1.11-.19,2.22-.27,3.32-.14,1.91-.26,3.81-.39,5.71-.06.95-.12,1.9-.19,2.85l-.1,1.38c-.24,3.17-.67,6.41-1.05,9.65l-.17,1.39c-.21,1.84-.39,3.67-.57,5.49s-.35,3.65-.55,5.47c0,.48-.12,1-.17,1.48-.19,1.48-.38,3-.57,4.48-.13,1-.26,2-.37,3s-.2,2-.27,3c0,.45,0,.89-.06,1.34s-.05.9-.06,1.34q-.06,3.68-.15,7.36c-.06,2.46-.14,4.92-.25,7.39q-.08,1.86-.13,3.7c-.06,2.46-.08,4.9-.07,7.33,0,1.21,0,2.42,0,3.63,0,3.54,0,7.14.2,10.65.06,1.17.14,2.33.25,3.47a25.53,25.53,0,0,1,.07,3.66q0,.93-.1,1.89c0,.64-.09,1.28-.13,1.93l0,.4q-.09,1.22-.24,2.46c-.09.82-.22,1.66-.36,2.49-.06.31-.12.64-.21,1-.16.69-.36,1.45-.5,2.2a9.56,9.56,0,0,0-.16,1.11c0,.18,0,.36,0,.54s0,.35,0,.52a2.14,2.14,0,0,0,.07.29,4.42,4.42,0,0,0,.68,1.43l.13.2a1.91,1.91,0,0,1,.19.35l.17.42c.06.14.11.3.18.44a2.81,2.81,0,0,0,.24.42,1.89,1.89,0,0,0,.4.39,3.87,3.87,0,0,0,1.72.56c.33,0,.65.06,1,.06s.63,0,.93,0h.07a.59.59,0,0,1,.1.32,1.23,1.23,0,0,1-.21.52,6.18,6.18,0,0,1-.52.74,36.61,36.61,0,0,0-3.25,5.19.33.33,0,0,0-.37-.16.84.84,0,0,0-.58.6,17.23,17.23,0,0,0-.58,3.32,13.55,13.55,0,0,0,0,1.52.32.32,0,0,0,.27.35,2.38,2.38,0,0,0,.37,0,8.23,8.23,0,0,0-.28,1.75v.07c-.15,2.07-.28,4.14-.43,6.22-.12,1.82,0,3.44-.12,5.11,0,.45-.09.91-.15,1.37-.45,2.75-.52,5.37-.76,8l-.15,2.06c0,.43-.06.86-.13,1.27-.12,1.06-.32,2.16-.4,3.26,0,.3,0,.6,0,.92,0,2.49,1.25,3.81,1.82,5.63a4.59,4.59,0,0,0,.89,1.79,4.2,4.2,0,0,1,.46.67,1.67,1.67,0,0,0,.54.49,2.66,2.66,0,0,1-.45.28l-.13.06-.2.05a.81.81,0,0,0-.39.24,9.86,9.86,0,0,0-2.45,3.88,3.89,3.89,0,0,0-.12.78,5.68,5.68,0,0,0,.78,3c1.58,3.1,4.19,5.12,6.8,7a28.38,28.38,0,0,0,7,4.22,2.54,2.54,0,0,0,1.29.2,2.87,2.87,0,0,0,.47-.11,4.4,4.4,0,0,0,.75-.35s0,.06,0,.09v.28h0a1.09,1.09,0,0,0,.5.81,4.13,4.13,0,0,0,.75.3A2.66,2.66,0,0,0,173,713l.56-.18c2.11-.58,4.23-1.17,6.32-1.69,1-.24,2.08-.31,3.27-.68a7.11,7.11,0,0,0,1.16-.51,6.49,6.49,0,0,0,.89-.58,3,3,0,0,0,.73-.91l.44-.15q.43-.14.87-.33l.22-.07a2.65,2.65,0,0,0,.58-.24,1.18,1.18,0,0,0,.34-.31,3.52,3.52,0,0,0,.69-1.73h0v-.06a1.35,1.35,0,0,0-.19-.79.82.82,0,0,0-.71-.28,2.75,2.75,0,0,0-.71.17l-.37.12-.24.07a5.16,5.16,0,0,1-1.71,0,3.33,3.33,0,0,0-.73-.1.91.91,0,0,0-.6-.84l-.27-.07a.71.71,0,0,0-.45,0,1.14,1.14,0,0,0-.33.18,2.76,2.76,0,0,1-2.36-.38c-1.39-.84-2.28-2.59-4.05-3.33a3.16,3.16,0,0,0-1.39-.31,10.52,10.52,0,0,0-1-1c-.72-.84-.84-2-1.28-3.29a13.59,13.59,0,0,1-.63-5.5,28.83,28.83,0,0,1,1.16-5.89,4.16,4.16,0,0,0,.17-.89,3.58,3.58,0,0,0-.79-2.59,2.39,2.39,0,0,0-.92-.63,10.18,10.18,0,0,0,.35-1.9c.09-1.23-.12-2.45-1.05-3a7.21,7.21,0,0,1-2.32-2.36,7.7,7.7,0,0,1-.75-3.7,30,30,0,0,1,.06-3.39,36.12,36.12,0,0,1,1-6.07c.46-1.89,1.32-3.86,1.74-5.92a32.48,32.48,0,0,1,1-4,2.81,2.81,0,0,0,.69-.13,5,5,0,0,0,1.22-.64c0,.18-.08.37-.1.56h0a.41.41,0,0,0,.07.3l.09.07.13.08.34.16c.25.1.57.21.8.32a1.56,1.56,0,0,1,.32.12h0a6.28,6.28,0,0,1,1.36,1.12,7.78,7.78,0,0,1,1.85,3.06A38.38,38.38,0,0,1,180,661c.17,1,.18,2.06.28,3.11a6.73,6.73,0,0,0,.86,3,14.34,14.34,0,0,0,1.85,2.19.35.35,0,0,0,.32.08,2.27,2.27,0,0,0-.1.54,1.84,1.84,0,0,0,0,.62,1.92,1.92,0,0,0,.8,1,3.25,3.25,0,0,1,.74.69c.43.65.95,1.17,1.39,1.73a4.67,4.67,0,0,1,.58,1.38,17.81,17.81,0,0,1,1.14,4.83,4.48,4.48,0,0,0,.19,1.25,1.21,1.21,0,0,0,.9.88,1.87,1.87,0,0,0,.94-.1,1.91,1.91,0,0,0,.27-.13,4.23,4.23,0,0,1,1.5,1.5A3.44,3.44,0,0,1,192,685a4.41,4.41,0,0,0,.46,1.7,1.68,1.68,0,0,0,.66.62,1.29,1.29,0,0,0,1,.06,2.69,2.69,0,0,0,1-.64,3.36,3.36,0,0,0,1-2,2.16,2.16,0,0,0-.06-.69,8,8,0,0,1-.5-2.62,4.57,4.57,0,0,1,.08-.52,6,6,0,0,1,.46-1.26,9.11,9.11,0,0,0,.58-1.51l.05-.38a1.74,1.74,0,0,0-.19-1l0-.07a2.26,2.26,0,0,0-.81-1.76,11.89,11.89,0,0,0-1.24-1c-1.89-1.49-2.56-4.28-2.48-7.32l0-.3c0-.25,0-.48.06-.74a2.38,2.38,0,0,0-.39-1.68,1.12,1.12,0,0,0-.23-.24,7.46,7.46,0,0,0,.58-.81,3.44,3.44,0,0,0,.51-1.46,2.14,2.14,0,0,0-.07-.67,3.68,3.68,0,0,0-.64-1.18l-2.1-3a14.46,14.46,0,0,1-1-2.65c-.94-2.32-2-4.57-3.06-6.79a20.66,20.66,0,0,0-2.31-4.29,5.65,5.65,0,0,0-1.69-1.34,2.85,2.85,0,0,0-.37-.17.92.92,0,0,0,0-.17h0a7.81,7.81,0,0,0-.08-2.24,1.76,1.76,0,0,0-1.48-1.42,2.72,2.72,0,0,0-1,.16c-.4.14-.77.31-1.13.47a1.71,1.71,0,0,0-.5-1,5.4,5.4,0,0,0-.91-.62,11.49,11.49,0,0,1-3.62-3.65,3.47,3.47,0,0,0-2.11-1.27,17.06,17.06,0,0,1-2-.61c1.24-6.28,2.24-12.51,3-18.69.25-1.91.49-3.81.7-5.71s.41-3.79.58-5.67c.22-2.49.47-5,.72-7.52.11-1.25.24-2.52.35-3.77s.2-2.51.29-3.76c.17-2.43.3-4.84.35-7.22,0-1.63.05-3.26.09-4.9s.08-3.27.14-4.91c.1-3.28.25-6.57.49-9.89,0-.26,0-.52.07-.77l.11-1.54c.29-3.45.47-7,1.09-10.53.08-.5.18-1,.29-1.5.27-1.25.52-2.49.75-3.74.72-3.73,1.32-7.44,2.15-11.16q.85-3.85,1.78-7.72t1.87-7.75q.8-3.34,1.67-6.68c.12-.47.27-1,.45-1.45.1-.3.21-.61.33-.93a28.51,28.51,0,0,0,1-2.91c.06-.27.15-.53.2-.8a8.18,8.18,0,0,0,.11-.88c0-.11,0-.21,0-.32a6.44,6.44,0,0,0,1.89-2c.09-.14.16-.29.24-.44a8.85,8.85,0,0,0,.82-2.26,8.1,8.1,0,0,0,.12-.88c0-.16,0-.31,0-.47s0-.16,0-.24l.25-.06.25-.06.88-.25.52-.16.22-.07a11.51,11.51,0,0,0,2.09-.91c.22-.13.46-.28.69-.44a5.11,5.11,0,0,0,.69-.58,8.69,8.69,0,0,0,1.11-1.46c.17-.27.32-.54.47-.81a28,28,0,0,0,1.34-3m19.22-222.79-1,.69-.23.16c-.19-.2-.39-.39-.58-.58A14.72,14.72,0,0,1,217.85,263.29Zm.6,2.56-.3.44-.55.81a1,1,0,0,0-.14.32.48.48,0,0,0,0,.26v0a.06.06,0,0,0,0,0l-.11.05c-.29.13-.75.37-1.29.63a14,14,0,0,1-1.53.65,1.48,1.48,0,0,1-.51.11,2.18,2.18,0,0,1-.68-.5.84.84,0,0,1-.24-.59l.08-.26a2.7,2.7,0,0,1,.92-.86l2-1.4,1-.73,2.09-1.46a.37.37,0,0,1,.09.08.61.61,0,0,1,.08.39,2.07,2.07,0,0,1-.16.59,6,6,0,0,1-.36.66ZM197.67,486a26.49,26.49,0,0,1-1.26,2.84,6.45,6.45,0,0,1-1.68,2.2,9.33,9.33,0,0,1-2.42,1.16l-.21.07c-.17.05-1.22.39-1.87.53a2.37,2.37,0,0,1-.41.07h0a0,0,0,0,0,0,0,.42.42,0,0,0-.19,0,.68.68,0,0,0-.21.09,1,1,0,0,0-.19.16,1.2,1.2,0,0,0-.14.2v0a.65.65,0,0,0-.07.19.61.61,0,0,0,0,.21,3.94,3.94,0,0,1,.08,1.22,6.71,6.71,0,0,1-.94,2.91,4.66,4.66,0,0,1-1.12,1.28,6.49,6.49,0,0,0-.38-1.48,7,7,0,0,0-.41-.8c-.17-.32-.35-.64-.54-1-.27-.48-.57-1-.87-1.43a11.07,11.07,0,0,0-1-1.3,1.32,1.32,0,0,0-1.45-.26,3.17,3.17,0,0,0-.44.19,5,5,0,0,0-.64.4,7.4,7.4,0,0,0-.59.49,10.19,10.19,0,0,0-.73.71l-.62.69c-.4.47-.75.94-1.11,1.41s-.86,1.13-1.3,1.65a3.07,3.07,0,0,0-1,.15,9.78,9.78,0,0,0-2.07,1.1,8.77,8.77,0,0,1-1.8,1,2.51,2.51,0,0,1-.46.11,5.13,5.13,0,0,1-1.5-.1,4.61,4.61,0,0,0-1.82,0l-.37.1c-.51.17-1,.39-1.43.57l-.56,0h-.61a4.93,4.93,0,0,0-1.34.23l-.1,0c-.17.06-.36.16-.55.25a2.67,2.67,0,0,1-1.62-1.11,7.6,7.6,0,0,1-1.1-2.56,14.47,14.47,0,0,1-.33-4.63c0-.7.13-1.4.25-2.12a68.55,68.55,0,0,1,3.84-14.08q5.24-13.64,9.88-27.3a109,109,0,0,0,5.31-25.42c.64-7.21,1.94-14.48,2.45-21.63.15-2,.24-4.08.21-6.09-.06-6,.2-12.05.64-18.2.53-7.45,1.33-15,2.12-22.53.82-7.85,1.95-15.84,2.51-23.68.06-.8.11-1.59.15-2.38.48-8.43.34-16.61.69-24.95.08-2,.18-3.94.32-5.93A63.27,63.27,0,0,1,193,278.9q1.09-2.63,2.34-5.25a12.44,12.44,0,0,1,1.15-2.1,7.27,7.27,0,0,1,1.69-1.55.9.9,0,0,0,.33-.44,14.22,14.22,0,0,1,4.8-6.44.45.45,0,0,0,.35,0,8.69,8.69,0,0,1,1-.39c.29-.1.58-.17.87-.24.85-.19,1.72-.27,2.67-.4.43-.06.87-.13,1.32-.22s.71-.17,1.07-.28l.44.17.37.15.27.12.1,0c.24.12.49.25.72.39l.13.08.11.07c.28.17.55.34.81.53l.05,0,.42.32.45.35h0l.52.43a8.4,8.4,0,0,1,.65.64l-1.69,1.18-.38.27a4.59,4.59,0,0,0-.8.75,3.38,3.38,0,0,0-.34.53,2.14,2.14,0,0,0-.15.41,1.66,1.66,0,0,0-.07.39.91.91,0,0,0,0,.18,1.49,1.49,0,0,0,.23.76,1.52,1.52,0,0,0,.16.23,2.34,2.34,0,0,0,.42.37,3.43,3.43,0,0,0,.45.27,1.27,1.27,0,0,0,.84,0l.3-.09c.27-.09.55-.2.84-.33l.85-.39.75-.37.49-.24.41-.2c.09.23.18.45.26.69s.06.23.1.34c.13.45.24.92.33,1.39a1.79,1.79,0,0,0,0,.25c0,.08,0,.17,0,.25.07.46.11.93.15,1.41h0l0,.51a18.83,18.83,0,0,1,0,2l0,.31a3,3,0,0,1,0,.32c0,.46-.1,1-.18,1.64s-.19,1.32-.34,2a8.26,8.26,0,0,1-1.36,3.3c-.62.77-1.63,1.52-2.5,2.51a25.37,25.37,0,0,0-2.87,4,53.15,53.15,0,0,0-3.57,7.64A88.52,88.52,0,0,0,204,312.34a407.06,407.06,0,0,0-5.88,45.35l0,.31c-1.18,16.51-3.66,33.64-5.4,50.46-1.1,10.74-2.66,21.77-3.42,32.51-.33,4.6-.52,9.15-.46,13.59A40.55,40.55,0,0,0,192.52,472c1.08,2.17,1.87,4.49,3.78,6.08.68.54,1.36.83,1.69,1.44a4.86,4.86,0,0,1,.6,2.42m-29.42,19.81.38,0,.4.06a4.59,4.59,0,0,0,1.33,0,3.5,3.5,0,0,0,.66-.15,6.54,6.54,0,0,0,1.1-.5c.35-.2.69-.41,1-.62s.64-.4.94-.57a5.25,5.25,0,0,1,.53-.24c-.55.5-1.12,1-1.73,1.5a16.52,16.52,0,0,0-2.36,2.36A1.34,1.34,0,0,0,171,503a7.44,7.44,0,0,0-2.39-1.22A4.39,4.39,0,0,1,169.17,501.78Zm-1.74,129.48c-.25.13-.49.23-.75.35,0-.14,0-.27.06-.41V631a8.64,8.64,0,0,0,0-1c0-.31,0-.6-.06-.91s0-.59-.05-.86a5.88,5.88,0,0,0-.34-1.53A4,4,0,0,0,166,626a5.54,5.54,0,0,1-.39-1,6.12,6.12,0,0,1-.24-1.07c-.13-.74-.18-1.55-.28-2.4-.2-1.93-.39-3.87-.58-5.81a1.72,1.72,0,0,0,0-.25c.45-2.9.76-5.81,1-8.69.17-2.32.27-4.61.33-6.85.12-4.46.51-8.69.66-13.21.26-7.25-.26-14.15-.19-21.26q0-3.59.3-7.23c.34-4.73.92-9.53,1.59-14.4q.36-2.64.75-5.29c.28-1.91.51-3.8.64-5.67,0-.62.07-1.23.09-1.84.18-.72.36-1.45.55-2.18.37-1.42.75-2.85,1.06-4.28a11.38,11.38,0,0,0,.2-1.35c0-.09,0-.18,0-.26s0-.39,0-.58a14.26,14.26,0,0,0-.47-3.79c-.15-.63-.32-1.24-.49-1.85a17.33,17.33,0,0,0,.28-2,9,9,0,0,0,0-1.58,23.66,23.66,0,0,1-.4-4.27c0-.2,0-.41.07-.62a9.58,9.58,0,0,1,.31-1.34l0,0c.07-.1.16-.21.24-.32l.23-.37a3.23,3.23,0,0,0,.32-.94,2.69,2.69,0,0,0,0-.29c.1-.16.19-.33.31-.49a13.22,13.22,0,0,1,2.33-2.39,32.41,32.41,0,0,0,2.77-2.48h0c.32-.34.62-.7.9-1.06.72-.9,1.35-1.81,2-2.61a12.87,12.87,0,0,1,1.15-1.2,3.69,3.69,0,0,1,1.14-.76.57.57,0,0,1,.66.13,17.51,17.51,0,0,1,2.37,3.56,5.49,5.49,0,0,1,.69,2,5.05,5.05,0,0,1,0,1s0,.08,0,.13c0,.24,0,.49-.09.75-.33,1.87-1.36,3.86-1.92,6s-1.14,4.47-1.68,6.71c-1.25,5.17-2.51,10.33-3.65,15.49s-1.82,10-2.89,14.89a92.85,92.85,0,0,0-1.4,12.19c-.07.78-.13,1.56-.19,2.33-.48,6.68-.62,13.24-.72,19.77q-.07,3.53-.33,7.15c-.36,5-.92,10-1.37,15A285,285,0,0,1,167.43,631.25Zm-2-72.64q-.26,3.67-.31,7.3c0,3.58.08,7.1.17,10.61,0,.88,0,1.76.06,2.64,0,2.64.06,5.29,0,8l-.08,1.66c-.17,3.87-.49,7.62-.59,11.56,0,1.11-.07,2.24-.12,3.37s-.12,2.28-.2,3.43c-.1,1.33-.22,2.67-.37,4-.05-.41-.09-.82-.13-1.23-.1-.82-.16-1.66-.21-2.51-.06-1.28-.05-2.59,0-3.9s.05-2.65.08-4c0-.4,0-.76,0-1.14,0-1.14-.12-2.24-.24-3.31a43.13,43.13,0,0,1-.31-4.34q0-7.17.37-14.49c.08-1.63.19-3.26.3-4.9,0-.29,0-.59.07-.89l.13-1.76c.29-3.58.51-7.18.83-10.79.1-1.2.22-2.41.35-3.62.21-1.93.45-3.87.75-5.8.16-1,.33-1.94.53-2.91q.62-3.14,1.29-6.29c-.15,1-.29,2-.43,3.06-.09.59-.18,1.18-.25,1.77s-.17,1.22-.24,1.83C166.25,550.22,165.75,554.44,165.46,558.61Zm11.09,79.88c-.52.1-1.11,0-1.86.2l-.18,0a3.57,3.57,0,0,0-1.7,1.31l0,.06a.1.1,0,0,0,0,.05,2.52,2.52,0,0,0-.45.88,4.65,4.65,0,0,0-.15.78l-.13-.06a1.28,1.28,0,0,0-.55.08,3.05,3.05,0,0,0-.48.22,45.78,45.78,0,0,0-4.08,2.47c-.12-.85-.25-1.7-.36-2.57a4,4,0,0,0-.64-1.88,3.91,3.91,0,0,0-1.78-1,1.7,1.7,0,0,1-.81-.59h0c.56-.86,1.07-1.72,1.59-2.63h0l.22-.37a.92.92,0,0,1,.07-.14h0a20.77,20.77,0,0,0,1.15-2.55h0a14.29,14.29,0,0,0,1.42-.65l.2-.09h0c.64.27,1.33.42,1.94.62a3,3,0,0,1,1.77,1,12.33,12.33,0,0,0,3.82,3.82,4.71,4.71,0,0,1,.81.54A1,1,0,0,1,176.54,638.49Zm-10.69,7.84.57-.39.51-.34a46.24,46.24,0,0,1,4.16-2.55l.27-.12a.77.77,0,0,1,0,.15c0,.2-.09.4-.12.58a.5.5,0,0,1,0,.06c0,.14-.06.26-.1.39a1.33,1.33,0,0,0-.06.19.57.57,0,0,1,0,.11,1.65,1.65,0,0,0-.06.16,3.87,3.87,0,0,1-.2.48,1.32,1.32,0,0,1-.11.25,4.13,4.13,0,0,1-.39.64,7.3,7.3,0,0,1-.62.68,8.06,8.06,0,0,1-1,.76l-.26.16c-.33.22-.69.43-1.07.65-1.1.63-2.17,1.29-3.22,1.83a6.2,6.2,0,0,1-.72.31,1,1,0,0,1-.51.07h0a.49.49,0,0,1-.21-.09l0,0a.8.8,0,0,1-.21-.3,1.54,1.54,0,0,0-.06-.16,2.29,2.29,0,0,1-.11-.35s0-.08,0-.13a.07.07,0,0,1,0-.07l.1-.26a6.94,6.94,0,0,1,1.59-1.35l1.23-.87.16-.11.51-.35Zm23.8,33.7V680l.06-.11.24-.33c.2-.24.44-.5.62-.7a7.43,7.43,0,0,1,2.85-2h0a2,2,0,0,1,1.52.12,1.19,1.19,0,0,1,.43.34,1,1,0,0,1,.23.43,1,1,0,0,1,0,.33l0,.2c0,.06,0,.14-.06.22a7.85,7.85,0,0,1-.42,1,8.06,8.06,0,0,0-.58,1.58c0,.24-.08.48-.09.68a7.84,7.84,0,0,0,.54,2.92,1.12,1.12,0,0,1,0,.39,1.5,1.5,0,0,1-.49,1,1,1,0,0,1-.37.25.47.47,0,0,1-.39,0,1,1,0,0,1-.41-.4,3.23,3.23,0,0,1-.35-1.38,4.22,4.22,0,0,0-.42-1.72,4.94,4.94,0,0,0-1.18-1.34c-.13-.1-.26-.21-.39-.3l-.47-.27-.24-.13a2.55,2.55,0,0,1-.52-.32A.47.47,0,0,1,189.65,680Zm-5.42-10.54a1.79,1.79,0,0,1,.13-.55,3.48,3.48,0,0,1,.28-.59s0,0,0,0l.38-.69.06-.11a2.88,2.88,0,0,1,.44-.61,11.4,11.4,0,0,1,3.64-2.69l.12,0a1.14,1.14,0,0,1,.56,0l.29.06.18.11a1.39,1.39,0,0,1,.33.27c.05.07.12.1.17.17a1.6,1.6,0,0,1,.25,1.14c0,.22,0,.47-.06.74V667c-.09,3.22.61,6.27,2.73,7.95.24.18.55.41.85.67a3.1,3.1,0,0,0-1,.13l-.08,0a9.07,9.07,0,0,0-3.5,2.47c-.15.16-.42.45-.68.76s-.26.37-.39.57a19.38,19.38,0,0,0-1.16-5,5.27,5.27,0,0,0-.69-1.56c-.48-.59-1-1.11-1.36-1.7a3.69,3.69,0,0,0-.88-.83,1.46,1.46,0,0,1-.57-.69Zm-9.76-20.38a6.12,6.12,0,0,1,.19-1c.09-.33.19-.66.32-1a10.25,10.25,0,0,1,.92-1.76c.05-.07.08-.14.12-.21a10.89,10.89,0,0,1,3.36-3.22h0l.19,0a1,1,0,0,1,.16,0l.35.11.12.06.44.2.31.15a5,5,0,0,1,1.52,1.2,20.76,20.76,0,0,1,2.2,4.17c1.1,2.18,2.11,4.44,3.05,6.74a13.28,13.28,0,0,0,1.1,2.78l2.09,3a3.25,3.25,0,0,1,.55,1l0,.34a2,2,0,0,1-.3.81,5.08,5.08,0,0,1-.43.61h0a2,2,0,0,0-1.44,0l-.21.08a12.81,12.81,0,0,0-4.22,3.09,5.23,5.23,0,0,0-.68.95c-.18.3-.3.57-.48.87a.07.07,0,0,1,0,0l-.08,0a11.45,11.45,0,0,1-1.63-2,5.81,5.81,0,0,1-.76-2.64c-.1-1-.11-2.07-.3-3.16a38.54,38.54,0,0,0-1.63-6.19,8.94,8.94,0,0,0-2-3.31,7.89,7.89,0,0,0-1.48-1.2l-.24-.1-.32-.14-.75-.28Zm-3.46-.87c-.12-.24-.21-.58-.39-.89a3,3,0,0,1-.17-.36l.07-.07c.14-.16.29-.29.43-.48a6.65,6.65,0,0,0,.58-.94c.05-.09.09-.19.15-.29s.18-.43.25-.64.08-.23.11-.33.11-.38.14-.54l.15-.21a5.51,5.51,0,0,0,.57-.94c0-.11.1-.23.13-.34a2.38,2.38,0,0,0,.07-.35c.08-.38.11-.7.18-.92l.17-.36.08-.11a1.81,1.81,0,0,1,.89-.66l.09,0c.49-.13,1-.08,1.66-.18a2.39,2.39,0,0,0,.31-.06l.3-.09.08,0c.23-.09.44-.17.64-.27a12.7,12.7,0,0,1,1.18-.5,1.79,1.79,0,0,1,.65-.1,1.14,1.14,0,0,1,.93.94,5.92,5.92,0,0,1,.07,1.36.91.91,0,0,1-.19-.05,1.37,1.37,0,0,0-.69,0l-.23.11a12.67,12.67,0,0,0-4,3.8,11.57,11.57,0,0,0-1.42,2.95c-.13.12-.27.24-.4.34a3.85,3.85,0,0,1-1.1.6,1.55,1.55,0,0,1-.78.07l0,0-.15,0C171.24,648.65,171.12,648.5,171,648.24Zm-.11,30.5a8.38,8.38,0,0,1-.22,1.36,2.59,2.59,0,0,0-.59.07l-.36.1a7.51,7.51,0,0,0-2.6,1.62,26,26,0,0,0-2.33,2.54l-.5.62-.19,0h0a2.66,2.66,0,0,1-.77-.37s0,0,0,0a4.46,4.46,0,0,1-.63-.59l0,0a5.31,5.31,0,0,1-.5-.74,5.52,5.52,0,0,1-.72-2.22,2.6,2.6,0,0,1,0-.42,3.84,3.84,0,0,1,.09-.6c0-.2.1-.41.17-.64s.21-.69.34-1.06c0-.11.07-.21.1-.32v0c.1-.35.18-.67.26-1a46.51,46.51,0,0,0,1.24-7.46c0-.44.09-.88.12-1.31.1-1.39.13-2.75.23-4.1,0-.58.09-1.16.17-1.74.05-.41.09-.81.12-1.21a15.37,15.37,0,0,0,0-2.64v-.07c0-.13,0-.3-.06-.46s0,0,0-.07a1.59,1.59,0,0,0,0-.31c0-.09,0-.18-.06-.28a.49.49,0,0,0-.05-.21s0-.06,0-.08a2.18,2.18,0,0,0-.19-.53c-.26-.42-.58-.65-.7-.94a5,5,0,0,1-.45-2.58,8.51,8.51,0,0,1,.13-.92c0-.19.09-.37.15-.56l.14,0,.24-.07a8.28,8.28,0,0,0,.9-.38c1.14-.57,2.24-1.26,3.32-1.87l.14-.09.58-.33.27-.17c.19-.12.37-.23.55-.37l.3-.21.14-.1c0,.11.11.22.16.32a5.39,5.39,0,0,1,.34.81,1.43,1.43,0,0,0,.63.73,30.84,30.84,0,0,0-1.06,4.37c-.38,1.87-1.21,3.81-1.72,5.86a37.58,37.58,0,0,0-1,6.29c-.09,1.2-.1,2.37-.07,3.52a8.44,8.44,0,0,0,.86,4.07,7.64,7.64,0,0,0,2.51,2.55C170.8,676.8,171,677.67,170.91,678.74Zm-8-14.27c-.1,1.38-.13,2.75-.23,4.1,0,.42-.07.85-.11,1.27-.16,1.44-.31,2.86-.55,4.3a27.57,27.57,0,0,1-.09-3.42c0-1.26,0-2.42.13-3.6a20.06,20.06,0,0,1,.51-3.38c.19-.71.39-1.4.61-2.09,0,.34-.06.67-.11,1C163,663.27,163,663.88,162.93,664.47Zm10.76,36.14a2.13,2.13,0,0,0-.26.21l-3.1,3.26a6.15,6.15,0,0,0-.53.63,2.31,2.31,0,0,0-.27.61,2.36,2.36,0,0,1-.2-.51A13.53,13.53,0,0,1,169,703c0-.18-.06-.34-.07-.47a57.62,57.62,0,0,0-1.35-5.71,30.5,30.5,0,0,0-2.68-7.23,5.61,5.61,0,0,1-.76-1.7c.11-.15.24-.31.36-.49a4.93,4.93,0,0,0,.6-1.16,2.93,2.93,0,0,0,.19-.59.08.08,0,0,0,0,0,.39.39,0,0,0-.08-.37.61.61,0,0,0,.1-.13l.12-.14a23.57,23.57,0,0,1,2.14-2.33,5.9,5.9,0,0,1,2.05-1.3l.26-.08a1.49,1.49,0,0,1,.47,0,1.52,1.52,0,0,1,.47.09,1.9,1.9,0,0,1,.4.21,1.66,1.66,0,0,1,.39.34,2.79,2.79,0,0,1,.62,2,2.86,2.86,0,0,1-.11.62,29.49,29.49,0,0,0-1.2,6.16,14.78,14.78,0,0,0,.66,5.87c.42,1.14.54,2.47,1.41,3.5A4.69,4.69,0,0,0,173.68,700.61Zm9.57,4.64a1.38,1.38,0,0,0-.2.15,6.07,6.07,0,0,1-.56.44,4.34,4.34,0,0,0-.8.73l-.09.14a5.5,5.5,0,0,0-.76.79c-.08.11-.17.23-.29.39a1.54,1.54,0,0,0-.21.52,38.25,38.25,0,0,1-4.8-1.36h0a8.31,8.31,0,0,1-.89-.39,7,7,0,0,0-2.66-.4,2.9,2.9,0,0,1-.46-.09.76.76,0,0,1-.18,0l-.08,0a1.41,1.41,0,0,1-.24-.1,1.89,1.89,0,0,1-.2-.09.67.67,0,0,1-.18-.18.56.56,0,0,1-.17-.45h0l.05-.13a3.78,3.78,0,0,1,.33-.39c1-1.08,2.06-2.17,3.1-3.26,0,0,.08,0,.13-.07a.69.69,0,0,1,.2-.14,1,1,0,0,1,.32,0,1.35,1.35,0,0,1,.49.08,3.55,3.55,0,0,1,.52.17c1.52.6,2.39,2.31,4,3.31a3.59,3.59,0,0,0,3.11.4h0l.23-.14.22.07Zm0,2.75-.26,0-.65.07c-.2,0-.41,0-.63.07h0a.26.26,0,0,1-.11,0h-.18l.14-.19a4,4,0,0,1,.63-.62l.21-.3a2.29,2.29,0,0,1,.41-.35l.08-.07a5.89,5.89,0,0,0,.67-.55l.09,0,.09-.06.17,0a.79.79,0,0,1,.24,0l.43.06a5.87,5.87,0,0,0,2,0l.4-.12.37-.12a1.91,1.91,0,0,1,.45-.1l.13,0a.52.52,0,0,1,0,.3h0a1.94,1.94,0,0,1-.28.77l-.37.12-.12.05-.81.3-.29.1-.4.12h0c-.31.1-.6.2-.87.26A11.45,11.45,0,0,1,183.27,708Zm-11.85,3.46a2.54,2.54,0,0,1,.13-.52v0l.11-.08v0h0a2.2,2.2,0,0,0,.27-.24l.3-.37,0-.06.15-.23.09-.16s0,0,0,0a1,1,0,0,0,.25-.11,17.88,17.88,0,0,0,2.26-1.37h0A47.39,47.39,0,0,0,180,709.6h0a1.76,1.76,0,0,0,1-.06,3,3,0,0,0,.52-.25h0c.48,0,1-.08,1.46-.14s.84-.13,1.25-.21l-.11.06a5.45,5.45,0,0,1-.94.41c-1,.33-2,.38-3.19.67-2.1.51-4.24,1.1-6.34,1.68l-.61.2a2,2,0,0,1-.84.15,3.34,3.34,0,0,1-.58-.22.42.42,0,0,1-.2-.33Zm-.23-3a12.81,12.81,0,0,0-2.1-1.59.4.4,0,0,1-.13-.08,5.18,5.18,0,0,1-.54-.47,4,4,0,0,1-.49-.53c-.33-.36-.63-.74-1-1.16-1.35-1.68-2.93-3-4.14-4.74l-3.72-5.27a2.14,2.14,0,0,1-.38-.71s0-.08,0-.11a2.17,2.17,0,0,1,0-.39v-.07a.55.55,0,0,1,.07-.28,9.56,9.56,0,0,1,.56-.87,1.43,1.43,0,0,0,.14-.22c.19-.25.36-.47.56-.69A12,12,0,0,1,162.6,689c.14-.09.29-.21.45-.3l.07,0,0,0a2.34,2.34,0,0,0,.08.33,3,3,0,0,0,.24.57s0,0,0,.06a5.91,5.91,0,0,0,.46.84h0a12.81,12.81,0,0,1,.82,1.59,8.69,8.69,0,0,1,.34.91,1.55,1.55,0,0,1,.13.27c.17.5.34,1,.48,1.5l.38,1.27c.15.5.29,1,.45,1.52a52.78,52.78,0,0,1,1.32,5.64c.05.35.13,1,.26,1.66a7,7,0,0,0,.26,1,2.88,2.88,0,0,0,.45.83,1.09,1.09,0,0,0,.26.27,1.21,1.21,0,0,0,.85.2l.16,0,.07,0h0s0,0,0,0l.38.19.13,0a5.23,5.23,0,0,0,.76.15,6.52,6.52,0,0,1,2.4.31.74.74,0,0,0,.16.07,1.63,1.63,0,0,1-.2.14c-.39.24-.79.47-1.17.67h0l-.28.12-.12,0-.16.07a.63.63,0,0,1-.48,0C171.52,708.84,171.38,708.73,171.19,708.51ZM158,692.65l-.09.13s0,0,0,0h0a1.64,1.64,0,0,0-.19.49,2,2,0,0,0-.07.33v.12a2.58,2.58,0,0,0,.06.8,2.66,2.66,0,0,0,.47,1c1.24,1.76,2.5,3.51,3.72,5.27a39.41,39.41,0,0,0,3.15,3.59c.35.38.69.76,1,1.18s.65.79,1,1.18a7.57,7.57,0,0,0,1.14,1.07,13.47,13.47,0,0,1,2.13,1.59,1.77,1.77,0,0,0,.74.55.74.74,0,0,0,.23,0l0,0-.23.17a4.47,4.47,0,0,1-1.29.78l-.28.08a2,2,0,0,1-.93-.18,27.59,27.59,0,0,1-6.88-4.14c-2.59-1.92-5.14-3.88-6.61-6.82a4.82,4.82,0,0,1-.7-2.57,4.47,4.47,0,0,1,.07-.55,8.08,8.08,0,0,1,1.9-3h.06l.23-.09A4.5,4.5,0,0,0,158,692.65Zm-3.66-10.07c.07-1,.27-2.09.41-3.19.07-.46.1-.9.13-1.35l.15-2c.24-2.67.32-5.26.76-7.91.07-.5.12-1,.15-1.47.13-1.78,0-3.4.13-5.11.15-2.07.27-4.15.42-6.23v-.06a6,6,0,0,1,.31-1.62h0a10.08,10.08,0,0,0,2.29-1.29c.75-.53,1.5-1.12,2.24-1.69h0a1.06,1.06,0,0,1,0,.14,1.33,1.33,0,0,0,.37.51s.1,0,.13.07,0,0,.07,0h0c-.07.25-.16.51-.21.76a8.49,8.49,0,0,0-.17,1.18,5.76,5.76,0,0,0,.53,3c.24.46.56.69.71,1a1.1,1.1,0,0,1,.12.33,8,8,0,0,1,.22,1.31h0a36.3,36.3,0,0,0-1.59,4.84,20,20,0,0,0-.56,3.61c-.09,1.22-.1,2.41-.14,3.64a27.27,27.27,0,0,0,.47,6.12c-.08.28-.13.55-.2.79h0c-.13.35-.24.73-.37,1.11a9.28,9.28,0,0,0-.39,1.81,3.21,3.21,0,0,0,0,.58,5.8,5.8,0,0,0,.82,2.53h0c.08.13.15.25.23.36s0,0,0,0,0,0,0,.05a.27.27,0,0,0,.11.15,2.92,2.92,0,0,0,.17.27s0,0,.05.05a4.76,4.76,0,0,0,.7.68.07.07,0,0,1,.05,0,3.41,3.41,0,0,0,.91.45l0,0h0c.14,0,.33,0,.47.07l.12,0v0a3.32,3.32,0,0,1-.39.72,1,1,0,0,1-.13.17,4.41,4.41,0,0,1-.27.36c-.1,0-.22.1-.34.16l-.16.08a13.51,13.51,0,0,0-4,3.59,1.86,1.86,0,0,1-.7.12,1.69,1.69,0,0,1-.32,0,.91.91,0,0,1-.5-.4,4.35,4.35,0,0,0-.51-.75,4,4,0,0,1-.74-1.54c-.65-2-1.77-3.24-1.78-5.36A6.66,6.66,0,0,1,154.37,682.57Zm6.26-39.09a7.67,7.67,0,0,0,.62-.9,2.69,2.69,0,0,0,.41-1.13h0v-.06a1.13,1.13,0,0,0-.08-.47h0c.34-.44.64-.88.94-1.3h0a2.71,2.71,0,0,0,.89.59A3.54,3.54,0,0,1,165,641a1.94,1.94,0,0,1,.32.66c.06.26.11.56.15.88.13.89.27,1.79.4,2.7-.75.5-1.5,1-2.24,1.55a9,9,0,0,0-2,1.73,2,2,0,0,0-.46,1.12c-.79.63-1.58,1.23-2.37,1.79l0,0a8.46,8.46,0,0,1-2,1.13l-.09,0a2.9,2.9,0,0,1-.5.08c0-.36,0-.72,0-1.08s.09-.72.13-1.08a.85.85,0,0,0,.41-.41A33.46,33.46,0,0,1,160.63,643.48Zm-1.18-136.69a2.55,2.55,0,0,1,.36-1.17,4.94,4.94,0,0,1,1.33-1.33,16.93,16.93,0,0,1,1.93-1.29,4.94,4.94,0,0,1,.7-.33l.07,0a6.25,6.25,0,0,1,2.21-.15l.13,0a7.3,7.3,0,0,1,4,1.46c.18.12.22.45.31.94,0,.05,0,.11,0,.17a2,2,0,0,1,0,.26,1.46,1.46,0,0,1-.19.65,4.17,4.17,0,0,1-.5.68l-.2.24a7.23,7.23,0,0,0-1.65,4,5.73,5.73,0,0,0,.2,2c.41,1.42.82,2.84,1.2,4.27q.29,1,.54,2l0,0a13.09,13.09,0,0,1,.42,4.07,10.57,10.57,0,0,1-.2,1.43c-.18.82-.39,1.64-.6,2.48-.35,1.35-.71,2.71-1,4.07h0a2.18,2.18,0,0,1-.06.25q-1.67,7.13-3,14.22c-1.55,7.9-1.86,15.66-2.48,23.27-.06.89-.14,1.78-.2,2.66q-.71,9.87-.68,19.47c0,3.15.65,5.76.59,8.76a79.62,79.62,0,0,0,.16,10.53c.21,1.8.4,3.62.57,5.44.12,1.22.24,2.44.37,3.67.09.84.16,1.68.25,2.52a12.55,12.55,0,0,0,1,4.74,5.48,5.48,0,0,1,.64,2.75,15.91,15.91,0,0,1,.07,1.77,4,4,0,0,1-.13.69c0,.06,0,.11,0,.17l-.1.28c-.07.24-.18.48-.28.73s-.14.39-.23.59a.85.85,0,0,1-.07.13c-.2.43-.41.87-.66,1.31l0,0c-.6,1.11-1.24,2.15-1.91,3.17-.41.6-.83,1.19-1.28,1.79a9.87,9.87,0,0,1-1.95,0,2.5,2.5,0,0,1-1.68-.7c-.27-.35-.42-1-.78-1.6a3.93,3.93,0,0,1-.77-1.63,3.82,3.82,0,0,1,0-.84c.09-1.22.61-2.79.84-4.18.29-1.71.5-3.41.62-5.07,0-.14,0-.27,0-.41a47.55,47.55,0,0,0,.17-7.65c-.45-4.5-.4-9.29-.46-14s-.06-9.68.17-14.6.32-9.88.4-14.78c0-.85.06-1.73.12-2.61.27-3.86,1-8,1.38-11.91.4-3.67.7-7.31,1.12-11s.94-7.41,1.22-11.09l.1-1.39c.2-2.86.37-5.71.58-8.56.12-1.65.25-3.3.4-5,.07-.83.14-1.65.2-2.47a26,26,0,0,0-.36-7.92,10.61,10.61,0,0,0-.71-2.14c-.35-.7-.95-.88-1.35-1.22a3.16,3.16,0,0,1-.83-2.51Zm9.76,5.48a4.22,4.22,0,0,1-.16-.8,5.39,5.39,0,0,1,0-.87,5.29,5.29,0,0,1,.25-1.23,8.63,8.63,0,0,0,0,1.11c.07,1.15.3,2.13.41,3.23V514C169.54,513.42,169.37,512.84,169.21,512.27Z"/><path class="cls-3" d="M474.06,559.25c-.06-.77-.12-1.55-.19-2.33a92.84,92.84,0,0,0-1.4-12.19c-1.07-4.93-1.79-9.88-2.89-14.9s-2.39-10.33-3.65-15.5q-.82-3.35-1.68-6.71c-.56-2.13-1.6-4.12-1.92-6,0-.26-.07-.51-.09-.75,0,0,0-.08,0-.13a5,5,0,0,1,0-1,5.49,5.49,0,0,1,.69-2,17.51,17.51,0,0,1,2.37-3.56A.57.57,0,0,1,466,494a3.69,3.69,0,0,1,1.14.76,12.85,12.85,0,0,1,1.15,1.2c.68.8,1.31,1.71,2,2.61.29.36.58.71.9,1.06h0a32.42,32.42,0,0,0,2.77,2.48,13.23,13.23,0,0,1,2.33,2.39c.11.16.2.33.31.49a2.69,2.69,0,0,0,0,.29,3.23,3.23,0,0,0,.32.94l.23.37c.08.11.16.22.24.32l0,0a9.59,9.59,0,0,1,.31,1.34c0,.21.05.42.07.62a23.65,23.65,0,0,1-.4,4.27,9,9,0,0,0,0,1.58,17.32,17.32,0,0,0,.28,2c-.17.61-.34,1.23-.49,1.85a14.26,14.26,0,0,0-.47,3.79c0,.19,0,.38,0,.58s0,.18,0,.26a11.4,11.4,0,0,0,.2,1.35c.32,1.42.69,2.85,1.06,4.28.19.73.38,1.46.55,2.18,0,.61,0,1.22.09,1.84.13,1.87.36,3.76.64,5.67s.51,3.53.75,5.29c.67,4.88,1.25,9.68,1.59,14.4q.26,3.64.3,7.23c0,.73,0,1.45,0,2.17h1c0-.59,0-1.16,0-1.75q0-3.63-.31-7.3c-.3-4.17-.79-8.39-1.36-12.65-.08-.61-.15-1.22-.24-1.83s-.16-1.18-.25-1.77c-.14-1-.28-2-.43-3.06q.67,3.15,1.29,6.29c.19,1,.37,1.94.53,2.91.31,1.94.55,3.87.75,5.8.13,1.21.25,2.42.35,3.62.28,3.26.5,6.51.75,9.74h1c-.55-7.16-.92-14.46-2.37-21.88q-1.37-7.08-3-14.22a2.17,2.17,0,0,1-.06-.25h0c-.32-1.36-.69-2.72-1-4.07-.21-.83-.41-1.66-.6-2.48a10.56,10.56,0,0,1-.2-1.43,13.09,13.09,0,0,1,.42-4.07l0,0q.25-1,.54-2c.38-1.43.79-2.85,1.2-4.27a5.73,5.73,0,0,0,.2-2,7.23,7.23,0,0,0-1.65-4l-.2-.24a4.15,4.15,0,0,1-.5-.68,1.47,1.47,0,0,1-.19-.65,2,2,0,0,1,0-.26c0-.05,0-.11,0-.17.09-.49.12-.82.31-.94a7.3,7.3,0,0,1,4-1.46l.13,0a6.25,6.25,0,0,1,2.21.15l.07,0a4.91,4.91,0,0,1,.7.33,17,17,0,0,1,1.93,1.29,4.94,4.94,0,0,1,1.33,1.33,2.55,2.55,0,0,1,.36,1.17v.26a3.16,3.16,0,0,1-.83,2.51c-.41.34-1,.53-1.35,1.22a10.6,10.6,0,0,0-.71,2.14,26,26,0,0,0-.36,7.92c.06.82.13,1.65.2,2.47.15,1.66.28,3.31.4,5,.2,2.85.37,5.7.58,8.56l.1,1.39c.29,3.68.81,7.41,1.22,11.09s.72,7.29,1.12,11c.27,2.44.62,4.94.93,7.41h1c0-.38-.09-.76-.14-1.14-.19-1.5-.38-3-.57-4.48-.06-.49-.13-1-.17-1.48-.2-1.83-.37-3.65-.55-5.47s-.36-3.65-.57-5.49l-.17-1.39c-.38-3.24-.81-6.48-1.05-9.65l-.1-1.38c-.07-1-.14-1.91-.19-2.85-.12-1.9-.25-3.8-.39-5.71-.08-1.1-.18-2.21-.27-3.32,0-.55-.08-1.1-.13-1.66s-.07-.82-.1-1.23-.08-.83-.11-1.23c0-.68-.08-1.34-.1-2a24.1,24.1,0,0,1,.12-3.82,18.18,18.18,0,0,1,.32-1.8c.09-.35.18-.71.29-1a6.51,6.51,0,0,1,.36-.95.88.88,0,0,1,.19-.29,2,2,0,0,1,.28-.23c.1-.08.22-.15.33-.23l.39-.27a2.39,2.39,0,0,0,.52-.61,5,5,0,0,0,.55-2.46v-.36a4.26,4.26,0,0,0-.45-1.6l-.12-.24a5,5,0,0,0-.42-.58,7.94,7.94,0,0,0-1.41-1.29l-.69-.5-.38-.26a2.91,2.91,0,0,0,.65-.47,3.79,3.79,0,0,0,.49-.57,1.87,1.87,0,0,0,.2-.33,6.59,6.59,0,0,0,.54-1,10.82,10.82,0,0,0,.48-1.44,15.57,15.57,0,0,0,.34-4.94c-.05-.73-.14-1.47-.25-2.21s-.22-1.19-.33-1.78a72.35,72.35,0,0,0-3.59-12.6q-1.31-3.4-2.58-6.81t-2.5-6.81q-1.25-3.41-2.44-6.81T475,450.05c-1.09-3.17-2-6.35-2.73-9.51-.25-1.05-.48-2.11-.69-3.16q-.65-3.15-1.09-6.26c-.15-1-.28-2.07-.4-3.1s-.23-2.05-.32-3.07-.18-1.82-.27-2.73c-.2-1.82-.42-3.63-.65-5.44-.35-2.72-.73-5.42-1-8.11-.1-.89-.2-1.78-.28-2.67s-.16-1.77-.22-2.66c-.14-2-.22-4-.2-6,0-1.5,0-3,0-4.52s-.07-3-.12-4.56c-.12-3.05-.3-6.12-.52-9.21-.27-3.74-.59-7.49-1-11.25s-.77-7.54-1.16-11.31c-.62-5.91-1.4-11.88-2-17.77-.2-2-.37-3.92-.51-5.87-.06-.79-.11-1.58-.16-2.37-.12-2.09-.2-4.18-.25-6.25-.17-6.23-.16-12.4-.42-18.68-.08-2-.18-4-.32-6-.12-1.67-.27-3.36-.49-5.06a62,62,0,0,0-2.11-10.39c-.26-.88-.55-1.77-.86-2.65s-.66-1.78-1-2.68c-.74-1.78-1.53-3.56-2.36-5.32a14,14,0,0,0-1.34-2.42,8.82,8.82,0,0,0-1.87-1.79,14.58,14.58,0,0,0-.87-1.91,15.9,15.9,0,0,0-1.16-1.81,16.49,16.49,0,0,0-3-3.09c-.23-.18-.47-.34-.7-.5a6.27,6.27,0,0,0-1.4-1.89c-.18-.17-.36-.32-.55-.47a12.68,12.68,0,0,0-1.67-1.07c-.75-.42-1.53-.79-2.3-1.13s-1.57-.64-2.35-.89c-.36-.12-.72-.23-1.07-.32l-1-.27c-.12-.2-.23-.39-.36-.58a7.77,7.77,0,0,0-1.36-1.46,13.76,13.76,0,0,0-1.79-1.23l-.6-.36c-1-.54-1.91-1-2.86-1.49-2.84-1.39-5.64-2.53-8.42-4-3.9-2.05-7.81-4.22-11.79-6-1-.42-1.92-.86-2.87-1.31-1.44-.67-2.87-1.39-4.31-2.12s-2.86-1.48-4.29-2.27c-1.08-.6-2.15-1.23-3.21-1.86l.58,1.41c.82.49,1.65,1,2.48,1.44,3.83,2.12,7.71,4,11.58,5.75s7.79,3.87,11.69,5.93,7.54,3.38,11.24,5.47a14.06,14.06,0,0,1,2.14,1.42,5.08,5.08,0,0,1,1.43,1.77.87.87,0,0,0,.56.49c.76.17,1.55.39,2.35.65a26,26,0,0,1,4.42,1.92,9.34,9.34,0,0,1,1.89,1.3l.09.09a4.49,4.49,0,0,1,.66.78l-.19-.07a19.71,19.71,0,0,0-3.73-.69,14.5,14.5,0,0,1-2.35-.49l-.15,0h0l-.14,0a7,7,0,0,1-.7-.34,7.25,7.25,0,0,0-1-.45,2.22,2.22,0,0,0-.47-.1h-.07l-.26,0-.18.06-.07,0a1.09,1.09,0,0,0-.13.09c-.2.16-.32.31-.42.34a.72.72,0,0,1-.49,0,5.38,5.38,0,0,1-.61-.26l-3-1.49c-3-1.49-6.09-3-9.17-4.22-1.19-.48-2.48-1-3.8-1.44l-.78-.28c-.6-.2-1.22-.38-1.82-.54s-1-.23-1.46-.32l-.32-.07-.39,0-.61-.07a11.22,11.22,0,0,0-1.93,0h0c-.14,0-.28,0-.42,0l-.9-.83L404.63,247l-1.46-1.34-.28-.17-.14,0a26.63,26.63,0,0,1-4.54-2l-.24-.13c-.51-.28-1-.55-1.52-.81l.55,1.36.82.44c.42.24.85.46,1.26.67l.13.06c.51.25,1,.48,1.51.69l.47.19c.54.21,1.08.42,1.64.6l1.82,1.68,1.18,1.09.58.54.95.87,1.43,1.32,0,0a.84.84,0,0,0,.26.16.46.46,0,0,0,.24,0,12.5,12.5,0,0,1,5,.48c.6.16,1.21.34,1.83.55.38.13.77.27,1.15.41,1.14.41,2.28.85,3.34,1.28s1.85.77,2.76,1.18l.83.38,2,.95.75.36c1.91.92,3.81,1.87,5.74,2.81a6.13,6.13,0,0,0,.77.33h0a2.12,2.12,0,0,0,.47.1H434a1.29,1.29,0,0,0,.27,0l.16,0,.11,0h0l.22-.13.09-.07.1-.09a1.38,1.38,0,0,1,.2-.18h0s.05,0,.11,0a1.08,1.08,0,0,1,.26.06,4,4,0,0,1,.5.22l-.14.08a14,14,0,0,0-2.75,1.77h0a16.58,16.58,0,0,0-3.67-.63,3.58,3.58,0,0,0-.77,0,1.14,1.14,0,0,0-.79.47s0,0,0,.06a1.42,1.42,0,0,0-.16.86,3.24,3.24,0,0,0,.27,1,10,10,0,0,0,1,1.71l.62.91v0a7.76,7.76,0,0,0-.33.9c-.1.29-.23.56-.31.86h0a16.63,16.63,0,0,0-.39,1.78.25.25,0,0,1,0,.09l0,.16c-.09.54-.13,1.1-.16,1.66,0,.13,0,.26,0,.39a17.49,17.49,0,0,0,0,2.06c0,.22,0,.44.06.67,0,.39.08.87.16,1.39a23.33,23.33,0,0,0-3.47,2.18,4.29,4.29,0,0,0-1.28,1.41,5.52,5.52,0,0,0-.46,2.09,10.4,10.4,0,0,1-.78,4.15c-.48.87-1.62,1.16-2.76,1.52a32,32,0,0,0-3.39,1.34,14.68,14.68,0,0,0-.52-2.23,23.46,23.46,0,0,0-4.42-7.79c.7-2.57-1.54-5.75-3.36-8.31-.28-.37-.52-.74-.76-1.09l-.24-.34,1.2,3.23c1.38,2,2.54,4.12,2.1,5.79l.53,1.47a21.53,21.53,0,0,1,4,7,12.65,12.65,0,0,1,.57,2.71,7.08,7.08,0,0,1,0,1.51c0,.19-.06.37-.1.55.64.48,1.27,1,1.9,1.47-.27-.29-.53-.59-.83-.87a7.13,7.13,0,0,0,.12-1.75,29.75,29.75,0,0,1,3.9-1.57c1.08-.36,2.41-.64,3.09-1.8a11.12,11.12,0,0,0,.88-4.48,6,6,0,0,1,.24-1.46l.15-.34a3.14,3.14,0,0,1,.92-1l.19-.16c.18-.14.39-.26.57-.4a24.83,24.83,0,0,1,2.28-1.44c.06.34.13.69.21,1a11.19,11.19,0,0,0,1.11,3.11,7.15,7.15,0,0,0,.61.91c.84,1,1.85,1.75,2.53,2.55.26.29.47.6.72.9q.71.9,1.32,1.85c.2.32.43.62.62,1q.51.9,1,1.81c.32.61.62,1.22.9,1.84s.56,1.24.82,1.86.5,1.24.73,1.87a87.81,87.81,0,0,1,3.84,14.93Q446,327.18,447.67,342q.54,4.92,1,9.81.23,2.79.43,5.56l0,.31c.44,6.21,1.08,12.51,1.78,18.83,1.16,10.54,2.55,21.18,3.62,31.67.14,1.35.28,2.7.44,4.05.3,2.7.61,5.42.93,8.14.64,5.44,1.27,10.88,1.74,16.27q.18,2,.32,4c.33,4.58.5,9.09.44,13.49a49.93,49.93,0,0,1-.55,6.92q-.18,1.1-.39,2.18a38.31,38.31,0,0,1-1.12,4.15,32.51,32.51,0,0,1-1.58,3.87c-.14.28-.28.55-.4.83-.26.55-.5,1.1-.77,1.62a11.36,11.36,0,0,1-1.58,2.52,6.07,6.07,0,0,1-.89.9,2.1,2.1,0,0,1-.23.17,8.21,8.21,0,0,0-1.18.91,2.85,2.85,0,0,0-.41.54l-.15.31a5.63,5.63,0,0,0-.52,2.12c0,.13,0,.26,0,.4s0,.36,0,.55l1,4a27.94,27.94,0,0,0,1.34,3c.14.27.3.54.47.81a8.66,8.66,0,0,0,1.11,1.46,5.08,5.08,0,0,0,.69.58c.23.16.46.31.69.44a11.53,11.53,0,0,0,2.09.91l.22.07.52.16.88.25.25.06.25.06c0,.08,0,.16,0,.24s0,.31,0,.47a8.11,8.11,0,0,0,.12.88,8.84,8.84,0,0,0,.82,2.26c.08.15.15.3.24.44a6.44,6.44,0,0,0,1.89,2c0,.11,0,.21,0,.32a8.17,8.17,0,0,0,.11.88c.05.27.14.54.2.8a28.51,28.51,0,0,0,1,2.91c.11.31.23.62.33.93.18.49.33,1,.45,1.45q.87,3.35,1.67,6.68.94,3.87,1.87,7.75t1.78,7.72c.82,3.72,1.43,7.43,2.15,11.16.24,1.24.48,2.49.75,3.74.1.5.21,1,.29,1.5.63,3.51.8,7.08,1.09,10.53l.11,1.54c0,.26,0,.52.07.77.21,2.94.35,5.86.45,8.76h1C474.4,564.88,474.26,562.08,474.06,559.25Zm4.48-45.54c.11-1.1.35-2.08.41-3.23a8.62,8.62,0,0,0,0-1.11,5.29,5.29,0,0,1,.25,1.23,5.39,5.39,0,0,1,0,.87,4.22,4.22,0,0,1-.16.8c-.16.58-.33,1.16-.5,1.73ZM477.23,503a1.34,1.34,0,0,0-.42.73,16.5,16.5,0,0,0-2.36-2.36c-.6-.51-1.18-1-1.73-1.5a5.38,5.38,0,0,1,.53.24c.29.17.6.36.94.57s.65.42,1,.62a6.54,6.54,0,0,0,1.1.5,3.49,3.49,0,0,0,.66.15,4.59,4.59,0,0,0,1.33,0l.4-.06.38,0a4.36,4.36,0,0,1,.55,0A7.43,7.43,0,0,0,477.23,503Zm-45-239.41c-.19.19-.39.38-.58.58l-.23-.16-1-.69A14.64,14.64,0,0,1,432.19,263.56Zm-2.89,1.56a6,6,0,0,1-.36-.66,2.07,2.07,0,0,1-.16-.59.61.61,0,0,1,.08-.39.37.37,0,0,1,.09-.08l2.09,1.46,1,.73,2,1.4a2.7,2.7,0,0,1,.92.86l.08.26a.84.84,0,0,1-.24.59,2.17,2.17,0,0,1-.68.5,1.47,1.47,0,0,1-.51-.11,14,14,0,0,1-1.53-.65c-.54-.26-1-.5-1.29-.63l-.11-.05a.06.06,0,0,0,0,0v0a.48.48,0,0,0,0-.26,1,1,0,0,0-.14-.32l-.55-.81-.3-.44Zm32.33,232.57a6.48,6.48,0,0,0-.38,1.48,4.66,4.66,0,0,1-1.12-1.28,6.71,6.71,0,0,1-.94-2.91,3.94,3.94,0,0,1,.08-1.22.61.61,0,0,0,0-.21.66.66,0,0,0-.07-.19v0a1.2,1.2,0,0,0-.14-.2,1,1,0,0,0-.19-.16.68.68,0,0,0-.21-.09.43.43,0,0,0-.19,0,0,0,0,0,0,0,0h0a2.34,2.34,0,0,1-.41-.07c-.66-.15-1.7-.48-1.87-.53l-.21-.07a9.31,9.31,0,0,1-2.42-1.16,6.45,6.45,0,0,1-1.68-2.2,26.48,26.48,0,0,1-1.26-2.84l-.91-4.06a4.86,4.86,0,0,1,.6-2.42c.33-.61,1-.9,1.69-1.44,1.91-1.6,2.7-3.92,3.78-6.08a40.55,40.55,0,0,0,3.72-17.47c.06-4.44-.13-9-.46-13.59-.77-10.74-2.33-21.78-3.42-32.51-1.74-16.82-4.22-34-5.4-50.46l0-.31a407,407,0,0,0-5.88-45.35,88.52,88.52,0,0,0-3.91-15.17,53.15,53.15,0,0,0-3.57-7.63,25.37,25.37,0,0,0-2.87-4c-.88-1-1.88-1.75-2.5-2.51a8.26,8.26,0,0,1-1.36-3.3c-.15-.68-.26-1.36-.34-2s-.14-1.17-.18-1.64a3,3,0,0,1,0-.32l0-.31a18.82,18.82,0,0,1,0-2l0-.51h0c0-.48.08-.95.15-1.41,0-.08,0-.17,0-.25a1.79,1.79,0,0,0,0-.25c.09-.48.2-.94.33-1.39,0-.11.06-.23.1-.34s.17-.46.26-.69l.41.2.49.24.75.37.85.39c.29.13.57.24.84.33l.3.09a1.27,1.27,0,0,0,.84,0,3.44,3.44,0,0,0,.45-.27,2.34,2.34,0,0,0,.42-.37,1.51,1.51,0,0,0,.16-.23,1.49,1.49,0,0,0,.23-.76.92.92,0,0,0,0-.18,1.66,1.66,0,0,0-.07-.39,2.15,2.15,0,0,0-.15-.41,3.39,3.39,0,0,0-.34-.53,4.57,4.57,0,0,0-.8-.75l-.38-.27-1.69-1.18a8.4,8.4,0,0,1,.65-.64l.52-.43h0l.45-.35.42-.32.05,0c.26-.19.53-.36.81-.53l.11-.07.13-.08c.23-.14.48-.26.72-.39l.1,0,.27-.12.37-.15.44-.17c.36.11.73.21,1.07.28s.88.16,1.32.22c.95.13,1.82.21,2.67.4.29.07.58.14.87.24a8.69,8.69,0,0,1,1,.39.46.46,0,0,0,.35,0,14.22,14.22,0,0,1,4.8,6.44.9.9,0,0,0,.33.44,7.27,7.27,0,0,1,1.69,1.55,12.46,12.46,0,0,1,1.15,2.1q1.24,2.62,2.34,5.25a63.28,63.28,0,0,1,4.38,20.33c.14,2,.24,4,.32,5.93.35,8.34.21,16.52.69,24.95,0,.79.09,1.59.15,2.38.56,7.84,1.69,15.83,2.51,23.68.79,7.54,1.59,15.08,2.12,22.53.44,6.15.7,12.23.64,18.2,0,2,.06,4.05.21,6.1.51,7.14,1.81,14.42,2.45,21.63A109,109,0,0,0,474,450q4.63,13.65,9.88,27.3a68.56,68.56,0,0,1,3.84,14.08c.12.72.2,1.42.25,2.12a14.47,14.47,0,0,1-.33,4.63,7.6,7.6,0,0,1-1.1,2.56,2.67,2.67,0,0,1-1.62,1.11c-.19-.09-.38-.18-.55-.25l-.1,0a5,5,0,0,0-1.34-.23h-.61l-.56,0c-.44-.18-.92-.4-1.43-.57l-.37-.1a4.61,4.61,0,0,0-1.82,0,5.13,5.13,0,0,1-1.5.1,2.51,2.51,0,0,1-.46-.11,8.76,8.76,0,0,1-1.8-1,9.78,9.78,0,0,0-2.07-1.1,3.09,3.09,0,0,0-1-.15c-.43-.51-.86-1.07-1.3-1.65s-.71-.94-1.11-1.41l-.62-.69c-.22-.24-.46-.48-.73-.71a7.4,7.4,0,0,0-.59-.49,5,5,0,0,0-.64-.4,3.19,3.19,0,0,0-.44-.19,1.33,1.33,0,0,0-1.45.27,11.07,11.07,0,0,0-1,1.3c-.31.46-.6.94-.87,1.43-.19.32-.37.64-.54,1A7,7,0,0,0,461.63,497.69Z"/><polygon class="cls-4" points="484.67 557.85 484.96 557.83 484.96 557.83 484.67 557.85 484.67 557.85"/><polyline class="cls-3" points="474.41 567.66 482.13 567.66 482.13 566.77 482.13 566.76 474.41 566.76 474.2 566.87"/><polygon class="cls-3" points="485.19 567.66 485.1 566.64 489.96 566.53 490.09 567.66 485.19 567.66"/><polygon class="cls-4" points="484.67 501.01 484.96 500.99 484.96 500.99 484.67 501.01 484.67 501.01"/><polygon class="cls-4" points="484.67 501.01 484.96 500.99 484.96 500.99 484.67 501.01 484.67 501.01"/><line class="cls-5" x1="201.55" y1="491.48" x2="178.62" y2="631.79"/><rect class="cls-6" x="200.8" y="486.6" width="1.5" height="9.75" transform="translate(-316.01 611.05) rotate(-80.71)"/><rect class="cls-6" x="177.87" y="626.91" width="1.5" height="9.75" transform="translate(-473.71 706.17) rotate(-80.72)"/><line class="cls-5" x1="447.37" y1="495.16" x2="464.5" y2="575.41"/><rect class="cls-6" x="442.5" y="494.41" width="9.75" height="1.5" transform="translate(-93.5 104.28) rotate(-12.05)"/><rect class="cls-6" x="459.63" y="574.66" width="9.75" height="1.5" transform="translate(-109.87 109.63) rotate(-12.05)"/><line class="cls-7" x1="195.62" y1="502.92" x2="69.7" y2="479.21"/><line class="cls-7" x1="180.8" y1="567.31" x2="68.7" y2="546.68"/><line class="cls-7" x1="174.27" y1="628.93" x2="68.7" y2="611.17"/><line class="cls-7" x1="585.18" y1="518.3" x2="464.21" y2="534.1"/><text class="cls-8" transform="translate(207.54 587.2)">L1</text><text class="cls-8" transform="translate(593.53 524.2)">C4</text><circle class="cls-9" cx="609.2" cy="515.7" r="22.5"/><text class="cls-8" transform="translate(31.53 484.21)">C1</text><circle class="cls-9" cx="47.2" cy="475.71" r="22.5"/><text class="cls-8" transform="translate(31.03 553.19)">C2</text><circle class="cls-9" cx="46.7" cy="544.69" r="22.5"/><text class="cls-8" transform="translate(30.53 618.51)">C3</text><circle class="cls-9" cx="46.2" cy="610.02" r="22.5"/><text class="cls-8" transform="translate(412.07 556.29)">L2</text><polygon class="cls-9" points="218.76 551.89 191.47 593.49 246.04 593.49 218.76 551.89"/><polygon class="cls-9" points="423.71 519.88 396.42 561.48 451 561.48 423.71 519.88"/></svg>