<svg id="Layer_1" data-name="Layer 1" xmlns="http://www.w3.org/2000/svg" viewBox="0 0 648 864"><defs><style>.cls-1{fill:#d1d3d4;}.cls-2,.cls-8{fill:#fff;}.cls-3,.cls-6,.cls-7{fill:none;stroke-miterlimit:10;}.cls-3{stroke:#231f20;stroke-width:0.25px;}.cls-4{fill:#2a8ecd;}.cls-5{fill:#0a3b59;}.cls-6{stroke:#0a3b59;stroke-dasharray:6 6;}.cls-6,.cls-7{stroke-width:2px;}.cls-7{stroke:#2a8ecd;stroke-dasharray:6;}.cls-8{font-size:24px;font-family:AvenirNext-Regular, Avenir Next;}</style></defs><title>Outline 7</title><path class="cls-1" d="M159.11,363.45a13.87,13.87,0,0,1-4.93-2.44,9.38,9.38,0,0,1-3.87-6l-8-41.71s-8-39.45,3.47-74.36a63.78,63.78,0,0,1,14.62-23.68l-.12-.34c15.85-16.4,35.73-25,35.73-25l13.06-6.65s62.32-25.42,67.74-30.84,7.45-47.89,7.45-63.19h80.37c0,15.3,2,57.77,7.45,63.19s67.74,30.84,67.74,30.84L452.91,190s19.88,8.59,35.73,25l-.12.34A63.78,63.78,0,0,1,503.15,239c11.43,34.91,3.47,74.36,3.47,74.36s11.1,39,7.81,79.47,13.22,54.67,15.8,81.48c4.59,47.76.9,114.25-2.17,152.06-1.37,16.88.1,48.94-1.33,66.49-1,12.17-4.43,33-11.27,42.07s-21.77,23.41-26,21.48c-3.41,2.9-23,.87-19.64-6.59s14.47-9.52,19.26-17.26,5.12-30.91,1.18-31.23-12,6.59-12.68,14.86-3.4,20.53-13.55,20.9c-7.11.25-2.25-9.2-1.49-18.54.74-9.06-.17-27.59,12.68-46.58s14.71-37.06,13-57.24S462,535,459.23,501s6.29-50,1.62-65.55-16.22-65.14-14.42-87.26l.2-1-5.44-67c.05,0-14.13,81-14.13,81-3.65,13.66-4.8,69.36-4.8,98.95,0,24.05-3.18,45.66-1,60.25l-96.73.25h-.14l-96.73-.25c2.19-14.59-1-36.2-1-60.25,0-29.59-1.15-85.29-4.8-98.95,0,0-14.18-81-14.13-81l-5.44,67-.05.88c-.2,4.44-4.45,12.74-11.78,15.33"/><path class="cls-2" d="M513.4,488.09a3.43,3.43,0,0,0-.51-.52,5.62,5.62,0,0,0-1.73-.91l-.86-.29-.47-.13a6.55,6.55,0,0,0,.81-.9,8.34,8.34,0,0,0,.62-.95,3.84,3.84,0,0,0,.26-.5,13,13,0,0,0,.68-1.54,18.85,18.85,0,0,0,.61-2,20.85,20.85,0,0,0,.48-6.28c-.06-.88-.16-1.75-.28-2.62-.12-.68-.26-1.36-.39-2a64,64,0,0,0-4.32-13.83q-1.6-3.57-3.14-7.16t-3-7.2q-1.51-3.61-3-7.24t-2.84-7.28A88.67,88.67,0,0,1,493,416.27c-.29-1.18-.57-2.37-.82-3.57-.52-2.39-.95-4.8-1.29-7.21-.18-1.21-.33-2.42-.47-3.64s-.26-2.43-.37-3.64-.2-2.17-.31-3.24c-.23-2.15-.48-4.29-.75-6.41-.41-3.19-.84-6.35-1.19-9.52-.11-1.06-.22-2.11-.32-3.17s-.18-2.12-.25-3.18c-.16-2.43-.23-4.87-.18-7.33,0-1.86,0-3.73,0-5.59s-.05-3.72-.1-5.58c-.11-3.72-.31-7.43-.55-11.13-.29-4.49-.65-9-1.06-13.45s-.87-9-1.32-13.42c-.7-7-1.61-14-2.28-21-.22-2.33-.42-4.67-.57-7-.06-1-.12-1.9-.17-2.85-.12-2.53-.2-5.07-.25-7.61-.15-7.61-.06-15.25-.31-22.89-.08-2.39-.18-4.81-.34-7.22-.13-2-.3-4-.55-6a59.87,59.87,0,0,0-2.51-11.81c-.31-1-.66-1.92-1-2.86s-.8-1.88-1.25-2.81c-.9-1.84-1.87-3.65-2.88-5.43a10,10,0,0,0-1.64-2.34A6.19,6.19,0,0,0,468,215a10.93,10.93,0,0,0-2.49-3.6,11.38,11.38,0,0,0-3.68-2.37c-.28-.11-.58-.19-.87-.28a4.32,4.32,0,0,0-1.72-1.65,5.41,5.41,0,0,0-.68-.31,10.22,10.22,0,0,0-2.07-.51,24.57,24.57,0,0,0-2.85-.27,29,29,0,0,0-2.92,0c-.45,0-.89.07-1.32.12l-1.3.18a5.86,5.86,0,0,0-.44-.54,5.34,5.34,0,0,0-1.68-1.14,10.71,10.71,0,0,0-2.21-.65c-.25-.05-.5-.11-.75-.15-1.18-.2-2.36-.34-3.54-.45-3.52-.33-7-.37-10.43-.83-4.82-.64-9.67-1.41-14.6-1.64-1.19-.05-2.38-.13-3.55-.22-1.79-.13-3.56-.31-5.34-.52s-3.54-.44-5.31-.71c-1.34-.21-2.66-.47-4-.74l.7,1.47c1,.2,2,.4,3.07.57a131,131,0,0,0,14.34,1.46c4.83.22,9.64,1,14.48,1.63s9.34.5,13.92,1.28a11.16,11.16,0,0,1,2.65.71,3.5,3.5,0,0,1,1.76,1.49.65.65,0,0,0,.69.34,28.19,28.19,0,0,1,2.91-.34,25.06,25.06,0,0,1,5.47.21,7.32,7.32,0,0,1,2.34.68.55.55,0,0,1,.11.08,3.06,3.06,0,0,1,.81.64h-.23a25,25,0,0,0-4.63,1,17.87,17.87,0,0,1-2.91.54l-.19,0h-.22a6.44,6.44,0,0,1-.87-.08,6.85,6.85,0,0,0-1.23-.07,2.78,2.78,0,0,0-.59.11l-.09,0a2.39,2.39,0,0,0-.32.15l-.22.17-.08.07c-.07.06-.11.12-.16.18a5.55,5.55,0,0,1-.52.62,1,1,0,0,1-.61.19,5.11,5.11,0,0,1-.75,0l-3.75-.36c-3.77-.36-7.54-.71-11.36-.74-1.47,0-3.08,0-4.71.07l-1,0c-.75,0-1.51.12-2.25.22s-1.22.19-1.81.32l-.4.07-.48.14-.75.21a17,17,0,0,0-2.4.88h0c-.17.08-.35.14-.52.22l-1.11-.59L411,210l-1.79-.95-.35-.07h-.17a25.51,25.51,0,0,1-5.62-.23l-.29,0c-.63-.1-1.25-.18-1.88-.26l.66,1.41,1,.14c.53.09,1.05.16,1.56.21h.16c.63.06,1.25.1,1.87.11h.58c.66,0,1.34,0,2-.05L411,211.5l1.45.78.72.38,1.17.61,1.77.93,0,0a.69.69,0,0,0,.32.07.62.62,0,0,0,.3-.08,17.55,17.55,0,0,1,6.15-1.83c.74-.1,1.51-.17,2.27-.22.47,0,1,0,1.43-.05,1.41,0,2.83-.06,4.14,0,1.14,0,2.29.06,3.42.11l1,.06,2.53.18.93.07c2.37.2,4.72.45,7.11.67a5.91,5.91,0,0,0,1,0h0a2.6,2.6,0,0,0,.59-.11h.07a2.06,2.06,0,0,0,.34-.14c.07,0,.12-.08.19-.13l.14-.09h0l.27-.27.11-.13.12-.16a3.14,3.14,0,0,1,.25-.32h0a.28.28,0,0,1,.14-.08,1.33,1.33,0,0,1,.33-.06,3.93,3.93,0,0,1,.62,0,2.15,2.15,0,0,1-.18.17,31.22,31.22,0,0,0-3.44,3.54h0a21.35,21.35,0,0,0-4.56,1,5.89,5.89,0,0,0-1,.42,2.48,2.48,0,0,0-1,1s0,.06,0,.09a2.17,2.17,0,0,0-.21,1.15,3,3,0,0,0,.32,1.17,7.07,7.07,0,0,0,1.26,1.61l.76.82v0c-.18.42-.29.85-.42,1.27s-.29.8-.4,1.21h0c-.21.79-.37,1.58-.51,2.39a.37.37,0,0,1,0,.12l0,.21c-.11.71-.17,1.42-.22,2.13,0,.16,0,.33,0,.49a21.16,21.16,0,0,0,0,2.53c0,.27,0,.53.07.8,0,.47.1,1,.18,1.64a52,52,0,0,0-4.34,4.39,9.42,9.42,0,0,0-1.61,2.37,8.73,8.73,0,0,0-.6,2.82,15.88,15.88,0,0,1-1,5.52c-.61,1.31-2,2.23-3.45,3.23s-2.87,2.16-4.24,3.31a13.71,13.71,0,0,0-.62-2.51,16.91,16.91,0,0,0-5.41-7.47c.9-3.52-1.86-6.36-4.08-8.64-.34-.33-.63-.66-.93-1l-.3-.3q.73,1.7,1.46,3.41c1.69,1.83,3.11,3.86,2.55,6.14l.64,1.57a15.51,15.51,0,0,1,4.84,6.7,12.16,12.16,0,0,1,.68,3.07,8.94,8.94,0,0,1-.05,1.88c0,.24-.08.48-.13.73.79.28,1.57.57,2.34.89a11,11,0,0,0-1-.67,9.57,9.57,0,0,0,.17-2.23c1.54-1.36,3.17-2.63,4.87-3.85,1.35-1,3-2,3.86-3.74a17.07,17.07,0,0,0,1.15-6,9,9,0,0,1,.31-1.92c.06-.17.12-.33.19-.49a6.88,6.88,0,0,1,1.16-1.74c.08-.1.15-.19.24-.29.23-.27.49-.52.72-.78q1.38-1.5,2.85-2.89c.07.39.15.79.25,1.18a9.25,9.25,0,0,0,1.34,3.31,5,5,0,0,0,.75.83c1,.84,2.28,1.27,3.11,1.92.32.24.58.51.89.76a16,16,0,0,1,1.62,1.64c.25.29.53.56.76.87q.62.87,1.2,1.77c.39.6.76,1.21,1.1,1.84s.69,1.25,1,1.9.6,1.29.89,1.95a79.86,79.86,0,0,1,4.61,16.58q3.33,17.24,5.21,34.72.61,5.82,1.1,11.66.26,3.33.47,6.67l0,.37c.48,7.47,1.2,14.94,2,22.42,1.33,12.47,2.93,24.95,4.15,37.39.16,1.6.32,3.2.5,4.8.34,3.2.7,6.41,1.07,9.61.73,6.42,1.45,12.84,2,19.27q.2,2.41.35,4.82c.36,5.5.52,11,.4,16.47a67.69,67.69,0,0,1-.76,8.82q-.23,1.45-.51,2.88c-.4,1.91-.87,3.81-1.44,5.68s-1.25,3.72-2,5.55c-.18.41-.35.82-.51,1.22-.32.81-.63,1.6-1,2.38a23.42,23.42,0,0,1-2,3.89,13.59,13.59,0,0,1-1.11,1.54c-.08.11-.19.21-.28.32a18.54,18.54,0,0,0-1.48,1.7,6.15,6.15,0,0,0-.52.87l-.19.46a9.07,9.07,0,0,0-.67,2.87c0,.17,0,.33,0,.5s0,.44,0,.66a12.44,12.44,0,0,0,.74,3.39c.14.36.28.71.44,1.06a21.52,21.52,0,0,0,1.63,3.09c.18.26.37.53.57.78a5.93,5.93,0,0,0,1.37,1.27,3.69,3.69,0,0,0,.85.39,7.7,7.7,0,0,0,.85.2,11.07,11.07,0,0,0,2.59.1l.27,0,.65-.05,1.09-.12.31-.05.31-.05c0,.1,0,.19,0,.29s0,.38,0,.58a8.48,8.48,0,0,0,.14,1,7.27,7.27,0,0,0,1,2.39c.1.14.18.3.29.43a4.47,4.47,0,0,0,2.33,1.57c0,.13,0,.26,0,.4a8.69,8.69,0,0,0,.12,1c.06.31.17.59.25.89a24.1,24.1,0,0,0,1.16,3.14c.14.33.27.66.4,1a13.31,13.31,0,0,1,.55,1.57q1,3.72,2,7.45,1.13,4.33,2.24,8.67t2.12,8.68c1,4.2,1.69,8.49,2.54,12.75.28,1.42.57,2.84.9,4.25.12.56.25,1.13.34,1.71a125.15,125.15,0,0,1,1.24,12.49l.12,1.85c0,.31.05.62.07.92.26,4,.42,8,.5,12,.06,2,.09,4,.11,6s0,4,.06,6c0,2.92.16,5.84.35,8.76.1,1.5.21,3,.32,4.51s.27,3,.39,4.49c.28,3,.56,6,.81,8.95.19,2.25.42,4.49.65,6.73s.52,4.48.81,6.72c.93,7.25,2.11,14.47,3.58,21.63-.73.61-1.63,1.14-2.5,1.74a7.57,7.57,0,0,0-2.63,2.6,25.54,25.54,0,0,1-4.55,6.28,12.1,12.1,0,0,0-1.14,1.21,3.33,3.33,0,0,0-.63,1.44c-.45,0-.91,0-1.4,0a3.56,3.56,0,0,0-1.29.31,3.74,3.74,0,0,0-1.86,2.48A10,10,0,0,0,484,667v0a.88.88,0,0,0,0,.19,6.12,6.12,0,0,0-.47.4,12.69,12.69,0,0,0-2.12,2.48,41,41,0,0,0-2.92,6.44c-1.38,3.27-2.68,6.56-3.88,9.89a26.35,26.35,0,0,1-1.32,3.78l-2.64,4.69a7.33,7.33,0,0,0-.81,1.77,3,3,0,0,0-.09.86,2.87,2.87,0,0,0,.62,1.55,5.11,5.11,0,0,0,.71.72,2.5,2.5,0,0,0-.29.4,3.73,3.73,0,0,0-.5,2.27c0,.31.05.59.07.89l0,.37c.07,3.72-.8,7.51-3.16,10.27-.36.43-1,1.1-1.56,1.85a4.24,4.24,0,0,0-1,2.57l0,.07a2.68,2.68,0,0,0-.25,1.28l.06.45a7.31,7.31,0,0,0,.71,1.58,5,5,0,0,1,.56,1.33,4.65,4.65,0,0,1,.1.61,12.2,12.2,0,0,1-.66,3.49,3,3,0,0,0-.09.88,2.57,2.57,0,0,0,1.23,2,2.18,2.18,0,0,0,1.22.31,2.12,2.12,0,0,0,1.28-.57,3.74,3.74,0,0,0,.83-1.08,7.23,7.23,0,0,0,.59-2.33,5.46,5.46,0,0,1,.41-1.9,9.39,9.39,0,0,1,1.88-2.59,1.74,1.74,0,0,0,.33,0,2.43,2.43,0,0,0,2.29-1.86,6.59,6.59,0,0,0,.25-1.64,28.46,28.46,0,0,1,1.47-6.53,8.7,8.7,0,0,1,.74-2c.56-.91,1.21-1.81,1.75-2.83a7.28,7.28,0,0,1,.93-1.22,4.1,4.1,0,0,0,1-1.67,2.48,2.48,0,0,0,.06-.79,2.27,2.27,0,0,0-.11-.62.65.65,0,0,0,.4-.25A31.42,31.42,0,0,0,484,698.9a11.29,11.29,0,0,0,1.11-4.08c.13-1.34.16-2.65.38-4a63.12,63.12,0,0,1,2.07-8.27,15.86,15.86,0,0,1,2.34-4.68,14.16,14.16,0,0,1,1.7-2.05h0a3.25,3.25,0,0,1,.4-.3c.29-.25.69-.54,1-.78l.42-.36.16-.17.11-.13a.66.66,0,0,0,.09-.41v0c0-.23-.09-.43-.11-.64a4.44,4.44,0,0,0,1.52.2,3.55,3.55,0,0,0,.86-.18,30.18,30.18,0,0,1,1.15,4.53c.5,2.35,1.54,4.36,2.09,6.48a36.67,36.67,0,0,1,1.15,7,36.27,36.27,0,0,1,0,4.16,12,12,0,0,1-1,4.95,16,16,0,0,1-2.92,4.06,5.34,5.34,0,0,0-1.34,4.25,10,10,0,0,0,.42,2.18,5.33,5.33,0,0,0-1.15,1.23,6,6,0,0,0-1,3.58,4.11,4.11,0,0,0,.2,1,28.11,28.11,0,0,1,1.37,6.72,19.14,19.14,0,0,1-.84,7.11c-.56,1.77-.73,3.3-1.63,4.69-.33.51-.87,1-1.27,1.76a6,6,0,0,0-1.74,1.06c-2.21,1.79-3.34,4.38-5.08,6.1a4.88,4.88,0,0,1-2.94,1.62,1,1,0,0,0-.41-.06,1.09,1.09,0,0,0-.56.21l-.33.22a1.85,1.85,0,0,0-.75,1.33,5.92,5.92,0,0,0-.91.48,7.82,7.82,0,0,1-2.13.78l-.3,0-.46,0a3.29,3.29,0,0,0-.89.14,1.66,1.66,0,0,0-.88.69,2.16,2.16,0,0,0-.25,1.07v.09a2.84,2.84,0,0,0,.84,1.8.85.85,0,0,0,.42.22,2.63,2.63,0,0,0,.72,0l.27,0q.54,0,1.08,0l.55,0a2.06,2.06,0,0,0,.9.76,5.21,5.21,0,0,0,1.1.28,6.8,6.8,0,0,0,1.43.06c1.47-.11,2.82-.57,4.05-.75,2.59-.38,5.21-.69,7.84-1l.69,0a3.55,3.55,0,0,0,1.69-.44,8.66,8.66,0,0,0,.93-.74,2.19,2.19,0,0,0,.63-1.25V749s0-.07,0-.1a4.11,4.11,0,0,0,.93.06,3.41,3.41,0,0,0,.59-.09A4.56,4.56,0,0,0,500,748a62.86,62.86,0,0,0,8.8-8.65c3.27-3.66,6.54-7.42,8.54-12a9.26,9.26,0,0,0,1-4.12,4,4,0,0,0-.14-.9,7,7,0,0,0-3-3.6.67.67,0,0,0-.48-.11l-.24,0h-.16a2.19,2.19,0,0,1-.56-.12,3.73,3.73,0,0,0,.68-.87,8.89,8.89,0,0,1,.58-1.05,8.89,8.89,0,0,0,1.13-2.65c.73-2.53,2.25-4.75,2.32-7.85,0-.39,0-.75,0-1.12-.09-1.33-.33-2.59-.46-3.84-.07-.48-.11-1-.14-1.51l-.16-2.47c-.27-3.11-.34-6.31-.86-9.5-.08-.54-.14-1.08-.18-1.62-.13-2,0-4.06-.09-6.26-.16-2.49-.31-5-.47-7.48v-.09a8.35,8.35,0,0,0-.33-2,3.75,3.75,0,0,0,.46-.19.64.64,0,0,0,.34-.56,16.48,16.48,0,0,0,0-1.87,17.23,17.23,0,0,0-.68-3.82.62.62,0,0,0-.71-.46.65.65,0,0,0-.47.38,25.6,25.6,0,0,0-4-4.84,4.24,4.24,0,0,1-.63-.66.76.76,0,0,1-.12-1l.09,0c.37-.12.75-.26,1.16-.42s.8-.34,1.21-.55a7.77,7.77,0,0,0,2.14-1.53A4.23,4.23,0,0,0,515,654a5.67,5.67,0,0,0,.31-.64c.09-.22.16-.43.23-.64s.15-.41.22-.6a3.83,3.83,0,0,1,.24-.52l.17-.32a8.48,8.48,0,0,0,.86-2.11,3.44,3.44,0,0,0,.09-.4c0-.22,0-.44.06-.66s0-.44,0-.66a9.91,9.91,0,0,0-.19-1.3c-.16-.86-.4-1.69-.59-2.47-.1-.39-.18-.76-.25-1.12-.16-1-.31-1.93-.42-2.91s-.21-1.95-.28-2.92l0-.48c0-.79-.09-1.56-.14-2.33s-.08-1.53-.1-2.28a32.21,32.21,0,0,1,.12-4.55c.15-1.47.26-2.94.35-4.42.26-4.42.28-8.87.37-13.27,0-1.5.07-3,.08-4.51,0-3,0-6,0-9q0-2.26-.12-4.51c-.11-3-.17-6-.22-9s-.09-6-.11-9c0-.54,0-1.08-.06-1.62s0-1.08-.06-1.62c-.08-1.19-.18-2.37-.3-3.56s-.28-2.37-.43-3.54c-.22-1.77-.44-3.52-.66-5.27-.07-.58-.15-1.17-.2-1.74-.23-2.16-.42-4.33-.62-6.5s-.41-4.34-.65-6.51l-.19-1.64c-.43-3.82-.94-7.62-1.2-11.42l-.11-1.66c-.07-1.14-.15-2.29-.21-3.44-.13-2.29-.27-4.58-.42-6.87-.09-1.32-.2-2.65-.3-4,0-.66-.09-1.32-.14-2,0-.49-.08-1-.11-1.47s-.09-1-.12-1.47c-.05-.81-.09-1.62-.1-2.42a30.92,30.92,0,0,1,.2-4.78c.11-.8.24-1.59.42-2.38.11-.48.23-1,.37-1.43a11.75,11.75,0,0,1,.46-1.35,1.84,1.84,0,0,1,.25-.45,4.55,4.55,0,0,1,.35-.42c.12-.14.27-.29.42-.45l.49-.52a5.24,5.24,0,0,0,.66-1,7.85,7.85,0,0,0,.71-3.31v-.44a3.79,3.79,0,0,0-.55-1.75ZM445.12,217c-.24.33-.49.66-.73,1l-.28-.08-1.22-.37A19.44,19.44,0,0,1,445.12,217Zm-3.61,3.34a4.29,4.29,0,0,1-.45-.64,1.88,1.88,0,0,1-.19-.66,1,1,0,0,1,.11-.53.82.82,0,0,1,.11-.14l2.58.79,1.28.39,2.48.75a1.92,1.92,0,0,1,1.14.61l.09.28a1.5,1.5,0,0,1-.31.84,4.88,4.88,0,0,1-.85.95,1.87,1.87,0,0,1-.63.11A13.61,13.61,0,0,1,445,223c-.67-.06-1.24-.13-1.6-.14h-.13a.11.11,0,0,0,0-.06v0a.7.7,0,0,0,.05-.34.75.75,0,0,0-.17-.33l-.67-.73-.37-.4Zm37.6,271.84a10.61,10.61,0,0,0-.49,2,3.2,3.2,0,0,1-1.38-1,5.74,5.74,0,0,1-1.14-3.14,5.28,5.28,0,0,1,.12-1.55.78.78,0,0,0,0-.26.53.53,0,0,0-.09-.2v0a.83.83,0,0,0-.17-.19.74.74,0,0,0-.24-.11.66.66,0,0,0-.26,0,.64.64,0,0,0-.24.09.06.06,0,0,0,0,0l0,0a3.09,3.09,0,0,1-.51.12c-.81.14-2.11.24-2.32.26l-.26,0a8.58,8.58,0,0,1-3-.25A4.45,4.45,0,0,1,467,486a20.37,20.37,0,0,1-1.53-2.9,11.75,11.75,0,0,1-1.07-4c0-.19,0-.38,0-.57a7.83,7.83,0,0,1,.77-3.28,13,13,0,0,1,2.11-2.6c2.4-2.91,3.4-6.16,4.77-9.37a63.38,63.38,0,0,0,4.83-23.42c.12-5.52-.06-11.05-.42-16.58-.83-12.91-2.65-25.8-3.89-38.54-2-20-4.86-39.93-6.15-59.77l0-.37a428.85,428.85,0,0,0-6.81-53.21,80.54,80.54,0,0,0-4.69-16.85,40.15,40.15,0,0,0-4.35-7.7,17.38,17.38,0,0,0-3.52-3.54c-1.08-.8-2.32-1.24-3.08-1.89a6.51,6.51,0,0,1-1.65-3.42,21.83,21.83,0,0,1-.39-2.3c-.1-.71-.16-1.38-.21-1.93a3.29,3.29,0,0,1,0-.38l0-.38a22.68,22.68,0,0,1,0-2.43l0-.64h0c0-.61.11-1.21.2-1.81,0-.11,0-.22.05-.33a2.63,2.63,0,0,0,.05-.33c.12-.63.27-1.26.43-1.88,0-.16.08-.31.13-.47.09-.33.22-.65.33-1l.51,0,.61.06.93.09,1.06.07c.36,0,.71,0,1,0l.37,0a1.93,1.93,0,0,0,1-.4,7.63,7.63,0,0,0,.56-.55,5.27,5.27,0,0,0,.52-.66,3.23,3.23,0,0,0,.21-.37,2.52,2.52,0,0,0,.29-1.05,1.2,1.2,0,0,0,0-.23,1.64,1.64,0,0,0-.09-.45,1.74,1.74,0,0,0-.19-.43,2.35,2.35,0,0,0-.42-.49,3.23,3.23,0,0,0-1-.54l-.47-.15-2.09-.64c.26-.37.51-.75.81-1.11s.43-.52.66-.78h0l.57-.65.52-.6.07-.08c.32-.36.66-.71,1-1.05l.14-.14.16-.16c.28-.29.6-.56.9-.83l.12-.1.34-.29.47-.37.55-.42c.45,0,.9-.09,1.33-.18s1.1-.24,1.64-.37c1.18-.31,2.26-.63,3.31-.81.36-.06.72-.1,1.08-.13a8.64,8.64,0,0,1,1.2,0,.66.66,0,0,0,.44-.15,9.93,9.93,0,0,1,5.9,5.62.63.63,0,0,0,.4.39,5.14,5.14,0,0,1,2.08,1.1,9,9,0,0,1,1.4,2c1,1.75,2,3.54,2.85,5.36,3.51,7.17,4.7,15,5.21,23,.15,2.39.25,4.79.33,7.18.34,10.14.07,20.33.57,30.52,0,1,.1,1.92.16,2.87.61,9.42,1.92,18.75,2.85,28.06.9,8.94,1.81,17.87,2.38,26.83.48,7.39.74,14.78.6,22.19-.05,2.5,0,5,.19,7.44.56,8.59,2.09,16.95,2.81,25.55a104.77,104.77,0,0,0,6.31,28.85q5.6,14.62,12,28.94a61.4,61.4,0,0,1,4.62,15.54,24.29,24.29,0,0,1,.29,2.5,19.42,19.42,0,0,1-.46,5.89,14.13,14.13,0,0,1-1.39,3.7,5.88,5.88,0,0,1-2,2.16,6.47,6.47,0,0,0-.68,0h-.13a6.36,6.36,0,0,0-1.67.37c-.27.09-.52.2-.76.3l-.7.31c-.55,0-1.14,0-1.78,0l-.46.05a7.16,7.16,0,0,0-2.27.88,8.52,8.52,0,0,1-1.87.86,3,3,0,0,1-.57.09,7.68,7.68,0,0,1-2.23-.32,8.58,8.58,0,0,0-2.57-.35,4,4,0,0,0-1.21.29c-.53-.43-1.06-.9-1.59-1.4s-.88-.81-1.36-1.2c-.23-.18-.49-.36-.76-.55a7.09,7.09,0,0,0-.9-.52,5.39,5.39,0,0,0-.73-.31,4.1,4.1,0,0,0-.79-.18,3.06,3.06,0,0,0-.55,0,2.35,2.35,0,0,0-1.81,1,24.07,24.07,0,0,0-1.31,2.11c-.39.72-.76,1.46-1.1,2.19-.24.49-.47,1-.69,1.45S479.25,491.76,479.11,492.16Zm22.34-3.76a16.11,16.11,0,0,0-3,2.68,2.67,2.67,0,0,0-.53,1.11,11.45,11.45,0,0,0-2.9-1.77c-.74-.34-1.46-.66-2.13-1a4.91,4.91,0,0,1,.65,0c.36.06.75.15,1.16.25s.81.2,1.25.27a6.16,6.16,0,0,0,1.36.08,4.18,4.18,0,0,0,.82-.13,7.4,7.4,0,0,0,1.66-.71l.5-.27.48-.23A7.16,7.16,0,0,1,501.44,488.4Zm-5,124.53c-.5-6-1.15-11.95-1.53-17.92q-.28-4.35-.33-8.69c-.06-8-.16-16.07-.68-24.1-.06-.93-.13-1.86-.21-2.79-.36-4.67-.54-9.71-1.61-14.39-1.27-5.58-2.12-11.34-3.43-17-1.36-5.83-2.86-11.61-4.36-17.38q-1-3.75-2-7.47c-.67-2.36-1.94-4.31-2.33-6.47,0-.3-.08-.6-.1-.89,0-.05,0-.11,0-.16a6.6,6.6,0,0,1,.07-1.32,9.63,9.63,0,0,1,.89-2.82,36.68,36.68,0,0,1,3-5.57,1,1,0,0,1,.82-.48,3,3,0,0,1,1.41.38,8.85,8.85,0,0,1,1.42.93c.84.66,1.61,1.47,2.5,2.24a13.09,13.09,0,0,0,1.11.86h0a23,23,0,0,0,3.42,1.72,9.15,9.15,0,0,1,2.88,1.82c.14.14.25.3.38.46a2.76,2.76,0,0,0,.05.34,2.72,2.72,0,0,0,.38,1,4.44,4.44,0,0,0,.28.34c.09.1.2.19.29.28l0,0a9,9,0,0,1,.37,1.5c0,.25.06.49.08.73a32.54,32.54,0,0,1-.54,5.48,11.23,11.23,0,0,0,0,2,18,18,0,0,0,.32,2.33c-.22.84-.44,1.69-.63,2.53a20.32,20.32,0,0,0-.62,4.91c0,.24,0,.48,0,.72s0,.21,0,.31a11.74,11.74,0,0,0,.23,1.57c.38,1.61.83,3.19,1.28,4.77.23.81.45,1.62.66,2.43,0,.75,0,1.49.09,2.24.15,2.24.4,4.48.74,6.7q.46,3.08.88,6.17c.77,5.71,1.44,11.36,1.81,17q.28,4.38.29,8.79c0,8.76-.72,17.54-.48,26.38.14,5.52.58,10.56.67,16,0,2.74.16,5.52.34,8.31.22,3.46.58,6.91,1.1,10.28a2.43,2.43,0,0,0,0,.32c-.26,2.49-.52,5-.79,7.47-.13,1.1-.21,2.12-.38,3.1a9.68,9.68,0,0,1-.31,1.44,10.17,10.17,0,0,1-.5,1.4,7.53,7.53,0,0,0-.42,1.06,9.31,9.31,0,0,0-.45,2.06c0,.35-.07.71-.07,1.09s-.05.76-.08,1.15a10.64,10.64,0,0,0,0,1.21v.21c0,.15,0,.31.07.47-.32,0-.62,0-.93-.06A295.11,295.11,0,0,1,496.42,612.93Zm6.77-70.74c-.09-.71-.18-1.43-.28-2.14s-.19-1.37-.29-2.06c-.16-1.19-.33-2.38-.51-3.57q.79,3.57,1.53,7.15c.23,1.11.43,2.22.62,3.35.36,2.25.64,4.52.87,6.81.15,1.43.29,2.87.39,4.3.35,4.31.59,8.66.91,12.94l.14,2.12c0,.35.06.71.08,1.06.13,2,.24,3.94.32,5.91q.4,8.86.29,17.74c0,1.86-.24,3.68-.44,5.51-.16,1.38-.28,2.78-.33,4.21,0,.48-.05.94-.05,1.43,0,1.63.05,3.26.06,4.88s0,3.24-.09,4.85c-.06,1.07-.15,2.14-.28,3.2-.05.53-.1,1.06-.17,1.59-.16-1.59-.31-3.18-.41-4.78-.09-1.38-.15-2.76-.21-4.14s-.09-2.75-.11-4.11c-.08-4.83-.43-9.31-.6-14l-.09-2c-.08-3.28,0-6.56.06-9.85,0-1.1.06-2.19.11-3.29.15-4.39.33-8.79.33-13.2q0-4.47-.3-8.88C504.41,552.17,503.84,547.19,503.19,542.19ZM490.37,660.74a10.54,10.54,0,0,1,1-1.06,27.42,27.42,0,0,0,4.79-6.59,6.44,6.44,0,0,1,2.22-2.14c.76-.54,1.62-1.07,2.42-1.71h0l.25,0a13.38,13.38,0,0,0,1.76.11h0a15.88,15.88,0,0,0,1.4,2.6h0a.69.69,0,0,1,.08.14l.27.35h0c.63.87,1.27,1.69,2,2.48h0a3.79,3.79,0,0,1-1,1.12,8.48,8.48,0,0,0-2.22,2.05,6.91,6.91,0,0,0-.81,2.64c-.14,1.13-.32,2.24-.48,3.36a37.85,37.85,0,0,0-5.05-1.06,2.88,2.88,0,0,0-.59,0,1.69,1.69,0,0,0-.68.17l-.16.13a4.59,4.59,0,0,0-.17-.9,1.87,1.87,0,0,0-.55-.87s0,0,0,0l0-.05a2.73,2.73,0,0,0-2.1-.79l-.23,0c-.93.15-1.67.53-2.31.66A1.93,1.93,0,0,1,490.37,660.74Zm12.93,5.13.63.19.19.06,1.52.48a5,5,0,0,1,2,.89l.12.27s0,.07,0,.09,0,.1,0,.16a4,4,0,0,1-.14.48c0,.09,0,.16-.07.23a1.69,1.69,0,0,1-.26.47l0,0a1,1,0,0,1-.26.21h0a1.33,1.33,0,0,1-.64.16,6,6,0,0,1-.9,0c-1.31-.14-2.63-.44-4-.69-.47-.09-.91-.17-1.32-.28a2.79,2.79,0,0,1-.32-.07,6,6,0,0,1-1.21-.46,5,5,0,0,1-.76-.54,2.91,2.91,0,0,1-.47-.6,1,1,0,0,1-.13-.25,3,3,0,0,1-.25-.49,1.37,1.37,0,0,0-.07-.17.51.51,0,0,1,0-.12,1.15,1.15,0,0,0-.07-.21,3.7,3.7,0,0,1-.11-.43s0,0,0-.07c0-.21-.1-.43-.14-.66a.8.8,0,0,1,0-.17h.33a38,38,0,0,1,5.14,1.12l.63.17.71.2ZM473,719.63a5.68,5.68,0,0,1-.65.65l-.3.28c-.2.19-.38.36-.58.56s-.32.37-.48.56a10.87,10.87,0,0,0-1.49,2.23,6.77,6.77,0,0,0-.54,2.33,5.26,5.26,0,0,1-.46,1.88,2.27,2.27,0,0,1-.52.7.78.78,0,0,1-.49.24.81.81,0,0,1-.46-.13,1.15,1.15,0,0,1-.6-1,1.51,1.51,0,0,1,0-.49,11.93,11.93,0,0,0,.7-3.88c0-.24-.06-.52-.11-.8a6.58,6.58,0,0,0-.7-1.67,6.14,6.14,0,0,1-.51-1c0-.09-.05-.17-.07-.24l0-.22a1.41,1.41,0,0,1,0-.42,1.9,1.9,0,0,1,.29-.65,2.66,2.66,0,0,1,.54-.63,3.39,3.39,0,0,1,1.89-.89h0a5.82,5.82,0,0,1,3.52,1.09c.21.16.51.37.76.56l.29.3.08.1,0,0,0,.05A.91.91,0,0,1,473,719.63Zm7.07-15.77a3.14,3.14,0,0,1-.72,1.13,8.28,8.28,0,0,0-1.11,1.45c-.49.92-1.11,1.8-1.71,2.77a9.9,9.9,0,0,0-.88,2.26,31,31,0,0,0-1.5,6.71c-.16-.18-.33-.35-.48-.51-.32-.26-.65-.48-.83-.61a7.09,7.09,0,0,0-4.32-1.35h-.1a4.16,4.16,0,0,0-1.25.32c.37-.46.77-.91,1.06-1.24,2.66-3.11,3.56-7.23,3.48-11.16v-.42c0-.33-.05-.63-.07-.89a2.48,2.48,0,0,1,.32-1.52c.07-.11.15-.19.21-.29a3.14,3.14,0,0,1,.42-.5l.23-.23.36-.22a1.64,1.64,0,0,1,.69-.22H474a8.72,8.72,0,0,1,4.49,1.55,2,2,0,0,1,.54.54.56.56,0,0,1,.08.1l.46.67s0,0,0,.05a2.62,2.62,0,0,1,.34.59,1.68,1.68,0,0,1,.16.62Zm12.25-30.22c-.26.21-.62.48-.94.71l-.4.32-.3.25a17.79,17.79,0,0,0-1.85,2.2,18.21,18.21,0,0,0-2.52,5.06,63.28,63.28,0,0,0-2.1,8.45c-.24,1.43-.27,2.78-.4,4.05a9.72,9.72,0,0,1-1,3.63,25,25,0,0,1-2,3.21h-.1a.06.06,0,0,1,0,0c-.22-.28-.37-.55-.59-.84a3.59,3.59,0,0,0-.83-.84,9.84,9.84,0,0,0-5.21-1.76h-.26a3.16,3.16,0,0,0-1.79.73h0a3.49,3.49,0,0,1-.53-.54,1.69,1.69,0,0,1-.36-.85l0-.44a6.54,6.54,0,0,1,.7-1.46l2.63-4.68a24.25,24.25,0,0,0,1.4-4c1.2-3.3,2.48-6.58,3.87-9.82a41.06,41.06,0,0,1,2.79-6.24,11.11,11.11,0,0,1,1.91-2.22l.38-.34.55-.46.15-.13.44-.31a2,2,0,0,1,.19-.12l.24-.12,0,0a7.7,7.7,0,0,1,4.14,2.34,1.77,1.77,0,0,0,.14.2,7.5,7.5,0,0,1,1.12,1.73,9.31,9.31,0,0,1,.39,1.06,6,6,0,0,1,.23,1.12Zm4-2.15-.18.1,0,0a2.19,2.19,0,0,1-1,.29,3.34,3.34,0,0,1-1.36-.21c-.16-.06-.33-.15-.49-.23a8.68,8.68,0,0,0-1.74-3,9,9,0,0,0-4.89-2.76l-.29,0a2,2,0,0,0-.86.3,1.77,1.77,0,0,1-.24.16,7.8,7.8,0,0,1,.11-1.72,2.43,2.43,0,0,1,1.17-1.62,2.36,2.36,0,0,1,.81-.19,12.31,12.31,0,0,1,1.46,0c.25,0,.51,0,.8,0h.1l.37,0a3,3,0,0,0,.39-.08c.8-.19,1.45-.51,2.06-.59l.11,0a1.38,1.38,0,0,1,1.09.38l.09.1.21.35c.09.24.11.62.21,1.05a2.31,2.31,0,0,0,.08.4,3.6,3.6,0,0,0,.15.36,3.88,3.88,0,0,0,.69.88l.19.18a5.35,5.35,0,0,0,.17.6c0,.12.1.24.14.36a6.62,6.62,0,0,0,.3.66c.06.1.11.2.18.28a4.67,4.67,0,0,0,.71.88,5.17,5.17,0,0,0,.53.39l.09,0c-.06.16-.12.34-.21.52-.23.47-.34.93-.49,1.29A1.54,1.54,0,0,1,496.35,671.49Zm1.21,33.68a17,17,0,0,0,3.15-4.39,13.14,13.14,0,0,0,1.12-5.46,43,43,0,0,0,0-4.32,38.21,38.21,0,0,0-1.18-7.29c-.61-2.29-1.62-4.29-2.08-6.41a28.52,28.52,0,0,0-1.27-4.89,3.09,3.09,0,0,0,.79-1.21,10,10,0,0,1,.43-1.16c.06-.14.14-.31.2-.47l.18.06.37.12c.22.07.44.13.68.18l.34.08.72.13.18,0c1.33.23,2.69.54,4.1.7a8,8,0,0,0,1.11,0l.3,0,.17,0c.07.2.13.41.18.62a8.8,8.8,0,0,1,.16,1.07,7.55,7.55,0,0,1-.59,3.41c-.16.43-.55.86-.88,1.51a3.86,3.86,0,0,0-.24.75.12.12,0,0,0,0,.11.79.79,0,0,0-.07.28c0,.12-.06.25-.08.37a2.32,2.32,0,0,0-.06.41s0,.05,0,.09c0,.21,0,.42-.08.6v.09a19.21,19.21,0,0,0-.06,3.28c0,.49.08,1,.14,1.44.09.68.15,1.37.19,2.07.1,1.62.13,3.28.23,5,0,.52.08,1,.13,1.57a47,47,0,0,0,1.45,8.62c.09.33.19.69.31,1.06v.05c0,.12.09.22.12.34.16.39.3.77.41,1.15s.15.48.2.7a4,4,0,0,1,.1.69,3.24,3.24,0,0,1,0,.53,9.52,9.52,0,0,1-.93,3.1,11.18,11.18,0,0,1-.63,1.16l0,.07a10,10,0,0,1-.79,1,0,0,0,0,0,0,0,5.74,5.74,0,0,1-1,.83v0l-.24.12-.61-.52a17.75,17.75,0,0,0-2.87-2,6.17,6.17,0,0,0-3.21-.74l-.44,0a3.55,3.55,0,0,0-.74.21,8.49,8.49,0,0,1-.26-1.58A4,4,0,0,1,497.56,705.16Zm8.94-20.46c-.05-.4-.08-.8-.12-1.2.26.74.52,1.49.74,2.28a20.59,20.59,0,0,1,.6,3.93c.09,1.41.1,2.85.12,4.38a35.18,35.18,0,0,1-.16,4.28c-.28-1.66-.45-3.35-.63-5.05,0-.5-.09-1-.13-1.51-.1-1.62-.13-3.3-.23-5C506.64,686.15,506.58,685.42,506.49,684.71Zm-12.77,51c1.1-1.7,1.27-3.41,1.8-5a20.78,20.78,0,0,0,.88-7.58,28.81,28.81,0,0,0-1.42-7,2.83,2.83,0,0,1-.13-.71,4.7,4.7,0,0,1,.79-2.76,3.74,3.74,0,0,1,.49-.61,4.13,4.13,0,0,1,.51-.45,2.8,2.8,0,0,1,.59-.34,2.11,2.11,0,0,1,.58-.18l.32,0a4.82,4.82,0,0,1,2.54.61,16.12,16.12,0,0,1,2.63,1.84,1,1,0,0,0,.15.11.41.41,0,0,0,.12.11.6.6,0,0,0-.1.5.07.07,0,0,0,0,.05,2.5,2.5,0,0,0,.23.63,3.62,3.62,0,0,0,.74,1.14c.16.16.31.3.45.43a10.58,10.58,0,0,1-1,2.48,54.65,54.65,0,0,0-3.41,10.25q-1,3.82-1.74,7.73c0,.18-.06.39-.09.62a20.45,20.45,0,0,1-.41,2.34,4.3,4.3,0,0,1-.26.73,1.78,1.78,0,0,0-.33-.63,4.18,4.18,0,0,0-.65-.52l-3.82-2.52a1.56,1.56,0,0,0-.33-.14A10.55,10.55,0,0,0,493.73,735.74ZM481,747l.28-.19.28.07h0a6.24,6.24,0,0,0,3.87-2c2-2,3.06-4.54,5-6a7.16,7.16,0,0,1,.65-.46,2.43,2.43,0,0,1,.61-.34,1.41,1.41,0,0,1,.4-.11.54.54,0,0,1,.25.07c.06,0,.1,0,.16,0,1.28.84,2.54,1.69,3.82,2.52a2.57,2.57,0,0,1,.41.32l.07.14v0a1,1,0,0,1-.22.64,1.49,1.49,0,0,1-.23.31c-.07.07-.16.13-.25.21a3,3,0,0,1-.3.25l-.1.08a1.36,1.36,0,0,1-.22.12,5.39,5.39,0,0,1-.57.33,12.45,12.45,0,0,0-3.31,1.79c-.36.32-.71.61-1.11.91v0c-1.84,1.47-3.92,2.69-6,4a1.23,1.23,0,0,0-.25-.54c-.14-.15-.26-.25-.35-.34a3.8,3.8,0,0,0-.93-.61l-.11-.13a3.08,3.08,0,0,0-1-.51,4.5,4.5,0,0,1-.7-.27,1,1,0,0,0-.25-.09Zm-2.05,4a10.7,10.7,0,0,1-1.08.1l0,0-.5,0-.36,0c-.33,0-.66,0-1,0h-.15l-.46,0a1.6,1.6,0,0,1-.34-.82v0a.78.78,0,0,1,.06-.39l.17-.1a2.31,2.31,0,0,1,.56-.09l.46,0c.16,0,.33,0,.5,0a9.05,9.05,0,0,0,2.47-.95l.53-.28a1.32,1.32,0,0,1,.29-.14l.21,0,.12,0h.12a4.32,4.32,0,0,0,.83.35l.1,0a1.65,1.65,0,0,1,.51.23l.26.26a2.8,2.8,0,0,1,.78.46l.17.17L483,750a.37.37,0,0,1-.14,0v0c-.27.07-.53.14-.78.23l-.81.23a2.7,2.7,0,0,1-.33.09A14.7,14.7,0,0,1,479,751.06Zm16.6-1.81a.82.82,0,0,1-.26.51,6.91,6.91,0,0,1-.73.56,2.53,2.53,0,0,1-1,.22l-.76,0c-2.61.31-5.26.62-7.87,1-1.42.2-2.73.65-4,.73a5.23,5.23,0,0,1-1.16,0,.36.36,0,0,0-.13,0c.51-.1,1.06-.21,1.55-.35s1.22-.36,1.81-.54h0a2.7,2.7,0,0,0,.64.06,2.55,2.55,0,0,0,1.19-.39l0,0c2-1.34,4.17-2.58,6.13-4.11h0a14.77,14.77,0,0,0,2.8.59,1,1,0,0,0,.3,0s0,0,0,0l.11.15.19.21.06,0,.37.31a1.55,1.55,0,0,0,.33.17h0l0,0,.13,0,0,.05a2.36,2.36,0,0,1,.15.58Zm-.27-3.22a.93.93,0,0,1-.59.2H494c-.47-.06-1-.15-1.45-.26a1.28,1.28,0,0,1-.25-.07,1.58,1.58,0,0,0,.21-.17,11.5,11.5,0,0,1,3-1.56,9.69,9.69,0,0,0,.95-.55l.17-.11.48-.42s0,0,0,0h.13l.2,0a2.29,2.29,0,0,0,1.06-.66,2.42,2.42,0,0,0,.33-.46,5.72,5.72,0,0,0,.57-1.24,11.42,11.42,0,0,0,.33-1.33c.16-.88.26-1.71.34-2.17.44-2.57,1-5.11,1.7-7.62.2-.69.39-1.41.57-2.1l.49-1.76c.19-.7.4-1.39.62-2.09a3,3,0,0,1,.16-.4c.12-.43.28-.86.44-1.29a25.17,25.17,0,0,1,1-2.36v0a11.82,11.82,0,0,0,.58-1.26s0-.05.05-.09a5.64,5.64,0,0,0,.31-.82,3.76,3.76,0,0,0,.1-.44l0,0h.09c.2,0,.38.12.56.16a8.53,8.53,0,0,1,3.17,1.62,7.79,7.79,0,0,1,.69.59,1,1,0,0,0,.17.2,6.63,6.63,0,0,1,.69.8s.07.14.08.31v.09a2.83,2.83,0,0,1,0,.49s0,.09,0,.14a4.22,4.22,0,0,1-.48,1.06l-4.69,8.33c-1.52,2.69-3.5,5.14-5.2,7.88-.42.67-.8,1.29-1.21,1.9a8.89,8.89,0,0,1-.62.9c-.21.29-.44.57-.68.85a.9.9,0,0,1-.16.17,28.87,28.87,0,0,0-2.62,3A1.89,1.89,0,0,1,495.32,746ZM514.26,720h.29l.07,0a5.7,5.7,0,0,1,2.33,2.74,4.69,4.69,0,0,1,.08.64,7.91,7.91,0,0,1-.9,3.52c-1.87,4.36-5.06,8-8.3,11.67a61.12,61.12,0,0,1-8.61,8.48,3.59,3.59,0,0,1-1.16.67l-.34,0a3.73,3.73,0,0,1-1.6-.33l-.28-.1,0,0a1.21,1.21,0,0,0,.28-.12,4,4,0,0,0,.93-1,30.34,30.34,0,0,1,2.67-3,17,17,0,0,0,1.42-1.88c.41-.64.81-1.28,1.22-1.93s.84-1.31,1.28-2c1.33-1.94,2.75-3.87,4-6,1.54-2.78,3.12-5.56,4.69-8.33a5.12,5.12,0,0,0,.6-1.46,3.47,3.47,0,0,0,.08-1v-.14a1.87,1.87,0,0,0-.08-.38,1.31,1.31,0,0,0-.24-.51v0s0,0,0,0l-.11-.12A3.43,3.43,0,0,0,514.26,720Zm2.89-13.87c0,2.63-1.44,4.71-2.27,7.5a7.78,7.78,0,0,1-.94,2.27,9.14,9.14,0,0,0-.65,1.18,2,2,0,0,1-.63.74,2.7,2.7,0,0,1-.39.17,2.41,2.41,0,0,1-.87.2,9.67,9.67,0,0,0-4.89-2.5l-.2,0a3.87,3.87,0,0,0-.42,0,3,3,0,0,1-.34-.31.66.66,0,0,1-.15-.15,2.41,2.41,0,0,1-.48-.7v0l.15-.08c.18-.12.41-.2.59-.32l.06,0,0,0a7.38,7.38,0,0,0,1.13-1,.15.15,0,0,1,.07-.06,10.68,10.68,0,0,0,.88-1.18s0-.07.07-.09.16-.27.22-.42a.58.58,0,0,0,.14-.24.08.08,0,0,0,0-.07s0,0,0,0c.1-.18.19-.36.3-.56v0a10,10,0,0,0,1-3.53,4,4,0,0,0,0-.72,8.84,8.84,0,0,0-.47-2.05c-.16-.41-.3-.82-.45-1.2v0c-.09-.26-.15-.57-.24-.88a36.86,36.86,0,0,0,.65-7.79c0-1.5,0-3-.13-4.44a20.38,20.38,0,0,0-.66-4.19,30.68,30.68,0,0,0-1.93-5.21v0a11.93,11.93,0,0,1,.29-1.73,2,2,0,0,1,.16-.47c.19-.42.59-.86.9-1.55a8.65,8.65,0,0,0,.69-4,8.75,8.75,0,0,0-.2-1.37,8.15,8.15,0,0,0-.26-.84v0s.07,0,.08-.07a1.62,1.62,0,0,1,.16-.15,2.82,2.82,0,0,0,.47-.82,1.83,1.83,0,0,1,.06-.2v0h0c.92.34,1.84.7,2.77,1a8.61,8.61,0,0,0,2.83.48v0a5.91,5.91,0,0,1,.37,1.85v.07c.16,2.49.29,5,.46,7.49.12,2.06,0,4.11.1,6.26,0,.58.09,1.15.17,1.74.52,3.06.59,6.23.85,9.41l.16,2.44c0,.54.07,1.06.15,1.6.16,1.3.39,2.53.47,3.75A7.92,7.92,0,0,1,517.15,706.09Zm-2.6-40a.61.61,0,0,0,.51.3c.06.42.13.83.15,1.27s0,.89,0,1.33a3.78,3.78,0,0,1-.63.15h-.11a7.26,7.26,0,0,1-2.5-.42l0,0c-1-.3-1.95-.66-2.93-1.05a1.59,1.59,0,0,0-.57-1.15,6.49,6.49,0,0,0-2.43-1.17c-.91-.27-1.84-.56-2.77-.82.17-1.18.35-2.37.52-3.53.06-.42.12-.81.2-1.17a3.73,3.73,0,0,1,.4-1,7.64,7.64,0,0,1,1.94-1.72,6,6,0,0,0,1.11-1.17h0c.37.38.74.77,1.16,1.15h0a1.69,1.69,0,0,0-.1.62v.07h0A2.22,2.22,0,0,0,509,659a5.27,5.27,0,0,0,.76.81A23.77,23.77,0,0,1,514.55,666.09Zm-1.76-175.61a5.45,5.45,0,0,1-1.06,3.5,8.29,8.29,0,0,0-1.69,2.17,18.43,18.43,0,0,0-.9,3,33.86,33.86,0,0,0-.54,10c.06,1,.14,2,.22,3,.17,2,.31,4,.44,5.93.22,3.43.4,6.87.62,10.3L510,530c.31,4.41.93,8.76,1.4,13.11s.82,8.66,1.27,13c.49,4.67,1.3,9.41,1.59,14.06.07,1.06.12,2.12.12,3.17,0,6,.11,12.05.33,18.09s.17,12,0,18-.12,11.8-.73,17.58a57.09,57.09,0,0,0,.13,9.37c0,.16,0,.33,0,.49a55.58,55.58,0,0,0,.72,6c.28,1.6.91,3.28,1,4.75a4.85,4.85,0,0,1,0,1,7.49,7.49,0,0,1-1,2.39c-.45.86-.65,1.8-1,2.36a5.22,5.22,0,0,1-2.1,1.69,15.41,15.41,0,0,1-2.42,1c-.55-.52-1.08-1-1.58-1.59a29.9,29.9,0,0,1-2.35-3s0,0,0,0a14.15,14.15,0,0,1-.81-1.3.63.63,0,0,1-.08-.13c-.11-.2-.19-.41-.29-.62a8.25,8.25,0,0,1-.34-.77c0-.1-.09-.2-.12-.3s0-.13,0-.2a3.92,3.92,0,0,1-.15-.79,20.5,20.5,0,0,1,.1-2.22,8.72,8.72,0,0,1,.83-3.72,19.55,19.55,0,0,0,1.29-6.35c.12-1.08.22-2.16.34-3.24.17-1.57.35-3.15.5-4.71.24-2.33.49-4.67.78-7a100.13,100.13,0,0,0,.32-13.11c0-3.68.76-7.22.83-11.12q.14-11.88-.62-23.75c-.07-1.07-.15-2.13-.22-3.2-.69-9.1-1-18.55-2.82-27.56q-1.63-8.09-3.63-16.1a2,2,0,0,1-.08-.28h0c-.39-1.52-.83-3-1.25-4.53-.25-.93-.5-1.85-.71-2.77A11,11,0,0,1,499,516a18.24,18.24,0,0,1,.57-5.24l0-.05q.32-1.38.69-2.75c.49-2,1-3.91,1.54-5.87a8,8,0,0,0,.27-2.57,5.83,5.83,0,0,0-2-4.18l-.24-.2a2.85,2.85,0,0,1-.62-.6,1.28,1.28,0,0,1-.23-.71,2.67,2.67,0,0,1,0-.33c0-.07,0-.14,0-.21a2.71,2.71,0,0,1,.39-1.31,14.89,14.89,0,0,1,5-3.77l.17-.09a9,9,0,0,1,2.74-.89h.09a4.57,4.57,0,0,1,.87.07,13.38,13.38,0,0,1,2.38.65,3.45,3.45,0,0,1,1.64,1,2.22,2.22,0,0,1,.43,1.27Zm-12.85,13.6,0-.35c.15-1.42.46-2.74.55-4.2a10.52,10.52,0,0,0,0-1.37,5.13,5.13,0,0,1,.29,1.4,6.71,6.71,0,0,1,0,1.08,6.52,6.52,0,0,1-.21,1.06C500.38,502.49,500.17,503.28,499.94,504.08Z"/><path class="cls-2" d="M181.54,359c.8-7.48,1.83-26.47,2.32-33.94l0-.37q.22-3.34.47-6.67.49-5.84,1.1-11.66,1.89-17.46,5.21-34.72a79.86,79.86,0,0,1,4.61-16.58c.29-.66.58-1.31.89-1.95s.66-1.27,1-1.9.72-1.24,1.1-1.84.79-1.19,1.2-1.77c.24-.31.51-.58.76-.87a16,16,0,0,1,1.62-1.64c.31-.25.57-.53.89-.76.84-.65,2.08-1.08,3.11-1.92a5,5,0,0,0,.75-.83,9.25,9.25,0,0,0,1.34-3.31c.1-.39.18-.79.25-1.18q1.47,1.38,2.85,2.89c.23.26.49.51.72.78.09.1.16.19.24.29a6.88,6.88,0,0,1,1.16,1.74c.06.15.12.31.19.49a9,9,0,0,1,.31,1.92,17.07,17.07,0,0,0,1.15,6c.85,1.77,2.51,2.76,3.86,3.74,1.7,1.22,3.32,2.49,4.87,3.85a9.57,9.57,0,0,0,.17,2.23,11,11,0,0,0-1,.67c.77-.32,1.55-.61,2.34-.89,0-.24-.1-.48-.13-.73a8.94,8.94,0,0,1-.05-1.88,12.16,12.16,0,0,1,.68-3.07,15.51,15.51,0,0,1,4.84-6.7l.64-1.57c-.56-2.28.86-4.31,2.55-6.14q.72-1.71,1.46-3.41l-.3.3c-.29.31-.59.65-.93,1-2.23,2.29-5,5.12-4.08,8.64a16.91,16.91,0,0,0-5.41,7.47,13.71,13.71,0,0,0-.62,2.51c-1.37-1.16-2.77-2.27-4.24-3.31s-2.84-1.92-3.45-3.23a15.88,15.88,0,0,1-1-5.52,8.73,8.73,0,0,0-.6-2.82,9.42,9.42,0,0,0-1.61-2.37,52,52,0,0,0-4.34-4.39c.08-.6.13-1.17.18-1.64,0-.27,0-.53.07-.8a21.16,21.16,0,0,0,0-2.53c0-.16,0-.33,0-.49-.06-.71-.11-1.43-.22-2.13l0-.21a.37.37,0,0,1,0-.12c-.14-.8-.3-1.6-.51-2.39h0c-.1-.41-.27-.81-.4-1.21s-.25-.86-.42-1.27v0l.76-.82a7.07,7.07,0,0,0,1.26-1.61,3,3,0,0,0,.32-1.17,2.17,2.17,0,0,0-.21-1.15s0-.06,0-.09a2.48,2.48,0,0,0-1-1,5.89,5.89,0,0,0-1-.42,21.35,21.35,0,0,0-4.56-1h0a31.22,31.22,0,0,0-3.44-3.54,2.15,2.15,0,0,1-.18-.17,3.93,3.93,0,0,1,.62,0,1.33,1.33,0,0,1,.33.06.28.28,0,0,1,.14.08h0a3.14,3.14,0,0,1,.25.32l.12.16.11.13.27.27h0l.14.09c.07,0,.12.09.19.13a2.06,2.06,0,0,0,.34.14h.07a2.6,2.6,0,0,0,.59.11h0a5.91,5.91,0,0,0,1,0c2.38-.22,4.74-.46,7.11-.67l.93-.07,2.53-.18,1-.06c1.13-.06,2.28-.1,3.42-.11,1.32,0,2.73,0,4.14,0,.48,0,1,0,1.43.05.76,0,1.52.12,2.27.22a17.55,17.55,0,0,1,6.15,1.83.62.62,0,0,0,.3.08.69.69,0,0,0,.32-.07l0,0,1.77-.93,1.17-.61.72-.38,1.45-.78,2.24-1.19c.69,0,1.37.06,2,.05h.58c.62,0,1.25-.05,1.87-.11h.16c.51-.06,1-.12,1.56-.21l1-.14.66-1.41c-.63.08-1.25.16-1.88.26l-.29,0a25.51,25.51,0,0,1-5.62.23h-.17l-.35.07-1.79.95-4.38,2.33-1.11.59c-.17-.09-.35-.14-.52-.22h0a17,17,0,0,0-2.4-.88l-.75-.21-.48-.14-.4-.07c-.6-.13-1.2-.23-1.81-.32s-1.51-.17-2.25-.22l-1,0c-1.63-.07-3.23-.08-4.71-.07-3.82,0-7.6.38-11.36.74l-3.75.36a5.11,5.11,0,0,1-.75,0,1,1,0,0,1-.61-.19,5.55,5.55,0,0,1-.52-.62c-.05-.06-.09-.12-.16-.18l-.08-.07-.22-.17a2.39,2.39,0,0,0-.32-.15l-.09,0a2.78,2.78,0,0,0-.59-.11,6.85,6.85,0,0,0-1.23.07,6.44,6.44,0,0,1-.87.08h-.22l-.19,0a17.87,17.87,0,0,1-2.91-.54,25,25,0,0,0-4.63-1h-.23a3.06,3.06,0,0,1,.81-.64.55.55,0,0,1,.11-.08,7.32,7.32,0,0,1,2.34-.68,25.06,25.06,0,0,1,5.47-.21,28.19,28.19,0,0,1,2.91.34.65.65,0,0,0,.69-.34,3.5,3.5,0,0,1,1.76-1.49,11.16,11.16,0,0,1,2.65-.71c4.59-.78,9.19-.65,13.92-1.28s9.66-1.4,14.48-1.63a131,131,0,0,0,14.34-1.46c1-.16,2.05-.37,3.07-.57l.7-1.47c-1.31.27-2.64.53-4,.74-1.77.28-3.53.51-5.31.71s-3.55.39-5.34.52c-1.18.09-2.37.16-3.55.22-4.93.23-9.77,1-14.6,1.64-3.44.46-6.91.5-10.43.83-1.18.11-2.36.25-3.54.45-.25,0-.5.1-.75.15a10.71,10.71,0,0,0-2.21.65,5.34,5.34,0,0,0-1.68,1.14,5.86,5.86,0,0,0-.44.54l-1.3-.18c-.43-.05-.88-.1-1.32-.12a29,29,0,0,0-2.92,0,24.57,24.57,0,0,0-2.85.27,10.22,10.22,0,0,0-2.07.51,5.41,5.41,0,0,0-.68.31,4.32,4.32,0,0,0-1.72,1.65c-.29.09-.59.16-.87.28a11.38,11.38,0,0,0-3.68,2.37,10.93,10.93,0,0,0-2.49,3.6,6.19,6.19,0,0,0-2.31,1.3,10,10,0,0,0-1.64,2.34c-1,1.78-2,3.59-2.88,5.43-.45.93-.87,1.86-1.25,2.81s-.73,1.9-1,2.86a59.87,59.87,0,0,0-2.51,11.81c-.25,2-.42,4-.55,6-.16,2.42-.25,4.83-.34,7.22-.25,7.64-.16,15.28-.31,22.89,0,2.54-.13,5.07-.25,7.61,0,1-.11,1.9-.17,2.85-.15,2.34-.35,4.67-.57,7-.67,7-1.58,14-2.28,21-.45,4.47-.9,8.94-1.32,13.42s-2.54,26.15-2.83,30.64m45.36-142.73-1.22.37-.28.08c-.24-.34-.49-.68-.73-1A19.44,19.44,0,0,1,206.07,217.53Zm.77,3.46-.37.4-.67.73a.75.75,0,0,0-.17.33.7.7,0,0,0,.05.34v0a.11.11,0,0,0,0,.06h-.13c-.36,0-.93.09-1.6.14a13.61,13.61,0,0,1-1.9.06,1.87,1.87,0,0,1-.63-.11,4.88,4.88,0,0,1-.85-.95,1.5,1.5,0,0,1-.31-.84l.09-.28a1.92,1.92,0,0,1,1.14-.61l2.48-.75,1.28-.39,2.58-.79a.82.82,0,0,1,.11.14,1,1,0,0,1,.11.53,1.88,1.88,0,0,1-.19.66,4.29,4.29,0,0,1-.45.64ZM162.35,358.85c.58-9,2.92-33.59,3.81-42.52.93-9.31,2.25-18.64,2.85-28.06.06-1,.12-1.91.16-2.87.5-10.19.23-20.38.57-30.52.08-2.39.18-4.79.33-7.18.51-8,1.7-15.84,5.21-23,.88-1.82,1.84-3.6,2.85-5.36a9,9,0,0,1,1.4-2,5.14,5.14,0,0,1,2.08-1.1.63.63,0,0,0,.4-.39,9.93,9.93,0,0,1,5.9-5.62.66.66,0,0,0,.44.15,8.64,8.64,0,0,1,1.2,0c.36,0,.72.07,1.08.13,1.06.18,2.13.5,3.31.81.54.14,1.08.27,1.64.37s.89.13,1.33.18l.55.42.47.37.34.29.12.1c.3.27.61.54.9.83l.16.16.14.14c.35.35.69.7,1,1.05l.07.08.52.6.57.65h0c.23.26.44.52.66.78s.54.73.81,1.11l-2.09.64-.47.15a3.23,3.23,0,0,0-1,.54,2.35,2.35,0,0,0-.42.49,1.74,1.74,0,0,0-.19.43,1.64,1.64,0,0,0-.09.45,1.2,1.2,0,0,0,0,.23,2.52,2.52,0,0,0,.29,1.05,3.23,3.23,0,0,0,.21.37,5.27,5.27,0,0,0,.52.66,7.63,7.63,0,0,0,.56.55,1.93,1.93,0,0,0,1,.4l.37,0c.33,0,.68,0,1,0l1.06-.07.93-.09.61-.06.51,0c.11.33.23.65.33,1,0,.16.08.31.13.47.16.62.31,1.25.43,1.88a2.63,2.63,0,0,0,.05.33c0,.11,0,.22.05.33.09.6.15,1.21.2,1.81h0l0,.64a22.68,22.68,0,0,1,0,2.43l0,.38a3.29,3.29,0,0,1,0,.38c0,.55-.11,1.22-.21,1.93a21.83,21.83,0,0,1-.39,2.3,6.51,6.51,0,0,1-1.65,3.42c-.76.65-2,1.08-3.08,1.89a17.38,17.38,0,0,0-3.52,3.54,40.15,40.15,0,0,0-4.35,7.7,80.54,80.54,0,0,0-4.69,16.85,428.85,428.85,0,0,0-6.81,53.21l-2.3,33.23"/><polygon class="cls-3" points="162.74 502.17 162.45 502.14 162.45 502.14 162.74 502.17 162.74 502.17"/><polygon class="cls-3" points="162.74 502.17 162.45 502.14 162.45 502.14 162.74 502.17 162.74 502.17"/><circle class="cls-4" cx="85.3" cy="354.01" r="22.5"/><circle class="cls-4" cx="590.47" cy="275.22" r="22.5"/><circle class="cls-4" cx="590.33" cy="364.43" r="22.5"/><circle class="cls-4" cx="591.03" cy="449.54" r="22.5"/><polygon class="cls-5" points="415.74 310.24 443.03 351.84 388.46 351.84 415.74 310.24"/><line class="cls-6" x1="441.28" y1="281.26" x2="459.19" y2="478.68"/><rect class="cls-5" x="434.78" y="280.26" width="13" height="2" transform="translate(-23.6 41.01) rotate(-5.18)"/><rect class="cls-5" x="452.69" y="477.68" width="13" height="2" transform="translate(-41.36 43.44) rotate(-5.18)"/><line class="cls-7" x1="565.43" y1="366.42" x2="448.25" y2="378.74"/><line class="cls-6" x1="429.06" y1="379.99" x2="437.99" y2="479.62"/><rect class="cls-5" x="422.56" y="378.99" width="13" height="2" transform="translate(-32.2 39.8) rotate(-5.12)"/><rect class="cls-5" x="431.49" y="478.62" width="13" height="2" transform="translate(-41.1 41.05) rotate(-5.13)"/><line class="cls-7" x1="442.16" y1="290.42" x2="564.38" y2="276.16"/><line class="cls-7" x1="459.21" y1="461.89" x2="568.03" y2="452.18"/><line class="cls-7" x1="202.54" y1="358.09" x2="108.99" y2="356.63"/><line class="cls-6" x1="207.18" y1="283.05" x2="205.92" y2="364.7"/><rect class="cls-5" x="206.18" y="276.55" width="2" height="13" transform="translate(-79.01 485.87) rotate(-89.12)"/><rect class="cls-5" x="204.92" y="358.2" width="2" height="13" transform="translate(-161.89 565.01) rotate(-89.12)"/><polygon class="cls-5" points="400.01 408.92 427.3 450.52 372.73 450.52 400.01 408.92"/><polygon class="cls-5" points="238.72 295.45 266.01 337.05 211.44 337.05 238.72 295.45"/><circle class="cls-4" cx="392.61" cy="507.52" r="22.5"/><circle class="cls-4" cx="392.46" cy="586.73" r="22.5"/><circle class="cls-4" cx="393.16" cy="656.83" r="22.5"/><polygon class="cls-5" points="575.29 554.57 602.58 596.16 548 596.16 575.29 554.57"/><line class="cls-6" x1="540.25" y1="487.3" x2="539.51" y2="667.02"/><rect class="cls-5" x="539.25" y="480.8" width="2" height="13" transform="matrix(0, -1, 1, 0, 50.78, 1025.59)"/><rect class="cls-5" x="538.52" y="660.52" width="2" height="13" transform="translate(-129.68 1203.85) rotate(-89.77)"/><line class="cls-7" x1="532.69" y1="573.64" x2="415.52" y2="585.96"/><line class="cls-7" x1="419.89" y1="503.18" x2="524.34" y2="490.69"/><line class="cls-7" x1="419.87" y1="656.95" x2="529.12" y2="656.95"/><text class="cls-8" transform="translate(69.94 362.51)">C7</text><text class="cls-8" transform="translate(575.11 283.71)">C6</text><text class="cls-8" transform="translate(574.96 372.93)">C5</text><text class="cls-8" transform="translate(575.66 458.04)">C4</text><text class="cls-8" transform="translate(403.62 346.17)">L3</text><text class="cls-8" transform="translate(387.41 446.4)">L2</text><text class="cls-8" transform="translate(225.83 332.43)">L4</text><text class="cls-8" transform="translate(379.24 516.02)">C1</text><text class="cls-8" transform="translate(377.09 595.22)">C2</text><text class="cls-8" transform="translate(376.79 665.32)">C3</text><text class="cls-8" transform="translate(564.17 590.49)">L1</text></svg>