<svg id="Layer_1" data-name="Layer 1" xmlns="http://www.w3.org/2000/svg" viewBox="0 0 648 864"><defs><style>.cls-1{fill:#d1d3d4;}</style></defs><title>Outline 6</title><path class="cls-1" d="M529.75,482.82c-2.58-26.81-19.1-41-15.8-81.48s-7.81-79.47-7.81-79.47,8-39.45-3.47-74.36a63.78,63.78,0,0,0-14.62-23.68l.12-.34c-15.85-16.4-35.73-25-35.73-25l-13.06-6.65S377.06,166.42,371.64,161s-7.45-47.89-7.45-63.19H283.81c0,15.3-2,57.77-7.45,63.19s-67.74,30.84-67.74,30.84l-13.06,6.65s-19.88,8.59-35.73,25l.12.34a63.78,63.78,0,0,0-14.62,23.68c-11.43,34.91-3.47,74.36-3.47,74.36s-11.1,39-7.81,79.47-13.22,54.67-15.8,81.48c-4.59,47.76-.9,114.25,2.17,152.06,1.37,16.88-.1,48.94,1.33,66.49,1,12.17,4.43,33,11.27,42.07s21.77,23.41,26,21.48c3.41,2.9,23,.87,19.64-6.59s-14.47-9.52-19.26-17.26-5.12-30.91-1.18-31.23,12,6.59,12.68,14.86,3.4,20.53,13.55,20.9c7.11.25,2.25-9.2,1.49-18.54-.74-9.06.17-27.59-12.68-46.58s-14.71-37.06-13-57.24,26.21-79.68,29-113.68-6.29-50-1.62-65.55,16.22-65.14,14.42-87.26l-.2-1,5.44-67c-.05,0,14.13,81,14.13,81,3.65,13.66,4.8,69.36,4.8,98.95,0,24.05,3.18,45.66,1,60.25l96.73.25h.14L420.8,529c-2.19-14.59,1-36.2,1-60.25,0-29.59,1.15-85.29,4.8-98.95,0,0,14.18-81,14.13-81l5.44,67-.2,1c-1.8,22.12,9.76,71.66,14.42,87.26s-4.42,31.55-1.62,65.55,27.28,93.5,29,113.68-.14,38.25-13,57.24S462.84,718,462.1,727.06c-.76,9.33-5.62,18.79,1.49,18.54,10.14-.37,12.87-12.62,13.55-20.9s8.73-15.18,12.68-14.86,3.61,23.49-1.18,31.23-15.88,9.8-19.26,17.26,16.23,9.49,19.64,6.59c4.2,1.93,19.25-12.51,26-21.48s10.28-29.9,11.27-42.07c1.43-17.55,0-49.62,1.33-66.49C530.65,597.07,534.34,530.57,529.75,482.82Z"/></svg>