<?xml version="1.0" encoding="utf-8"?>
<!-- Generator: Adobe Illustrator 20.0.0, SVG Export Plug-In . SVG Version: 6.00 Build 0)  -->
<svg version="1.1" id="Layer_1" xmlns="http://www.w3.org/2000/svg" xmlns:xlink="http://www.w3.org/1999/xlink" x="0px" y="0px"
	 viewBox="0 0 648 864" style="enable-background:new 0 0 648 864;" xml:space="preserve">
<style type="text/css">
	.st0{fill:#1578B5;}
</style>
<title>Outline 6</title>
<path class="st0" d="M496,647.3c-0.1-9.1-0.5-15.6-0.6-17.7c-1.4-29.4,6.4-45.8,3.6-78.5c-0.8-9.4-3-15.7-3.8-29.4
	c-0.7-11.5,0-15.6-1.4-29.2c-1.2-12.1-2.6-18.2-4-22.8c-1.6-5.4-3.7-10.7-6.2-15.8c-2.2-43.4-5.5-70.8-8.2-88.3
	c-2.2-14.3-3.8-20.2-4.3-32.8c-0.6-18.3,2-27.4-2.5-39.7c-2.6-6.6-5.8-13-9.5-19.1c-3.8-6.1-8.5-11.6-13.9-16.3
	c-8.2-7.1-17.1-13.3-26.5-18.7c-29.1-15.5-40.3-11.9-51.4-21c-10.1-8.2-19-26-13.3-67.7H324h-30.1c5.8,41.8-3.1,59.5-13.3,67.7
	c-11.1,9-22.2,5.5-51.4,21c-9.4,5.3-18.3,11.6-26.5,18.7c-5.5,4.7-10.2,10.2-13.9,16.3c-3.7,6.1-6.9,12.5-9.5,19.1
	c-4.5,12.3-1.9,21.4-2.5,39.7c-0.4,12.6-2,18.5-4.3,32.8c-2.7,17.5-6,44.9-8.2,88.3c-2.5,5.1-4.6,10.3-6.2,15.8
	c-1.3,4.5-2.8,10.6-4,22.8c-1.3,13.6-0.6,17.7-1.4,29.2c-0.8,13.7-3,20-3.8,29.4c-2.8,32.7,5,49.1,3.6,78.5
	c-0.1,2.1-0.5,8.6-0.6,17.7c-0.2,11.7,0.2,12.6,0,19.8c-0.5,21-4.4,23.2-1.1,30.4c3.6,8,11.2,12,16.7,14.2
	c1.1,0.3,16.7,4.7,20.9-1.2c0.4-0.6,2.3-3.2,1.5-5.5c-0.4-1.1-1.2-1.9-2.3-2.4c-7.2-4.7-10.1-9.9-11.4-12.8
	c-2.9-6.4-2.7-12.9-2.4-22.3c0.1-3.7,0.4-6.7,0.6-8.8c0.5,1.1,1.4,3.1,2.5,5.5c6.5,14.7,7.6,18.4,11.8,22c1.8,1.5,6.3,5.3,8.9,3.9
	c5.1-2.7,0.5-23.9-7.2-40.8c-7.1-15.5-10.4-12.9-13.6-23.3c-1.9-6-1.7-9.5,3.5-50.1c1.9-14.9,2.5-19.3,3.6-26.1
	c2-12.6,3.1-19.2,5.1-27.2c5.9-24.1,11.6-26.4,15.5-48c1.3-7.3,2.1-14.6,2.3-22c0.2-7,0-13.9-0.6-20.9c-1-11,2.2-38.5,19.6-109.3
	l3.9,11c2.4,0.6-8.5,28.9,6.4,58.6c2,4,4.3,7.7,7,11.2c10.7,14.7,12.9,53.5-18.6,155.2l89.7,0.5v0.1l9.8,0l9.8,0V559l89.7-0.5
	C392,456.9,394.2,418,404.8,403.4c2.7-3.5,5-7.3,7-11.2c14.9-29.8,4-58,6.5-58.6l3.9-11c17.4,70.8,20.6,98.3,19.6,109.3
	c-0.6,6.9-0.8,13.9-0.6,20.9c0.2,7.4,1,14.7,2.3,22c3.9,21.6,9.5,23.9,15.5,48c2,8,3,14.7,5.1,27.2c1.1,6.8,1.7,11.2,3.6,26.1
	c5.1,40.6,5.4,44,3.5,50.1c-3.3,10.4-6.5,7.9-13.6,23.3c-7.8,16.8-12.4,38-7.2,40.8c2.6,1.4,7.2-2.4,9-3.9c4.2-3.6,5.3-7.3,11.8-22
	c1.1-2.4,2-4.4,2.5-5.5c0.2,2,0.5,5.1,0.6,8.8c0.3,9.5,0.4,16-2.4,22.3c-1.3,2.8-4.2,8.1-11.4,12.8c-1,0.4-1.9,1.3-2.3,2.3
	c-0.8,2.3,1.1,4.9,1.5,5.5c4.2,5.9,19.8,1.5,20.9,1.2c5.5-2.2,13.1-6.3,16.7-14.2c3.2-7.1-0.6-9.4-1.1-30.4
	C495.8,659.9,496.2,659,496,647.3z"/>
</svg>
