<svg id="Layer_1" data-name="Layer 1" xmlns="http://www.w3.org/2000/svg" viewBox="0 0 648 864"><defs><style>.cls-1{fill:#d1d3d4;}</style></defs><title>Outline 6</title><path class="cls-1" d="M496,647.35c-.15-9.11-.51-15.64-.61-17.7-1.43-29.44,6.38-45.84,3.59-78.55-.8-9.39-3-15.71-3.79-29.43-.7-11.47,0-15.61-1.35-29.21-1.18-12.13-2.62-18.23-4-22.77a97.32,97.32,0,0,0-6.2-15.76c-2.18-43.37-5.45-70.83-8.17-88.3-2.23-14.27-3.83-20.18-4.26-32.79-.62-18.31,2-27.4-2.51-39.66a121.4,121.4,0,0,0-9.51-19.08,68.57,68.57,0,0,0-13.93-16.28,164.39,164.39,0,0,0-26.53-18.68c-29.14-15.48-40.28-11.94-51.38-21-10.14-8.24-19-26-13.29-67.74l-30.1,0-30.1,0c5.75,41.76-3.14,59.5-13.29,67.74-11.1,9-22.24,5.49-51.38,21a164.4,164.4,0,0,0-26.53,18.68,68.57,68.57,0,0,0-13.93,16.28,121.4,121.4,0,0,0-9.51,19.08c-4.53,12.26-1.89,21.36-2.51,39.66-.43,12.61-2,18.51-4.26,32.79-2.73,17.47-6,44.94-8.17,88.3a97.32,97.32,0,0,0-6.2,15.76c-1.34,4.54-2.78,10.64-4,22.77-1.32,13.6-.65,17.74-1.35,29.21-.83,13.72-3,20-3.79,29.43-2.78,32.71,5,49.11,3.59,78.55-.1,2.07-.46,8.59-.61,17.7-.19,11.68.22,12.59,0,19.76-.51,21-4.35,23.24-1.11,30.38,3.6,7.95,11.21,12,16.71,14.22,1.1.32,16.69,4.67,20.91-1.19.43-.6,2.34-3.24,1.54-5.51a4.39,4.39,0,0,0-2.29-2.37c-7.16-4.66-10.13-9.93-11.4-12.75-2.86-6.37-2.68-12.87-2.42-22.34.1-3.68.38-6.71.6-8.76.51,1.12,1.4,3.07,2.48,5.49,6.54,14.65,7.59,18.43,11.82,22,1.76,1.48,6.32,5.31,8.95,3.92,5.1-2.7.5-23.94-7.25-40.76-7.13-15.47-10.36-12.94-13.65-23.33-1.92-6.05-1.66-9.53,3.48-50.1,1.88-14.87,2.47-19.35,3.56-26.11,2-12.56,3.08-19.17,5.06-27.22,5.95-24.13,11.61-26.37,15.46-48a154.19,154.19,0,0,0,2.31-22,196.46,196.46,0,0,0-.61-20.86c-1-11,2.21-38.54,19.61-109.34l3.94,11c2.45.58-8.46,28.88,6.45,58.63a72.41,72.41,0,0,0,7,11.24C253.79,418,256,456.86,224.45,558.52l89.73.5v.11l9.83-.05,9.83.05V559l89.73-.5C392,456.86,394.21,418,404.83,403.39a72.41,72.41,0,0,0,7-11.24c14.91-29.75,4-58,6.45-58.63l3.94-11c17.4,70.8,20.6,98.32,19.61,109.34a196.46,196.46,0,0,0-.61,20.86,154.19,154.19,0,0,0,2.31,22c3.85,21.65,9.51,23.9,15.46,48,2,8,3.05,14.66,5.06,27.22,1.08,6.76,1.67,11.24,3.56,26.11,5.13,40.57,5.4,44,3.48,50.1-3.3,10.4-6.52,7.86-13.65,23.33-7.75,16.81-12.35,38.05-7.25,40.76,2.62,1.39,7.18-2.44,8.95-3.92,4.23-3.56,5.29-7.33,11.82-22,1.08-2.43,2-4.37,2.48-5.49.23,2,.5,5.07.6,8.76.26,9.47.44,16-2.42,22.34-1.27,2.83-4.24,8.09-11.4,12.75A4.39,4.39,0,0,0,457.9,705c-.81,2.27,1.11,4.91,1.54,5.51,4.22,5.87,19.81,1.51,20.91,1.19,5.49-2.17,13.1-6.27,16.71-14.22,3.24-7.14-.6-9.41-1.11-30.38C495.77,659.94,496.18,659,496,647.35Z"/></svg>