<svg id="_0" data-name="0" xmlns="http://www.w3.org/2000/svg" viewBox="0 0 1440 380"><defs><style>.cls-1{fill:#207fd3;}.cls-2{fill:#bfbfbf;}.cls-3{fill:none;stroke:#bfbfbf;stroke-miterlimit:10;}</style></defs><title>Final LF LOGO</title><path class="cls-1" d="M168.66,328.52a3.88,3.88,0,0,1-5.42,3.58,155.46,155.46,0,0,1,0-283.6,3.88,3.88,0,0,1,5.42,3.58Z"/><path class="cls-2" d="M281.37,132h-70a3.88,3.88,0,0,1-3.88-3.88V39.56a3.91,3.91,0,0,1,3.48-3.9,155.46,155.46,0,1,1,0,309.27,3.92,3.92,0,0,1-3.48-3.89V252.47a3.88,3.88,0,0,1,3.88-3.88h70a3.88,3.88,0,0,0,3.88-3.88v-31.1a3.88,3.88,0,0,0-3.88-3.88h-70a3.88,3.88,0,0,1-3.88-3.88v-31.1a3.88,3.88,0,0,1,3.88-3.88h70a3.88,3.88,0,0,0,3.88-3.88v-31.1A3.88,3.88,0,0,0,281.37,132Z"/><path class="cls-1" d="M440.32,235.26h51.61v10H429.06V134.55h11.26Z"/><path class="cls-1" d="M525.7,245.27H514.45V134.55H525.7Z"/><path class="cls-1" d="M615.47,226.19h.16l37.06-91.64h17.2V245.27H658.63V149.09h-.31l-40,96.17h-5.94l-40-96.17H572v96.17H560.73V134.55h17.2Z"/><path class="cls-1" d="M704.91,134.55h33a62.45,62.45,0,0,1,12.67,1.33,34.54,34.54,0,0,1,11.49,4.53,25,25,0,0,1,8.29,8.68q3.2,5.48,3.21,13.76a23.25,23.25,0,0,1-5.35,15.25,25.09,25.09,0,0,1-14.3,8.52v.31a29.2,29.2,0,0,1,17.87,8.37q7.1,7.12,7.1,19.31A27.15,27.15,0,0,1,767.8,236.9a39.39,39.39,0,0,1-13,6.18,62.25,62.25,0,0,1-17.16,2.19H704.91ZM716.17,183h22.68a37.11,37.11,0,0,0,8.21-.94,22.82,22.82,0,0,0,7.58-3.21,17.15,17.15,0,0,0,5.55-6,18.57,18.57,0,0,0,2.11-9.23,17.79,17.79,0,0,0-2.11-9,17.52,17.52,0,0,0-5.71-6,24.56,24.56,0,0,0-8.44-3.36,50.28,50.28,0,0,0-10.32-1H716.17Zm0,52.54h21a56.26,56.26,0,0,0,11.65-1.17,29.89,29.89,0,0,0,9.7-3.75,20,20,0,0,0,6.65-6.72,18.86,18.86,0,0,0,2.5-9.93q0-10.95-7.43-16.34t-21-5.4h-23Z"/><path class="cls-2" d="M821.26,245.27H810V134.55h66.77v10H821.26v38.31h51.61v10H821.26Z"/><path class="cls-2" d="M1013,189.91a60.64,60.64,0,0,1-4.38,23.3,55,55,0,0,1-30.42,30.49,62.12,62.12,0,0,1-45.82,0,55,55,0,0,1-30.42-30.49,64.19,64.19,0,0,1,0-46.6,55,55,0,0,1,30.42-30.49,62.12,62.12,0,0,1,45.82,0,55,55,0,0,1,30.42,30.49A60.66,60.66,0,0,1,1013,189.91Zm-11.89.08A54.31,54.31,0,0,0,998,171.56a46.06,46.06,0,0,0-9.07-15.38,43.48,43.48,0,0,0-14.47-10.54,48.94,48.94,0,0,0-38.31,0,43.42,43.42,0,0,0-14.47,10.54,46,46,0,0,0-9.07,15.38,55.82,55.82,0,0,0,0,36.85,45.11,45.11,0,0,0,9.07,15.3,43.92,43.92,0,0,0,14.47,10.46,49,49,0,0,0,38.31,0,44,44,0,0,0,14.47-10.46,45.19,45.19,0,0,0,9.07-15.3A54.29,54.29,0,0,0,1001.09,190Z"/><path class="cls-2" d="M1053.32,245.27h-11.26V134.55h32.53a68.86,68.86,0,0,1,15.09,1.56,34,34,0,0,1,12,5.08,24,24,0,0,1,7.9,9.15,30.56,30.56,0,0,1,2.81,13.76,27.09,27.09,0,0,1-8.13,19.78,28.46,28.46,0,0,1-8.91,5.86,38.67,38.67,0,0,1-11.26,2.81l32.37,52.7h-13.76l-30.65-51.76h-18.77Zm0-61.46h19.55q13.6,0,21-4.93t7.35-14.78a19.18,19.18,0,0,0-2-9.23,16.66,16.66,0,0,0-5.63-6.1,25.69,25.69,0,0,0-8.76-3.44,55.29,55.29,0,0,0-11.42-1.09h-20Z"/><path class="cls-2" d="M1225.34,154.57a40.36,40.36,0,0,0-13.76-9.46,46.74,46.74,0,0,0-18.3-3.36,45.48,45.48,0,0,0-19.16,3.9,43.42,43.42,0,0,0-14.47,10.54,47,47,0,0,0-9.15,15.38,54.55,54.55,0,0,0,0,36.85,46.14,46.14,0,0,0,9.15,15.3,43.92,43.92,0,0,0,14.47,10.46,45.48,45.48,0,0,0,19.16,3.9,68.3,68.3,0,0,0,17.2-2,43.71,43.71,0,0,0,12.67-5.16V197.26h-25.8v-10h37.06v50a71.69,71.69,0,0,1-19.55,8.15,87.86,87.86,0,0,1-21.74,2.67A60.22,60.22,0,0,1,1170,243.7a54.06,54.06,0,0,1-30.26-30.49,61.53,61.53,0,0,1-4.3-23.3,60.61,60.61,0,0,1,4.38-23.3,55,55,0,0,1,30.42-30.49,59.23,59.23,0,0,1,22.91-4.38q13.29,0,23.14,4a49.8,49.8,0,0,1,16.89,11Z"/><path class="cls-2" d="M1280.07,235.26h59.27v10h-70.53V134.55h68.65v10h-57.39v38h53.64v10h-53.64Z"/><circle class="cls-3" cx="1366.63" cy="113.37" r="13.37"/><path class="cls-2" d="M1363,122h-1.75V104.76h5.06a10.71,10.71,0,0,1,2.35.24,5.29,5.29,0,0,1,1.87.79,3.73,3.73,0,0,1,1.23,1.42,4.75,4.75,0,0,1,.44,2.14,4.22,4.22,0,0,1-1.26,3.08,4.43,4.43,0,0,1-1.39.91,6,6,0,0,1-1.75.44l5,8.2h-2.14l-4.77-8.05H1363Zm0-9.56h3a5.84,5.84,0,0,0,3.26-.77,2.58,2.58,0,0,0,1.14-2.3,3,3,0,0,0-.32-1.44,2.59,2.59,0,0,0-.88-.95,4,4,0,0,0-1.36-.54,8.59,8.59,0,0,0-1.78-.17H1363Z"/></svg>