<svg id="_0" data-name="0" xmlns="http://www.w3.org/2000/svg" viewBox="0 0 1440 1432"><defs><style>.cls-1{fill:#207fd3;}.cls-2{fill:#bfbfbf;}.cls-3{fill:none;stroke:#bfbfbf;stroke-miterlimit:10;}</style></defs><title>Final LF LOGO</title><path class="cls-1" d="M474.51,1309.88c0,12-12.35,20.28-23.27,15.37a668,668,0,0,1-345.46-358.8C-29.39,632.32,125.1,252.95,451.23,106.67c10.93-4.9,23.28,3.4,23.28,15.37Z"/><path class="cls-2" d="M958.8,465.48H658.19a16.69,16.69,0,0,1-16.69-16.69V68.27a16.81,16.81,0,0,1,14.94-16.74,668,668,0,0,1,152.05,1.71c366,46.11,625.34,380.21,579.23,746.22-45.48,361-371.15,618.25-731.27,580.95a16.83,16.83,0,0,1-15-16.74V983.14a16.69,16.69,0,0,1,16.69-16.69H958.8a16.69,16.69,0,0,0,16.69-16.69V816.15a16.69,16.69,0,0,0-16.69-16.69H658.19a16.69,16.69,0,0,1-16.69-16.69V649.16a16.69,16.69,0,0,1,16.69-16.69H958.8a16.69,16.69,0,0,0,16.69-16.69V482.16A16.69,16.69,0,0,0,958.8,465.48Z"/><circle class="cls-3" cx="1211.63" cy="185" r="19"/><path class="cls-2" d="M1206.54,197.24h-2.49V172.76h7.19a15.22,15.22,0,0,1,3.34.35,7.52,7.52,0,0,1,2.66,1.12,5.3,5.3,0,0,1,1.75,2,6.75,6.75,0,0,1,.62,3,6,6,0,0,1-1.8,4.37,6.29,6.29,0,0,1-2,1.3,8.54,8.54,0,0,1-2.49.62l7.16,11.65h-3l-6.78-11.44h-4.15Zm0-13.59h4.32a8.29,8.29,0,0,0,4.63-1.09,3.67,3.67,0,0,0,1.62-3.27,4.24,4.24,0,0,0-.45-2,3.68,3.68,0,0,0-1.24-1.35,5.67,5.67,0,0,0-1.94-.76,12.21,12.21,0,0,0-2.52-.24h-4.42Z"/></svg>